<svg version="1.2" baseProfile="tiny" xmlns="http://www.w3.org/2000/svg" x="0" y="0" width="564.668" height="173.207" viewBox="0 0 564.6677 173.2069" xml:space="preserve"><path fill="#2905AD" d="M378.254 36.003h-29.606c-.46 0-.878.187-1.18.489l31.966 31.966c.302-.302.49-.72.49-1.18V37.672c0-.922-.748-1.67-1.67-1.67"/><path fill="#1F0ADE" d="M346.98 37.672v29.606c0 .922.746 1.669 1.668 1.669h29.606c.461 0 .878-.187 1.18-.49l-31.966-31.965c-.302.302-.489.719-.489 1.18"/><path fill="#940AD6" d="M348.846 7.293h-35.823c-.558 0-1.063.226-1.428.59l38.68 38.68c.364-.365.591-.87.591-1.427V9.313a2.02 2.02 0 0 0-2.02-2.02"/><path fill="#7D00AD" d="M311.003 9.312v35.823a2.02 2.02 0 0 0 2.02 2.02h35.823c.558 0 1.062-.226 1.428-.592l-38.68-38.679c-.365.365-.59.87-.59 1.428"/><path fill="#FF9600" d="M389.23 0h-32.568a1.836 1.836 0 0 0-1.836 1.836v32.567c0 .507.206.966.538 1.298L390.527.538A1.83 1.83 0 0 0 389.23 0"/><path fill="#F60" d="M390.527.538L355.364 35.7a1.83 1.83 0 0 0 1.298.538h32.567a1.836 1.836 0 0 0 1.836-1.836V1.836a1.83 1.83 0 0 0-.538-1.298"/><path fill="gray" d="M23.625 53.96c2.625.046 5.112.508 7.461 1.38 2.348.877 4.097 1.844 5.249 2.903l-3.937 8.497c-2.671-1.842-5.573-2.764-8.704-2.764-3.501 0-6.229 1.359-8.186 4.076-1.958 2.718-2.936 6.4-2.936 11.052 0 4.606.967 8.279 2.902 11.019 1.934 2.74 4.651 4.11 8.151 4.11.506 0 1.024-.034 1.554-.104a21.778 21.778 0 0 0 1.485-.242c.46-.092.909-.207 1.347-.345s.84-.277 1.209-.414a15.616 15.616 0 0 0 1.969-.9c.252-.137.472-.251.656-.344.184-.092.299-.161.346-.207l.138-.14 4.006 8.636c-3.132 2.718-7.529 4.076-13.193 4.076-6.77 0-12.32-2.198-16.649-6.597C2.164 93.254 0 87.072 0 79.104c0-7.966 2.176-14.15 6.528-18.547s10.051-6.597 17.097-6.597M40.273 52.716h11.744v18.237c.597-1.29 1.588-2.325 2.97-3.11 1.382-.781 2.924-1.173 4.628-1.173 1.105 0 2.153.184 3.144.553.99.369 2.037 1.013 3.142 1.934 1.107.92 1.993 2.372 2.66 4.352.667 1.98 1.001 4.398 1.001 7.253v22.52H57.822v-23.28c0-2.901-.9-4.352-2.696-4.352-.967 0-1.727.438-2.279 1.313-.553.875-.829 2.118-.829 3.73v22.589H40.273V52.716zM73.983 67.36h14.921v35.922H77.23V76.548l-3.247-.898v-8.29zm8.29-16.578c1.841 0 3.304.622 4.386 1.865 1.081 1.244 1.624 2.74 1.624 4.49 0 1.796-.553 3.305-1.659 4.525-1.105 1.22-2.556 1.83-4.35 1.83-1.705 0-3.109-.622-4.215-1.864-1.106-1.244-1.658-2.764-1.658-4.56 0-1.703.541-3.177 1.623-4.421 1.082-1.243 2.498-1.865 4.25-1.865M95.535 52.716h11.744v39.513c0 1.75.805 2.625 2.417 2.625.276 0 .783-.046 1.52-.138v8.15c-2.395.737-4.49 1.107-6.286 1.107-2.902 0-5.193-.771-6.873-2.315-1.682-1.542-2.522-4.41-2.522-8.6V52.716zM135.186 70.814V52.716h11.743v50.566h-10.155l-.966-4.836c-1.659 3.686-4.537 5.527-8.635 5.527-4.192 0-7.473-1.773-9.844-5.32-2.373-3.545-3.558-7.99-3.558-13.332 0-5.341 1.185-9.785 3.558-13.332 2.371-3.546 5.63-5.32 9.774-5.32 3.914 0 6.608 1.383 8.083 4.145m-4.905 4.836c-1.613 0-2.879.853-3.8 2.556-.92 1.704-1.38 4.076-1.38 7.115 0 2.994.46 5.354 1.38 7.08.921 1.728 2.187 2.59 3.8 2.59 1.565 0 2.81-.873 3.73-2.624.921-1.75 1.382-4.098 1.382-7.046 0-2.947-.46-5.295-1.382-7.046-.92-1.75-2.165-2.625-3.73-2.625M199.704 89.604c0 2.625-.495 4.917-1.485 6.873-.99 1.958-2.349 3.489-4.076 4.594a19.58 19.58 0 0 1-5.595 2.453c-2.003.528-4.157.794-6.459.794-5.48.09-10.478-1.081-14.99-3.523l3.592-9.395c3.822 1.934 7.506 2.902 11.052 2.902 3.777 0 5.665-1.336 5.665-4.007 0-1.335-.46-2.36-1.382-3.074s-2.51-1.53-4.766-2.453c-.46-.183-.806-.321-1.036-.414-1.934-.783-3.523-1.542-4.767-2.28-1.243-.735-2.568-1.715-3.972-2.935-1.405-1.22-2.452-2.73-3.142-4.525-.69-1.796-1.037-3.868-1.037-6.217 0-4.835 1.543-8.451 4.63-10.845 3.084-2.394 6.975-3.592 11.673-3.592 5.065 0 9.923 1.105 14.575 3.315l-3.109 9.119c-3.684-1.565-7-2.35-9.947-2.35-3.729 0-5.595 1.407-5.595 4.215 0 .369.035.714.103 1.036.07.322.196.634.38.933.184.299.346.552.484.759.138.208.403.438.794.69.392.255.691.45.898.588.208.139.588.335 1.141.588.552.254.943.438 1.174.552.23.116.701.323 1.416.622.713.3 1.208.495 1.485.587 1.796.737 3.258 1.428 4.386 2.073 1.13.645 2.384 1.543 3.766 2.693a10.748 10.748 0 0 1 3.108 4.283c.69 1.705 1.036 3.686 1.036 5.94M206.888 56.999h10.017V67.36h5.733v8.289h-5.733v16.993c0 1.935.829 2.902 2.486 2.902.874 0 1.888-.207 3.039-.622l.485 7.53c-2.902 1.012-5.505 1.52-7.807 1.52-6.631 0-9.947-3.983-9.947-11.951V75.65h-3.8v-7.322l3.8-.76 1.727-10.57zM225.953 84.975c0-5.526 1.451-9.957 4.352-13.297 2.902-3.339 6.677-5.008 11.329-5.008 4.328 0 7.737 1.44 10.224 4.317 2.486 2.88 3.822 6.713 4.006 11.502a25.033 25.033 0 0 1-.415 5.872h-18.237c.369 4.421 2.764 6.631 7.185 6.631 2.717 0 5.572-.598 8.566-1.796l2.694 7.806c-3.592 1.981-7.761 2.971-12.503 2.971-5.112 0-9.257-1.727-12.435-5.18-3.177-3.456-4.766-8.06-4.766-13.818m11.191-3.246h8.358c.092-1.658-.184-3.074-.829-4.249-.645-1.173-1.658-1.76-3.039-1.76-1.06 0-2.027.448-2.901 1.346-.876.898-1.405 2.453-1.589 4.663M280.248 66.67c4.422 0 7.772 1.773 10.052 5.319 2.28 3.547 3.419 7.99 3.419 13.332 0 5.343-1.14 9.787-3.42 13.332-2.28 3.547-5.629 5.32-10.051 5.32-3.638 0-6.24-1.382-7.805-4.145v15.197h-11.744V67.36h9.464l1.589 4.559c2.025-3.5 4.858-5.25 8.496-5.25m-3.04 8.98c-1.565 0-2.81.864-3.73 2.59-.921 1.728-1.381 4.089-1.381 7.08 0 2.995.46 5.355 1.382 7.082.92 1.727 2.164 2.59 3.73 2.59 1.612 0 2.877-.851 3.8-2.556.92-1.703 1.38-4.075 1.38-7.115 0-3.084-.46-5.467-1.38-7.15-.923-1.68-2.188-2.521-3.8-2.521M309.607 103.973c-4.145 0-8.29-.99-12.434-2.971l2.417-7.53c3.499 1.475 6.425 2.21 8.773 2.21 2.302 0 3.454-.92 3.454-2.762 0-.92-.518-1.727-1.554-2.418-1.036-.691-2.291-1.312-3.765-1.865a38.716 38.716 0 0 1-4.386-1.97c-1.451-.758-2.694-1.887-3.73-3.383s-1.555-3.327-1.555-5.492c0-3.87 1.3-6.69 3.904-8.462 2.6-1.773 5.79-2.66 9.566-2.66 3.546 0 7.368.922 11.468 2.763l-2.418 7.53c-2.718-1.381-5.365-2.073-7.944-2.073-2.211 0-3.316.922-3.316 2.763 0 .829.507 1.544 1.52 2.142 1.013.599 2.233 1.15 3.66 1.658a33.447 33.447 0 0 1 4.318 1.9c1.45.759 2.683 1.934 3.696 3.522 1.013 1.59 1.52 3.513 1.52 5.768 0 3.915-1.268 6.782-3.8 8.6-2.533 1.82-5.664 2.73-9.394 2.73M2.349 117.788h12.088v48.355H2.349zM21.414 130.222h8.842l1.797 5.112c1.934-3.869 4.81-5.803 8.634-5.803 1.106 0 2.176.184 3.213.552 1.036.37 2.094 1.025 3.177 1.97 1.08.944 1.957 2.417 2.625 4.42.667 2.004 1 4.433 1 7.288v22.382H38.962v-24.04c0-2.394-.923-3.592-2.764-3.592-2.027 0-3.04 1.612-3.04 4.835v22.797H21.415v-35.92zM59.89 119.86h10.017v10.362h5.733v8.289h-5.733v16.993c0 1.935.83 2.902 2.486 2.902.874 0 1.888-.207 3.04-.622l.484 7.53c-2.902 1.012-5.505 1.52-7.807 1.52-6.63 0-9.947-3.983-9.947-11.951v-16.372h-3.799v-7.322l3.8-.76 1.726-10.569zM78.956 147.836c0-5.526 1.451-9.957 4.352-13.297 2.902-3.339 6.677-5.008 11.33-5.008 4.327 0 7.736 1.44 10.223 4.317 2.486 2.88 3.822 6.713 4.006 11.502a25.033 25.033 0 0 1-.415 5.872H90.215c.37 4.421 2.764 6.631 7.185 6.631 2.717 0 5.572-.598 8.566-1.796l2.694 7.806c-3.592 1.981-7.76 2.971-12.503 2.971-5.112 0-9.257-1.727-12.435-5.18-3.177-3.456-4.766-8.06-4.766-13.818m11.191-3.246h8.358c.092-1.658-.184-3.074-.829-4.249-.645-1.173-1.658-1.76-3.039-1.76-1.06 0-2.027.448-2.9 1.346-.877.898-1.406 2.453-1.59 4.663M113.702 130.222h9.464l1.382 7.046c0-.184.045-.495.138-.933.092-.437.345-1.047.76-1.83a9.423 9.423 0 0 1 1.554-2.142c.622-.644 1.554-1.219 2.798-1.727 1.243-.506 2.67-.76 4.283-.76v11.467c-3.178 0-5.412.841-6.7 2.522-1.29 1.682-1.935 4.272-1.935 7.771v14.507h-11.744v-35.92zM138.432 130.222h8.842l1.797 5.112c1.934-3.869 4.81-5.803 8.634-5.803 1.106 0 2.176.184 3.213.552 1.036.37 2.094 1.025 3.177 1.97 1.08.944 1.957 2.417 2.625 4.42.667 2.004 1.002 4.433 1.002 7.288v22.382h-11.743v-24.04c0-2.394-.923-3.592-2.764-3.592-2.027 0-3.04 1.612-3.04 4.835v22.797h-11.743v-35.92zM176.563 139.892l-2.004-8.15c4.329-1.474 8.68-2.21 13.056-2.21 9.395 0 14.093 4.03 14.093 12.087v14.024c0 1.06.46 1.588 1.38 1.588.23 0 .646-.068 1.245-.207v8.151c-2.625.876-4.791 1.313-6.494 1.313-3.868 0-6.056-1.703-6.562-5.112-.047.138-.104.335-.173.587-.07.254-.311.691-.725 1.313a7.859 7.859 0 0 1-1.486 1.658c-.576.483-1.427.922-2.556 1.312-1.128.391-2.383.588-3.764.588-3.41 0-6.08-1.048-8.014-3.144-1.934-2.095-2.9-4.8-2.9-8.117 0-4.189 1.323-7.229 3.97-9.118 2.649-1.887 5.953-2.832 9.914-2.832 1.658 0 3.13.093 4.42.276v-.62c0-1.75-.39-2.983-1.173-3.697-.784-.714-2.004-1.07-3.662-1.07-1.796 0-4.651.46-8.565 1.38m13.4 14.093v-3.869a11.504 11.504 0 0 0-1.726-.138c-3.915 0-5.871 1.658-5.871 4.974 0 1.29.345 2.292 1.035 3.005.692.714 1.635 1.071 2.833 1.071 2.487 0 3.73-1.68 3.73-5.043M212.138 119.86h10.017v10.362h5.733v8.289h-5.733v16.993c0 1.935.83 2.902 2.486 2.902.874 0 1.888-.207 3.04-.622l.484 7.53c-2.902 1.012-5.504 1.52-7.807 1.52-6.63 0-9.947-3.983-9.947-11.951v-16.372h-3.799v-7.322l3.8-.76 1.726-10.569zM231.548 130.222h14.921v35.921h-11.674v-26.734l-3.247-.898v-8.289zm8.29-16.579c1.841 0 3.304.622 4.386 1.865 1.082 1.243 1.624 2.74 1.624 4.491 0 1.795-.553 3.304-1.659 4.524-1.105 1.221-2.555 1.83-4.35 1.83-1.705 0-3.109-.622-4.215-1.864-1.106-1.244-1.658-2.764-1.658-4.56 0-1.703.541-3.178 1.623-4.421 1.082-1.243 2.498-1.865 4.25-1.865M251.097 148.114c0-5.666 1.485-10.178 4.455-13.54 2.972-3.361 6.874-5.043 11.71-5.043s8.76 1.682 11.778 5.043c3.016 3.362 4.525 7.852 4.525 13.47 0 5.665-1.51 10.213-4.525 13.643-3.017 3.432-6.942 5.147-11.778 5.147s-8.738-1.715-11.71-5.147c-2.97-3.43-4.454-7.955-4.454-13.573m16.163-9.603c-3.132 0-4.697 3.178-4.697 9.533 0 6.54 1.543 9.809 4.63 9.809 3.222 0 4.835-3.292 4.835-9.878 0-6.309-1.59-9.464-4.767-9.464M288.123 130.222h8.842l1.796 5.112c1.935-3.869 4.812-5.803 8.635-5.803 1.106 0 2.176.184 3.213.552 1.036.37 2.094 1.025 3.177 1.97 1.08.944 1.957 2.417 2.625 4.42.667 2.004 1 4.433 1 7.288v22.382H305.67v-24.04c0-2.394-.923-3.592-2.764-3.592-2.027 0-3.039 1.612-3.039 4.835v22.797h-11.744v-35.92zM326.254 139.892l-2.004-8.15c4.33-1.474 8.681-2.21 13.056-2.21 9.395 0 14.093 4.03 14.093 12.087v14.024c0 1.06.46 1.588 1.381 1.588.23 0 .645-.068 1.244-.207v8.151c-2.625.876-4.79 1.313-6.494 1.313-3.868 0-6.056-1.703-6.562-5.112-.047.138-.104.335-.173.587-.069.254-.31.691-.725 1.313a7.859 7.859 0 0 1-1.486 1.658c-.576.483-1.427.922-2.556 1.312-1.128.391-2.383.588-3.764.588-3.409 0-6.079-1.048-8.014-3.144-1.934-2.095-2.9-4.8-2.9-8.117 0-4.189 1.323-7.229 3.971-9.118 2.648-1.887 5.952-2.832 9.913-2.832 1.658 0 3.131.093 4.421.276v-.62c0-1.75-.39-2.983-1.174-3.697-.784-.714-2.004-1.07-3.662-1.07-1.796 0-4.65.46-8.565 1.38m13.401 14.093v-3.869a11.504 11.504 0 0 0-1.727-.138c-3.915 0-5.87 1.658-5.87 4.974 0 1.29.344 2.292 1.034 3.005.692.714 1.635 1.071 2.833 1.071 2.487 0 3.73-1.68 3.73-5.043M357.477 115.577h11.744v39.513c0 1.751.805 2.625 2.417 2.625.276 0 .783-.046 1.52-.138v8.151c-2.395.736-4.49 1.106-6.286 1.106-2.902 0-5.193-.77-6.873-2.315-1.682-1.542-2.522-4.409-2.522-8.6v-40.342z"/><path fill="#2905AD" d="M437.18 67.08h11.517v2.004h-9.18v6.982h7.928v2.003h-7.929v6.482h9.486v2.002H437.18zM453.036 67.08h2.292l8.346 15.563h.028l.043-6.035V67.08h2.338v19.472h-2.476l-8.29-15.633h-.027l.082 7.01v8.623h-2.336zM469.17 67.08h2.47l4.901 16.67 4.813-16.67h2.237l-5.658 19.473h-3.017zM486.891 67.081h2.336v19.472h-2.336zM499.1 86.831c-2.002 0-3.95-.482-5.84-1.447l.722-1.78c1.688.798 3.283 1.196 4.786 1.196 1.297 0 2.28-.301 2.948-.906.668-.606 1.002-1.392 1.002-2.36 0-.763-.231-1.414-.691-1.953a4.843 4.843 0 0 0-1.706-1.271l-2.221-1.007-2.272-1.032c-.711-.322-1.298-.859-1.762-1.61-.463-.751-.695-1.655-.695-2.712 0-1.67.533-2.944 1.6-3.825 1.066-.881 2.489-1.321 4.269-1.321 1.91 0 3.663.399 5.258 1.196l-.668 1.696c-.093-.055-.315-.143-.667-.264-.353-.12-.89-.259-1.614-.417a9.418 9.418 0 0 0-2.002-.236c-1.17 0-2.091.287-2.768.861-.678.575-1.016 1.346-1.016 2.312 0 .748.239 1.382.718 1.902.478.52 1.052.927 1.723 1.222l2.214.973 2.278 1.003c.713.313 1.293.864 1.74 1.654.45.79.674 1.737.674 2.841 0 1.762-.557 3.083-1.67 3.964-1.112.881-2.56 1.321-4.34 1.321M509.005 67.081h2.336v19.472h-2.336zM515.402 76.817c0-2.911.793-5.31 2.38-7.191 1.584-1.882 3.647-2.823 6.188-2.823 2.522 0 4.576.94 6.161 2.823 1.586 1.882 2.38 4.28 2.38 7.19 0 2.876-.78 5.259-2.338 7.15-1.558 1.892-3.625 2.847-6.203 2.865-2.578-.018-4.65-.973-6.218-2.865-1.567-1.891-2.35-4.274-2.35-7.15m2.392 0c0 2.3.571 4.192 1.711 5.675 1.14 1.485 2.63 2.226 4.465 2.226s3.32-.741 4.451-2.226c1.131-1.483 1.697-3.374 1.697-5.674 0-2.244-.575-4.122-1.725-5.634-1.15-1.51-2.625-2.267-4.423-2.267-1.8 0-3.279.752-4.437 2.254-1.16 1.502-1.739 3.385-1.739 5.647M536.544 67.08h2.292l8.346 15.563h.028l.043-6.035V67.08h2.338v19.472h-2.476l-8.29-15.633h-.027l.082 7.01v8.623h-2.336z"/><path fill="#F60" d="M437.18 106.308h11.517v2.002h-9.18v6.983h7.928v2.002h-7.929v6.483h9.486v2.001H437.18zM453.036 106.308h2.336v17.47h8.624v2.001h-10.96zM467.223 106.308h11.517v2.002h-9.181v6.983h7.929v2.002h-7.93v6.483h9.487v2.001h-11.822zM481.048 106.308h2.47l4.901 16.668 4.813-16.668h2.238l-5.659 19.471h-3.017zM501.755 106.168h3.217l5.547 19.612h-2.376l-1.48-5.258h-6.656l-1.506 5.258h-2.376l5.63-19.612zm1.575 2.754l-2.765 9.654h5.55l-2.722-9.664-.063.01zM510.702 106.308h13.352v2.002h-5.507v17.47h-2.31v-17.47h-5.535zM527.226 106.308h11.517v2.002h-9.181v6.983h7.929v2.002h-7.93v6.483h9.487v2.001h-11.822z"/><path fill="#7D00AD" d="M437.18 147.084h11.517v2.002h-9.18v6.983h7.928v2.003h-7.929v6.482h9.486v2.002H437.18zM467.417 147.084h3.227v19.472h-2.392v-8.373l.194-7.984-.02.013-5.414 15.21-2.326-.006-5.449-15.218h-.06l.251 7.984v8.374h-2.392v-19.472h3.282l5.507 15.55h.03zM475.764 147.084h6.62c1.632 0 2.991.565 4.076 1.696 1.084 1.132 1.627 2.531 1.627 4.201 0 1.688-.543 3.102-1.627 4.242-1.085 1.141-2.444 1.711-4.076 1.711H478.1v7.622h-2.336v-19.472zm2.336 2.002v7.817h4.006c1.168 0 2.082-.366 2.74-1.098.658-.733.988-1.665.988-2.797 0-1.13-.33-2.067-.988-2.809-.658-.742-1.562-1.113-2.713-1.113H478.1zM490.562 156.82c0-2.911.793-5.31 2.379-7.191 1.585-1.882 3.648-2.823 6.189-2.823 2.522 0 4.576.94 6.16 2.823 1.587 1.882 2.38 4.28 2.38 7.19 0 2.876-.78 5.259-2.337 7.15-1.558 1.892-3.625 2.847-6.203 2.865-2.578-.018-4.65-.973-6.218-2.865-1.567-1.891-2.35-4.274-2.35-7.15m2.392 0c0 2.3.57 4.192 1.71 5.675 1.14 1.485 2.63 2.226 4.466 2.226s3.319-.741 4.45-2.226c1.132-1.483 1.698-3.374 1.698-5.674 0-2.244-.575-4.122-1.725-5.634-1.15-1.51-2.625-2.267-4.423-2.267-1.8 0-3.28.752-4.437 2.254-1.16 1.502-1.74 3.385-1.74 5.647M519.687 147.084h2.76l3.657 16.385 3.709-16.385h2.259l-4.457 19.528h-3.004l-3.547-15.89-3.545 15.89h-3.255l-4.453-19.528h2.518l3.686 16.328zM535.822 147.084h11.517v2.002h-9.181v6.983h7.929v2.003h-7.93v6.482h9.487v2.002h-11.822zM551.678 147.084h6.759c1.799 0 3.19.528 4.173 1.585.982 1.057 1.474 2.402 1.474 4.034 0 2.485-1.178 4.22-3.532 5.202l4.116 8.651h-2.42l-3.905-8.206h-4.33v8.206h-2.335v-19.472zm2.336 2.002v7.29h4.2c1.076 0 1.952-.339 2.63-1.017.676-.676 1.015-1.553 1.015-2.629 0-1.038-.316-1.905-.946-2.6-.631-.696-1.53-1.044-2.7-1.044h-4.2z"/><path d="M409.313 58.278h.7v114.929h-.7z"/></svg>