<svg version="1.2" baseProfile="tiny" xmlns="http://www.w3.org/2000/svg" x="0" y="0" width="88.012" height="75.793" viewBox="0 0 88.0123 75.793" xml:space="preserve"><path fill="#2905AD" d="M73.93 39.578H41.382a1.83 1.83 0 0 0-1.298.538l35.142 35.14c.333-.331.536-.79.536-1.298V41.411a1.833 1.833 0 0 0-1.834-1.833"/><path fill="#1F0ADE" d="M39.549 41.413v32.546c0 1.012.821 1.834 1.833 1.834H73.93c.508 0 .967-.205 1.297-.536L40.087 40.115a1.829 1.829 0 0 0-.538 1.298"/><path fill="#940AD6" d="M41.6 8.017H2.22c-.613 0-1.169.248-1.57.651l42.522 42.519c.4-.4.648-.957.648-1.568V10.236a2.22 2.22 0 0 0-2.22-2.219"/><path fill="#7D00AD" d="M0 10.237v39.38c0 1.227.995 2.222 2.22 2.222h39.382c.611 0 1.167-.25 1.568-.651L.651 8.666A2.211 2.211 0 0 0 0 10.236"/><path fill="#FF9600" d="M85.994 0h-35.8a2.02 2.02 0 0 0-2.02 2.019v35.8c0 .557.226 1.063.591 1.428L87.422.591A2.01 2.01 0 0 0 85.994 0"/><path fill="#F60" d="M87.421.591L48.765 39.247c.366.363.872.591 1.428.591h35.8a2.02 2.02 0 0 0 2.02-2.019V2.02c0-.559-.226-1.062-.592-1.428"/></svg>