<svg version="1.2" baseProfile="tiny" xmlns="http://www.w3.org/2000/svg" x="0" y="0" width="275.38" height="185.556" viewBox="0 0 275.38 185.5561" xml:space="preserve"><path fill="#2905AD" d="M261.297 39.578H228.75a1.83 1.83 0 0 0-1.297.538l35.141 35.14c.334-.331.536-.79.536-1.298V41.411a1.833 1.833 0 0 0-1.833-1.833"/><path fill="#1F0ADE" d="M226.916 41.413v32.546c0 1.012.822 1.834 1.834 1.834h32.547c.508 0 .966-.205 1.297-.536l-35.14-35.142a1.829 1.829 0 0 0-.538 1.298"/><path fill="#940AD6" d="M228.969 8.017h-39.38c-.614 0-1.17.248-1.571.651l42.521 42.519c.4-.4.649-.957.649-1.568V10.236a2.22 2.22 0 0 0-2.22-2.219"/><path fill="#7D00AD" d="M187.368 10.237v39.38c0 1.227.994 2.222 2.219 2.222h39.383c.61 0 1.167-.25 1.568-.651L188.019 8.666a2.21 2.21 0 0 0-.651 1.57"/><path fill="#FF9600" d="M273.362 0h-35.8a2.02 2.02 0 0 0-2.02 2.019v35.8c0 .557.226 1.063.591 1.428L274.79.591A2.01 2.01 0 0 0 273.362 0"/><path fill="#F60" d="M274.789.591l-38.656 38.656c.365.363.871.591 1.427.591h35.801a2.02 2.02 0 0 0 2.019-2.019V2.02a2.01 2.01 0 0 0-.591-1.428"/><path d="M52.085 74.519c5.789.103 11.272 1.117 16.447 3.046 5.18 1.929 9.038 4.06 11.576 6.395l-8.68 18.734c-5.889-4.06-12.287-6.092-19.19-6.092-7.718 0-13.732 2.996-18.048 8.986-4.316 5.991-6.473 14.112-6.473 24.368 0 10.155 2.132 18.253 6.398 24.292 4.263 6.042 10.252 9.06 17.97 9.06 1.117 0 2.257-.074 3.427-.227a48.499 48.499 0 0 0 3.276-.534c1.012-.2 2.002-.456 2.968-.759a56.96 56.96 0 0 0 2.666-.914 35.39 35.39 0 0 0 4.341-1.981c.556-.304 1.04-.557 1.448-.762.403-.2.656-.353.759-.456l.305-.305 8.833 19.037c-6.906 5.994-16.6 8.985-29.088 8.985-14.927 0-27.163-4.844-36.704-14.543C4.769 161.155 0 147.523 0 129.956c0-17.565 4.797-31.194 14.39-40.893 9.595-9.695 22.16-14.544 37.695-14.544M159.763 153.106c0 5.787-1.093 10.839-3.274 15.155-2.185 4.316-5.18 7.69-8.988 10.127a43.238 43.238 0 0 1-12.337 5.406c-4.416 1.165-9.163 1.751-14.238 1.751-12.084.203-23.1-2.385-33.05-7.765l7.92-20.714c8.427 4.264 16.548 6.395 24.368 6.395 8.324 0 12.488-2.943 12.488-8.832 0-2.943-1.015-5.203-3.046-6.778-2.032-1.57-5.534-3.374-10.509-5.406-1.014-.406-1.778-.709-2.284-.914-4.264-1.726-7.768-3.402-10.508-5.025-2.743-1.623-5.661-3.783-8.758-6.473-3.098-2.69-5.408-6.017-6.93-9.977-1.521-3.96-2.285-8.53-2.285-13.707 0-10.66 3.402-18.632 10.205-23.91 6.8-5.28 15.383-7.92 25.738-7.92 11.17 0 21.88 2.437 32.136 7.31l-6.854 20.104c-8.123-3.45-15.432-5.18-21.93-5.18-8.224 0-12.337 3.1-12.337 9.29 0 .815.075 1.579.228 2.285.153.714.43 1.398.84 2.057.402.66.76 1.22 1.064 1.675.305.456.889.967 1.75 1.523.862.561 1.526.992 1.982 1.295.456.303 1.295.737 2.512 1.295 1.22.559 2.08.965 2.59 1.218.507.255 1.549.711 3.122 1.372 1.573.66 2.665 1.09 3.274 1.293 3.96 1.626 7.181 3.149 9.671 4.57 2.488 1.424 5.256 3.403 8.302 5.938 3.046 2.54 5.33 5.689 6.853 9.444 1.523 3.757 2.285 8.123 2.285 13.098M173.467 76.651h26.652v106.61h-26.652z"/><path fill="#231F20" d="M52.025 96.739c6.876 0 13.246 2.024 19.113 6.067l8.644-18.657c-2.527-2.324-6.37-4.449-11.528-6.37-5.157-1.921-10.616-2.93-16.382-3.033-15.47 0-27.985 4.83-37.539 14.483C4.777 98.89 0 112.462 0 129.957c0 17.494 4.75 31.071 14.258 40.725 9.501 9.659 21.688 14.486 36.555 14.486 12.436 0 22.09-2.98 28.97-8.95l-8.798-18.96-.303.303c-.103.103-.356.256-.76.456-.405.203-.886.456-1.44.76-.558.302-1.212.633-1.971.983-.759.356-1.543.684-2.352.987-.812.304-1.694.607-2.655.91-.962.303-1.947.558-2.956.759a48.004 48.004 0 0 1-3.262.53 26.223 26.223 0 0 1-3.414.229c-7.685 0-13.65-3.009-17.898-9.026-4.245-6.014-6.37-14.08-6.37-24.192 0-10.213 2.147-18.301 6.445-24.27 4.3-5.965 10.29-8.948 17.976-8.948M150.01 130.564c-3.033-2.528-5.791-4.5-8.266-5.917-2.48-1.413-5.689-2.93-9.631-4.549-.61-.203-1.696-.631-3.262-1.29-1.568-.656-2.605-1.112-3.109-1.365-.508-.25-1.365-.657-2.58-1.213-1.212-.556-2.046-.987-2.502-1.29s-1.115-.731-1.971-1.29c-.862-.553-1.443-1.062-1.746-1.515a64.26 64.26 0 0 1-1.063-1.669 6.523 6.523 0 0 1-.834-2.049 10.908 10.908 0 0 1-.225-2.274c0-6.167 4.096-9.253 12.287-9.253 6.47 0 13.75 1.72 21.84 5.157l6.826-20.021c-10.215-4.853-20.88-7.28-32.005-7.28-10.313 0-18.86 2.63-25.633 7.888-6.776 5.258-10.163 13.194-10.163 23.812 0 5.158.76 9.707 2.275 13.652 1.518 3.943 3.815 7.257 6.9 9.934 3.084 2.68 5.992 4.83 8.723 6.448 2.73 1.616 6.22 3.287 10.466 5.005l2.274.91c4.955 2.023 8.444 3.817 10.466 5.385 2.024 1.568 3.036 3.817 3.036 6.748 0 5.867-4.148 8.798-12.44 8.798-7.788 0-15.876-2.122-24.267-6.37l-7.889 20.628c9.91 5.36 20.881 7.938 32.915 7.735 5.055 0 9.784-.584 14.183-1.744a43.07 43.07 0 0 0 12.284-5.383c3.793-2.427 6.776-5.789 8.95-10.087 2.175-4.298 3.262-9.328 3.262-15.092 0-4.955-.759-9.303-2.275-13.046-1.518-3.74-3.792-6.876-6.826-9.404M172.761 76.867h26.545v106.177h-26.545z"/></svg>