<?xml version="1.0" standalone="no"?>
<!DOCTYPE svg PUBLIC "-//W3C//DTD SVG 1.1//EN" "http://www.w3.org/Graphics/SVG/1.1/DTD/svg11.dtd" >
<svg xmlns="http://www.w3.org/2000/svg">
<metadata>
Created by FontPrep 20130207 at Wed Jan  3 23:35:52 2018
 By Daniel
(c) Copyright (c) 2010. All rights reserved. Fakt is a design by Thomas Thiemich, published by OurType. www.ourtype.com
</metadata>
<defs>
<font id="0593a7f83613f0cf5d4c924de11b7951" horiz-adv-x='1024' >
  <font-face 
    font-family="FaktPro-Thin"
    font-weight="200"
    font-stretch="normal"
    units-per-em="2048"
    panose-1="2 0 0 0 0 0 0 0 0 0"
    ascent="1532"
    descent="-516"
    x-height="999"
    cap-height="1409"
    bbox="-348 -639 2171 2073"
    underline-thickness="102"
    underline-position="-102"
    unicode-range="U+0020-FB04"
  />
<missing-glyph horiz-adv-x="1458" 
d="M475 377l258 264l258 -264l107 106l-260 267l260 266l-107 106l-258 -264l-258 264l-106 -106l258 -266l-258 -267zM0 0v1475h1458v-1475h-1458z" />
    <glyph glyph-name="f_b" unicode="fb" horiz-adv-x="1730" 
d="M825 500q-1 -209 105 -335t265 -126t264 131t105 337t-104 330t-262 124t-262 -120t-111 -321v-20zM760 0v1442h-250q-115 0 -170 -58t-55 -188v-197h237v-53h-237v-946h-66v946h-217v53h217v199q0 301 285 301h321v-307q0 -360 -4 -438h2q47 124 149 194t234 70
q184 0 305 -140t121 -370t-124 -378t-306 -148q-133 0 -232 70t-147 194h-2v-246h-61z" />
    <glyph glyph-name="f_f_b" unicode="ffb" horiz-adv-x="2271" 
d="M1364 500q0 -209 105 -335t265 -126t266 131q105 131 105 337t-105 330t-263 124t-262 -120t-111 -321v-20zM1745 1018q184 0 305 -139t121 -371t-124 -378q-124 -148 -306 -148q-133 0 -232 70q-98 71 -145 198h-2v-250h-64v1442h-249q-115 0 -169 -58t-55 -188v-197
h252v-53h-252v-946h-65v946h-475v-946h-66v946h-217v53h217v199q0 301 285 301h80v-57h-74q-115 0 -170 -58t-55 -188v-197h475v199q0 301 282 301h322v-311l-2 -438h2q47 124 147 196t234 72z" />
    <glyph glyph-name="f_f_h" unicode="ffh" horiz-adv-x="2240" 
d="M2073 0h-66v616q0 176 -78 260q-77 84 -221 85q-144 0 -244 -111t-100 -324v-526h-66v1442h-249q-115 0 -169 -58t-55 -188v-197h252v-53h-252v-946h-65v946h-475v-946h-66v946h-217v53h217v199q0 301 285 301h80v-57h-74q-115 0 -170 -58t-55 -188v-197h475v199
q0 301 282 301h322v-311l-2 -416h2q86 244 378 246q140 0 235 -96t96 -297v-625z" />
    <glyph glyph-name="f_f_j" unicode="ffj" horiz-adv-x="1542" 
d="M1296 1317v182h70v-182h-70zM760 0v946h-475v-946h-66v946h-217v53h217v199q0 301 285 301h84v-57h-78q-115 0 -170 -58t-55 -188v-197h475v199q0 301 282 301h82v-57h-75q-115 0 -169 -58t-55 -188v-197h539v-1226q0 -223 -215 -224h-53v58h49q78 0 116 40t37 136v1163
h-473v-946h-65z" />
    <glyph glyph-name="f_f_k" unicode="ffk" horiz-adv-x="2107" 
d="M760 0v946h-475v-946h-66v946h-217v53h217v199q0 301 285 301h80v-57h-74q-115 0 -170 -58t-55 -188v-197h475v199q0 301 282 301h322v-1149l586 649h78l-375 -413l424 -586h-80l-389 539l-244 -271v-268h-66v1442h-249q-115 0 -169 -58t-55 -188v-197h252v-53h-252v-946
h-65z" />
    <glyph glyph-name="f_f_t" unicode="fft" horiz-adv-x="1683" 
d="M760 0v946h-475v-946h-66v946h-217v53h217v199q0 301 285 301h80v-57h-74q-115 0 -170 -58t-55 -188v-197h475v199q0 301 282 301h82v-57h-75q-115 0 -169 -58t-55 -188v-197h451v304h65v-304h293v-53h-293v-672q1 -119 49 -168t146 -49h98v-57h-102q-129 0 -193 65
q-63 65 -63 207v674h-451v-946h-65z" />
    <glyph glyph-name="f_h" unicode="fh" horiz-adv-x="1699" 
d="M760 0v1442h-250q-115 0 -170 -58t-55 -188v-197h237v-53h-237v-946h-66v946h-217v53h217v199q0 301 285 301h321v-311q0 -338 -4 -416h4q85 244 379 246q140 0 235 -96t95 -297v-625h-66v616q0 176 -78 261q-80 84 -222 84t-242 -111t-101 -322v-528h-65z" />
    <glyph glyph-name="f_j" unicode="fj" horiz-adv-x="1003" 
d="M756 1317v182h71v-182h-71zM555 -393h49q156 0 156 188v1151h-475v-946h-66v946h-217v53h217v199q0 301 285 301h80v-57h-74q-115 0 -170 -58t-55 -188v-197h540v-1214q0 -236 -217 -236h-53v58z" />
    <glyph glyph-name="f_k" unicode="fk" horiz-adv-x="1566" 
d="M760 0v1442h-250q-115 0 -170 -58t-55 -188v-197h237v-53h-237v-946h-66v946h-217v53h217v199q0 301 285 301h321v-1149l586 649h78l-375 -413l424 -586h-80l-389 539l-244 -271v-268h-65z" />
    <glyph glyph-name="f_t" unicode="ft" horiz-adv-x="1142" 
d="M737 272v674h-452v-946h-66v946h-217v53h217v199q0 301 285 301h63v-57h-57q-115 0 -170 -58t-55 -188v-197h452v304h66v-304h291v-53h-291v-672q0 -119 47 -168t145 -49h99v-57h-103q-129 0 -191 64t-63 208z" />
    <glyph glyph-name="fi" unicode="fi" horiz-adv-x="1003" 
d="M756 1317v182h71v-182h-71zM760 0v946h-475v-946h-66v946h-217v53h217v199q0 301 285 301h80v-57h-74q-115 0 -170 -58t-55 -188v-197h540v-999h-65z" />
    <glyph glyph-name="fl" unicode="fl" horiz-adv-x="1003" 
d="M219 0v946h-217v53h217v199q0 301 285 301h321v-1499h-65v1442h-250q-115 0 -170 -58t-55 -188v-197h237v-53h-237v-946h-66z" />
    <glyph glyph-name="ff" unicode="ff" horiz-adv-x="1101" 
d="M219 0v946h-217v53h217v199q0 301 285 301h80v-57h-74q-115 0 -170 -58t-55 -188v-197h475v199q0 301 282 301h84v-57h-77q-115 0 -169 -58t-55 -188v-197h269v-53h-269v-946h-65v946h-475v-946h-66z" />
    <glyph glyph-name="ffi" unicode="ffi" horiz-adv-x="1542" 
d="M1296 1317v182h70v-182h-70zM760 0v946h-475v-946h-66v946h-217v53h217v199q0 301 285 301h84v-57h-78q-115 0 -170 -58t-55 -188v-197h475v199q0 301 282 301h82v-57h-75q-115 0 -169 -58t-55 -188v-197h539v-999h-66v946h-473v-946h-65z" />
    <glyph glyph-name="ffl" unicode="ffl" horiz-adv-x="1525" 
d="M760 0v946h-475v-946h-66v946h-217v53h217v199q0 301 285 301h80v-57h-74q-115 0 -170 -58t-55 -188v-197h475v199q0 301 282 301h306v-1499h-66v1442h-233q-115 0 -169 -58t-55 -188v-197h252v-53h-252v-946h-65z" />
    <glyph glyph-name=".notdef" horiz-adv-x="1458" 
d="M475 377l258 264l258 -264l107 106l-260 267l260 266l-107 106l-258 -264l-258 264l-106 -106l258 -266l-258 -267zM0 0v1475h1458v-1475h-1458z" />
    <glyph glyph-name=".null" horiz-adv-x="0" 
 />
    <glyph glyph-name="nonmarkingreturn" horiz-adv-x="681" 
 />
    <glyph glyph-name="space" unicode=" " horiz-adv-x="425" 
 />
    <glyph glyph-name="exclam" unicode="!" horiz-adv-x="436" 
d="M182 0v186h72v-186h-72zM182 1409h72v-346l-14 -688h-43l-15 688v346z" />
    <glyph glyph-name="quotedbl" unicode="&#x22;" horiz-adv-x="755" 
d="M526 1409h66v-190l-12 -326h-43l-11 326v190zM166 1409h65v-190l-12 -326h-43l-10 326v190z" />
    <glyph glyph-name="numbersign" unicode="#" horiz-adv-x="1204" 
d="M440 987l-96 -551h416l96 551h-416zM133 987v51h254l66 371h61l-65 -371h415l66 371h59l-65 -371h245v-51h-254l-96 -551h250v-51h-260l-66 -385h-59l68 385h-418l-66 -385h-61l67 385h-239v51h248l96 551h-246z" />
    <glyph glyph-name="dollar" unicode="$" horiz-adv-x="1163" 
d="M576 37q170 0 281 91q110 91 110 245q0 121 -68 187t-223 110l-234 65q-143 41 -225 114t-82 223t110 248q110 97 290 105v222h65v-222q162 -10 274 -103t125 -243h-63q-14 137 -118 215t-260 78q-157 0 -256 -80t-99 -212q-1 -132 67 -190t205 -97l234 -68
q175 -49 249 -130t74 -237t-119 -260t-307 -114v-230h-65v230q-186 10 -309 112q-122 103 -130 275h64q12 -154 126 -244t284 -90z" />
    <glyph glyph-name="percent" unicode="%" horiz-adv-x="1519" 
d="M373 -25l719 1459h55l-717 -1459h-57zM1380 352q0 142 -56 230t-164 88t-164 -87t-56 -231t58 -230q58 -87 162 -87q105 0 163 87q57 87 57 230zM360 739q106 0 164 87q58 86 58 230t-58 231t-164 87t-163 -87t-57 -230t56 -231q58 -88 164 -87zM360 690q-136 0 -208 102
t-72 265q0 162 73 264t207 102t208 -102q73 -102 73 -264q0 -163 -73 -265t-208 -102zM1159 -14q-135 0 -208 102t-72 264q0 162 72 264q73 102 208 102t209 -102t74 -264t-74 -264t-209 -102z" />
    <glyph glyph-name="ampersand" unicode="&#x26;" horiz-adv-x="1368" 
d="M332 1138q0 -94 49 -166t160 -184q90 43 137 68t107 69q114 84 114 197t-75 183q-74 69 -202 69t-209 -70q-81 -72 -81 -166zM588 37q281 0 428 196l-494 492q-162 -78 -249 -160t-87 -222t106 -223t296 -83zM622 1427q154 0 246 -85t92 -218t-123 -226q-67 -48 -115 -75
t-144 -71l471 -471q100 166 100 389v35h59v-41q0 -238 -118 -426l239 -238h-78l-192 193q-164 -211 -471 -211q-225 0 -346 96t-121 264t115 264q98 84 249 156q-113 112 -163 190t-50 168q0 131 98 219t252 88z" />
    <glyph glyph-name="quotesingle" unicode="'" horiz-adv-x="395" 
d="M166 1409h65v-190l-12 -326h-43l-10 326v190z" />
    <glyph glyph-name="parenleft" unicode="(" horiz-adv-x="530" 
d="M90 532q0 293 101 554t235 438h59q-125 -172 -229 -438t-104 -553q0 -288 104 -558t229 -442h-59q-131 176 -233 441q-103 265 -103 558z" />
    <glyph glyph-name="parenright" unicode=")" horiz-adv-x="530" 
d="M440 532q0 -293 -102 -558t-234 -441h-61q125 170 229 440t105 559q0 289 -105 555q-104 266 -229 437h61q132 -176 234 -438t102 -554z" />
    <glyph glyph-name="asterisk" unicode="*" horiz-adv-x="899" 
d="M422 1425h55l-12 -309l289 109l16 -51l-295 -84l189 -240l-46 -33l-169 254l-170 -254l-43 33l186 242l-293 82l16 51l289 -107z" />
    <glyph glyph-name="plus" unicode="+" horiz-adv-x="1163" 
d="M121 489v58h430v436h61v-436h430v-58h-430v-432h-61v432h-430z" />
    <glyph glyph-name="comma" unicode="," horiz-adv-x="425" 
d="M174 0v215h78v-211l-76 -323h-37l64 319h-29z" />
    <glyph glyph-name="hyphen" unicode="-" horiz-adv-x="811" 
d="M123 487v60h565v-60h-565z" />
    <glyph glyph-name="period" unicode="." horiz-adv-x="425" 
d="M174 0v215h78v-215h-78z" />
    <glyph glyph-name="slash" unicode="/" horiz-adv-x="825" 
d="M68 -25l630 1459h58l-631 -1459h-57z" />
    <glyph glyph-name="zero" unicode="0" horiz-adv-x="1163" 
d="M174 705q0 -301 104 -483t305 -181q202 0 304 181q102 180 102 482t-103 483t-305 181q-203 0 -305 -181t-102 -482zM582 -18q-236 0 -355 198t-118 525t119 525t354 198t354 -200q118 -198 119 -524q-1 -326 -119 -524t-354 -198z" />
    <glyph glyph-name="one" unicode="1" horiz-adv-x="1163" 
d="M655 1409v-1352h400v-57h-883v57h418v1270l-406 -280l-28 49l450 313h49z" />
    <glyph glyph-name="two" unicode="2" horiz-adv-x="1163" 
d="M956 1042q0 148 -98 238t-260 90t-270 -90t-117 -283h-61q8 223 138 327t313 103q183 0 302 -103t119 -282q0 -133 -70 -213q-29 -33 -43 -50t-96 -74t-141 -87l-156 -94q-166 -102 -229 -199t-72 -268h815v-57h-887q7 287 148 428q66 66 186 139l156 95q60 30 121 73
q61 42 75 55q14 12 40 36t37 46q10 22 30 59q20 38 20 111z" />
    <glyph glyph-name="three" unicode="3" horiz-adv-x="1163" 
d="M117 408h61q0 -178 109 -274t287 -95q178 0 292 90q115 91 115 241t-118 244t-290 95h-106v57h106q154 0 253 83q100 83 100 222t-102 219t-252 80t-250 -86t-101 -250h-59q0 188 116 290t296 103q180 0 297 -96q118 -96 118 -260q0 -123 -79 -215t-199 -115v-4
q143 -27 239 -127t97 -239q-1 -181 -135 -285t-341 -104t-331 110t-123 316z" />
    <glyph glyph-name="four" unicode="4" horiz-adv-x="1163" 
d="M776 467v842l-629 -842h629zM76 410v47l712 958h54v-948h233v-57h-233v-410h-66v410h-700z" />
    <glyph glyph-name="five" unicode="5" horiz-adv-x="1163" 
d="M586 39q172 -1 284 109t113 292q0 182 -107 293q-108 111 -284 111q-227 0 -356 -215l-66 4l41 776h754v-59h-693l-36 -639h2q127 190 362 190q199 0 323 -125q124 -124 124 -332q-1 -208 -133 -335t-330 -127t-313 105t-138 267h66q16 -129 116 -222q99 -93 271 -93z
" />
    <glyph glyph-name="six" unicode="6" horiz-adv-x="1163" 
d="M225 434q0 -51 6 -76q43 -172 149 -246t232 -73q172 0 284 111t112 292q0 182 -106 292t-280 110q-173 0 -285 -113t-112 -297zM599 -18q-208 0 -340 167t-132 541t138 555q138 182 360 182q184 0 289 -101t124 -269h-63q-19 143 -107 228t-243 85q-193 0 -312 -168
t-118 -530q0 -20 4 -82q36 144 159 228q123 83 271 83q201 0 321 -126q120 -125 121 -331q0 -206 -132 -334t-340 -128z" />
    <glyph glyph-name="seven" unicode="7" horiz-adv-x="1163" 
d="M125 1350v59h930v-47l-598 -1362h-68l596 1350h-860z" />
    <glyph glyph-name="eight" unicode="8" horiz-adv-x="1163" 
d="M582 766q154 0 253 83t99 222t-101 220t-251 81t-251 -81t-101 -220t98 -222q100 -83 254 -83zM172 370q0 -150 116 -241q116 -90 294 -90t294 90q116 91 116 241t-120 244q-118 94 -290 94t-291 -94t-119 -244zM109 371q0 139 96 239t237 127v4q-124 23 -200 114
t-76 216q0 164 118 260t298 96t298 -96t117 -260q-1 -125 -77 -216t-199 -114v-4q141 -27 237 -127t97 -239q0 -181 -132 -285t-341 -104t-341 104t-132 285z" />
    <glyph glyph-name="nine" unicode="9" horiz-adv-x="1163" 
d="M551 1370q-170 0 -283 -112q-112 -112 -112 -292t106 -290q106 -111 280 -111t284 113q112 113 112 299q0 36 -6 67q-84 326 -381 326zM92 966q0 206 132 334t340 127q208 0 340 -167q132 -166 132 -542t-132 -556t-355 -180q-186 0 -295 101t-129 269h63
q18 -141 110 -227t251 -86q420 0 420 698q0 18 -4 76q-37 -139 -158 -222t-272 -83q-201 0 -322 126t-121 332z" />
    <glyph glyph-name="colon" unicode=":" horiz-adv-x="425" 
d="M174 0v215h78v-215h-78zM174 784v215h78v-215h-78z" />
    <glyph glyph-name="semicolon" unicode=";" horiz-adv-x="425" 
d="M174 0v215h78v-211l-76 -323h-37l64 319h-29zM174 784v215h78v-215h-78z" />
    <glyph glyph-name="less" unicode="&#x3c;" horiz-adv-x="1163" 
d="M154 494v57l856 369v-60l-793 -336l793 -336v-63z" />
    <glyph glyph-name="equal" unicode="=" horiz-adv-x="1163" 
d="M121 276v58h921v-58h-921zM121 707v57h921v-57h-921z" />
    <glyph glyph-name="greater" unicode="&#x3e;" horiz-adv-x="1163" 
d="M1010 551v-57l-856 -369v61l792 334l-792 338v62z" />
    <glyph glyph-name="question" unicode="?" horiz-adv-x="923" 
d="M420 0v186h72v-186h-72zM424 401v58q0 183 126 294q52 46 104 88q126 102 126 240q0 137 -86 213t-230 76t-237 -95q-92 -95 -92 -269h-63q0 198 108 310t284 112q175 0 280 -91q105 -90 106 -243q0 -92 -37 -162t-90 -114t-107 -88q-128 -105 -127 -265v-64h-65z" />
    <glyph glyph-name="at" unicode="@" horiz-adv-x="2113" 
d="M1335 444v136q-29 -43 -131 -60l-252 -39q-242 -37 -241 -229q0 -100 66 -159q67 -58 188 -58q158 0 264 105t106 304zM645 250q0 236 297 280l252 41q72 11 106 31t35 64q0 147 -74 222q-75 75 -208 75t-216 -70t-94 -205h-63q10 156 112 243t262 87q161 0 254 -92
t93 -267v-403q0 -117 60 -171t151 -54q141 0 231 133t90 386t-118 442q-119 190 -315 288t-435 98q-383 0 -634 -250t-251 -646t245 -647t601 -251t553 217h72q-209 -268 -607 -268t-661 266q-262 266 -262 683t269 682q270 266 668 266t666 -242t269 -631q0 -285 -109 -428
t-276 -143q-111 0 -186 58t-83 179q-45 -113 -145 -177t-242 -64t-225 72q-82 72 -82 196z" />
    <glyph glyph-name="A" unicode="A" horiz-adv-x="1243" 
d="M623 1339h-5l-307 -811h619zM43 0l539 1409h80l540 -1409h-72l-178 469h-663l-178 -469h-68z" />
    <glyph glyph-name="B" unicode="B" horiz-adv-x="1308" 
d="M731 1350h-469v-578h481q154 0 242 86t88 217q0 275 -342 275zM756 713h-494v-654h494q182 1 275 93t93 239t-94 235t-274 87zM197 0v1409h534q412 0 412 -334q0 -123 -72 -212t-201 -115v-3q156 -20 239 -114t83 -232q0 -179 -113 -289t-323 -110h-559z" />
    <glyph glyph-name="C" unicode="C" horiz-adv-x="1435" 
d="M109 705q0 305 180 514t471 208q227 1 378 -117t201 -321h-67q-51 177 -182 277t-330 100q-260 0 -421 -190t-161 -468t160 -472q160 -193 418 -193q395 0 516 377h67q-59 -203 -209 -321t-374 -117q-289 0 -468 209t-179 514z" />
    <glyph glyph-name="D" unicode="D" horiz-adv-x="1394" 
d="M545 1350h-281v-1291h281q332 1 503 179t171 467t-171 467t-503 178zM199 0v1409h346q360 0 552 -192q191 -193 191 -512t-191 -512t-552 -193h-346z" />
    <glyph glyph-name="E" unicode="E" horiz-adv-x="1218" 
d="M199 0v1409h903v-59h-838v-598h682v-60h-682v-633h854v-59h-919z" />
    <glyph glyph-name="F" unicode="F" horiz-adv-x="1144" 
d="M199 0v1409h886v-59h-821v-631h666v-55h-666v-664h-65z" />
    <glyph glyph-name="G" unicode="G" horiz-adv-x="1527" 
d="M109 710q0 310 187 514t480 203q231 1 381 -119t193 -307h-70q-37 157 -168 261t-336 104q-266 0 -432 -186t-166 -468t163 -476q163 -193 419 -193q221 0 377 126t155 363v132h-524v59h586v-723h-49l-7 309q-66 -166 -206 -247t-332 -80q-287 0 -469 210
q-182 208 -182 518z" />
    <glyph glyph-name="H" unicode="H" horiz-adv-x="1421" 
d="M199 0v1409h65v-661h893v661h68v-1409h-68v690h-893v-690h-65z" />
    <glyph glyph-name="I" unicode="I" horiz-adv-x="462" 
d="M199 0v1409h65v-1409h-65z" />
    <glyph glyph-name="J" unicode="J" horiz-adv-x="1054" 
d="M127 383v84h66v-78q-1 -178 83 -263t224 -85t227 87q86 87 86 261v1020h68v-1026q1 -201 -103 -301t-275 -100t-274 98q-102 98 -102 303z" />
    <glyph glyph-name="K" unicode="K" horiz-adv-x="1300" 
d="M199 0v1409h65v-938l856 938h82l-559 -608l594 -801h-76l-563 752l-334 -363v-389h-65z" />
    <glyph glyph-name="L" unicode="L" horiz-adv-x="1099" 
d="M199 0v1409h65v-1350h774v-59h-839z" />
    <glyph glyph-name="M" unicode="M" horiz-adv-x="1753" 
d="M199 0v1409h77l601 -1317h2l598 1317h79v-1409h-67l6 1294h-4l-588 -1294h-53l-588 1288h-2l4 -1288h-65z" />
    <glyph glyph-name="N" unicode="N" horiz-adv-x="1431" 
d="M199 0v1409h63l903 -1294h4l-2 1294h68v-1409h-66l-903 1292h-4l2 -1292h-65z" />
    <glyph glyph-name="O" unicode="O" horiz-adv-x="1521" 
d="M178 705q0 -285 163 -473t418 -189q255 0 421 188q166 187 166 473t-166 474t-421 188t-418 -188t-163 -473zM1415 706q0 -310 -185 -518t-471 -206q-286 0 -468 206t-182 518t182 517t468 205t471 -206t185 -516z" />
    <glyph glyph-name="P" unicode="P" horiz-adv-x="1245" 
d="M705 1350h-441v-742h441q178 0 277 104t99 269t-99 267t-277 102zM199 0v1409h503q209 0 329 -118q120 -119 120 -311t-120 -312t-329 -119h-438v-549h-65z" />
    <glyph glyph-name="Q" unicode="Q" horiz-adv-x="1525" 
d="M178 705q0 -285 163 -473t418 -189q255 0 421 188q166 187 166 473t-166 474t-421 188t-418 -188t-163 -473zM109 706q0 312 182 517t468 205t471 -206t185 -517q1 -176 -65 -326t-181 -250l283 -293l-45 -45l-289 299q-160 -109 -358 -108q-287 0 -469 206t-182 518z
" />
    <glyph glyph-name="R" unicode="R" horiz-adv-x="1296" 
d="M721 1350h-457v-668h457q176 0 273 95t98 249q0 154 -96 239t-275 85zM199 0v1409h520q213 0 327 -100q114 -101 114 -277t-101 -282q-100 -106 -283 -123l408 -627h-74l-408 625h-438v-625h-65z" />
    <glyph glyph-name="S" unicode="S" horiz-adv-x="1269" 
d="M133 379h66q-1 -168 117 -254t320 -86t314 91t113 245q0 102 -50 167q-50 64 -131 94q-80 30 -178 47t-195 35t-178 52q-81 32 -131 104t-50 183q0 160 132 265t346 105t344 -95t130 -271h-68q0 149 -112 229t-292 80q-181 0 -296 -86t-115 -221q0 -97 50 -159t131 -89
q80 -27 178 -44t195 -37t178 -54q81 -35 131 -111t51 -190q1 -180 -131 -289q-132 -108 -366 -108t-369 101q-134 101 -134 296z" />
    <glyph glyph-name="T" unicode="T" horiz-adv-x="1153" 
d="M16 1352v57h1121v-57h-527v-1352h-67v1352h-527z" />
    <glyph glyph-name="U" unicode="U" horiz-adv-x="1378" 
d="M170 551v858h68v-858q0 -250 120 -379t331 -129q212 0 332 129t120 379v858h67v-858q0 -285 -139 -427t-379 -142t-380 142t-140 427z" />
    <glyph glyph-name="V" unicode="V" horiz-adv-x="1206" 
d="M565 0l-538 1409h71l504 -1339h4l506 1339h68l-539 -1409h-76z" />
    <glyph glyph-name="W" unicode="W" horiz-adv-x="1812" 
d="M418 0l-387 1409h69l359 -1335h4l407 1335h78l408 -1335h2l356 1335h70l-385 -1409h-86l-402 1323h-4l-403 -1323h-86z" />
    <glyph glyph-name="X" unicode="X" horiz-adv-x="1157" 
d="M35 0l502 719l-486 690h76l448 -635l445 635h72l-480 -686l512 -723h-77l-474 668l-464 -668h-74z" />
    <glyph glyph-name="Y" unicode="Y" horiz-adv-x="1165" 
d="M547 0v575l-516 834h75l474 -762h4l479 762h72l-521 -827v-582h-67z" />
    <glyph glyph-name="Z" unicode="Z" horiz-adv-x="1144" 
d="M121 1352v57h944v-41l-901 -1311h893v-57h-977v41l901 1311h-860z" />
    <glyph glyph-name="bracketleft" unicode="[" horiz-adv-x="600" 
d="M260 -412h295v-55h-356v1991h356v-56h-295v-1880z" />
    <glyph glyph-name="backslash" unicode="\" horiz-adv-x="825" 
d="M698 -25l-630 1459h57l631 -1459h-58z" />
    <glyph glyph-name="bracketright" unicode="]" horiz-adv-x="600" 
d="M43 -412h297v1880h-297v56h358v-1991h-358v55z" />
    <glyph glyph-name="asciicircum" unicode="^" horiz-adv-x="1163" 
d="M145 721l402 688h65l402 -688h-66l-368 637l-369 -637h-66z" />
    <glyph glyph-name="underscore" unicode="_" horiz-adv-x="1024" 
d="M0 -147h1024v-52h-1024v52z" />
    <glyph glyph-name="grave" unicode="`" horiz-adv-x="1089" 
d="M522 1163l-250 336h78l223 -336h-51z" />
    <glyph glyph-name="a" unicode="a" horiz-adv-x="1034" 
d="M428 37q162 0 267 99t106 296v148q-29 -43 -133 -60l-248 -39q-246 -41 -246 -229q0 -98 68 -156t186 -59zM109 248q0 233 299 280l251 41q74 11 108 31t34 62q0 150 -75 226t-208 75q-133 0 -217 -71t-94 -204h-62q7 156 109 243t264 87t254 -92t92 -264v-662h-61v213
h-2q-43 -109 -141 -170t-242 -61q-143 0 -227 72q-82 73 -82 194z" />
    <glyph glyph-name="b" unicode="b" horiz-adv-x="1148" 
d="M244 500q0 -209 105 -335t264 -126t265 131q105 131 105 337t-105 330q-104 124 -262 124t-262 -120t-110 -321v-20zM178 0v1499h66v-330q0 -344 -4 -421h2q47 126 147 198t236 72q184 0 305 -140t121 -370t-124 -378t-306 -148q-135 0 -234 70q-98 71 -145 200h-2
l2 -252h-64z" />
    <glyph glyph-name="c" unicode="c" horiz-adv-x="1028" 
d="M539 -18q-197 0 -318 144t-121 372q0 229 126 374q126 146 296 146t277 -91q106 -91 135 -245h-66q-29 129 -116 204q-88 75 -213 75q-156 -1 -265 -131q-108 -130 -108 -332t105 -330q105 -129 268 -129q125 0 213 75t116 203h66q-29 -155 -135 -245t-260 -90z" />
    <glyph glyph-name="d" unicode="d" horiz-adv-x="1148" 
d="M536 961q-158 0 -264 -131t-106 -337t105 -330t263 -124t263 119q104 119 110 319v43q-6 201 -110 321t-261 120zM100 492q0 231 124 378t306 148q132 0 232 -72t145 -198h2q-2 41 -2 436v315h64v-1499h-62v252h-2q-45 -127 -145 -199t-236 -71q-184 0 -305 140t-121 370
z" />
    <glyph glyph-name="e" unicode="e" horiz-adv-x="1044" 
d="M536 961q-144 0 -246 -109t-120 -287h707q-5 184 -101 290t-240 106zM100 496q0 232 125 376q125 146 305 146t296 -128t116 -347v-29h-776v-14q0 -207 101 -334t276 -127q131 0 220 73t105 191h64q-18 -143 -127 -232t-262 -89q-207 0 -325 141t-118 373z" />
    <glyph glyph-name="f" unicode="f" horiz-adv-x="561" 
d="M219 0v946h-217v53h217v199q0 301 285 301h82v-57h-76q-115 0 -170 -58t-55 -188v-197h268v-53h-268v-946h-66z" />
    <glyph glyph-name="g" unicode="g" horiz-adv-x="1148" 
d="M536 961q-158 0 -264 -131t-106 -337t105 -330t265 -124t266 126q105 126 105 335v20q-6 201 -110 321t-261 120zM125 -123h61q0 -133 94 -211t250 -78q379 0 379 443v219h-2q-47 -127 -146 -198t-235 -70q-184 0 -305 139t-121 371t124 378q124 147 306 148
q134 0 232 -72t145 -196h2v249h62v-968q0 -260 -119 -378q-118 -118 -312 -118t-304 90t-111 252z" />
    <glyph glyph-name="h" unicode="h" horiz-adv-x="1120" 
d="M178 0v1499h66v-311q0 -338 -4 -416h4q84 244 376 246q142 0 237 -96t95 -297v-625h-65v616q0 176 -79 260q-80 84 -222 85q-142 0 -242 -111t-100 -322v-528h-66z" />
    <glyph glyph-name="i" unicode="i" horiz-adv-x="421" 
d="M178 0v999h66v-999h-66zM176 1317v182h70v-182h-70z" />
    <glyph glyph-name="j" unicode="j" horiz-adv-x="421" 
d="M178 -217v1216h66v-1226q0 -223 -215 -224h-56v58h50q79 0 117 40t38 136zM176 1317v182h70v-182h-70z" />
    <glyph glyph-name="k" unicode="k" horiz-adv-x="985" 
d="M178 0v1499h66v-1149l585 649h78l-375 -413l422 -586h-77l-390 539l-243 -271v-268h-66z" />
    <glyph glyph-name="l" unicode="l" horiz-adv-x="421" 
d="M178 0v1499h66v-1499h-66z" />
    <glyph glyph-name="m" unicode="m" horiz-adv-x="1763" 
d="M178 0v999h62v-227h4q43 123 137 184q94 62 211 62t202 -65t113 -197q89 260 372 262q132 0 224 -96t92 -295v-627h-65v621q0 174 -75 257t-208 83t-230 -112t-97 -325v-524h-66v621q0 172 -75 256t-207 84t-230 -112t-98 -327v-522h-66z" />
    <glyph glyph-name="n" unicode="n" horiz-adv-x="1120" 
d="M178 0v999h62v-227h4q84 244 376 246q142 0 237 -96t95 -297v-625h-65v616q0 176 -79 260q-80 84 -222 85q-142 0 -242 -111t-100 -324v-526h-66z" />
    <glyph glyph-name="o" unicode="o" horiz-adv-x="1089" 
d="M542 39q164 0 272 130q110 130 110 333t-106 331t-270 128q-162 0 -272 -130t-110 -332t106 -331t270 -129zM989 502q0 -228 -128 -374q-127 -146 -321 -146t-317 144t-123 373q0 230 128 374q128 145 321 145t317 -144t123 -372z" />
    <glyph glyph-name="p" unicode="p" horiz-adv-x="1148" 
d="M983 507q0 206 -105 330q-104 124 -262 124t-262 -120t-110 -321v-20q0 -209 105 -335t264 -126t265 131q105 131 105 337zM244 -184v-267h-66v1450h62v-249h4q47 124 147 196t234 72q184 0 305 -140t121 -370t-124 -378t-306 -148q-135 0 -234 70q-98 71 -145 200h-2
q4 -78 4 -436z" />
    <glyph glyph-name="q" unicode="q" horiz-adv-x="1148" 
d="M536 961q-158 0 -264 -131t-106 -337t105 -330t265 -124t266 126q105 126 105 335v20q-6 201 -110 321t-261 120zM907 -186q0 397 2 436h-2q-47 -127 -146 -198t-235 -70q-184 0 -305 139t-121 371t124 378q124 147 306 148q134 0 232 -72t145 -196h2v249h62v-1450h-64
v265z" />
    <glyph glyph-name="r" unicode="r" horiz-adv-x="679" 
d="M178 0v999h62v-200h4q35 98 109 158q75 61 165 61t150 -39l-23 -57q-61 35 -127 34q-123 0 -199 -114t-75 -275v-567h-66z" />
    <glyph glyph-name="s" unicode="s" horiz-adv-x="944" 
d="M84 276h61q-1 -123 91 -182t229 -59t225 60q88 59 88 161t-52 147t-167 64l-188 33q-123 22 -194 74t-71 173t100 196t256 75q155 0 258 -71t103 -208h-61q0 111 -86 168t-213 57t-210 -56q-83 -58 -83 -153t56 -139t161 -59l188 -33q137 -25 202 -80t65 -183t-108 -204
q-108 -75 -274 -75t-271 74q-105 75 -105 220z" />
    <glyph glyph-name="t" unicode="t" horiz-adv-x="610" 
d="M203 272v674h-211v53h211v304h65v-304h293v-53h-293v-672q0 -119 47 -168t150 -49h96v-57h-104q-129 0 -191 64t-63 208z" />
    <glyph glyph-name="u" unicode="u" horiz-adv-x="1105" 
d="M862 227q-86 -245 -372 -245q-138 0 -233 96t-95 297v624h65v-616q0 -176 78 -260t218 -84t240 111q99 111 99 323v526h66v-999h-62v227h-4z" />
    <glyph glyph-name="v" unicode="v" horiz-adv-x="913" 
d="M424 0l-391 999h69l357 -927h2l356 927h64l-387 -999h-70z" />
    <glyph glyph-name="w" unicode="w" horiz-adv-x="1406" 
d="M344 0l-311 999h65l283 -929h4l285 929h73l283 -929h4l283 929h63l-311 -999h-78l-280 932h-2l-283 -932h-78z" />
    <glyph glyph-name="x" unicode="x" horiz-adv-x="864" 
d="M37 0l358 500l-356 499h78l317 -448l320 448h73l-358 -497l358 -502h-77l-320 449l-319 -449h-74z" />
    <glyph glyph-name="y" unicode="y" horiz-adv-x="913" 
d="M68 -406h36q100 0 158 58t103 172l61 166l-393 1009h69l357 -927h2l356 927h64l-463 -1196q-51 -129 -118 -197t-185 -67h-47v55z" />
    <glyph glyph-name="z" unicode="z" horiz-adv-x="845" 
d="M59 946v53h719v-43l-628 -903h636v-53h-718v37l630 909h-639z" />
    <glyph glyph-name="braceleft" unicode="{" horiz-adv-x="739" 
d="M328 -166v430q0 119 -49 171t-175 77v47q123 25 174 76q50 51 50 170v418q0 145 71 223q72 78 209 78h88v-54h-88q-106 0 -162 -62t-57 -181v-436q0 -111 -49 -166t-158 -88v-5q109 -33 158 -88t49 -165v-449q0 -119 56 -181t163 -63h88v-53h-88q-137 0 -209 78
q-71 78 -71 223z" />
    <glyph glyph-name="bar" unicode="|" horiz-adv-x="524" 
d="M231 -492v2048h62v-2048h-62z" />
    <glyph glyph-name="braceright" unicode="}" horiz-adv-x="739" 
d="M43 -414h88q107 0 163 62t56 182v449q0 111 50 165t161 88v5q-111 33 -161 88t-50 166v436q0 119 -56 181t-163 62h-88v54h90q135 0 207 -78t72 -223v-418q0 -119 50 -170t175 -76v-47q-125 -25 -175 -77t-50 -171v-430q0 -145 -72 -223t-207 -78h-90v53z" />
    <glyph glyph-name="asciitilde" unicode="~" horiz-adv-x="1163" 
d="M156 387q0 127 57 195t151 68t226 -97q133 -96 207 -96q154 0 153 202h60q0 -127 -58 -193t-156 -67q-99 0 -220 97t-201 98q-162 0 -162 -207h-57z" />
    <glyph glyph-name="exclamdown" unicode="&#xa1;" horiz-adv-x="436" 
d="M254 -410h-72v347l15 688h43l14 -688v-347zM182 813v186h72v-186h-72z" />
    <glyph glyph-name="cent" unicode="&#xa2;" horiz-adv-x="1163" 
d="M573 -18v215q-195 12 -315 153q-120 142 -119 362q0 220 123 363t313 154v198h66v-198q156 -9 260 -99t127 -235h-65q-23 129 -118 204t-254 75t-273 -130t-114 -332t114 -330t272 -128t255 74q95 74 118 202h65q-23 -145 -128 -235t-261 -98v-215h-66z" />
    <glyph glyph-name="sterling" unicode="&#xa3;" horiz-adv-x="1163" 
d="M221 27q154 0 203 206q-109 84 -185 84q-75 0 -119 -45t-44 -105t38 -100t107 -40zM147 707v49h195q-90 205 -90 317q0 162 99 258t267 96t262 -92q95 -92 103 -262h-63q-8 145 -86 222t-215 77t-219 -80t-83 -200q0 -120 99 -336h393v-49h-371q70 -157 70 -267t-21 -194
q19 -16 65 -56q136 -118 209 -140q36 -11 84 -11q109 0 151 98q35 77 46 199h58q-22 -198 -87 -277t-184 -77q-83 0 -142 41t-77 52t-76 62t-63 56q-74 -211 -250 -211q-92 0 -143 51t-51 133t59 139q58 57 150 57t200 -75q8 55 8 121q0 121 -79 299h-218z" />
    <glyph glyph-name="currency" unicode="&#xa4;" horiz-adv-x="1163" 
d="M582 418q120 0 198 82t78 205t-79 205t-197 81q-118 0 -198 -82q-79 -83 -79 -205t79 -204t198 -82zM248 706q0 124 80 218l-121 125l35 32l120 -123q92 82 218 82t219 -79l119 120l34 -32l-121 -123q84 -98 84 -219t-84 -224l123 -123l-34 -32l-121 121
q-86 -80 -218 -80t-219 82l-122 -123l-35 32l123 125q-80 97 -80 221z" />
    <glyph glyph-name="yen" unicode="&#xa5;" horiz-adv-x="1163" 
d="M199 557v47h348l-492 805h76l451 -745h4l452 745h70l-492 -805h349v-47h-351v-223h351v-47h-351v-287h-65v287h-350v47h350v223h-350z" />
    <glyph glyph-name="brokenbar" unicode="&#xa6;" horiz-adv-x="524" 
d="M231 -336v721h62v-721h-62zM231 688v721h62v-721h-62z" />
    <glyph glyph-name="section" unicode="&#xa7;" horiz-adv-x="1101" 
d="M193 504q0 -118 63 -178q63 -61 199 -103l139 -43q135 10 225 88t90 195t-62 178q-63 61 -198 104l-145 43q-135 -10 -223 -88t-88 -196zM868 -152q0 114 -64 168q-65 55 -183 93l-189 57q-156 47 -230 123t-73 202q0 127 80 213t203 113q-115 41 -179 108
q-63 67 -63 199t114 220q114 90 278 90t279 -77q114 -77 122 -227h-62q-8 122 -103 186q-96 64 -236 64t-233 -72t-93 -188q0 -115 64 -170t183 -90l189 -57q154 -47 228 -123t73 -203q0 -127 -79 -213t-204 -114q114 -39 178 -107q64 -69 64 -199t-113 -220t-279 -89
t-278 77q-113 76 -121 226h62q6 -123 102 -186q97 -64 237 -64t233 73t93 187z" />
    <glyph glyph-name="dieresis" unicode="&#xa8;" horiz-adv-x="1089" 
d="M319 1243v176h64v-176h-64zM711 1243v176h65v-176h-65z" />
    <glyph glyph-name="copyright" unicode="&#xa9;" horiz-adv-x="1589" 
d="M459 713q0 150 94 254q93 104 227 104t212 -63t102 -168h-56q-20 84 -82 133t-174 49q-110 0 -188 -90t-78 -219t79 -219t189 -90t171 48q62 50 83 134h56q-23 -104 -102 -168q-80 -64 -212 -64t-226 104t-95 255zM143 713q-1 -287 183 -485t469 -198t468 198t183 484
t-183 475t-469 189t-468 -188t-183 -475zM84 713q0 307 200 511t508 204t511 -206q203 -204 203 -510t-202 -518q-200 -212 -509 -212t-510 212t-201 519z" />
    <glyph glyph-name="ordfeminine" unicode="&#xaa;" horiz-adv-x="757" 
d="M328 737q98 0 174 71t76 204v88q-18 -25 -82 -35l-189 -27q-166 -25 -166 -155q0 -68 45 -107q44 -39 142 -39zM302 690q-99 0 -161 52q-61 52 -61 139q0 174 213 200l194 27q49 6 70 20q20 14 21 48q0 98 -52 149t-143 51t-151 -48t-68 -140h-55q8 115 85 175
q76 60 190 60q114 -1 184 -65t71 -184v-469h-59v141h-2q-35 -70 -106 -113t-170 -43z" />
    <glyph glyph-name="guillemotleft" unicode="&#xab;" horiz-adv-x="1009" 
d="M426 98l-301 418l301 418h55l-284 -418l284 -418h-55zM528 516l303 418h56l-287 -418l287 -418h-56z" />
    <glyph glyph-name="logicalnot" unicode="&#xac;" horiz-adv-x="1163" 
d="M121 489v58h921v-490h-59v432h-862z" />
    <glyph glyph-name="uni00AD" unicode="&#xad;" horiz-adv-x="811" 
d="M123 487v60h565v-60h-565z" />
    <glyph glyph-name="registered" unicode="&#xae;" horiz-adv-x="1589" 
d="M850 1016h-256v-316h256q84 0 129 45t45 116t-45 113t-129 42zM535 360v705h317q111 0 170 -55q59 -54 59 -142t-50 -145t-136 -70l192 -293h-63l-190 291h-240v-291h-59zM143 713q-1 -287 183 -485t469 -198t468 198t183 484t-183 475t-469 189t-468 -188t-183 -475z
M84 713q0 307 200 511t508 204t511 -206q203 -204 203 -510t-202 -518q-200 -212 -509 -212t-510 212t-201 519z" />
    <glyph glyph-name="macron" unicode="&#xaf;" horiz-adv-x="1089" 
d="M264 1303v51h565v-51h-565z" />
    <glyph glyph-name="degree" unicode="&#xb0;" horiz-adv-x="714" 
d="M358 1378q-96 0 -157 -66t-61 -160q0 -95 60 -162q62 -66 157 -66t158 66q63 67 63 162q0 94 -62 160t-158 66zM357 874q-119 0 -197 81t-78 197t79 197t197 81t196 -81q79 -81 79 -197t-79 -197t-197 -81z" />
    <glyph glyph-name="plusminus" unicode="&#xb1;" horiz-adv-x="1163" 
d="M121 0v57h921v-57h-921zM121 586v55h430v406h61v-406h430v-55h-430v-402h-61v402h-430z" />
    <glyph glyph-name="acute" unicode="&#xb4;" horiz-adv-x="1089" 
d="M516 1163l223 336h78l-250 -336h-51z" />
    <glyph glyph-name="mu" unicode="&#xb5;" horiz-adv-x="1128" 
d="M885 0v227h-2q-43 -123 -139 -184t-216 -61q-199 0 -286 147q4 -258 4 -420v-160h-66v1450h66v-616q0 -176 78 -260t219 -84t240 111t100 325v524h63v-999h-61z" />
    <glyph glyph-name="paragraph" unicode="&#xb6;" horiz-adv-x="1153" 
d="M582 0v590q-213 4 -333 118t-120 296t126 293q126 112 343 112h47v-1409h-63zM883 0v1409h63v-1409h-63z" />
    <glyph glyph-name="periodcentered" unicode="&#xb7;" horiz-adv-x="425" 
d="M174 412v209h78v-209h-78z" />
    <glyph glyph-name="cedilla" unicode="&#xb8;" horiz-adv-x="1089" 
d="M715 -259q0 -69 -48 -119t-149 -50h-98v45h94q76 0 111 36t34 89q0 53 -37 87q-38 34 -112 34h-39l57 137h33l-33 -96q90 -2 138 -48t49 -115z" />
    <glyph glyph-name="ordmasculine" unicode="&#xba;" horiz-adv-x="813" 
d="M141 1057q0 -139 74 -227t190 -87q115 0 191 88q76 87 76 227t-73 226t-189 86t-193 -87q-76 -87 -76 -226zM735 1058q0 -162 -93 -264t-237 -102q-145 0 -235 100t-90 264q0 163 93 264t237 101t235 -100q90 -100 90 -263z" />
    <glyph glyph-name="guillemotright" unicode="&#xbb;" horiz-adv-x="1009" 
d="M123 98l285 418l-285 418h53l303 -418l-303 -418h-53zM526 98l287 418l-287 418h56l303 -418l-303 -418h-56z" />
    <glyph glyph-name="onequarter" unicode="&#xbc;" horiz-adv-x="1519" 
d="M1268 231v400l-334 -400h334zM422 1409v-653h223v-51h-520v51h237v581l-221 -127l-24 43l266 156h39zM434 -25q410 819 717 1459h57l-716 -1459h-58zM866 182v41l410 488h51v-480h125v-49h-125v-182h-59v182h-402z" />
    <glyph glyph-name="onehalf" unicode="&#xbd;" horiz-adv-x="1519" 
d="M422 1409v-653h223v-51h-520v51h237v581l-221 -127l-24 43l266 156h39zM412 -25q307 639 716 1459h56l-717 -1459h-55zM1362 534q0 56 -49 95t-141 39t-155 -50q-62 -50 -65 -151h-57q4 129 83 189q80 60 194 60t183 -51q69 -53 69 -143t-65 -138q-37 -29 -138 -83
l-78 -39q-88 -43 -129 -90t-43 -121h461v-51h-529q4 122 56 188t157 119l80 39q55 27 85 45q29 18 55 52q26 35 26 91z" />
    <glyph glyph-name="threequarters" unicode="&#xbe;" horiz-adv-x="1519" 
d="M1268 231v400l-334 -400h334zM416 -25l719 1459h55l-717 -1459h-57zM88 907h57q1 -86 59 -129t156 -43t157 40q58 40 58 115t-59 118t-156 43h-63v45h63q86 0 140 37q53 37 53 103t-55 104q-56 36 -138 36t-138 -44t-56 -124h-55q0 102 70 159q71 56 179 56t180 -50
q72 -51 72 -123t-40 -116t-103 -59v-4q72 -12 120 -61t48 -132q0 -82 -75 -136t-200 -54q-126 0 -200 54t-74 165zM866 182v41l410 488h51v-480h125v-49h-125v-182h-59v182h-402z" />
    <glyph glyph-name="questiondown" unicode="&#xbf;" horiz-adv-x="923" 
d="M203 180q53 44 106 89q127 105 127 266v61h66v-57q0 -84 -27 -151q-27 -68 -67 -106q-75 -73 -170 -156q-95 -84 -95 -215q0 -132 87 -207t232 -75q146 1 236 95t90 270h66q0 -198 -109 -310t-283 -112t-281 89q-105 89 -105 251q0 161 127 268zM432 811v186h72v-186h-72
z" />
    <glyph glyph-name="Agrave" unicode="&#xc0;" horiz-adv-x="1243" 
d="M598 1573l-250 336h78l223 -336h-51zM623 1339h-5l-307 -811h619zM43 0l539 1409h80l540 -1409h-72l-178 469h-663l-178 -469h-68z" />
    <glyph glyph-name="Aacute" unicode="&#xc1;" horiz-adv-x="1243" 
d="M592 1573l223 336h78l-250 -336h-51zM623 1339h-5l-307 -811h619zM43 0l539 1409h80l540 -1409h-72l-178 469h-663l-178 -469h-68z" />
    <glyph glyph-name="Acircumflex" unicode="&#xc2;" horiz-adv-x="1243" 
d="M326 1573l264 336h61l264 -336h-65l-229 295l-230 -295h-65zM623 1339h-5l-307 -811h619zM43 0l539 1409h80l540 -1409h-72l-178 469h-663l-178 -469h-68z" />
    <glyph glyph-name="Atilde" unicode="&#xc3;" horiz-adv-x="1243" 
d="M475 1823q59 -1 159 -59t140 -58q86 0 103 123h38q-6 -70 -42 -120t-97 -50q-62 0 -160 58t-137 59q-86 0 -102 -123h-41q6 74 43 122t96 48zM623 1339h-5l-307 -811h619zM43 0l539 1409h80l540 -1409h-72l-178 469h-663l-178 -469h-68z" />
    <glyph glyph-name="Adieresis" unicode="&#xc4;" horiz-adv-x="1243" 
d="M395 1653v176h64v-176h-64zM786 1653v176h66v-176h-66zM623 1339h-5l-307 -811h619zM43 0l539 1409h80l540 -1409h-72l-178 469h-663l-178 -469h-68z" />
    <glyph glyph-name="Aring" unicode="&#xc5;" horiz-adv-x="1243" 
d="M621 1622q55 0 97 39t42 100t-42 101t-97 39q-55 0 -97 -39q-42 -38 -43 -100q1 -62 43 -101t97 -39zM621 1583q-72 0 -127 50q-56 50 -56 129t56 128t127 49q72 0 127 -49t55 -128t-55 -129t-127 -50zM623 1339h-5l-307 -811h619zM43 0l539 1409h80l540 -1409h-72
l-178 469h-663l-178 -469h-68z" />
    <glyph glyph-name="AE" unicode="&#xc6;" horiz-adv-x="2105" 
d="M1085 412v919l-682 -919h682zM1987 1409v-59h-834v-598h678v-60h-678v-633h850v-59h-918v352h-725l-260 -352h-82l1045 1409h924z" />
    <glyph glyph-name="Ccedilla" unicode="&#xc7;" horiz-adv-x="1435" 
d="M109 708q0 302 180 511t471 208q227 1 378 -117t201 -321h-67q-51 177 -182 277t-330 100q-260 0 -421 -190t-161 -468t160 -472q160 -193 418 -193q395 0 516 377h67q-59 -201 -205 -319t-368 -119l-27 -78q91 -2 139 -48t48 -115t-48 -119t-149 -50h-98v45h94
q76 0 111 36t34 89q0 53 -37 87q-38 34 -112 34h-39l49 121q-279 8 -451 215t-171 509z" />
    <glyph glyph-name="Egrave" unicode="&#xc8;" horiz-adv-x="1218" 
d="M633 1573l-250 336h78l223 -336h-51zM199 0v1409h903v-59h-838v-598h682v-60h-682v-633h854v-59h-919z" />
    <glyph glyph-name="Eacute" unicode="&#xc9;" horiz-adv-x="1218" 
d="M627 1573l223 336h78l-250 -336h-51zM199 0v1409h903v-59h-838v-598h682v-60h-682v-633h854v-59h-919z" />
    <glyph glyph-name="Ecircumflex" unicode="&#xca;" horiz-adv-x="1218" 
d="M360 1573l265 336h61l264 -336h-65l-230 295l-229 -295h-66zM199 0v1409h903v-59h-838v-598h682v-60h-682v-633h854v-59h-919z" />
    <glyph glyph-name="Edieresis" unicode="&#xcb;" horiz-adv-x="1218" 
d="M430 1653v176h64v-176h-64zM821 1653v176h66v-176h-66zM199 0v1409h903v-59h-838v-598h682v-60h-682v-633h854v-59h-919z" />
    <glyph glyph-name="Igrave" unicode="&#xcc;" horiz-adv-x="462" 
d="M209 1573l-250 336h78l223 -336h-51zM199 0v1409h65v-1409h-65z" />
    <glyph glyph-name="Iacute" unicode="&#xcd;" horiz-adv-x="462" 
d="M203 1573l223 336h78l-250 -336h-51zM199 0v1409h65v-1409h-65z" />
    <glyph glyph-name="Icircumflex" unicode="&#xce;" horiz-adv-x="462" 
d="M-63 1573l264 336h61l264 -336h-65l-230 295l-229 -295h-65zM199 0v1409h65v-1409h-65z" />
    <glyph glyph-name="Idieresis" unicode="&#xcf;" horiz-adv-x="462" 
d="M6 1653v176h64v-176h-64zM397 1653v176h66v-176h-66zM199 0v1409h65v-1409h-65z" />
    <glyph glyph-name="Eth" unicode="&#xd0;" horiz-adv-x="1394" 
d="M545 1350h-281v-615h340v-55h-340v-621h281q334 1 504 179t170 467t-170 467t-504 178zM8 680v55h191v674h346q360 0 552 -192q191 -193 191 -512t-191 -512t-552 -193h-346v680h-191z" />
    <glyph glyph-name="Ntilde" unicode="&#xd1;" horiz-adv-x="1431" 
d="M569 1823q59 -1 159 -59t140 -58q86 0 103 123h39q-6 -70 -42 -120t-98 -50t-159 58q-98 58 -138 59q-86 0 -102 -123h-41q6 74 43 122t96 48zM199 0v1409h63l903 -1294h4l-2 1294h68v-1409h-66l-903 1292h-4l2 -1292h-65z" />
    <glyph glyph-name="Ograve" unicode="&#xd2;" horiz-adv-x="1521" 
d="M737 1573l-250 336h78l223 -336h-51zM178 705q0 -285 163 -473t418 -189q255 0 421 188q166 187 166 473t-166 474t-421 188t-418 -188t-163 -473zM1415 706q0 -310 -185 -518t-471 -206q-286 0 -468 206t-182 518t182 517t468 205t471 -206t185 -516z" />
    <glyph glyph-name="Oacute" unicode="&#xd3;" horiz-adv-x="1521" 
d="M731 1573l223 336h78l-250 -336h-51zM178 705q0 -285 163 -473t418 -189q255 0 421 188q166 187 166 473t-166 474t-421 188t-418 -188t-163 -473zM1415 706q0 -310 -185 -518t-471 -206q-286 0 -468 206t-182 518t182 517t468 205t471 -206t185 -516z" />
    <glyph glyph-name="Ocircumflex" unicode="&#xd4;" horiz-adv-x="1521" 
d="M465 1573l264 336h62l264 -336h-66l-229 295l-230 -295h-65zM178 705q0 -285 163 -473t418 -189q255 0 421 188q166 187 166 473t-166 474t-421 188t-418 -188t-163 -473zM1415 706q0 -310 -185 -518t-471 -206q-286 0 -468 206t-182 518t182 517t468 205t471 -206
t185 -516z" />
    <glyph glyph-name="Otilde" unicode="&#xd5;" horiz-adv-x="1521" 
d="M614 1823q60 -1 160 -59t139 -58q86 0 103 123h39q-6 -70 -42 -120q-35 -50 -97 -50t-160 58t-138 59q-86 0 -102 -123h-41q6 74 43 122q36 48 96 48zM178 705q0 -285 163 -473t418 -189q255 0 421 188q166 187 166 473t-166 474t-421 188t-418 -188t-163 -473zM1415 706
q0 -310 -185 -518t-471 -206q-286 0 -468 206t-182 518t182 517t468 205t471 -206t185 -516z" />
    <glyph glyph-name="Odieresis" unicode="&#xd6;" horiz-adv-x="1521" 
d="M535 1653v176h63v-176h-63zM926 1653v176h65v-176h-65zM178 705q0 -285 163 -473t418 -189q255 0 421 188q166 187 166 473t-166 474t-421 188t-418 -188t-163 -473zM1415 706q0 -310 -185 -518t-471 -206q-286 0 -468 206t-182 518t182 517t468 205t471 -206t185 -516z
" />
    <glyph glyph-name="multiply" unicode="&#xd7;" horiz-adv-x="1163" 
d="M193 883l40 39l353 -357l352 357l39 -41l-352 -357l354 -356l-41 -39l-352 356l-355 -358l-38 41l352 356z" />
    <glyph glyph-name="Oslash" unicode="&#xd8;" horiz-adv-x="1521" 
d="M1346 705q0 285 -166 473l-805 -983q155 -152 397 -152q242 1 408 189t166 473zM178 703q0 -287 164 -474l805 981q-163 156 -403 156t-403 -188t-163 -475zM109 700q0 316 183 522t468 205q250 0 428 -165l141 172h62l-168 -205q193 -205 193 -519t-187 -522
q-186 -208 -469 -206q-250 0 -426 163l-139 -170h-62l166 203q-190 206 -190 522z" />
    <glyph glyph-name="Ugrave" unicode="&#xd9;" horiz-adv-x="1378" 
d="M666 1573l-250 336h78l223 -336h-51zM170 551v858h68v-858q0 -250 120 -379t331 -129q212 0 332 129t120 379v858h67v-858q0 -285 -139 -427t-379 -142t-380 142t-140 427z" />
    <glyph glyph-name="Uacute" unicode="&#xda;" horiz-adv-x="1378" 
d="M659 1573l224 336h78l-250 -336h-52zM170 551v858h68v-858q0 -250 120 -379t331 -129q212 0 332 129t120 379v858h67v-858q0 -285 -139 -427t-379 -142t-380 142t-140 427z" />
    <glyph glyph-name="Ucircumflex" unicode="&#xdb;" horiz-adv-x="1378" 
d="M393 1573l264 336h62l264 -336h-65l-230 295l-229 -295h-66zM170 551v858h68v-858q0 -250 120 -379t331 -129q212 0 332 129t120 379v858h67v-858q0 -285 -139 -427t-379 -142t-380 142t-140 427z" />
    <glyph glyph-name="Udieresis" unicode="&#xdc;" horiz-adv-x="1378" 
d="M463 1653v176h63v-176h-63zM854 1653v176h66v-176h-66zM170 551v858h68v-858q0 -250 120 -379t331 -129q212 0 332 129t120 379v858h67v-858q0 -285 -139 -427t-379 -142t-380 142t-140 427z" />
    <glyph glyph-name="Yacute" unicode="&#xdd;" horiz-adv-x="1165" 
d="M555 1573l223 336h78l-250 -336h-51zM547 0v575l-516 834h75l474 -762h4l479 762h72l-521 -827v-582h-67z" />
    <glyph glyph-name="Thorn" unicode="&#xde;" horiz-adv-x="1245" 
d="M705 1106h-441v-746h441q178 0 277 104t99 270q0 168 -99 270t-277 102zM199 0v1409h65v-248h438q211 0 330 -117q119 -118 119 -310t-120 -312t-329 -119h-438v-303h-65z" />
    <glyph glyph-name="germandbls" unicode="&#xdf;" horiz-adv-x="1058" 
d="M145 0v1042q1 240 107 358t274 118t250 -77q84 -77 84 -200q0 -74 -37 -133t-81 -92q-117 -88 -117 -175t125 -175q51 -37 103 -79t89 -109t37 -148q0 -160 -102 -245t-256 -85h-144v55h144q125 0 209 69t85 202q0 90 -55 160t-121 110q-66 39 -121 99q-55 59 -55 123
q0 108 84 183q35 31 70 63q84 77 84 176q0 98 -70 160q-69 62 -209 62t-226 -102t-87 -318v-1042h-64z" />
    <glyph glyph-name="agrave" unicode="&#xe0;" horiz-adv-x="1034" 
d="M508 1163l-250 336h78l223 -336h-51zM428 37q162 0 267 99t106 296v148q-29 -43 -133 -60l-248 -39q-246 -41 -246 -229q0 -98 68 -156t186 -59zM109 248q0 233 299 280l251 41q74 11 108 31t34 62q0 150 -75 226t-208 75q-133 0 -217 -71t-94 -204h-62q7 156 109 243
t264 87t254 -92t92 -264v-662h-61v213h-2q-43 -109 -141 -170t-242 -61q-143 0 -227 72q-82 73 -82 194z" />
    <glyph glyph-name="aacute" unicode="&#xe1;" horiz-adv-x="1034" 
d="M469 1163l223 336h78l-250 -336h-51zM428 37q162 0 267 99t106 296v148q-29 -43 -133 -60l-248 -39q-246 -41 -246 -229q0 -98 68 -156t186 -59zM109 248q0 233 299 280l251 41q74 11 108 31t34 62q0 150 -75 226t-208 75q-133 0 -217 -71t-94 -204h-62q7 156 109 243
t264 87t254 -92t92 -264v-662h-61v213h-2q-43 -109 -141 -170t-242 -61q-143 0 -227 72q-82 73 -82 194z" />
    <glyph glyph-name="acircumflex" unicode="&#xe2;" horiz-adv-x="1034" 
d="M219 1163l264 336h62l264 -336h-66l-229 295l-229 -295h-66zM428 37q162 0 267 99t106 296v148q-29 -43 -133 -60l-248 -39q-246 -41 -246 -229q0 -98 68 -156t186 -59zM109 248q0 233 299 280l251 41q74 11 108 31t34 62q0 150 -75 226t-208 75q-133 0 -217 -71
t-94 -204h-62q7 156 109 243t264 87t254 -92t92 -264v-662h-61v213h-2q-43 -109 -141 -170t-242 -61q-143 0 -227 72q-82 73 -82 194z" />
    <glyph glyph-name="atilde" unicode="&#xe3;" horiz-adv-x="1034" 
d="M368 1413q60 0 160 -58t140 -59q86 0 102 123h39q-6 -70 -42 -120t-97 -50q-62 1 -160 59t-137 58q-86 0 -103 -123h-41q6 74 43 122q36 48 96 48zM428 37q162 0 267 99t106 296v148q-29 -43 -133 -60l-248 -39q-246 -41 -246 -229q0 -98 68 -156t186 -59zM109 248
q0 233 299 280l251 41q74 11 108 31t34 62q0 150 -75 226t-208 75q-133 0 -217 -71t-94 -204h-62q7 156 109 243t264 87t254 -92t92 -264v-662h-61v213h-2q-43 -109 -141 -170t-242 -61q-143 0 -227 72q-82 73 -82 194z" />
    <glyph glyph-name="adieresis" unicode="&#xe4;" horiz-adv-x="1034" 
d="M289 1243v176h63v-176h-63zM680 1243v176h65v-176h-65zM428 37q162 0 267 99t106 296v148q-29 -43 -133 -60l-248 -39q-246 -41 -246 -229q0 -98 68 -156t186 -59zM109 248q0 233 299 280l251 41q74 11 108 31t34 62q0 150 -75 226t-208 75q-133 0 -217 -71t-94 -204h-62
q7 156 109 243t264 87t254 -92t92 -264v-662h-61v213h-2q-43 -109 -141 -170t-242 -61q-143 0 -227 72q-82 73 -82 194z" />
    <glyph glyph-name="aring" unicode="&#xe5;" horiz-adv-x="1034" 
d="M514 1212q55 0 97 39t42 101t-42 100q-42 39 -97 39t-97 -39t-42 -100q0 -60 42 -100t97 -40zM514 1174q-72 0 -127 50t-55 129t55 128t127 49t127 -49t55 -128t-55 -129t-127 -50zM428 37q162 0 267 99t106 296v148q-29 -43 -133 -60l-248 -39q-246 -41 -246 -229
q0 -98 68 -156t186 -59zM109 248q0 233 299 280l251 41q74 11 108 31t34 62q0 150 -75 226t-208 75q-133 0 -217 -71t-94 -204h-62q7 156 109 243t264 87t254 -92t92 -264v-662h-61v213h-2q-43 -109 -141 -170t-242 -61q-143 0 -227 72q-82 73 -82 194z" />
    <glyph glyph-name="ae" unicode="&#xe6;" horiz-adv-x="1728" 
d="M1224 961q-140 0 -240 -110t-116 -286h688q-2 182 -97 289t-235 107zM174 252q0 -98 68 -156t204 -59t242 99t113 288v156q-29 -43 -133 -60l-248 -39q-246 -41 -246 -229zM506 1018q144 0 234 -65q89 -65 114 -187q54 120 152 186t219 66q171 0 285 -128t114 -347v-29
h-758v-14q0 -209 100 -335t267 -126q127 0 215 73t102 191h64q-18 -141 -126 -231t-256 -90t-252 80q-103 80 -149 225q-41 -150 -151 -228q-110 -77 -259 -77q-148 0 -231 72q-82 73 -81 194q0 233 299 280l251 41q72 13 107 33t35 64q0 145 -75 221t-208 76t-217 -70
t-94 -205h-62q9 160 113 245t248 85z" />
    <glyph glyph-name="ccedilla" unicode="&#xe7;" horiz-adv-x="1028" 
d="M100 500q0 226 126 372t296 146t277 -91q106 -91 135 -245h-66q-29 129 -116 204q-88 75 -213 75q-156 -1 -265 -131q-108 -130 -108 -332t105 -330q105 -129 268 -129q125 0 213 75t116 203h66q-29 -153 -133 -243t-252 -92l-27 -78q90 -2 138 -48t48 -115t-48 -119
t-148 -50h-98v45h94q76 0 110 36t35 89q0 53 -38 87t-111 34h-39l49 119q-186 10 -300 151t-114 367z" />
    <glyph glyph-name="egrave" unicode="&#xe8;" horiz-adv-x="1044" 
d="M512 1163l-250 336h78l223 -336h-51zM536 961q-144 0 -246 -109t-120 -287h707q-5 184 -101 290t-240 106zM100 496q0 232 125 376q125 146 305 146t296 -128t116 -347v-29h-776v-14q0 -207 101 -334t276 -127q131 0 220 73t105 191h64q-18 -143 -127 -232t-262 -89
q-207 0 -325 141t-118 373z" />
    <glyph glyph-name="eacute" unicode="&#xe9;" horiz-adv-x="1044" 
d="M506 1163l223 336h78l-250 -336h-51zM536 961q-144 0 -246 -109t-120 -287h707q-5 184 -101 290t-240 106zM100 496q0 232 125 376q125 146 305 146t296 -128t116 -347v-29h-776v-14q0 -207 101 -334t276 -127q131 0 220 73t105 191h64q-18 -143 -127 -232t-262 -89
q-207 0 -325 141t-118 373z" />
    <glyph glyph-name="ecircumflex" unicode="&#xea;" horiz-adv-x="1044" 
d="M240 1163l264 336h61l264 -336h-65l-229 295l-230 -295h-65zM536 961q-144 0 -246 -109t-120 -287h707q-5 184 -101 290t-240 106zM100 496q0 232 125 376q125 146 305 146t296 -128t116 -347v-29h-776v-14q0 -207 101 -334t276 -127q131 0 220 73t105 191h64
q-18 -143 -127 -232t-262 -89q-207 0 -325 141t-118 373z" />
    <glyph glyph-name="edieresis" unicode="&#xeb;" horiz-adv-x="1044" 
d="M309 1243v176h64v-176h-64zM700 1243v176h66v-176h-66zM536 961q-144 0 -246 -109t-120 -287h707q-5 184 -101 290t-240 106zM100 496q0 232 125 376q125 146 305 146t296 -128t116 -347v-29h-776v-14q0 -207 101 -334t276 -127q131 0 220 73t105 191h64
q-18 -143 -127 -232t-262 -89q-207 0 -325 141t-118 373z" />
    <glyph glyph-name="igrave" unicode="&#xec;" horiz-adv-x="421" 
d="M188 1163l-249 336h77l224 -336h-52zM178 0v999h66v-999h-66z" />
    <glyph glyph-name="iacute" unicode="&#xed;" horiz-adv-x="421" 
d="M182 1163l224 336h77l-250 -336h-51zM178 0v999h66v-999h-66z" />
    <glyph glyph-name="icircumflex" unicode="&#xee;" horiz-adv-x="421" 
d="M-84 1163l264 336h62l264 -336h-66l-229 295l-229 -295h-66zM178 0v999h66v-999h-66z" />
    <glyph glyph-name="idieresis" unicode="&#xef;" horiz-adv-x="421" 
d="M-14 1243v176h63v-176h-63zM377 1243v176h65v-176h-65zM178 0v999h66v-999h-66z" />
    <glyph glyph-name="eth" unicode="&#xf0;" horiz-adv-x="1087" 
d="M145 467q0 -184 108 -306q107 -122 271 -122t274 121t110 309t-107 307q-105 119 -271 119t-276 -122t-109 -306zM975 492q0 -230 -128 -370t-324 -140q-195 0 -319 136t-124 347t128 349t314 138q123 0 222 -61t151 -170h4q-45 389 -293 582l-246 -162l-26 37l233 153
q-127 86 -303 142l12 51q207 -63 342 -158l207 137l25 -37l-195 -129q319 -250 320 -792v-53z" />
    <glyph glyph-name="ntilde" unicode="&#xf1;" horiz-adv-x="1120" 
d="M412 1413q60 0 159 -58q100 -58 140 -59q86 0 102 123h39q-6 -70 -42 -120t-97 -50q-61 1 -159 59t-138 58q-86 0 -103 -123h-41q6 74 43 122t97 48zM178 0v999h62v-227h4q84 244 376 246q142 0 237 -96t95 -297v-625h-65v616q0 176 -79 260q-80 84 -222 85
q-142 0 -242 -111t-100 -324v-526h-66z" />
    <glyph glyph-name="ograve" unicode="&#xf2;" horiz-adv-x="1089" 
d="M522 1163l-250 336h78l223 -336h-51zM542 39q164 0 272 130q110 130 110 333t-106 331t-270 128q-162 0 -272 -130t-110 -332t106 -331t270 -129zM989 502q0 -228 -128 -374q-127 -146 -321 -146t-317 144t-123 373q0 230 128 374q128 145 321 145t317 -144t123 -372z
" />
    <glyph glyph-name="oacute" unicode="&#xf3;" horiz-adv-x="1089" 
d="M516 1163l223 336h78l-250 -336h-51zM542 39q164 0 272 130q110 130 110 333t-106 331t-270 128q-162 0 -272 -130t-110 -332t106 -331t270 -129zM989 502q0 -228 -128 -374q-127 -146 -321 -146t-317 144t-123 373q0 230 128 374q128 145 321 145t317 -144t123 -372z
" />
    <glyph glyph-name="ocircumflex" unicode="&#xf4;" horiz-adv-x="1089" 
d="M250 1163l264 336h61l265 -336h-66l-229 295l-230 -295h-65zM542 39q164 0 272 130q110 130 110 333t-106 331t-270 128q-162 0 -272 -130t-110 -332t106 -331t270 -129zM989 502q0 -228 -128 -374q-127 -146 -321 -146t-317 144t-123 373q0 230 128 374q128 145 321 145
t317 -144t123 -372z" />
    <glyph glyph-name="otilde" unicode="&#xf5;" horiz-adv-x="1089" 
d="M400 1413q60 0 159 -58q100 -58 139 -59q86 0 103 123h39q-6 -70 -42 -120t-98 -50q-62 1 -159 59q-98 58 -138 58q-86 0 -102 -123h-41q6 74 43 122t97 48zM542 39q164 0 272 130q110 130 110 333t-106 331t-270 128q-162 0 -272 -130t-110 -332t106 -331t270 -129z
M989 502q0 -228 -128 -374q-127 -146 -321 -146t-317 144t-123 373q0 230 128 374q128 145 321 145t317 -144t123 -372z" />
    <glyph glyph-name="odieresis" unicode="&#xf6;" horiz-adv-x="1089" 
d="M319 1243v176h64v-176h-64zM711 1243v176h65v-176h-65zM542 39q164 0 272 130q110 130 110 333t-106 331t-270 128q-162 0 -272 -130t-110 -332t106 -331t270 -129zM989 502q0 -228 -128 -374q-127 -146 -321 -146t-317 144t-123 373q0 230 128 374q128 145 321 145
t317 -144t123 -372z" />
    <glyph glyph-name="divide" unicode="&#xf7;" horiz-adv-x="1163" 
d="M547 68v194h69v-194h-69zM121 489v58h921v-58h-921zM547 778v195h69v-195h-69z" />
    <glyph glyph-name="oslash" unicode="&#xf8;" horiz-adv-x="1089" 
d="M549 39q155 0 265 130t110 328t-99 324l-534 -676q102 -106 258 -106zM541 961q-155 0 -265 -130t-110 -329t98 -326l535 676q-102 109 -258 109zM100 498q0 232 128 375q128 145 310 145t300 -115l96 121h53l-121 -152q123 -145 123 -372q0 -226 -128 -372t-310 -146
t-299 112l-94 -119h-54l119 150q-123 141 -123 373z" />
    <glyph glyph-name="ugrave" unicode="&#xf9;" horiz-adv-x="1105" 
d="M530 1163l-249 336h77l224 -336h-52zM862 227q-86 -245 -372 -245q-138 0 -233 96t-95 297v624h65v-616q0 -176 78 -260t218 -84t240 111q99 111 99 323v526h66v-999h-62v227h-4z" />
    <glyph glyph-name="uacute" unicode="&#xfa;" horiz-adv-x="1105" 
d="M524 1163l224 336h77l-250 -336h-51zM862 227q-86 -245 -372 -245q-138 0 -233 96t-95 297v624h65v-616q0 -176 78 -260t218 -84t240 111q99 111 99 323v526h66v-999h-62v227h-4z" />
    <glyph glyph-name="ucircumflex" unicode="&#xfb;" horiz-adv-x="1105" 
d="M258 1163l264 336h62l264 -336h-66l-229 295l-229 -295h-66zM862 227q-86 -245 -372 -245q-138 0 -233 96t-95 297v624h65v-616q0 -176 78 -260t218 -84t240 111q99 111 99 323v526h66v-999h-62v227h-4z" />
    <glyph glyph-name="udieresis" unicode="&#xfc;" horiz-adv-x="1105" 
d="M328 1243v176h63v-176h-63zM719 1243v176h65v-176h-65zM862 227q-86 -245 -372 -245q-138 0 -233 96t-95 297v624h65v-616q0 -176 78 -260t218 -84t240 111q99 111 99 323v526h66v-999h-62v227h-4z" />
    <glyph glyph-name="yacute" unicode="&#xfd;" horiz-adv-x="913" 
d="M428 1163l223 336h78l-250 -336h-51zM68 -406h36q100 0 158 58t103 172l61 166l-393 1009h69l357 -927h2l356 927h64l-463 -1196q-51 -129 -118 -197t-185 -67h-47v55z" />
    <glyph glyph-name="thorn" unicode="&#xfe;" horiz-adv-x="1148" 
d="M983 507q0 206 -105 330q-104 124 -262 124t-262 -120t-110 -321v-20q0 -209 105 -335t264 -126t265 131q105 131 105 337zM625 1018q184 0 305 -140t121 -371q0 -229 -124 -377t-306 -148q-133 0 -233 69q-99 70 -146 195h-2q4 -57 4 -416v-281h-66v1950h66v-313
q0 -354 -4 -432h2q47 124 148 194t235 70z" />
    <glyph glyph-name="ydieresis" unicode="&#xff;" horiz-adv-x="913" 
d="M231 1243v176h64v-176h-64zM623 1243v176h65v-176h-65zM68 -406h36q100 0 158 58t103 172l61 166l-393 1009h69l357 -927h2l356 927h64l-463 -1196q-51 -129 -118 -197t-185 -67h-47v55z" />
    <glyph glyph-name="Amacron" unicode="&#x100;" horiz-adv-x="1243" 
d="M340 1712v51h565v-51h-565zM623 1339h-5l-307 -811h619zM43 0l539 1409h80l540 -1409h-72l-178 469h-663l-178 -469h-68z" />
    <glyph glyph-name="amacron" unicode="&#x101;" horiz-adv-x="1034" 
d="M233 1303v51h566v-51h-566zM428 37q162 0 267 99t106 296v148q-29 -43 -133 -60l-248 -39q-246 -41 -246 -229q0 -98 68 -156t186 -59zM109 248q0 233 299 280l251 41q74 11 108 31t34 62q0 150 -75 226t-208 75q-133 0 -217 -71t-94 -204h-62q7 156 109 243t264 87
t254 -92t92 -264v-662h-61v213h-2q-43 -109 -141 -170t-242 -61q-143 0 -227 72q-82 73 -82 194z" />
    <glyph glyph-name="Abreve" unicode="&#x102;" horiz-adv-x="1243" 
d="M621 1620q-104 0 -178 61q-73 61 -89 193h45q33 -209 221 -209t220 209h47q-16 -130 -89 -192t-177 -62zM623 1339h-5l-307 -811h619zM43 0l539 1409h80l540 -1409h-72l-178 469h-663l-178 -469h-68z" />
    <glyph glyph-name="abreve" unicode="&#x103;" horiz-adv-x="1034" 
d="M514 1210q-104 0 -177 62t-89 192h45q33 -209 221 -209t219 209h47q-16 -130 -89 -192t-177 -62zM428 37q162 0 267 99t106 296v148q-29 -43 -133 -60l-248 -39q-246 -41 -246 -229q0 -98 68 -156t186 -59zM109 248q0 233 299 280l251 41q74 11 108 31t34 62
q0 150 -75 226t-208 75q-133 0 -217 -71t-94 -204h-62q7 156 109 243t264 87t254 -92t92 -264v-662h-61v213h-2q-43 -109 -141 -170t-242 -61q-143 0 -227 72q-82 73 -82 194z" />
    <glyph glyph-name="Aogonek" unicode="&#x104;" horiz-adv-x="1243" 
d="M623 1339h-5l-307 -811h619zM1016 -262q0 123 135 262h-21l-178 469h-663l-178 -469h-68l539 1409h80l540 -1409h-4q-127 -143 -127 -252q0 -127 141 -127h72v-49h-80q-92 0 -140 45t-48 121z" />
    <glyph glyph-name="aogonek" unicode="&#x105;" horiz-adv-x="1034" 
d="M428 37q162 0 267 99t106 296v148q-29 -43 -133 -60l-248 -39q-246 -41 -246 -229q0 -98 68 -156t186 -59zM684 -262q0 123 135 262h-16v213h-2q-43 -109 -141 -170t-242 -61q-143 0 -227 72q-83 73 -82 194q0 233 299 280l251 41q74 11 108 31t34 62q0 150 -75 226
t-208 75q-133 0 -217 -71t-94 -204h-62q7 156 109 243t264 87t254 -92t92 -264v-662h2q-127 -143 -127 -252q0 -127 142 -127h71v-49h-80q-92 0 -140 45t-48 121z" />
    <glyph glyph-name="Cacute" unicode="&#x106;" horiz-adv-x="1435" 
d="M729 1573l223 336h78l-250 -336h-51zM109 705q0 305 180 514t471 208q227 1 378 -117t201 -321h-67q-51 177 -182 277t-330 100q-260 0 -421 -190t-161 -468t160 -472q160 -193 418 -193q395 0 516 377h67q-59 -203 -209 -321t-374 -117q-289 0 -468 209t-179 514z" />
    <glyph glyph-name="cacute" unicode="&#x107;" horiz-adv-x="1028" 
d="M510 1163l223 336h78l-250 -336h-51zM539 -18q-197 0 -318 144t-121 372q0 229 126 374q126 146 296 146t277 -91q106 -91 135 -245h-66q-29 129 -116 204q-88 75 -213 75q-156 -1 -265 -131q-108 -130 -108 -332t105 -330q105 -129 268 -129q125 0 213 75t116 203h66
q-29 -155 -135 -245t-260 -90z" />
    <glyph glyph-name="Ccircumflex" unicode="&#x108;" horiz-adv-x="1435" 
d="M463 1573l264 336h61l265 -336h-66l-229 295l-230 -295h-65zM109 705q0 305 180 514t471 208q227 1 378 -117t201 -321h-67q-51 177 -182 277t-330 100q-260 0 -421 -190t-161 -468t160 -472q160 -193 418 -193q395 0 516 377h67q-59 -203 -209 -321t-374 -117
q-289 0 -468 209t-179 514z" />
    <glyph glyph-name="ccircumflex" unicode="&#x109;" horiz-adv-x="1028" 
d="M244 1163l264 336h61l265 -336h-66l-229 295l-230 -295h-65zM539 -18q-197 0 -318 144t-121 372q0 229 126 374q126 146 296 146t277 -91q106 -91 135 -245h-66q-29 129 -116 204q-88 75 -213 75q-156 -1 -265 -131q-108 -130 -108 -332t105 -330q105 -129 268 -129
q125 0 213 75t116 203h66q-29 -155 -135 -245t-260 -90z" />
    <glyph glyph-name="Cdotaccent" unicode="&#x10a;" horiz-adv-x="1435" 
d="M725 1653v176h66v-176h-66zM109 705q0 305 180 514t471 208q227 1 378 -117t201 -321h-67q-51 177 -182 277t-330 100q-260 0 -421 -190t-161 -468t160 -472q160 -193 418 -193q395 0 516 377h67q-59 -203 -209 -321t-374 -117q-289 0 -468 209t-179 514z" />
    <glyph glyph-name="cdotaccent" unicode="&#x10b;" horiz-adv-x="1028" 
d="M506 1243v176h65v-176h-65zM539 -18q-197 0 -318 144t-121 372q0 229 126 374q126 146 296 146t277 -91q106 -91 135 -245h-66q-29 129 -116 204q-88 75 -213 75q-156 -1 -265 -131q-108 -130 -108 -332t105 -330q105 -129 268 -129q125 0 213 75t116 203h66
q-29 -155 -135 -245t-260 -90z" />
    <glyph glyph-name="Ccaron" unicode="&#x10c;" horiz-adv-x="1435" 
d="M727 1573l-264 336h65l230 -295l229 295h66l-265 -336h-61zM109 705q0 305 180 514t471 208q227 1 378 -117t201 -321h-67q-51 177 -182 277t-330 100q-260 0 -421 -190t-161 -468t160 -472q160 -193 418 -193q395 0 516 377h67q-59 -203 -209 -321t-374 -117
q-289 0 -468 209t-179 514z" />
    <glyph glyph-name="ccaron" unicode="&#x10d;" horiz-adv-x="1028" 
d="M508 1163l-264 336h65l230 -295l229 295h66l-265 -336h-61zM539 -18q-197 0 -318 144t-121 372q0 229 126 374q126 146 296 146t277 -91q106 -91 135 -245h-66q-29 129 -116 204q-88 75 -213 75q-156 -1 -265 -131q-108 -130 -108 -332t105 -330q105 -129 268 -129
q125 0 213 75t116 203h66q-29 -155 -135 -245t-260 -90z" />
    <glyph glyph-name="Dcaron" unicode="&#x10e;" horiz-adv-x="1394" 
d="M600 1573l-264 336h65l230 -295l229 295h66l-264 -336h-62zM545 1350h-281v-1291h281q332 1 503 179t171 467t-171 467t-503 178zM199 0v1409h346q360 0 552 -192q191 -193 191 -512t-191 -512t-552 -193h-346z" />
    <glyph glyph-name="dcaron" unicode="&#x10f;" horiz-adv-x="1148" 
d="M1174 1358v141h69v-141l-69 -232h-35l59 232h-24zM538 961q-160 0 -266 -131t-106 -337t105 -330t263 -124t263 119q104 119 110 319v23q0 209 -105 335t-264 126zM100 492q0 231 124 378t306 148q134 0 232 -72t145 -196h2q-2 41 -2 436v313h64v-1499h-62v250h-2
q-47 -127 -146 -198t-235 -70q-184 0 -305 140t-121 370z" />
    <glyph glyph-name="Dcroat" unicode="&#x110;" horiz-adv-x="1394" 
d="M545 1350h-281v-615h340v-55h-340v-621h281q334 1 504 179t170 467t-170 467t-504 178zM8 680v55h191v674h346q360 0 552 -192q191 -193 191 -512t-191 -512t-552 -193h-346v680h-191z" />
    <glyph glyph-name="dcroat" unicode="&#x111;" horiz-adv-x="1148" 
d="M536 961q-158 0 -264 -131t-106 -337t105 -330t265 -124t266 126q105 126 105 335v20q-6 201 -110 321t-261 120zM547 1253v47h360v199h64v-199h178v-47h-178v-1253h-62v250h-2q-47 -127 -146 -198t-235 -70q-184 0 -305 139t-121 371t124 378q124 147 306 148
q134 0 232 -72t145 -196h2q-2 41 -2 436v67h-360z" />
    <glyph glyph-name="Emacron" unicode="&#x112;" horiz-adv-x="1218" 
d="M375 1712v51h565v-51h-565zM199 0v1409h903v-59h-838v-598h682v-60h-682v-633h854v-59h-919z" />
    <glyph glyph-name="emacron" unicode="&#x113;" horiz-adv-x="1044" 
d="M254 1303v51h565v-51h-565zM536 961q-144 0 -246 -109t-120 -287h707q-5 184 -101 290t-240 106zM100 496q0 232 125 376q125 146 305 146t296 -128t116 -347v-29h-776v-14q0 -207 101 -334t276 -127q131 0 220 73t105 191h64q-18 -143 -127 -232t-262 -89
q-207 0 -325 141t-118 373z" />
    <glyph glyph-name="Ebreve" unicode="&#x114;" horiz-adv-x="1218" 
d="M655 1620q-104 0 -177 61t-89 193h45q33 -209 221 -209t219 209h48q-16 -131 -89 -193q-74 -61 -178 -61zM199 0v1409h903v-59h-838v-598h682v-60h-682v-633h854v-59h-919z" />
    <glyph glyph-name="ebreve" unicode="&#x115;" horiz-adv-x="1044" 
d="M535 1210q-103 0 -177 62t-90 192h45q33 -209 221 -209t220 209h47q-16 -130 -89 -192t-177 -62zM536 961q-144 0 -246 -109t-120 -287h707q-5 184 -101 290t-240 106zM100 496q0 232 125 376q125 146 305 146t296 -128t116 -347v-29h-776v-14q0 -207 101 -334t276 -127
q131 0 220 73t105 191h64q-18 -143 -127 -232t-262 -89q-207 0 -325 141t-118 373z" />
    <glyph glyph-name="Edotaccent" unicode="&#x116;" horiz-adv-x="1218" 
d="M623 1653v176h65v-176h-65zM199 0v1409h903v-59h-838v-598h682v-60h-682v-633h854v-59h-919z" />
    <glyph glyph-name="edotaccent" unicode="&#x117;" horiz-adv-x="1044" 
d="M502 1243v176h65v-176h-65zM536 961q-144 0 -246 -109t-120 -287h707q-5 184 -101 290t-240 106zM100 496q0 232 125 376q125 146 305 146t296 -128t116 -347v-29h-776v-14q0 -207 101 -334t276 -127q131 0 220 73t105 191h64q-18 -143 -127 -232t-262 -89
q-207 0 -325 141t-118 373z" />
    <glyph glyph-name="Eogonek" unicode="&#x118;" horiz-adv-x="1218" 
d="M199 0v1409h903v-59h-838v-598h682v-60h-682v-633h854v-59h4q-127 -143 -127 -252q0 -127 142 -127h71v-49h-80q-92 0 -140 45t-48 121q0 123 135 262h-876z" />
    <glyph glyph-name="eogonek" unicode="&#x119;" horiz-adv-x="1044" 
d="M536 961q-144 0 -246 -109t-120 -287h707q-5 184 -101 290t-240 106zM475 -272q0 117 189 270q-61 -16 -121 -16q-207 0 -325 141t-118 373t125 376q125 146 305 146t296 -128t116 -347v-29h-776v-14q0 -207 101 -334t276 -127q131 0 220 73t105 191h64
q-16 -139 -131 -235q-40 -30 -64 -52t-51 -46t-41 -38l-36 -36q-22 -23 -51 -69q-28 -46 -30 -89q0 -119 144 -119h71v-47h-77q-191 0 -191 156z" />
    <glyph glyph-name="Ecaron" unicode="&#x11a;" horiz-adv-x="1218" 
d="M625 1573l-265 336h66l229 -295l230 295h65l-264 -336h-61zM199 0v1409h903v-59h-838v-598h682v-60h-682v-633h854v-59h-919z" />
    <glyph glyph-name="ecaron" unicode="&#x11b;" horiz-adv-x="1044" 
d="M504 1163l-264 336h65l230 -295l229 295h65l-264 -336h-61zM536 961q-144 0 -246 -109t-120 -287h707q-5 184 -101 290t-240 106zM100 496q0 232 125 376q125 146 305 146t296 -128t116 -347v-29h-776v-14q0 -207 101 -334t276 -127q131 0 220 73t105 191h64
q-18 -143 -127 -232t-262 -89q-207 0 -325 141t-118 373z" />
    <glyph glyph-name="Gcircumflex" unicode="&#x11c;" horiz-adv-x="1527" 
d="M479 1573l264 336h62l264 -336h-65l-230 295l-229 -295h-66zM109 710q0 310 187 514t480 203q231 1 381 -119t193 -307h-70q-37 157 -168 261t-336 104q-266 0 -432 -186t-166 -468t163 -476q163 -193 419 -193q221 0 377 126t155 363v132h-524v59h586v-723h-49l-7 309
q-66 -166 -206 -247t-332 -80q-287 0 -469 210q-182 208 -182 518z" />
    <glyph glyph-name="gcircumflex" unicode="&#x11d;" horiz-adv-x="1148" 
d="M246 1163l264 336h61l265 -336h-66l-229 295l-230 -295h-65zM536 961q-158 0 -264 -131t-106 -337t105 -330t265 -124t266 126q105 126 105 335v20q-6 201 -110 321t-261 120zM125 -123h61q0 -133 94 -211t250 -78q379 0 379 443v219h-2q-47 -127 -146 -198t-235 -70
q-184 0 -305 139t-121 371t124 378q124 147 306 148q134 0 232 -72t145 -196h2v249h62v-968q0 -260 -119 -378q-118 -118 -312 -118t-304 90t-111 252z" />
    <glyph glyph-name="Gbreve" unicode="&#x11e;" horiz-adv-x="1527" 
d="M774 1620q-104 0 -177 61t-89 193h45q33 -209 221 -209t219 209h47q-16 -130 -89 -192t-177 -62zM109 710q0 310 187 514t480 203q231 1 381 -119t193 -307h-70q-37 157 -168 261t-336 104q-266 0 -432 -186t-166 -468t163 -476q163 -193 419 -193q221 0 377 126t155 363
v132h-524v59h586v-723h-49l-7 309q-66 -166 -206 -247t-332 -80q-287 0 -469 210q-182 208 -182 518z" />
    <glyph glyph-name="gbreve" unicode="&#x11f;" horiz-adv-x="1148" 
d="M541 1210q-104 0 -177 62t-90 192h45q33 -209 221 -209t220 209h47q-16 -130 -89 -192t-177 -62zM536 961q-158 0 -264 -131t-106 -337t105 -330t265 -124t266 126q105 126 105 335v20q-6 201 -110 321t-261 120zM125 -123h61q0 -133 94 -211t250 -78q379 0 379 443v219
h-2q-47 -127 -146 -198t-235 -70q-184 0 -305 139t-121 371t124 378q124 147 306 148q134 0 232 -72t145 -196h2v249h62v-968q0 -260 -119 -378q-118 -118 -312 -118t-304 90t-111 252z" />
    <glyph glyph-name="Gdotaccent" unicode="&#x120;" horiz-adv-x="1527" 
d="M741 1653v176h66v-176h-66zM109 710q0 310 187 514t480 203q231 1 381 -119t193 -307h-70q-37 157 -168 261t-336 104q-266 0 -432 -186t-166 -468t163 -476q163 -193 419 -193q221 0 377 126t155 363v132h-524v59h586v-723h-49l-7 309q-66 -166 -206 -247t-332 -80
q-287 0 -469 210q-182 208 -182 518z" />
    <glyph glyph-name="gdotaccent" unicode="&#x121;" horiz-adv-x="1148" 
d="M508 1243v176h65v-176h-65zM536 961q-158 0 -264 -131t-106 -337t105 -330t265 -124t266 126q105 126 105 335v20q-6 201 -110 321t-261 120zM125 -123h61q0 -133 94 -211t250 -78q379 0 379 443v219h-2q-47 -127 -146 -198t-235 -70q-184 0 -305 139t-121 371t124 378
q124 147 306 148q134 0 232 -72t145 -196h2v249h62v-968q0 -260 -119 -378q-118 -118 -312 -118t-304 90t-111 252z" />
    <glyph glyph-name="Gcommaaccent" unicode="&#x122;" horiz-adv-x="1527" 
d="M727 -129h66v-133l-68 -217h-33l58 217h-23v133zM109 710q0 310 187 514t480 203q231 1 381 -119t193 -307h-70q-37 157 -168 261t-336 104q-266 0 -432 -186t-166 -468t163 -476q163 -193 419 -193q221 0 377 126t155 363v132h-524v59h586v-723h-49l-7 309
q-66 -166 -206 -247t-332 -80q-287 0 -469 210q-182 208 -182 518z" />
    <glyph glyph-name="gcommaaccent" unicode="&#x123;" horiz-adv-x="1148" 
d="M506 1163v135l69 215h31l-57 -217h22v-133h-65zM536 961q-158 0 -264 -131t-106 -337t105 -330t265 -124t266 126q105 126 105 335v20q-6 201 -110 321t-261 120zM125 -123h61q0 -133 94 -211t250 -78q379 0 379 443v219h-2q-47 -127 -146 -198t-235 -70q-184 0 -305 139
t-121 371t124 378q124 147 306 148q134 0 232 -72t145 -196h2v249h62v-968q0 -260 -119 -378q-118 -118 -312 -118t-304 90t-111 252z" />
    <glyph glyph-name="Hcircumflex" unicode="&#x124;" horiz-adv-x="1421" 
d="M416 1573l264 336h61l265 -336h-66l-229 295l-230 -295h-65zM199 0v1409h65v-661h893v661h68v-1409h-68v690h-893v-690h-65z" />
    <glyph glyph-name="hcircumflex" unicode="&#x125;" horiz-adv-x="1120" 
d="M-84 1645l264 335h62l264 -335h-66l-229 294l-229 -294h-66zM178 0v1499h66v-311q0 -338 -4 -416h4q84 244 376 246q142 0 237 -96t95 -297v-625h-65v616q0 176 -79 260q-80 84 -222 85q-142 0 -242 -111t-100 -322v-528h-66z" />
    <glyph glyph-name="Hbar" unicode="&#x126;" horiz-adv-x="1421" 
d="M264 1065v-315h893v315h-893zM6 1065v53h193v291h65v-291h893v291h68v-291h190v-53h-190v-1065h-68v692h-893v-692h-65v1065h-193z" />
    <glyph glyph-name="hbar" unicode="&#x127;" horiz-adv-x="1120" 
d="M0 1253v47h178v199h66v-199h358v-47h-358v-65q0 -338 -4 -416h4q84 244 376 246q142 0 237 -96t95 -297v-625h-65v616q0 176 -79 260q-80 84 -222 85q-142 0 -242 -111t-100 -324v-526h-66v1253h-178z" />
    <glyph glyph-name="Itilde" unicode="&#x128;" horiz-adv-x="462" 
d="M86 1823q60 -1 160 -59t139 -58q86 0 102 123h39q-6 -70 -42 -120t-97 -50t-159 58t-138 59q-86 0 -102 -123h-41q6 74 43 122t96 48zM199 0v1409h65v-1409h-65z" />
    <glyph glyph-name="itilde" unicode="&#x129;" horiz-adv-x="421" 
d="M66 1413q60 0 159 -58q100 -58 140 -59q86 0 102 123h39q-6 -70 -42 -120t-98 -50q-62 1 -159 59q-98 58 -137 58q-86 0 -103 -123h-41q6 74 43 122t97 48zM178 0v999h66v-999h-66z" />
    <glyph glyph-name="Imacron" unicode="&#x12a;" horiz-adv-x="462" 
d="M-49 1712v51h565v-51h-565zM199 0v1409h65v-1409h-65z" />
    <glyph glyph-name="imacron" unicode="&#x12b;" horiz-adv-x="421" 
d="M-70 1303v51h566v-51h-566zM178 0v999h66v-999h-66z" />
    <glyph glyph-name="Ibreve" unicode="&#x12c;" horiz-adv-x="462" 
d="M231 1620q-104 0 -177 61t-89 193h45q33 -209 221 -209t220 209h47q-16 -131 -89 -193q-74 -61 -178 -61zM199 0v1409h65v-1409h-65z" />
    <glyph glyph-name="ibreve" unicode="&#x12d;" horiz-adv-x="421" 
d="M211 1210q-104 0 -177 62t-89 192h45q33 -209 221 -209t219 209h47q-16 -130 -89 -192t-177 -62zM178 0v999h66v-999h-66z" />
    <glyph glyph-name="Iogonek" unicode="&#x12e;" horiz-adv-x="462" 
d="M199 0v1409h65v-1409q-127 -143 -127 -252q0 -127 142 -127h71v-49h-80q-92 0 -140 45t-48 121q0 123 135 262h-18z" />
    <glyph glyph-name="iogonek" unicode="&#x12f;" horiz-adv-x="421" 
d="M176 1317v182h70v-182h-70zM178 0v999h66v-999q-127 -143 -127 -252q0 -127 141 -127h72v-49h-80q-92 0 -140 45t-49 121q0 123 136 262h-19z" />
    <glyph glyph-name="Idotaccent" unicode="&#x130;" horiz-adv-x="462" 
d="M199 1653v176h65v-176h-65zM199 0v1409h65v-1409h-65z" />
    <glyph glyph-name="dotlessi" unicode="&#x131;" horiz-adv-x="421" 
d="M178 0v999h66v-999h-66z" />
    <glyph glyph-name="IJ" unicode="&#x132;" horiz-adv-x="1519" 
d="M592 383v84h65v-80q0 -178 85 -262q86 -84 226 -84t226 86t86 260v1022h66v-1026q0 -201 -104 -301t-274 -100q-171 0 -274 98q-102 98 -102 303zM199 0v1409h65v-1409h-65z" />
    <glyph glyph-name="ij" unicode="&#x133;" horiz-adv-x="845" 
d="M600 -217v1216h66v-1226q0 -223 -215 -224h-54v58h49q78 0 116 40t38 136zM600 1317v182h70v-182h-70zM178 0v999h66v-999h-66zM176 1317v182h70v-182h-70z" />
    <glyph glyph-name="Jcircumflex" unicode="&#x134;" horiz-adv-x="1054" 
d="M553 1573l264 336h62l264 -336h-66l-229 295l-230 -295h-65zM127 383v84h66v-78q-1 -178 83 -263t224 -85t227 87q86 87 86 261v1020h68v-1026q1 -201 -103 -301t-275 -100t-274 98q-102 98 -102 303z" />
    <glyph glyph-name="jcircumflex" unicode="&#x135;" horiz-adv-x="421" 
d="M-84 1163l264 336h62l264 -336h-66l-229 295l-229 -295h-66zM178 -217v1216h66v-1226q0 -223 -215 -224h-56v58h50q79 0 117 40t38 136z" />
    <glyph glyph-name="Kcommaaccent" unicode="&#x136;" horiz-adv-x="1300" 
d="M631 -129h65v-133l-67 -217h-33l57 217h-22v133zM199 0v1409h65v-938l856 938h82l-559 -608l594 -801h-76l-563 752l-334 -363v-389h-65z" />
    <glyph glyph-name="kcommaaccent" unicode="&#x137;" horiz-adv-x="985" 
d="M492 -129h65v-133l-68 -217h-32l57 217h-22v133zM178 0v1499h66v-1149l585 649h78l-375 -413l422 -586h-77l-390 539l-243 -271v-268h-66z" />
    <glyph glyph-name="Lacute" unicode="&#x139;" horiz-adv-x="1099" 
d="M203 1573l223 336h78l-250 -336h-51zM199 0v1409h65v-1350h774v-59h-839z" />
    <glyph glyph-name="lacute" unicode="&#x13a;" horiz-adv-x="421" 
d="M182 1663l224 336h77l-250 -336h-51zM178 0v1499h66v-1499h-66z" />
    <glyph glyph-name="Lcommaaccent" unicode="&#x13b;" horiz-adv-x="1099" 
d="M567 -129h66v-133l-68 -217h-33l58 217h-23v133zM199 0v1409h65v-1350h774v-59h-839z" />
    <glyph glyph-name="lcommaaccent" unicode="&#x13c;" horiz-adv-x="421" 
d="M178 -129h66v-133l-68 -217h-33l58 217h-23v133zM178 0v1499h66v-1499h-66z" />
    <glyph glyph-name="Lcaron" unicode="&#x13d;" horiz-adv-x="1099" 
d="M698 1268v141h70v-141l-70 -232h-32l57 232h-25zM199 0v1409h65v-1350h774v-59h-839z" />
    <glyph glyph-name="lcaron" unicode="&#x13e;" horiz-adv-x="421" 
d="M178 0v1499h66v-1499h-66zM444 1358v141h72v-141l-72 -232h-32l57 232h-25z" />
    <glyph glyph-name="Ldot" unicode="&#x13f;" horiz-adv-x="1099" 
d="M604 623v182h72v-182h-72zM199 0v1409h65v-1350h774v-59h-839z" />
    <glyph glyph-name="ldot" unicode="&#x140;" horiz-adv-x="483" 
d="M420 612v183h69v-183h-69zM178 0v1499h66v-1499h-66z" />
    <glyph glyph-name="Lslash" unicode="&#x141;" horiz-adv-x="1099" 
d="M199 1409h65v-725l377 268l31 -45l-408 -291v-557h774v-59h-839v569l-193 -137l-33 45l226 160v772z" />
    <glyph glyph-name="lslash" unicode="&#x142;" horiz-adv-x="421" 
d="M178 1499h66v-670l155 166l33 -37l-188 -200v-758h-66v688l-153 -162l-31 39l184 195v739z" />
    <glyph glyph-name="Nacute" unicode="&#x143;" horiz-adv-x="1431" 
d="M686 1573l223 336h78l-250 -336h-51zM199 0v1409h63l903 -1294h4l-2 1294h68v-1409h-66l-903 1292h-4l2 -1292h-65z" />
    <glyph glyph-name="nacute" unicode="&#x144;" horiz-adv-x="1120" 
d="M528 1163l224 336h77l-249 -336h-52zM178 0v999h62v-227h4q84 244 376 246q142 0 237 -96t95 -297v-625h-65v616q0 176 -79 260q-80 84 -222 85q-142 0 -242 -111t-100 -324v-526h-66z" />
    <glyph glyph-name="Ncommaaccent" unicode="&#x145;" horiz-adv-x="1431" 
d="M682 -129h66v-133l-68 -217h-33l58 217h-23v133zM199 0v1409h63l903 -1294h4l-2 1294h68v-1409h-66l-903 1292h-4l2 -1292h-65z" />
    <glyph glyph-name="ncommaaccent" unicode="&#x146;" horiz-adv-x="1120" 
d="M526 -129h66v-133l-68 -217h-32l57 217h-23v133zM178 0v999h62v-227h4q84 244 376 246q142 0 237 -96t95 -297v-625h-65v616q0 176 -79 260q-80 84 -222 85q-142 0 -242 -111t-100 -324v-526h-66z" />
    <glyph glyph-name="Ncaron" unicode="&#x147;" horiz-adv-x="1431" 
d="M684 1573l-264 336h65l230 -295l229 295h66l-265 -336h-61zM199 0v1409h63l903 -1294h4l-2 1294h68v-1409h-66l-903 1292h-4l2 -1292h-65z" />
    <glyph glyph-name="ncaron" unicode="&#x148;" horiz-adv-x="1120" 
d="M526 1163l-264 336h66l229 -295l229 295h66l-264 -336h-62zM178 0v999h62v-227h4q84 244 376 246q142 0 237 -96t95 -297v-625h-65v616q0 176 -79 260q-80 84 -222 85q-142 0 -242 -111t-100 -324v-526h-66z" />
    <glyph glyph-name="napostrophe" unicode="&#x149;" horiz-adv-x="1120" 
d="M160 1380v133h63v-133l-67 -217h-33l59 217h-22zM178 0v999h62v-227h4q84 244 376 246q142 0 237 -96t95 -297v-625h-65v616q0 176 -79 260q-80 84 -222 85q-142 0 -242 -111t-100 -324v-526h-66z" />
    <glyph glyph-name="Eng" unicode="&#x14a;" horiz-adv-x="1431" 
d="M199 0v1409h63l903 -1290h2v1290h68v-1561q0 -158 -68 -228t-198 -71h-99v62h99q199 0 198 242v149l-901 1292h-4l2 -1294h-65z" />
    <glyph glyph-name="eng" unicode="&#x14b;" horiz-adv-x="1120" 
d="M887 -217v833q0 176 -79 260q-80 84 -222 85q-142 0 -242 -111t-100 -322v-528h-66v999h62v-221h4q86 238 378 240q140 0 235 -96t95 -297v-852q0 -223 -215 -224h-55v58h49q78 0 117 40t39 136z" />
    <glyph glyph-name="Omacron" unicode="&#x14c;" horiz-adv-x="1521" 
d="M479 1712v51h565v-51h-565zM178 705q0 -285 163 -473t418 -189q255 0 421 188q166 187 166 473t-166 474t-421 188t-418 -188t-163 -473zM1415 706q0 -310 -185 -518t-471 -206q-286 0 -468 206t-182 518t182 517t468 205t471 -206t185 -516z" />
    <glyph glyph-name="omacron" unicode="&#x14d;" horiz-adv-x="1089" 
d="M264 1303v51h565v-51h-565zM542 39q164 0 272 130q110 130 110 333t-106 331t-270 128q-162 0 -272 -130t-110 -332t106 -331t270 -129zM989 502q0 -228 -128 -374q-127 -146 -321 -146t-317 144t-123 373q0 230 128 374q128 145 321 145t317 -144t123 -372z" />
    <glyph glyph-name="Obreve" unicode="&#x14e;" horiz-adv-x="1521" 
d="M760 1620q-104 0 -177 61t-89 193h45q33 -209 221 -209t219 209h47q-16 -130 -89 -192t-177 -62zM178 705q0 -285 163 -473t418 -189q255 0 421 188q166 187 166 473t-166 474t-421 188t-418 -188t-163 -473zM1415 706q0 -310 -185 -518t-471 -206q-286 0 -468 206
t-182 518t182 517t468 205t471 -206t185 -516z" />
    <glyph glyph-name="obreve" unicode="&#x14f;" horiz-adv-x="1089" 
d="M545 1210q-104 0 -177 62t-89 192h45q33 -209 221 -209t219 209h47q-16 -130 -89 -192t-177 -62zM542 39q164 0 272 130q110 130 110 333t-106 331t-270 128q-162 0 -272 -130t-110 -332t106 -331t270 -129zM989 502q0 -228 -128 -374q-127 -146 -321 -146t-317 144
t-123 373q0 230 128 374q128 145 321 145t317 -144t123 -372z" />
    <glyph glyph-name="Ohungarumlaut" unicode="&#x150;" horiz-adv-x="1521" 
d="M557 1573l223 336h76l-250 -336h-49zM907 1573l223 336h78l-250 -336h-51zM178 705q0 -285 163 -473t418 -189q255 0 421 188q166 187 166 473t-166 474t-421 188t-418 -188t-163 -473zM1415 706q0 -310 -185 -518t-471 -206q-286 0 -468 206t-182 518t182 517t468 205
t471 -206t185 -516z" />
    <glyph glyph-name="ohungarumlaut" unicode="&#x151;" horiz-adv-x="1089" 
d="M342 1163l223 336h76l-250 -336h-49zM692 1163l223 336h78l-250 -336h-51zM542 39q164 0 272 130q110 130 110 333t-106 331t-270 128q-162 0 -272 -130t-110 -332t106 -331t270 -129zM989 502q0 -228 -128 -374q-127 -146 -321 -146t-317 144t-123 373q0 230 128 374
q128 145 321 145t317 -144t123 -372z" />
    <glyph glyph-name="OE" unicode="&#x152;" horiz-adv-x="2123" 
d="M178 705q0 -289 170 -467t502 -179h254v1291h-254q-332 0 -502 -178t-170 -467zM2009 1350h-838v-598h682v-60h-682v-633h854v-59h-1175q-360 0 -551 193q-190 193 -190 512t190 512t551 192h1159v-59z" />
    <glyph glyph-name="oe" unicode="&#x153;" horiz-adv-x="1865" 
d="M1355 961q-143 0 -245 -110t-119 -286h707q-6 186 -102 291t-241 105zM542 39q164 0 272 130q110 130 110 333t-106 331t-270 128q-162 0 -272 -130t-110 -332t106 -331t270 -129zM545 -18q-199 0 -322 144t-123 373q0 230 128 374t317 145q145 0 254 -85t155 -231
q47 144 155 230t245 86q178 0 294 -128t115 -347v-29h-776v-14q-1 -207 101 -334t274 -127q131 0 221 73t107 191h63q-18 -143 -128 -232q-111 -89 -265 -89t-259 83t-149 230q-48 -143 -158 -228t-249 -85z" />
    <glyph glyph-name="Racute" unicode="&#x154;" horiz-adv-x="1296" 
d="M598 1573l223 336h78l-250 -336h-51zM721 1350h-457v-668h457q176 0 273 95t98 249q0 154 -96 239t-275 85zM199 0v1409h520q213 0 327 -100q114 -101 114 -277t-101 -282q-100 -106 -283 -123l408 -627h-74l-408 625h-438v-625h-65z" />
    <glyph glyph-name="racute" unicode="&#x155;" horiz-adv-x="679" 
d="M393 1163l223 336h78l-250 -336h-51zM178 0v999h62v-200h4q35 98 109 158q75 61 165 61t150 -39l-23 -57q-61 35 -127 34q-123 0 -199 -114t-75 -275v-567h-66z" />
    <glyph glyph-name="Rcommaaccent" unicode="&#x156;" horiz-adv-x="1296" 
d="M606 -129h66v-133l-68 -217h-33l58 217h-23v133zM721 1350h-457v-668h457q176 0 273 95t98 249q0 154 -96 239t-275 85zM199 0v1409h520q213 0 327 -100q114 -101 114 -277t-101 -282q-100 -106 -283 -123l408 -627h-74l-408 625h-438v-625h-65z" />
    <glyph glyph-name="rcommaaccent" unicode="&#x157;" horiz-adv-x="679" 
d="M178 -129h66v-133l-68 -217h-33l58 217h-23v133zM178 0v999h62v-200h4q35 98 109 158q75 61 165 61t150 -39l-23 -57q-61 35 -127 34q-123 0 -199 -114t-75 -275v-567h-66z" />
    <glyph glyph-name="Rcaron" unicode="&#x158;" horiz-adv-x="1296" 
d="M596 1573l-264 336h65l230 -295l229 295h66l-265 -336h-61zM721 1350h-457v-668h457q176 0 273 95t98 249q0 154 -96 239t-275 85zM199 0v1409h520q213 0 327 -100q114 -101 114 -277t-101 -282q-100 -106 -283 -123l408 -627h-74l-408 625h-438v-625h-65z" />
    <glyph glyph-name="rcaron" unicode="&#x159;" horiz-adv-x="679" 
d="M391 1163l-264 336h66l229 -295l229 295h66l-264 -336h-62zM178 0v999h62v-200h4q35 98 109 158q75 61 165 61t150 -39l-23 -57q-61 35 -127 34q-123 0 -199 -114t-75 -275v-567h-66z" />
    <glyph glyph-name="Sacute" unicode="&#x15a;" horiz-adv-x="1269" 
d="M598 1573l223 336h78l-250 -336h-51zM133 379h66q-1 -168 117 -254t320 -86t314 91t113 245q0 102 -50 167q-50 64 -131 94q-80 30 -178 47t-195 35t-178 52q-81 32 -131 104t-50 183q0 160 132 265t346 105t344 -95t130 -271h-68q0 149 -112 229t-292 80
q-181 0 -296 -86t-115 -221q0 -97 50 -159t131 -89q80 -27 178 -44t195 -37t178 -54q81 -35 131 -111t51 -190q1 -180 -131 -289q-132 -108 -366 -108t-369 101q-134 101 -134 296z" />
    <glyph glyph-name="sacute" unicode="&#x15b;" horiz-adv-x="944" 
d="M436 1163l223 336h78l-250 -336h-51zM84 276h61q-1 -123 91 -182t229 -59t225 60q88 59 88 161t-52 147t-167 64l-188 33q-123 22 -194 74t-71 173t100 196t256 75q155 0 258 -71t103 -208h-61q0 111 -86 168t-213 57t-210 -56q-83 -58 -83 -153t56 -139t161 -59l188 -33
q137 -25 202 -80t65 -183t-108 -204q-108 -75 -274 -75t-271 74q-105 75 -105 220z" />
    <glyph glyph-name="Scircumflex" unicode="&#x15c;" horiz-adv-x="1269" 
d="M332 1573l264 336h61l265 -336h-66l-229 295l-230 -295h-65zM133 379h66q-1 -168 117 -254t320 -86t314 91t113 245q0 102 -50 167q-50 64 -131 94q-80 30 -178 47t-195 35t-178 52q-81 32 -131 104t-50 183q0 160 132 265t346 105t344 -95t130 -271h-68q0 149 -112 229
t-292 80q-181 0 -296 -86t-115 -221q0 -97 50 -159t131 -89q80 -27 178 -44t195 -37t178 -54q81 -35 131 -111t51 -190q1 -180 -131 -289q-132 -108 -366 -108t-369 101q-134 101 -134 296z" />
    <glyph glyph-name="scircumflex" unicode="&#x15d;" horiz-adv-x="944" 
d="M170 1163l264 336h62l264 -336h-66l-229 295l-229 -295h-66zM84 276h61q-1 -123 91 -182t229 -59t225 60q88 59 88 161t-52 147t-167 64l-188 33q-123 22 -194 74t-71 173t100 196t256 75q155 0 258 -71t103 -208h-61q0 111 -86 168t-213 57t-210 -56q-83 -58 -83 -153
t56 -139t161 -59l188 -33q137 -25 202 -80t65 -183t-108 -204q-108 -75 -274 -75t-271 74q-105 75 -105 220z" />
    <glyph glyph-name="Scedilla" unicode="&#x15e;" horiz-adv-x="1269" 
d="M133 379h66q-1 -168 117 -254t320 -86t314 91t113 245q0 102 -50 167q-50 64 -131 94q-80 30 -178 47t-195 35t-178 52q-81 32 -131 104t-50 183q0 160 132 265t346 105t344 -95t130 -271h-68q0 149 -112 229t-292 80q-181 0 -296 -86t-115 -221q0 -97 50 -159t131 -89
q80 -27 178 -44t195 -37t178 -54q81 -35 131 -111t51 -190q-1 -180 -131 -288t-359 -109l-27 -78q90 -2 138 -48t49 -115q0 -69 -48 -119t-149 -50h-98v45h94q76 0 111 36t35 89t-38 87t-112 34h-39l49 119q-223 6 -349 107t-126 290z" />
    <glyph glyph-name="scedilla" unicode="&#x15f;" horiz-adv-x="944" 
d="M84 276h61q-1 -123 91 -182t229 -59t225 60q88 59 88 161t-52 147t-167 64l-188 33q-123 22 -194 74t-71 173t100 196t256 75q155 0 258 -71t103 -208h-61q0 111 -86 168t-213 57t-210 -56q-83 -58 -83 -153t56 -139t161 -59l188 -33q137 -25 202 -80t65 -182t-104 -202
t-265 -78l-27 -78q90 -2 138 -48t49 -115q0 -69 -48 -119t-149 -50h-98v45h94q76 0 111 36t35 89t-38 87t-112 34h-39l49 119q-158 6 -256 80t-98 214z" />
    <glyph glyph-name="Scaron" unicode="&#x160;" horiz-adv-x="1269" 
d="M596 1573l-264 336h65l230 -295l229 295h66l-265 -336h-61zM133 379h66q-1 -168 117 -254t320 -86t314 91t113 245q0 102 -50 167q-50 64 -131 94q-80 30 -178 47t-195 35t-178 52q-81 32 -131 104t-50 183q0 160 132 265t346 105t344 -95t130 -271h-68q0 149 -112 229
t-292 80q-181 0 -296 -86t-115 -221q0 -97 50 -159t131 -89q80 -27 178 -44t195 -37t178 -54q81 -35 131 -111t51 -190q1 -180 -131 -289q-132 -108 -366 -108t-369 101q-134 101 -134 296z" />
    <glyph glyph-name="scaron" unicode="&#x161;" horiz-adv-x="944" 
d="M434 1163l-264 336h66l229 -295l229 295h66l-264 -336h-62zM84 276h61q-1 -123 91 -182t229 -59t225 60q88 59 88 161t-52 147t-167 64l-188 33q-123 22 -194 74t-71 173t100 196t256 75q155 0 258 -71t103 -208h-61q0 111 -86 168t-213 57t-210 -56q-83 -58 -83 -153
t56 -139t161 -59l188 -33q137 -25 202 -80t65 -183t-108 -204q-108 -75 -274 -75t-271 74q-105 75 -105 220z" />
    <glyph glyph-name="Tcommaaccent" unicode="&#x162;" horiz-adv-x="1153" 
d="M543 0v1352h-527v57h1121v-57h-527v-1352h-16l-33 -96q90 -2 138 -48q49 -46 49 -115t-48 -119t-149 -50h-98v45h94q77 0 111 36t34 89t-38 87t-111 34h-39l57 137h-18z" />
    <glyph glyph-name="tcommaaccent" unicode="&#x163;" horiz-adv-x="610" 
d="M203 272v674h-211v53h211v304h65v-304h293v-53h-293v-672q0 -119 47 -168t150 -49h96v-57h-104q-45 0 -82 6l-29 -102q90 -2 138 -48t48 -115t-48 -119t-148 -50h-98v45h94q78 0 112 36t33 89q0 53 -38 87t-111 34h-39l55 151q-141 47 -141 258z" />
    <glyph glyph-name="Tcaron" unicode="&#x164;" horiz-adv-x="1153" 
d="M545 1573l-264 336h65l229 -295l230 295h65l-264 -336h-61zM16 1352v57h1121v-57h-527v-1352h-67v1352h-527z" />
    <glyph glyph-name="tcaron" unicode="&#x165;" horiz-adv-x="610" 
d="M428 1374v144h70v-144l-72 -231h-33l58 231h-23zM203 272v674h-223v53h223v304h65v-304h293v-53h-293v-672q0 -119 47 -168t150 -49h96v-57h-104q-129 0 -191 64t-63 208z" />
    <glyph glyph-name="Tbar" unicode="&#x166;" horiz-adv-x="1153" 
d="M16 1352v57h1121v-57h-527v-623h387v-53h-387v-676h-67v676h-389v53h389v623h-527z" />
    <glyph glyph-name="tbar" unicode="&#x167;" horiz-adv-x="610" 
d="M-20 506v47h223v393h-223v53h223v304h65v-304h293v-53h-293v-393h293v-47h-293v-232q0 -119 47 -168t150 -49h96v-57h-104q-129 0 -192 65q-62 65 -62 207v234h-223z" />
    <glyph glyph-name="Utilde" unicode="&#x168;" horiz-adv-x="1378" 
d="M542 1823q60 -1 160 -59t140 -58q86 0 102 123h39q-6 -70 -42 -120t-97 -50q-62 0 -160 58t-137 59q-86 0 -103 -123h-41q6 74 43 122q36 48 96 48zM170 551v858h68v-858q0 -250 120 -379t331 -129q212 0 332 129t120 379v858h67v-858q0 -285 -139 -427t-379 -142
t-380 142t-140 427z" />
    <glyph glyph-name="utilde" unicode="&#x169;" horiz-adv-x="1105" 
d="M408 1413q60 0 159 -58q100 -58 140 -59q86 0 102 123h39q-6 -70 -42 -120t-98 -50q-62 1 -159 59q-98 58 -137 58q-86 0 -103 -123h-41q6 74 43 122t97 48zM862 227q-86 -245 -372 -245q-138 0 -233 96t-95 297v624h65v-616q0 -176 78 -260t218 -84t240 111
q99 111 99 323v526h66v-999h-62v227h-4z" />
    <glyph glyph-name="Umacron" unicode="&#x16a;" horiz-adv-x="1378" 
d="M408 1712v51h565v-51h-565zM170 551v858h68v-858q0 -250 120 -379t331 -129q212 0 332 129t120 379v858h67v-858q0 -285 -139 -427t-379 -142t-380 142t-140 427z" />
    <glyph glyph-name="umacron" unicode="&#x16b;" horiz-adv-x="1105" 
d="M272 1303v51h566v-51h-566zM862 227q-86 -245 -372 -245q-138 0 -233 96t-95 297v624h65v-616q0 -176 78 -260t218 -84t240 111q99 111 99 323v526h66v-999h-62v227h-4z" />
    <glyph glyph-name="Ubreve" unicode="&#x16c;" horiz-adv-x="1378" 
d="M688 1620q-104 0 -177 61t-89 193h45q33 -209 221 -209t219 209h47q-16 -130 -89 -192t-177 -62zM170 551v858h68v-858q0 -250 120 -379t331 -129q212 0 332 129t120 379v858h67v-858q0 -285 -139 -427t-379 -142t-380 142t-140 427z" />
    <glyph glyph-name="ubreve" unicode="&#x16d;" horiz-adv-x="1105" 
d="M553 1210q-104 0 -177 62t-89 192h45q33 -209 221 -209t219 209h47q-16 -130 -89 -192t-177 -62zM862 227q-86 -245 -372 -245q-138 0 -233 96t-95 297v624h65v-616q0 -176 78 -260t218 -84t240 111q99 111 99 323v526h66v-999h-62v227h-4z" />
    <glyph glyph-name="Uring" unicode="&#x16e;" horiz-adv-x="1378" 
d="M688 1622q55 0 97 39t42 100t-42 101t-97 39q-55 0 -97 -39q-42 -38 -42 -100t42 -101t97 -39zM688 1583q-72 0 -127 50t-55 129t55 128t127 49t127 -49t55 -128t-55 -129t-127 -50zM170 551v858h68v-858q0 -250 120 -379t331 -129q212 0 332 129t120 379v858h67v-858
q0 -285 -139 -427t-379 -142t-380 142t-140 427z" />
    <glyph glyph-name="uring" unicode="&#x16f;" horiz-adv-x="1105" 
d="M553 1212q55 0 97 39t42 101t-42 100q-42 39 -97 39t-97 -39t-42 -100q0 -60 42 -100t97 -40zM553 1174q-72 0 -127 50t-55 129t55 128t127 49t127 -49t55 -128t-55 -129t-127 -50zM862 227q-86 -245 -372 -245q-138 0 -233 96t-95 297v624h65v-616q0 -176 78 -260
t218 -84t240 111q99 111 99 323v526h66v-999h-62v227h-4z" />
    <glyph glyph-name="Uhungarumlaut" unicode="&#x170;" horiz-adv-x="1378" 
d="M485 1573l224 336h75l-249 -336h-50zM836 1573l223 336h78l-250 -336h-51zM170 551v858h68v-858q0 -250 120 -379t331 -129q212 0 332 129t120 379v858h67v-858q0 -285 -139 -427t-379 -142t-380 142t-140 427z" />
    <glyph glyph-name="uhungarumlaut" unicode="&#x171;" horiz-adv-x="1105" 
d="M350 1163l223 336h76l-250 -336h-49zM700 1163l224 336h77l-249 -336h-52zM862 227q-86 -245 -372 -245q-138 0 -233 96t-95 297v624h65v-616q0 -176 78 -260t218 -84t240 111q99 111 99 323v526h66v-999h-62v227h-4z" />
    <glyph glyph-name="Uogonek" unicode="&#x172;" horiz-adv-x="1378" 
d="M676 -266q0 121 201 274q-94 -27 -187 -26q-240 0 -380 144t-140 425v858h68v-858q0 -250 120 -379t331 -129q212 0 332 129t120 379v858h67v-858q0 -330 -202 -479q-274 -203 -275 -330q0 -123 143 -123h72v-47h-78q-192 0 -192 162z" />
    <glyph glyph-name="uogonek" unicode="&#x173;" horiz-adv-x="1105" 
d="M862 227q-86 -245 -372 -245q-138 0 -233 96t-95 297v624h65v-616q0 -176 78 -260t218 -84t240 111q99 111 99 323v526h66v-999q-127 -143 -127 -252q0 -127 141 -127h72v-49h-80q-92 0 -140 45t-49 121q0 123 136 262h-15v227h-4z" />
    <glyph glyph-name="Wcircumflex" unicode="&#x174;" horiz-adv-x="1812" 
d="M612 1573l265 336h61l264 -336h-65l-230 295l-229 -295h-66zM418 0l-387 1409h69l359 -1335h4l407 1335h78l408 -1335h2l356 1335h70l-385 -1409h-86l-402 1323h-4l-403 -1323h-86z" />
    <glyph glyph-name="wcircumflex" unicode="&#x175;" horiz-adv-x="1406" 
d="M412 1163l264 336h61l264 -336h-65l-229 295l-230 -295h-65zM344 0l-311 999h65l283 -929h4l285 929h73l283 -929h4l283 929h63l-311 -999h-78l-280 932h-2l-283 -932h-78z" />
    <glyph glyph-name="Ycircumflex" unicode="&#x176;" horiz-adv-x="1165" 
d="M289 1573l264 336h61l265 -336h-66l-229 295l-230 -295h-65zM547 0v575l-516 834h75l474 -762h4l479 762h72l-521 -827v-582h-67z" />
    <glyph glyph-name="ycircumflex" unicode="&#x177;" horiz-adv-x="913" 
d="M162 1163l264 336h61l265 -336h-66l-229 295l-230 -295h-65zM68 -406h36q100 0 158 58t103 172l61 166l-393 1009h69l357 -927h2l356 927h64l-463 -1196q-51 -129 -118 -197t-185 -67h-47v55z" />
    <glyph glyph-name="Ydieresis" unicode="&#x178;" horiz-adv-x="1165" 
d="M358 1653v176h64v-176h-64zM750 1653v176h65v-176h-65zM547 0v575l-516 834h75l474 -762h4l479 762h72l-521 -827v-582h-67z" />
    <glyph glyph-name="Zacute" unicode="&#x179;" horiz-adv-x="1144" 
d="M545 1573l223 336h78l-250 -336h-51zM121 1352v57h944v-41l-901 -1311h893v-57h-977v41l901 1311h-860z" />
    <glyph glyph-name="zacute" unicode="&#x17a;" horiz-adv-x="845" 
d="M389 1163l223 336h78l-250 -336h-51zM59 946v53h719v-43l-628 -903h636v-53h-718v37l630 909h-639z" />
    <glyph glyph-name="Zdotaccent" unicode="&#x17b;" horiz-adv-x="1144" 
d="M541 1653v176h65v-176h-65zM121 1352v57h944v-41l-901 -1311h893v-57h-977v41l901 1311h-860z" />
    <glyph glyph-name="zdotaccent" unicode="&#x17c;" horiz-adv-x="845" 
d="M385 1243v176h66v-176h-66zM59 946v53h719v-43l-628 -903h636v-53h-718v37l630 909h-639z" />
    <glyph glyph-name="Zcaron" unicode="&#x17d;" horiz-adv-x="1144" 
d="M543 1573l-264 336h65l229 -295l230 295h65l-264 -336h-61zM121 1352v57h944v-41l-901 -1311h893v-57h-977v41l901 1311h-860z" />
    <glyph glyph-name="zcaron" unicode="&#x17e;" horiz-adv-x="845" 
d="M387 1163l-264 336h65l230 -295l229 295h66l-264 -336h-62zM59 946v53h719v-43l-628 -903h636v-53h-718v37l630 909h-639z" />
    <glyph glyph-name="longs" unicode="&#x17f;" horiz-adv-x="516" 
d="M219 0v946h-217v53h217v199q0 301 285 301h82v-57h-76q-115 0 -170 -58t-55 -188v-1196h-66z" />
    <glyph glyph-name="florin" unicode="&#x192;" horiz-adv-x="1163" 
d="M244 674v49h272l39 375q35 330 283 329q254 0 223 -319l-6 -68h-60l6 68q14 141 -27 203q-42 61 -138 61q-188 0 -215 -274l-39 -375h321v-49h-325l-76 -737q-35 -330 -283 -330q-254 0 -223 319l6 68h61l-6 -68q-14 -141 27 -202t137 -62q188 0 215 275l76 737h-268z
" />
    <glyph glyph-name="AEacute" unicode="&#x1fc;" horiz-adv-x="2105" 
d="M1092 1573l223 336h78l-250 -336h-51zM1085 412v919l-682 -919h682zM1987 1409v-59h-834v-598h678v-60h-678v-633h850v-59h-918v352h-725l-260 -352h-82l1045 1409h924z" />
    <glyph glyph-name="aeacute" unicode="&#x1fd;" horiz-adv-x="1728" 
d="M805 1163l223 336h78l-250 -336h-51zM1224 961q-140 0 -240 -110t-116 -286h688q-2 182 -97 289t-235 107zM174 252q0 -98 68 -156t204 -59t242 99t113 288v156q-29 -43 -133 -60l-248 -39q-246 -41 -246 -229zM506 1018q144 0 234 -65q89 -65 114 -187q54 120 152 186
t219 66q171 0 285 -128t114 -347v-29h-758v-14q0 -209 100 -335t267 -126q127 0 215 73t102 191h64q-18 -141 -126 -231t-256 -90t-252 80q-103 80 -149 225q-41 -150 -151 -228q-110 -77 -259 -77q-148 0 -231 72q-82 73 -81 194q0 233 299 280l251 41q72 13 107 33t35 64
q0 145 -75 221t-208 76t-217 -70t-94 -205h-62q9 160 113 245t248 85z" />
    <glyph glyph-name="Oslashacute" unicode="&#x1fe;" horiz-adv-x="1521" 
d="M731 1573l223 336h78l-250 -336h-51zM1346 705q0 285 -166 473l-805 -983q155 -152 397 -152q242 1 408 189t166 473zM178 703q0 -287 164 -474l805 981q-163 156 -403 156t-403 -188t-163 -475zM109 700q0 316 183 522t468 205q250 0 428 -165l141 172h62l-168 -205
q193 -205 193 -519t-187 -522q-186 -208 -469 -206q-250 0 -426 163l-139 -170h-62l166 203q-190 206 -190 522z" />
    <glyph glyph-name="oslashacute" unicode="&#x1ff;" horiz-adv-x="1089" 
d="M516 1163l223 336h78l-250 -336h-51zM549 39q155 0 265 130t110 328t-99 324l-534 -676q102 -106 258 -106zM541 961q-155 0 -265 -130t-110 -329t98 -326l535 676q-102 109 -258 109zM100 498q0 232 128 375q128 145 310 145t300 -115l96 121h53l-121 -152
q123 -145 123 -372q0 -226 -128 -372t-310 -146t-299 112l-94 -119h-54l119 150q-123 141 -123 373z" />
    <glyph glyph-name="Scommaaccent" unicode="&#x218;" horiz-adv-x="1269" 
d="M600 -129h66v-133l-68 -217h-33l58 217h-23v133zM133 379h66q-1 -168 117 -254t320 -86t314 91t113 245q0 102 -50 167q-50 64 -131 94q-80 30 -178 47t-195 35t-178 52q-81 32 -131 104t-50 183q0 160 132 265t346 105t344 -95t130 -271h-68q0 149 -112 229t-292 80
q-181 0 -296 -86t-115 -221q0 -97 50 -159t131 -89q80 -27 178 -44t195 -37t178 -54q81 -35 131 -111t51 -190q1 -180 -131 -289q-132 -108 -366 -108t-369 101q-134 101 -134 296z" />
    <glyph glyph-name="scommaaccent" unicode="&#x219;" horiz-adv-x="944" 
d="M430 -129h66v-133l-68 -217h-33l58 217h-23v133zM84 276h61q-1 -123 91 -182t229 -59t225 60q88 59 88 161t-52 147t-167 64l-188 33q-123 22 -194 74t-71 173t100 196t256 75q155 0 258 -71t103 -208h-61q0 111 -86 168t-213 57t-210 -56q-83 -58 -83 -153t56 -139
t161 -59l188 -33q137 -25 202 -80t65 -183t-108 -204q-108 -75 -274 -75t-271 74q-105 75 -105 220z" />
    <glyph glyph-name="uni021A" unicode="&#x21a;" horiz-adv-x="1153" 
d="M545 -129h65v-133l-67 -217h-33l57 217h-22v133zM16 1352v57h1121v-57h-527v-1352h-67v1352h-527z" />
    <glyph glyph-name="uni021B" unicode="&#x21b;" horiz-adv-x="610" 
d="M319 -129h66v-133l-68 -217h-32l57 217h-23v133zM203 272v674h-211v53h211v304h65v-304h293v-53h-293v-672q0 -119 47 -168t150 -49h96v-57h-104q-129 0 -191 64t-63 208z" />
    <glyph glyph-name="circumflex" unicode="&#x2c6;" horiz-adv-x="1089" 
d="M250 1163l264 336h61l265 -336h-66l-229 295l-230 -295h-65z" />
    <glyph glyph-name="caron" unicode="&#x2c7;" horiz-adv-x="1089" 
d="M514 1163l-264 336h65l230 -295l229 295h66l-265 -336h-61z" />
    <glyph glyph-name="uni02C9" unicode="&#x2c9;" horiz-adv-x="1089" 
d="M264 1303v51h565v-51h-565z" />
    <glyph glyph-name="breve" unicode="&#x2d8;" horiz-adv-x="1089" 
d="M545 1210q-104 0 -177 62t-89 192h45q33 -209 221 -209t219 209h47q-16 -130 -89 -192t-177 -62z" />
    <glyph glyph-name="dotaccent" unicode="&#x2d9;" horiz-adv-x="1089" 
d="M512 1243v176h66v-176h-66z" />
    <glyph glyph-name="ring" unicode="&#x2da;" horiz-adv-x="1089" 
d="M545 1212q55 0 97 39t42 101t-42 100q-42 39 -97 39t-97 -39t-42 -100t41 -101q43 -39 98 -39zM545 1174q-72 0 -127 50q-56 50 -56 129t56 128t127 49q72 0 127 -49t55 -128t-55 -129t-127 -50z" />
    <glyph glyph-name="ogonek" unicode="&#x2db;" horiz-adv-x="1089" 
d="M395 -262q0 123 135 262h48q-127 -143 -127 -252q0 -127 141 -127h72v-49h-80q-92 0 -141 45q-48 45 -48 121z" />
    <glyph glyph-name="tilde" unicode="&#x2dc;" horiz-adv-x="1089" 
d="M400 1413q60 0 159 -58q100 -58 139 -59q86 0 103 123h39q-6 -70 -42 -120t-98 -50q-62 1 -159 59q-98 58 -138 58q-86 0 -102 -123h-41q6 74 43 122t97 48z" />
    <glyph glyph-name="hungarumlaut" unicode="&#x2dd;" horiz-adv-x="1089" 
d="M342 1163l223 336h76l-250 -336h-49zM692 1163l223 336h78l-250 -336h-51z" />
    <glyph glyph-name="uni0394" unicode="&#x394;" horiz-adv-x="1232" 
d="M614 1348l-464 -1291h931zM61 0l514 1409h82l514 -1409h-1110z" />
    <glyph glyph-name="uni03A9" unicode="&#x3a9;" horiz-adv-x="1425" 
d="M864 0v365q117 30 230 149q55 58 90 150t35 194q1 220 -145 366t-361 146t-361 -145t-145 -367q0 -102 35 -193t90 -151q111 -120 229 -149v-365h-397v57h334v271q-145 53 -252 192q-106 139 -107 338q0 244 166 407t409 163q242 0 408 -164q166 -162 166 -406
q0 -199 -108 -338t-252 -192v-271h336v-57h-400z" />
    <glyph glyph-name="uni03BC" unicode="&#x3bc;" horiz-adv-x="1128" 
d="M885 0v227h-2q-43 -123 -139 -184t-216 -61q-199 0 -286 147q4 -258 4 -420v-160h-66v1450h66v-616q0 -176 78 -260t219 -84t240 111t100 325v524h63v-999h-61z" />
    <glyph glyph-name="pi" unicode="&#x3c0;" horiz-adv-x="1153" 
d="M182 0v999h787v-999h-66v942h-655v-942h-66z" />
    <glyph glyph-name="Wgrave" unicode="&#x1e80;" horiz-adv-x="1812" 
d="M885 1573l-250 336h78l223 -336h-51zM418 0l-387 1409h69l359 -1335h4l407 1335h78l408 -1335h2l356 1335h70l-385 -1409h-86l-402 1323h-4l-403 -1323h-86z" />
    <glyph glyph-name="wgrave" unicode="&#x1e81;" horiz-adv-x="1406" 
d="M684 1163l-250 336h78l223 -336h-51zM344 0l-311 999h65l283 -929h4l285 929h73l283 -929h4l283 929h63l-311 -999h-78l-280 932h-2l-283 -932h-78z" />
    <glyph glyph-name="Wacute" unicode="&#x1e82;" horiz-adv-x="1812" 
d="M879 1573l223 336h78l-250 -336h-51zM418 0l-387 1409h69l359 -1335h4l407 1335h78l408 -1335h2l356 1335h70l-385 -1409h-86l-402 1323h-4l-403 -1323h-86z" />
    <glyph glyph-name="wacute" unicode="&#x1e83;" horiz-adv-x="1406" 
d="M678 1163l223 336h78l-250 -336h-51zM344 0l-311 999h65l283 -929h4l285 929h73l283 -929h4l283 929h63l-311 -999h-78l-280 932h-2l-283 -932h-78z" />
    <glyph glyph-name="Wdieresis" unicode="&#x1e84;" horiz-adv-x="1812" 
d="M682 1653v176h63v-176h-63zM1073 1653v176h66v-176h-66zM418 0l-387 1409h69l359 -1335h4l407 1335h78l408 -1335h2l356 1335h70l-385 -1409h-86l-402 1323h-4l-403 -1323h-86z" />
    <glyph glyph-name="wdieresis" unicode="&#x1e85;" horiz-adv-x="1406" 
d="M481 1243v176h64v-176h-64zM872 1243v176h66v-176h-66zM344 0l-311 999h65l283 -929h4l285 929h73l283 -929h4l283 929h63l-311 -999h-78l-280 932h-2l-283 -932h-78z" />
    <glyph glyph-name="Ygrave" unicode="&#x1ef2;" horiz-adv-x="1165" 
d="M561 1573l-250 336h78l223 -336h-51zM547 0v575l-516 834h75l474 -762h4l479 762h72l-521 -827v-582h-67z" />
    <glyph glyph-name="ygrave" unicode="&#x1ef3;" horiz-adv-x="913" 
d="M434 1163l-250 336h78l223 -336h-51zM68 -406h36q100 0 158 58t103 172l61 166l-393 1009h69l357 -927h2l356 927h64l-463 -1196q-51 -129 -118 -197t-185 -67h-47v55z" />
    <glyph glyph-name="endash" unicode="&#x2013;" horiz-adv-x="1138" 
d="M123 487v60h893v-60h-893z" />
    <glyph glyph-name="emdash" unicode="&#x2014;" horiz-adv-x="1720" 
d="M123 487v60h1474v-60h-1474z" />
    <glyph glyph-name="quoteleft" unicode="&#x2018;" horiz-adv-x="409" 
d="M170 893v205l74 311h37l-62 -307h27v-209h-76z" />
    <glyph glyph-name="quoteright" unicode="&#x2019;" horiz-adv-x="409" 
d="M166 1200v209h74v-205l-74 -311h-37l61 307h-24z" />
    <glyph glyph-name="quotesinglbase" unicode="&#x201a;" horiz-adv-x="409" 
d="M166 0v211h74v-207l-74 -309h-37l61 305h-24z" />
    <glyph glyph-name="quotedblleft" unicode="&#x201c;" horiz-adv-x="733" 
d="M494 893v205l71 311h39l-63 -307h26v-209h-73zM170 893v205l74 311h37l-62 -307h27v-209h-76z" />
    <glyph glyph-name="quotedblright" unicode="&#x201d;" horiz-adv-x="733" 
d="M487 1200v209h76v-205l-74 -311h-38l63 307h-27zM166 1200v209h74v-205l-74 -311h-37l61 307h-24z" />
    <glyph glyph-name="quotedblbase" unicode="&#x201e;" horiz-adv-x="733" 
d="M487 0v211h76v-207l-74 -309h-38l63 305h-27zM166 0v211h74v-207l-74 -309h-37l61 305h-24z" />
    <glyph glyph-name="dagger" unicode="&#x2020;" horiz-adv-x="843" 
d="M90 971v55h301v383h62v-383h301v-55h-301v-971h-62v971h-301z" />
    <glyph glyph-name="daggerdbl" unicode="&#x2021;" horiz-adv-x="843" 
d="M90 971v55h301v383h62v-383h301v-55h-301v-535h301v-53h-301v-383h-62v383h-301v53h301v535h-301z" />
    <glyph glyph-name="bullet" unicode="&#x2022;" horiz-adv-x="999" 
d="M500 164q-150 0 -251 101t-102 251t101 251t252 101t251 -101t101 -251t-101 -251t-251 -101z" />
    <glyph glyph-name="ellipsis" unicode="&#x2026;" horiz-adv-x="1265" 
d="M174 0v209h78v-209h-78zM594 0v209h80v-209h-80zM1014 0v209h82v-209h-82z" />
    <glyph glyph-name="perthousand" unicode="&#x2030;" horiz-adv-x="2240" 
d="M373 -25l719 1459h55l-717 -1459h-57zM2101 352q0 142 -56 230q-55 88 -163 88t-164 -87t-57 -231t57 -230q58 -87 163 -87t163 87q57 87 57 230zM1380 352q0 142 -56 230t-164 88t-164 -87t-56 -231t58 -230q58 -87 162 -87q105 0 163 87q57 87 57 230zM360 739
q106 0 164 87q58 86 58 230t-58 231t-164 87t-163 -87t-57 -230t56 -231q58 -88 164 -87zM360 690q-136 0 -208 102t-72 265q0 162 73 264t207 102t208 -102q73 -102 73 -264q0 -163 -73 -265t-208 -102zM1880 -14q-135 0 -208 102t-73 264t73 264t208 102t209 -102t74 -264
t-74 -264t-209 -102zM1159 -14q-135 0 -208 102t-72 264q0 162 72 264q73 102 208 102t209 -102t74 -264t-74 -264t-209 -102z" />
    <glyph glyph-name="guilsinglleft" unicode="&#x2039;" horiz-adv-x="604" 
d="M426 98l-301 418l301 418h55l-284 -418l284 -418h-55z" />
    <glyph glyph-name="guilsinglright" unicode="&#x203a;" horiz-adv-x="604" 
d="M123 98l285 418l-285 418h53l303 -418l-303 -418h-53z" />
    <glyph glyph-name="fraction" unicode="&#x2044;" horiz-adv-x="77" 
d="M-348 -25l719 1459h55l-717 -1459h-57z" />
    <glyph glyph-name="uni2070" unicode="&#x2070;" 
d="M360 1051q106 0 164 87q57 87 58 230q0 143 -58 230q-58 88 -164 88t-163 -88t-57 -230q0 -143 56 -230q58 -87 164 -87zM360 1001q-136 1 -208 103t-72 264t73 264t207 102t208 -102q73 -102 73 -264t-73 -264t-208 -103z" />
    <glyph glyph-name="uni2074" unicode="&#x2074;" 
d="M467 1247v400l-332 -400h332zM68 1198v41l407 487h51v-479h127v-49h-127v-182h-59v182h-399z" />
    <glyph glyph-name="uni2075" unicode="&#x2075;" 
d="M366 1047q90 0 148 54q59 54 59 140t-58 137t-146 52q-119 0 -189 -103l-55 4l25 389h442v-51h-389l-25 -278h4q74 86 191 86q117 1 189 -63t71 -172q0 -108 -77 -175q-77 -68 -185 -68q-227 0 -262 201h57q12 -68 61 -110t139 -43z" />
    <glyph glyph-name="uni2076" unicode="&#x2076;" 
d="M369 1427q-87 0 -147 -53t-60 -136t59 -137t145 -54t145 54q58 54 58 140t-57 136t-143 50zM394 1475q92 1 164 -63t71 -170q0 -106 -76 -175q-77 -68 -193 -68t-193 82t-77 275q0 194 81 286t198 92t176 -52t67 -140h-57q-17 146 -187 146q-89 0 -154 -79t-64 -255v-8
q25 57 88 93q64 36 156 36z" />
    <glyph glyph-name="uni2077" unicode="&#x2077;" 
d="M94 1667v53h543v-37l-344 -667h-64l338 651h-473z" />
    <glyph glyph-name="uni2078" unicode="&#x2078;" 
d="M168 1547q0 -67 53 -103t139 -37q86 0 140 37q53 38 53 104t-55 103q-56 37 -138 37t-137 -37t-55 -104zM360 1362q-96 0 -156 -43t-59 -118t59 -115t156 -40t157 40q58 40 58 115t-59 118q-60 43 -156 43zM84 1190q0 82 48 131t120 61v4q-64 14 -104 58t-40 118
q0 72 72 122t180 50t181 -50q71 -50 71 -122t-40 -117q-40 -44 -103 -59v-4q72 -12 120 -61t48 -131t-76 -136t-201 -54q-124 0 -200 54t-76 136z" />
    <glyph glyph-name="uni2079" unicode="&#x2079;" 
d="M561 1494q0 81 -57 137q-58 57 -146 57t-146 -54t-58 -141q0 -86 57 -136t144 -50t147 53q59 53 59 134zM573 1380v4q-59 -124 -241 -124q-94 0 -166 63t-72 169t76 174q76 69 184 69q281 0 281 -353q0 -198 -81 -290t-197 -92t-176 52t-70 140h57q8 -68 55 -107t135 -39
t152 79q63 79 63 255z" />
    <glyph glyph-name="parenleft.superior" unicode="&#x207d;" horiz-adv-x="358" 
d="M123 1368q0 148 49 284t115 216h55q-60 -76 -112 -215t-52 -285t51 -284q51 -140 113 -216h-55q-66 80 -115 216t-49 284z" />
    <glyph glyph-name="parenright.superior" unicode="&#x207e;" horiz-adv-x="358" 
d="M180 1368q0 146 -51 284q-51 140 -113 216h56q66 -80 114 -216q102 -287 0 -568q-49 -136 -114 -216h-56q61 76 113 215q51 139 51 285z" />
    <glyph glyph-name="n.superior" unicode="&#x207f;" horiz-adv-x="808" 
d="M123 1016v704h57v-149h4q68 162 252 162q117 0 188 -71t70 -220v-426h-61v416q0 248 -211 247q-98 1 -168 -77t-70 -222v-364h-61z" />
    <glyph glyph-name="uni2080" unicode="&#x2080;" 
d="M360 -276q106 0 164 87q57 87 58 230q0 143 -58 230t-164 87t-163 -87t-57 -230t56 -230q58 -87 164 -87zM360 -326q-136 0 -208 102t-72 265q0 162 73 264q73 103 207 103t208 -102q73 -102 73 -265t-73 -265t-208 -102z" />
    <glyph glyph-name="uni2081" unicode="&#x2081;" 
d="M422 393v-653h223v-51h-520v51h237v582l-221 -127l-24 43l266 155h39z" />
    <glyph glyph-name="uni2082" unicode="&#x2082;" 
d="M563 207q0 73 -50 111t-142 38q-91 0 -153 -49t-66 -151h-56q4 129 83 189q79 61 193 61t182 -52t69 -143q0 -90 -65 -138q-41 -32 -138 -83l-78 -39q-86 -43 -128 -90t-44 -121h463v-51h-529q2 121 54 187t159 120l80 39q130 63 154 116q12 26 12 56z" />
    <glyph glyph-name="uni2083" unicode="&#x2083;" 
d="M88 -109h57q1 -86 59 -129t156 -43t157 40q58 40 58 115t-59 118t-156 43h-63v45h63q86 0 140 37q53 37 53 103t-55 104q-56 36 -138 36t-138 -44t-56 -123h-55q0 102 70 158q71 57 179 57t180 -50t72 -124q0 -72 -40 -116t-103 -59v-4q72 -12 120 -61t48 -132t-75 -136
q-75 -54 -200 -54q-126 0 -200 54t-74 165z" />
    <glyph glyph-name="uni2084" unicode="&#x2084;" 
d="M467 -80v399l-332 -399h332zM68 -129v41l407 487h51v-479h127v-49h-127v-182h-59v182h-399z" />
    <glyph glyph-name="uni2085" unicode="&#x2085;" 
d="M366 -281q90 1 148 55q59 54 59 140t-58 137t-146 51q-119 0 -189 -102l-55 4l25 389h442v-51h-389l-25 -279h4q74 87 191 87t189 -64t71 -170q0 -108 -77 -176t-185 -68q-227 0 -262 201h57q12 -68 61 -111t139 -43z" />
    <glyph glyph-name="uni2086" unicode="&#x2086;" 
d="M369 100q-87 0 -147 -53t-60 -136t59 -137t145 -54t145 54q58 54 58 140t-57 136t-143 50zM629 -86q0 -106 -76 -174q-77 -68 -193 -68t-193 82t-77 275t81 285t198 94q117 0 176 -52t67 -141h-57q-17 145 -187 145q-89 0 -154 -78t-64 -255v-9q25 58 88 94q64 36 156 36
t164 -64t71 -170z" />
    <glyph glyph-name="uni2087" unicode="&#x2087;" 
d="M94 340v53h543v-37l-344 -667h-64l338 651h-473z" />
    <glyph glyph-name="uni2088" unicode="&#x2088;" 
d="M168 220q0 -68 53 -104t139 -36t140 37q53 37 53 103t-55 104q-56 36 -138 36t-137 -36t-55 -104zM360 35q-96 0 -156 -43t-59 -118t59 -115t156 -40t157 40q58 40 58 115t-59 118q-60 43 -156 43zM84 -137q0 82 48 131t120 61v4q-64 15 -104 59t-40 116t72 123t180 51
t181 -50q71 -50 71 -124q0 -72 -40 -116t-103 -59v-4q72 -12 120 -61t48 -131t-76 -136q-76 -55 -201 -55q-124 0 -200 54t-76 137z" />
    <glyph glyph-name="uni2089" unicode="&#x2089;" 
d="M561 167q0 81 -57 137q-58 56 -146 56t-146 -54t-58 -140t57 -136t144 -50t147 53q59 53 59 134zM573 57q-59 -125 -241 -125q-94 0 -166 64t-72 168q0 106 76 175t184 69q281 0 281 -353q0 -197 -81 -289t-197 -94q-116 0 -176 52t-70 141h57q8 -68 55 -107t135 -39
t152 79q63 79 63 255v4z" />
    <glyph glyph-name="parenleft.inferior" unicode="&#x208d;" horiz-adv-x="358" 
d="M123 40q0 148 49 284t115 217h55q-60 -76 -112 -215q-52 -138 -52 -284t51 -286t113 -215h-55q-66 80 -115 216q-49 135 -49 283z" />
    <glyph glyph-name="parenright.inferior" unicode="&#x208e;" horiz-adv-x="358" 
d="M180 40q0 146 -51 286t-113 215h56q66 -80 114 -216q102 -287 0 -568q-49 -136 -114 -216h-56q61 76 113 215q51 138 51 284z" />
    <glyph glyph-name="Euro" unicode="&#x20ac;" horiz-adv-x="1163" 
d="M694 1427q166 0 268 -95t140 -267h-64q-76 305 -342 305q-172 0 -278 -126t-139 -345h469l-11 -47h-465q-6 -70 -6 -152t4 -122h443l-8 -46h-429q30 -229 136 -361t284 -132q248 0 328 264h61q-86 -322 -391 -321q-208 0 -330 150t-155 400h-180l8 46h168q-6 61 -6 136
t8 138h-144l11 47h139q35 242 158 385t323 143z" />
    <glyph glyph-name="afii61289" unicode="&#x2113;" horiz-adv-x="843" 
d="M598 1171q0 186 -113 187q-139 0 -139 -367v-289l4 -2q248 211 248 471zM186 338v151l-4 3l-121 -84l-24 49q78 63 149 125v278q0 209 37 322q37 114 113 182t173 68t153 -71t55 -179q0 -203 -138 -361q-67 -76 -114 -120t-119 -99v-223q0 -283 186 -283q129 0 242 164
l45 -33q-49 -119 -139 -185t-216 -67q-126 0 -202 81t-76 282z" />
    <glyph glyph-name="afii61352" unicode="&#x2116;" horiz-adv-x="2283" 
d="M1509 379v49h656v-49h-656zM1509 0v49h656v-49h-656zM1571 1057q0 -139 74 -227q75 -88 191 -89q116 0 190 88q74 89 75 229q0 140 -72 227q-73 87 -190 87t-193 -88t-75 -227zM199 0v1409h65l901 -1296h4l-2 1296h68v-1409h-68l-901 1294h-4l2 -1294h-65zM1509 1056
q-1 163 93 264t238 101t234 -100t89 -263q0 -163 -92 -264q-93 -102 -237 -102t-234 100t-91 264z" />
    <glyph glyph-name="trademark" unicode="&#x2122;" horiz-adv-x="1531" 
d="M14 1360v49h578v-49h-260v-655h-58v655h-260zM696 705v704h76l297 -631h2l299 631h76v-704h-57l2 618h-5l-292 -618h-47l-293 618h-4l2 -618h-56z" />
    <glyph glyph-name="Omega" unicode="&#x2126;" horiz-adv-x="1425" 
d="M864 0v365q117 30 230 149q55 58 90 150t35 194q1 220 -145 366t-361 146t-361 -145t-145 -367q0 -102 35 -193t90 -151q111 -120 229 -149v-365h-397v57h334v271q-145 53 -252 192q-106 139 -107 338q0 244 166 407t409 163q242 0 408 -164q166 -162 166 -406
q0 -199 -108 -338t-252 -192v-271h336v-57h-400z" />
    <glyph glyph-name="estimated" unicode="&#x212e;" horiz-adv-x="1740" 
d="M371 727h1007q8 0 8 12v396q0 29 -20 49q-201 205 -492 205t-495 -211q-23 -23 -23 -54v-385q1 -12 15 -12zM874 20q156 0 291 64t232 176h119q-113 -131 -282 -208t-362 -77q-338 0 -576 213q-238 212 -237 516q0 304 239 517q238 213 574 213t574 -213t237 -516v-21
h-1312q-14 0 -15 -8v-397q1 -23 21 -48q201 -211 497 -211z" />
    <glyph glyph-name="uni2153" unicode="&#x2153;" horiz-adv-x="1519" 
d="M422 1409v-653h223v-51h-520v51h237v581l-221 -127l-24 43l266 156h39zM412 -25l718 1459h56l-717 -1459h-57zM889 203h55q0 -86 60 -129t157 -43q98 0 157 40q58 41 58 115t-60 117t-157 43h-63v45h63q86 0 139 37q54 38 54 104t-56 103t-136 37q-81 0 -137 -44
t-56 -124h-56q0 102 71 158t178 57q107 0 179 -50q72 -51 72 -123t-40 -116t-101 -59v-4q72 -11 119 -61t47 -133t-75 -136t-200 -53t-199 54t-73 165z" />
    <glyph glyph-name="uni2154" unicode="&#x2154;" horiz-adv-x="1519" 
d="M412 -25l718 1459h56l-717 -1459h-57zM889 203h55q0 -86 60 -129t157 -43q98 0 157 40q58 41 58 115t-60 117t-157 43h-63v45h63q86 0 139 37q54 38 54 104t-56 103t-136 37q-81 0 -137 -44t-56 -124h-56q0 102 71 158t178 57q107 0 179 -50q72 -51 72 -123t-40 -116
t-101 -59v-4q72 -11 119 -61t47 -133t-75 -136t-200 -53t-199 54t-73 165zM563 1223q0 73 -50 111t-142 38q-91 0 -153 -49t-66 -152h-56q4 129 83 189t193 61q114 0 182 -52t69 -142q0 -90 -65 -138q-41 -32 -138 -83l-78 -39q-86 -43 -128 -90t-44 -121h463v-51h-529
q2 121 54 187t159 120l80 39q129 63 154 115q12 26 12 57z" />
    <glyph glyph-name="uni2155" unicode="&#x2155;" horiz-adv-x="1519" 
d="M422 1409v-653h223v-51h-520v51h237v581l-221 -127l-24 43l266 156h39zM412 -25q307 639 716 1459h56l-717 -1459h-55zM1166 31q89 0 148 54q58 54 58 140t-57 137t-146 52q-119 0 -188 -103l-57 4l26 390h443v-52h-389l-25 -276h4q78 84 192 84q115 0 187 -65t72 -171
t-78 -174q-78 -67 -192 -67t-178 55t-77 145h58q10 -66 60 -110t139 -43z" />
    <glyph glyph-name="uni2156" unicode="&#x2156;" horiz-adv-x="1519" 
d="M412 -25q307 639 716 1459h56l-717 -1459h-55zM563 1223q0 73 -50 111t-142 38q-91 0 -153 -49t-66 -152h-56q4 129 83 189t193 61q114 0 182 -52t69 -142q0 -90 -65 -138q-41 -32 -138 -83l-78 -39q-86 -43 -128 -90t-44 -121h463v-51h-529q2 121 54 187t159 120l80 39
q129 63 154 115q12 26 12 57zM1166 31q89 0 148 54q58 54 58 140t-57 137t-146 52q-119 0 -188 -103l-57 4l26 390h443v-52h-389l-25 -276h4q74 84 190 84q117 0 189 -65t72 -171t-78 -174q-78 -67 -192 -67t-178 55t-77 145h58q10 -66 60 -110t139 -43z" />
    <glyph glyph-name="uni2157" unicode="&#x2157;" horiz-adv-x="1519" 
d="M369 -25q410 819 716 1459h58l-717 -1459h-57zM88 907h57q1 -86 59 -129t156 -43t157 40q58 40 58 115t-59 118t-156 43h-63v45h63q86 0 140 37q53 37 53 103t-55 104q-56 36 -138 36t-138 -44t-56 -124h-55q0 102 70 159q71 56 179 56t180 -50q72 -51 72 -123t-40 -116
t-103 -59v-4q72 -12 120 -61t48 -132q0 -82 -75 -136t-200 -54q-126 0 -200 54t-74 165zM1166 31q89 0 148 54q58 54 58 140t-57 137t-146 52q-119 0 -188 -103l-57 4l26 390h443v-52h-389l-25 -276h4q78 84 192 84q115 0 187 -65t72 -171t-78 -174q-78 -67 -192 -67
t-178 55t-77 145h58q10 -66 60 -110t139 -43z" />
    <glyph glyph-name="uni2158" unicode="&#x2158;" horiz-adv-x="1519" 
d="M467 936v399l-332 -399h332zM375 -25l719 1459h55l-717 -1459h-57zM1166 31q89 0 148 54q58 54 58 140t-57 137t-146 52q-119 0 -188 -103l-57 4l26 390h443v-52h-389l-25 -276h4q78 84 192 84q115 0 187 -65t72 -171t-78 -174q-78 -67 -192 -67t-178 55t-77 145h58
q10 -66 60 -110t139 -43zM68 887v41l407 487h51v-479h127v-49h-127v-182h-59v182h-399z" />
    <glyph glyph-name="uni2159" unicode="&#x2159;" horiz-adv-x="1519" 
d="M422 1409v-653h223v-51h-520v51h237v581l-221 -127l-24 43l266 156h39zM428 -25q307 639 717 1459h55l-717 -1459h-55zM963 223q0 -82 57 -137t145 -55t147 54q58 54 58 140t-57 136q-57 51 -145 51t-146 -54q-59 -54 -59 -135zM1167 672q-89 0 -154 -79t-65 -255v-8
q25 57 86 93t157 36q95 1 167 -63t72 -170t-77 -174t-194 -68t-193 82t-77 274q0 192 81 286q81 93 198 93q117 -1 176 -53t69 -140h-59q-6 68 -52 107t-135 39z" />
    <glyph glyph-name="uni215A" unicode="&#x215a;" horiz-adv-x="1519" 
d="M373 -25l719 1459h55l-717 -1459h-57zM366 735q90 1 148 55q59 54 59 140t-58 137t-146 51q-119 0 -189 -102l-55 4l25 389h442v-51h-389l-25 -277h6q74 84 190 84t188 -63q72 -62 71 -170q0 -108 -77 -176t-185 -68q-227 0 -262 201h57q12 -68 61 -111t139 -43zM963 224
q0 -81 56 -137t145 -56t148 54q58 54 58 140t-57 136q-57 51 -145 51t-146 -54q-59 -54 -59 -134zM1167 672q-89 0 -154 -79t-65 -255v-8q25 57 86 93t157 36q95 1 167 -63t72 -170t-77 -174t-194 -68t-193 82t-77 274q0 192 81 286q81 93 198 93q117 -1 176 -53t69 -140
h-59q-6 68 -52 107t-135 39z" />
    <glyph glyph-name="uni215B" unicode="&#x215b;" horiz-adv-x="1519" 
d="M422 1409v-653h223v-51h-520v51h237v581l-221 -127l-24 43l266 156h39zM412 -25l718 1459h56l-717 -1459h-57zM967 531q0 -67 54 -103t139 -37q85 0 138 37q54 38 54 104t-56 103t-136 37q-81 0 -137 -37t-56 -104zM1160 346q-96 0 -156 -43t-60 -118t58 -115t158 -39
q100 0 158 40q58 41 58 115t-60 117t-156 43zM885 174q0 82 48 131t118 62v4q-61 14 -102 58q-40 44 -40 117t72 123q71 50 179 50t180 -50q72 -51 71 -123q0 -72 -40 -116t-101 -59v-4q70 -11 118 -61t48 -132t-75 -136t-201 -54t-201 54q-74 54 -74 136z" />
    <glyph glyph-name="uni215C" unicode="&#x215c;" horiz-adv-x="1519" 
d="M373 -25l719 1459h55l-717 -1459h-57zM967 531q0 -67 54 -103t139 -37q85 0 138 37q54 38 54 104t-56 103t-136 37q-81 0 -137 -37t-56 -104zM88 907h57q1 -86 59 -129t156 -43t157 40q58 40 58 115t-59 118t-156 43h-63v45h63q86 0 140 37q53 37 53 103t-55 104
q-56 36 -138 36t-138 -44t-56 -124h-55q0 102 70 159q71 56 179 56t180 -50q72 -51 72 -123t-40 -116t-103 -59v-4q72 -12 120 -61t48 -132q0 -82 -75 -136t-200 -54q-126 0 -200 54t-74 165zM1160 346q-96 0 -156 -43t-60 -118t58 -115t158 -39q100 0 158 40q58 41 58 115
t-60 117t-156 43zM885 174q0 82 48 131t118 62v4q-61 14 -102 58q-40 44 -40 117t72 123q71 50 179 50t180 -50q72 -51 71 -123q0 -72 -40 -116t-101 -59v-4q70 -11 118 -61t48 -132t-75 -136t-201 -54t-201 54q-74 54 -74 136z" />
    <glyph glyph-name="uni215D" unicode="&#x215d;" horiz-adv-x="1519" 
d="M373 -25l719 1459h55l-717 -1459h-57zM967 531q0 -67 54 -103t139 -37q85 0 138 37q54 38 54 104t-56 103t-136 37q-81 0 -137 -37t-56 -104zM366 735q90 1 148 55q59 54 59 140t-58 137t-146 51q-119 0 -189 -102l-55 4l25 389h442v-51h-389l-25 -277h6q74 84 190 84
t188 -63q72 -62 71 -170q0 -108 -77 -176t-185 -68q-227 0 -262 201h57q12 -68 61 -111t139 -43zM1160 346q-96 0 -156 -43t-60 -118t58 -115t158 -39q100 0 158 40q58 41 58 115t-60 117t-156 43zM885 174q0 82 48 131t118 62v4q-61 14 -102 58q-40 44 -40 117t72 123
q71 50 179 50t180 -50q72 -51 71 -123q0 -72 -40 -116t-101 -59v-4q70 -11 118 -61t48 -132t-75 -136t-201 -54t-201 54q-74 54 -74 136z" />
    <glyph glyph-name="uni215E" unicode="&#x215e;" horiz-adv-x="1519" 
d="M94 1356v53h543v-37l-344 -667h-64l338 651h-473zM309 -25l719 1459h55l-716 -1459h-58zM967 531q0 -67 54 -103t139 -37q85 0 138 37q54 38 54 104t-56 103t-136 37q-81 0 -137 -37t-56 -104zM1160 346q-96 0 -156 -43t-60 -118t58 -115t158 -39q100 0 158 40
q58 41 58 115t-60 117t-156 43zM885 174q0 82 48 131t118 62v4q-61 14 -102 58q-40 44 -40 117t72 123q71 50 179 50t180 -50q72 -51 71 -123q0 -72 -40 -116t-101 -59v-4q70 -11 118 -61t48 -132t-75 -136t-201 -54t-201 54q-74 54 -74 136z" />
    <glyph glyph-name="uni2190" unicode="&#x2190;" horiz-adv-x="1351" 
d="M459 543h835v-51h-835q-272 0 -312 2l420 -416l-35 -35l-475 473l475 473l35 -35l-420 -415q39 4 312 4z" />
    <glyph glyph-name="uni2191" unicode="&#x2191;" horiz-adv-x="1351" 
d="M702 733v-835h-51v835q0 272 2 311l-415 -419l-35 34l473 476l473 -476l-35 -34l-416 419q4 -39 4 -311z" />
    <glyph glyph-name="uni2192" unicode="&#x2192;" horiz-adv-x="1351" 
d="M893 492h-836v51h836q272 0 309 -4l-418 415l35 35l475 -473l-475 -473l-35 35l418 416q-37 -2 -309 -2z" />
    <glyph glyph-name="uni2193" unicode="&#x2193;" horiz-adv-x="1351" 
d="M651 299v836h51v-836q0 -272 -4 -311l416 420l35 -35l-473 -475l-473 475l35 35l415 -420q-2 39 -2 311z" />
    <glyph glyph-name="uni2196" unicode="&#x2196;" horiz-adv-x="1351" 
d="M238 965h669v-47h-588q19 -18 173 -172t165 -168l469 -467l-34 -37l-469 471q-4 6 -164 165t-174 175v-590h-47v670z" />
    <glyph glyph-name="uni2197" unicode="&#x2197;" horiz-adv-x="1351" 
d="M457 918v47h669v-670h-47v590l-807 -811l-34 37l469 467q9 12 163 166l174 174h-587z" />
    <glyph glyph-name="uni2198" unicode="&#x2198;" horiz-adv-x="1351" 
d="M457 74v47h587l-173 173q-159 159 -164 165l-469 469l34 37l467 -471q12 -10 167 -164t173 -174v587h47v-669h-669z" />
    <glyph glyph-name="uni2199" unicode="&#x2199;" horiz-adv-x="1351" 
d="M285 156q338 338 807 809l34 -37l-469 -469q-6 -4 -164 -164t-174 -174h588v-47h-669v669h47v-587z" />
    <glyph glyph-name="partialdiff" unicode="&#x2202;" horiz-adv-x="1163" 
d="M496 39q194 0 320 142t126 290q0 102 -36 178q-62 132 -213 176q-60 18 -122 19q-190 0 -312 -127t-122 -305q1 -178 103 -276q102 -97 256 -97zM70 410q0 202 141 346t345 145q204 0 333 -127q70 -70 90 -170q18 113 18 234q0 272 -106 402q-107 130 -269 130t-258 -85
t-128 -228h-64q37 170 152 270t303 100t313 -145t125 -470t-132 -567q-145 -263 -459 -263q-165 0 -285 112q-119 114 -119 316z" />
    <glyph glyph-name="Delta" unicode="&#x2206;" horiz-adv-x="1232" 
d="M614 1348l-464 -1291h931zM61 0l514 1409h82l514 -1409h-1110z" />
    <glyph glyph-name="product" unicode="&#x220f;" horiz-adv-x="1406" 
d="M199 0v1409h1009v-1409h-65v1352h-879v-1352h-65z" />
    <glyph glyph-name="summation" unicode="&#x2211;" horiz-adv-x="1030" 
d="M59 0v39l478 663l-471 664v43h895v-57h-809l460 -645l-471 -650h842v-57h-924z" />
    <glyph glyph-name="minus" unicode="&#x2212;" horiz-adv-x="1163" 
d="M121 489v58h921v-58h-921z" />
    <glyph glyph-name="uni2215" unicode="&#x2215;" horiz-adv-x="147" 
d="M-307 -25q205 426 721 1459h53l-721 -1459h-53z" />
    <glyph glyph-name="uni2219" unicode="&#x2219;" horiz-adv-x="425" 
d="M174 412v209h78v-209h-78z" />
    <glyph glyph-name="radical" unicode="&#x221a;" horiz-adv-x="1204" 
d="M80 702v58l235 74l320 -758h2l487 1333h66l-516 -1409h-74l-326 764z" />
    <glyph glyph-name="infinity" unicode="&#x221e;" horiz-adv-x="1449" 
d="M1098 252q110 0 176 76t66 188t-67 189q-67 76 -175 75q-164 0 -340 -264q176 -264 340 -264zM352 252q168 0 340 264q-172 264 -340 264q-110 0 -176 -76t-66 -188t67 -188q66 -76 175 -76zM352 199q-133 0 -216 91t-83 226t83 226t216 92q209 0 373 -273
q176 272 373 273q133 0 216 -92t83 -226q0 -135 -83 -226t-216 -91q-207 0 -375 272q-172 -272 -371 -272z" />
    <glyph glyph-name="integral" unicode="&#x222b;" horiz-adv-x="745" 
d="M66 -268h59q147 0 205 95q57 95 45 290l-70 1087q-12 215 61 326t248 110h66v-57h-59q-147 0 -205 -94t-45 -289l69 -1089q27 -436 -309 -437h-65v58z" />
    <glyph glyph-name="approxequal" unicode="&#x2248;" horiz-adv-x="1163" 
d="M156 178q0 125 57 193q57 67 151 67t226 -95q133 -95 207 -95q154 0 153 201h60q0 -125 -58 -192t-156 -67q-99 0 -220 97t-201 98q-162 0 -162 -207h-57zM156 592q0 126 57 194t151 68t226 -96q133 -96 207 -96q154 0 153 202h60q0 -128 -58 -194t-155 -66
q-98 0 -223 97q-120 98 -199 98q-162 0 -162 -207h-57z" />
    <glyph glyph-name="notequal" unicode="&#x2260;" horiz-adv-x="1163" 
d="M121 707v57h559l172 311l49 -28l-158 -283h299v-57h-329l-207 -373h536v-58h-567l-172 -311l-49 29l156 282h-289v58h321l205 373h-526z" />
    <glyph glyph-name="lessequal" unicode="&#x2264;" horiz-adv-x="1163" 
d="M154 0v57h856v-57h-856zM154 586v59l856 369v-62l-793 -336l793 -335v-64z" />
    <glyph glyph-name="greaterequal" unicode="&#x2265;" horiz-adv-x="1163" 
d="M154 0v57h856v-57h-856zM1010 645v-59l-856 -369v62l790 335l-790 336v64z" />
    <glyph glyph-name="uni25A0" unicode="&#x25a0;" horiz-adv-x="1409" 
d="M0 0v1409h1409v-1409h-1409z" />
    <glyph glyph-name="uni25A1" unicode="&#x25a1;" horiz-adv-x="1409" 
d="M59 57h1291v1295h-1291v-1295zM0 0v1409h1409v-1409h-1409z" />
    <glyph glyph-name="uni25B6" unicode="&#x25b6;" horiz-adv-x="1017" 
d="M90 -25v1049l903 -524z" />
    <glyph glyph-name="uni25B7" unicode="&#x25b7;" horiz-adv-x="1017" 
d="M150 76l737 424l-737 424v-848zM90 -25v1049l903 -524z" />
    <glyph glyph-name="uni25C0" unicode="&#x25c0;" horiz-adv-x="1017" 
d="M25 500l903 524v-1049z" />
    <glyph glyph-name="uni25C1" unicode="&#x25c1;" horiz-adv-x="1017" 
d="M131 500l735 -424v848zM25 500l903 524v-1049z" />
    <glyph glyph-name="lozenge" unicode="&#x25ca;" horiz-adv-x="1308" 
d="M1153 702l-498 654l-501 -649l503 -656zM625 0l-543 705l543 704h65l535 -704l-535 -705h-65z" />
    <glyph glyph-name="uni25CB" unicode="&#x25cb;" horiz-adv-x="1130" 
d="M1010 502q0 196 -128 328t-316 132t-317 -133q-128 -134 -128 -331t128 -329t316 -132t317 134q128 134 128 331zM59 498q-1 220 147 370t360 150t358 -148t147 -368q0 -219 -147 -370q-148 -150 -360 -150t-358 148t-147 368z" />
    <glyph glyph-name="uni25CF" unicode="&#x25cf;" horiz-adv-x="1130" 
d="M59 498q-1 220 147 370t360 150t358 -148t147 -368q0 -219 -147 -370q-148 -150 -360 -150t-358 148t-147 368z" />
    <glyph glyph-name="uni25FB" unicode="&#x25fb;" horiz-adv-x="999" 
d="M59 55h881v891h-881v-891zM0 0v999h999v-999h-999z" />
    <glyph glyph-name="uni25FC" unicode="&#x25fc;" horiz-adv-x="999" 
d="M0 0v999h999v-999h-999z" />
    <glyph glyph-name="uni2605" unicode="&#x2605;" horiz-adv-x="1118" 
d="M217 27l139 374l-331 222l10 32l399 -18l109 387h32l107 -387l401 18l11 -32l-334 -222l141 -374l-29 -21l-313 248l-313 -248z" />
    <glyph glyph-name="dotlessi.sc" unicode="&#xe08e;" horiz-adv-x="460" 
d="M199 0v1065h63v-1065h-63z" />
    <glyph glyph-name="g.superior" unicode="&#xe0a3;" horiz-adv-x="835" 
d="M139 1366q0 -141 71 -226t181 -85t186 88q75 88 74 225v14q-4 133 -76 216q-71 83 -181 83t-182 -87t-73 -228zM152 930q0 -92 66 -143q67 -50 173 -50q266 0 264 303v138h-4q-33 -82 -105 -128t-163 -46q-137 0 -222 99t-85 262t89 265t220 103q92 0 162 -45t104 -125h4
v157h58v-682q0 -350 -322 -350q-131 0 -213 62t-84 180h58z" />
    <glyph glyph-name="germandbls.sc" unicode="&#xe0a4;" horiz-adv-x="2048" 
d="M1133 293h63q0 -123 96 -190t251 -67t241 68t86 176t-74 157t-178 67t-210 36t-179 80q-74 62 -74 183q1 121 105 201t280 80t280 -82q104 -81 103 -209h-63q0 102 -86 169q-86 66 -234 66t-234 -61t-85 -161q0 -179 253 -218q105 -16 210 -36q106 -20 180 -82t74 -190
t-105 -213t-289 -85t-298 83q-113 83 -113 228zM109 293h63q0 -123 96 -190t251 -67t241 68t86 176t-74 157t-178 67t-210 36t-179 80q-74 62 -74 183q1 121 105 201t280 80t280 -82q104 -81 103 -209h-63q0 102 -86 169q-86 66 -234 66t-234 -61t-85 -161q0 -179 253 -218
q105 -16 210 -36q106 -20 180 -82t74 -190t-105 -213t-289 -85t-298 83q-113 83 -113 228z" />
    <glyph glyph-name="onesuperior" unicode="&#xe105;" 
d="M422 1720v-653h223v-51h-520v51h237v582l-221 -127l-24 43l266 155h39z" />
    <glyph glyph-name="twosuperior" unicode="&#xe107;" 
d="M563 1534q0 72 -50 111t-142 39q-91 0 -153 -50q-62 -49 -66 -151h-56q4 129 83 189t193 60t182 -52t69 -142q0 -90 -65 -138q-41 -32 -138 -83l-78 -39q-86 -43 -128 -90t-44 -121h463v-51h-529q2 122 54 188t159 119l80 39q128 63 154 116q12 26 12 56z" />
    <glyph glyph-name="threesuperior" unicode="&#xe108;" 
d="M88 1219h57q1 -86 59 -129t156 -43t157 39q58 40 58 115t-59 118t-156 43h-63v45h63q86 0 140 37q53 38 53 104t-55 103q-56 37 -138 37t-138 -44t-56 -124h-55q0 102 70 158q71 56 179 56t180 -50t72 -122t-40 -117q-40 -44 -103 -59v-4q72 -12 120 -61t48 -132
t-75 -136t-200 -53q-126 0 -200 54t-74 165z" />
    <glyph glyph-name="cent.denominator" unicode="&#xf629;" 
d="M102 352q0 111 70 183t186 79v101h50v-101q90 -6 150 -56t71 -122h-60q-10 57 -60 94t-137 37q-88 0 -148 -58q-60 -57 -60 -155t60 -156t148 -58t137 35q50 36 60 93h60q-11 -70 -71 -120t-150 -58v-100h-50v100q-116 8 -186 80t-70 182z" />
    <glyph glyph-name="dollar.denominator" unicode="&#xf62a;" 
d="M364 37q90 0 148 40q57 40 57 106q0 117 -163 144q-68 11 -136 25t-116 56t-48 118q0 78 64 130t166 59v110h51v-110q95 -5 155 -55t68 -136h-57q-8 72 -61 108q-54 36 -136 36t-136 -37t-54 -99t48 -95q48 -32 116 -44t136 -26q68 -15 115 -57q48 -42 48 -124t-66 -134
q-66 -54 -172 -60v-125h-49v125q-110 4 -178 58t-72 149h55q7 -78 67 -120t150 -42z" />
    <glyph glyph-name="hyphen.denominator" unicode="&#xf62b;" horiz-adv-x="567" 
d="M82 328v51h403v-51h-403z" />
    <glyph glyph-name="parenleft.denominator" unicode="&#xf62c;" horiz-adv-x="358" 
d="M123 352q0 148 49 284t115 216h55q-60 -76 -112 -215t-52 -285t51 -284q51 -139 113 -215h-55q-66 80 -115 216t-49 283z" />
    <glyph glyph-name="parenright.denominator" unicode="&#xf62d;" horiz-adv-x="358" 
d="M180 352q0 144 -51 284t-113 216h56q66 -80 114 -216t50 -284q0 -148 -50 -283q-50 -136 -114 -216h-56q61 76 113 215q51 139 51 284z" />
    <glyph glyph-name="cent.numerator" unicode="&#xf62e;" 
d="M102 1057q0 111 70 183t186 79v100h50v-100q90 -6 150 -56t71 -122h-60q-10 57 -60 94t-137 37q-88 0 -148 -58t-60 -156t60 -156t148 -58t137 36q50 36 60 93h60q-11 -70 -71 -120t-150 -58v-101h-50v101q-116 7 -186 79t-70 183z" />
    <glyph glyph-name="dollar.numerator" unicode="&#xf62f;" 
d="M364 741q90 0 148 40q57 41 57 107q0 117 -163 143q-68 11 -136 25t-116 56q-48 41 -48 119t64 130t166 58v111h51v-111q95 -6 155 -55t68 -135h-57q-8 71 -61 107q-54 36 -136 36t-136 -37t-54 -99t48 -94t116 -44t136 -26t115 -57q48 -42 48 -124t-66 -135t-172 -60
v-125h-49v125q-110 4 -178 58t-72 149h55q7 -78 67 -120t150 -42z" />
    <glyph glyph-name="hyphen.numerator" unicode="&#xf630;" horiz-adv-x="567" 
d="M82 1032v51h403v-51h-403z" />
    <glyph glyph-name="parenleft.numerator" unicode="&#xf631;" horiz-adv-x="358" 
d="M123 1056q0 148 49 284t115 216h55q-60 -76 -112 -215t-52 -284t51 -285t113 -215h-55q-66 80 -115 216q-49 135 -49 283z" />
    <glyph glyph-name="parenright.numerator" unicode="&#xf632;" horiz-adv-x="358" 
d="M180 1056q0 146 -51 285t-113 215h56q66 -80 114 -216q102 -286 0 -567q-49 -136 -114 -216h-56q61 76 113 215q51 138 51 284z" />
    <glyph glyph-name="h.superior" unicode="&#xf637;" horiz-adv-x="808" 
d="M123 1016v1057h61v-209q0 -227 -4 -293h4q68 162 252 162q117 0 188 -71t70 -220v-426h-61v416q0 248 -211 247q-98 1 -168 -77t-70 -220v-366h-61z" />
    <glyph glyph-name="zero.denominator" unicode="&#xf655;" 
d="M360 35q106 0 164 87q57 87 58 230q0 142 -58 230t-164 88t-163 -87t-57 -231t56 -230q58 -87 164 -87zM360 -14q-136 0 -208 102t-72 264t73 264t207 102t208 -102q73 -102 73 -264t-73 -264t-208 -102z" />
    <glyph glyph-name="one.denominator" unicode="&#xf656;" 
d="M422 705v-654h223v-51h-520v51h237v582l-221 -127l-24 43l266 156h39z" />
    <glyph glyph-name="two.denominator" unicode="&#xf657;" 
d="M563 518q0 72 -50 111t-142 39q-91 0 -153 -50t-66 -151h-56q4 129 83 189t193 60t182 -51q68 -52 69 -142q0 -90 -65 -139q-41 -32 -138 -83l-78 -39q-86 -43 -128 -90t-44 -121h463v-51h-529q2 122 54 188t159 119l80 39q128 63 154 116q12 26 12 56z" />
    <glyph glyph-name="three.denominator" unicode="&#xf658;" 
d="M88 203h57q1 -86 59 -129t156 -43t157 40q58 41 58 115t-59 117t-156 43h-63v45h63q86 0 140 37q53 38 53 104t-55 103q-56 37 -138 37t-138 -44t-56 -124h-55q0 102 70 159q71 56 179 56t180 -50q72 -51 72 -123t-40 -116t-103 -59v-4q72 -11 120 -61t48 -133t-75 -136
t-200 -53q-126 0 -200 54t-74 165z" />
    <glyph glyph-name="four.denominator" unicode="&#xf659;" 
d="M467 231v400l-332 -400h332zM68 182v41l407 488h51v-480h127v-49h-127v-182h-59v182h-399z" />
    <glyph glyph-name="five.denominator" unicode="&#xf65a;" 
d="M366 31q90 0 148 54q59 54 59 140t-58 137t-146 52q-119 0 -189 -103l-55 4l25 390h442v-52h-389l-25 -278h4q74 86 191 86q117 1 189 -63t71 -172q0 -108 -77 -175q-77 -68 -185 -67q-227 -1 -262 200h57q12 -68 61 -110t139 -43z" />
    <glyph glyph-name="six.denominator" unicode="&#xf65b;" 
d="M162 222q0 -83 59 -137t145 -54t145 54q58 54 58 140t-57 136q-57 51 -143 51q-87 0 -147 -54t-60 -136zM394 459q92 1 164 -63t71 -170q0 -106 -76 -175q-77 -67 -193 -67t-193 82t-77 274t81 286q81 93 198 93q117 -1 176 -53t67 -140h-57q-17 146 -187 146
q-89 0 -154 -79t-64 -255v-8q25 57 88 93q64 36 156 36z" />
    <glyph glyph-name="seven.denominator" unicode="&#xf65c;" 
d="M94 651v54h543v-37l-344 -668h-64l338 651h-473z" />
    <glyph glyph-name="eight.denominator" unicode="&#xf65d;" 
d="M168 531q0 -67 53 -103t139 -37q86 0 140 37q53 38 53 104t-55 103q-56 37 -138 37t-137 -37t-55 -104zM360 346q-96 0 -156 -43t-59 -118t59 -115t156 -39q98 0 157 40q58 41 58 115t-59 117q-60 43 -156 43zM360 -16q-124 0 -200 54t-76 136t48 131t120 62v4
q-63 14 -104 58q-40 44 -40 117t72 123t180 50t181 -50q71 -51 71 -123t-40 -116t-103 -59v-4q72 -11 120 -61t48 -132t-76 -136t-201 -54z" />
    <glyph glyph-name="nine.denominator" unicode="&#xf65e;" 
d="M561 478q0 81 -57 137q-58 57 -146 57t-146 -54t-58 -141q0 -86 57 -136t144 -50t147 53q59 53 59 134zM573 369q-59 -125 -241 -125q-94 0 -166 63t-72 169t76 174q76 69 184 69q281 0 281 -352q0 -197 -81 -290t-197 -93t-176 52t-70 140h57q17 -145 190 -145
q88 0 152 79q63 79 63 255v4z" />
    <glyph glyph-name="comma.denominator" unicode="&#xf65f;" horiz-adv-x="307" 
d="M121 0v139h65v-137l-53 -209h-35l45 207h-22z" />
    <glyph glyph-name="period.denominator" unicode="&#xf660;" horiz-adv-x="307" 
d="M121 0v139h65v-139h-65z" />
    <glyph glyph-name="zero.numerator" unicode="&#xf661;" 
d="M360 739q106 0 164 87q58 86 58 230t-58 231t-164 87t-163 -87t-57 -230t56 -231q58 -88 164 -87zM360 690q-136 0 -208 102t-72 265q0 162 73 264t207 102t208 -102q73 -102 73 -264q0 -163 -73 -265t-208 -102z" />
    <glyph glyph-name="one.numerator" unicode="&#xf662;" 
d="M422 1409v-653h223v-51h-520v51h237v581l-221 -127l-24 43l266 156h39z" />
    <glyph glyph-name="two.numerator" unicode="&#xf663;" 
d="M563 1223q0 73 -50 111t-142 38q-91 0 -153 -49t-66 -152h-56q4 129 83 189t193 61q114 0 182 -52t69 -142q0 -90 -65 -138q-41 -32 -138 -83l-78 -39q-86 -43 -128 -90t-44 -121h463v-51h-529q2 121 54 187t159 120l80 39q129 63 154 115q12 26 12 57z" />
    <glyph glyph-name="three.numerator" unicode="&#xf664;" 
d="M88 907h57q1 -86 59 -129t156 -43t157 40q58 40 58 115t-59 118t-156 43h-63v45h63q86 0 140 37q53 37 53 103t-55 104q-56 36 -138 36t-138 -44t-56 -124h-55q0 102 70 159q71 56 179 56t180 -50q72 -51 72 -123t-40 -116t-103 -59v-4q72 -12 120 -61t48 -132
q0 -82 -75 -136t-200 -54q-126 0 -200 54t-74 165z" />
    <glyph glyph-name="four.numerator" unicode="&#xf665;" 
d="M467 936v399l-332 -399h332zM68 887v41l407 487h51v-479h127v-49h-127v-182h-59v182h-399z" />
    <glyph glyph-name="five.numerator" unicode="&#xf666;" 
d="M366 735q90 1 148 55q59 54 59 140t-58 137t-146 51q-119 0 -189 -102l-55 4l25 389h442v-51h-389l-25 -279h4q74 86 191 86t189 -63q72 -62 71 -170q0 -108 -77 -176t-185 -68q-227 0 -262 201h57q12 -68 61 -111t139 -43z" />
    <glyph glyph-name="six.numerator" unicode="&#xf667;" 
d="M369 1116q-87 0 -147 -53t-60 -136t59 -137t145 -54t145 54q58 54 58 140t-57 136t-143 50zM394 1163q92 0 164 -63q72 -64 71 -170q0 -106 -76 -174q-77 -68 -193 -68t-193 82t-77 274t81 286q81 93 198 93t176 -52t67 -140h-57q-17 145 -187 145q-89 0 -154 -79
t-64 -255v-8q25 57 88 93q64 36 156 36z" />
    <glyph glyph-name="seven.numerator" unicode="&#xf668;" 
d="M94 1356v53h543v-37l-344 -667h-64l338 651h-473z" />
    <glyph glyph-name="eight.numerator" unicode="&#xf669;" 
d="M553 1236q0 66 -55 104q-56 36 -138 36t-137 -36t-55 -104t53 -104t139 -36t140 37q53 37 53 103zM360 1051q-96 0 -156 -43t-59 -118t59 -115t156 -40t157 40q58 40 58 115t-59 118q-60 43 -156 43zM360 688q-124 0 -200 54t-76 137q0 82 48 131t120 61v4
q-64 15 -104 59t-40 116t72 123q72 50 180 50t181 -50q71 -51 71 -123t-40 -116t-103 -59v-4q72 -12 120 -61t48 -131q0 -83 -76 -137t-201 -54z" />
    <glyph glyph-name="nine.numerator" unicode="&#xf66a;" 
d="M561 1183q0 81 -57 137q-58 56 -146 56t-146 -54t-58 -140t57 -136t144 -50t147 52q60 54 59 135zM573 1073q-59 -125 -241 -125q-94 0 -166 64t-72 168q0 106 76 175t184 68q281 0 281 -352q0 -197 -81 -290t-197 -93t-176 52t-70 141h57q8 -68 55 -107t135 -39t152 79
q63 79 63 255v4z" />
    <glyph glyph-name="comma.numerator" unicode="&#xf66b;" horiz-adv-x="307" 
d="M121 705v139h65v-137l-53 -209h-35l45 207h-22z" />
    <glyph glyph-name="period.numerator" unicode="&#xf66c;" horiz-adv-x="307" 
d="M121 705v139h65v-139h-65z" />
    <glyph glyph-name="abreve.sc" unicode="&#xf66d;" horiz-adv-x="980" 
d="M489 1276q-104 0 -177 61t-89 193h45q33 -209 221 -209t220 209h47q-16 -131 -89 -193q-74 -61 -178 -61zM492 995h-5l-235 -596h475zM27 0l426 1065h75l424 -1065h-67l-137 344h-519l-135 -344h-67z" />
    <glyph glyph-name="amacron.sc" unicode="&#xf66e;" horiz-adv-x="980" 
d="M209 1368v51h565v-51h-565zM492 995h-5l-235 -596h475zM27 0l426 1065h75l424 -1065h-67l-137 344h-519l-135 -344h-67z" />
    <glyph glyph-name="aogonek.sc" unicode="&#xf66f;" horiz-adv-x="980" 
d="M492 995h-5l-235 -596h475zM770 -262q0 123 135 262h-20l-137 344h-519l-135 -344h-67l426 1065h75l424 -1065q-127 -143 -127 -252q0 -127 142 -127h71v-49h-80q-92 0 -140 45t-48 121z" />
    <glyph glyph-name="aeacute.sc" unicode="&#xf670;" horiz-adv-x="1703" 
d="M874 1229l224 336h78l-250 -336h-52zM866 326v673l-526 -673h526zM1593 1065v-57h-661v-437h541v-55h-541v-459h678v-57h-744v270h-569l-211 -270h-76l840 1065h743z" />
    <glyph glyph-name="cacute.sc" unicode="&#xf671;" horiz-adv-x="1177" 
d="M590 1229l223 336h78l-250 -336h-51zM621 -18q-229 0 -374 162t-145 390q0 230 144 390t375 159q182 0 303 -91t163 -247h-63q-41 129 -144 204t-259 75q-201 0 -326 -142t-125 -348t125 -349q125 -144 326 -144q307 0 403 281h63q-45 -158 -165 -249t-301 -91z" />
    <glyph glyph-name="ccaron.sc" unicode="&#xf672;" horiz-adv-x="1177" 
d="M588 1229l-264 336h65l229 -295l230 295h65l-264 -336h-61zM621 -18q-229 0 -374 162t-145 390q0 230 144 390t375 159q182 0 303 -91t163 -247h-63q-41 129 -144 204t-259 75q-201 0 -326 -142t-125 -348t125 -349q125 -144 326 -144q307 0 403 281h63
q-45 -158 -165 -249t-301 -91z" />
    <glyph glyph-name="ccircumflex.sc" unicode="&#xf673;" horiz-adv-x="1177" 
d="M324 1229l264 336h61l264 -336h-65l-230 295l-229 -295h-65zM621 -18q-229 0 -374 162t-145 390q0 230 144 390t375 159q182 0 303 -91t163 -247h-63q-41 129 -144 204t-259 75q-201 0 -326 -142t-125 -348t125 -349q125 -144 326 -144q307 0 403 281h63
q-45 -158 -165 -249t-301 -91z" />
    <glyph glyph-name="cdotaccent.sc" unicode="&#xf674;" horiz-adv-x="1177" 
d="M586 1309v176h65v-176h-65zM621 -18q-229 0 -374 162t-145 390q0 230 144 390t375 159q182 0 303 -91t163 -247h-63q-41 129 -144 204t-259 75q-201 0 -326 -142t-125 -348t125 -349q125 -144 326 -144q307 0 403 281h63q-45 -158 -165 -249t-301 -91z" />
    <glyph glyph-name="dcaron.sc" unicode="&#xf675;" horiz-adv-x="1181" 
d="M526 1229l-264 336h66l229 -295l229 295h66l-264 -336h-62zM498 1008h-236v-951h236q254 0 385 132t131 344q0 211 -131 343t-385 132zM199 0v1065h299q280 0 432 -146q152 -147 152 -385t-154 -386q-152 -148 -430 -148h-299z" />
    <glyph glyph-name="dcroat.sc" unicode="&#xf676;" horiz-adv-x="1181" 
d="M498 1008h-236v-449h240v-51h-240v-451h236q254 0 385 132t131 344q0 211 -131 343t-385 132zM8 508v51h191v506h299q280 0 432 -146q152 -147 152 -385t-154 -386q-152 -148 -430 -148h-299v508h-191z" />
    <glyph glyph-name="ebreve.sc" unicode="&#xf677;" horiz-adv-x="1032" 
d="M565 1276q-104 0 -177 61t-89 193h45q33 -209 221 -209t219 209h47q-16 -130 -89 -192t-177 -62zM199 0v1065h725v-57h-662v-437h543v-55h-543v-459h678v-57h-741z" />
    <glyph glyph-name="ecaron.sc" unicode="&#xf678;" horiz-adv-x="1032" 
d="M535 1229l-265 336h66l229 -295l230 295h65l-264 -336h-61zM199 0v1065h725v-57h-662v-437h543v-55h-543v-459h678v-57h-741z" />
    <glyph glyph-name="edotaccent.sc" unicode="&#xf679;" horiz-adv-x="1032" 
d="M532 1309v176h66v-176h-66zM199 0v1065h725v-57h-662v-437h543v-55h-543v-459h678v-57h-741z" />
    <glyph glyph-name="emacron.sc" unicode="&#xf67a;" horiz-adv-x="1032" 
d="M285 1368v51h565v-51h-565zM199 0v1065h725v-57h-662v-437h543v-55h-543v-459h678v-57h-741z" />
    <glyph glyph-name="eng.sc" unicode="&#xf67b;" horiz-adv-x="1228" 
d="M199 0v1065h59l707 -954h2v954h63v-1217q0 -158 -66 -228t-196 -71h-98v60h96q201 0 201 241v158l-703 946h-2v-954h-63z" />
    <glyph glyph-name="eogonek.sc" unicode="&#xf67c;" horiz-adv-x="1032" 
d="M199 0v1065h725v-57h-662v-437h543v-55h-543v-459h678v-57h-4q-127 -143 -127 -252q0 -127 141 -127h72v-49h-80q-92 0 -140 45t-48 121q0 123 135 262h-690z" />
    <glyph glyph-name="gbreve.sc" unicode="&#xf67d;" horiz-adv-x="1263" 
d="M641 1276q-104 0 -177 61t-89 193h45q33 -209 221 -209t219 209h47q-16 -130 -89 -192t-177 -62zM635 492v55h469v-547h-47l-8 223q-53 -121 -165 -181t-259 -60q-229 0 -375 161t-146 395t151 390t388 155q184 0 304 -92t153 -235h-68q-29 116 -129 192t-260 76
q-209 0 -340 -138t-131 -348t126 -354q126 -143 316 -143t310 94q119 94 118 275v82h-407z" />
    <glyph glyph-name="gcircumflex.sc" unicode="&#xf67e;" horiz-adv-x="1263" 
d="M346 1229l264 336h62l264 -336h-66l-229 295l-229 -295h-66zM635 492v55h469v-547h-47l-8 223q-53 -121 -165 -181t-259 -60q-229 0 -375 161t-146 395t151 390t388 155q184 0 304 -92t153 -235h-68q-29 116 -129 192t-260 76q-209 0 -340 -138t-131 -348t126 -354
q126 -143 316 -143t310 94q119 94 118 275v82h-407z" />
    <glyph glyph-name="gcommaaccent.sc" unicode="&#xf67f;" horiz-adv-x="1263" 
d="M592 -129h65v-133l-67 -217h-33l57 217h-22v133zM635 492v55h469v-547h-47l-8 223q-53 -121 -165 -181t-259 -60q-229 0 -375 161t-146 395t151 390t388 155q184 0 304 -92t153 -235h-68q-29 116 -129 192t-260 76q-209 0 -340 -138t-131 -348t126 -354
q126 -143 316 -143t310 94q119 94 118 275v82h-407z" />
    <glyph glyph-name="gdotaccent.sc" unicode="&#xf680;" horiz-adv-x="1263" 
d="M608 1309v176h66v-176h-66zM635 492v55h469v-547h-47l-8 223q-53 -121 -165 -181t-259 -60q-229 0 -375 161t-146 395t151 390t388 155q184 0 304 -92t153 -235h-68q-29 116 -129 192t-260 76q-209 0 -340 -138t-131 -348t126 -354q126 -143 316 -143t310 94
q119 94 118 275v82h-407z" />
    <glyph glyph-name="hbar.sc" unicode="&#xf681;" horiz-adv-x="1222" 
d="M262 805v-238h699v238h-699zM14 805v49h185v211h63v-211h699v211h65v-211h184v-49h-184v-805h-65v510h-699v-510h-63v805h-185z" />
    <glyph glyph-name="hcircumflex.sc" unicode="&#xf682;" horiz-adv-x="1222" 
d="M315 1229l265 336h61l264 -336h-65l-230 295l-229 -295h-66zM199 0v1065h63v-498h699v498h65v-1065h-65v510h-699v-510h-63z" />
    <glyph glyph-name="ibreve.sc" unicode="&#xf683;" horiz-adv-x="460" 
d="M229 1276q-104 0 -177 61t-89 193h45q33 -209 221 -209t220 209h47q-16 -131 -89 -193q-74 -61 -178 -61zM199 0v1065h63v-1065h-63z" />
    <glyph glyph-name="ij.sc" unicode="&#xf684;" horiz-adv-x="1353" 
d="M567 293v61h64v-57q0 -131 64 -195q65 -63 177 -63q112 -1 180 65q69 66 68 195v766h64v-766q0 -158 -86 -238q-86 -79 -226 -79t-222 76q-83 76 -83 235zM199 0v1065h63v-1065h-63z" />
    <glyph glyph-name="imacron.sc" unicode="&#xf685;" horiz-adv-x="460" 
d="M-51 1368v51h565v-51h-565zM199 0v1065h63v-1065h-63z" />
    <glyph glyph-name="iogonek.sc" unicode="&#xf686;" horiz-adv-x="460" 
d="M199 0v1065h63v-1065q-127 -143 -127 -252q0 -127 141 -127h72v-49h-80q-92 0 -140 45t-48 121q0 123 135 262h-16z" />
    <glyph glyph-name="itilde.sc" unicode="&#xf687;" horiz-adv-x="460" 
d="M84 1479q60 -1 160 -59t139 -58q86 0 102 123h39q-6 -70 -42 -120t-97 -50t-159 58t-138 59q-86 0 -102 -123h-41q6 74 43 122t96 48zM199 0v1065h63v-1065h-63z" />
    <glyph glyph-name="jcircumflex.sc" unicode="&#xf688;" horiz-adv-x="890" 
d="M397 1229l265 336h61l264 -336h-65l-230 295l-229 -295h-66zM104 293v61h64v-61q0 -252 244 -252q110 0 178 63t67 193v768h66v-766q0 -156 -87 -236q-87 -79 -226 -79t-223 76q-83 77 -83 233z" />
    <glyph glyph-name="kcommaaccent.sc" unicode="&#xf689;" horiz-adv-x="1099" 
d="M535 -129h65v-133l-68 -217h-32l57 217h-22v133zM199 0v1065h63v-700l670 700h80l-445 -461l475 -604h-77l-441 559l-262 -272v-287h-63z" />
    <glyph glyph-name="lacute.sc" unicode="&#xf68a;" horiz-adv-x="925" 
d="M201 1229l223 336h78l-250 -336h-51zM199 0v1065h63v-1006h619v-59h-682z" />
    <glyph glyph-name="lcaron.sc" unicode="&#xf68b;" horiz-adv-x="925" 
d="M645 932v133h64v-129l-68 -221h-31l58 217h-23zM199 0v1065h63v-1008h619v-57h-682z" />
    <glyph glyph-name="lcommaaccent.sc" unicode="&#xf68c;" horiz-adv-x="925" 
d="M496 -129h65v-133l-67 -217h-33l57 217h-22v133zM199 0v1065h63v-1006h619v-59h-682z" />
    <glyph glyph-name="ldot.sc" unicode="&#xf68d;" horiz-adv-x="925" 
d="M559 451v178h66v-178h-66zM199 0v1065h63v-1008h619v-57h-682z" />
    <glyph glyph-name="nacute.sc" unicode="&#xf68e;" horiz-adv-x="1228" 
d="M586 1229l223 336h78l-250 -336h-51zM199 0v1065h59l707 -954h2v954h63v-1065h-59l-707 956h-2v-956h-63z" />
    <glyph glyph-name="ncaron.sc" unicode="&#xf68f;" horiz-adv-x="1228" 
d="M584 1229l-265 336h66l229 -295l230 295h65l-264 -336h-61zM199 0v1065h59l707 -954h2v954h63v-1065h-59l-707 956h-2v-956h-63z" />
    <glyph glyph-name="ncommaaccent.sc" unicode="&#xf690;" horiz-adv-x="1228" 
d="M582 -129h65v-133l-67 -217h-33l57 217h-22v133zM199 0v1065h59l707 -954h2v954h63v-1065h-59l-707 956h-2v-956h-63z" />
    <glyph glyph-name="obreve.sc" unicode="&#xf691;" horiz-adv-x="1247" 
d="M625 1276q-104 0 -178 61q-73 61 -89 193h45q33 -209 221 -209t220 209h47q-16 -130 -89 -192t-177 -62zM170 532q0 -211 128 -351t326 -140t326 141t129 350q0 208 -129 350q-128 142 -326 142t-326 -140t-128 -352zM102 532q0 236 148 394t372 158t374 -158t151 -392
q0 -234 -151 -394q-152 -158 -374 -158t-371 157t-149 393z" />
    <glyph glyph-name="ohungarumlaut.sc" unicode="&#xf692;" horiz-adv-x="1247" 
d="M422 1229l223 336h76l-250 -336h-49zM772 1229l223 336h78l-250 -336h-51zM170 532q0 -211 128 -351t326 -140t326 141t129 350q0 208 -129 350q-128 142 -326 142t-326 -140t-128 -352zM102 532q0 236 148 394t372 158t374 -158t151 -392q0 -234 -151 -394
q-152 -158 -374 -158t-371 157t-149 393z" />
    <glyph glyph-name="omacron.sc" unicode="&#xf693;" horiz-adv-x="1247" 
d="M344 1368v51h565v-51h-565zM170 532q0 -211 128 -351t326 -140t326 141t129 350q0 208 -129 350q-128 142 -326 142t-326 -140t-128 -352zM102 532q0 236 148 394t372 158t374 -158t151 -392q0 -234 -151 -394q-152 -158 -374 -158t-371 157t-149 393z" />
    <glyph glyph-name="oslashacute.sc" unicode="&#xf694;" horiz-adv-x="1247" 
d="M596 1229l223 336h78l-250 -336h-51zM638 41q184 0 312 141t129 349q0 208 -129 350l-620 -731q124 -109 308 -109zM610 1024q-184 0 -312 -140t-128 -353q0 -212 127 -351l621 733q-124 111 -308 111zM100 530q0 238 148 396t377 157q188 0 333 -122l105 122h59
l-131 -153q156 -162 156 -396t-151 -394q-150 -158 -358 -158t-349 118l-101 -118h-59l127 149q-156 161 -156 399z" />
    <glyph glyph-name="racute.sc" unicode="&#xf695;" horiz-adv-x="1112" 
d="M522 1229l223 336h78l-250 -336h-51zM631 1008h-369v-484h369q133 0 207 67t74 179t-74 176q-72 62 -207 62zM199 0v1065h432q168 0 257 -78t89 -212t-80 -215t-223 -91l327 -469h-71l-326 467h-342v-467h-63z" />
    <glyph glyph-name="rcaron.sc" unicode="&#xf696;" horiz-adv-x="1112" 
d="M520 1229l-264 336h66l229 -295l229 295h66l-264 -336h-62zM631 1008h-369v-484h369q133 0 207 67t74 179t-74 176q-72 62 -207 62zM199 0v1065h432q168 0 257 -78t89 -212t-80 -215t-223 -91l327 -469h-71l-326 467h-342v-467h-63z" />
    <glyph glyph-name="rcommaaccent.sc" unicode="&#xf697;" horiz-adv-x="1112" 
d="M524 -129h66v-133l-68 -217h-33l58 217h-23v133zM631 1008h-369v-484h369q133 0 207 67t74 179t-74 176q-72 62 -207 62zM199 0v1065h432q168 0 257 -78t89 -212t-80 -215t-223 -91l327 -469h-71l-326 467h-342v-467h-63z" />
    <glyph glyph-name="sacute.sc" unicode="&#xf698;" horiz-adv-x="1024" 
d="M489 1229l224 336h78l-250 -336h-52zM109 293h63q0 -123 96 -190t251 -67t241 68t86 176t-74 157t-178 67t-210 36t-179 80q-74 62 -74 183q1 121 105 201t280 80t280 -82q104 -81 103 -209h-63q0 102 -86 169q-86 66 -234 66t-234 -61t-85 -161q0 -179 253 -218
q105 -16 210 -36q106 -20 180 -82t74 -190t-105 -213t-289 -85t-298 83q-113 83 -113 228z" />
    <glyph glyph-name="scedilla.sc" unicode="&#xf699;" horiz-adv-x="1024" 
d="M109 293h63q0 -123 96 -190t251 -67t241 68t86 176t-74 157t-178 67t-210 36t-179 80q-74 62 -74 183q1 121 105 201t280 80t280 -82q104 -81 103 -209h-63q0 102 -86 169q-86 66 -234 66t-234 -61t-85 -161q0 -179 253 -218q105 -16 210 -36q106 -20 180 -82t74 -189
t-102 -212q-101 -85 -280 -87l-26 -78q90 -2 138 -48t48 -115t-48 -119t-148 -50h-99v45h95q76 0 110 36t35 89q0 53 -38 87t-112 34h-38l49 119q-178 6 -284 88q-105 82 -105 223z" />
    <glyph glyph-name="scircumflex.sc" unicode="&#xf69a;" horiz-adv-x="1024" 
d="M223 1229l264 336h62l264 -336h-65l-230 295l-229 -295h-66zM109 293h63q0 -123 96 -190t251 -67t241 68t86 176t-74 157t-178 67t-210 36t-179 80q-74 62 -74 183q1 121 105 201t280 80t280 -82q104 -81 103 -209h-63q0 102 -86 169q-86 66 -234 66t-234 -61t-85 -161
q0 -179 253 -218q105 -16 210 -36q106 -20 180 -82t74 -190t-105 -213t-289 -85t-298 83q-113 83 -113 228z" />
    <glyph glyph-name="scommaaccent.sc" unicode="&#xf69b;" horiz-adv-x="1024" 
d="M489 -129h66v-133l-68 -217h-32l57 217h-23v133zM109 293h63q0 -123 96 -190t251 -67t241 68t86 176t-74 157t-178 67t-210 36t-179 80q-74 62 -74 183q1 121 105 201t280 80t280 -82q104 -81 103 -209h-63q0 102 -86 169q-86 66 -234 66t-234 -61t-85 -161
q0 -179 253 -218q105 -16 210 -36q106 -20 180 -82t74 -190t-105 -213t-289 -85t-298 83q-113 83 -113 228z" />
    <glyph glyph-name="tbar.sc" unicode="&#xf69c;" horiz-adv-x="964" 
d="M29 1008v57h909v-57h-422v-459h322v-49h-322v-500h-65v500h-318v49h318v459h-422z" />
    <glyph glyph-name="tcaron.sc" unicode="&#xf69d;" horiz-adv-x="964" 
d="M451 1229l-265 336h66l229 -295l230 295h65l-264 -336h-61zM29 1008v57h909v-57h-422v-1008h-65v1008h-422z" />
    <glyph glyph-name="tcommaaccent.sc" unicode="&#xf69e;" horiz-adv-x="964" 
d="M451 0v1008h-422v57h909v-57h-422v-1008h-14l-33 -96q90 -2 138 -48t48 -115t-48 -119t-148 -50h-99v45h95q77 0 111 36t34 89t-38 87t-111 34h-39l57 137h-18z" />
    <glyph glyph-name="ubreve.sc" unicode="&#xf69f;" horiz-adv-x="1181" 
d="M590 1276q-104 0 -177 61t-89 193h45q33 -209 221 -209t219 209h47q-16 -130 -89 -192t-177 -62zM170 420v645h66v-645q0 -184 93 -282t260 -97q167 0 261 96t94 283v645h66v-645q0 -219 -114 -328q-114 -108 -308 -108t-306 108t-112 328z" />
    <glyph glyph-name="uhungarumlaut.sc" unicode="&#xf6a0;" horiz-adv-x="1181" 
d="M387 1229l223 336h76l-250 -336h-49zM737 1229l224 336h77l-250 -336h-51zM170 420v645h66v-645q0 -184 93 -282t260 -97q167 0 261 96t94 283v645h66v-645q0 -219 -114 -328q-114 -108 -308 -108t-306 108t-112 328z" />
    <glyph glyph-name="umacron.sc" unicode="&#xf6a1;" horiz-adv-x="1181" 
d="M309 1368v51h565v-51h-565zM170 420v645h66v-645q0 -184 93 -282t260 -97q167 0 261 96t94 283v645h66v-645q0 -219 -114 -328q-114 -108 -308 -108t-306 108t-112 328z" />
    <glyph glyph-name="uogonek.sc" unicode="&#xf6a2;" horiz-adv-x="1181" 
d="M541 -266q0 123 196 268q-68 -18 -149 -18q-194 0 -306 108t-112 328v645h66v-645q0 -184 93 -282t260 -97q167 0 261 96t94 283v645h66v-645q0 -246 -152 -361q-262 -199 -262 -319t143 -121h72v-47h-78q-192 0 -192 162z" />
    <glyph glyph-name="uring.sc" unicode="&#xf6a3;" horiz-adv-x="1181" 
d="M590 1278q55 0 97 39t42 100t-42 101t-97 38q-55 0 -97 -38t-42 -100t42 -101t97 -39zM590 1239q-72 0 -127 50t-55 129t55 128t127 49t127 -49t55 -128t-55 -129t-127 -50zM170 420v645h66v-645q0 -184 93 -282t260 -97q167 0 261 96t94 283v645h66v-645
q0 -219 -114 -328q-114 -108 -308 -108t-306 108t-112 328z" />
    <glyph glyph-name="utilde.sc" unicode="&#xf6a4;" horiz-adv-x="1181" 
d="M444 1479q60 -1 160 -59t139 -58q86 0 103 123h39q-6 -70 -42 -120q-35 -50 -97 -50t-160 58t-137 59q-86 0 -103 -123h-41q6 74 43 122q36 48 96 48zM170 420v645h66v-645q0 -184 93 -282t260 -97q167 0 261 96t94 283v645h66v-645q0 -219 -114 -328
q-114 -108 -308 -108t-306 108t-112 328z" />
    <glyph glyph-name="wacute.sc" unicode="&#xf6a5;" horiz-adv-x="1476" 
d="M711 1229l223 336h78l-250 -336h-51zM338 0l-305 1065h67l281 -993h4l324 993h65l324 -993h4l278 993h66l-303 -1065h-84l-318 979h-4l-315 -979h-84z" />
    <glyph glyph-name="wcircumflex.sc" unicode="&#xf6a6;" horiz-adv-x="1476" 
d="M444 1229l265 336h61l264 -336h-65l-230 295l-229 -295h-66zM338 0l-305 1065h67l281 -993h4l324 993h65l324 -993h4l278 993h66l-303 -1065h-84l-318 979h-4l-315 -979h-84z" />
    <glyph glyph-name="wdieresis.sc" unicode="&#xf6a7;" horiz-adv-x="1476" 
d="M514 1309v176h64v-176h-64zM905 1309v176h66v-176h-66zM338 0l-305 1065h67l281 -993h4l324 993h65l324 -993h4l278 993h66l-303 -1065h-84l-318 979h-4l-315 -979h-84z" />
    <glyph glyph-name="wgrave.sc" unicode="&#xf6a8;" horiz-adv-x="1476" 
d="M717 1229l-250 336h78l223 -336h-51zM338 0l-305 1065h67l281 -993h4l324 993h65l324 -993h4l278 993h66l-303 -1065h-84l-318 979h-4l-315 -979h-84z" />
    <glyph glyph-name="ycircumflex.sc" unicode="&#xf6a9;" horiz-adv-x="927" 
d="M168 1229l264 336h62l264 -336h-66l-229 295l-230 -295h-65zM430 0v434l-416 631h76l373 -567h4l375 567h69l-415 -629v-436h-66z" />
    <glyph glyph-name="ygrave.sc" unicode="&#xf6aa;" horiz-adv-x="927" 
d="M440 1229l-250 336h78l224 -336h-52zM430 0v434l-416 631h76l373 -567h4l375 567h69l-415 -629v-436h-66z" />
    <glyph glyph-name="zacute.sc" unicode="&#xf6ab;" horiz-adv-x="964" 
d="M453 1229l223 336h78l-250 -336h-51zM106 1008v57h766v-39l-710 -969h702v-57h-788v39l708 969h-678z" />
    <glyph glyph-name="zdotaccent.sc" unicode="&#xf6ac;" horiz-adv-x="964" 
d="M449 1309v176h65v-176h-65zM106 1008v57h766v-39l-710 -969h702v-57h-788v39l708 969h-678z" />
    <glyph glyph-name="idotaccent.sc" unicode="&#xf6ad;" horiz-adv-x="460" 
d="M197 1309v176h65v-176h-65zM199 0v1065h63v-1065h-63z" />
    <glyph glyph-name="parenleft.cap" unicode="&#xf6ae;" horiz-adv-x="587" 
d="M199 705q0 239 82 451t204 368h62q-119 -162 -202 -375t-83 -444t83 -445t202 -375h-62q-123 156 -204 368q-82 212 -82 452z" />
    <glyph glyph-name="parenright.cap" unicode="&#xf6af;" horiz-adv-x="587" 
d="M328 704q0 422 -285 820h61q123 -156 205 -368t82 -452t-82 -451q-82 -212 -205 -368h-61q285 397 285 819z" />
    <glyph glyph-name="bracketleft.cap" unicode="&#xf6b0;" horiz-adv-x="600" 
d="M199 -115v1639h356v-56h-295v-1527h295v-56h-356z" />
    <glyph glyph-name="bracketright.cap" unicode="&#xf6b1;" horiz-adv-x="600" 
d="M43 -59h297v1527h-297v56h358v-1639h-358v56z" />
    <glyph glyph-name="braceleft.cap" unicode="&#xf6b2;" horiz-adv-x="739" 
d="M328 186v252q0 119 -50 170t-174 76v47q125 25 175 77q49 52 49 171v244q0 145 71 223q72 78 209 78h88v-54h-88q-106 0 -162 -62t-57 -181v-262q0 -111 -49 -167t-162 -89v-2q113 -31 162 -87t49 -169v-269q0 -119 56 -181t163 -62h88v-54h-88q-137 0 -209 78
q-71 78 -71 223z" />
    <glyph glyph-name="braceright.cap" unicode="&#xf6b3;" horiz-adv-x="739" 
d="M43 -61h88q106 0 163 62q56 62 56 181v269q0 113 50 169t161 87v2q-111 31 -161 88t-50 168v262q0 119 -56 181t-163 62h-88v54h90q135 0 207 -78t72 -223v-244q0 -119 50 -171t175 -77v-47q-125 -25 -175 -76t-50 -170v-252q0 -145 -72 -223t-207 -78h-90v54z" />
    <glyph glyph-name="exclamdown.cap" unicode="&#xf6b4;" horiz-adv-x="436" 
d="M182 0v346l15 688h43l14 -688v-346h-72zM182 1223v186h72v-186h-72z" />
    <glyph glyph-name="questiondown.cap" unicode="&#xf6b5;" horiz-adv-x="923" 
d="M436 944v64h66v-58q0 -84 -27 -150t-67 -106q-82 -81 -173 -160q-92 -79 -92 -212q0 -132 87 -206t232 -75q146 0 236 94t90 271h66q0 -199 -109 -311q-109 -111 -283 -111t-280 88t-106 251q0 162 127 269q53 45 106 88q127 103 127 264zM432 1223v186h72v-186h-72z" />
    <glyph glyph-name="guillemotleft.cap" unicode="&#xf6b6;" horiz-adv-x="1009" 
d="M426 295l-301 418l301 417h55l-284 -417l284 -418h-55zM831 295l-303 418l303 417h56l-287 -417l287 -418h-56z" />
    <glyph glyph-name="guillemotright.cap" unicode="&#xf6b7;" horiz-adv-x="1009" 
d="M123 295l285 418l-285 417h53l303 -417l-303 -418h-53zM526 295l287 418l-287 417h56l303 -417l-303 -418h-56z" />
    <glyph glyph-name="guilsinglleft.cap" unicode="&#xf6b8;" horiz-adv-x="604" 
d="M426 295l-301 418l301 417h55l-284 -417l284 -418h-55z" />
    <glyph glyph-name="guilsinglright.cap" unicode="&#xf6b9;" horiz-adv-x="604" 
d="M125 295l285 418l-285 417h53l303 -417l-303 -418h-53z" />
    <glyph glyph-name="hyphen.cap" unicode="&#xf6ba;" horiz-adv-x="811" 
d="M123 684v59h565v-59h-565z" />
    <glyph glyph-name="endash.cap" unicode="&#xf6bb;" horiz-adv-x="1138" 
d="M123 684v59h893v-59h-893z" />
    <glyph glyph-name="emdash.cap" unicode="&#xf6bc;" horiz-adv-x="1720" 
d="M123 684v59h1474v-59h-1474z" />
    <glyph glyph-name="periodcentered.cap" unicode="&#xf6bd;" horiz-adv-x="587" 
d="M254 621v184h80v-184h-80z" />
    <glyph glyph-name="dotlessj" unicode="&#xf6be;" horiz-adv-x="421" 
d="M178 -217v1216h66v-1226q0 -223 -215 -224h-56v58h50q79 0 117 40t38 136z" />
    <glyph glyph-name="space_uni0326" unicode="&#xf6c3;" horiz-adv-x="1089" 
d="M512 -129h66v-133l-68 -217h-33l58 217h-23v133z" />
    <glyph glyph-name="cent.inferior" unicode="&#xf6df;" 
d="M102 41q0 111 70 183t186 79v100h50v-100q90 -6 150 -56t71 -122h-60q-10 57 -60 94t-137 37q-88 0 -148 -58t-60 -156t60 -156t148 -58t137 36q50 36 60 93h60q-11 -70 -71 -120t-150 -58v-101h-50v101q-116 7 -186 79t-70 183z" />
    <glyph glyph-name="cent.superior" unicode="&#xf6e0;" 
d="M102 1368q0 110 70 182t186 80v101h50v-101q90 -6 150 -56t71 -122h-60q-10 57 -60 94t-137 37q-88 0 -148 -58q-60 -57 -60 -155t60 -156t148 -59q88 0 137 36q50 36 60 93h60q-11 -70 -71 -120t-150 -58v-100h-50v100q-116 8 -186 80t-70 182z" />
    <glyph glyph-name="comma.inferior" unicode="&#xf6e1;" horiz-adv-x="307" 
d="M121 -311v139h65v-137l-53 -209h-35l45 207h-22z" />
    <glyph glyph-name="comma.superior" unicode="&#xf6e2;" horiz-adv-x="307" 
d="M121 1016v139h65v-137l-53 -209h-35l45 207h-22z" />
    <glyph glyph-name="dollar.inferior" unicode="&#xf6e3;" 
d="M364 -274q90 0 148 40q57 40 57 106q0 116 -163 143q-68 11 -136 25t-116 56q-48 41 -48 119t64 130t166 58v111h51v-111q95 -6 155 -55t68 -135h-57q-8 72 -61 108q-54 35 -136 35t-136 -37t-54 -99t48 -94t116 -44t136 -26t115 -57q48 -42 48 -124t-66 -135t-172 -59
v-125h-49v125q-110 4 -178 58t-72 148h55q7 -77 67 -119t150 -42z" />
    <glyph glyph-name="dollar.superior" unicode="&#xf6e4;" 
d="M364 1053q90 0 148 40q57 40 57 106q0 116 -163 143q-68 12 -136 26t-116 55t-48 119t64 130t166 59v110h51v-110q95 -5 155 -55t68 -136h-57q-8 72 -61 108q-54 36 -136 36t-136 -38q-54 -36 -54 -98t48 -95q48 -32 116 -44q68 -13 136 -27t115 -56q48 -42 48 -124
t-66 -135t-172 -59v-125h-49v125q-110 4 -178 58t-72 148h55q7 -78 67 -120t150 -41z" />
    <glyph glyph-name="hyphen.inferior" unicode="&#xf6e5;" horiz-adv-x="567" 
d="M82 16v52h403v-52h-403z" />
    <glyph glyph-name="hyphen.superior" unicode="&#xf6e6;" horiz-adv-x="567" 
d="M82 1343v52h403v-52h-403z" />
    <glyph glyph-name="period.inferior" unicode="&#xf6e7;" horiz-adv-x="307" 
d="M121 -311v139h65v-139h-65z" />
    <glyph glyph-name="period.superior" unicode="&#xf6e8;" horiz-adv-x="307" 
d="M121 1016v139h65v-139h-65z" />
    <glyph glyph-name="a.superior" unicode="&#xf6e9;" horiz-adv-x="757" 
d="M139 1194q0 -68 46 -106q45 -38 143 -39t173 71t74 205v84q-20 -27 -79 -33l-191 -26q-166 -20 -166 -156zM78 1192q0 174 213 201l194 26q49 7 69 21t21 47q2 96 -51 147q-53 52 -143 52q-91 0 -151 -48t-68 -139h-56q8 115 85 175t191 60t184 -64q70 -65 71 -185v-469
h-57v137h-5q-33 -68 -105 -110t-170 -42q-98 1 -160 53t-62 138z" />
    <glyph glyph-name="b.superior" unicode="&#xf6ea;" horiz-adv-x="835" 
d="M184 1368q0 -139 72 -226t184 -87t184 87q73 87 72 228q0 141 -70 226t-180 85t-184 -83t-78 -216v-14zM123 1016v1057h61v-213q0 -236 -4 -301h2q33 82 106 128t165 46q137 1 221 -99t84 -263t-88 -265t-219 -102q-197 0 -267 170h-4v-158h-57z" />
    <glyph glyph-name="d.superior" unicode="&#xf6eb;" horiz-adv-x="835" 
d="M139 1366q0 -141 71 -226t181 -85t186 88q75 88 75 226t-72 225t-184 87t-184 -87t-73 -228zM76 1365q0 163 89 265t220 103q197 0 266 -170h4q-4 66 -4 295v215h62v-1057h-58v160h-4q-35 -82 -105 -127t-163 -45q-137 0 -222 99t-85 262z" />
    <glyph glyph-name="e.superior" unicode="&#xf6ec;" horiz-adv-x="768" 
d="M391 1686q-100 0 -169 -73t-81 -194h490q-6 123 -73 195t-167 72zM76 1365q0 165 89 268t224 103t219 -92q84 -93 84 -249v-21h-553v-6q0 -147 68 -232t175 -85t170 48q62 48 75 130h57q-14 -101 -94 -165t-212 -64t-217 100t-85 265z" />
    <glyph glyph-name="i.superior" unicode="&#xf6ed;" horiz-adv-x="303" 
d="M121 1016v704h61v-704h-61zM119 1937v136h65v-136h-65z" />
    <glyph glyph-name="l.superior" unicode="&#xf6ee;" horiz-adv-x="307" 
d="M125 1016v1057h59v-1057h-59z" />
    <glyph glyph-name="m.superior" unicode="&#xf6ef;" horiz-adv-x="1284" 
d="M123 1016v704h57v-151h2q33 80 99 122t147 42q190 0 238 -185q66 184 256 185q110 0 180 -70t69 -217v-430h-63v420q0 244 -201 243q-94 1 -162 -77t-67 -220v-366h-62v420q0 244 -202 243q-92 1 -161 -77t-69 -220v-366h-61z" />
    <glyph glyph-name="o.superior" unicode="&#xf6f0;" horiz-adv-x="808" 
d="M139 1368q0 -139 74 -226t190 -87q115 0 191 88t76 227t-73 225t-189 86t-193 -87q-76 -87 -76 -226zM76 1367q0 163 94 264t238 101t235 -100q90 -100 90 -263t-93 -264t-237 -101t-236 100q-91 100 -91 263z" />
    <glyph glyph-name="r.superior" unicode="&#xf6f1;" horiz-adv-x="507" 
d="M123 1016v704h57v-147h4q57 160 199 160q68 0 111 -37l-19 -51q-43 33 -98 32q-88 0 -140 -88t-53 -217v-356h-61z" />
    <glyph glyph-name="s.superior" unicode="&#xf6f2;" horiz-adv-x="731" 
d="M160 1546q0 -64 39 -92q39 -27 118 -41l134 -22q98 -17 147 -59t49 -134t-77 -143t-197 -51q-277 -1 -289 208h57q8 -160 232 -159q94 0 154 37q61 36 61 106t-39 100t-123 43l-135 25q-90 16 -140 54q-51 38 -51 125t75 138t190 52q258 0 270 -205h-57q-8 156 -211 155
q-92 0 -150 -36q-57 -37 -57 -101z" />
    <glyph glyph-name="t.superior" unicode="&#xf6f3;" horiz-adv-x="497" 
d="M170 1217v454h-154v49h154v213h61v-213h222v-49h-222v-450q0 -82 32 -117t104 -35h86v-53h-93q-100 0 -145 46t-45 155z" />
    <glyph glyph-name="lslash.sc" unicode="&#xf6f9;" horiz-adv-x="925" 
d="M199 1065h63v-549l281 242l28 -41l-309 -266v-394h619v-57h-682v395l-136 -114l-30 38l166 142v604z" />
    <glyph glyph-name="oe.sc" unicode="&#xf6fa;" horiz-adv-x="1740" 
d="M684 1008q-252 0 -383 -132t-131 -345q0 -212 131 -343t383 -131h221v951h-221zM1630 1008h-659v-437h540v-55h-540v-459h676v-57h-963q-280 0 -432 146t-152 384t153 386t431 149h946v-57z" />
    <glyph glyph-name="scaron.sc" unicode="&#xf6fd;" horiz-adv-x="1024" 
d="M487 1229l-264 336h66l229 -295l230 295h65l-264 -336h-62zM109 293h63q0 -123 96 -190t251 -67t241 68t86 176t-74 157t-178 67t-210 36t-179 80q-74 62 -74 183q1 121 105 201t280 80t280 -82q104 -81 103 -209h-63q0 102 -86 169q-86 66 -234 66t-234 -61t-85 -161
q0 -179 253 -218q105 -16 210 -36q106 -20 180 -82t74 -190t-105 -213t-289 -85t-298 83q-113 83 -113 228z" />
    <glyph glyph-name="zcaron.sc" unicode="&#xf6ff;" horiz-adv-x="964" 
d="M451 1229l-265 336h66l229 -295l230 295h65l-264 -336h-61zM106 1008v57h766v-39l-710 -969h702v-57h-788v39l708 969h-678z" />
    <glyph glyph-name="exclam.sc" unicode="&#xf721;" horiz-adv-x="436" 
d="M182 0v156h72v-156h-72zM182 1065h72v-262l-16 -514h-39l-17 514v262z" />
    <glyph glyph-name="ampersand.sc" unicode="&#xf726;" horiz-adv-x="1132" 
d="M524 1032q-98 0 -158 -53t-59 -142q0 -89 154 -239q92 43 137 67q45 25 89 73t44 119t-54 123q-55 52 -153 52zM504 37q219 0 332 137l-390 367q-124 -57 -192 -119t-68 -164q0 -103 86 -162t232 -59zM121 253q0 123 76 191t213 131q-86 83 -123 141t-37 124
q0 104 76 174t200 70t195 -66q70 -66 70 -171t-95 -174q-73 -53 -198 -110l370 -346q76 121 76 285v30h57v-30q0 -182 -92 -324l191 -178h-78l-145 135q-129 -154 -373 -153q-178 0 -281 74q-102 75 -102 197z" />
    <glyph glyph-name="zero.oldstyle" unicode="&#xf730;" horiz-adv-x="1138" 
d="M572 961q-180 0 -298 -129t-118 -333t116 -332t295 -128q180 0 298 129t118 334t-115 332t-296 127zM1051 502q1 -228 -137 -374t-349 -146t-344 144t-133 373q0 228 137 373q137 146 348 146t345 -144t133 -372z" />
    <glyph glyph-name="one.oldstyle" unicode="&#xf731;" horiz-adv-x="604" 
d="M410 1006v-1006h-66v924l-297 -203l-29 49l342 236h50z" />
    <glyph glyph-name="two.oldstyle" unicode="&#xf732;" horiz-adv-x="956" 
d="M92 0q0 164 86 261t244 173l104 49q78 37 110 53t78 51q46 33 63 71t18 90q0 92 -81 153q-80 61 -226 61t-238 -72q-92 -73 -100 -218h-60q6 174 119 260t281 86t268 -75q102 -75 102 -195q0 -92 -58 -162q-41 -54 -251 -152l-107 -49q-132 -63 -204 -141t-72 -187h715
v-57h-791z" />
    <glyph glyph-name="three.oldstyle" unicode="&#xf733;" horiz-adv-x="1015" 
d="M59 -2h64q0 -182 102 -276q103 -94 273 -93q170 0 275 92q105 91 105 243t-107 244q-108 92 -271 91h-84v57h84q135 0 229 84t94 222t-95 218t-230 81q-134 0 -228 -84t-94 -252h-59q0 188 109 290q110 103 273 103t275 -97t113 -259q0 -119 -72 -208t-178 -122v-4
q135 -33 221 -127t86 -232q0 -185 -125 -291t-323 -106t-317 108q-120 108 -120 318z" />
    <glyph glyph-name="four.oldstyle" unicode="&#xf734;" horiz-adv-x="1050" 
d="M725 70v825l-600 -825h600zM53 12v47l686 947h52v-936h213v-58h-213v-422h-66v422h-672z" />
    <glyph glyph-name="five.oldstyle" unicode="&#xf735;" horiz-adv-x="1003" 
d="M523 -371q159 0 262 111t103 293t-96 292q-97 110 -255 109q-193 0 -334 -215l-64 4l41 776h686v-59h-626l-35 -637h2q129 189 325 189t309 -124t113 -333t-123 -336t-308 -127t-293 105q-107 106 -130 268h66q18 -131 108 -223t249 -93z" />
    <glyph glyph-name="six.oldstyle" unicode="&#xf736;" horiz-adv-x="1069" 
d="M205 434q0 -74 16 -127q76 -268 340 -268q156 0 259 112q104 112 104 292q0 181 -98 291t-257 110q-160 0 -262 -113t-102 -297zM109 670q0 395 125 576q126 181 337 181q169 0 267 -100t116 -270h-63q-18 143 -98 228t-222 85q-182 0 -288 -166t-107 -532q0 -49 2 -80
q33 141 143 225t254 84q187 0 301 -126q114 -125 114 -331t-124 -334q-123 -128 -303 -128q-454 0 -454 688z" />
    <glyph glyph-name="seven.oldstyle" unicode="&#xf737;" horiz-adv-x="872" 
d="M33 940v59h807v-47l-637 -1362h-70l635 1350h-735z" />
    <glyph glyph-name="eight.oldstyle" unicode="&#xf738;" horiz-adv-x="1069" 
d="M537 766q137 0 230 84t93 222t-95 219t-228 81t-229 -81t-95 -219q-1 -138 93 -222t231 -84zM156 370q0 -150 105 -241q105 -90 275 -90t276 90q106 91 106 241t-109 244t-273 94t-272 -94t-108 -244zM92 371q0 139 86 236t219 130v4q-106 33 -177 121t-70 209
q0 162 111 259q112 97 276 97q163 0 275 -97t112 -259q0 -121 -71 -209t-177 -121v-4q133 -33 219 -130t86 -236q0 -181 -123 -285q-124 -104 -322 -104t-321 104t-123 285z" />
    <glyph glyph-name="nine.oldstyle" unicode="&#xf739;" horiz-adv-x="1064" 
d="M866 567q0 59 -14 121q-76 273 -356 273q-142 0 -245 -112t-103 -292t98 -291q98 -110 258 -110t261 112t101 299zM965 332q0 -760 -457 -760q-170 0 -271 101t-120 270h63q18 -141 102 -227t226 -87q389 0 389 699q0 18 -4 75q-33 -141 -143 -223t-252 -82
q-188 0 -301 126t-113 332t123 334t303 128q455 0 455 -686z" />
    <glyph glyph-name="question.sc" unicode="&#xf73f;" horiz-adv-x="872" 
d="M393 0v156h72v-156h-72zM395 305v41q0 137 120 221q50 35 101 68q121 78 121 180q0 103 -84 157t-216 54t-218 -70t-86 -196h-61q0 152 102 236t263 85q161 -1 262 -69t101 -192t-119 -205q-50 -33 -101 -67q-121 -79 -121 -198v-45h-64z" />
    <glyph glyph-name="a.sc" unicode="&#xf761;" horiz-adv-x="980" 
d="M492 995h-5l-235 -596h475zM27 0l426 1065h75l424 -1065h-67l-137 344h-519l-135 -344h-67z" />
    <glyph glyph-name="b.sc" unicode="&#xf762;" horiz-adv-x="1124" 
d="M633 1008h-371v-420h381q119 0 185 62t67 161q0 197 -262 197zM657 532h-395v-475h395q141 0 212 67t71 174q0 106 -73 170t-210 64zM199 0v1065h434q166 0 248 -67t82 -171q1 -104 -51 -172t-150 -90q244 -41 244 -279q0 -120 -90 -203t-259 -83h-458z" />
    <glyph glyph-name="c.sc" unicode="&#xf763;" horiz-adv-x="1177" 
d="M621 -18q-229 0 -374 162t-145 390q0 230 144 390t375 159q182 0 303 -91t163 -247h-63q-41 129 -144 204t-259 75q-201 0 -326 -142t-125 -348t125 -349q125 -144 326 -144q307 0 403 281h63q-45 -158 -165 -249t-301 -91z" />
    <glyph glyph-name="d.sc" unicode="&#xf764;" horiz-adv-x="1181" 
d="M498 1008h-236v-951h236q254 0 385 132t131 344q0 211 -131 343t-385 132zM199 0v1065h299q280 0 432 -146q152 -147 152 -385t-154 -386q-152 -148 -430 -148h-299z" />
    <glyph glyph-name="e.sc" unicode="&#xf765;" horiz-adv-x="1032" 
d="M199 0v1065h725v-57h-662v-437h543v-55h-543v-459h678v-57h-741z" />
    <glyph glyph-name="f.sc" unicode="&#xf766;" horiz-adv-x="962" 
d="M199 0v1065h716v-57h-653v-453h531v-55h-531v-500h-63z" />
    <glyph glyph-name="g.sc" unicode="&#xf767;" horiz-adv-x="1263" 
d="M635 492v55h469v-547h-47l-8 223q-53 -121 -165 -181t-259 -60q-229 0 -375 161t-146 395t151 390t388 155q184 0 304 -92t153 -235h-68q-29 116 -129 192t-260 76q-209 0 -340 -138t-131 -348t126 -354q126 -143 316 -143t310 94q119 94 118 275v82h-407z" />
    <glyph glyph-name="h.sc" unicode="&#xf768;" horiz-adv-x="1222" 
d="M199 0v1065h63v-498h699v498h65v-1065h-65v510h-699v-510h-63z" />
    <glyph glyph-name="i.sc" unicode="&#xf769;" horiz-adv-x="460" 
d="M199 0v1065h63v-1065h-63z" />
    <glyph glyph-name="j.sc" unicode="&#xf76a;" horiz-adv-x="890" 
d="M104 293v61h64v-61q0 -252 244 -252q110 0 178 63t67 193v768h66v-766q0 -156 -87 -236q-87 -79 -226 -79t-223 76q-83 77 -83 233z" />
    <glyph glyph-name="k.sc" unicode="&#xf76b;" horiz-adv-x="1099" 
d="M199 0v1065h63v-700l670 700h80l-445 -461l475 -604h-77l-441 559l-262 -272v-287h-63z" />
    <glyph glyph-name="l.sc" unicode="&#xf76c;" horiz-adv-x="925" 
d="M199 0v1065h63v-1006h619v-59h-682z" />
    <glyph glyph-name="m.sc" unicode="&#xf76d;" horiz-adv-x="1486" 
d="M199 0v1065h75l467 -981h4l467 981h76v-1065h-65l6 958h-4l-457 -958h-51l-455 958h-4l4 -958h-63z" />
    <glyph glyph-name="n.sc" unicode="&#xf76e;" horiz-adv-x="1228" 
d="M199 0v1065h59l707 -954h2v954h63v-1065h-59l-707 956h-2v-956h-63z" />
    <glyph glyph-name="o.sc" unicode="&#xf76f;" horiz-adv-x="1247" 
d="M170 532q0 -211 128 -351t326 -140t326 141t129 350q0 208 -129 350q-128 142 -326 142t-326 -140t-128 -352zM102 532q0 236 148 394t372 158t374 -158t151 -392q0 -234 -151 -394q-152 -158 -374 -158t-371 157t-149 393z" />
    <glyph glyph-name="p.sc" unicode="&#xf770;" horiz-adv-x="1064" 
d="M612 1008h-350v-539h350q137 0 214 74q77 73 77 195t-77 196t-214 74zM199 0v1065h413q168 0 262 -90q94 -91 94 -237t-94 -236t-262 -90h-350v-412h-63z" />
    <glyph glyph-name="q.sc" unicode="&#xf771;" horiz-adv-x="1247" 
d="M170 532q0 -211 128 -351t326 -140t326 141t129 350q0 208 -129 350q-128 142 -326 142t-326 -140t-128 -352zM102 532q0 236 148 394t372 158t374 -158t151 -409q0 -251 -193 -417l215 -223l-45 -41l-219 230q-127 -84 -280 -84q-225 0 -374 157t-149 393z" />
    <glyph glyph-name="r.sc" unicode="&#xf772;" horiz-adv-x="1112" 
d="M631 1008h-369v-484h369q133 0 207 67t74 179t-74 176q-72 62 -207 62zM199 0v1065h432q168 0 257 -78t89 -212t-80 -215t-223 -91l327 -469h-71l-326 467h-342v-467h-63z" />
    <glyph glyph-name="s.sc" unicode="&#xf773;" horiz-adv-x="1024" 
d="M109 293h63q0 -123 96 -190t251 -67t241 68t86 176t-74 157t-178 67t-210 36t-179 80q-74 62 -74 183q1 121 105 201t280 80t280 -82q104 -81 103 -209h-63q0 102 -86 169q-86 66 -234 66t-234 -61t-85 -161q0 -179 253 -218q105 -16 210 -36q106 -20 180 -82t74 -190
t-105 -213t-289 -85t-298 83q-113 83 -113 228z" />
    <glyph glyph-name="t.sc" unicode="&#xf774;" horiz-adv-x="964" 
d="M29 1008v57h909v-57h-422v-1008h-65v1008h-422z" />
    <glyph glyph-name="u.sc" unicode="&#xf775;" horiz-adv-x="1181" 
d="M170 420v645h66v-645q0 -184 93 -282t260 -97q167 0 261 96t94 283v645h66v-645q0 -219 -114 -328q-114 -108 -308 -108t-306 108t-112 328z" />
    <glyph glyph-name="v.sc" unicode="&#xf776;" horiz-adv-x="976" 
d="M449 0l-422 1065h69l393 -995h3l391 995h67l-424 -1065h-77z" />
    <glyph glyph-name="w.sc" unicode="&#xf777;" horiz-adv-x="1476" 
d="M338 0l-305 1065h67l281 -993h4l324 993h65l324 -993h4l278 993h66l-303 -1065h-84l-318 979h-4l-315 -979h-84z" />
    <glyph glyph-name="x.sc" unicode="&#xf778;" horiz-adv-x="958" 
d="M41 0l399 543l-389 522h76l350 -473l348 473h72l-385 -520l408 -545h-72l-373 496l-366 -496h-68z" />
    <glyph glyph-name="y.sc" unicode="&#xf779;" horiz-adv-x="927" 
d="M430 0v434l-416 631h76l373 -567h4l375 567h69l-415 -629v-436h-66z" />
    <glyph glyph-name="z.sc" unicode="&#xf77a;" horiz-adv-x="964" 
d="M106 1008v57h766v-39l-710 -969h702v-57h-788v39l708 969h-678z" />
    <glyph glyph-name="exclamdown.sc" unicode="&#xf7a1;" horiz-adv-x="436" 
d="M182 0v262l17 514h39l16 -514v-262h-72zM182 909v156h72v-156h-72z" />
    <glyph glyph-name="questiondown.sc" unicode="&#xf7bf;" horiz-adv-x="872" 
d="M477 1065v-156h-69v156h69zM475 760v-41q0 -137 -120 -221q-50 -35 -100 -68q-120 -79 -120 -181q0 -101 84 -155t216 -55q132 0 218 69t86 197h62q-1 -153 -103 -237t-263 -84t-262 68t-101 192q0 123 119 206q51 34 101 68q120 80 120 197v45h63z" />
    <glyph glyph-name="agrave.sc" unicode="&#xf7e0;" horiz-adv-x="980" 
d="M467 1229l-250 336h78l223 -336h-51zM492 995h-5l-235 -596h475zM27 0l426 1065h75l424 -1065h-67l-137 344h-519l-135 -344h-67z" />
    <glyph glyph-name="aacute.sc" unicode="&#xf7e1;" horiz-adv-x="980" 
d="M461 1229l223 336h78l-250 -336h-51zM492 995h-5l-235 -596h475zM27 0l426 1065h75l424 -1065h-67l-137 344h-519l-135 -344h-67z" />
    <glyph glyph-name="acircumflex.sc" unicode="&#xf7e2;" horiz-adv-x="980" 
d="M195 1229l264 336h61l264 -336h-65l-230 295l-229 -295h-65zM492 995h-5l-235 -596h475zM27 0l426 1065h75l424 -1065h-67l-137 344h-519l-135 -344h-67z" />
    <glyph glyph-name="atilde.sc" unicode="&#xf7e3;" horiz-adv-x="980" 
d="M344 1479q60 -1 160 -59t139 -58q86 0 102 123h39q-6 -70 -42 -120t-97 -50t-159 58t-138 59q-86 0 -102 -123h-41q6 74 43 122t96 48zM492 995h-5l-235 -596h475zM27 0l426 1065h75l424 -1065h-67l-137 344h-519l-135 -344h-67z" />
    <glyph glyph-name="adieresis.sc" unicode="&#xf7e4;" horiz-adv-x="980" 
d="M264 1309v176h64v-176h-64zM655 1309v176h66v-176h-66zM492 995h-5l-235 -596h475zM27 0l426 1065h75l424 -1065h-67l-137 344h-519l-135 -344h-67z" />
    <glyph glyph-name="aring.sc" unicode="&#xf7e5;" horiz-adv-x="980" 
d="M489 1278q55 0 98 39q42 39 42 100t-42 101q-41 40 -97 38q-56 0 -98 -38t-42 -100t42 -101t97 -39zM489 1239q-72 0 -127 50t-55 129t55 128t127 49t127 -49q56 -49 56 -128t-56 -129t-127 -50zM492 995h-5l-235 -596h475zM27 0l426 1065h75l424 -1065h-67l-137 344
h-519l-135 -344h-67z" />
    <glyph glyph-name="ae.sc" unicode="&#xf7e6;" horiz-adv-x="1703" 
d="M866 326v673l-526 -673h526zM1593 1065v-57h-661v-437h541v-55h-541v-459h678v-57h-744v270h-569l-211 -270h-76l840 1065h743z" />
    <glyph glyph-name="ccedilla.sc" unicode="&#xf7e7;" horiz-adv-x="1177" 
d="M621 1024q-201 0 -326 -142t-125 -348t125 -349q125 -144 326 -144q307 0 403 281h63q-45 -156 -163 -247t-295 -93l-27 -78q90 -2 138 -48t48 -115t-48 -119t-148 -50h-98v45h94q76 0 110 36t35 89q0 53 -38 87t-111 34h-39l49 119q-219 10 -355 170q-137 160 -137 386
t144 386t375 159q182 0 303 -91t163 -247h-63q-41 129 -144 204t-259 75z" />
    <glyph glyph-name="egrave.sc" unicode="&#xf7e8;" horiz-adv-x="1032" 
d="M543 1229l-250 336h78l223 -336h-51zM199 0v1065h725v-57h-662v-437h543v-55h-543v-459h678v-57h-741z" />
    <glyph glyph-name="eacute.sc" unicode="&#xf7e9;" horiz-adv-x="1032" 
d="M537 1229l223 336h78l-250 -336h-51zM199 0v1065h725v-57h-662v-437h543v-55h-543v-459h678v-57h-741z" />
    <glyph glyph-name="ecircumflex.sc" unicode="&#xf7ea;" horiz-adv-x="1032" 
d="M270 1229l265 336h61l264 -336h-65l-230 295l-229 -295h-66zM199 0v1065h725v-57h-662v-437h543v-55h-543v-459h678v-57h-741z" />
    <glyph glyph-name="edieresis.sc" unicode="&#xf7eb;" horiz-adv-x="1032" 
d="M340 1309v176h63v-176h-63zM731 1309v176h66v-176h-66zM199 0v1065h725v-57h-662v-437h543v-55h-543v-459h678v-57h-741z" />
    <glyph glyph-name="igrave.sc" unicode="&#xf7ec;" horiz-adv-x="460" 
d="M207 1229l-250 336h78l223 -336h-51zM199 0v1065h63v-1065h-63z" />
    <glyph glyph-name="iacute.sc" unicode="&#xf7ed;" horiz-adv-x="460" 
d="M201 1229l223 336h78l-250 -336h-51zM199 0v1065h63v-1065h-63z" />
    <glyph glyph-name="icircumflex.sc" unicode="&#xf7ee;" horiz-adv-x="460" 
d="M-66 1229l265 336h61l264 -336h-65l-230 295l-229 -295h-66zM199 0v1065h63v-1065h-63z" />
    <glyph glyph-name="idieresis.sc" unicode="&#xf7ef;" horiz-adv-x="460" 
d="M4 1309v176h64v-176h-64zM395 1309v176h66v-176h-66zM199 0v1065h63v-1065h-63z" />
    <glyph glyph-name="eth.sc" unicode="&#xf7f0;" horiz-adv-x="1181" 
d="M498 1008h-236v-449h240v-51h-240v-451h236q254 0 385 132t131 344q0 211 -131 343t-385 132zM8 508v51h191v506h299q280 0 432 -146q152 -147 152 -385t-154 -386q-152 -148 -430 -148h-299v508h-191z" />
    <glyph glyph-name="ntilde.sc" unicode="&#xf7f1;" horiz-adv-x="1228" 
d="M469 1479q59 -1 159 -59t140 -58q86 0 102 123h39q-6 -70 -42 -120t-97 -50q-62 0 -160 58t-137 59q-86 0 -102 -123h-41q6 74 43 122t96 48zM199 0v1065h59l707 -954h2v954h63v-1065h-59l-707 956h-2v-956h-63z" />
    <glyph glyph-name="ograve.sc" unicode="&#xf7f2;" horiz-adv-x="1247" 
d="M602 1229l-250 336h78l223 -336h-51zM170 532q0 -211 128 -351t326 -140t326 141t129 350q0 208 -129 350q-128 142 -326 142t-326 -140t-128 -352zM102 532q0 236 148 394t372 158t374 -158t151 -392q0 -234 -151 -394q-152 -158 -374 -158t-371 157t-149 393z" />
    <glyph glyph-name="oacute.sc" unicode="&#xf7f3;" horiz-adv-x="1247" 
d="M596 1229l223 336h78l-250 -336h-51zM170 532q0 -211 128 -351t326 -140t326 141t129 350q0 208 -129 350q-128 142 -326 142t-326 -140t-128 -352zM102 532q0 236 148 394t372 158t374 -158t151 -392q0 -234 -151 -394q-152 -158 -374 -158t-371 157t-149 393z" />
    <glyph glyph-name="ocircumflex.sc" unicode="&#xf7f4;" horiz-adv-x="1247" 
d="M330 1229l264 336h61l265 -336h-66l-229 295l-230 -295h-65zM170 532q0 -211 128 -351t326 -140t326 141t129 350q0 208 -129 350q-128 142 -326 142t-326 -140t-128 -352zM102 532q0 236 148 394t372 158t374 -158t151 -392q0 -234 -151 -394q-152 -158 -374 -158
t-371 157t-149 393z" />
    <glyph glyph-name="otilde.sc" unicode="&#xf7f5;" horiz-adv-x="1247" 
d="M479 1479q59 -1 159 -59t140 -58q86 0 103 123h39q-6 -70 -42 -120t-98 -50t-159 58q-98 58 -138 59q-86 0 -102 -123h-41q6 74 43 122t96 48zM170 532q0 -211 128 -351t326 -140t326 141t129 350q0 208 -129 350q-128 142 -326 142t-326 -140t-128 -352zM102 532
q0 236 148 394t372 158t374 -158t151 -392q0 -234 -151 -394q-152 -158 -374 -158t-371 157t-149 393z" />
    <glyph glyph-name="odieresis.sc" unicode="&#xf7f6;" horiz-adv-x="1247" 
d="M399 1309v176h64v-176h-64zM791 1309v176h65v-176h-65zM170 532q0 -211 128 -351t326 -140t326 141t129 350q0 208 -129 350q-128 142 -326 142t-326 -140t-128 -352zM102 532q0 236 148 394t372 158t374 -158t151 -392q0 -234 -151 -394q-152 -158 -374 -158t-371 157
t-149 393z" />
    <glyph glyph-name="oslash.sc" unicode="&#xf7f8;" horiz-adv-x="1247" 
d="M638 41q184 0 312 141t129 349q0 208 -129 350l-620 -731q124 -109 308 -109zM610 1024q-184 0 -312 -140t-128 -353q0 -212 127 -351l621 733q-124 111 -308 111zM100 530q0 238 148 396t377 157q188 0 333 -122l105 122h59l-131 -153q156 -162 156 -396t-151 -394
q-150 -158 -358 -158t-349 118l-101 -118h-59l127 149q-156 161 -156 399z" />
    <glyph glyph-name="ugrave.sc" unicode="&#xf7f9;" horiz-adv-x="1181" 
d="M567 1229l-250 336h78l223 -336h-51zM170 420v645h66v-645q0 -184 93 -282t260 -97q167 0 261 96t94 283v645h66v-645q0 -219 -114 -328q-114 -108 -308 -108t-306 108t-112 328z" />
    <glyph glyph-name="uacute.sc" unicode="&#xf7fa;" horiz-adv-x="1181" 
d="M561 1229l223 336h78l-250 -336h-51zM170 420v645h66v-645q0 -184 93 -282t260 -97q167 0 261 96t94 283v645h66v-645q0 -219 -114 -328q-114 -108 -308 -108t-306 108t-112 328z" />
    <glyph glyph-name="ucircumflex.sc" unicode="&#xf7fb;" horiz-adv-x="1181" 
d="M295 1229l264 336h62l264 -336h-66l-229 295l-230 -295h-65zM170 420v645h66v-645q0 -184 93 -282t260 -97q167 0 261 96t94 283v645h66v-645q0 -219 -114 -328q-114 -108 -308 -108t-306 108t-112 328z" />
    <glyph glyph-name="udieresis.sc" unicode="&#xf7fc;" horiz-adv-x="1181" 
d="M365 1309v176h63v-176h-63zM756 1309v176h65v-176h-65zM170 420v645h66v-645q0 -184 93 -282t260 -97q167 0 261 96t94 283v645h66v-645q0 -219 -114 -328q-114 -108 -308 -108t-306 108t-112 328z" />
    <glyph glyph-name="yacute.sc" unicode="&#xf7fd;" horiz-adv-x="927" 
d="M434 1229l223 336h78l-250 -336h-51zM430 0v434l-416 631h76l373 -567h4l375 567h69l-415 -629v-436h-66z" />
    <glyph glyph-name="thorn.sc" unicode="&#xf7fe;" horiz-adv-x="1064" 
d="M612 821h-350v-540h350q137 1 214 75t77 196t-77 196t-214 73zM199 0v1065h63v-186h350q168 -1 262 -91t94 -236t-94 -238t-262 -91h-350v-223h-63z" />
    <glyph glyph-name="ydieresis.sc" unicode="&#xf7ff;" horiz-adv-x="927" 
d="M238 1309v176h63v-176h-63zM629 1309v176h65v-176h-65zM430 0v434l-416 631h76l373 -567h4l375 567h69l-415 -629v-436h-66z" />
    <glyph glyph-name="at.sc" horiz-adv-x="1685" 
d="M1053 328v100q-25 -35 -95 -45l-204 -27q-182 -25 -183 -166q-1 -72 51 -116t138 -43q125 0 209 76t84 221zM506 186q0 186 235 215l209 27q102 12 103 76q1 104 -59 162t-160 57q-100 0 -164 -53q-66 -53 -74 -150h-59q10 123 93 188q84 64 208 64t200 -70t76 -200v-307
q0 -82 45 -124t111 -42q104 0 173 100t68 295q0 276 -191 443t-477 167t-477 -187q-192 -187 -192 -485t185 -483q185 -184 461 -184t415 158h63q-160 -207 -468 -207t-510 200t-201 515q0 315 208 519t516 204t516 -183q208 -182 208 -477q0 -215 -87 -328t-218 -112
q-82 0 -139 41q-56 41 -66 127q-86 -170 -305 -170q-115 0 -181 56q-65 56 -65 148z" />
    <glyph glyph-name="fi.sc" horiz-adv-x="1421" 
d="M1157 0v1065h66v-1065h-66zM199 0v1065h716v-57h-653v-453h531v-55h-531v-500h-63z" />
    <glyph glyph-name="fl.sc" horiz-adv-x="1884" 
d="M1157 0v1065h66v-1006h620v-59h-686zM199 0v1065h716v-57h-653v-453h531v-55h-531v-500h-63z" />
    <glyph glyph-name="t_t" horiz-adv-x="1153" 
d="M748 272v674h-476v-672q0 -119 47 -168t146 -49h90v-57h-92q-129 0 -193 65q-63 65 -63 207v674h-213v53h213v304h65v-304h476v304h65v-304h291v-53h-291v-672q0 -119 47 -168t148 -49h96v-57h-103q-129 0 -191 64t-62 208z" />
    <glyph glyph-name="t_f" horiz-adv-x="1091" 
d="M750 0v946h-476v-672q0 -121 43 -169t142 -48h78v-57h-80q-129 0 -189 63q-59 63 -59 209v674h-213v53h213v304h65v-304h476v199q0 301 284 301h82v-57h-78q-115 0 -169 -58t-54 -188v-197h268v-53h-268v-946h-65z" />
    <glyph glyph-name="caronquoteleft" horiz-adv-x="1089" 
d="M510 1163v135l70 215h30l-57 -217h22v-133h-65z" />
    <glyph glyph-name="caronquoteright" horiz-adv-x="1089" 
d="M524 1380v133h64v-133l-68 -217h-33l60 217h-23z" />
    <glyph glyph-name="slashedzero" horiz-adv-x="1163" 
d="M582 1368q-204 0 -306 -181t-102 -507t129 -500l516 1094q-98 94 -237 94zM582 41q205 0 306 180t101 509t-135 503l-516 -1094q99 -98 244 -98zM582 -18q-236 0 -355 198t-118 525t119 525t354 198t354 -200q118 -198 119 -524q-1 -326 -119 -524t-354 -198z" />
    <glyph glyph-name="zero.sc" horiz-adv-x="1032" 
d="M518 37q168 0 251 134t83 361q0 228 -85 362t-252 134t-251 -134t-84 -360t85 -362q85 -135 253 -135zM516 -18q-201 0 -302 152t-101 398t101 399t302 153t302 -154q102 -152 102 -398t-102 -398t-302 -152z" />
    <glyph glyph-name="one.sc" horiz-adv-x="1032" 
d="M586 1065v-1010h329v-55h-741v55h348v932l-332 -205l-28 47l379 236h45z" />
    <glyph glyph-name="two.sc" horiz-adv-x="1032" 
d="M825 788q0 109 -81 175q-82 65 -212 65t-222 -67q-91 -68 -97 -209h-59q6 170 116 250t264 81q154 -1 254 -79t100 -205t-89 -205q-90 -78 -189 -120q-6 -3 -12 -7l-133 -74q-133 -75 -184 -145t-60 -193h678v-55h-752q7 172 69 263t210 173l131 74l42 21q34 17 44 23
t39 24q29 16 40 26t33 28q23 18 31 32q8 16 24 42t15 82z" />
    <glyph glyph-name="three.sc" horiz-adv-x="1032" 
d="M117 305h63q0 -135 94 -203t248 -68t242 66q88 64 88 180t-92 184t-242 68h-88v52h88q133 0 211 61t78 165t-80 162t-207 58t-211 -62t-84 -184h-59q0 140 100 220t255 80t250 -74t95 -186t-58 -176t-151 -87v-4q109 -23 184 -95t74 -181q0 -141 -106 -221
q-107 -80 -289 -78q-182 0 -293 80q-110 81 -110 243z" />
    <glyph glyph-name="four.sc" horiz-adv-x="1032" 
d="M674 352v617l-527 -617h527zM76 299v45l612 721h51v-713h195v-53h-195v-299h-65v299h-598z" />
    <glyph glyph-name="five.sc" horiz-adv-x="1032" 
d="M854 336q0 129 -90 214t-229 85q-89 0 -173 -45t-135 -123l-65 6l37 592h655v-57h-594l-33 -467h2q49 67 133 107t181 40q164 0 270 -99q107 -99 107 -253t-111 -254t-281 -100t-272 82q-103 82 -121 215h66q14 -103 100 -173q87 -70 231 -70t233 86q89 85 89 214z" />
    <glyph glyph-name="six.sc" horiz-adv-x="1032" 
d="M207 336q0 -51 4 -64q61 -233 321 -233q141 0 231 84q89 84 89 212t-90 213t-230 85t-233 -85q-92 -85 -92 -212zM182 498v-33q31 99 129 161t246 62t253 -98t105 -253q-1 -155 -109 -255t-283 -100t-291 118t-116 406q0 289 122 433q121 144 295 144q174 -1 260 -77
t102 -205h-66q-33 227 -282 227q-161 0 -263 -129t-102 -401z" />
    <glyph glyph-name="seven.sc" horiz-adv-x="1032" 
d="M141 1006v59h809v-43l-534 -1022h-72l533 1006h-736z" />
    <glyph glyph-name="eight.sc" horiz-adv-x="1032" 
d="M516 1030q-129 0 -210 -58t-81 -162q0 -102 78 -164t213 -62t213 61t78 165t-81 162t-210 58zM180 281q0 -115 88 -181t248 -66t248 66t88 181t-92 183t-244 68t-244 -68t-92 -183zM166 824q0 110 95 185t255 75t255 -76q95 -74 95 -184t-58 -176q-58 -65 -151 -87v-4
q109 -23 184 -95t74 -181q0 -143 -105 -221q-106 -78 -294 -78t-294 77q-105 78 -105 222q1 111 75 183t183 93v4q-92 23 -151 87q-58 66 -58 176z" />
    <glyph glyph-name="nine.sc" horiz-adv-x="1032" 
d="M831 731q0 55 -6 74q-70 221 -319 221q-139 0 -228 -86q-90 -86 -90 -214t90 -210t229 -82q140 0 232 83t92 214zM854 567q0 16 -2 27q-33 -96 -131 -156t-223 -61q-166 0 -272 96q-105 96 -105 251t110 257q111 102 285 102q174 1 291 -117t117 -409t-115 -433
t-292 -142t-267 76t-107 206h66q14 -102 88 -164t205 -63q352 0 352 530z" />
    <glyph glyph-name="slashedzero.sc" horiz-adv-x="1032" 
d="M180 532q0 -279 119 -405l397 844q-76 57 -180 57q-168 0 -252 -134t-84 -362zM516 37q170 0 253 134t83 361q0 279 -121 406l-395 -844q74 -57 180 -57zM516 -18q-201 0 -302 152t-101 398t101 399t302 153t302 -154q102 -152 102 -398t-102 -398t-302 -152z" />
    <glyph glyph-name="currency.sc" horiz-adv-x="1032" 
d="M516 246q119 0 198 82t79 204t-79 205q-79 82 -198 82t-198 -82q-78 -82 -78 -205q0 -122 78 -204t198 -82zM182 533q0 124 80 219l-121 125l35 32l121 -123q92 82 218 82t218 -80l119 121l35 -32l-121 -123q84 -98 84 -220t-84 -223l123 -123l-35 -32l-121 120
q-86 -80 -218 -80t-218 83l-123 -123l-35 32l123 125q-80 96 -80 220z" />
    <glyph glyph-name="dollar.sc" horiz-adv-x="1032" 
d="M842 268q0 102 -56 150q-56 49 -182 80l-192 49q-127 33 -197 86t-70 170q-1 117 91 193t247 85v181h60v-181q141 -8 233 -85t103 -201h-62q-12 111 -95 173t-215 62t-214 -60t-82 -156t56 -139q56 -42 171 -71l195 -51q147 -37 211 -98t63 -181q0 -120 -97 -200
t-259 -88v-191h-62v191q-160 6 -260 87t-108 224h63q8 -123 100 -192t236 -69q143 0 233 65q89 65 89 167z" />
    <glyph glyph-name="cent.sc" horiz-adv-x="1032" 
d="M518 -16v159q-164 10 -265 121t-101 275q0 163 102 273t266 118v151h62v-151q129 -8 215 -78t104 -178h-63q-18 92 -96 148t-210 56q-131 0 -222 -94q-91 -96 -91 -244t92 -244q93 -96 223 -97q130 0 206 56t98 151h61q-16 -111 -104 -183t-217 -80v-159h-60z" />
    <glyph glyph-name="Euro.sc" horiz-adv-x="1032" 
d="M891 797q-54 231 -292 231q-126 0 -214 -94t-115 -256h387l-10 -41h-383q-4 -35 -4 -101t4 -94h365l-11 -41h-350q25 -170 113 -267t233 -97q207 0 269 203h61q-76 -258 -332 -258q-174 0 -279 114t-132 305h-154l10 41h140q-4 28 -4 94t4 101h-119l10 41h115
q31 186 134 296t275 109q139 0 225 -76q85 -77 115 -210h-61z" />
    <glyph glyph-name="yen.sc" horiz-adv-x="1032" 
d="M190 414v41h289l-409 610h77l371 -555h2l373 555h70l-410 -610h289v-41h-291v-162h291v-41h-291v-211h-66v211h-295v41h295v162h-295z" />
    <glyph glyph-name="sterling.sc" horiz-adv-x="1032" 
d="M219 27q131 0 168 151q-87 68 -155 68t-101 -34t-33 -79t31 -75t90 -31zM156 528v43h159q-80 143 -79 230q0 127 85 205t226 78t221 -72q80 -70 90 -201h-61q-6 103 -71 161q-66 58 -178 58t-180 -62t-67 -152q0 -90 82 -245h328v-43h-305q57 -119 57 -193t-17 -145
l52 -42q116 -93 159 -103q41 -10 75 -10q101 0 138 97q17 46 29 122h57q-16 -129 -63 -201t-164 -71q-55 0 -87 15t-66 34t-86 64t-60 50q-63 -162 -211 -161q-80 0 -124 42t-44 108t48 110q48 45 125 45t173 -64q6 43 6 88q0 88 -65 215h-182z" />
    <glyph glyph-name="florin.sc" horiz-adv-x="1032" 
d="M219 504v45h230l32 278q29 254 236 254q229 0 198 -247l-6 -50h-57l6 47q25 199 -141 199q-150 0 -172 -203l-33 -278h268v-45h-272l-62 -551q-29 -254 -235 -254q-223 0 -201 246l6 51h58l-4 -49q-20 -197 141 -197q147 0 170 203l63 551h-225z" />
    <glyph glyph-name="zero.TOSF" horiz-adv-x="1163" 
d="M585 961q-179 0 -295 -129t-116 -333t114 -332t292 -128t294 129t115 334q0 205 -112 332q-113 127 -292 127zM1055 502q0 -228 -135 -374t-343 -146t-338 144t-130 373q0 228 135 373q135 146 343 146t338 -144t130 -372z" />
    <glyph glyph-name="one.TOSF" horiz-adv-x="1163" 
d="M655 1006v-949h410v-57h-907v57h432v869l-371 -260l-26 47l413 293h49z" />
    <glyph glyph-name="two.TOSF" horiz-adv-x="1163" 
d="M164 0q0 309 319 426l168 61q88 33 137 58t89 73q39 49 38 119q0 94 -86 160q-85 66 -243 66t-256 -73t-107 -218h-59q6 174 126 260t298 86t286 -78t107 -200q0 -122 -77 -184t-226 -116l-168 -63q-123 -45 -198 -127t-74 -193h768v-57h-842z" />
    <glyph glyph-name="three.TOSF" horiz-adv-x="1163" 
d="M109 -2h61q0 -178 109 -273t287 -95t292 89q115 91 115 241t-118 244t-290 95h-106v57h106q154 0 253 83q100 83 100 222t-102 219t-252 81q-151 -1 -251 -87t-100 -249h-59q0 188 115 290q116 103 296 103t298 -96t118 -260q0 -124 -79 -216t-200 -114v-4
q144 -27 240 -127t96 -240q0 -181 -134 -285t-341 -104t-331 110t-123 316z" />
    <glyph glyph-name="four.TOSF" horiz-adv-x="1163" 
d="M776 70v829l-629 -829h629zM76 12v47l712 947h54v-936h233v-58h-233v-422h-66v422h-700z" />
    <glyph glyph-name="five.TOSF" horiz-adv-x="1163" 
d="M609 -371q171 0 284 110t113 292t-108 293t-282 110q-229 0 -358 -215l-65 4l40 776h756v-59h-694l-37 -637h4q123 188 361 189q201 0 325 -125t123 -333q0 -208 -132 -335t-330 -127q-197 0 -315 106t-138 267h65q17 -129 117 -223t271 -93z" />
    <glyph glyph-name="six.TOSF" horiz-adv-x="1163" 
d="M225 434q0 -47 6 -76q37 -162 141 -240t240 -79q172 0 284 111t112 292q0 182 -106 292t-280 110q-173 0 -285 -113t-112 -297zM599 -18q-208 0 -340 167t-132 541t138 555q138 182 360 182q184 0 289 -101t124 -269h-63q-19 143 -107 228t-243 85q-193 0 -312 -168
t-118 -530q0 -20 4 -82q36 144 159 228q123 83 271 83q201 0 321 -126q120 -125 121 -331q0 -206 -132 -334t-340 -128z" />
    <glyph glyph-name="seven.TOSF" horiz-adv-x="1163" 
d="M125 940v59h930v-47l-598 -1362h-68l596 1350h-860z" />
    <glyph glyph-name="eight.TOSF" horiz-adv-x="1163" 
d="M582 766q154 0 253 83t99 222t-101 220t-251 81t-251 -81t-101 -220t98 -222q100 -83 254 -83zM172 370q0 -150 116 -241q116 -90 294 -90t294 90q116 91 116 241t-120 244q-118 94 -290 94t-291 -94t-119 -244zM109 371q0 139 96 239t237 127v4q-124 23 -200 114
t-76 216q0 164 118 260t298 96t298 -96t117 -260q-1 -125 -77 -216t-199 -114v-4q141 -27 237 -127t97 -239q0 -181 -132 -285t-341 -104t-341 104t-132 285z" />
    <glyph glyph-name="nine.TOSF" horiz-adv-x="1163" 
d="M170 557q0 -180 106 -291q106 -110 280 -110t285 112q112 112 111 299q0 45 -6 68q-78 326 -396 326q-156 0 -268 -112t-112 -292zM563 1018q223 0 355 -167t133 -543q0 -376 -132 -556t-356 -180q-186 0 -295 101t-129 270h64q18 -141 110 -227t250 -87q420 0 420 699
q0 18 -4 75q-37 -139 -158 -222t-272 -83q-201 0 -322 126t-121 332t132 334t325 128z" />
    <glyph glyph-name="slashedzero.TOSF" horiz-adv-x="1163" 
d="M174 496q0 -207 119 -336l541 712q-108 88 -268 88t-276 -128q-116 -129 -116 -336zM595 39q163 0 279 129t115 338q0 209 -119 334l-542 -713q104 -88 267 -88zM1055 502q0 -228 -135 -374t-343 -146t-338 144t-130 373q0 228 135 373q135 146 343 146t338 -144
t130 -372z" />
    <glyph glyph-name="zero.PPF" horiz-adv-x="1099" 
d="M550 41q189 0 285 181q95 180 95 482t-95 483t-285 181t-284 -181q-96 -181 -96 -482t95 -483q96 -181 285 -181zM550 -18q-224 0 -337 198t-113 525t113 525t337 198t336 -200q112 -198 112 -524t-112 -524t-336 -198z" />
    <glyph glyph-name="one.PPF" horiz-adv-x="608" 
d="M416 1417v-1417h-66v1335l-301 -207l-29 50l349 239h47z" />
    <glyph glyph-name="two.PPF" horiz-adv-x="1011" 
d="M848 1054q0 142 -88 229t-237 87t-247 -90t-106 -283h-61q8 225 125 328q118 102 289 102t281 -99t109 -277q0 -85 -17 -124q-16 -41 -24 -61t-34 -48t-33 -40q-8 -12 -44 -39l-44 -33t-51 -36q-43 -31 -50 -35l-153 -105q-164 -115 -226 -211t-71 -262h770v-57h-844
q7 282 149 426q62 63 181 145l151 105q147 100 187 143q88 93 88 235z" />
    <glyph glyph-name="three.PPF" horiz-adv-x="1062" 
d="M84 408h63q-1 -182 103 -276t274 -93q170 0 276 92q105 91 105 243t-108 243q-109 91 -271 92h-84v57h84q135 0 230 84q94 84 94 222t-95 218t-231 80t-228 -84q-93 -84 -93 -252h-62q0 188 110 290q109 102 273 103q164 0 277 -97t112 -259q1 -119 -71 -208t-178 -122
v-4q135 -33 221 -127t86 -231q0 -185 -125 -291t-324 -106q-198 0 -318 108t-120 318z" />
    <glyph glyph-name="four.PPF" horiz-adv-x="1058" 
d="M723 467v838l-598 -838h598zM51 410v47l686 958h51v-948h216v-57h-216v-410h-65v410h-672z" />
    <glyph glyph-name="five.PPF" horiz-adv-x="1021" 
d="M517 39q159 0 262 111q103 110 103 292t-96 292q-98 110 -256 110q-193 0 -333 -215l-64 4l41 776h686v-59h-627l-36 -639h4q131 190 325 190t309 -124q113 -123 113 -331t-124 -336t-308 -128t-292 105q-107 105 -130 267h66q18 -131 108 -223t249 -92z" />
    <glyph glyph-name="six.PPF" horiz-adv-x="1069" 
d="M205 434q0 -55 16 -127q78 -268 340 -268q156 0 259 112q104 112 104 292q0 181 -98 291t-257 110q-160 0 -262 -113t-102 -297zM109 670q0 395 125 576q126 181 337 181q169 0 267 -100t116 -270h-63q-18 143 -98 228t-222 85q-182 0 -288 -166t-107 -532q0 -49 2 -80
q33 141 143 225t254 84q187 0 301 -126q114 -125 114 -331t-124 -334q-123 -128 -303 -128q-454 0 -454 688z" />
    <glyph glyph-name="seven.PPF" horiz-adv-x="872" 
d="M35 1350v59h807v-47l-637 -1362h-70l635 1350h-735z" />
    <glyph glyph-name="eight.PPF" horiz-adv-x="1077" 
d="M539 766q137 0 230 84t93 222t-95 219t-228 81t-229 -81t-97 -219q1 -138 95 -222t231 -84zM158 370q0 -150 105 -241q105 -90 275 -90t275 89q105 88 105 240t-109 246t-271 94t-272 -94q-108 -94 -108 -244zM92 371q0 139 87 236t220 130v4q-109 33 -179 121t-70 209
q0 162 112 259q113 97 277 97q163 0 275 -97t112 -259q0 -121 -71 -209t-179 -121v-4q135 -33 221 -130t86 -236q0 -181 -123 -285q-124 -104 -322 -104t-322 104t-124 285z" />
    <glyph glyph-name="nine.PPF" horiz-adv-x="1069" 
d="M866 977q0 59 -14 121q-76 272 -356 272q-142 0 -245 -112t-103 -292t98 -290q98 -111 258 -111t261 113t101 299zM965 741q0 -760 -457 -759q-170 0 -271 101t-120 269h63q18 -141 102 -227t226 -86q389 0 389 698q0 18 -4 76q-33 -141 -143 -223t-252 -82
q-188 0 -301 126t-113 332t123 334t303 127q455 0 455 -686z" />
    <glyph glyph-name="slashedzero.PPF" horiz-adv-x="1099" 
d="M551 1368q-189 0 -285 -181t-96 -501t113 -493l493 1075q-90 100 -225 100zM551 41q188 0 284 181q95 181 95 506t-119 497l-496 -1078q91 -106 236 -106zM550 -18q-224 0 -337 198t-113 525t113 525t337 198t336 -200q112 -198 112 -524t-112 -524t-336 -198z" />
    <glyph glyph-name="currency.PPF" horiz-adv-x="950" 
d="M477 418q119 0 198 82t79 205t-79 205t-198 81q-119 0 -197 -82q-78 -83 -79 -205q1 -122 79 -204t197 -82zM143 706q0 124 80 218l-121 125l35 32l121 -123q92 82 218 82t218 -79l119 120l35 -32l-121 -123q84 -98 84 -219t-84 -224l123 -123l-35 -32l-121 121
q-86 -80 -218 -80t-218 82l-123 -123l-35 32l123 125q-80 97 -80 221z" />
    <glyph glyph-name="dollar.PPF" horiz-adv-x="1003" 
d="M499 39q151 0 247 87t98 241q0 113 -64 183t-200 118l-199 67q-137 47 -212 123t-75 221t102 241t261 105v222h65v-222q144 -10 242 -103t113 -243h-64q-14 135 -105 213q-90 78 -226 78t-228 -78t-92 -205t61 -188t193 -106l198 -70q152 -51 224 -136t71 -220
q0 -168 -107 -271q-108 -102 -274 -112v-230h-65v230q-166 10 -276 112q-109 103 -117 275h63q11 -154 113 -243t253 -89z" />
    <glyph glyph-name="cent.PPF" horiz-adv-x="1017" 
d="M508 -18v215q-184 12 -296 152q-112 139 -112 361t117 365t293 154v198h65v-198q139 -11 235 -101t122 -233h-64q-29 129 -116 204q-88 75 -213 75q-158 0 -266 -130q-107 -130 -107 -332t104 -330t269 -128q125 0 213 75t116 201h64q-27 -143 -123 -233t-238 -100v-215
h-63z" />
    <glyph glyph-name="Euro.PPF" horiz-adv-x="1153" 
d="M686 1427q166 0 270 -96t142 -266h-64q-76 307 -348 307q-170 0 -278 -128t-142 -347h469l-10 -45h-465q-8 -63 -8 -139t6 -138h442l-10 -45h-428q32 -227 140 -360t280 -133q258 0 338 266h63q-86 -322 -401 -321q-205 0 -329 148t-156 400h-183l11 45h168
q-15 156 2 277h-146l10 45h140q37 244 161 387q125 143 326 143z" />
    <glyph glyph-name="yen.PPF" horiz-adv-x="983" 
d="M524 604h312v-47h-312v-223h312v-47h-312v-287h-65v287h-312v47h312v223h-312v47h312v2l-457 803h72l418 -745h4l417 745h68l-457 -803v-2z" />
    <glyph glyph-name="sterling.PPF" horiz-adv-x="1075" 
d="M186 27q150 0 195 204q-106 86 -181 86t-115 -45t-40 -105q-1 -60 37 -100t104 -40zM145 707v49h174q-70 193 -69 317q0 162 88 258t238 96t233 -92q84 -92 92 -262h-63q-8 145 -75 222t-187 77t-190 -79q-71 -79 -71 -197t76 -340h334v-49h-317q53 -163 53 -269
t-19 -194q16 -14 62 -56q61 -54 130 -101q69 -48 137 -48q128 0 171 101q33 80 41 196h57q-7 -125 -52 -228q-55 -128 -212 -126q-66 0 -102 20t-58 30q-20 10 -51 37t-44 37t-48 44t-45 40q-68 -209 -242 -208q-90 0 -141 52t-51 133t55 138t145 57t195 -75q8 55 8 147
t-61 273h-191z" />
    <glyph glyph-name="florin.PPF" horiz-adv-x="985" 
d="M139 674v49h273l39 375q35 330 282 329q254 0 223 -319l-6 -68h-59l6 68q14 140 -28 202t-138 62q-188 0 -215 -274l-39 -375h322v-49h-326l-76 -737q-35 -330 -282 -330q-254 0 -224 319l7 68h59l-6 -68q-15 -141 27 -202t139 -62q188 0 215 275l76 737h-269z" />
    <glyph glyph-name="zero.scppf" horiz-adv-x="985" 
d="M493 37q153 0 233 137t81 359q0 223 -80 359q-79 136 -233 136t-236 -136t-82 -358t82 -360q82 -137 235 -137zM493 -18q-187 0 -286 153q-98 153 -98 397t98 398q97 154 285 154t285 -154t97 -398t-97 -397t-284 -153z" />
    <glyph glyph-name="one.scppf" horiz-adv-x="557" 
d="M360 1065v-1065h-65v987l-252 -158l-27 48l297 188h47z" />
    <glyph glyph-name="two.scppf" horiz-adv-x="880" 
d="M458 1028q-122 0 -202 -68t-86 -208h-61q6 172 105 252q100 80 246 80t238 -76t92 -221t-147 -244q-27 -18 -98 -64l-133 -80q-135 -84 -187 -153q-51 -70 -59 -191h647v-55h-721q6 170 68 259t211 179l133 82q63 38 90 56q135 88 135 223q0 105 -74 167q-75 62 -197 62z
" />
    <glyph glyph-name="three.scppf" horiz-adv-x="894" 
d="M748 280q0 114 -88 184t-220 68h-71v52h71q115 0 190 62t75 164t-78 160q-78 60 -192 60q-113 0 -189 -60t-78 -179h-57q2 139 92 216t232 77t236 -76q93 -76 93 -186t-56 -172q-56 -64 -139 -89v-4q96 -23 170 -95t74 -181q0 -141 -103 -221q-102 -80 -276 -78
q-174 0 -272 78t-101 241h64q2 -135 84 -201t225 -66t229 66q85 66 85 180z" />
    <glyph glyph-name="four.scppf" horiz-adv-x="909" 
d="M614 356v617l-485 -617h485zM57 303v45l570 721h53v-713h180v-53h-180v-303h-66v303h-557z" />
    <glyph glyph-name="five.scppf" horiz-adv-x="888" 
d="M764 339q0 136 -87 216t-202 80q-178 0 -272 -168l-68 6l35 592h588v-57h-529l-28 -465h4q94 145 278 145q141 0 243 -93t103 -255q0 -162 -105 -260t-261 -98t-246 80t-108 204h63q18 -94 92 -162t201 -68t213 84q86 83 86 219z" />
    <glyph glyph-name="six.scppf" horiz-adv-x="935" 
d="M199 332q0 -49 10 -84q63 -209 283 -209q129 0 215 83t86 214t-82 214t-213 83t-215 -83t-84 -218zM178 508v-39q31 99 121 159t203 60q158 0 257 -97t99 -255t-106 -256t-260 -98q-383 0 -383 526q0 299 108 437q109 138 289 138q145 1 228 -77t100 -207h-64
q-16 105 -82 167t-182 62q-328 0 -328 -520z" />
    <glyph glyph-name="seven.scppf" horiz-adv-x="780" 
d="M57 1006v59h686v-43l-530 -1022h-72l529 1006h-613z" />
    <glyph glyph-name="eight.scppf" horiz-adv-x="925" 
d="M195 809q0 -102 75 -164q76 -61 193 -61t193 61t75 163q0 102 -78 162q-79 60 -191 60t-190 -59q-77 -60 -77 -162zM150 281q0 -113 84 -180t228 -67t229 68q85 66 85 179t-90 183t-223 68q-133 0 -223 -69t-90 -182zM84 281q0 109 74 181t170 95v4q-82 25 -139 89
q-56 66 -56 174t94 184q93 76 235 76t235 -76t93 -184t-54 -174q-56 -65 -138 -89v-4q96 -23 169 -95t73 -181q0 -141 -102 -221t-276 -78q-173 0 -276 78q-102 80 -102 221z" />
    <glyph glyph-name="nine.scppf" horiz-adv-x="937" 
d="M446 1026q-127 0 -214 -83t-87 -214t82 -213t213 -82t214 82t83 217q0 53 -12 92q-68 201 -279 201zM760 557q0 23 -2 37q-31 -98 -121 -158t-203 -59q-156 0 -255 97t-99 255t106 256t260 98q381 0 381 -526q0 -297 -106 -436t-285 -139q-145 0 -231 78t-103 206h66
q16 -104 83 -166t185 -63q324 0 324 520z" />
    <glyph glyph-name="slashedzero.scppf" horiz-adv-x="985" 
d="M494 1028q-154 0 -236 -136t-82 -372t94 -366l402 804q-74 70 -178 70zM494 37q152 0 232 137q80 136 81 376q0 240 -102 374l-400 -811q76 -76 189 -76zM493 -18q-187 0 -286 153q-98 153 -98 397t98 398q97 154 285 154t285 -154t97 -398t-97 -397t-284 -153z" />
    <glyph glyph-name="currency.scppf" horiz-adv-x="933" 
d="M471 246q119 0 198 82t79 204t-79 205q-79 82 -198 82t-198 -82t-79 -205q0 -122 80 -204q78 -82 197 -82zM137 533q0 124 80 219l-121 125l35 32l121 -123q92 82 218 82t218 -80l119 121l35 -32l-121 -123q82 -96 82 -220t-82 -223l123 -123l-35 -32l-121 120
q-90 -80 -220 -80t-216 83l-123 -123l-35 32l123 125q-80 96 -80 220z" />
    <glyph glyph-name="dollar.scppf" horiz-adv-x="860" 
d="M715 262q0 98 -52 152t-165 86l-164 49q-115 33 -176 91t-62 171q0 113 84 187t219 83v181h62v-181q121 -8 203 -79t94 -185h-62q-12 97 -85 155t-187 58t-190 -58q-74 -58 -74 -150t50 -140q50 -47 152 -78l168 -49q129 -39 190 -104q60 -67 60 -185t-91 -196t-234 -86
v-189h-60v189q-141 8 -233 87t-99 210h62q8 -113 93 -180t209 -67t206 66q82 64 82 162z" />
    <glyph glyph-name="cent.scppf" horiz-adv-x="870" 
d="M432 -16v159q-158 10 -252 120t-94 275q0 166 97 274t251 118v151h60v-151q118 -8 198 -77t103 -179h-64q-23 92 -95 148q-73 56 -171 57q-137 -1 -224 -97t-87 -244t84 -244q84 -95 223 -95q100 0 173 58t97 151h62q-23 -109 -105 -183t-196 -82v-159h-60z" />
    <glyph glyph-name="Euro.scppf" horiz-adv-x="976" 
d="M870 797q-58 231 -298 231q-128 0 -218 -93t-116 -255h385l-11 -41h-381q-6 -53 -6 -97t4 -100h365l-10 -41h-351q25 -170 115 -267t238 -97q213 0 276 203h60q-76 -258 -338 -258q-176 0 -283 114q-106 115 -135 305h-154l8 41h142q-4 30 -4 96t4 101h-119l8 41h117
q31 184 137 294t263 110q295 -1 362 -287h-60z" />
    <glyph glyph-name="yen.scppf" horiz-adv-x="843" 
d="M717 455v-41h-260v-162h260v-41h-260v-211h-66v211h-262v41h262v162h-262v41h258l-379 610h76l340 -555h2l340 555h70l-377 -610h258z" />
    <glyph glyph-name="sterling.scppf" horiz-adv-x="976" 
d="M207 27q129 0 164 155q-89 66 -149 66t-95 -35t-35 -80t30 -75t85 -31zM172 535v43h139q-61 139 -61 227q0 127 78 203t206 76t196 -72t77 -201h-59q-6 103 -60 161t-153 58t-159 -59t-60 -151t63 -242h280v-43h-262q47 -125 47 -199t-16 -143q8 -6 50 -42
q109 -94 168 -109q28 -7 66 -7q91 0 120 71t32 148h56q-14 -272 -218 -272q-98 0 -212 98q-6 6 -40 36t-36 31q-61 -164 -207 -163q-76 0 -119 41t-43 107t49 112q49 45 125 45t160 -60q4 57 4 84q0 92 -53 222h-158z" />
    <glyph glyph-name="florin.scppf" horiz-adv-x="856" 
d="M135 504v45h230l32 278q29 254 236 254q223 0 198 -247l-4 -50h-57l4 47q16 199 -141 199q-147 0 -170 -203l-33 -278h266v-45h-270l-64 -551q-29 -254 -235 -254q-223 0 -201 246l6 51h58l-4 -49q-20 -197 141 -197q147 0 170 203l63 551h-225z" />
    <glyph glyph-name="slashedzero.oldstyle" horiz-adv-x="1138" 
d="M156 495q0 -208 123 -337l544 716q-109 86 -271 86t-278 -128q-118 -129 -118 -337zM983 505q0 208 -125 337l-543 -717q104 -86 268 -86t282 129t118 337zM1051 502q1 -228 -137 -374t-349 -146t-344 144t-133 373q0 228 137 373q137 146 348 146t345 -144t133 -372z
" />
    <glyph glyph-name="plus.sc" horiz-adv-x="1032" 
d="M123 510v57h362v371h62v-371h362v-57h-362v-377h-62v377h-362z" />
    <glyph glyph-name="minus.sc" horiz-adv-x="1032" 
d="M123 510v57h786v-57h-786z" />
    <glyph glyph-name="multiply.sc" horiz-adv-x="1032" 
d="M213 182l-41 41l305 316l-303 315l41 39l303 -313l303 313l39 -39l-303 -315l305 -316l-39 -41l-305 316z" />
    <glyph glyph-name="divide.sc" horiz-adv-x="1032" 
d="M485 178v156h64v-156h-64zM123 510v57h786v-57h-786zM485 743v158h64v-158h-64z" />
    <glyph glyph-name="equal.sc" horiz-adv-x="1032" 
d="M123 346v57h786v-57h-786zM123 678v57h786v-57h-786z" />
    <glyph glyph-name="less.sc" horiz-adv-x="1032" 
d="M881 264v-61l-729 311v53l729 312v-60l-660 -278z" />
    <glyph glyph-name="greater.sc" horiz-adv-x="1032" 
d="M152 819v60l729 -312v-53l-729 -311v61l659 277z" />
    <glyph glyph-name="plusminus.sc" horiz-adv-x="1032" 
d="M158 0v55h712v-55h-712zM158 522v56h327v327h58v-327h327v-56h-327v-336h-58v336h-327z" />
    <glyph glyph-name="lessequal.sc" horiz-adv-x="1032" 
d="M156 0v55h712v-55h-712zM870 811l-653 -262l653 -260v-58l-716 291v56l716 292v-59z" />
    <glyph glyph-name="greaterequal.sc" horiz-adv-x="1032" 
d="M164 55h713v-55h-713v55zM162 811v59l717 -292v-56l-717 -291v58l651 260z" />
    <glyph glyph-name="notequal.sc" horiz-adv-x="1032" 
d="M123 678v57h477l139 232l45 -25l-125 -207h250v-57h-284l-164 -275h448v-57h-483l-139 -231l-45 26l123 205h-242v57h276l166 275h-442z" />
    <glyph glyph-name="logicalnot.sc" horiz-adv-x="1032" 
d="M123 510v57h786v-430h-59v373h-727z" />
    <glyph glyph-name="asciitilde.sc" horiz-adv-x="1032" 
d="M158 430q0 104 51 160t131 55q80 0 185 -75q105 -74 165 -74t94 41q35 41 35 114h55q0 -104 -50 -158q-50 -55 -130 -55t-185 76t-165 76t-96 -43q-35 -43 -35 -117h-55z" />
    <glyph glyph-name="approxequal.sc" horiz-adv-x="1032" 
d="M158 592q0 102 51 158t131 55q80 0 185 -75t165 -75t94 41q35 41 35 117h55q0 -105 -50 -159t-130 -54t-185 75t-165 75t-96 -42q-35 -42 -35 -116h-55zM158 264q0 102 51 160t131 57q80 1 185 -75t165 -76t94 41q35 41 35 114h55q0 -102 -51 -157q-51 -56 -130 -56
t-184 76t-165 76t-96 -42q-35 -42 -35 -118h-55z" />
    <glyph glyph-name="infinity.sc" horiz-adv-x="1226" 
d="M922 322q88 0 144 58t56 152t-56 154t-144 59t-160 -63t-119 -150q45 -86 118 -148t161 -62zM307 322q88 0 159 62t118 148q-47 88 -118 150t-159 63q-88 0 -145 -59q-58 -60 -58 -154t58 -152t145 -58zM300 272q-104 0 -176 73t-71 187q0 114 72 188q72 73 175 73
q103 -1 182 -61t130 -154q121 215 306 215q114 0 186 -73t72 -188q0 -116 -72 -188t-176 -72t-184 60t-132 153q-51 -93 -130 -153q-78 -60 -182 -60z" />
    <glyph glyph-name="numbersign.sc" horiz-adv-x="1003" 
d="M360 756l-73 -422h377l73 422h-377zM100 756v49h211l47 260h58l-47 -260h376l48 260h57l-47 -260h188v-49h-196l-74 -422h194v-49h-204l-49 -285h-58l49 285h-377l-49 -285h-57l49 285h-194v49h204l74 422h-203z" />
    <glyph glyph-name="percent.sc" horiz-adv-x="1148" 
d="M875 27q77 1 117 65t40 174t-40 174q-40 66 -117 66t-117 -65t-39 -175q-1 -110 39 -174q40 -65 117 -65zM875 -18q-101 0 -155 80t-54 204q0 125 54 205t155 80t155 -80t55 -205q0 -125 -54 -205q-55 -79 -156 -79zM252 -16l598 1097h51l-600 -1097h-49zM428 796
q0 108 -40 174t-117 66t-117 -66t-39 -173q-1 -108 39 -175t117 -67t117 66q40 67 40 175zM271 1081q101 0 155 -81q54 -82 55 -206q-1 -124 -55 -204t-155 -80t-155 81t-54 205t54 204t155 81z" />
    <glyph glyph-name="perthousand.sc" horiz-adv-x="1689" 
d="M1417 27q78 1 117 65t39 174t-39 174q-39 66 -117 66t-118 -65q-39 -65 -39 -175t40 -174q40 -65 117 -65zM1417 -18q-102 0 -156 80t-55 204q0 125 54 205t157 80q101 0 155 -80t54 -206t-53 -205q-54 -78 -156 -78zM875 27q77 1 117 65t40 174t-40 174q-40 66 -117 66
t-117 -65t-39 -175q-1 -110 39 -174q40 -65 117 -65zM875 -18q-101 0 -155 80t-54 204q0 125 54 205t155 80t155 -80t55 -205q0 -125 -54 -205q-55 -79 -156 -79zM252 -16l598 1097h51l-600 -1097h-49zM428 796q0 108 -40 174t-117 66t-117 -66t-39 -173q-1 -108 39 -175
t117 -67t117 66q40 67 40 175zM271 1081q101 0 155 -81q54 -82 55 -206q-1 -124 -55 -204t-155 -80t-155 81t-54 205t54 204t155 81z" />
    <glyph glyph-name="hyphen.sc" horiz-adv-x="811" 
d="M123 510v59h565v-59h-565z" />
    </font>
</defs>
</svg>
