<?xml version="1.0" standalone="no"?>
<!DOCTYPE svg PUBLIC "-//W3C//DTD SVG 1.1//EN" "http://www.w3.org/Graphics/SVG/1.1/DTD/svg11.dtd" >
<svg xmlns="http://www.w3.org/2000/svg">
<metadata>
Created by FontPrep 20130207 at Wed Jan  3 23:39:12 2018
 By Daniel
(c) Copyright (c) 2010. All rights reserved. Fakt is a design by Thomas Thiemich, published by OurType. www.ourtype.com
</metadata>
<defs>
<font id="0d4c69d609a84cac95809ed36eebd9e5" horiz-adv-x='1024' >
  <font-face 
    font-family="FaktPro-NormalItalic"
    font-weight="400"
    font-style="italic"
    font-stretch="normal"
    units-per-em="2048"
    panose-1="2 0 0 0 0 0 0 0 0 0"
    ascent="1532"
    descent="-516"
    x-height="999"
    cap-height="1409"
    bbox="-446 -639 2435 2073"
    underline-thickness="102"
    underline-position="-102"
    unicode-range="U+0020-FB04"
  />
<missing-glyph horiz-adv-x="1458" 
d="M475 377l258 264l258 -264l107 106l-260 267l260 266l-107 106l-258 -264l-258 264l-106 -106l258 -266l-258 -267zM0 0v1475h1458v-1475h-1458z" />
    <glyph glyph-name="f_b" unicode="fb" horiz-adv-x="1851" 
d="M983 410q0 -131 66 -205t180 -74q162 0 257 139t95 320q0 131 -65 205q-66 74 -181 73q-162 0 -257 -139t-95 -319zM688 1343q-92 0 -140 -45t-65 -143l-26 -156h215l-25 -147h-215l-145 -852h-181l144 852h-193l25 147h192l29 164q55 336 393 336h459l-55 -319
q-25 -164 -60 -312h7q115 156 308 156t304 -114t110 -304q1 -282 -155 -456t-377 -175q-119 1 -198 49t-111 132h-8l-27 -156h-172l227 1343h-260z" />
    <glyph glyph-name="f_f_b" unicode="ffb" horiz-adv-x="2465" 
d="M1597 410q0 -131 66 -205t180 -74q162 0 257 139t95 320q0 131 -65 205q-66 74 -180 73q-162 0 -258 -139t-95 -319zM1303 1343q-93 0 -141 -45t-64 -143l-27 -156h215l-24 -147h-215l-146 -852h-180l143 852h-432l-145 -852h-181l144 852h-193l25 147h192l29 164
q55 336 393 336h90l-24 -156h-74q-92 0 -140 -45t-65 -143l-26 -156h432l29 164q55 336 393 336h458l-55 -319q-25 -164 -59 -312h6q115 156 308 156t304 -114t111 -304q0 -282 -156 -456t-377 -175q-119 1 -197 49t-112 132h-8l-27 -156h-172l228 1343h-260z" />
    <glyph glyph-name="f_f_h" unicode="ffh" horiz-adv-x="2433" 
d="M696 1499h90l-24 -156h-74q-92 0 -140 -45t-65 -143l-26 -156h432l29 164q55 336 393 336h458l-57 -328q-55 -299 -59 -319h8q104 172 321 172q168 0 262 -105t56 -319l-105 -600h-180l99 582q49 287 -181 286q-119 0 -211 -101t-123 -275l-83 -492h-181l228 1343h-260
q-93 0 -141 -45t-64 -143l-27 -156h215l-24 -147h-215l-146 -852h-180l143 852h-432l-145 -852h-181l144 852h-193l25 147h192l29 164q55 336 393 336z" />
    <glyph glyph-name="f_f_j" unicode="ffj" horiz-adv-x="1761" 
d="M1548 1294l33 205h197l-33 -205h-197zM1171 -295q61 0 94 36q32 36 44 112l172 999h-434l-146 -852h-180l143 852h-432l-145 -852h-181l144 852h-193l25 147h192l29 164q55 336 393 336h90l-24 -156h-74q-92 0 -140 -45t-65 -143l-26 -156h432l29 164q55 336 393 336h90
l-25 -156h-73q-93 0 -141 -45t-64 -143l-27 -156h617l-205 -1179q-47 -270 -328 -271h-65l24 156h57z" />
    <glyph glyph-name="f_f_k" unicode="ffk" horiz-adv-x="2301" 
d="M696 1499h90l-24 -156h-74q-92 0 -140 -45t-65 -143l-26 -156h432l29 164q55 336 393 336h458l-163 -967l508 467h221l-449 -405l305 -594h-200l-240 471l-184 -168l-51 -303h-181l228 1343h-260q-93 0 -141 -45t-64 -143l-27 -156h215l-24 -147h-215l-146 -852h-180
l143 852h-432l-145 -852h-181l144 852h-193l25 147h192l29 164q55 336 393 336z" />
    <glyph glyph-name="f_f_t" unicode="fft" horiz-adv-x="1892" 
d="M696 1499h90l-24 -156h-74q-92 0 -140 -45t-65 -143l-26 -156h432l29 164q55 336 393 336h114l-24 -156h-98q-93 0 -141 -45t-64 -143l-27 -156h418l51 304h180l-51 -304h256l-24 -147h-256l-93 -549q-12 -78 10 -113t93 -34h131l-25 -156h-147q-297 0 -246 295l94 557
h-415l-146 -852h-180l143 852h-432l-145 -852h-181l144 852h-193l25 147h192l29 164q55 336 393 336z" />
    <glyph glyph-name="f_h" unicode="fh" horiz-adv-x="1818" 
d="M696 1499h459l-57 -328q-55 -299 -60 -319h9q104 172 321 172q168 0 261 -105t57 -319l-105 -600h-180l98 582q49 287 -180 286q-119 0 -211 -100t-121 -270l-86 -498h-180l227 1343h-260q-92 0 -140 -45t-65 -143l-26 -156h215l-25 -147h-215l-145 -852h-181l144 852
h-193l25 147h192l29 164q55 336 393 336z" />
    <glyph glyph-name="f_j" unicode="fj" horiz-adv-x="1146" 
d="M934 1294l33 205h196l-33 -205h-196zM557 -295q61 0 93 36t44 112l172 999h-434l-145 -852h-181l144 852h-193l25 147h192l29 164q55 336 393 336h90l-24 -156h-74q-92 0 -140 -45t-65 -143l-26 -156h616l-205 -1179q-47 -270 -327 -271h-66l25 156h57z" />
    <glyph glyph-name="f_k" unicode="fk" horiz-adv-x="1687" 
d="M696 1499h459l-164 -967l508 467h221l-448 -405l305 -594h-201l-239 471l-185 -168l-51 -303h-180l227 1343h-260q-92 0 -140 -45t-65 -143l-26 -156h215l-25 -147h-215l-145 -852h-181l144 852h-193l25 147h192l29 164q55 336 393 336z" />
    <glyph glyph-name="f_t" unicode="ft" horiz-adv-x="1277" 
d="M696 1499h115l-25 -156h-98q-92 0 -140 -45t-65 -143l-26 -156h417l52 304h180l-51 -304h256l-25 -147h-256l-92 -549q-12 -78 10 -113t92 -34h131l-24 -156h-148q-296 0 -245 295l94 557h-416l-145 -852h-181l144 852h-193l25 147h192l29 164q55 336 393 336z" />
    <glyph glyph-name="fi" unicode="fi" horiz-adv-x="1146" 
d="M934 1294l33 205h196l-33 -205h-196zM696 1499h90l-24 -156h-74q-92 0 -140 -45t-65 -143l-26 -156h616l-172 -999h-180l145 852h-434l-145 -852h-181l144 852h-193l25 147h192l29 164q55 336 393 336z" />
    <glyph glyph-name="fl" unicode="fl" horiz-adv-x="1146" 
d="M696 1499h459l-254 -1499h-180l227 1343h-260q-92 0 -140 -45t-65 -143l-26 -156h215l-25 -147h-215l-145 -852h-181l144 852h-193l25 147h192l29 164q55 336 393 336z" />
    <glyph glyph-name="ff" unicode="ff" horiz-adv-x="1236" 
d="M696 1499h90l-24 -156h-74q-92 0 -140 -45t-65 -143l-26 -156h432l29 164q55 336 393 336h114l-24 -156h-98q-93 0 -141 -45t-64 -143l-27 -156h240l-25 -147h-239l-146 -852h-180l143 852h-432l-145 -852h-181l144 852h-193l25 147h192l29 164q55 336 393 336z" />
    <glyph glyph-name="ffi" unicode="ffi" horiz-adv-x="1761" 
d="M1548 1294l33 205h197l-33 -205h-197zM696 1499h90l-24 -156h-74q-92 0 -140 -45t-65 -143l-26 -156h432l29 164q55 336 393 336h90l-25 -156h-73q-93 0 -141 -45t-64 -143l-27 -156h617l-172 -999h-181l146 852h-434l-146 -852h-180l143 852h-432l-145 -852h-181
l144 852h-193l25 147h192l29 164q55 336 393 336z" />
    <glyph glyph-name="ffl" unicode="ffl" horiz-adv-x="1761" 
d="M696 1499h90l-24 -156h-74q-92 0 -140 -45t-65 -143l-26 -156h432l29 164q55 336 393 336h458l-253 -1499h-181l228 1343h-260q-93 0 -141 -45t-64 -143l-27 -156h215l-24 -147h-215l-146 -852h-180l143 852h-432l-145 -852h-181l144 852h-193l25 147h192l29 164
q55 336 393 336z" />
    <glyph glyph-name=".notdef" horiz-adv-x="1458" 
d="M475 377l258 264l258 -264l107 106l-260 267l260 266l-107 106l-258 -264l-258 264l-106 -106l258 -266l-258 -267zM0 0v1475h1458v-1475h-1458z" />
    <glyph glyph-name=".null" horiz-adv-x="0" 
 />
    <glyph glyph-name="nonmarkingreturn" horiz-adv-x="681" 
 />
    <glyph glyph-name="space" unicode=" " horiz-adv-x="450" 
 />
    <glyph glyph-name="exclam" unicode="!" horiz-adv-x="573" 
d="M88 0l37 221h213l-37 -221h-213zM213 393l49 623l68 393h213l-68 -393l-164 -623h-98z" />
    <glyph glyph-name="quotedbl" unicode="&#x22;" horiz-adv-x="802" 
d="M225 893l27 344l29 172h180l-29 -172l-92 -344h-115zM586 893l26 344l29 172h180l-28 -172l-93 -344h-114z" />
    <glyph glyph-name="numbersign" unicode="#" horiz-adv-x="1261" 
d="M547 934l-78 -451h295l78 451h-295zM147 934v139h261l59 336h164l-60 -336h295l60 336h164l-60 -336h215v-139h-239l-78 -451h235v-139h-260l-59 -344h-164l59 344h-295l-59 -344h-164l60 344h-215v139h239l78 451h-236z" />
    <glyph glyph-name="dollar" unicode="$" 
d="M508 123q141 0 234 78t94 209q0 78 -50 125t-147 79l-172 58q-270 90 -270 327q0 174 118 291q119 117 312 140l37 217h180l-37 -224q139 -27 223 -121t76 -245h-180q0 115 -68 172t-186 57t-203 -66q-84 -66 -84 -196q0 -76 47 -118t158 -79l172 -57q262 -86 262 -336
q0 -192 -130 -314t-339 -140l-37 -226h-180l37 230q-160 25 -244 129t-74 280h181q-23 -270 270 -270z" />
    <glyph glyph-name="percent" unicode="%" horiz-adv-x="1589" 
d="M1153 106q145 0 190 246q8 47 9 92q0 154 -115 154q-147 0 -188 -246q-10 -57 -11 -94q0 -152 115 -152zM1150 -16q-138 0 -203 72t-64 194q0 45 10 102q29 164 120 266t229 102t202 -72q64 -73 63 -195q0 -53 -8 -101q-31 -166 -121 -267t-228 -101zM274 -25
q850 1292 961 1459h139l-960 -1459h-140zM399 811q145 0 191 246q8 47 8 92q0 154 -115 154q-147 0 -188 -246q-10 -57 -10 -94q-1 -152 114 -152zM396 688q-138 0 -202 73t-65 193q0 45 10 103q29 164 120 266t229 102q138 -1 202 -73q63 -72 64 -195q0 -53 -9 -100
q-31 -165 -121 -267t-228 -102z" />
    <glyph glyph-name="ampersand" unicode="&#x26;" horiz-adv-x="1458" 
d="M918 1126q0 168 -210 168q-102 0 -155 -56t-53 -140t123 -242q143 58 219 122t76 148zM541 123q215 0 360 125l-356 434q-147 -63 -227 -137q-80 -75 -80 -185t85 -174t218 -63zM328 1096q0 136 105 236q105 102 283 102t276 -81q97 -81 98 -206q0 -158 -111 -246
t-270 -153l301 -375q88 137 120 332h164q-47 -270 -184 -455l201 -250h-205l-109 131q-186 -156 -465 -156q-217 -1 -346 99t-129 272t117 271q117 100 287 171q-133 172 -133 308z" />
    <glyph glyph-name="quotesingle" unicode="'" horiz-adv-x="442" 
d="M225 893l27 344l29 172h180l-29 -172l-92 -344h-115z" />
    <glyph glyph-name="parenleft" unicode="(" horiz-adv-x="581" 
d="M25 279q0 631 524 1245h164q-159 -177 -320 -481q-86 -163 -141 -363t-55 -410q0 -208 57 -412t123 -325h-156q-80 135 -138 332t-58 414z" />
    <glyph glyph-name="parenright" unicode=")" horiz-adv-x="581" 
d="M385 786q0 208 -57 413q-57 204 -123 325h155q80 -135 138 -332t59 -414q0 -631 -524 -1245h-164q160 178 319 480q86 163 142 364q55 201 55 409z" />
    <glyph glyph-name="asterisk" unicode="*" horiz-adv-x="933" 
d="M692 1425l-80 -274l269 119l22 -142l-280 -53l153 -198l-133 -86l-90 231l-176 -231l-105 86l215 200l-251 51l67 142l227 -117l15 272h147z" />
    <glyph glyph-name="plus" unicode="+" 
d="M98 442l25 156h385l65 385h164l-65 -385h385l-25 -156h-387l-63 -385h-164l63 385h-383z" />
    <glyph glyph-name="comma" unicode="," horiz-adv-x="540" 
d="M66 0l40 238h230l-39 -222l-150 -335h-106l123 319h-98z" />
    <glyph glyph-name="hyphen" unicode="-" horiz-adv-x="811" 
d="M106 434l25 164h565l-24 -164h-566z" />
    <glyph glyph-name="period" unicode="." horiz-adv-x="540" 
d="M66 0l40 238h230l-41 -238h-229z" />
    <glyph glyph-name="slash" unicode="/" horiz-adv-x="819" 
d="M-74 -25l860 1459h164l-860 -1459h-164z" />
    <glyph glyph-name="zero" unicode="0" 
d="M512 139q305 0 401 566q20 125 21 237q0 328 -225 328q-305 0 -402 -565q-20 -125 -20 -238q0 -328 225 -328zM487 -25q-201 0 -295 129t-94 355q0 123 21 246q55 333 209 531t405 198q201 0 295 -129t94 -355q0 -123 -20 -245q-55 -334 -209 -532t-406 -198z" />
    <glyph glyph-name="one" unicode="1" 
d="M291 958l-74 140l508 311h139l-215 -1253h334l-25 -156h-860l25 156h346l174 1018z" />
    <glyph glyph-name="two" unicode="2" 
d="M942 1057q0 105 -57 163t-181 58q-242 0 -319 -287h-164q45 238 181 340q136 103 318 103t293 -89q110 -89 109 -255q0 -216 -167 -354q-80 -66 -201 -138l-181 -106q-178 -107 -230 -183q-53 -76 -73 -153h729l-24 -156h-934q47 232 142 364t284 242l180 107
q155 90 225 165t70 179z" />
    <glyph glyph-name="three" unicode="3" 
d="M504 131q151 0 250 77q98 77 98 226q0 98 -74 156t-188 57h-107l33 156h107q121 0 207 78t88 184q0 105 -62 159t-171 54q-111 0 -191 -64t-101 -190h-172q33 190 165 300t316 110t286 -92t102 -226q0 -135 -78 -243t-185 -138v-8q92 -27 149 -103q56 -77 56 -182
q0 -225 -150 -346t-381 -121q-232 0 -346 118t-81 333h172q-23 -137 42 -216t216 -79z" />
    <glyph glyph-name="four" unicode="4" 
d="M264 508h443l100 594zM33 352l24 131l836 926h147l-151 -901h201l-25 -156h-203l-59 -352h-180l59 352h-649z" />
    <glyph glyph-name="five" unicode="5" 
d="M504 -25q-180 -1 -302 103q-120 104 -120 299h180q0 -100 67 -173t180 -73q228 0 318 180q41 82 41 191q0 108 -70 176t-175 67q-152 0 -295 -139l-164 8l172 795h794l-24 -164h-631l-100 -434h8q105 90 281 90t284 -103t109 -282q0 -111 -35 -205q-58 -158 -198 -247
t-320 -89z" />
    <glyph glyph-name="six" unicode="6" 
d="M632 745q-120 0 -229 -98t-108 -254q0 -123 71 -193t174 -69q103 0 186 50t125 135t42 190t-70 172q-71 67 -191 67zM106 451q0 139 13 221q63 399 237 580t406 182q182 0 288 -94t97 -283h-180q7 113 -57 167t-165 54q-143 0 -257 -133t-171 -424q51 86 151 133t220 47
q176 0 285 -103t108 -282q0 -305 -227 -449q-141 -91 -328 -91q-188 0 -304 114q-116 115 -116 361z" />
    <glyph glyph-name="seven" unicode="7" 
d="M188 0l795 1245h-754l25 164h967l-25 -131l-811 -1278h-197z" />
    <glyph glyph-name="eight" unicode="8" 
d="M934 1065q0 109 -64 165t-178 56t-202 -77t-89 -185q0 -108 64 -164q65 -56 179 -57q114 0 202 77t88 185zM238 344q0 -98 74 -156q74 -57 210 -57t241 82t105 221q0 98 -74 156q-74 57 -210 57t-241 -82t-105 -221zM510 -25q-221 -1 -337 95t-116 246q1 150 95 262
q94 113 241 151v8q-72 27 -118 102t-46 169q1 180 143 303t336 123t296 -94t102 -250q0 -114 -80 -218t-190 -135v-8q98 -27 155 -103t58 -184q0 -213 -159 -340t-380 -127z" />
    <glyph glyph-name="nine" unicode="9" 
d="M922 1014q0 124 -71 194t-174 70t-187 -50t-125 -135t-41 -190t70 -172t190 -67q122 0 230 96t108 254zM455 -25q-181 -1 -287 93t-98 284h180q-6 -113 57 -167t164 -54q141 0 255 132t171 423q-51 -86 -151 -132t-218 -46q-176 0 -284 103t-109 282q0 106 31 197
q55 162 196 252t328 92q188 0 304 -115t116 -361q0 -139 -12 -221q-64 -399 -238 -581t-405 -181z" />
    <glyph glyph-name="colon" unicode=":" horiz-adv-x="540" 
d="M66 0l40 238h230l-41 -238h-229zM197 762l41 237h229l-41 -237h-229z" />
    <glyph glyph-name="semicolon" unicode=";" horiz-adv-x="540" 
d="M66 0l40 238h230l-39 -222l-150 -335h-106l123 319h-98zM197 762l41 237h229l-41 -237h-229z" />
    <glyph glyph-name="less" unicode="&#x3c;" 
d="M131 451l25 147l934 377l-25 -172l-735 -283l637 -282l-33 -164z" />
    <glyph glyph-name="equal" unicode="=" 
d="M66 229l24 156h934l-25 -156h-933zM131 655l25 156h934l-25 -156h-934z" />
    <glyph glyph-name="greater" unicode="&#x3e;" 
d="M197 811l32 164l803 -377l-24 -147l-934 -377l24 172l736 282z" />
    <glyph glyph-name="question" unicode="?" horiz-adv-x="1032" 
d="M328 0l32 221h213l-32 -221h-213zM860 1104q0 74 -59 124t-172 50t-192 -71t-101 -199h-172q18 182 150 304t350 122q170 0 278 -85t107 -235q0 -104 -44 -181t-109 -125q-66 -48 -132 -92q-161 -106 -182 -257l-9 -58h-180l8 58q14 94 55 168q40 74 104 126t195 141
q105 73 105 210z" />
    <glyph glyph-name="at" unicode="@" horiz-adv-x="2113" 
d="M918 123q129 0 217 73t114 226l17 88q-27 -33 -111 -43l-197 -25q-205 -25 -204 -180q0 -66 43 -102t121 -37zM573 246q0 276 361 319l196 25q84 10 121 28t43 54q12 88 -33 146q-46 58 -155 59q-209 0 -254 -189h-172q31 154 142 245q112 91 300 91t284 -102t60 -299
l-49 -285q-8 -43 -8 -84q0 -147 139 -148q82 0 147 56q108 93 154 305q18 84 19 156q0 338 -204 509t-525 171q-387 1 -640 -275t-253 -684q0 -292 184 -486t476 -194t470 156h205q-274 -287 -688 -287q-365 0 -588 228t-223 551t134 574t383 399t564 149q381 0 625 -209
t244 -586q0 -238 -126 -444q-60 -99 -162 -159t-228 -61q-227 0 -271 175q-125 -174 -360 -175q-145 0 -229 74q-83 74 -83 197z" />
    <glyph glyph-name="A" unicode="A" horiz-adv-x="1318" 
d="M770 1212l-360 -680h497l-129 680h-8zM-66 0l754 1409h230l286 -1409h-196l-70 369h-616l-195 -369h-193z" />
    <glyph glyph-name="B" unicode="B" horiz-adv-x="1368" 
d="M885 1245h-389l-76 -434h391q137 0 222 77t85 193q0 164 -233 164zM827 647h-436l-84 -483h434q147 0 238 85q90 85 90 214q0 84 -60 134q-61 50 -182 50zM918 1409q393 0 393 -287q0 -131 -72 -233t-207 -144l-2 -8q106 -20 166 -90t61 -168q-1 -205 -153 -342
t-391 -137h-623l246 1409h582z" />
    <glyph glyph-name="C" unicode="C" horiz-adv-x="1458" 
d="M106 557q0 381 222 629t565 248q240 0 388 -126t161 -341h-193q-57 299 -381 299q-244 0 -406 -201t-163 -483q0 -197 111 -318t288 -121t281 75t180 224h193q-76 -221 -244 -344t-427 -123t-417 164t-158 418z" />
    <glyph glyph-name="D" unicode="D" horiz-adv-x="1441" 
d="M737 1245h-250l-182 -1081h227q301 0 483 182q181 182 181 465q0 195 -114 315t-345 119zM754 1409q303 0 471 -163t168 -427q0 -363 -239 -591t-638 -228h-426l238 1409h426z" />
    <glyph glyph-name="E" unicode="E" horiz-adv-x="1253" 
d="M90 0l238 1409h958l-24 -164h-775l-73 -446h610l-25 -164h-614l-80 -471h785l-25 -164h-975z" />
    <glyph glyph-name="F" unicode="F" horiz-adv-x="1179" 
d="M90 0l238 1409h950l-25 -164h-766l-86 -512h615l-25 -164h-616l-96 -569h-189z" />
    <glyph glyph-name="G" unicode="G" horiz-adv-x="1556" 
d="M1188 0v180h-8q-190 -205 -500 -205q-258 0 -416 164t-158 418q0 379 232 628t580 249q256 0 401 -121t156 -322h-197q-16 121 -108 198t-277 77q-254 0 -424 -201t-170 -483q0 -197 111 -318t300 -121t342 112t179 304l4 23h-440l24 163h623l-131 -745h-123z" />
    <glyph glyph-name="H" unicode="H" horiz-adv-x="1490" 
d="M90 0l238 1409h188l-104 -614h753l105 614h188l-237 -1409h-189l107 631h-754l-106 -631h-189z" />
    <glyph glyph-name="I" unicode="I" horiz-adv-x="548" 
d="M90 0l238 1409h188l-237 -1409h-189z" />
    <glyph glyph-name="J" unicode="J" horiz-adv-x="1048" 
d="M398 -25q-196 1 -290 103t-55 323l13 66h188l-12 -66q-49 -262 168 -262q223 0 270 279l172 991h188l-172 -991q-42 -236 -158 -340t-312 -103z" />
    <glyph glyph-name="K" unicode="K" horiz-adv-x="1343" 
d="M90 0l238 1409h188l-123 -733l811 733h230l-680 -618l458 -791h-204l-392 666l-266 -244l-71 -422h-189z" />
    <glyph glyph-name="L" unicode="L" horiz-adv-x="1114" 
d="M90 0l238 1409h188l-211 -1245h686l-24 -164h-877z" />
    <glyph glyph-name="M" unicode="M" horiz-adv-x="1851" 
d="M90 0l238 1409h229l311 -1155h9l696 1155h246l-238 -1409h-188l196 1090h-8l-663 -1090h-168l-291 1081h-8l-172 -1081h-189z" />
    <glyph glyph-name="N" unicode="N" horiz-adv-x="1507" 
d="M90 0l238 1409h172l598 -1090h8l180 1090h189l-238 -1409h-172l-598 1090h-8l-180 -1090h-189z" />
    <glyph glyph-name="O" unicode="O" horiz-adv-x="1556" 
d="M299 582q0 -197 113 -318t309 -121q244 0 419 200t175 484q0 197 -113 318t-309 121q-244 0 -419 -200t-175 -484zM106 573q0 367 237 614t575 247q264 0 427 -170t162 -428q-1 -367 -237 -614t-574 -247q-264 0 -427 170t-163 428z" />
    <glyph glyph-name="P" unicode="P" horiz-adv-x="1302" 
d="M844 1245h-357l-98 -590h340q170 1 269 101t100 252q0 102 -66 170t-188 67zM868 1409q203 0 315 -109t111 -276q0 -240 -162 -386t-427 -146h-345l-81 -492h-189l238 1409h540z" />
    <glyph glyph-name="Q" unicode="Q" horiz-adv-x="1556" 
d="M299 582q0 -197 113 -318t309 -121q244 0 419 200t175 484q0 197 -113 318t-309 121q-244 0 -419 -200t-175 -484zM106 573q0 367 237 614t575 247q264 0 427 -170t162 -428q0 -214 -85 -392t-232 -297l213 -270l-154 -131l-229 297q-158 -68 -324 -68q-264 0 -427 170
t-163 428z" />
    <glyph glyph-name="R" unicode="R" horiz-adv-x="1335" 
d="M844 1245h-357l-90 -532h365q158 0 247 92t89 235q0 94 -66 150t-188 55zM860 1409q215 0 325 -91q109 -91 109 -269q0 -179 -106 -311t-291 -173l266 -565h-205l-253 549h-334l-92 -549h-189l238 1409h532z" />
    <glyph glyph-name="S" unicode="S" horiz-adv-x="1327" 
d="M600 131q180 0 283 70q102 70 102 192q0 84 -55 135q-55 52 -138 70q-208 46 -361 103q-83 32 -138 112t-55 203q0 190 152 304q153 114 401 114q249 0 377 -108t98 -294h-181q17 118 -67 182t-238 64t-252 -62t-98 -176q0 -84 55 -135t139 -69t182 -45q97 -27 181 -59
t139 -112t56 -202q0 -209 -158 -326t-431 -117t-407 121q-133 121 -94 305h180q-24 -125 62 -197t266 -73z" />
    <glyph glyph-name="T" unicode="T" horiz-adv-x="1204" 
d="M131 1249l33 160h1171l-32 -160h-486l-211 -1249h-188l211 1249h-498z" />
    <glyph glyph-name="U" unicode="U" horiz-adv-x="1425" 
d="M623 -25q-263 -1 -395 143t-81 439l148 852h188l-147 -852q-35 -201 35 -305t263 -104t307 106t149 303l147 852h188l-147 -852q-100 -582 -655 -582z" />
    <glyph glyph-name="V" unicode="V" horiz-adv-x="1269" 
d="M434 0l-270 1409h196l213 -1212h9l626 1212h193l-746 -1409h-221z" />
    <glyph glyph-name="W" unicode="W" horiz-adv-x="1916" 
d="M303 0l-123 1409h180l99 -1212h8l524 1212h234l118 -1212h9l508 1212h180l-598 -1409h-250l-119 1196h-8l-514 -1196h-248z" />
    <glyph glyph-name="X" unicode="X" horiz-adv-x="1220" 
d="M-82 0l610 727l-348 682h205l274 -549l455 549h205l-582 -692l369 -717h-205l-295 582l-483 -582h-205z" />
    <glyph glyph-name="Y" unicode="Y" horiz-adv-x="1245" 
d="M426 0l106 586l-344 823h197l270 -664h9l507 664h197l-649 -838l-105 -571h-188z" />
    <glyph glyph-name="Z" unicode="Z" horiz-adv-x="1196" 
d="M229 1249l33 160h1000l-17 -123l-997 -1126h801l-33 -160h-1032l16 123l995 1126h-766z" />
    <glyph glyph-name="bracketleft" unicode="[" horiz-adv-x="679" 
d="M197 -319h303l-25 -148h-467l344 1991h467l-24 -148h-303z" />
    <glyph glyph-name="backslash" unicode="\" horiz-adv-x="819" 
d="M549 -25l-377 1459h156l377 -1459h-156z" />
    <glyph glyph-name="bracketright" unicode="]" horiz-adv-x="679" 
d="M-115 -319h303l295 1695h-303l25 148h467l-344 -1991h-467z" />
    <glyph glyph-name="asciicircum" unicode="^" 
d="M131 721l508 688h180l262 -688h-188l-191 530l-374 -530h-197z" />
    <glyph glyph-name="underscore" unicode="_" horiz-adv-x="1024" 
d="M-123 -147h1024l-24 -140h-1024z" />
    <glyph glyph-name="grave" unicode="`" horiz-adv-x="1146" 
d="M627 1163l-238 336h197l155 -336h-114z" />
    <glyph glyph-name="a" unicode="a" horiz-adv-x="1073" 
d="M238 262q0 -66 43 -102t120 -37q127 0 215 73t117 226l17 92q-25 -37 -111 -47l-197 -25q-204 -24 -204 -180zM57 246q0 276 361 319l196 25q80 10 119 27t47 55q16 82 -31 143q-48 61 -159 62q-209 0 -254 -189h-172q31 154 142 245q112 91 300 91t284 -102t60 -299
l-106 -623h-172l16 113h-6q-96 -137 -313 -138q-145 0 -229 74q-83 74 -83 197z" />
    <glyph glyph-name="b" unicode="b" horiz-adv-x="1196" 
d="M328 410q0 -131 66 -205t179 -74q162 0 257 139t96 320q0 131 -66 205t-180 73q-162 0 -257 -139t-95 -319zM700 1024q194 0 304 -114q111 -114 110 -304q0 -282 -156 -456t-376 -175q-119 1 -198 49t-112 132h-8l-26 -156h-172l253 1499h181l-56 -319q-47 -258 -59 -312
h6q115 156 309 156z" />
    <glyph glyph-name="c" unicode="c" horiz-adv-x="1056" 
d="M66 401q0 301 199 490q140 133 358 133q170 0 276 -92t109 -268h-181q-6 90 -64 147t-171 57t-201 -85q-137 -132 -137 -373q0 -129 64 -204t182 -75q184 0 278 205h180q-49 -164 -174 -262q-126 -98 -318 -98t-296 120q-104 121 -104 305z" />
    <glyph glyph-name="d" unicode="d" horiz-adv-x="1196" 
d="M254 410q0 -131 66 -205t180 -74q162 0 257 139t95 320q0 131 -66 205t-180 73q-162 0 -257 -139t-95 -319zM66 393q0 281 155 456q156 175 377 175q119 0 201 -51t108 -129h8q10 72 52 323l57 332h180l-254 -1499h-176l21 131h-9q-115 -156 -310 -156q-194 1 -302 113
t-108 305z" />
    <glyph glyph-name="e" unicode="e" horiz-adv-x="1073" 
d="M596 868q-108 0 -190 -70t-123 -188h540v29q-2 115 -60 172q-59 57 -167 57zM66 410q0 78 16 155q43 209 189 334t354 125t318 -153t50 -396h-737q-2 -23 -2 -65q0 -129 69 -204t172 -75t174 47t109 125h180q-57 -154 -179 -241t-307 -87t-296 121q-110 121 -110 314z
" />
    <glyph glyph-name="f" unicode="f" horiz-adv-x="630" 
d="M696 1499h123l-24 -156h-107q-92 0 -140 -45t-65 -143l-26 -156h239l-24 -147h-240l-145 -852h-181l144 852h-193l25 147h192l29 164q55 336 393 336z" />
    <glyph glyph-name="g" unicode="g" horiz-adv-x="1196" 
d="M254 410q0 -131 66 -205t180 -74q162 0 257 139t95 320q0 131 -66 205t-180 73q-162 0 -257 -139t-95 -319zM418 -319q307 0 356 319l21 131h-9q-115 -156 -310 -156t-303 113t-107 305q0 281 155 456q156 175 377 175q119 0 201 -51t108 -129h8l27 155h176l-168 -999
q-80 -467 -549 -467q-195 0 -307 93t-82 251h170q-16 -90 50 -143t186 -53z" />
    <glyph glyph-name="h" unicode="h" 
d="M713 1024q168 0 261 -105t56 -319l-104 -600h-181l99 582q49 287 -180 286q-117 0 -209 -97t-119 -255l-90 -516h-180l253 1499h181l-58 -328q-55 -299 -59 -319h8q104 172 322 172z" />
    <glyph glyph-name="i" unicode="i" horiz-adv-x="491" 
d="M66 0l172 999h180l-172 -999h-180zM279 1294l32 205h197l-33 -205h-196z" />
    <glyph glyph-name="j" unicode="j" horiz-adv-x="491" 
d="M-98 -295q61 0 93 36t44 112l199 1146h180l-205 -1179q-47 -270 -328 -271h-65l24 156h58zM279 1294l32 205h197l-33 -205h-196z" />
    <glyph glyph-name="k" unicode="k" horiz-adv-x="1032" 
d="M66 0l253 1499h181l-164 -967l508 467h221l-449 -405l306 -594h-201l-240 471l-184 -168l-51 -303h-180z" />
    <glyph glyph-name="l" unicode="l" horiz-adv-x="491" 
d="M66 0l253 1499h181l-254 -1499h-180z" />
    <glyph glyph-name="m" unicode="m" horiz-adv-x="1777" 
d="M696 1024q111 0 192 -52t107 -155q125 207 348 207q160 0 249 -105t53 -317l-105 -602h-180l98 582q25 150 -16 218t-151 68q-111 0 -197 -99t-115 -265l-86 -504h-180l98 582q25 150 -16 218t-150 68t-195 -96t-114 -256l-90 -516h-180l172 999h172l-29 -147h10
q106 172 305 172z" />
    <glyph glyph-name="n" unicode="n" 
d="M713 1024q168 0 261 -105t56 -319l-104 -600h-181l99 582q49 287 -180 286q-117 0 -209 -97t-119 -255l-90 -516h-180l172 999h172l-29 -147h10q104 172 322 172z" />
    <glyph glyph-name="o" unicode="o" horiz-adv-x="1146" 
d="M254 410q0 -129 69 -204t193 -75t224 99q133 130 137 360q0 129 -69 204q-68 74 -192 74t-226 -99q-136 -133 -136 -359zM66 401q0 283 190 473q150 150 365 150t329 -116t115 -310q0 -284 -191 -474q-150 -148 -364 -148t-330 114q-114 116 -114 311z" />
    <glyph glyph-name="p" unicode="p" horiz-adv-x="1196" 
d="M573 131q162 0 257 139t96 320q0 131 -66 205t-180 73q-162 0 -257 -139t-95 -319q0 -131 65 -205t180 -74zM721 1024q181 0 287 -113t106 -305q0 -282 -156 -456t-376 -175q-121 -1 -203 49t-107 132h-6q-22 -199 -45 -320l-49 -287h-180l244 1450h172l-23 -135h4
q117 160 332 160z" />
    <glyph glyph-name="q" unicode="q" horiz-adv-x="1187" 
d="M500 131q162 0 257 139t95 320q0 131 -66 205t-180 73q-162 0 -257 -139t-95 -319q0 -131 66 -205t180 -74zM478 -25q-193 0 -303 114t-109 304q0 281 155 456q156 175 377 175q119 0 201 -51t108 -129h8l27 155h172l-246 -1450h-180l41 246q23 152 66 336h-9
q-115 -156 -308 -156z" />
    <glyph glyph-name="r" unicode="r" horiz-adv-x="753" 
d="M672 1024q86 0 139 -41l-82 -164q-55 33 -123 33q-102 0 -174 -97t-96 -239l-90 -516h-180l172 999h172l-25 -133h10q94 158 277 158z" />
    <glyph glyph-name="s" unicode="s" horiz-adv-x="1007" 
d="M434 115q262 0 262 164q0 53 -41 86t-103 45t-134 30t-134 43t-104 83q-41 58 -41 147q0 145 114 228q113 83 303 83t292 -75t76 -228h-172q14 80 -42 122t-164 42t-170 -41q-64 -40 -64 -104q-1 -113 146 -142q170 -33 252 -66q167 -67 167 -231t-117 -245t-324 -81
q-206 0 -314 81t-83 231h172q-14 -90 49 -131t174 -41z" />
    <glyph glyph-name="t" unicode="t" horiz-adv-x="663" 
d="M385 0q-297 0 -246 295l94 557h-184l25 147h186l51 304h181l-52 -304h256l-24 -147h-256l-92 -549q-12 -78 10 -113t92 -34h131l-25 -156h-147z" />
    <glyph glyph-name="u" unicode="u" horiz-adv-x="1146" 
d="M434 -25q-168 -1 -261 105t-56 319l104 600h180l-98 -581q-49 -287 180 -287q117 0 205 96t115 256l90 516h180l-172 -999h-172l27 147h-8q-105 -172 -314 -172z" />
    <glyph glyph-name="v" unicode="v" horiz-adv-x="966" 
d="M303 0l-213 999h189l155 -802h8l406 802h184l-524 -999h-205z" />
    <glyph glyph-name="w" unicode="w" horiz-adv-x="1482" 
d="M188 0l-98 999h180l74 -811h8l353 811h225l86 -811h8l352 811h180l-450 -999h-234l-86 795h-8l-344 -795h-246z" />
    <glyph glyph-name="x" unicode="x" horiz-adv-x="950" 
d="M-66 0l435 508l-246 491h196l173 -360l303 360h196l-426 -499l246 -500h-197l-172 369l-311 -369h-197z" />
    <glyph glyph-name="y" unicode="y" horiz-adv-x="966" 
d="M0 -311q164 0 270 205l39 75l-219 1030h189l155 -802h8l406 802h184l-606 -1155q-162 -311 -426 -311h-98l32 156h66z" />
    <glyph glyph-name="z" unicode="z" horiz-adv-x="909" 
d="M123 852l24 147h771l-25 -122l-647 -730h532l-24 -147h-770l16 106l662 746h-539z" />
    <glyph glyph-name="braceleft" unicode="{" horiz-adv-x="745" 
d="M754 1524h114l-24 -140h-99q-92 0 -138 -42t-60 -130l-55 -344q-25 -158 -82 -228t-181 -99v-9q113 -40 141 -116t-1 -228l-58 -344q-16 -94 15 -133t125 -39h98l-25 -139h-106q-176 -1 -237 77t-34 234l58 344q14 92 18 156t-39 96q-43 33 -151 35l16 123q139 0 197 58
q57 58 82 212l57 344q27 156 110 234t259 78z" />
    <glyph glyph-name="bar" unicode="|" horiz-adv-x="524" 
d="M0 -492l352 2048h164l-352 -2048h-164z" />
    <glyph glyph-name="braceright" unicode="}" horiz-adv-x="745" 
d="M319 1524q177 0 237 -78t34 -234l-53 -327q-15 -91 -19 -155t39 -97t152 -35l-17 -123q-139 0 -196 -58t-82 -212l-62 -361q-28 -156 -110 -234t-258 -77h-115l25 139h98q92 0 138 42t60 130l60 361q25 157 82 227t180 100v9q-112 39 -140 115t1 229l53 327
q16 94 -14 134q-31 39 -125 38h-99l25 140h106z" />
    <glyph glyph-name="asciitilde" unicode="~" 
d="M372 688q98 0 169 -39q72 -39 130 -78t107 -39q115 0 140 156h155q-27 -154 -109 -232t-180 -79q-98 0 -170 39t-130 78t-107 38q-115 0 -139 -155h-156q28 155 110 233t180 78z" />
    <glyph glyph-name="exclamdown" unicode="&#xa1;" horiz-adv-x="573" 
d="M88 -16l164 622h98l-49 -622l-68 -394h-213zM225 778l37 221h213l-37 -221h-213z" />
    <glyph glyph-name="cent" unicode="&#xa2;" 
d="M131 606q0 246 132 422t360 203l32 203h181l-35 -207q131 -27 210 -118t87 -241h-172q-29 221 -246 222q-121 0 -215 -85q-143 -129 -146 -382q0 -143 75 -215t188 -72q213 0 303 213h172q-39 -152 -157 -244t-267 -112l-35 -218h-180l35 224q-143 29 -233 131
q-89 102 -89 276z" />
    <glyph glyph-name="sterling" unicode="&#xa3;" 
d="M153 82q88 0 156 143q-74 45 -126 45t-85 -30t-32 -76q-1 -82 87 -82zM328 983q0 209 115 330q117 121 299 121t265 -96t66 -265h-172q14 85 -27 149t-140 64q-98 0 -162 -72t-64 -206q0 -74 24 -213h328l-16 -127h-293q6 -49 6 -103q0 -158 -68 -305q26 -13 45 -30
q20 -17 42 -31q22 -15 30 -19t26 -15t32 -15q12 -4 34 -12t56 -7q135 0 180 205h156q-39 -162 -115 -261t-230 -100q-97 0 -223 85q-39 28 -102 81q-123 -166 -289 -166q-90 1 -142 49t-52 121q1 109 73 175t187 65q72 0 155 -39q25 96 25 158t-12 164h-218l17 127h180
q-16 127 -16 188z" />
    <glyph glyph-name="currency" unicode="&#xa4;" 
d="M811 729q0 180 -176 180q-86 -1 -156 -73q-69 -72 -69 -164t44 -136t131 -44q86 0 156 72t70 165zM262 647q0 139 103 254l-103 123l107 86l102 -123q93 53 195 53t180 -57l145 131l86 -98l-149 -129q31 -61 30 -133q0 -141 -102 -254l102 -123l-106 -86l-104 121
q-90 -52 -194 -52t-179 56l-146 -129l-86 98l150 129q-31 61 -31 133z" />
    <glyph glyph-name="yen" unicode="&#xa5;" 
d="M172 508l25 115h309l2 2l-328 784h197l246 -606h8l450 606h197l-590 -782l-2 -4h322l-25 -115h-315l-27 -156h317l-24 -114h-313l-39 -238h-181l39 238h-317l24 114h314l26 156h-315z" />
    <glyph glyph-name="brokenbar" unicode="&#xa6;" horiz-adv-x="524" 
d="M33 -336l123 721h163l-122 -721h-164zM205 688l123 721h164l-123 -721h-164z" />
    <glyph glyph-name="section" unicode="&#xa7;" horiz-adv-x="1171" 
d="M868 500q0 86 -43 131t-137 74l-115 36q-133 -29 -214 -109t-81 -166q0 -85 44 -130q43 -45 137 -74l114 -37q135 29 215 109t80 166zM442 -328q120 0 195 58q76 58 76 141q0 82 -42 120t-130 66l-172 58q-139 47 -205 124t-66 199t83 216q83 95 225 149
q-152 82 -152 253t134 274q134 104 360 104t331 -137q59 -77 51 -191h-172q6 88 -63 138t-189 50t-196 -58t-76 -155q0 -67 42 -105t130 -67l172 -57q139 -47 205 -124t66 -199t-83 -217t-225 -150q152 -80 152 -251t-134 -275t-360 -103q-226 0 -331 136q-60 77 -52 192
h172q-6 -89 64 -139t190 -50z" />
    <glyph glyph-name="dieresis" unicode="&#xa8;" horiz-adv-x="1146" 
d="M401 1237l33 188h180l-32 -188h-181zM811 1237l33 188h180l-33 -188h-180z" />
    <glyph glyph-name="copyright" unicode="&#xa9;" horiz-adv-x="1589" 
d="M475 713q0 154 96 257q97 103 239 103q142 -1 223 -65t102 -172h-144q-33 115 -164 114q-92 0 -148 -68t-56 -169q0 -100 56 -169t148 -69q131 0 164 115h144q-19 -110 -101 -174t-224 -64t-239 104q-96 104 -96 257zM827 1303q-253 0 -413 -168t-160 -423t162 -434
q162 -180 408 -180t412 180q165 180 165 435q0 254 -161 422t-413 168zM827 -25q-309 -1 -515 213t-206 524t205 516t514 206t516 -207t207 -516t-206 -523t-515 -213z" />
    <glyph glyph-name="ordfeminine" unicode="&#xaa;" horiz-adv-x="876" 
d="M470 819q78 0 148 86t70 217q0 82 -40 127t-118 45t-149 -86q-70 -86 -70 -217q0 -82 40 -127t119 -45zM410 688q-117 0 -194 81t-77 214q0 205 114 324t263 118q80 -1 136 -35t77 -96h6l21 115h159l-120 -704h-156l16 98h-8q-82 -115 -237 -115z" />
    <glyph glyph-name="guillemotleft" unicode="&#xab;" horiz-adv-x="1048" 
d="M328 98l-230 418l369 418h147l-319 -434l180 -402h-147zM721 98l-229 418l368 418h148l-320 -434l180 -402h-147z" />
    <glyph glyph-name="logicalnot" unicode="&#xac;" 
d="M98 442l29 156h934l-94 -541h-164l67 385h-772z" />
    <glyph glyph-name="uni00AD" unicode="&#xad;" horiz-adv-x="811" 
d="M106 434l25 164h565l-24 -164h-566z" />
    <glyph glyph-name="registered" unicode="&#xae;" horiz-adv-x="1589" 
d="M860 942h-172v-205h172q123 0 123 107q0 98 -123 98zM541 360v705h323q129 0 198 -58t68 -163q0 -72 -43 -128t-112 -83l180 -273h-160l-157 254h-150v-254h-147zM827 1303q-253 0 -413 -168t-160 -423t162 -434q162 -180 408 -180t412 180q165 180 165 435
q0 254 -161 422t-413 168zM827 -25q-309 -1 -515 213t-206 524t205 516t514 206t516 -207t207 -516t-206 -523t-515 -213z" />
    <glyph glyph-name="macron" unicode="&#xaf;" horiz-adv-x="1146" 
d="M410 1262l24 139h565l-24 -139h-565z" />
    <glyph glyph-name="degree" unicode="&#xb0;" horiz-adv-x="737" 
d="M492 1303q-58 1 -107 -49t-49 -114t32 -98t90 -34t108 49q48 49 48 113q0 132 -122 133zM762 1196q0 -137 -94 -228t-216 -91q-124 -1 -194 67t-70 170q0 137 94 228q94 92 216 92q124 0 194 -68t70 -170z" />
    <glyph glyph-name="plusminus" unicode="&#xb1;" 
d="M16 0l25 156h934l-25 -156h-934zM131 647l25 156h385l57 352h164l-57 -352h385l-25 -156h-385l-57 -352h-164l57 352h-385z" />
    <glyph glyph-name="acute" unicode="&#xb4;" horiz-adv-x="1146" 
d="M618 1163l271 336h213l-352 -336h-132z" />
    <glyph glyph-name="mu" unicode="&#xb5;" 
d="M500 131q114 0 202 95t117 257l90 516h181l-172 -999h-173l27 147h-8q-111 -172 -315 -172q-137 0 -203 64h-4q-23 -207 -43 -320l-29 -170h-180l246 1450h180l-97 -581q-49 -287 181 -287z" />
    <glyph glyph-name="paragraph" unicode="&#xb6;" horiz-adv-x="1286" 
d="M745 1409h123l-237 -1409h-180l86 508q-186 14 -288 108q-101 94 -102 252q0 240 168 390t430 151zM803 0l237 1409h181l-238 -1409h-180z" />
    <glyph glyph-name="periodcentered" unicode="&#xb7;" horiz-adv-x="540" 
d="M131 401l41 230h229l-41 -230h-229z" />
    <glyph glyph-name="cedilla" unicode="&#xb8;" horiz-adv-x="1146" 
d="M664 -221q0 -109 -76 -169t-203 -61h-115l25 115h98q123 0 123 98q0 66 -98 66h-58l91 172h65l-16 -74q78 -6 121 -46t43 -101z" />
    <glyph glyph-name="ordmasculine" unicode="&#xba;" horiz-adv-x="854" 
d="M467 819q100 0 169 86t69 217q0 172 -156 172q-100 0 -169 -86t-69 -217q0 -172 156 -172zM877 1130q0 -198 -124 -320q-123 -122 -285 -122t-246 80q-83 80 -83 215q0 199 124 321t302 121q145 0 229 -79q83 -80 83 -216z" />
    <glyph glyph-name="guillemotright" unicode="&#xbb;" horiz-adv-x="1048" 
d="M33 98l319 434l-180 402h147l230 -418l-369 -418h-147zM426 98l319 434l-180 402h148l229 -418l-369 -418h-147z" />
    <glyph glyph-name="onequarter" unicode="&#xbc;" horiz-adv-x="1589" 
d="M1038 254h193l41 244zM246 1122l-49 115l311 172h98l-94 -573h184l-16 -131h-549l16 131h209l64 378zM332 -25q850 1292 960 1459h140l-961 -1459h-139zM852 131l16 98l459 476h131l-74 -451h99l-21 -123h-98l-21 -131h-155l22 131h-358z" />
    <glyph glyph-name="onehalf" unicode="&#xbd;" horiz-adv-x="1589" 
d="M246 1122l-49 115l311 172h98l-94 -573h184l-16 -131h-549l16 131h209l64 378zM299 -25q850 1292 961 1459h139l-961 -1459h-139zM1229 598q-123 0 -156 -131h-139q27 131 110 192q84 61 198 61t182 -50q68 -51 67 -137q0 -86 -46 -134q-46 -47 -79 -65l-44 -24t-48 -25
q-37 -18 -45 -23l-49 -24q-133 -70 -140 -107h394l-17 -131h-573q23 147 105 222q82 74 181 122l50 25q59 31 88 48q28 17 52 44t24 59t-30 56q-30 22 -85 22z" />
    <glyph glyph-name="threequarters" unicode="&#xbe;" horiz-adv-x="1589" 
d="M1038 254h193l41 244zM307 -25q850 1292 961 1459h139l-961 -1459h-139zM565 918q0 98 -131 98h-57l16 106h58q67 0 107 28t40 79q0 82 -125 82t-137 -107h-139q6 98 86 160t205 61q126 0 196 -51q70 -52 70 -122t-42 -117t-106 -62v-8q53 -12 84 -49t31 -90
q0 -113 -90 -175q-91 -63 -231 -63t-218 56q-77 57 -59 174h147q-11 -117 131 -115q70 0 117 31t47 84zM852 131l16 98l459 476h131l-74 -451h99l-21 -123h-98l-21 -131h-155l22 131h-358z" />
    <glyph glyph-name="questiondown" unicode="&#xbf;" horiz-adv-x="1032" 
d="M-25 -115q0 103 44 181t109 126q66 48 132 92q161 108 182 257l9 57h180l-8 -57q-15 -94 -55 -168t-103 -126t-196 -142q-105 -73 -105 -203q0 -80 59 -130t172 -50t192 70q79 71 101 200h172q-18 -182 -150 -304t-350 -122q-170 0 -278 84t-107 235zM451 778l32 221h213
l-32 -221h-213z" />
    <glyph glyph-name="Agrave" unicode="&#xc0;" horiz-adv-x="1318" 
d="M774 1573l-237 336h196l156 -336h-115zM770 1212l-360 -680h497l-129 680h-8zM-66 0l754 1409h230l286 -1409h-196l-70 369h-616l-195 -369h-193z" />
    <glyph glyph-name="Aacute" unicode="&#xc1;" horiz-adv-x="1318" 
d="M766 1573l270 336h213l-352 -336h-131zM770 1212l-360 -680h497l-129 680h-8zM-66 0l754 1409h230l286 -1409h-196l-70 369h-616l-195 -369h-193z" />
    <glyph glyph-name="Acircumflex" unicode="&#xc2;" horiz-adv-x="1318" 
d="M483 1573l322 336h164l202 -336h-172l-131 221l-204 -221h-181zM770 1212l-360 -680h497l-129 680h-8zM-66 0l754 1409h230l286 -1409h-196l-70 369h-616l-195 -369h-193z" />
    <glyph glyph-name="Atilde" unicode="&#xc3;" horiz-adv-x="1318" 
d="M725 1851q78 0 157 -49t109 -49q78 0 107 98h106q-23 -98 -81 -159q-58 -62 -136 -62t-158 49t-108 50q-74 0 -107 -99h-106q23 98 81 160t136 61zM770 1212l-360 -680h497l-129 680h-8zM-66 0l754 1409h230l286 -1409h-196l-70 369h-616l-195 -369h-193z" />
    <glyph glyph-name="Adieresis" unicode="&#xc4;" horiz-adv-x="1318" 
d="M549 1647l33 188h180l-33 -188h-180zM958 1647l33 188h180l-32 -188h-181zM770 1212l-360 -680h497l-129 680h-8zM-66 0l754 1409h230l286 -1409h-196l-70 369h-616l-195 -369h-193z" />
    <glyph glyph-name="Aring" unicode="&#xc5;" horiz-adv-x="1318" 
d="M843 1655q48 0 84 37t36 84q0 92 -86 92q-55 0 -91 -37t-36 -94q0 -82 93 -82zM1065 1780q0 -88 -70 -152t-157 -63q-87 0 -139 45t-52 133t70 151q70 64 157 64t139 -45t52 -133zM770 1212l-360 -680h497l-129 680h-8zM-66 0l754 1409h230l286 -1409h-196l-70 369h-616
l-195 -369h-193z" />
    <glyph glyph-name="AE" unicode="&#xc6;" horiz-adv-x="2170" 
d="M1204 1188l-618 -701h512l119 701h-13zM-66 0l1254 1409h1016l-25 -164h-766l-74 -446h603l-25 -164h-606l-80 -471h776l-25 -164h-966l53 324h-629l-284 -324h-222z" />
    <glyph glyph-name="Ccedilla" unicode="&#xc7;" horiz-adv-x="1458" 
d="M893 1434q240 0 388 -126t161 -341h-193q-57 299 -381 299q-244 0 -406 -201t-163 -483q0 -197 111 -318t288 -121t281 75t180 224h193q-74 -213 -235 -336t-402 -131l-10 -49q79 -6 121 -46t42 -101q0 -109 -76 -169t-202 -61h-115l25 115h98q123 0 123 98q0 66 -98 66
h-58l78 149q-246 15 -391 177t-146 403q0 381 222 629t565 248z" />
    <glyph glyph-name="Egrave" unicode="&#xc8;" horiz-adv-x="1253" 
d="M774 1573l-237 336h196l156 -336h-115zM90 0l238 1409h958l-24 -164h-775l-73 -446h610l-25 -164h-614l-80 -471h785l-25 -164h-975z" />
    <glyph glyph-name="Eacute" unicode="&#xc9;" horiz-adv-x="1253" 
d="M766 1573l270 336h213l-352 -336h-131zM90 0l238 1409h958l-24 -164h-775l-73 -446h610l-25 -164h-614l-80 -471h785l-25 -164h-975z" />
    <glyph glyph-name="Ecircumflex" unicode="&#xca;" horiz-adv-x="1253" 
d="M483 1573l322 336h164l202 -336h-172l-131 221l-204 -221h-181zM90 0l238 1409h958l-24 -164h-775l-73 -446h610l-25 -164h-614l-80 -471h785l-25 -164h-975z" />
    <glyph glyph-name="Edieresis" unicode="&#xcb;" horiz-adv-x="1253" 
d="M549 1647l33 188h180l-33 -188h-180zM958 1647l33 188h180l-32 -188h-181zM90 0l238 1409h958l-24 -164h-775l-73 -446h610l-25 -164h-614l-80 -471h785l-25 -164h-975z" />
    <glyph glyph-name="Igrave" unicode="&#xcc;" horiz-adv-x="548" 
d="M389 1573l-237 336h196l156 -336h-115zM90 0l238 1409h188l-237 -1409h-189z" />
    <glyph glyph-name="Iacute" unicode="&#xcd;" horiz-adv-x="548" 
d="M381 1573l270 336h213l-352 -336h-131zM90 0l238 1409h188l-237 -1409h-189z" />
    <glyph glyph-name="Icircumflex" unicode="&#xce;" horiz-adv-x="548" 
d="M98 1573l322 336h164l202 -336h-172l-131 221l-204 -221h-181zM90 0l238 1409h188l-237 -1409h-189z" />
    <glyph glyph-name="Idieresis" unicode="&#xcf;" horiz-adv-x="548" 
d="M164 1647l33 188h180l-33 -188h-180zM573 1647l33 188h180l-32 -188h-181zM90 0l238 1409h188l-237 -1409h-189z" />
    <glyph glyph-name="Eth" unicode="&#xd0;" horiz-adv-x="1441" 
d="M737 1245h-250l-75 -459h325l-24 -155h-328l-80 -467h236q301 0 478 182t177 465q0 195 -114 315t-345 119zM754 1409q301 0 470 -162t169 -420q0 -369 -240 -598t-645 -229h-418l107 631h-172l24 155h174l105 623h426z" />
    <glyph glyph-name="Ntilde" unicode="&#xd1;" horiz-adv-x="1507" 
d="M824 1851q78 0 158 -49t108 -49q78 0 106 98h107q-23 -98 -81 -159q-58 -62 -136 -62t-158 49t-109 50q-74 0 -106 -99h-107q23 98 81 160q59 62 137 61zM90 0l238 1409h172l598 -1090h8l180 1090h189l-238 -1409h-172l-598 1090h-8l-180 -1090h-189z" />
    <glyph glyph-name="Ograve" unicode="&#xd2;" horiz-adv-x="1556" 
d="M889 1573l-238 336h197l156 -336h-115zM299 582q0 -197 113 -318t309 -121q244 0 419 200t175 484q0 197 -113 318t-309 121q-244 0 -419 -200t-175 -484zM106 573q0 367 237 614t575 247q264 0 427 -170t162 -428q-1 -367 -237 -614t-574 -247q-264 0 -427 170t-163 428
z" />
    <glyph glyph-name="Oacute" unicode="&#xd3;" horiz-adv-x="1556" 
d="M881 1573l270 336h213l-352 -336h-131zM299 582q0 -197 113 -318t309 -121q244 0 419 200t175 484q0 197 -113 318t-309 121q-244 0 -419 -200t-175 -484zM106 573q0 367 237 614t575 247q264 0 427 -170t162 -428q-1 -367 -237 -614t-574 -247q-264 0 -427 170t-163 428
z" />
    <glyph glyph-name="Ocircumflex" unicode="&#xd4;" horiz-adv-x="1556" 
d="M598 1573l322 336h163l203 -336h-172l-131 221l-205 -221h-180zM299 582q0 -197 113 -318t309 -121q244 0 419 200t175 484q0 197 -113 318t-309 121q-244 0 -419 -200t-175 -484zM106 573q0 367 237 614t575 247q264 0 427 -170t162 -428q-1 -367 -237 -614t-574 -247
q-264 0 -427 170t-163 428z" />
    <glyph glyph-name="Otilde" unicode="&#xd5;" horiz-adv-x="1556" 
d="M840 1851q78 0 158 -49t108 -49q78 0 106 98h107q-23 -98 -81 -159q-58 -62 -137 -62t-158 49t-107 50q-74 0 -107 -99h-106q23 98 80 160q59 61 137 61zM299 582q0 -197 113 -318t309 -121q244 0 419 200t175 484q0 197 -113 318t-309 121q-244 0 -419 -200t-175 -484z
M106 573q0 367 237 614t575 247q264 0 427 -170t162 -428q-1 -367 -237 -614t-574 -247q-264 0 -427 170t-163 428z" />
    <glyph glyph-name="Odieresis" unicode="&#xd6;" horiz-adv-x="1556" 
d="M664 1647l32 188h181l-33 -188h-180zM1073 1647l33 188h180l-33 -188h-180zM299 582q0 -197 113 -318t309 -121q244 0 419 200t175 484q0 197 -113 318t-309 121q-244 0 -419 -200t-175 -484zM106 573q0 367 237 614t575 247q264 0 427 -170t162 -428q-1 -367 -237 -614
t-574 -247q-264 0 -427 170t-163 428z" />
    <glyph glyph-name="multiply" unicode="&#xd7;" 
d="M184 82l-96 115l379 327l-260 320l125 106l260 -319l371 319l96 -114l-373 -322l262 -317l-125 -107l-260 318z" />
    <glyph glyph-name="Oslash" unicode="&#xd8;" horiz-adv-x="1556" 
d="M299 582q0 -150 63 -252l818 835q-113 100 -287 101q-244 0 -419 -200t-175 -484zM1315 827q0 143 -64 252l-817 -837q109 -98 287 -99q244 -1 419 199t175 485zM106 573q0 367 237 614t575 247q231 0 391 -138l133 138h155l-213 -217q123 -162 123 -381
q-1 -367 -237 -614t-574 -247q-233 0 -391 136l-133 -136h-156l211 218q-121 159 -121 380z" />
    <glyph glyph-name="Ugrave" unicode="&#xd9;" horiz-adv-x="1425" 
d="M831 1573l-237 336h197l155 -336h-115zM623 -25q-263 -1 -395 143t-81 439l148 852h188l-147 -852q-35 -201 35 -305t263 -104t307 106t149 303l147 852h188l-147 -852q-100 -582 -655 -582z" />
    <glyph glyph-name="Uacute" unicode="&#xda;" horiz-adv-x="1425" 
d="M823 1573l271 336h213l-353 -336h-131zM623 -25q-263 -1 -395 143t-81 439l148 852h188l-147 -852q-35 -201 35 -305t263 -104t307 106t149 303l147 852h188l-147 -852q-100 -582 -655 -582z" />
    <glyph glyph-name="Ucircumflex" unicode="&#xdb;" horiz-adv-x="1425" 
d="M541 1573l321 336h164l203 -336h-172l-131 221l-205 -221h-180zM623 -25q-263 -1 -395 143t-81 439l148 852h188l-147 -852q-35 -201 35 -305t263 -104t307 106t149 303l147 852h188l-147 -852q-100 -582 -655 -582z" />
    <glyph glyph-name="Udieresis" unicode="&#xdc;" horiz-adv-x="1425" 
d="M606 1647l33 188h180l-33 -188h-180zM1016 1647l33 188h180l-33 -188h-180zM623 -25q-263 -1 -395 143t-81 439l148 852h188l-147 -852q-35 -201 35 -305t263 -104t307 106t149 303l147 852h188l-147 -852q-100 -582 -655 -582z" />
    <glyph glyph-name="Yacute" unicode="&#xdd;" horiz-adv-x="1245" 
d="M741 1573l271 336h213l-353 -336h-131zM426 0l106 586l-344 823h197l270 -664h9l507 664h197l-649 -838l-105 -571h-188z" />
    <glyph glyph-name="Thorn" unicode="&#xde;" horiz-adv-x="1302" 
d="M811 1016h-362l-99 -590h346q170 0 270 100q99 100 99 252q-1 102 -67 170t-187 68zM827 1180q209 0 322 -108t113 -277q0 -240 -162 -386t-428 -147h-350l-43 -262h-189l238 1409h188l-39 -229h350z" />
    <glyph glyph-name="germandbls" unicode="&#xdf;" 
d="M738 1524q182 0 271 -73t89 -173t-45 -175t-99 -114q-144 -105 -143 -186q0 -60 95 -133q40 -31 80 -67q97 -87 95 -210q0 -189 -130 -291t-328 -102h-189l25 147h172q115 -1 189 57t73 165q0 59 -40 106t-87 76t-87 85t-40 131q0 133 101 227q42 38 84 73
q102 85 102 170q0 59 -45 99t-144 40q-256 0 -311 -327l-180 -1049h-180l180 1049q41 239 175 357q135 118 317 118z" />
    <glyph glyph-name="agrave" unicode="&#xe0;" horiz-adv-x="1073" 
d="M586 1163l-238 336h197l155 -336h-114zM238 262q0 -66 43 -102t120 -37q127 0 215 73t117 226l17 92q-25 -37 -111 -47l-197 -25q-204 -24 -204 -180zM57 246q0 276 361 319l196 25q80 10 119 27t47 55q16 82 -31 143q-48 61 -159 62q-209 0 -254 -189h-172
q31 154 142 245q112 91 300 91t284 -102t60 -299l-106 -623h-172l16 113h-6q-96 -137 -313 -138q-145 0 -229 74q-83 74 -83 197z" />
    <glyph glyph-name="aacute" unicode="&#xe1;" horiz-adv-x="1073" 
d="M561 1163l270 336h213l-352 -336h-131zM238 262q0 -66 43 -102t120 -37q127 0 215 73t117 226l17 92q-25 -37 -111 -47l-197 -25q-204 -24 -204 -180zM57 246q0 276 361 319l196 25q80 10 119 27t47 55q16 82 -31 143q-48 61 -159 62q-209 0 -254 -189h-172
q31 154 142 245q112 91 300 91t284 -102t60 -299l-106 -623h-172l16 113h-6q-96 -137 -313 -138q-145 0 -229 74q-83 74 -83 197z" />
    <glyph glyph-name="acircumflex" unicode="&#xe2;" horiz-adv-x="1073" 
d="M279 1163l321 336h164l203 -336h-172l-131 221l-205 -221h-180zM238 262q0 -66 43 -102t120 -37q127 0 215 73t117 226l17 92q-25 -37 -111 -47l-197 -25q-204 -24 -204 -180zM57 246q0 276 361 319l196 25q80 10 119 27t47 55q16 82 -31 143q-48 61 -159 62
q-209 0 -254 -189h-172q31 154 142 245q112 91 300 91t284 -102t60 -299l-106 -623h-172l16 113h-6q-96 -137 -313 -138q-145 0 -229 74q-83 74 -83 197z" />
    <glyph glyph-name="atilde" unicode="&#xe3;" horiz-adv-x="1073" 
d="M782 1221q-78 0 -158 49t-108 49q-74 0 -106 -98h-107q23 98 81 159q58 62 136 62t158 -49t108 -50q78 0 107 99h106q-23 -98 -80 -160q-59 -61 -137 -61zM238 262q0 -66 43 -102t120 -37q127 0 215 73t117 226l17 92q-25 -37 -111 -47l-197 -25q-204 -24 -204 -180z
M57 246q0 276 361 319l196 25q80 10 119 27t47 55q16 82 -31 143q-48 61 -159 62q-209 0 -254 -189h-172q31 154 142 245q112 91 300 91t284 -102t60 -299l-106 -623h-172l16 113h-6q-96 -137 -313 -138q-145 0 -229 74q-83 74 -83 197z" />
    <glyph glyph-name="adieresis" unicode="&#xe4;" horiz-adv-x="1073" 
d="M344 1237l33 188h180l-33 -188h-180zM754 1237l32 188h181l-33 -188h-180zM238 262q0 -66 43 -102t120 -37q127 0 215 73t117 226l17 92q-25 -37 -111 -47l-197 -25q-204 -24 -204 -180zM57 246q0 276 361 319l196 25q80 10 119 27t47 55q16 82 -31 143q-48 61 -159 62
q-209 0 -254 -189h-172q31 154 142 245q112 91 300 91t284 -102t60 -299l-106 -623h-172l16 113h-6q-96 -137 -313 -138q-145 0 -229 74q-83 74 -83 197z" />
    <glyph glyph-name="aring" unicode="&#xe5;" horiz-adv-x="1073" 
d="M758 1366q0 92 -94 92q-48 0 -83 -37q-36 -37 -36 -84q0 -92 93 -92q48 0 84 37t36 84zM860 1370q0 -88 -70 -152t-156 -63q-87 0 -139 45q-53 45 -53 133q0 87 70 151t157 64t139 -45t52 -133zM238 262q0 -66 43 -102t120 -37q127 0 215 73t117 226l17 92
q-25 -37 -111 -47l-197 -25q-204 -24 -204 -180zM57 246q0 276 361 319l196 25q80 10 119 27t47 55q16 82 -31 143q-48 61 -159 62q-209 0 -254 -189h-172q31 154 142 245q112 91 300 91t284 -102t60 -299l-106 -623h-172l16 113h-6q-96 -137 -313 -138q-145 0 -229 74
q-83 74 -83 197z" />
    <glyph glyph-name="ae" unicode="&#xe6;" horiz-adv-x="1728" 
d="M1479 649q-4 219 -219 219q-104 0 -187 -68q-82 -69 -121 -190h525q2 12 2 39zM401 123q129 0 220 74q90 74 114 221l17 102q-25 -41 -113 -53l-197 -25q-205 -25 -204 -180q0 -63 42 -101t121 -38zM606 1024q233 0 316 -147q143 147 358 147q216 0 322 -153t47 -396
h-721q-2 -20 -2 -65q0 -129 64 -204t181 -75q176 0 263 172h180q-123 -328 -475 -328q-260 0 -346 218q-133 -217 -424 -218q-147 0 -230 74q-82 74 -82 197q0 276 361 319l196 25q84 10 122 28t42 54q12 90 -34 147t-154 58q-209 0 -254 -189h-172q31 154 142 245
q112 91 300 91z" />
    <glyph glyph-name="ccedilla" unicode="&#xe7;" horiz-adv-x="1056" 
d="M66 401q0 301 199 490q140 133 358 133q170 0 276 -92t109 -268h-181q-6 90 -64 147t-171 57t-201 -85q-137 -132 -137 -373q0 -129 64 -204t182 -75q184 0 278 205h180q-48 -158 -166 -255t-298 -106l-11 -49q78 -6 121 -46t43 -101q0 -109 -76 -169t-202 -61h-115
l25 115h98q123 0 123 98q0 66 -99 66h-57l78 149q-172 15 -264 133t-92 291z" />
    <glyph glyph-name="egrave" unicode="&#xe8;" horiz-adv-x="1073" 
d="M586 1163l-238 336h197l155 -336h-114zM596 868q-108 0 -190 -70t-123 -188h540v29q-2 115 -60 172q-59 57 -167 57zM66 410q0 78 16 155q43 209 189 334t354 125t318 -153t50 -396h-737q-2 -23 -2 -65q0 -129 69 -204t172 -75t174 47t109 125h180q-57 -154 -179 -241
t-307 -87t-296 121q-110 121 -110 314z" />
    <glyph glyph-name="eacute" unicode="&#xe9;" horiz-adv-x="1073" 
d="M578 1163l270 336h213l-352 -336h-131zM596 868q-108 0 -190 -70t-123 -188h540v29q-2 115 -60 172q-59 57 -167 57zM66 410q0 78 16 155q43 209 189 334t354 125t318 -153t50 -396h-737q-2 -23 -2 -65q0 -129 69 -204t172 -75t174 47t109 125h180q-57 -154 -179 -241
t-307 -87t-296 121q-110 121 -110 314z" />
    <glyph glyph-name="ecircumflex" unicode="&#xea;" horiz-adv-x="1073" 
d="M295 1163l321 336h164l203 -336h-172l-131 221l-205 -221h-180zM596 868q-108 0 -190 -70t-123 -188h540v29q-2 115 -60 172q-59 57 -167 57zM66 410q0 78 16 155q43 209 189 334t354 125t318 -153t50 -396h-737q-2 -23 -2 -65q0 -129 69 -204t172 -75t174 47t109 125
h180q-57 -154 -179 -241t-307 -87t-296 121q-110 121 -110 314z" />
    <glyph glyph-name="edieresis" unicode="&#xeb;" horiz-adv-x="1073" 
d="M360 1237l33 188h180l-32 -188h-181zM770 1237l33 188h180l-33 -188h-180zM596 868q-108 0 -190 -70t-123 -188h540v29q-2 115 -60 172q-59 57 -167 57zM66 410q0 78 16 155q43 209 189 334t354 125t318 -153t50 -396h-737q-2 -23 -2 -65q0 -129 69 -204t172 -75t174 47
t109 125h180q-57 -154 -179 -241t-307 -87t-296 121q-110 121 -110 314z" />
    <glyph glyph-name="igrave" unicode="&#xec;" horiz-adv-x="491" 
d="M299 1163l-238 336h197l156 -336h-115zM66 0l172 999h180l-172 -999h-180z" />
    <glyph glyph-name="iacute" unicode="&#xed;" horiz-adv-x="491" 
d="M291 1163l270 336h213l-352 -336h-131zM66 0l172 999h180l-172 -999h-180z" />
    <glyph glyph-name="icircumflex" unicode="&#xee;" horiz-adv-x="491" 
d="M8 1163l322 336h164l202 -336h-172l-131 221l-205 -221h-180zM66 0l172 999h180l-172 -999h-180z" />
    <glyph glyph-name="idieresis" unicode="&#xef;" horiz-adv-x="491" 
d="M74 1237l32 188h181l-33 -188h-180zM483 1237l33 188h180l-32 -188h-181zM66 0l172 999h180l-172 -999h-180z" />
    <glyph glyph-name="eth" unicode="&#xf0;" horiz-adv-x="1179" 
d="M262 393q0 -121 69 -191t185 -71q116 0 214 72q97 72 138 190q25 68 25 148q0 121 -72 191q-71 70 -189 71q-118 0 -211 -73t-134 -189q-25 -70 -25 -148zM1114 786q0 -196 -59 -390t-203 -308t-346 -113q-204 0 -319 116q-114 116 -113 294q0 238 162 406t403 167
q84 0 165 -30t122 -92h8q-2 240 -166 378l-219 -149l-66 98l181 125q-102 59 -246 105l65 131q195 -57 324 -140l201 140l65 -99l-168 -114q209 -190 209 -525z" />
    <glyph glyph-name="ntilde" unicode="&#xf1;" 
d="M848 1221q-78 0 -158 49t-108 49q-74 0 -107 -98h-106q23 98 81 159q58 62 136 62t158 -49t108 -50q78 0 106 99h107q-23 -98 -81 -160t-136 -61zM713 1024q168 0 261 -105t56 -319l-104 -600h-181l99 582q49 287 -180 286q-117 0 -209 -97t-119 -255l-90 -516h-180
l172 999h172l-29 -147h10q104 172 322 172z" />
    <glyph glyph-name="ograve" unicode="&#xf2;" horiz-adv-x="1146" 
d="M618 1163l-237 336h197l155 -336h-115zM254 410q0 -129 69 -204t193 -75t224 99q133 130 137 360q0 129 -69 204q-68 74 -192 74t-226 -99q-136 -133 -136 -359zM66 401q0 283 190 473q150 150 365 150t329 -116t115 -310q0 -284 -191 -474q-150 -148 -364 -148t-330 114
q-114 116 -114 311z" />
    <glyph glyph-name="oacute" unicode="&#xf3;" horiz-adv-x="1146" 
d="M610 1163l271 336h213l-353 -336h-131zM254 410q0 -129 69 -204t193 -75t224 99q133 130 137 360q0 129 -69 204q-68 74 -192 74t-226 -99q-136 -133 -136 -359zM66 401q0 283 190 473q150 150 365 150t329 -116t115 -310q0 -284 -191 -474q-150 -148 -364 -148t-330 114
q-114 116 -114 311z" />
    <glyph glyph-name="ocircumflex" unicode="&#xf4;" horiz-adv-x="1146" 
d="M328 1163l321 336h164l203 -336h-172l-131 221l-205 -221h-180zM254 410q0 -129 69 -204t193 -75t224 99q133 130 137 360q0 129 -69 204q-68 74 -192 74t-226 -99q-136 -133 -136 -359zM66 401q0 283 190 473q150 150 365 150t329 -116t115 -310q0 -284 -191 -474
q-150 -148 -364 -148t-330 114q-114 116 -114 311z" />
    <glyph glyph-name="otilde" unicode="&#xf5;" horiz-adv-x="1146" 
d="M832 1221q-78 0 -158 49t-109 49q-74 0 -106 -98h-107q23 98 81 159q59 62 137 62t158 -49t108 -50q78 0 106 99h107q-23 -98 -81 -160t-136 -61zM254 410q0 -129 69 -204t193 -75t224 99q133 130 137 360q0 129 -69 204q-68 74 -192 74t-226 -99q-136 -133 -136 -359z
M66 401q0 283 190 473q150 150 365 150t329 -116t115 -310q0 -284 -191 -474q-150 -148 -364 -148t-330 114q-114 116 -114 311z" />
    <glyph glyph-name="odieresis" unicode="&#xf6;" horiz-adv-x="1146" 
d="M393 1237l33 188h180l-33 -188h-180zM803 1237l33 188h180l-33 -188h-180zM254 410q0 -129 69 -204t193 -75t224 99q133 130 137 360q0 129 -69 204q-68 74 -192 74t-226 -99q-136 -133 -136 -359zM66 401q0 283 190 473q150 150 365 150t329 -116t115 -310
q0 -284 -191 -474q-150 -148 -364 -148t-330 114q-114 116 -114 311z" />
    <glyph glyph-name="divide" unicode="&#xf7;" 
d="M401 49l33 205h197l-33 -205h-197zM98 442l25 156h934l-25 -156h-934zM524 778l33 205h197l-33 -205h-197z" />
    <glyph glyph-name="oslash" unicode="&#xf8;" horiz-adv-x="1146" 
d="M254 396q0 -70 22 -122l525 531q-67 63 -185 63t-223 -100q-139 -134 -139 -372zM877 600q0 68 -25 125l-522 -532q61 -61 182 -61t225 99q140 134 140 369zM66 393q0 310 202 490q160 141 379 141q170 0 279 -90l90 90h131l-156 -158q74 -109 74 -260q0 -309 -203 -489
q-160 -141 -379 -142q-168 0 -280 91l-88 -91h-131l155 158q-73 104 -73 260z" />
    <glyph glyph-name="ugrave" unicode="&#xf9;" horiz-adv-x="1146" 
d="M618 1163l-237 336h197l155 -336h-115zM434 -25q-168 -1 -261 105t-56 319l104 600h180l-98 -581q-49 -287 180 -287q117 0 205 96t115 256l90 516h180l-172 -999h-172l27 147h-8q-105 -172 -314 -172z" />
    <glyph glyph-name="uacute" unicode="&#xfa;" horiz-adv-x="1146" 
d="M610 1163l271 336h213l-353 -336h-131zM434 -25q-168 -1 -261 105t-56 319l104 600h180l-98 -581q-49 -287 180 -287q117 0 205 96t115 256l90 516h180l-172 -999h-172l27 147h-8q-105 -172 -314 -172z" />
    <glyph glyph-name="ucircumflex" unicode="&#xfb;" horiz-adv-x="1146" 
d="M328 1163l321 336h164l203 -336h-172l-131 221l-205 -221h-180zM434 -25q-168 -1 -261 105t-56 319l104 600h180l-98 -581q-49 -287 180 -287q117 0 205 96t115 256l90 516h180l-172 -999h-172l27 147h-8q-105 -172 -314 -172z" />
    <glyph glyph-name="udieresis" unicode="&#xfc;" horiz-adv-x="1146" 
d="M393 1237l33 188h180l-33 -188h-180zM803 1237l33 188h180l-33 -188h-180zM434 -25q-168 -1 -261 105t-56 319l104 600h180l-98 -581q-49 -287 180 -287q117 0 205 96t115 256l90 516h180l-172 -999h-172l27 147h-8q-105 -172 -314 -172z" />
    <glyph glyph-name="yacute" unicode="&#xfd;" horiz-adv-x="966" 
d="M528 1163l271 336h213l-353 -336h-131zM0 -311q164 0 270 205l39 75l-219 1030h189l155 -802h8l406 802h184l-606 -1155q-162 -311 -426 -311h-98l32 156h66z" />
    <glyph glyph-name="thorn" unicode="&#xfe;" horiz-adv-x="1196" 
d="M328 410q0 -131 66 -205t179 -74q162 0 257 139t96 320q0 131 -66 205t-180 73q-162 0 -257 -139t-95 -319zM700 1024q194 0 304 -114q111 -114 110 -304q0 -282 -156 -456t-376 -175q-119 1 -198 49t-112 132h-8q-6 -44 -47 -312l-49 -295h-180l331 1950h181l-49 -295
q-25 -160 -66 -336h6q115 156 309 156z" />
    <glyph glyph-name="ydieresis" unicode="&#xff;" horiz-adv-x="966" 
d="M311 1237l33 188h180l-32 -188h-181zM721 1237l33 188h180l-33 -188h-180zM0 -311q164 0 270 205l39 75l-219 1030h189l155 -802h8l406 802h184l-606 -1155q-162 -311 -426 -311h-98l32 156h66z" />
    <glyph glyph-name="Amacron" unicode="&#x100;" horiz-adv-x="1318" 
d="M557 1671l25 139h565l-25 -139h-565zM770 1212l-360 -680h497l-129 680h-8zM-66 0l754 1409h230l286 -1409h-196l-70 369h-616l-195 -369h-193z" />
    <glyph glyph-name="amacron" unicode="&#x101;" horiz-adv-x="1073" 
d="M352 1262l25 139h565l-24 -139h-566zM238 262q0 -66 43 -102t120 -37q127 0 215 73t117 226l17 92q-25 -37 -111 -47l-197 -25q-204 -24 -204 -180zM57 246q0 276 361 319l196 25q80 10 119 27t47 55q16 82 -31 143q-48 61 -159 62q-209 0 -254 -189h-172q31 154 142 245
q112 91 300 91t284 -102t60 -299l-106 -623h-172l16 113h-6q-96 -137 -313 -138q-145 0 -229 74q-83 74 -83 197z" />
    <glyph glyph-name="Abreve" unicode="&#x102;" horiz-adv-x="1318" 
d="M836 1597q-115 0 -187 68t-59 219h115q-4 -172 139 -172t213 172h114q-81 -287 -335 -287zM770 1212l-360 -680h497l-129 680h-8zM-66 0l754 1409h230l286 -1409h-196l-70 369h-616l-195 -369h-193z" />
    <glyph glyph-name="abreve" unicode="&#x103;" horiz-adv-x="1073" 
d="M631 1188q-115 0 -187 68t-59 219h115q-4 -172 139 -172t213 172h115q-82 -287 -336 -287zM238 262q0 -66 43 -102t120 -37q127 0 215 73t117 226l17 92q-25 -37 -111 -47l-197 -25q-204 -24 -204 -180zM57 246q0 276 361 319l196 25q80 10 119 27t47 55q16 82 -31 143
q-48 61 -159 62q-209 0 -254 -189h-172q31 154 142 245q112 91 300 91t284 -102t60 -299l-106 -623h-172l16 113h-6q-96 -137 -313 -138q-145 0 -229 74q-83 74 -83 197z" />
    <glyph glyph-name="Aogonek" unicode="&#x104;" horiz-adv-x="1318" 
d="M770 1212l-360 -680h497l-129 680h-8zM893 -287q0 78 57 146t156 141h-98l-70 369h-616l-195 -369h-193l754 1409h230l286 -1409q-164 -145 -164 -254q0 -74 99 -74h57l-25 -123h-81q-96 0 -147 43q-50 43 -50 121z" />
    <glyph glyph-name="aogonek" unicode="&#x105;" horiz-adv-x="1073" 
d="M238 262q0 -66 43 -102t120 -37q127 0 215 73t117 226l17 92q-25 -37 -111 -47l-197 -25q-204 -24 -204 -180zM541 -287q0 78 57 146t156 141h-82l16 113h-6q-96 -137 -313 -138q-145 0 -229 74q-83 74 -83 197q0 276 361 319l196 25q80 10 119 27t47 55q16 82 -31 143
q-48 61 -159 62q-209 0 -254 -189h-172q31 154 142 245q112 91 300 91t284 -102t60 -299l-106 -623h8q-164 -145 -164 -254q0 -74 98 -74h58l-25 -123h-82q-96 0 -146 43t-50 121z" />
    <glyph glyph-name="Cacute" unicode="&#x106;" horiz-adv-x="1458" 
d="M864 1573l271 336h213l-353 -336h-131zM106 557q0 381 222 629t565 248q240 0 388 -126t161 -341h-193q-57 299 -381 299q-244 0 -406 -201t-163 -483q0 -197 111 -318t288 -121t281 75t180 224h193q-76 -221 -244 -344t-427 -123t-417 164t-158 418z" />
    <glyph glyph-name="cacute" unicode="&#x107;" horiz-adv-x="1056" 
d="M586 1163l270 336h213l-352 -336h-131zM66 401q0 301 199 490q140 133 358 133q170 0 276 -92t109 -268h-181q-6 90 -64 147t-171 57t-201 -85q-137 -132 -137 -373q0 -129 64 -204t182 -75q184 0 278 205h180q-49 -164 -174 -262q-126 -98 -318 -98t-296 120
q-104 121 -104 305z" />
    <glyph glyph-name="Ccircumflex" unicode="&#x108;" horiz-adv-x="1458" 
d="M582 1573l321 336h164l203 -336h-172l-131 221l-205 -221h-180zM106 557q0 381 222 629t565 248q240 0 388 -126t161 -341h-193q-57 299 -381 299q-244 0 -406 -201t-163 -483q0 -197 111 -318t288 -121t281 75t180 224h193q-76 -221 -244 -344t-427 -123t-417 164
t-158 418z" />
    <glyph glyph-name="ccircumflex" unicode="&#x109;" horiz-adv-x="1056" 
d="M303 1163l322 336h163l203 -336h-172l-131 221l-205 -221h-180zM66 401q0 301 199 490q140 133 358 133q170 0 276 -92t109 -268h-181q-6 90 -64 147t-171 57t-201 -85q-137 -132 -137 -373q0 -129 64 -204t182 -75q184 0 278 205h180q-49 -164 -174 -262
q-126 -98 -318 -98t-296 120q-104 121 -104 305z" />
    <glyph glyph-name="Cdotaccent" unicode="&#x10a;" horiz-adv-x="1458" 
d="M852 1647l33 188h180l-33 -188h-180zM106 557q0 381 222 629t565 248q240 0 388 -126t161 -341h-193q-57 299 -381 299q-244 0 -406 -201t-163 -483q0 -197 111 -318t288 -121t281 75t180 224h193q-76 -221 -244 -344t-427 -123t-417 164t-158 418z" />
    <glyph glyph-name="cdotaccent" unicode="&#x10b;" horiz-adv-x="1056" 
d="M573 1237l33 188h180l-32 -188h-181zM66 401q0 301 199 490q140 133 358 133q170 0 276 -92t109 -268h-181q-6 90 -64 147t-171 57t-201 -85q-137 -132 -137 -373q0 -129 64 -204t182 -75q184 0 278 205h180q-49 -164 -174 -262q-126 -98 -318 -98t-296 120
q-104 121 -104 305z" />
    <glyph glyph-name="Ccaron" unicode="&#x10c;" horiz-adv-x="1458" 
d="M848 1573l-207 336h172l131 -221l205 221h180l-321 -336h-160zM106 557q0 381 222 629t565 248q240 0 388 -126t161 -341h-193q-57 299 -381 299q-244 0 -406 -201t-163 -483q0 -197 111 -318t288 -121t281 75t180 224h193q-76 -221 -244 -344t-427 -123t-417 164
t-158 418z" />
    <glyph glyph-name="ccaron" unicode="&#x10d;" horiz-adv-x="1056" 
d="M569 1163l-207 336h173l131 -221l204 221h181l-322 -336h-160zM66 401q0 301 199 490q140 133 358 133q170 0 276 -92t109 -268h-181q-6 90 -64 147t-171 57t-201 -85q-137 -132 -137 -373q0 -129 64 -204t182 -75q184 0 278 205h180q-49 -164 -174 -262
q-126 -98 -318 -98t-296 120q-104 121 -104 305z" />
    <glyph glyph-name="Dcaron" unicode="&#x10e;" horiz-adv-x="1441" 
d="M741 1573l-206 336h172l131 -221l204 221h181l-322 -336h-160zM737 1245h-250l-182 -1081h227q301 0 483 182q181 182 181 465q0 195 -114 315t-345 119zM754 1409q303 0 471 -163t168 -427q0 -363 -239 -591t-638 -228h-426l238 1409h426z" />
    <glyph glyph-name="dcaron" unicode="&#x10f;" horiz-adv-x="1196" 
d="M1311 1057l98 237h-82l33 205h192l-28 -188l-123 -254h-90zM254 410q0 -131 66 -205t180 -74q162 0 257 139t95 320q0 131 -66 205t-180 73q-162 0 -257 -139t-95 -319zM66 393q0 281 155 456q156 175 377 175q119 0 201 -51t108 -129h8q16 145 52 323l57 332h180
l-254 -1499h-176l21 131h-9q-115 -156 -310 -156q-194 1 -302 113t-108 305z" />
    <glyph glyph-name="Dcroat" unicode="&#x110;" horiz-adv-x="1441" 
d="M737 1245h-250l-75 -459h325l-24 -155h-328l-80 -467h236q301 0 478 182t177 465q0 195 -114 315t-345 119zM754 1409q301 0 470 -162t169 -420q0 -369 -240 -598t-645 -229h-418l107 631h-172l24 155h174l105 623h426z" />
    <glyph glyph-name="dcroat" unicode="&#x111;" horiz-adv-x="1196" 
d="M254 410q0 -131 66 -205t180 -74q162 0 257 139t95 320q0 131 -66 205t-180 73q-162 0 -257 -139t-95 -319zM476 -25q-195 0 -303 113t-107 305q0 281 155 456q156 175 377 175q119 0 201 -51t108 -129h8q16 145 52 323l8 45h-295l25 123h290l29 164h180l-28 -164h159
l-24 -123h-156l-205 -1212h-176l21 131h-9q-115 -156 -310 -156z" />
    <glyph glyph-name="Emacron" unicode="&#x112;" horiz-adv-x="1253" 
d="M557 1671l25 139h565l-25 -139h-565zM90 0l238 1409h958l-24 -164h-775l-73 -446h610l-25 -164h-614l-80 -471h785l-25 -164h-975z" />
    <glyph glyph-name="emacron" unicode="&#x113;" horiz-adv-x="1073" 
d="M369 1262l24 139h565l-24 -139h-565zM596 868q-108 0 -190 -70t-123 -188h540v29q-2 115 -60 172q-59 57 -167 57zM66 410q0 78 16 155q43 209 189 334t354 125t318 -153t50 -396h-737q-2 -23 -2 -65q0 -129 69 -204t172 -75t174 47t109 125h180q-57 -154 -179 -241
t-307 -87t-296 121q-110 121 -110 314z" />
    <glyph glyph-name="Ebreve" unicode="&#x114;" horiz-adv-x="1253" 
d="M836 1597q-115 0 -187 68t-59 219h115q-4 -172 139 -172t213 172h114q-81 -287 -335 -287zM90 0l238 1409h958l-24 -164h-775l-73 -446h610l-25 -164h-614l-80 -471h785l-25 -164h-975z" />
    <glyph glyph-name="ebreve" unicode="&#x115;" horiz-adv-x="1073" 
d="M647 1188q-115 0 -187 68t-59 219h115q-4 -172 139 -172t213 172h115q-82 -287 -336 -287zM596 868q-108 0 -190 -70t-123 -188h540v29q-2 115 -60 172q-59 57 -167 57zM66 410q0 78 16 155q43 209 189 334t354 125t318 -153t50 -396h-737q-2 -23 -2 -65q0 -129 69 -204
t172 -75t174 47t109 125h180q-57 -154 -179 -241t-307 -87t-296 121q-110 121 -110 314z" />
    <glyph glyph-name="Edotaccent" unicode="&#x116;" horiz-adv-x="1253" 
d="M754 1647l32 188h181l-33 -188h-180zM90 0l238 1409h958l-24 -164h-775l-73 -446h610l-25 -164h-614l-80 -471h785l-25 -164h-975z" />
    <glyph glyph-name="edotaccent" unicode="&#x117;" horiz-adv-x="1073" 
d="M565 1237l33 188h180l-33 -188h-180zM596 868q-108 0 -190 -70t-123 -188h540v29q-2 115 -60 172q-59 57 -167 57zM66 410q0 78 16 155q43 209 189 334t354 125t318 -153t50 -396h-737q-2 -23 -2 -65q0 -129 69 -204t172 -75t174 47t109 125h180q-57 -154 -179 -241
t-307 -87t-296 121q-110 121 -110 314z" />
    <glyph glyph-name="Eogonek" unicode="&#x118;" horiz-adv-x="1253" 
d="M901 -254q0 -74 98 -74h58l-25 -123h-82q-96 0 -146 43t-50 121t57 146t156 141h-877l238 1409h958l-24 -164h-775l-73 -446h610l-25 -164h-614l-80 -471h785l-25 -164q-164 -145 -164 -254z" />
    <glyph glyph-name="eogonek" unicode="&#x119;" horiz-adv-x="1073" 
d="M590 868q-102 0 -184 -70t-123 -188h540q7 258 -233 258zM66 410q0 78 16 155q43 209 189 334t354 125t318 -153t50 -396h-737q-2 -23 -2 -65q0 -129 69 -204t172 -75t174 47t109 125h180q-66 -170 -213 -262q-283 -178 -282 -297q0 -72 102 -72h58l-21 -123h-82
q-205 0 -205 156q0 139 197 272q-12 -2 -37 -2q-188 0 -299 121q-110 121 -110 314z" />
    <glyph glyph-name="Ecaron" unicode="&#x11a;" horiz-adv-x="1253" 
d="M750 1573l-207 336h172l131 -221l205 221h180l-322 -336h-159zM90 0l238 1409h958l-24 -164h-775l-73 -446h610l-25 -164h-614l-80 -471h785l-25 -164h-975z" />
    <glyph glyph-name="ecaron" unicode="&#x11b;" horiz-adv-x="1073" 
d="M561 1163l-207 336h172l131 -221l205 221h180l-321 -336h-160zM596 868q-108 0 -190 -70t-123 -188h540v29q-2 115 -60 172q-59 57 -167 57zM66 410q0 78 16 155q43 209 189 334t354 125t318 -153t50 -396h-737q-2 -23 -2 -65q0 -129 69 -204t172 -75t174 47t109 125h180
q-57 -154 -179 -241t-307 -87t-296 121q-110 121 -110 314z" />
    <glyph glyph-name="Gcircumflex" unicode="&#x11c;" horiz-adv-x="1556" 
d="M606 1573l322 336h164l202 -336h-172l-131 221l-205 -221h-180zM1188 0v180h-8q-190 -205 -500 -205q-258 0 -416 164t-158 418q0 379 232 628t580 249q256 0 401 -121t156 -322h-197q-16 121 -108 198t-277 77q-254 0 -424 -201t-170 -483q0 -197 111 -318t300 -121
t342 112t179 304l4 23h-440l24 163h623l-131 -745h-123z" />
    <glyph glyph-name="gcircumflex" unicode="&#x11d;" horiz-adv-x="1196" 
d="M295 1163l321 336h164l203 -336h-172l-131 221l-205 -221h-180zM254 410q0 -131 66 -205t180 -74q162 0 257 139t95 320q0 131 -66 205t-180 73q-162 0 -257 -139t-95 -319zM418 -319q307 0 356 319l21 131h-9q-115 -156 -310 -156t-303 113t-107 305q0 281 155 456
q156 175 377 175q119 0 201 -51t108 -129h8l27 155h176l-168 -999q-80 -467 -549 -467q-195 0 -307 93t-82 251h170q-16 -90 50 -143t186 -53z" />
    <glyph glyph-name="Gbreve" unicode="&#x11e;" horiz-adv-x="1556" 
d="M958 1597q-114 0 -186 68t-59 219h114q-5 -172 139 -172t214 172h114q-82 -287 -336 -287zM1188 0v180h-8q-190 -205 -500 -205q-258 0 -416 164t-158 418q0 379 232 628t580 249q256 0 401 -121t156 -322h-197q-16 121 -108 198t-277 77q-254 0 -424 -201t-170 -483
q0 -197 111 -318t300 -121t342 112t179 304l4 23h-440l24 163h623l-131 -745h-123z" />
    <glyph glyph-name="gbreve" unicode="&#x11f;" horiz-adv-x="1196" 
d="M647 1188q-115 0 -187 68t-59 219h115q-4 -172 139 -172t213 172h115q-82 -287 -336 -287zM254 410q0 -131 66 -205t180 -74q162 0 257 139t95 320q0 131 -66 205t-180 73q-162 0 -257 -139t-95 -319zM418 -319q307 0 356 319l21 131h-9q-115 -156 -310 -156t-303 113
t-107 305q0 281 155 456q156 175 377 175q119 0 201 -51t108 -129h8l27 155h176l-168 -999q-80 -467 -549 -467q-195 0 -307 93t-82 251h170q-16 -90 50 -143t186 -53z" />
    <glyph glyph-name="Gdotaccent" unicode="&#x120;" horiz-adv-x="1556" 
d="M877 1647l32 188h181l-33 -188h-180zM1188 0v180h-8q-190 -205 -500 -205q-258 0 -416 164t-158 418q0 379 232 628t580 249q256 0 401 -121t156 -322h-197q-16 121 -108 198t-277 77q-254 0 -424 -201t-170 -483q0 -197 111 -318t300 -121t342 112t179 304l4 23h-440
l24 163h623l-131 -745h-123z" />
    <glyph glyph-name="gdotaccent" unicode="&#x121;" horiz-adv-x="1196" 
d="M565 1237l33 188h180l-33 -188h-180zM254 410q0 -131 66 -205t180 -74q162 0 257 139t95 320q0 131 -66 205t-180 73q-162 0 -257 -139t-95 -319zM418 -319q307 0 356 319l21 131h-9q-115 -156 -310 -156t-303 113t-107 305q0 281 155 456q156 175 377 175q119 0 201 -51
t108 -129h8l27 155h176l-168 -999q-80 -467 -549 -467q-195 0 -307 93t-82 251h170q-16 -90 50 -143t186 -53z" />
    <glyph glyph-name="Gcommaaccent" unicode="&#x122;" horiz-adv-x="1556" 
d="M565 -139h180l-28 -160l-111 -209h-82l84 189h-76zM1188 0v180h-8q-190 -205 -500 -205q-258 0 -416 164t-158 418q0 379 232 628t580 249q256 0 401 -121t156 -322h-197q-16 121 -108 198t-277 77q-254 0 -424 -201t-170 -483q0 -197 111 -318t300 -121t342 112t179 304
l4 23h-440l24 163h623l-131 -745h-123z" />
    <glyph glyph-name="gcommaaccent" unicode="&#x123;" horiz-adv-x="1196" 
d="M549 1163l29 160l110 209h82l-84 -189h76l-33 -180h-180zM254 410q0 -131 66 -205t180 -74q162 0 257 139t95 320q0 131 -66 205t-180 73q-162 0 -257 -139t-95 -319zM418 -319q307 0 356 319l21 131h-9q-115 -156 -310 -156t-303 113t-107 305q0 281 155 456
q156 175 377 175q119 0 201 -51t108 -129h8l27 155h176l-168 -999q-80 -467 -549 -467q-195 0 -307 93t-82 251h170q-16 -90 50 -143t186 -53z" />
    <glyph glyph-name="Hcircumflex" unicode="&#x124;" horiz-adv-x="1490" 
d="M573 1573l322 336h164l203 -336h-172l-132 221l-204 -221h-181zM90 0l238 1409h188l-104 -614h753l105 614h188l-237 -1409h-189l107 631h-754l-106 -631h-189z" />
    <glyph glyph-name="hcircumflex" unicode="&#x125;" 
d="M82 1663l321 336h164l203 -336h-172l-131 221l-205 -221h-180zM713 1024q168 0 261 -105t56 -319l-104 -600h-181l99 582q49 287 -180 286q-117 0 -209 -97t-119 -255l-90 -516h-180l253 1499h181l-58 -328q-55 -299 -59 -319h8q104 172 322 172z" />
    <glyph glyph-name="Hbar" unicode="&#x126;" horiz-adv-x="1490" 
d="M453 1032l-41 -237h753l41 237h-753zM82 1032l24 156h185l37 221h188l-37 -221h754l37 221h188l-37 -221h176l-24 -156h-178l-174 -1032h-189l107 631h-754l-106 -631h-189l174 1032h-182z" />
    <glyph glyph-name="hbar" unicode="&#x127;" 
d="M713 1024q168 0 261 -105t56 -319l-104 -600h-181l99 582q49 287 -180 286q-117 0 -209 -97t-119 -255l-90 -516h-180l204 1212h-155l24 123h152l28 164h181l-29 -164h299l-25 -123h-296l-7 -41q-55 -299 -59 -319h8q104 172 322 172z" />
    <glyph glyph-name="Itilde" unicode="&#x128;" horiz-adv-x="548" 
d="M341 1851q79 0 158 -49t107 -49q78 0 107 98h106q-23 -98 -81 -159q-58 -62 -136 -62t-157 49t-109 50q-74 0 -107 -99h-106q23 98 81 160t137 61zM90 0l238 1409h188l-237 -1409h-189z" />
    <glyph glyph-name="itilde" unicode="&#x129;" horiz-adv-x="491" 
d="M512 1221q-78 0 -158 49t-108 49q-74 0 -107 -98h-106q23 98 81 159q58 62 136 62t158 -49t108 -50q78 0 107 99h106q-23 -98 -81 -160t-136 -61zM66 0l172 999h180l-172 -999h-180z" />
    <glyph glyph-name="Imacron" unicode="&#x12a;" horiz-adv-x="548" 
d="M172 1671l25 139h565l-25 -139h-565zM90 0l238 1409h188l-237 -1409h-189z" />
    <glyph glyph-name="imacron" unicode="&#x12b;" horiz-adv-x="491" 
d="M82 1262l24 139h566l-25 -139h-565zM66 0l172 999h180l-172 -999h-180z" />
    <glyph glyph-name="Ibreve" unicode="&#x12c;" horiz-adv-x="548" 
d="M451 1597q-115 0 -187 68t-59 219h114q-5 -172 139 -172t214 172h114q-81 -287 -335 -287zM90 0l238 1409h188l-237 -1409h-189z" />
    <glyph glyph-name="ibreve" unicode="&#x12d;" horiz-adv-x="491" 
d="M360 1188q-114 0 -186 68t-59 219h114q-5 -172 139 -172t214 172h114q-82 -287 -336 -287zM66 0l172 999h180l-172 -999h-180z" />
    <glyph glyph-name="Iogonek" unicode="&#x12e;" horiz-adv-x="548" 
d="M115 -254q0 -74 98 -74h57l-24 -123h-82q-96 0 -147 43q-50 43 -50 121q-1 78 57 146t156 141h-90l238 1409h188l-237 -1409q-164 -145 -164 -254z" />
    <glyph glyph-name="iogonek" unicode="&#x12f;" horiz-adv-x="491" 
d="M279 1294l32 205h197l-33 -205h-196zM82 -254q0 -74 98 -74h58l-25 -123h-82q-96 0 -146 43q-51 43 -51 121t58 146t155 141h-81l172 999h180l-172 -999q-164 -145 -164 -254z" />
    <glyph glyph-name="Idotaccent" unicode="&#x130;" horiz-adv-x="548" 
d="M369 1647l32 188h181l-33 -188h-180zM90 0l238 1409h188l-237 -1409h-189z" />
    <glyph glyph-name="dotlessi" unicode="&#x131;" horiz-adv-x="491" 
d="M66 0l172 999h180l-172 -999h-180z" />
    <glyph glyph-name="IJ" unicode="&#x132;" horiz-adv-x="1605" 
d="M90 0l238 1409h188l-237 -1409h-189zM610 401l13 66h188l-12 -66q-27 -139 17 -200t154 -61t176 62q66 64 91 216l172 991h188l-172 -991q-41 -236 -153 -339t-308 -103t-296 102t-58 323z" />
    <glyph glyph-name="ij" unicode="&#x133;" horiz-adv-x="983" 
d="M66 0l172 999h180l-172 -999h-180zM391 -295q61 0 93 36t44 112l199 1146h180l-205 -1179q-47 -270 -327 -271h-66l25 156h57zM279 1294l32 205h197l-33 -205h-196zM768 1294l33 205h196l-32 -205h-197z" />
    <glyph glyph-name="Jcircumflex" unicode="&#x134;" horiz-adv-x="1048" 
d="M631 1573l321 336h164l203 -336h-172l-131 221l-205 -221h-180zM398 -25q-196 1 -290 103t-55 323l13 66h188l-12 -66q-49 -262 168 -262q223 0 270 279l172 991h188l-172 -991q-42 -236 -158 -340t-312 -103z" />
    <glyph glyph-name="jcircumflex" unicode="&#x135;" horiz-adv-x="491" 
d="M8 1163l322 336h164l202 -336h-172l-131 221l-205 -221h-180zM-98 -295q61 0 93 36t44 112l199 1146h180l-205 -1179q-47 -270 -328 -271h-65l24 156h58z" />
    <glyph glyph-name="Kcommaaccent" unicode="&#x136;" horiz-adv-x="1343" 
d="M524 -139h181l-29 -160l-111 -209h-82l84 189h-75zM90 0l238 1409h188l-123 -733l811 733h230l-680 -618l458 -791h-204l-392 666l-266 -244l-71 -422h-189z" />
    <glyph glyph-name="kcommaaccent" unicode="&#x137;" horiz-adv-x="1032" 
d="M369 -139h180l-29 -160l-110 -209h-82l84 189h-76zM66 0l253 1499h181l-164 -967l508 467h221l-449 -405l306 -594h-201l-240 471l-184 -168l-51 -303h-180z" />
    <glyph glyph-name="Lacute" unicode="&#x139;" horiz-adv-x="1114" 
d="M381 1573l270 336h213l-352 -336h-131zM90 0l238 1409h188l-211 -1245h686l-24 -164h-877z" />
    <glyph glyph-name="lacute" unicode="&#x13a;" horiz-adv-x="491" 
d="M373 1663l270 336h213l-352 -336h-131zM66 0l253 1499h181l-254 -1499h-180z" />
    <glyph glyph-name="Lcommaaccent" unicode="&#x13b;" horiz-adv-x="1114" 
d="M418 -139h180l-29 -160l-110 -209h-82l84 189h-76zM90 0l238 1409h188l-211 -1245h686l-24 -164h-877z" />
    <glyph glyph-name="lcommaaccent" unicode="&#x13c;" horiz-adv-x="491" 
d="M41 -139h180l-28 -160l-111 -209h-82l84 189h-76zM66 0l253 1499h181l-254 -1499h-180z" />
    <glyph glyph-name="Lcaron" unicode="&#x13d;" horiz-adv-x="1114" 
d="M745 967l99 237h-82l33 205h196l-33 -188l-122 -254h-91zM90 0l238 1409h188l-211 -1245h686l-24 -164h-877z" />
    <glyph glyph-name="lcaron" unicode="&#x13e;" horiz-adv-x="491" 
d="M66 0l253 1499h181l-254 -1499h-180zM606 1057l99 237h-82l32 205h193l-29 -188l-123 -254h-90z" />
    <glyph glyph-name="Ldot" unicode="&#x13f;" horiz-adv-x="1114" 
d="M639 623l33 204h196l-32 -204h-197zM90 0l238 1409h188l-211 -1245h686l-24 -164h-877z" />
    <glyph glyph-name="ldot" unicode="&#x140;" horiz-adv-x="655" 
d="M492 590l32 205h197l-33 -205h-196zM66 0l253 1499h181l-254 -1499h-180z" />
    <glyph glyph-name="Lslash" unicode="&#x141;" horiz-adv-x="1114" 
d="M8 369l-74 123l267 172l127 745h188l-102 -608l282 182l74 -123l-389 -252l-76 -444h686l-24 -164h-877l80 473z" />
    <glyph glyph-name="lslash" unicode="&#x142;" horiz-adv-x="491" 
d="M16 426l-65 98l235 193l133 782h181l-105 -610l137 110l66 -98l-231 -190l-121 -711h-180l90 541z" />
    <glyph glyph-name="Nacute" unicode="&#x143;" horiz-adv-x="1507" 
d="M864 1573l271 336h213l-353 -336h-131zM90 0l238 1409h172l598 -1090h8l180 1090h189l-238 -1409h-172l-598 1090h-8l-180 -1090h-189z" />
    <glyph glyph-name="nacute" unicode="&#x144;" 
d="M627 1163l270 336h213l-352 -336h-131zM713 1024q168 0 261 -105t56 -319l-104 -600h-181l99 582q49 287 -180 286q-117 0 -209 -97t-119 -255l-90 -516h-180l172 999h172l-29 -147h10q104 172 322 172z" />
    <glyph glyph-name="Ncommaaccent" unicode="&#x145;" horiz-adv-x="1507" 
d="M541 -139h180l-29 -160l-110 -209h-82l84 189h-76zM90 0l238 1409h172l598 -1090h8l180 1090h189l-238 -1409h-172l-598 1090h-8l-180 -1090h-189z" />
    <glyph glyph-name="ncommaaccent" unicode="&#x146;" 
d="M377 -139h180l-29 -160l-110 -209h-82l84 189h-76zM713 1024q168 0 261 -105t56 -319l-104 -600h-181l99 582q49 287 -180 286q-117 0 -209 -97t-119 -255l-90 -516h-180l172 999h172l-29 -147h10q104 172 322 172z" />
    <glyph glyph-name="Ncaron" unicode="&#x147;" horiz-adv-x="1507" 
d="M848 1573l-207 336h172l131 -221l205 221h180l-321 -336h-160zM90 0l238 1409h172l598 -1090h8l180 1090h189l-238 -1409h-172l-598 1090h-8l-180 -1090h-189z" />
    <glyph glyph-name="ncaron" unicode="&#x148;" 
d="M610 1163l-207 336h172l132 -221l204 221h181l-322 -336h-160zM713 1024q168 0 261 -105t56 -319l-104 -600h-181l99 582q49 287 -180 286q-117 0 -209 -97t-119 -255l-90 -516h-180l172 999h172l-29 -147h10q104 172 322 172z" />
    <glyph glyph-name="napostrophe" unicode="&#x149;" 
d="M287 1163l84 189h-76l33 180h180l-29 -160l-110 -209h-82zM713 1024q168 0 261 -105t56 -319l-104 -600h-181l99 582q49 287 -180 286q-117 0 -209 -97t-119 -255l-90 -516h-180l172 999h172l-29 -147h10q104 172 322 172z" />
    <glyph glyph-name="Eng" unicode="&#x14a;" horiz-adv-x="1507" 
d="M786 -451h-98l33 172h90q97 -1 153 53t76 177l11 61l-584 1094h-8l-180 -1106h-189l238 1409h180l590 -1106h8l180 1106h189l-248 -1475q-33 -213 -144 -299t-297 -86z" />
    <glyph glyph-name="eng" unicode="&#x14b;" 
d="M582 -295q61 0 93 36t44 112l125 729q49 287 -180 286q-117 0 -209 -97t-119 -255l-90 -516h-180l172 999h172l-27 -147h8q104 172 322 172q168 0 261 -105t56 -319l-135 -780q-20 -125 -102 -198t-228 -73h-65l24 156h58z" />
    <glyph glyph-name="Omacron" unicode="&#x14c;" horiz-adv-x="1556" 
d="M672 1671l24 139h566l-25 -139h-565zM299 582q0 -197 113 -318t309 -121q244 0 419 200t175 484q0 197 -113 318t-309 121q-244 0 -419 -200t-175 -484zM106 573q0 367 237 614t575 247q264 0 427 -170t162 -428q-1 -367 -237 -614t-574 -247q-264 0 -427 170t-163 428z
" />
    <glyph glyph-name="omacron" unicode="&#x14d;" horiz-adv-x="1146" 
d="M401 1262l25 139h565l-24 -139h-566zM254 410q0 -129 69 -204t193 -75t224 99q133 130 137 360q0 129 -69 204q-68 74 -192 74t-226 -99q-136 -133 -136 -359zM66 401q0 283 190 473q150 150 365 150t329 -116t115 -310q0 -284 -191 -474q-150 -148 -364 -148t-330 114
q-114 116 -114 311z" />
    <glyph glyph-name="Obreve" unicode="&#x14e;" horiz-adv-x="1556" 
d="M950 1597q-114 0 -186 68t-59 219h114q-4 -172 139 -172t213 172h115q-82 -287 -336 -287zM299 582q0 -197 113 -318t309 -121q244 0 419 200t175 484q0 197 -113 318t-309 121q-244 0 -419 -200t-175 -484zM106 573q0 367 237 614t575 247q264 0 427 -170t162 -428
q-1 -367 -237 -614t-574 -247q-264 0 -427 170t-163 428z" />
    <glyph glyph-name="obreve" unicode="&#x14f;" horiz-adv-x="1146" 
d="M680 1188q-114 0 -186 68t-60 219h115q-4 -172 139 -172t213 172h115q-82 -287 -336 -287zM254 410q0 -129 69 -204t193 -75t224 99q133 130 137 360q0 129 -69 204q-68 74 -192 74t-226 -99q-136 -133 -136 -359zM66 401q0 283 190 473q150 150 365 150t329 -116
t115 -310q0 -284 -191 -474q-150 -148 -364 -148t-330 114q-114 116 -114 311z" />
    <glyph glyph-name="Ohungarumlaut" unicode="&#x150;" horiz-adv-x="1556" 
d="M688 1573l270 336h213l-352 -336h-131zM1057 1573l270 336h213l-352 -336h-131zM299 582q0 -197 113 -318t309 -121q244 0 419 200t175 484q0 197 -113 318t-309 121q-244 0 -419 -200t-175 -484zM106 573q0 367 237 614t575 247q264 0 427 -170t162 -428
q-1 -367 -237 -614t-574 -247q-264 0 -427 170t-163 428z" />
    <glyph glyph-name="ohungarumlaut" unicode="&#x151;" horiz-adv-x="1146" 
d="M418 1163l270 336h213l-352 -336h-131zM786 1163l271 336h213l-352 -336h-132zM254 410q0 -129 69 -204t193 -75t224 99q133 130 137 360q0 129 -69 204q-68 74 -192 74t-226 -99q-136 -133 -136 -359zM66 401q0 283 190 473q150 150 365 150t329 -116t115 -310
q0 -284 -191 -474q-150 -148 -364 -148t-330 114q-114 116 -114 311z" />
    <glyph glyph-name="OE" unicode="&#x152;" horiz-adv-x="2113" 
d="M303 598q0 -194 114 -314t345 -120h223l182 1081h-209q-301 0 -478 -182t-177 -465zM106 573q0 373 238 605t639 231h1163l-24 -164h-766l-74 -446h602l-24 -164h-607l-79 -471h776l-25 -164h-1188q-295 0 -463 160t-168 413z" />
    <glyph glyph-name="oe" unicode="&#x153;" horiz-adv-x="1867" 
d="M1388 868q-106 0 -188 -70t-121 -188h539v29q-2 115 -62 172q-62 57 -168 57zM254 410q0 -131 66 -205t189 -74q124 0 228 100q136 131 140 359q0 131 -66 205q-65 73 -189 73t-228 -100q-140 -133 -140 -358zM66 393q0 310 202 490q160 141 379 141q260 0 357 -201
q152 201 405 201q219 0 329 -153t50 -396h-737q-2 -23 -2 -65q1 -129 69 -204t172 -75q198 0 283 172h180q-57 -154 -179 -241t-304 -87q-258 0 -352 211q-156 -211 -435 -211q-193 1 -305 113t-112 305z" />
    <glyph glyph-name="Racute" unicode="&#x154;" horiz-adv-x="1335" 
d="M733 1573l271 336h213l-353 -336h-131zM844 1245h-357l-90 -532h365q158 0 247 92t89 235q0 94 -66 150t-188 55zM860 1409q215 0 325 -91q109 -91 109 -269q0 -179 -106 -311t-291 -173l266 -565h-205l-253 549h-334l-92 -549h-189l238 1409h532z" />
    <glyph glyph-name="racute" unicode="&#x155;" horiz-adv-x="753" 
d="M487 1163l271 336h213l-353 -336h-131zM672 1024q86 0 139 -41l-82 -164q-55 33 -123 33q-102 0 -174 -97t-96 -239l-90 -516h-180l172 999h172l-25 -133h10q94 158 277 158z" />
    <glyph glyph-name="Rcommaaccent" unicode="&#x156;" horiz-adv-x="1335" 
d="M483 -139h181l-29 -160l-111 -209h-82l84 189h-75zM844 1245h-357l-90 -532h365q158 0 247 92t89 235q0 94 -66 150t-188 55zM860 1409q215 0 325 -91q109 -91 109 -269q0 -179 -106 -311t-291 -173l266 -565h-205l-253 549h-334l-92 -549h-189l238 1409h532z" />
    <glyph glyph-name="rcommaaccent" unicode="&#x157;" horiz-adv-x="753" 
d="M41 -139h180l-28 -160l-111 -209h-82l84 189h-76zM672 1024q86 0 139 -41l-82 -164q-55 33 -123 33q-102 0 -174 -97t-96 -239l-90 -516h-180l172 999h172l-25 -133h10q94 158 277 158z" />
    <glyph glyph-name="Rcaron" unicode="&#x158;" horiz-adv-x="1335" 
d="M717 1573l-207 336h172l131 -221l205 221h180l-321 -336h-160zM844 1245h-357l-90 -532h365q158 0 247 92t89 235q0 94 -66 150t-188 55zM860 1409q215 0 325 -91q109 -91 109 -269q0 -179 -106 -311t-291 -173l266 -565h-205l-253 549h-334l-92 -549h-189l238 1409h532z
" />
    <glyph glyph-name="rcaron" unicode="&#x159;" horiz-adv-x="753" 
d="M471 1163l-207 336h172l131 -221l205 221h180l-321 -336h-160zM672 1024q86 0 139 -41l-82 -164q-55 33 -123 33q-102 0 -174 -97t-96 -239l-90 -516h-180l172 999h172l-25 -133h10q94 158 277 158z" />
    <glyph glyph-name="Sacute" unicode="&#x15a;" horiz-adv-x="1327" 
d="M758 1573l270 336h213l-352 -336h-131zM600 131q180 0 283 70q102 70 102 192q0 84 -55 135q-55 52 -138 70q-208 46 -361 103q-83 32 -138 112t-55 203q0 190 152 304q153 114 401 114q249 0 377 -108t98 -294h-181q17 118 -67 182t-238 64t-252 -62t-98 -176
q0 -84 55 -135t139 -69t182 -45q97 -27 181 -59t139 -112t56 -202q0 -209 -158 -326t-431 -117t-407 121q-133 121 -94 305h180q-24 -125 62 -197t266 -73z" />
    <glyph glyph-name="sacute" unicode="&#x15b;" horiz-adv-x="1007" 
d="M512 1163l270 336h213l-352 -336h-131zM434 115q262 0 262 164q0 53 -41 86t-103 45t-134 30t-134 43t-104 83q-41 58 -41 147q0 145 114 228q113 83 303 83t292 -75t76 -228h-172q14 80 -42 122t-164 42t-170 -41q-64 -40 -64 -104q-1 -113 146 -142q170 -33 252 -66
q167 -67 167 -231t-117 -245t-324 -81q-206 0 -314 81t-83 231h172q-14 -90 49 -131t174 -41z" />
    <glyph glyph-name="Scircumflex" unicode="&#x15c;" horiz-adv-x="1327" 
d="M475 1573l322 336h164l202 -336h-172l-131 221l-205 -221h-180zM600 131q180 0 283 70q102 70 102 192q0 84 -55 135q-55 52 -138 70q-208 46 -361 103q-83 32 -138 112t-55 203q0 190 152 304q153 114 401 114q249 0 377 -108t98 -294h-181q17 118 -67 182t-238 64
t-252 -62t-98 -176q0 -84 55 -135t139 -69t182 -45q97 -27 181 -59t139 -112t56 -202q0 -209 -158 -326t-431 -117t-407 121q-133 121 -94 305h180q-24 -125 62 -197t266 -73z" />
    <glyph glyph-name="scircumflex" unicode="&#x15d;" horiz-adv-x="1007" 
d="M229 1163l322 336h164l203 -336h-173l-131 221l-204 -221h-181zM434 115q262 0 262 164q0 53 -41 86t-103 45t-134 30t-134 43t-104 83q-41 58 -41 147q0 145 114 228q113 83 303 83t292 -75t76 -228h-172q14 80 -42 122t-164 42t-170 -41q-64 -40 -64 -104
q-1 -113 146 -142q170 -33 252 -66q167 -67 167 -231t-117 -245t-324 -81q-206 0 -314 81t-83 231h172q-14 -90 49 -131t174 -41z" />
    <glyph glyph-name="Scedilla" unicode="&#x15e;" horiz-adv-x="1327" 
d="M600 131q180 0 283 70q102 70 102 192q0 84 -55 135q-55 52 -138 70q-208 46 -361 103q-83 32 -138 112t-55 203q0 190 152 304q153 114 401 114q249 0 377 -108t98 -294h-181q17 118 -67 182t-238 64t-252 -62t-98 -176q0 -84 55 -135t139 -69t182 -45q97 -27 181 -59
t139 -112t56 -202q0 -201 -146 -316t-403 -125l-10 -51q79 -6 121 -46t42 -101q0 -109 -76 -169t-202 -61h-115l25 115h98q123 0 123 98q0 66 -98 66h-58l76 147q-258 8 -382 128t-85 298h180q-24 -125 62 -197t266 -73z" />
    <glyph glyph-name="scedilla" unicode="&#x15f;" horiz-adv-x="1007" 
d="M434 115q262 0 262 164q0 53 -41 86t-103 45t-134 30t-134 43t-104 83q-41 58 -41 147q0 145 114 228q113 83 303 83t292 -75t76 -228h-172q14 80 -42 122t-164 42t-170 -41q-64 -40 -64 -104q-1 -113 146 -142q170 -33 252 -66q167 -67 167 -227q0 -313 -416 -328
l-10 -51q79 -6 121 -46t42 -101q0 -109 -76 -169t-202 -61h-115l25 115h98q123 0 123 98q0 66 -98 66h-58l78 149q-180 9 -277 89t-73 221h172q-14 -90 49 -131t174 -41z" />
    <glyph glyph-name="Scaron" unicode="&#x160;" horiz-adv-x="1327" 
d="M741 1573l-206 336h172l131 -221l204 221h181l-322 -336h-160zM600 131q180 0 283 70q102 70 102 192q0 84 -55 135q-55 52 -138 70q-208 46 -361 103q-83 32 -138 112t-55 203q0 190 152 304q153 114 401 114q249 0 377 -108t98 -294h-181q17 118 -67 182t-238 64
t-252 -62t-98 -176q0 -84 55 -135t139 -69t182 -45q97 -27 181 -59t139 -112t56 -202q0 -209 -158 -326t-431 -117t-407 121q-133 121 -94 305h180q-24 -125 62 -197t266 -73z" />
    <glyph glyph-name="scaron" unicode="&#x161;" horiz-adv-x="1007" 
d="M496 1163l-207 336h172l131 -221l205 221h180l-322 -336h-159zM434 115q262 0 262 164q0 53 -41 86t-103 45t-134 30t-134 43t-104 83q-41 58 -41 147q0 145 114 228q113 83 303 83t292 -75t76 -228h-172q14 80 -42 122t-164 42t-170 -41q-64 -40 -64 -104
q-1 -113 146 -142q170 -33 252 -66q167 -67 167 -231t-117 -245t-324 -81q-206 0 -314 81t-83 231h172q-14 -90 49 -131t174 -41z" />
    <glyph glyph-name="Tcommaaccent" unicode="&#x162;" horiz-adv-x="1204" 
d="M696 -221q0 -109 -76 -169t-202 -61h-115l25 115h98q123 0 123 98q0 66 -98 66h-58l90 172h-65l211 1249h-498l33 160h1171l-32 -160h-486l-211 -1249h-57l-17 -74q78 -6 121 -46t43 -101z" />
    <glyph glyph-name="tcommaaccent" unicode="&#x163;" horiz-adv-x="663" 
d="M500 -221q0 -109 -76 -169t-203 -61h-115l25 115h98q123 0 123 98q0 66 -98 66h-57l86 182q-184 45 -144 285l94 557h-184l25 147h186l51 304h181l-52 -304h256l-24 -147h-256l-92 -549q-12 -78 10 -113t92 -34h131l-25 -156h-184l-12 -74q78 -6 121 -46t43 -101z" />
    <glyph glyph-name="Tcaron" unicode="&#x164;" horiz-adv-x="1204" 
d="M692 1573l-207 336h172l131 -221l205 221h181l-322 -336h-160zM131 1249l33 160h1171l-32 -160h-486l-211 -1249h-188l211 1249h-498z" />
    <glyph glyph-name="tcaron" unicode="&#x165;" horiz-adv-x="663" 
d="M623 1114l98 238h-82l33 204h196l-32 -188l-123 -254h-90zM385 0q-297 0 -246 295l94 557h-184l25 147h186l51 304h181l-52 -304h256l-24 -147h-256l-92 -549q-12 -78 10 -113t92 -34h131l-25 -156h-147z" />
    <glyph glyph-name="Tbar" unicode="&#x166;" horiz-adv-x="1204" 
d="M131 1249l33 160h1171l-32 -160h-486l-88 -520h377l-25 -151h-379l-96 -578h-188l96 578h-367l25 151h369l88 520h-498z" />
    <glyph glyph-name="tbar" unicode="&#x167;" horiz-adv-x="663" 
d="M385 0q-297 0 -246 295l27 164h-191l25 123h188l45 270h-184l25 147h186l51 304h181l-52 -304h256l-24 -147h-256l-45 -270h252l-25 -123h-248l-26 -156q-12 -78 10 -113t92 -34h131l-25 -156h-147z" />
    <glyph glyph-name="Utilde" unicode="&#x168;" horiz-adv-x="1425" 
d="M784 1851q80 0 158 -49t107 -49q78 0 106 98h107q-23 -98 -81 -159q-59 -62 -137 -62t-158 49t-108 50q-74 0 -106 -99h-107q23 98 81 160t138 61zM623 -25q-263 -1 -395 143t-81 439l148 852h188l-147 -852q-35 -201 35 -305t263 -104t307 106t149 303l147 852h188
l-147 -852q-100 -582 -655 -582z" />
    <glyph glyph-name="utilde" unicode="&#x169;" horiz-adv-x="1146" 
d="M832 1221q-78 0 -158 49t-109 49q-74 0 -106 -98h-107q23 98 81 159q59 62 137 62t158 -49t108 -50q78 0 106 99h107q-23 -98 -81 -160t-136 -61zM434 -25q-168 -1 -261 105t-56 319l104 600h180l-98 -581q-49 -287 180 -287q117 0 205 96t115 256l90 516h180l-172 -999
h-172l27 147h-8q-105 -172 -314 -172z" />
    <glyph glyph-name="Umacron" unicode="&#x16a;" horiz-adv-x="1425" 
d="M614 1671l25 139h565l-24 -139h-566zM623 -25q-263 -1 -395 143t-81 439l148 852h188l-147 -852q-35 -201 35 -305t263 -104t307 106t149 303l147 852h188l-147 -852q-100 -582 -655 -582z" />
    <glyph glyph-name="umacron" unicode="&#x16b;" horiz-adv-x="1146" 
d="M401 1262l25 139h565l-24 -139h-566zM434 -25q-168 -1 -261 105t-56 319l104 600h180l-98 -581q-49 -287 180 -287q117 0 205 96t115 256l90 516h180l-172 -999h-172l27 147h-8q-105 -172 -314 -172z" />
    <glyph glyph-name="Ubreve" unicode="&#x16c;" horiz-adv-x="1425" 
d="M893 1597q-115 0 -187 68t-59 219h115q-4 -172 139 -172t213 172h115q-82 -287 -336 -287zM623 -25q-263 -1 -395 143t-81 439l148 852h188l-147 -852q-35 -201 35 -305t263 -104t307 106t149 303l147 852h188l-147 -852q-100 -582 -655 -582z" />
    <glyph glyph-name="ubreve" unicode="&#x16d;" horiz-adv-x="1146" 
d="M680 1188q-114 0 -186 68t-60 219h115q-4 -172 139 -172t213 172h115q-82 -287 -336 -287zM434 -25q-168 -1 -261 105t-56 319l104 600h180l-98 -581q-49 -287 180 -287q117 0 205 96t115 256l90 516h180l-172 -999h-172l27 147h-8q-105 -172 -314 -172z" />
    <glyph glyph-name="Uring" unicode="&#x16e;" horiz-adv-x="1425" 
d="M807 1737q0 -82 93 -82q48 0 84 37t36 84q0 92 -86 92q-55 0 -91 -37t-36 -94zM896 1565q-87 0 -139 45t-52 133t69 151q70 64 157 64t139 -45t52 -133t-69 -152q-70 -63 -157 -63zM623 -25q-263 -1 -395 143t-81 439l148 852h188l-147 -852q-35 -201 35 -305t263 -104
t307 106t149 303l147 852h188l-147 -852q-100 -582 -655 -582z" />
    <glyph glyph-name="uring" unicode="&#x16f;" horiz-adv-x="1146" 
d="M807 1366q1 92 -93 92q-48 0 -84 -37t-36 -84q0 -92 93 -92q48 0 84 37t36 84zM909 1370q1 -88 -69 -152t-157 -63q-87 0 -139 45t-52 133t69 152q70 63 157 63t139 -45t52 -133zM434 -25q-168 -1 -261 105t-56 319l104 600h180l-98 -581q-49 -287 180 -287q117 0 205 96
t115 256l90 516h180l-172 -999h-172l27 147h-8q-105 -172 -314 -172z" />
    <glyph glyph-name="Uhungarumlaut" unicode="&#x170;" horiz-adv-x="1425" 
d="M631 1573l270 336h213l-352 -336h-131zM999 1573l271 336h213l-353 -336h-131zM623 -25q-263 -1 -395 143t-81 439l148 852h188l-147 -852q-35 -201 35 -305t263 -104t307 106t149 303l147 852h188l-147 -852q-100 -582 -655 -582z" />
    <glyph glyph-name="uhungarumlaut" unicode="&#x171;" horiz-adv-x="1146" 
d="M418 1163l270 336h213l-352 -336h-131zM786 1163l271 336h213l-352 -336h-132zM434 -25q-168 -1 -261 105t-56 319l104 600h180l-98 -581q-49 -287 180 -287q117 0 205 96t115 256l90 516h180l-172 -999h-172l27 147h-8q-105 -172 -314 -172z" />
    <glyph glyph-name="Uogonek" unicode="&#x172;" horiz-adv-x="1425" 
d="M659 -246q0 -82 103 -82h57l-22 -123h-82q-100 0 -154 42q-53 42 -53 120q0 154 199 269q-57 -4 -84 -5q-263 -1 -395 143t-81 439l148 852h188l-147 -852q-35 -201 35 -305t263 -104t307 106t149 303l147 852h188l-147 -852q-63 -373 -326 -510q-125 -67 -209 -143
t-84 -150z" />
    <glyph glyph-name="uogonek" unicode="&#x173;" horiz-adv-x="1146" 
d="M590 -287q0 78 57 146t156 141h-74l27 147h-8q-104 -172 -314 -172q-168 -1 -261 105t-56 319l104 600h180l-98 -581q-49 -287 180 -287q117 0 205 96t115 256l90 516h180l-172 -999q-164 -145 -164 -254q0 -74 99 -74h57l-25 -123h-82q-96 0 -146 43t-50 121z" />
    <glyph glyph-name="Wcircumflex" unicode="&#x174;" horiz-adv-x="1916" 
d="M778 1573l322 336h164l202 -336h-172l-131 221l-205 -221h-180zM303 0l-123 1409h180l99 -1212h8l524 1212h234l118 -1212h9l508 1212h180l-598 -1409h-250l-119 1196h-8l-514 -1196h-248z" />
    <glyph glyph-name="wcircumflex" unicode="&#x175;" horiz-adv-x="1482" 
d="M483 1163l322 336h164l202 -336h-172l-131 221l-204 -221h-181zM188 0l-98 999h180l74 -811h8l353 811h225l86 -811h8l352 811h180l-450 -999h-234l-86 795h-8l-344 -795h-246z" />
    <glyph glyph-name="Ycircumflex" unicode="&#x176;" horiz-adv-x="1245" 
d="M459 1573l321 336h164l203 -336h-172l-131 221l-205 -221h-180zM426 0l106 586l-344 823h197l270 -664h9l507 664h197l-649 -838l-105 -571h-188z" />
    <glyph glyph-name="ycircumflex" unicode="&#x177;" horiz-adv-x="966" 
d="M246 1163l321 336h164l203 -336h-172l-131 221l-205 -221h-180zM0 -311q164 0 270 205l39 75l-219 1030h189l155 -802h8l406 802h184l-606 -1155q-162 -311 -426 -311h-98l32 156h66z" />
    <glyph glyph-name="Ydieresis" unicode="&#x178;" horiz-adv-x="1245" 
d="M524 1647l33 188h180l-32 -188h-181zM934 1647l33 188h180l-33 -188h-180zM426 0l106 586l-344 823h197l270 -664h9l507 664h197l-649 -838l-105 -571h-188z" />
    <glyph glyph-name="Zacute" unicode="&#x179;" horiz-adv-x="1196" 
d="M725 1573l270 336h213l-352 -336h-131zM229 1249l33 160h1000l-17 -123l-997 -1126h801l-33 -160h-1032l16 123l995 1126h-766z" />
    <glyph glyph-name="zacute" unicode="&#x17a;" horiz-adv-x="909" 
d="M496 1163l270 336h213l-352 -336h-131zM123 852l24 147h771l-25 -122l-647 -730h532l-24 -147h-770l16 106l662 746h-539z" />
    <glyph glyph-name="Zdotaccent" unicode="&#x17b;" horiz-adv-x="1196" 
d="M713 1647l32 188h181l-33 -188h-180zM229 1249l33 160h1000l-17 -123l-997 -1126h801l-33 -160h-1032l16 123l995 1126h-766z" />
    <glyph glyph-name="zdotaccent" unicode="&#x17c;" horiz-adv-x="909" 
d="M483 1237l33 188h180l-32 -188h-181zM123 852l24 147h771l-25 -122l-647 -730h532l-24 -147h-770l16 106l662 746h-539z" />
    <glyph glyph-name="Zcaron" unicode="&#x17d;" horiz-adv-x="1196" 
d="M709 1573l-207 336h172l131 -221l205 221h180l-322 -336h-159zM229 1249l33 160h1000l-17 -123l-997 -1126h801l-33 -160h-1032l16 123l995 1126h-766z" />
    <glyph glyph-name="zcaron" unicode="&#x17e;" horiz-adv-x="909" 
d="M479 1163l-207 336h172l131 -221l205 221h181l-322 -336h-160zM123 852l24 147h771l-25 -122l-647 -730h532l-24 -147h-770l16 106l662 746h-539z" />
    <glyph glyph-name="longs" unicode="&#x17f;" horiz-adv-x="630" 
d="M696 1499h123l-33 -156h-98q-92 0 -140 -45t-65 -143l-196 -1155h-181l144 852h-193l25 147h192l29 164q55 336 393 336z" />
    <glyph glyph-name="florin" unicode="&#x192;" 
d="M885 1434q301 0 245 -344l-8 -50h-164l9 50q33 197 -99 196q-123 0 -155 -188l-66 -369h320l-17 -131h-327l-115 -655q-29 -170 -122 -253t-230 -83q-301 0 -246 344l8 49h164l-8 -49q-33 -197 98 -197q123 0 156 189l114 655h-245l16 131h254l65 369q29 170 122 253
t231 83z" />
    <glyph glyph-name="AEacute" unicode="&#x1fc;" horiz-adv-x="2170" 
d="M1315 1573l270 336h213l-352 -336h-131zM1204 1188l-618 -701h512l119 701h-13zM-66 0l1254 1409h1016l-25 -164h-766l-74 -446h603l-25 -164h-606l-80 -471h776l-25 -164h-966l53 324h-629l-284 -324h-222z" />
    <glyph glyph-name="aeacute" unicode="&#x1fd;" horiz-adv-x="1728" 
d="M897 1163l270 336h213l-352 -336h-131zM1479 649q-4 219 -219 219q-104 0 -187 -68q-82 -69 -121 -190h525q2 12 2 39zM401 123q129 0 220 74q90 74 114 221l17 102q-25 -41 -113 -53l-197 -25q-205 -25 -204 -180q0 -63 42 -101t121 -38zM606 1024q233 0 316 -147
q143 147 358 147q216 0 322 -153t47 -396h-721q-2 -20 -2 -65q0 -129 64 -204t181 -75q176 0 263 172h180q-123 -328 -475 -328q-260 0 -346 218q-133 -217 -424 -218q-147 0 -230 74q-82 74 -82 197q0 276 361 319l196 25q84 10 122 28t42 54q12 90 -34 147t-154 58
q-209 0 -254 -189h-172q31 154 142 245q112 91 300 91z" />
    <glyph glyph-name="Oslashacute" unicode="&#x1fe;" horiz-adv-x="1556" 
d="M872 1573l271 336h213l-352 -336h-132zM299 582q0 -150 63 -252l818 835q-113 100 -287 101q-244 0 -419 -200t-175 -484zM1315 827q0 143 -64 252l-817 -837q109 -98 287 -99q244 -1 419 199t175 485zM106 573q0 367 237 614t575 247q231 0 391 -138l133 138h155
l-213 -217q123 -162 123 -381q-1 -367 -237 -614t-574 -247q-233 0 -391 136l-133 -136h-156l211 218q-121 159 -121 380z" />
    <glyph glyph-name="oslashacute" unicode="&#x1ff;" horiz-adv-x="1146" 
d="M610 1163l271 336h213l-353 -336h-131zM254 396q0 -70 22 -122l525 531q-67 63 -185 63t-223 -100q-139 -134 -139 -372zM877 600q0 68 -25 125l-522 -532q61 -61 182 -61t225 99q140 134 140 369zM66 393q0 310 202 490q160 141 379 141q170 0 279 -90l90 90h131
l-156 -158q74 -109 74 -260q0 -309 -203 -489q-160 -141 -379 -142q-168 0 -280 91l-88 -91h-131l155 158q-73 104 -73 260z" />
    <glyph glyph-name="Scommaaccent" unicode="&#x218;" horiz-adv-x="1327" 
d="M492 -139h180l-29 -160l-111 -209h-81l84 189h-76zM600 131q180 0 283 70q102 70 102 192q0 84 -55 135q-55 52 -138 70q-208 46 -361 103q-83 32 -138 112t-55 203q0 190 152 304q153 114 401 114q249 0 377 -108t98 -294h-181q17 118 -67 182t-238 64t-252 -62
t-98 -176q0 -84 55 -135t139 -69t182 -45q97 -27 181 -59t139 -112t56 -202q0 -209 -158 -326t-431 -117t-407 121q-133 121 -94 305h180q-24 -125 62 -197t266 -73z" />
    <glyph glyph-name="scommaaccent" unicode="&#x219;" horiz-adv-x="1007" 
d="M319 -139h181l-29 -160l-111 -209h-81l83 189h-75zM434 115q262 0 262 164q0 53 -41 86t-103 45t-134 30t-134 43t-104 83q-41 58 -41 147q0 145 114 228q113 83 303 83t292 -75t76 -228h-172q14 80 -42 122t-164 42t-170 -41q-64 -40 -64 -104q-1 -113 146 -142
q170 -33 252 -66q167 -67 167 -231t-117 -245t-324 -81q-206 0 -314 81t-83 231h172q-14 -90 49 -131t174 -41z" />
    <glyph glyph-name="uni021A" unicode="&#x21a;" horiz-adv-x="1204" 
d="M401 -139h181l-29 -160l-111 -209h-82l84 189h-75zM131 1249l33 160h1171l-32 -160h-486l-211 -1249h-188l211 1249h-498z" />
    <glyph glyph-name="uni021B" unicode="&#x21b;" horiz-adv-x="663" 
d="M217 -139h180l-28 -160l-111 -209h-82l84 189h-76zM385 0q-297 0 -246 295l94 557h-184l25 147h186l51 304h181l-52 -304h256l-24 -147h-256l-92 -549q-12 -78 10 -113t92 -34h131l-25 -156h-147z" />
    <glyph glyph-name="circumflex" unicode="&#x2c6;" horiz-adv-x="1146" 
d="M336 1163l321 336h164l203 -336h-172l-131 221l-205 -221h-180z" />
    <glyph glyph-name="caron" unicode="&#x2c7;" horiz-adv-x="1146" 
d="M602 1163l-207 336h172l131 -221l205 221h180l-321 -336h-160z" />
    <glyph glyph-name="uni02C9" unicode="&#x2c9;" horiz-adv-x="1146" 
d="M410 1262l24 139h565l-24 -139h-565z" />
    <glyph glyph-name="breve" unicode="&#x2d8;" horiz-adv-x="1146" 
d="M688 1188q-114 0 -186 68t-60 219h115q-4 -172 139 -172t213 172h115q-82 -287 -336 -287z" />
    <glyph glyph-name="dotaccent" unicode="&#x2d9;" horiz-adv-x="1146" 
d="M606 1237l33 188h180l-33 -188h-180z" />
    <glyph glyph-name="ring" unicode="&#x2da;" horiz-adv-x="1146" 
d="M602 1337q0 -92 93 -92q48 0 84 37t36 84q0 94 -86 92q-55 0 -91 -37t-36 -84zM691 1155q-87 0 -139 45t-52 133t69 152q70 63 157 63t139 -45q53 -45 53 -133t-70 -152t-157 -63z" />
    <glyph glyph-name="ogonek" unicode="&#x2db;" horiz-adv-x="1146" 
d="M262 -287q0 78 57 146t156 141h98q-164 -145 -163 -254q0 -74 98 -74h57l-24 -123h-82q-96 0 -147 43q-50 43 -50 121z" />
    <glyph glyph-name="tilde" unicode="&#x2dc;" horiz-adv-x="1146" 
d="M840 1221q-78 0 -158 49t-109 49q-74 0 -106 -98h-107q23 98 81 159q59 62 137 62t158 -49t108 -50q78 0 106 99h107q-23 -98 -81 -160t-136 -61z" />
    <glyph glyph-name="hungarumlaut" unicode="&#x2dd;" horiz-adv-x="1146" 
d="M426 1163l270 336h213l-352 -336h-131zM795 1163l270 336h213l-352 -336h-131z" />
    <glyph glyph-name="uni0394" unicode="&#x394;" horiz-adv-x="1318" 
d="M772 1206l-536 -1050h720zM-33 0l729 1409h222l253 -1409h-1204z" />
    <glyph glyph-name="uni03A9" unicode="&#x3a9;" horiz-adv-x="1425" 
d="M1196 942q0 152 -100 244t-269 92q-211 0 -351 -143t-140 -365q0 -131 71 -219t166 -117l-73 -434h-467l24 156h295l29 188q-109 61 -175 170t-67 248q0 284 205 478t508 194q242 0 392 -138t149 -349q0 -212 -121 -373t-301 -238l-29 -180h295l-25 -156h-467l74 434
q143 39 260 174t117 334z" />
    <glyph glyph-name="uni03BC" unicode="&#x3bc;" 
d="M500 131q114 0 202 95t117 257l90 516h181l-172 -999h-173l27 147h-8q-111 -172 -315 -172q-137 0 -203 64h-4q-23 -207 -43 -320l-29 -170h-180l246 1450h180l-97 -581q-49 -287 181 -287z" />
    <glyph glyph-name="pi" unicode="&#x3c0;" horiz-adv-x="1204" 
d="M82 0l172 999h860l-172 -999h-180l145 844h-499l-146 -844h-180z" />
    <glyph glyph-name="Wgrave" unicode="&#x1e80;" horiz-adv-x="1916" 
d="M1069 1573l-238 336h197l156 -336h-115zM303 0l-123 1409h180l99 -1212h8l524 1212h234l118 -1212h9l508 1212h180l-598 -1409h-250l-119 1196h-8l-514 -1196h-248z" />
    <glyph glyph-name="wgrave" unicode="&#x1e81;" horiz-adv-x="1482" 
d="M774 1163l-237 336h196l156 -336h-115zM188 0l-98 999h180l74 -811h8l353 811h225l86 -811h8l352 811h180l-450 -999h-234l-86 795h-8l-344 -795h-246z" />
    <glyph glyph-name="Wacute" unicode="&#x1e82;" horiz-adv-x="1916" 
d="M1061 1573l270 336h213l-352 -336h-131zM303 0l-123 1409h180l99 -1212h8l524 1212h234l118 -1212h9l508 1212h180l-598 -1409h-250l-119 1196h-8l-514 -1196h-248z" />
    <glyph glyph-name="wacute" unicode="&#x1e83;" horiz-adv-x="1482" 
d="M766 1163l270 336h213l-352 -336h-131zM188 0l-98 999h180l74 -811h8l353 811h225l86 -811h8l352 811h180l-450 -999h-234l-86 795h-8l-344 -795h-246z" />
    <glyph glyph-name="Wdieresis" unicode="&#x1e84;" horiz-adv-x="1916" 
d="M844 1647l33 188h180l-33 -188h-180zM1253 1647l33 188h180l-32 -188h-181zM303 0l-123 1409h180l99 -1212h8l524 1212h234l118 -1212h9l508 1212h180l-598 -1409h-250l-119 1196h-8l-514 -1196h-248z" />
    <glyph glyph-name="wdieresis" unicode="&#x1e85;" horiz-adv-x="1482" 
d="M549 1237l33 188h180l-33 -188h-180zM958 1237l33 188h180l-32 -188h-181zM188 0l-98 999h180l74 -811h8l353 811h225l86 -811h8l352 811h180l-450 -999h-234l-86 795h-8l-344 -795h-246z" />
    <glyph glyph-name="Ygrave" unicode="&#x1ef2;" horiz-adv-x="1245" 
d="M750 1573l-238 336h197l155 -336h-114zM426 0l106 586l-344 823h197l270 -664h9l507 664h197l-649 -838l-105 -571h-188z" />
    <glyph glyph-name="ygrave" unicode="&#x1ef3;" horiz-adv-x="966" 
d="M537 1163l-238 336h197l155 -336h-114zM0 -311q164 0 270 205l39 75l-219 1030h189l155 -802h8l406 802h184l-606 -1155q-162 -311 -426 -311h-98l32 156h66z" />
    <glyph glyph-name="endash" unicode="&#x2013;" horiz-adv-x="1138" 
d="M106 434l25 164h893l-25 -164h-893z" />
    <glyph glyph-name="emdash" unicode="&#x2014;" horiz-adv-x="1720" 
d="M106 434l25 164h1475l-25 -164h-1475z" />
    <glyph glyph-name="quoteleft" unicode="&#x2018;" horiz-adv-x="507" 
d="M213 893l33 205l139 311h98l-112 -295h88l-33 -221h-213z" />
    <glyph glyph-name="quoteright" unicode="&#x2019;" horiz-adv-x="507" 
d="M238 893l112 295h-88l33 221h213l-33 -205l-139 -311h-98z" />
    <glyph glyph-name="quotesinglbase" unicode="&#x201a;" horiz-adv-x="507" 
d="M57 0l33 221h213l-33 -205l-139 -311h-98l112 295h-88z" />
    <glyph glyph-name="quotedblleft" unicode="&#x201c;" horiz-adv-x="876" 
d="M213 893l33 205l139 311h98l-112 -295h88l-33 -221h-213zM582 893l32 205l140 311h98l-113 -295h88l-32 -221h-213z" />
    <glyph glyph-name="quotedblright" unicode="&#x201d;" horiz-adv-x="876" 
d="M238 893l112 295h-88l33 221h213l-33 -205l-139 -311h-98zM606 893l113 295h-88l33 221h213l-33 -205l-139 -311h-99z" />
    <glyph glyph-name="quotedblbase" unicode="&#x201e;" horiz-adv-x="876" 
d="M57 0l33 221h213l-33 -205l-139 -311h-98l112 295h-88zM426 0l33 221h213l-33 -205l-139 -311h-99l113 295h-88z" />
    <glyph glyph-name="dagger" unicode="&#x2020;" horiz-adv-x="901" 
d="M156 918l24 147h277l59 344h164l-59 -344h280l-24 -147h-281l-154 -918h-163l153 918h-276z" />
    <glyph glyph-name="daggerdbl" unicode="&#x2021;" horiz-adv-x="901" 
d="M156 918l24 147h277l59 344h164l-59 -344h280l-24 -147h-281l-74 -435h281l-25 -147h-280l-56 -336h-163l55 336h-277l25 147h276l74 435h-276z" />
    <glyph glyph-name="bullet" unicode="&#x2022;" horiz-adv-x="999" 
d="M492 164q-150 0 -251 101t-102 251t101 251t252 101t250 -101t102 -251q0 -150 -101 -251t-251 -101z" />
    <glyph glyph-name="ellipsis" unicode="&#x2026;" horiz-adv-x="1589" 
d="M66 0l40 238h230l-41 -238h-229zM590 0l41 238h229l-41 -238h-229zM1114 0l41 238h229l-41 -238h-229z" />
    <glyph glyph-name="perthousand" unicode="&#x2030;" horiz-adv-x="2310" 
d="M1874 106q145 0 190 246q8 47 9 92q0 154 -115 154q-147 0 -189 -246q-10 -57 -10 -94q0 -152 115 -152zM1872 -16q-138 0 -204 72q-65 72 -64 194q0 45 10 102q29 164 120 266t229 102q137 0 201 -72q64 -73 64 -195q0 -53 -8 -101q-30 -166 -120 -267t-228 -101z
M1153 106q145 0 190 246q8 47 9 92q0 154 -115 154q-147 0 -188 -246q-10 -57 -11 -94q0 -152 115 -152zM1150 -16q-138 0 -203 72t-64 194q0 45 10 102q29 164 120 266t229 102t202 -72q64 -73 63 -195q0 -53 -8 -101q-31 -166 -121 -267t-228 -101zM274 -25
q850 1292 961 1459h139l-960 -1459h-140zM399 811q145 0 191 246q8 47 8 92q0 154 -115 154q-147 0 -188 -246q-10 -57 -10 -94q-1 -152 114 -152zM396 688q-138 0 -202 73t-65 193q0 45 10 103q29 164 120 266t229 102q138 -1 202 -73q63 -72 64 -195q0 -53 -9 -100
q-31 -165 -121 -267t-228 -102z" />
    <glyph glyph-name="guilsinglleft" unicode="&#x2039;" horiz-adv-x="655" 
d="M328 98l-230 418l369 418h147l-319 -434l180 -402h-147z" />
    <glyph glyph-name="guilsinglright" unicode="&#x203a;" horiz-adv-x="655" 
d="M33 98l319 434l-180 402h147l230 -418l-369 -418h-147z" />
    <glyph glyph-name="fraction" unicode="&#x2044;" horiz-adv-x="147" 
d="M-446 -25q850 1292 960 1459h139l-960 -1459h-139z" />
    <glyph glyph-name="uni2070" unicode="&#x2070;" horiz-adv-x="720" 
d="M457 1122q145 0 190 246q8 47 8 92q0 154 -114 154q-147 0 -189 -246q-10 -57 -10 -94q0 -152 115 -152zM454 999q-138 0 -204 73q-64 73 -64 194q0 45 11 102q29 164 119 266q92 102 230 102t202 -72q64 -73 63 -196q0 -53 -8 -100q-31 -166 -121 -268t-228 -101z" />
    <glyph glyph-name="uni2074" unicode="&#x2074;" horiz-adv-x="720" 
d="M342 1270h193l40 243zM156 1147l16 98l459 475h131l-74 -450h98l-20 -123h-98l-21 -131h-155l22 131h-358z" />
    <glyph glyph-name="uni2075" unicode="&#x2075;" horiz-adv-x="720" 
d="M221 1204h148q-1 -46 31 -68t77 -22t82 24q61 40 64 124q0 98 -111 98q-74 0 -119 -66l-155 9l90 417h483l-16 -131h-349l-43 -164h7q49 49 148 49q100 0 160 -50q60 -52 60 -146q0 -133 -90 -206t-206 -73q-116 -1 -189 53q-72 54 -72 152z" />
    <glyph glyph-name="uni2076" unicode="&#x2076;" horiz-adv-x="720" 
d="M504 1360q-56 0 -100 -40t-44 -100q0 -106 111 -106q41 0 77 22q66 40 66 126q1 98 -110 98zM647 1532q0 90 -100 90q-122 0 -170 -221q59 74 165 74q106 1 168 -51q60 -52 60 -146q0 -133 -90 -206t-219 -73q-129 -1 -195 67t-65 181q0 51 12 121q35 203 127 286t233 83
q97 0 159 -49t63 -156h-148z" />
    <glyph glyph-name="uni2077" unicode="&#x2077;" horiz-adv-x="720" 
d="M238 1016l401 565h-401l24 139h590l-16 -98l-426 -606h-172z" />
    <glyph glyph-name="uni2078" unicode="&#x2078;" horiz-adv-x="720" 
d="M393 1516q-1 -82 121 -82q60 0 100 28t41 72q0 90 -114 88q-66 0 -107 -28t-41 -78zM328 1212q0 -98 131 -98q71 0 117 31t46 84q1 100 -130 98q-70 0 -117 -31t-47 -84zM172 1179q0 81 45 132t119 65v8q-43 10 -67 48t-23 84q0 98 84 159t212 61t198 -50q70 -51 71 -122
q0 -71 -42 -118t-105 -62v-8q53 -10 84 -48t30 -91q0 -113 -92 -175t-232 -62t-210 48q-72 50 -72 131z" />
    <glyph glyph-name="uni2079" unicode="&#x2079;" horiz-adv-x="720" 
d="M492 1376q57 0 100 40t43 100q0 106 -111 106q-59 0 -101 -42t-42 -105q0 -99 111 -99zM348 1204q0 -90 100 -90q52 0 98 48t72 173q-60 -73 -166 -73t-166 51t-61 145q0 133 90 206q89 73 219 73t196 -68t65 -180q0 -51 -13 -121q-35 -203 -127 -286t-233 -83
q-98 -1 -160 49t-61 156h147z" />
    <glyph glyph-name="parenleft.superior" unicode="&#x207d;" horiz-adv-x="450" 
d="M254 1216q0 207 77 379t177 273h147q-92 -94 -173 -274t-81 -389q0 -208 82 -337h-147q-82 141 -82 348z" />
    <glyph glyph-name="parenright.superior" unicode="&#x207e;" horiz-adv-x="450" 
d="M328 1531q0 208 -82 337h147q82 -141 82 -348q0 -208 -77 -380t-177 -272h-147q92 94 173 274t81 389z" />
    <glyph glyph-name="n.superior" unicode="&#x207f;" horiz-adv-x="843" 
d="M672 1737q120 0 184 -75t37 -245l-66 -401h-163l65 401q31 188 -115 189q-74 0 -128 -60t-70 -162l-64 -368h-164l123 704h156l-18 -98h4q70 115 219 115z" />
    <glyph glyph-name="uni2080" unicode="&#x2080;" horiz-adv-x="720" 
d="M252 -205q145 0 190 246q8 47 9 92q0 154 -115 154q-147 0 -189 -246q-10 -57 -10 -94q0 -152 115 -152zM250 -328q-138 0 -204 73q-65 73 -64 194q0 45 10 102q29 164 120 266q91 103 229 103q137 0 201 -73t64 -196q0 -53 -8 -100q-30 -165 -120 -267t-228 -102z" />
    <glyph glyph-name="uni2081" unicode="&#x2081;" horiz-adv-x="720" 
d="M98 106l-49 115l311 172h99l-94 -573h184l-17 -131h-548l16 131h209l63 379z" />
    <glyph glyph-name="uni2082" unicode="&#x2082;" horiz-adv-x="720" 
d="M328 287q-123 0 -156 -131h-139q27 131 110 192q84 62 198 62q113 0 181 -52t68 -137q0 -86 -46 -133t-79 -65q-33 -19 -44 -25t-48 -24l-94 -48q-133 -70 -140 -106h393l-16 -131h-573q23 147 105 222q82 74 181 122l50 24q59 31 88 48t53 45t22 60q0 32 -30 54t-84 23z
" />
    <glyph glyph-name="uni2083" unicode="&#x2083;" horiz-adv-x="720" 
d="M258 -213q66 0 113 31t47 84q0 98 -131 98h-58l17 106h57q66 0 107 28t41 79q0 82 -125 82t-138 -107h-139q6 98 86 160t205 62t196 -52q70 -52 70 -122t-42 -117t-105 -62v-8q53 -12 84 -49t30 -90q0 -113 -90 -175q-90 -63 -230 -63t-218 56t-60 174h148q-6 -63 31 -89
q38 -26 104 -26z" />
    <glyph glyph-name="uni2084" unicode="&#x2084;" horiz-adv-x="720" 
d="M137 -57h193l41 243zM-49 -180l16 98l459 475h131l-74 -450h99l-21 -123h-98l-21 -131h-155l22 131h-358z" />
    <glyph glyph-name="uni2085" unicode="&#x2085;" horiz-adv-x="720" 
d="M16 -123h148q0 -45 32 -67t76 -23q44 0 82 24q64 42 64 123q0 98 -111 99q-74 0 -119 -66l-155 8l90 418h483l-16 -131h-348l-43 -164h6q49 49 148 49t159 -51t61 -145q0 -133 -90 -206q-91 -73 -207 -73t-188 54t-72 151z" />
    <glyph glyph-name="uni2086" unicode="&#x2086;" horiz-adv-x="720" 
d="M299 33q-57 0 -100 -40q-43 -39 -43 -99q0 -106 110 -107q41 0 77 22q65 40 67 125q0 99 -111 99zM442 205q0 90 -100 90q-122 0 -170 -221q60 74 166 74t166 -52q60 -51 61 -145q0 -133 -90 -206t-219 -73q-128 0 -194 68t-66 180q0 51 12 121q35 203 127 286t234 83
q98 0 159 -50t62 -155h-148z" />
    <glyph glyph-name="uni2087" unicode="&#x2087;" horiz-adv-x="720" 
d="M33 -311l401 565h-401l24 139h590l-16 -98l-426 -606h-172z" />
    <glyph glyph-name="uni2088" unicode="&#x2088;" horiz-adv-x="720" 
d="M188 188q0 -82 122 -82q60 0 100 28q41 28 41 73q0 88 -115 88q-66 0 -107 -28t-41 -79zM123 -115q0 -98 131 -98q70 0 117 31t47 84q0 98 -131 98q-70 0 -117 -31t-47 -84zM-33 -148q0 81 45 132t119 65v8q-43 10 -67 47t-23 84q0 98 84 160t212 62t199 -52
q70 -52 70 -122t-42 -117t-105 -62v-8q53 -10 84 -48t30 -91q0 -113 -92 -175q-92 -63 -231 -63t-211 50t-72 130z" />
    <glyph glyph-name="uni2089" unicode="&#x2089;" horiz-adv-x="720" 
d="M287 49q57 0 100 40q43 39 43 99q0 106 -111 107q-59 0 -101 -42t-42 -106q0 -98 111 -98zM143 -123q-1 -90 99 -90q52 0 99 48q46 48 73 173q-60 -74 -166 -74t-166 52t-62 145q0 133 90 206t220 73q128 0 194 -68t66 -180q0 -51 -12 -121q-35 -203 -127 -286t-234 -83
q-98 0 -160 49q-61 50 -61 156h147z" />
    <glyph glyph-name="parenleft.inferior" unicode="&#x208d;" horiz-adv-x="450" 
d="M49 -111q0 207 77 379t177 273h148q-92 -95 -173 -275t-81 -388t82 -337h-148q-82 141 -82 348z" />
    <glyph glyph-name="parenright.inferior" unicode="&#x208e;" horiz-adv-x="450" 
d="M123 204q0 208 -82 337h147q82 -141 82 -348t-77 -379t-177 -273h-147q92 95 173 275t81 388z" />
    <glyph glyph-name="Euro" unicode="&#x20ac;" 
d="M808 1278q-118 0 -216 -92t-160 -260h387l-33 -115h-387q-27 -111 -32 -188h387l-33 -115h-361v-16q0 -360 263 -361q99 0 163 41t115 131h172q-137 -328 -483 -328q-210 -1 -314 143t-104 382v8h-172l33 115h143q4 61 35 188h-145l32 115h146q80 233 230 370
q151 137 362 138q360 0 385 -369h-172q-15 109 -69 161t-172 52z" />
    <glyph glyph-name="afii61289" unicode="&#x2113;" horiz-adv-x="843" 
d="M598 1171q0 186 -113 187q-139 0 -139 -367v-289l4 -2q248 211 248 471zM186 338v151l-4 3l-121 -84l-24 49q78 63 149 125v278q0 209 37 322q37 114 113 182t173 68t153 -71t55 -179q0 -203 -138 -361q-67 -76 -114 -120t-119 -99v-223q0 -283 186 -283q129 0 242 164
l45 -33q-49 -119 -139 -185t-216 -67q-126 0 -202 81t-76 282z" />
    <glyph glyph-name="afii61352" unicode="&#x2116;" horiz-adv-x="2482" 
d="M1585 360l23 132h727l-23 -132h-727zM1524 0l22 131h727l-22 -131h-727zM1870 991q0 -172 155 -172q78 0 139 53q60 53 80 127t19 123q0 172 -156 172q-78 0 -138 -53q-59 -53 -79 -127t-20 -123zM1698 983q0 232 165 356q114 86 260 86q146 1 229 -79t83 -216
q0 -230 -165 -356q-114 -86 -260 -86t-229 80t-83 215zM90 0l238 1409h180l590 -1090h8l180 1090h189l-238 -1409h-180l-590 1090h-8l-180 -1090h-189z" />
    <glyph glyph-name="trademark" unicode="&#x2122;" horiz-adv-x="1646" 
d="M137 1286l21 123h630l-20 -123h-240l-98 -581h-147l98 581h-244zM766 705l121 704h205l116 -508h9l292 508h205l-121 -704h-147l96 507h-8l-293 -507h-123l-117 507h-8l-80 -507h-147z" />
    <glyph glyph-name="Omega" unicode="&#x2126;" horiz-adv-x="1425" 
d="M1196 942q0 152 -100 244t-269 92q-211 0 -351 -143t-140 -365q0 -131 71 -219t166 -117l-73 -434h-467l24 156h295l29 188q-109 61 -175 170t-67 248q0 284 205 478t508 194q242 0 392 -138t149 -349q0 -212 -121 -373t-301 -238l-29 -180h295l-25 -156h-467l74 434
q143 39 260 174t117 334z" />
    <glyph glyph-name="estimated" unicode="&#x212e;" horiz-adv-x="1740" 
d="M371 727h1007q8 0 8 12v396q0 29 -20 49q-201 205 -492 205t-495 -211q-23 -23 -23 -54v-385q1 -12 15 -12zM874 20q156 0 291 64t232 176h119q-113 -131 -282 -208t-362 -77q-338 0 -576 213q-238 212 -237 516q0 304 239 517q238 213 574 213t574 -213t237 -516v-21
h-1312q-14 0 -15 -8v-397q1 -23 21 -48q201 -211 497 -211z" />
    <glyph glyph-name="uni2153" unicode="&#x2153;" horiz-adv-x="1589" 
d="M246 1122l-49 115l311 172h98l-94 -573h184l-16 -131h-549l16 131h209l64 378zM307 -25q850 1292 961 1459h139l-961 -1459h-139zM1158 98q66 0 114 31q47 31 47 84q0 100 -131 98h-58l17 107h57q66 0 107 28t41 78q0 82 -125 82t-137 -106h-140q6 98 86 159t205 61
t196 -50q71 -52 71 -122t-43 -118q-42 -48 -105 -61v-9q53 -12 84 -49t31 -90q-1 -113 -91 -175t-230 -62t-218 56q-77 56 -59 173h147q-6 -63 31 -89t103 -26z" />
    <glyph glyph-name="uni2154" unicode="&#x2154;" horiz-adv-x="1589" 
d="M299 -25q850 1292 961 1459h139l-961 -1459h-139zM1158 98q66 0 114 31q47 31 47 84q0 100 -131 98h-58l17 107h57q66 0 107 28t41 78q0 82 -125 82t-137 -106h-140q6 98 86 159t205 61t196 -50q71 -52 71 -122t-43 -118q-42 -48 -105 -61v-9q53 -12 84 -49t31 -90
q-1 -113 -91 -175t-230 -62t-218 56q-77 56 -59 173h147q-6 -63 31 -89t103 -26zM590 1225q0 33 -30 55t-85 23q-123 0 -156 -132h-139q27 131 111 193t198 61q113 0 181 -51t68 -138t-48 -134q-47 -47 -90 -71q-43 -23 -80 -41l-94 -48q-133 -70 -139 -106h393l-16 -131
h-574q23 149 116 231q68 61 171 113l49 24q59 31 88 48q28 17 52 44t24 60z" />
    <glyph glyph-name="uni2155" unicode="&#x2155;" horiz-adv-x="1589" 
d="M246 1122l-49 115l311 172h98l-94 -573h184l-16 -131h-549l16 131h209l64 378zM299 -25q850 1292 961 1459h139l-961 -1459h-139zM918 188h147q0 -46 32 -68t77 -22q46 0 82 24q64 42 63 124q0 98 -111 98q-74 0 -118 -65l-156 8l90 418h483l-16 -132h-348l-43 -163h6
q49 49 148 49q100 0 160 -51t61 -146q-1 -133 -91 -206q-90 -72 -206 -72t-189 53q-71 53 -71 151z" />
    <glyph glyph-name="uni2156" unicode="&#x2156;" horiz-adv-x="1589" 
d="M291 -25q850 1292 960 1459h140l-961 -1459h-139zM590 1225q0 33 -30 55t-85 23q-123 0 -156 -132h-139q27 131 111 193t198 61q113 0 181 -51t68 -138t-48 -134q-47 -47 -90 -71q-43 -23 -80 -41l-94 -48q-133 -70 -139 -106h393l-16 -131h-574q23 149 116 231
q68 61 171 113l49 24q59 31 88 48q28 17 52 44t24 60zM918 188h147q0 -46 32 -68t77 -22q46 0 82 24q64 42 63 124q0 98 -111 98q-74 0 -118 -65l-156 8l90 418h483l-16 -132h-348l-43 -163h6q49 49 148 49q100 0 160 -51t61 -146q-1 -133 -91 -206q-90 -72 -206 -72
t-189 53q-71 53 -71 151z" />
    <glyph glyph-name="uni2157" unicode="&#x2157;" horiz-adv-x="1589" 
d="M274 -25q850 1292 961 1459h139l-960 -1459h-140zM565 918q0 98 -131 98h-57l16 106h58q67 0 107 28t40 79q0 82 -125 82t-137 -107h-139q6 98 86 160t205 61q126 0 196 -51q70 -52 70 -122t-42 -117t-106 -62v-8q53 -12 84 -49t31 -90q0 -113 -90 -175q-91 -63 -231 -63
t-218 56q-77 57 -59 174h147q-11 -117 131 -115q70 0 117 31t47 84zM918 188h147q0 -46 32 -68t77 -22q46 0 82 24q64 42 63 124q0 98 -111 98q-74 0 -118 -65l-156 8l90 418h483l-16 -132h-348l-43 -163h6q49 49 148 49q100 0 160 -51t61 -146q-1 -133 -91 -206
q-90 -72 -206 -72t-189 53q-71 53 -71 151z" />
    <glyph glyph-name="uni2158" unicode="&#x2158;" horiz-adv-x="1589" 
d="M285 958h192l41 244zM274 -25q850 1292 961 1459h139l-960 -1459h-140zM98 836l17 98l458 475h132l-74 -451h98l-20 -122h-99l-20 -131h-156l23 131h-359zM918 188h147q0 -46 32 -68t77 -22q46 0 82 24q64 42 63 124q0 98 -111 98q-74 0 -118 -65l-156 8l90 418h483
l-16 -132h-348l-43 -163h6q49 49 148 49q100 0 160 -51t61 -146q-1 -133 -91 -206q-90 -72 -206 -72t-189 53q-71 53 -71 151z" />
    <glyph glyph-name="uni2159" unicode="&#x2159;" horiz-adv-x="1589" 
d="M1200 344q-57 0 -100 -40t-43 -99q0 -107 110 -107q41 0 77 22q65 40 67 126q0 98 -111 98zM246 1122l-49 115l311 172h98l-94 -573h184l-16 -131h-549l16 131h209l64 378zM315 -25q850 1292 961 1459h139l-960 -1459h-140zM1343 516q0 90 -100 90q-122 -1 -170 -221
q59 74 165 74t168 -51q60 -51 60 -146q0 -133 -90 -206q-90 -72 -219 -72t-195 67t-65 180q0 51 12 121q35 203 127 286t234 83q98 0 160 -49t61 -156h-148z" />
    <glyph glyph-name="uni215A" unicode="&#x215a;" horiz-adv-x="1589" 
d="M1200 344q-57 0 -100 -40t-43 -99q0 -107 110 -107q41 0 77 22q65 40 67 126q0 98 -111 98zM274 -25q850 1292 961 1459h139l-960 -1459h-140zM164 893h147q0 -45 32 -68t77 -23t82 24q63 40 63 124q0 98 -110 99q-74 0 -119 -66l-156 8l90 418h484l-17 -131h-348
l-43 -164h6q48 49 148 49t160 -51t61 -145q0 -133 -90 -206q-91 -73 -207 -73t-188 54t-72 151zM1343 516q0 90 -100 90q-122 -1 -170 -221q59 74 165 74t168 -51q60 -51 60 -146q0 -133 -90 -206q-90 -72 -219 -72t-195 67t-65 180q0 51 12 121q35 203 127 286t234 83
q98 0 160 -49t61 -156h-148z" />
    <glyph glyph-name="uni215B" unicode="&#x215b;" horiz-adv-x="1589" 
d="M1210 418q60 0 101 28t41 72q0 90 -115 88q-66 0 -107 -28t-40 -78q0 -82 120 -82zM1319 213q1 101 -137 99q-64 0 -111 -32q-47 -31 -47 -84q0 -98 131 -98q70 0 117 31t47 84zM246 1122l-49 115l311 172h98l-94 -573h184l-16 -131h-549l16 131h209l64 378zM307 -25
q850 1292 961 1459h139l-961 -1459h-139zM868 163q0 81 45 132t119 65v9q-42 10 -66 47t-24 84q0 98 84 159t212 61t199 -50q71 -52 71 -122t-43 -118q-42 -48 -105 -61v-9q53 -10 84 -48t31 -91q-1 -113 -93 -175t-231 -62t-211 49t-72 130z" />
    <glyph glyph-name="uni215C" unicode="&#x215c;" horiz-adv-x="1589" 
d="M1210 418q60 0 101 28t41 72q0 90 -115 88q-66 0 -107 -28t-40 -78q0 -82 120 -82zM1319 213q1 101 -137 99q-64 0 -111 -32q-47 -31 -47 -84q0 -98 131 -98q70 0 117 31t47 84zM274 -25q850 1292 961 1459h139l-960 -1459h-140zM565 918q0 98 -131 98h-57l16 106h58
q67 0 107 28t40 79q0 82 -125 82t-137 -107h-139q6 98 86 160t205 61q126 0 196 -51q70 -52 70 -122t-42 -117t-106 -62v-8q53 -12 84 -49t31 -90q0 -113 -90 -175q-91 -63 -231 -63t-218 56q-77 57 -59 174h147q-11 -117 131 -115q70 0 117 31t47 84zM868 163q0 81 45 132
t119 65v9q-42 10 -66 47t-24 84q0 98 84 159t212 61t199 -50q71 -52 71 -122t-43 -118q-42 -48 -105 -61v-9q53 -10 84 -48t31 -91q-1 -113 -93 -175t-231 -62t-211 49t-72 130z" />
    <glyph glyph-name="uni215D" unicode="&#x215d;" horiz-adv-x="1589" 
d="M1210 418q60 0 101 28t41 72q0 90 -115 88q-66 0 -107 -28t-40 -78q0 -82 120 -82zM1319 213q1 101 -137 99q-64 0 -111 -32q-47 -31 -47 -84q0 -98 131 -98q70 0 117 31t47 84zM266 -25q850 1292 961 1459h139l-960 -1459h-140zM164 893h147q0 -45 32 -68t77 -23t82 24
q63 40 63 124q0 98 -110 99q-74 0 -119 -66l-156 8l90 418h484l-17 -131h-348l-43 -164h6q48 49 148 49t160 -51t61 -145q0 -133 -90 -206q-91 -73 -207 -73t-188 54t-72 151zM868 163q0 81 45 132t119 65v9q-42 10 -66 47t-24 84q0 98 84 159t212 61t199 -50
q71 -52 71 -122t-43 -118q-42 -48 -105 -61v-9q53 -10 84 -48t31 -91q-1 -113 -93 -175t-231 -62t-211 49t-72 130z" />
    <glyph glyph-name="uni215E" unicode="&#x215e;" horiz-adv-x="1589" 
d="M1210 418q60 0 101 28t41 72q0 90 -115 88q-66 0 -107 -28t-40 -78q0 -82 120 -82zM1319 213q1 101 -137 99q-64 0 -111 -32q-47 -31 -47 -84q0 -98 131 -98q70 0 117 31t47 84zM180 705l402 565h-402l25 139h590l-17 -98l-426 -606h-172zM225 -25q850 1292 961 1459h139
l-960 -1459h-140zM868 163q0 81 45 132t119 65v9q-42 10 -66 47t-24 84q0 98 84 159t212 61t199 -50q71 -52 71 -122t-43 -118q-42 -48 -105 -61v-9q53 -10 84 -48t31 -91q-1 -113 -93 -175t-231 -62t-211 49t-72 130z" />
    <glyph glyph-name="uni2190" unicode="&#x2190;" horiz-adv-x="1351" 
d="M1294 582v-131h-663q-211 0 -342 8l362 -357l-94 -86l-500 500l500 500l94 -86l-362 -357q131 8 342 9h663z" />
    <glyph glyph-name="uni2191" unicode="&#x2191;" horiz-adv-x="1351" 
d="M741 561v-663h-131v663q0 211 8 342l-356 -362l-86 94l500 500l500 -500l-86 -94l-357 362q8 -131 8 -342z" />
    <glyph glyph-name="uni2192" unicode="&#x2192;" horiz-adv-x="1351" 
d="M721 451h-664v131h664q211 0 340 -9l-361 357l95 86l499 -500l-499 -500l-95 86l361 357q-129 -8 -340 -8z" />
    <glyph glyph-name="uni2193" unicode="&#x2193;" horiz-adv-x="1351" 
d="M610 471v664h131v-664q0 -211 -8 -342l357 363l86 -95l-500 -499l-500 499l86 95l356 -363q-8 131 -8 342z" />
    <glyph glyph-name="uni2196" unicode="&#x2196;" horiz-adv-x="1351" 
d="M238 999h704v-122h-500q57 -49 246 -238l467 -467l-90 -98l-467 475q-152 145 -238 246v-500h-122v704z" />
    <glyph glyph-name="uni2197" unicode="&#x2197;" horiz-adv-x="1351" 
d="M451 877v122h704v-704h-123v500q-86 -100 -237 -246l-467 -475l-90 98l467 467q188 188 245 238h-499z" />
    <glyph glyph-name="uni2198" unicode="&#x2198;" horiz-adv-x="1351" 
d="M451 74v123h499q-57 49 -245 237l-467 467l90 98l467 -475q152 -145 237 -245v499h123v-704h-704z" />
    <glyph glyph-name="uni2199" unicode="&#x2199;" horiz-adv-x="1351" 
d="M942 197v-123h-704v704h122v-499q86 100 238 245l467 475l90 -98l-467 -467q-189 -188 -246 -237h500z" />
    <glyph glyph-name="partialdiff" unicode="&#x2202;" 
d="M240 375q0 -111 72 -177t195 -67q122 -1 225 105q104 106 104 240t-68 202t-196 68t-230 -104q-102 -103 -102 -267zM51 358q1 219 149 381t378 162q123 0 213 -50t118 -134q8 131 9 176q0 197 -76 291t-191 94q-221 0 -284 -221h-181q49 174 173 275q123 102 313 102
t312 -134t122 -404q0 -271 -70 -470q-83 -241 -239 -346q-157 -105 -330 -105q-172 -1 -294 103t-122 280z" />
    <glyph glyph-name="Delta" unicode="&#x2206;" horiz-adv-x="1318" 
d="M772 1206l-536 -1050h720zM-33 0l729 1409h222l253 -1409h-1204z" />
    <glyph glyph-name="product" unicode="&#x220f;" horiz-adv-x="1482" 
d="M98 0l238 1409h1106l-238 -1409h-180l211 1253h-746l-210 -1253h-181z" />
    <glyph glyph-name="summation" unicode="&#x2211;" horiz-adv-x="1081" 
d="M-49 0l24 106l541 605l-319 575l16 123h942l-25 -156h-714l313 -557l-487 -540h733l-25 -156h-999z" />
    <glyph glyph-name="minus" unicode="&#x2212;" 
d="M98 442l25 156h934l-25 -156h-934z" />
    <glyph glyph-name="uni2215" unicode="&#x2215;" horiz-adv-x="147" 
d="M-446 -25q850 1292 960 1459h139l-960 -1459h-139z" />
    <glyph glyph-name="uni2219" unicode="&#x2219;" horiz-adv-x="540" 
d="M131 401l41 230h229l-41 -230h-229z" />
    <glyph glyph-name="radical" unicode="&#x221a;" horiz-adv-x="1204" 
d="M74 623l24 155l303 90l148 -671h8l631 1212h188l-745 -1409h-205l-170 676z" />
    <glyph glyph-name="infinity" unicode="&#x221e;" horiz-adv-x="1449" 
d="M336 319q119 0 295 197q-54 92 -86 127q-61 68 -145 69q-85 1 -144 -73t-59 -152q-1 -78 35 -123t104 -45zM1245 545q0 78 -36 123t-103 45q-119 0 -295 -197q52 -89 85 -125q63 -72 146 -72q84 0 144 74q59 74 59 152zM319 180q-129 0 -203 78t-75 201q0 165 109 279
t268 114q211 0 325 -221q193 221 379 221q129 0 204 -78t75 -201q0 -165 -109 -279t-268 -114q-109 0 -193 62t-133 159q-195 -221 -379 -221z" />
    <glyph glyph-name="integral" unicode="&#x222b;" horiz-adv-x="745" 
d="M-41 -221q149 0 205 105q29 54 42 110t23 145l123 1032q27 224 112 360q98 157 339 157h49l-16 -156h-33q-148 0 -205 -106q-29 -54 -42 -109t-24 -146l-122 -1032q-27 -223 -112 -359q-98 -157 -339 -157h-49l16 156h33z" />
    <glyph glyph-name="approxequal" unicode="&#x2248;" 
d="M339 467q97 0 169 -39t130 -78t107 -39q115 0 140 156h155q-28 -154 -110 -233q-82 -78 -180 -78t-168 39q-72 39 -130 77t-108 39q-115 0 -139 -155h-156q27 154 110 232t180 79zM412 893q98 0 170 -39t130 -78t107 -39q115 0 139 156h156q-28 -154 -110 -233
q-82 -78 -180 -78t-169 39q-72 39 -130 77t-107 39q-115 0 -139 -155h-156q27 154 109 232t180 79z" />
    <glyph glyph-name="notequal" unicode="&#x2260;" 
d="M131 655l25 156h544l209 287l115 -74l-156 -213h222l-25 -156h-309l-197 -270h465l-25 -156h-553l-208 -286l-115 73l153 213h-210l24 156h301l197 270h-457z" />
    <glyph glyph-name="lessequal" unicode="&#x2264;" 
d="M57 0l25 156h868l-24 -156h-869zM164 655l24 148l934 377l-24 -172l-736 -283l637 -283l-32 -163z" />
    <glyph glyph-name="greaterequal" unicode="&#x2265;" 
d="M57 0l25 156h868l-24 -156h-869zM221 1016l33 164l803 -377l-25 -148l-934 -376l25 172l735 282z" />
    <glyph glyph-name="uni25A0" unicode="&#x25a0;" horiz-adv-x="1409" 
d="M0 0v1409h1409v-1409h-1409z" />
    <glyph glyph-name="uni25A1" unicode="&#x25a1;" horiz-adv-x="1409" 
d="M164 156h1081v1097h-1081v-1097zM0 0v1409h1409v-1409h-1409z" />
    <glyph glyph-name="uni25B6" unicode="&#x25b6;" horiz-adv-x="1028" 
d="M90 -25v1049l914 -524z" />
    <glyph glyph-name="uni25B7" unicode="&#x25b7;" horiz-adv-x="1028" 
d="M254 246l459 254l-459 254v-508zM90 -25v1049l914 -524z" />
    <glyph glyph-name="uni25C0" unicode="&#x25c0;" horiz-adv-x="1028" 
d="M25 500l913 524v-1049z" />
    <glyph glyph-name="uni25C1" unicode="&#x25c1;" horiz-adv-x="1028" 
d="M315 500l459 -254v508zM25 500l913 524v-1049z" />
    <glyph glyph-name="lozenge" unicode="&#x25ca;" horiz-adv-x="1318" 
d="M295 702l297 -544l487 549l-297 542zM483 0l-385 705l623 704h172l385 -704l-623 -705h-172z" />
    <glyph glyph-name="uni25CB" unicode="&#x25cb;" horiz-adv-x="1130" 
d="M563 877q-154 -1 -252 -107t-98 -269t100 -271t254 -108t252 107q99 105 99 269t-100 272t-255 107zM564 -25q-216 0 -366 150t-149 373q0 222 151 374q150 152 366 152t366 -150t150 -372t-152 -375q-150 -152 -366 -152z" />
    <glyph glyph-name="uni25CF" unicode="&#x25cf;" horiz-adv-x="1130" 
d="M564 -25q-216 0 -366 150t-149 373q0 222 151 374q150 152 366 152t366 -150t150 -372t-152 -375q-150 -152 -366 -152z" />
    <glyph glyph-name="uni25FB" unicode="&#x25fb;" horiz-adv-x="999" 
d="M164 147h672v705h-672v-705zM0 0v999h999v-999h-999z" />
    <glyph glyph-name="uni25FC" unicode="&#x25fc;" horiz-adv-x="999" 
d="M0 0v999h999v-999h-999z" />
    <glyph glyph-name="uni2605" unicode="&#x2605;" horiz-adv-x="1118" 
d="M217 27l139 374l-331 222l10 32l399 -18l109 387h32l107 -387l401 18l11 -32l-334 -222l141 -374l-29 -21l-313 248l-313 -248z" />
    <glyph glyph-name="dotlessi.sc" unicode="&#xe08e;" horiz-adv-x="540" 
d="M90 0l180 1065h181l-181 -1065h-180z" />
    <glyph glyph-name="g.superior" unicode="&#xe0a3;" horiz-adv-x="878" 
d="M745 1434q0 172 -158 172q-79 0 -149 -86t-69 -217q0 -82 40 -127q41 -46 119 -46t148 86t69 218zM467 999q-117 0 -194 81t-76 214q0 205 113 324q114 119 263 119q81 0 137 -35t76 -96h5l22 114h160l-113 -671q-35 -195 -135 -278t-266 -83q-86 0 -154 20
q-69 20 -113 76t-36 142h147q-13 -115 169 -115q195 0 228 238l13 65h-8q-82 -115 -238 -115z" />
    <glyph glyph-name="germandbls.sc" unicode="&#xe0a4;" horiz-adv-x="2129" 
d="M1532 123q279 0 278 172q0 67 -61 101t-149 52t-177 44q-88 26 -149 90t-62 172q0 152 122 244t329 92t312 -86t79 -234h-180q14 80 -47 126t-175 46t-187 -43t-73 -119t63 -110q61 -34 151 -54q90 -18 179 -43t151 -89t63 -173q0 -160 -119 -248t-348 -88t-333 87
t-77 241h181q-14 -86 44 -133t185 -47zM467 123q279 0 278 172q0 67 -61 101t-149 52q-89 18 -177 44t-149 90t-62 172q0 152 122 244t329 92t312 -86t79 -234h-180q14 80 -47 126t-175 46t-187 -43q-72 -43 -72 -119t62 -110t152 -54q90 -18 178 -43q89 -25 151 -89
t63 -173q0 -160 -119 -248t-348 -88t-333 87t-77 241h181q-14 -86 44 -133t185 -47z" />
    <glyph glyph-name="onesuperior" unicode="&#xe105;" horiz-adv-x="720" 
d="M303 1434l-49 114l311 172h99l-95 -573h185l-17 -131h-549l17 131h209l63 379z" />
    <glyph glyph-name="twosuperior" unicode="&#xe107;" horiz-adv-x="720" 
d="M532 1614q-123 0 -155 -131h-139q27 131 110 192q84 61 198 61t182 -50q68 -51 67 -138q0 -87 -52 -139l-32 -32q-12 -11 -43 -28t-56 -32t-80 -39l-49 -25q-133 -70 -139 -106h393l-16 -131h-574q23 149 106 222q83 74 181 122l49 24q59 30 88 48t53 45t24 59t-31 56
q-30 22 -85 22z" />
    <glyph glyph-name="threesuperior" unicode="&#xe108;" horiz-adv-x="720" 
d="M462 1114q68 0 114 31t46 84q1 100 -130 98h-58l17 107h57q66 0 106 28t41 78q0 82 -125 82t-137 -106h-139q6 98 86 159t205 61t195 -50q70 -51 71 -122q0 -71 -42 -118t-105 -62v-8q53 -12 84 -49t30 -90q0 -113 -90 -175t-230 -62t-218 56t-60 173h148q-6 -63 30 -89
t104 -26z" />
    <glyph glyph-name="cent.denominator" unicode="&#xf629;" horiz-adv-x="720" 
d="M33 303q0 127 78 214t213 101l20 103h131l-20 -107q162 -39 168 -188h-156q-4 30 -31 56q-26 26 -88 26t-106 -53t-45 -122q1 -69 33 -103t89 -33q86 0 123 82h156q-18 -72 -80 -126t-158 -67l-16 -102h-131l18 104q-94 16 -146 74t-52 141z" />
    <glyph glyph-name="dollar.denominator" unicode="&#xf62a;" horiz-adv-x="720" 
d="M147 205q0 -49 38 -78q39 -29 103 -29t109 25t45 73t-57 74t-127 38q-70 11 -127 54t-57 130t67 150q68 62 183 75l20 110h131l-20 -114q170 -39 176 -189h-148q-2 39 -36 61q-34 21 -88 21t-96 -24t-42 -71q-1 -46 59 -71t130 -36t129 -57t59 -135q0 -88 -72 -150
t-194 -74l-21 -127h-131l23 129q-86 16 -146 69q-59 54 -57 146h147z" />
    <glyph glyph-name="hyphen.denominator" unicode="&#xf62b;" horiz-adv-x="565" 
d="M31 287l24 139h418l-24 -139h-418z" />
    <glyph glyph-name="parenleft.denominator" unicode="&#xf62c;" horiz-adv-x="450" 
d="M82 200q0 206 77 380q77 172 177 272h147q-92 -94 -173 -274t-81 -388t82 -337h-147q-82 141 -82 347z" />
    <glyph glyph-name="parenright.denominator" unicode="&#xf62d;" horiz-adv-x="450" 
d="M156 515q0 208 -82 337h147q82 -141 82 -348t-77 -379t-177 -272h-147q92 94 173 274t81 388z" />
    <glyph glyph-name="cent.numerator" unicode="&#xf62e;" horiz-adv-x="720" 
d="M147 1008q0 127 78 214t213 101l21 102h131l-21 -106q162 -39 168 -189h-155q-4 31 -31 57q-27 25 -89 25t-106 -53q-45 -53 -45 -121t33 -103q33 -34 90 -34q86 0 123 82h156q-17 -72 -79 -126t-159 -66l-16 -103h-131l18 105q-94 15 -146 73t-53 142z" />
    <glyph glyph-name="dollar.numerator" unicode="&#xf62f;" horiz-adv-x="720" 
d="M262 909q0 -49 38 -78t102 -29t110 26q45 24 45 72t-57 75t-127 38t-127 54q-58 43 -58 130t68 149t182 75l21 111h131l-21 -115q170 -39 176 -188h-147q-2 39 -36 61t-88 21q-54 0 -96 -25t-42 -71q0 -47 59 -71t129 -35t129 -57t59 -135t-71 -151q-72 -62 -195 -74
l-20 -127h-131l22 129q-86 16 -145 70t-57 145h147z" />
    <glyph glyph-name="hyphen.numerator" unicode="&#xf630;" horiz-adv-x="565" 
d="M145 991l25 139h418l-25 -139h-418z" />
    <glyph glyph-name="parenleft.numerator" unicode="&#xf631;" horiz-adv-x="450" 
d="M197 905q0 207 76 379q77 172 178 272h147q-92 -94 -173 -274t-81 -388t82 -337h-147q-82 141 -82 348z" />
    <glyph glyph-name="parenright.numerator" unicode="&#xf632;" horiz-adv-x="450" 
d="M270 1220q0 208 -82 336h148q82 -142 82 -348t-77 -378t-177 -273h-148q92 94 173 274q81 181 81 389z" />
    <glyph glyph-name="h.superior" unicode="&#xf637;" horiz-adv-x="843" 
d="M672 1737q120 0 184 -75t37 -245l-66 -401h-163l65 401q31 188 -115 189q-72 0 -127 -58t-73 -168l-62 -364h-164l181 1057h163l-40 -238q-29 -147 -43 -213h4q70 115 219 115z" />
    <glyph glyph-name="zero.denominator" unicode="&#xf655;" horiz-adv-x="720" 
d="M285 106q145 0 190 246q8 47 8 92q0 154 -114 154q-147 0 -189 -246q-10 -57 -10 -94q0 -152 115 -152zM282 -16q-138 0 -204 72q-64 72 -64 194q0 45 11 102q29 164 119 266q92 102 230 102t201 -72q63 -73 64 -195q0 -53 -8 -101q-31 -166 -121 -267t-228 -101z" />
    <glyph glyph-name="one.denominator" unicode="&#xf656;" horiz-adv-x="720" 
d="M131 418l-49 114l311 173h99l-95 -574h185l-17 -131h-549l17 131h209l63 379z" />
    <glyph glyph-name="two.denominator" unicode="&#xf657;" horiz-adv-x="720" 
d="M360 598q-123 0 -155 -131h-139q27 131 110 192q84 61 198 61t182 -50q68 -51 67 -138q0 -87 -52 -139l-32 -32q-12 -11 -43 -28t-42 -23t-48 -25q-37 -18 -46 -23l-49 -24q-133 -70 -139 -107h393l-16 -131h-574q23 149 106 222q83 74 181 122l49 25q59 31 88 48t53 44
t24 59t-31 56q-30 22 -85 22z" />
    <glyph glyph-name="three.denominator" unicode="&#xf658;" horiz-adv-x="720" 
d="M290 98q68 0 114 31t46 84q1 100 -131 98h-57l17 107h57q66 0 106 28t41 78q0 82 -125 82t-137 -106h-139q6 98 86 159t205 61t195 -50q70 -52 71 -122q0 -70 -42 -118t-105 -61v-9q54 -12 84 -49t30 -90q0 -113 -90 -175t-230 -62t-218 56t-60 173h148q-6 -63 30 -89
t104 -26z" />
    <glyph glyph-name="four.denominator" unicode="&#xf659;" horiz-adv-x="720" 
d="M170 254h192l41 244zM-16 131l16 98l459 476h131l-74 -451h98l-20 -123h-98l-21 -131h-156l23 131h-358z" />
    <glyph glyph-name="five.denominator" unicode="&#xf65a;" horiz-adv-x="720" 
d="M49 188h148q-1 -46 31 -68t77 -22t82 24q61 40 64 124q0 98 -111 98q-74 0 -119 -65l-155 8l90 418h483l-16 -132h-349l-43 -163h7q49 49 148 49q100 0 160 -51t60 -146q0 -133 -90 -206q-90 -72 -206 -72t-189 53q-72 53 -72 151z" />
    <glyph glyph-name="six.denominator" unicode="&#xf65b;" horiz-adv-x="720" 
d="M332 344q-56 0 -100 -40t-44 -99q0 -107 111 -107q41 0 77 22q66 40 66 126q1 98 -110 98zM475 516q0 90 -100 90q-53 0 -99 -48t-71 -173q59 74 165 74t168 -51q60 -51 60 -146q0 -133 -90 -206q-90 -72 -219 -72t-195 67q-65 67 -65 180q0 51 12 121q35 203 127 286
t233 83q97 0 159 -49t63 -156h-148z" />
    <glyph glyph-name="seven.denominator" unicode="&#xf65c;" horiz-adv-x="720" 
d="M66 0l401 565h-401l24 140h590l-16 -99l-426 -606h-172z" />
    <glyph glyph-name="eight.denominator" unicode="&#xf65d;" horiz-adv-x="720" 
d="M221 500q-1 -82 121 -82q60 0 100 28t41 72q0 90 -114 88q-66 0 -107 -28t-41 -78zM156 196q0 -98 131 -98q71 0 117 31t46 84t-36 76q-37 23 -101 23q-65 0 -111 -32q-46 -31 -46 -84zM282 -16q-140 0 -210 49q-72 49 -72 130t45 132t119 65v9q-43 10 -67 47t-23 84
q0 98 84 159t212 61t198 -50q70 -52 71 -122q0 -70 -42 -118t-105 -61v-9q54 -10 84 -48t30 -91q0 -113 -92 -175t-232 -62z" />
    <glyph glyph-name="nine.denominator" unicode="&#xf65e;" horiz-adv-x="720" 
d="M319 360q57 0 101 40q43 40 43 100q0 109 -111 106q-59 0 -101 -42t-42 -105q-1 -99 110 -99zM176 188q0 -90 100 -90q52 0 98 48t72 173q-60 -73 -166 -73t-166 51t-61 145q0 133 90 206q89 73 219 73t196 -68t65 -180q0 -51 -13 -121q-35 -204 -127 -286t-233 -82
q-98 0 -160 49q-61 49 -61 155h147z" />
    <glyph glyph-name="comma.denominator" unicode="&#xf65f;" horiz-adv-x="376" 
d="M6 0l33 188h180l-31 -180l-98 -237h-90l84 229h-78z" />
    <glyph glyph-name="period.denominator" unicode="&#xf660;" horiz-adv-x="376" 
d="M6 0l33 188h180l-33 -188h-180z" />
    <glyph glyph-name="zero.numerator" unicode="&#xf661;" horiz-adv-x="720" 
d="M399 811q145 0 191 246q8 47 8 92q0 154 -115 154q-147 0 -188 -246q-10 -57 -10 -94q-1 -152 114 -152zM396 688q-138 0 -202 73t-65 193q0 45 10 103q29 164 120 266t229 102q138 -1 202 -73q63 -72 64 -195q0 -53 -9 -100q-31 -165 -121 -267t-228 -102z" />
    <glyph glyph-name="one.numerator" unicode="&#xf662;" horiz-adv-x="720" 
d="M246 1122l-49 115l311 172h98l-94 -573h184l-16 -131h-549l16 131h209l64 378z" />
    <glyph glyph-name="two.numerator" unicode="&#xf663;" horiz-adv-x="720" 
d="M590 1225q0 33 -30 55t-85 23q-123 0 -156 -132h-139q27 131 111 193t198 61q113 0 181 -51t68 -138t-48 -134q-47 -47 -90 -71q-43 -23 -80 -41l-94 -48q-133 -70 -139 -106h393l-16 -131h-574q23 149 116 231q68 61 171 113l49 24q59 31 88 48q28 17 52 44t24 60z" />
    <glyph glyph-name="three.numerator" unicode="&#xf664;" horiz-adv-x="720" 
d="M565 918q0 98 -131 98h-57l16 106h58q67 0 107 28t40 79q0 82 -125 82t-137 -107h-139q6 98 86 160t205 61q126 0 196 -51q70 -52 70 -122t-42 -117t-106 -62v-8q53 -12 84 -49t31 -90q0 -113 -90 -175q-91 -63 -231 -63t-218 56q-77 57 -59 174h147q-11 -117 131 -115
q70 0 117 31t47 84z" />
    <glyph glyph-name="four.numerator" unicode="&#xf665;" horiz-adv-x="720" 
d="M285 958h192l41 244zM98 836l17 98l458 475h132l-74 -451h98l-20 -122h-99l-20 -131h-156l23 131h-359z" />
    <glyph glyph-name="five.numerator" unicode="&#xf666;" horiz-adv-x="720" 
d="M164 893h147q0 -45 32 -68t77 -23t82 24q63 40 63 124q0 98 -110 99q-74 0 -119 -66l-156 8l90 418h484l-17 -131h-348l-43 -164h6q48 49 148 49t160 -51t61 -145q0 -133 -90 -206q-91 -73 -207 -73t-188 54t-72 151z" />
    <glyph glyph-name="six.numerator" unicode="&#xf667;" horiz-adv-x="720" 
d="M446 1049q-57 0 -100 -40q-43 -39 -43 -99q0 -109 111 -107q40 -1 76 21q66 40 67 126q0 99 -111 99zM590 1221q0 90 -100 90q-52 0 -98 -48t-73 -173q59 74 166 74t167 -52q60 -51 61 -145q0 -133 -90 -206q-89 -73 -219 -73t-196 68t-65 180q0 51 13 121
q35 203 127 285t233 83q98 0 160 -49t61 -155h-147z" />
    <glyph glyph-name="seven.numerator" unicode="&#xf668;" horiz-adv-x="720" 
d="M180 705l402 565h-402l25 139h590l-17 -98l-426 -606h-172z" />
    <glyph glyph-name="eight.numerator" unicode="&#xf669;" horiz-adv-x="720" 
d="M336 1204q0 -82 122 -82q60 0 100 28t40 73q0 88 -115 88q-67 0 -107 -28t-40 -79zM270 901q0 -100 131 -98q70 0 117 31t47 84q0 98 -131 98q-70 0 -117 -31t-47 -84zM115 867q0 81 45 132t119 66v8q-43 10 -67 47t-24 84q0 98 84 160t212 61q128 0 200 -51
q70 -52 70 -122t-42 -117t-106 -62v-8q53 -10 84 -48t31 -91q0 -113 -92 -175q-91 -63 -231 -63t-212 49q-71 49 -71 130z" />
    <glyph glyph-name="nine.numerator" unicode="&#xf66a;" horiz-adv-x="720" 
d="M434 1065q57 0 101 40q43 40 43 99q0 107 -111 107q-59 0 -101 -42t-42 -106q-1 -98 110 -98zM143 893h148q-1 -41 23 -66t76 -25t98 49q46 48 73 173q-59 -74 -165 -74t-168 51q-60 51 -60 146q0 133 90 206t219 73t195 -68t65 -180q0 -51 -12 -121q-35 -203 -127 -286
t-233 -83q-98 0 -160 50t-62 155z" />
    <glyph glyph-name="comma.numerator" unicode="&#xf66b;" horiz-adv-x="376" 
d="M121 705l33 188h180l-31 -180l-98 -238h-90l84 230h-78z" />
    <glyph glyph-name="period.numerator" unicode="&#xf66c;" horiz-adv-x="376" 
d="M121 705l33 188h180l-33 -188h-180z" />
    <glyph glyph-name="abreve.sc" unicode="&#xf66d;" horiz-adv-x="1073" 
d="M647 1253q-115 0 -187 68t-59 219h115q-4 -172 139 -172t213 172h115q-82 -287 -336 -287zM598 885h-8l-252 -475h356zM-74 0l590 1065h213l238 -1065h-189l-51 254h-471l-133 -254h-197z" />
    <glyph glyph-name="amacron.sc" unicode="&#xf66e;" horiz-adv-x="1073" 
d="M369 1327l24 139h565l-24 -139h-565zM598 885h-8l-252 -475h356zM-74 0l590 1065h213l238 -1065h-189l-51 254h-471l-133 -254h-197z" />
    <glyph glyph-name="aogonek.sc" unicode="&#xf66f;" horiz-adv-x="1073" 
d="M598 885h-8l-252 -475h356zM852 -451q-96 0 -146 43t-51 121t57 146t156 141h-90l-51 254h-471l-133 -254h-197l590 1065h213l238 -1065q-164 -145 -164 -254q0 -74 98 -74h57l-24 -123h-82z" />
    <glyph glyph-name="aeacute.sc" unicode="&#xf670;" horiz-adv-x="1794" 
d="M1028 1229l270 336h213l-352 -336h-131zM934 885l-463 -504h387l86 504h-10zM-90 0l991 1065h852l-24 -156h-601l-49 -291h486l-25 -155h-487l-52 -307h613l-25 -156h-794l39 233h-498l-213 -233h-213z" />
    <glyph glyph-name="cacute.sc" unicode="&#xf671;" horiz-adv-x="1196" 
d="M684 1229l270 336h213l-352 -336h-131zM82 434q0 279 182 467t449 189q193 0 313 -102t125 -267h-176q-25 209 -270 209q-183 0 -309 -138t-126 -341q0 -137 80 -227t223 -89q233 0 336 209h181q-64 -168 -206 -268t-344 -100t-330 129q-128 130 -128 329z" />
    <glyph glyph-name="ccaron.sc" unicode="&#xf672;" horiz-adv-x="1196" 
d="M668 1229l-207 336h172l131 -222l205 222h180l-322 -336h-159zM82 434q0 279 182 467t449 189q193 0 313 -102t125 -267h-176q-25 209 -270 209q-183 0 -309 -138t-126 -341q0 -137 80 -227t223 -89q233 0 336 209h181q-64 -168 -206 -268t-344 -100t-330 129
q-128 130 -128 329z" />
    <glyph glyph-name="ccircumflex.sc" unicode="&#xf673;" horiz-adv-x="1196" 
d="M401 1229l322 336h164l203 -336h-172l-132 221l-204 -221h-181zM82 434q0 279 182 467t449 189q193 0 313 -102t125 -267h-176q-25 209 -270 209q-183 0 -309 -138t-126 -341q0 -137 80 -227t223 -89q233 0 336 209h181q-64 -168 -206 -268t-344 -100t-330 129
q-128 130 -128 329z" />
    <glyph glyph-name="cdotaccent.sc" unicode="&#xf674;" horiz-adv-x="1196" 
d="M672 1303l33 188h180l-33 -188h-180zM82 434q0 279 182 467t449 189q193 0 313 -102t125 -267h-176q-25 209 -270 209q-183 0 -309 -138t-126 -341q0 -137 80 -227t223 -89q233 0 336 209h181q-64 -168 -206 -268t-344 -100t-330 129q-128 130 -128 329z" />
    <glyph glyph-name="dcaron.sc" unicode="&#xf675;" horiz-adv-x="1228" 
d="M614 1229l-206 336h172l131 -222l204 222h181l-322 -336h-160zM631 909h-207l-127 -753h211q217 0 334 135t116 323q0 129 -80 212q-81 83 -247 83zM655 1065q236 0 364 -124t128 -327q0 -268 -184 -441t-480 -173h-393l180 1065h385z" />
    <glyph glyph-name="dcroat.sc" unicode="&#xf676;" horiz-adv-x="1228" 
d="M631 909h-207l-53 -311h219l-25 -131h-217l-51 -311h211q217 0 334 135t116 323q0 129 -80 212q-81 83 -247 83zM655 1065q236 0 364 -124t128 -327q0 -268 -184 -441t-480 -173h-393l78 467h-168l25 131h165l80 467h385z" />
    <glyph glyph-name="ebreve.sc" unicode="&#xf677;" horiz-adv-x="1089" 
d="M680 1253q-114 0 -186 68t-60 219h115q-4 -172 139 -172t213 172h115q-82 -287 -336 -287zM90 0l180 1065h779l-25 -156h-600l-49 -293h483l-24 -151h-486l-51 -309h612l-24 -156h-795z" />
    <glyph glyph-name="ecaron.sc" unicode="&#xf678;" horiz-adv-x="1089" 
d="M594 1229l-207 336h172l131 -222l205 222h180l-321 -336h-160zM90 0l180 1065h779l-25 -156h-600l-49 -293h483l-24 -151h-486l-51 -309h612l-24 -156h-795z" />
    <glyph glyph-name="edotaccent.sc" unicode="&#xf679;" horiz-adv-x="1089" 
d="M598 1303l33 188h180l-33 -188h-180zM90 0l180 1065h779l-25 -156h-600l-49 -293h483l-24 -151h-486l-51 -309h612l-24 -156h-795z" />
    <glyph glyph-name="emacron.sc" unicode="&#xf67a;" horiz-adv-x="1089" 
d="M401 1327l25 139h565l-24 -139h-566zM90 0l180 1065h779l-25 -156h-600l-49 -293h483l-24 -151h-486l-51 -309h612l-24 -156h-795z" />
    <glyph glyph-name="eng.sc" unicode="&#xf67b;" horiz-adv-x="1286" 
d="M604 -287q96 1 148 53t73 177l15 90l-439 737h-6l-125 -770h-180l174 1065h162l459 -770h6l125 770h180l-190 -1131q-34 -215 -138 -300t-288 -85h-99l33 164h90z" />
    <glyph glyph-name="eogonek.sc" unicode="&#xf67c;" horiz-adv-x="1089" 
d="M721 -254q0 -74 98 -74h58l-25 -123h-82q-96 0 -146 43t-50 121t56 146q58 68 156 141h-696l180 1065h779l-25 -156h-600l-49 -293h483l-24 -151h-486l-51 -309h612l-24 -156q-164 -145 -164 -254z" />
    <glyph glyph-name="gbreve.sc" unicode="&#xf67d;" horiz-adv-x="1310" 
d="M786 1253q-114 0 -186 68t-59 219h114q-5 -172 139 -172t214 172h114q-82 -287 -336 -287zM950 0v121h-8q-140 -145 -368 -145t-356 132t-128 334q0 279 188 463t467 185q191 0 313 -98t130 -247h-189q-12 78 -80 132q-69 53 -190 53q-193 0 -321 -138t-129 -341
q0 -139 82 -228q83 -88 227 -88t252 72q109 72 131 211h-332l25 147h491l-90 -565h-115z" />
    <glyph glyph-name="gcircumflex.sc" unicode="&#xf67e;" horiz-adv-x="1310" 
d="M434 1229l322 336h164l202 -336h-172l-131 221l-205 -221h-180zM950 0v121h-8q-140 -145 -368 -145t-356 132t-128 334q0 279 188 463t467 185q191 0 313 -98t130 -247h-189q-12 78 -80 132q-69 53 -190 53q-193 0 -321 -138t-129 -341q0 -139 82 -228q83 -88 227 -88
t252 72q109 72 131 211h-332l25 147h491l-90 -565h-115z" />
    <glyph glyph-name="gcommaaccent.sc" unicode="&#xf67f;" horiz-adv-x="1310" 
d="M451 -139h180l-29 -160l-110 -209h-82l84 189h-76zM950 0v121h-8q-140 -145 -368 -145t-356 132t-128 334q0 279 188 463t467 185q191 0 313 -98t130 -247h-189q-12 78 -80 132q-69 53 -190 53q-193 0 -321 -138t-129 -341q0 -139 82 -228q83 -88 227 -88t252 72
q109 72 131 211h-332l25 147h491l-90 -565h-115z" />
    <glyph glyph-name="gdotaccent.sc" unicode="&#xf680;" horiz-adv-x="1310" 
d="M705 1303l32 188h181l-33 -188h-180zM950 0v121h-8q-140 -145 -368 -145t-356 132t-128 334q0 279 188 463t467 185q191 0 313 -98t130 -247h-189q-12 78 -80 132q-69 53 -190 53q-193 0 -321 -138t-129 -341q0 -139 82 -228q83 -88 227 -88t252 72q109 72 131 211h-332
l25 147h491l-90 -565h-115z" />
    <glyph glyph-name="hbar.sc" unicode="&#xf681;" horiz-adv-x="1286" 
d="M401 778l-26 -164h565l27 164h-566zM66 778l24 131h154l26 156h181l-27 -156h565l27 156h180l-27 -156h158l-24 -131h-156l-131 -778h-180l77 459h-565l-78 -459h-180l131 778h-155z" />
    <glyph glyph-name="hcircumflex.sc" unicode="&#xf682;" horiz-adv-x="1286" 
d="M410 1229l321 336h164l203 -336h-172l-131 221l-205 -221h-180zM90 0l180 1065h181l-76 -451h565l76 451h180l-180 -1065h-180l77 459h-565l-78 -459h-180z" />
    <glyph glyph-name="ibreve.sc" unicode="&#xf683;" horiz-adv-x="540" 
d="M393 1253q-115 0 -187 68t-59 219h115q-4 -172 139 -172t213 172h115q-82 -287 -336 -287zM90 0l180 1065h181l-181 -1065h-180z" />
    <glyph glyph-name="ij.sc" unicode="&#xf684;" horiz-adv-x="1458" 
d="M90 0l180 1065h181l-181 -1065h-180zM893 123q160 0 197 205l131 737h180l-131 -737q-33 -184 -128 -268t-259 -85q-164 0 -245 87t-48 257l8 41h172l-8 -41q-20 -100 16 -148t115 -48z" />
    <glyph glyph-name="imacron.sc" unicode="&#xf685;" horiz-adv-x="540" 
d="M115 1327l24 139h566l-25 -139h-565zM90 0l180 1065h181l-181 -1065h-180z" />
    <glyph glyph-name="iogonek.sc" unicode="&#xf686;" horiz-adv-x="540" 
d="M115 -254q0 -74 98 -74h57l-24 -123h-82q-96 0 -147 43q-50 43 -50 121q-1 78 57 146t156 141h-90l180 1065h181l-181 -1065h9q-164 -145 -164 -254z" />
    <glyph glyph-name="itilde.sc" unicode="&#xf687;" horiz-adv-x="540" 
d="M282 1507q78 0 158 -49t109 -49q78 0 106 98h107q-23 -98 -81 -159q-59 -62 -137 -62t-158 49t-107 49q-74 0 -107 -98h-106q23 98 80 160q58 61 136 61zM90 0l180 1065h181l-181 -1065h-180z" />
    <glyph glyph-name="jcircumflex.sc" unicode="&#xf688;" horiz-adv-x="909" 
d="M442 1229l322 336h164l202 -336h-172l-131 221l-204 -221h-181zM347 123q81 0 127 48t67 157l131 737h180l-131 -737q-33 -184 -125 -268t-255 -85q-163 0 -248 87t-52 257l8 41h172l-8 -41q-19 -100 17 -148t117 -48z" />
    <glyph glyph-name="kcommaaccent.sc" unicode="&#xf689;" horiz-adv-x="1146" 
d="M442 -139h181l-29 -160l-111 -209h-82l84 189h-75zM90 0l180 1065h181l-93 -543l617 543h213l-524 -461l368 -604h-196l-301 492l-213 -189l-52 -303h-180z" />
    <glyph glyph-name="lacute.sc" unicode="&#xf68a;" horiz-adv-x="974" 
d="M324 1229l270 336h213l-352 -336h-131zM90 0l180 1065h181l-154 -909h547l-25 -156h-729z" />
    <glyph glyph-name="lcaron.sc" unicode="&#xf68b;" horiz-adv-x="974" 
d="M647 696l82 189h-74l33 180h180l-24 -164l-115 -205h-82zM90 0l180 1065h181l-154 -909h547l-25 -156h-729z" />
    <glyph glyph-name="lcommaaccent.sc" unicode="&#xf68c;" horiz-adv-x="974" 
d="M344 -139h180l-28 -160l-111 -209h-82l84 189h-76zM90 0l180 1065h181l-154 -909h547l-25 -156h-729z" />
    <glyph glyph-name="ldot.sc" unicode="&#xf68d;" horiz-adv-x="974" 
d="M532 451l33 188h180l-32 -188h-181zM90 0l180 1065h181l-154 -909h547l-25 -156h-729z" />
    <glyph glyph-name="nacute.sc" unicode="&#xf68e;" horiz-adv-x="1286" 
d="M692 1229l271 336h213l-353 -336h-131zM90 0l180 1065h164l447 -778h8l127 778h180l-180 -1065h-164l-446 778h-11l-125 -778h-180z" />
    <glyph glyph-name="ncaron.sc" unicode="&#xf68f;" horiz-adv-x="1286" 
d="M676 1229l-207 336h172l131 -222l205 222h180l-321 -336h-160zM90 0l180 1065h164l447 -778h8l127 778h180l-180 -1065h-164l-446 778h-11l-125 -778h-180z" />
    <glyph glyph-name="ncommaaccent.sc" unicode="&#xf690;" horiz-adv-x="1286" 
d="M434 -139h180l-28 -160l-111 -209h-82l84 189h-76zM90 0l180 1065h164l447 -778h8l127 778h180l-180 -1065h-164l-446 778h-11l-125 -778h-180z" />
    <glyph glyph-name="obreve.sc" unicode="&#xf691;" horiz-adv-x="1294" 
d="M762 1253q-115 0 -187 68t-59 219h115q-4 -172 139 -172t213 172h115q-82 -287 -336 -287zM586 135q150 0 266 95q172 140 172 393q0 139 -83 223t-233 84t-266 -95q-168 -137 -172 -393q0 -139 84 -223q82 -84 232 -84zM82 434q0 287 190 471t457 185q213 0 348 -128
t135 -331q0 -287 -190 -471t-457 -185q-213 0 -348 128t-135 331z" />
    <glyph glyph-name="ohungarumlaut.sc" unicode="&#xf692;" horiz-adv-x="1294" 
d="M500 1229l270 336h213l-352 -336h-131zM868 1229l271 336h213l-353 -336h-131zM586 135q150 0 266 95q172 140 172 393q0 139 -83 223t-233 84t-266 -95q-168 -137 -172 -393q0 -139 84 -223q82 -84 232 -84zM82 434q0 287 190 471t457 185q213 0 348 -128t135 -331
q0 -287 -190 -471t-457 -185q-213 0 -348 128t-135 331z" />
    <glyph glyph-name="omacron.sc" unicode="&#xf693;" horiz-adv-x="1294" 
d="M483 1327l25 139h565l-24 -139h-566zM586 135q150 0 266 95q172 140 172 393q0 139 -83 223t-233 84t-266 -95q-168 -137 -172 -393q0 -139 84 -223q82 -84 232 -84zM82 434q0 287 190 471t457 185q213 0 348 -128t135 -331q0 -287 -190 -471t-457 -185q-213 0 -348 128
t-135 331z" />
    <glyph glyph-name="oslashacute.sc" unicode="&#xf694;" horiz-adv-x="1294" 
d="M684 1229l270 336h213l-352 -336h-131zM270 427q0 -85 43 -159l596 604q-80 58 -215 58t-252 -95q-172 -140 -172 -408zM600 135q136 0 252 95q172 140 172 393q0 98 -45 172l-594 -605q79 -55 215 -55zM82 434q0 287 190 471t457 185q176 0 303 -93l90 93h148l-162 -164
q104 -125 104 -295q0 -287 -190 -471t-457 -185q-178 0 -303 91l-90 -91h-147l159 162q-102 121 -102 297z" />
    <glyph glyph-name="racute.sc" unicode="&#xf695;" 
d="M602 1229l270 336h213l-352 -336h-131zM655 557q109 0 169 52q60 53 60 137q1 163 -163 163h-297l-59 -352h290zM737 1065q162 0 253 -81t91 -214t-82 -227t-221 -127l221 -416h-196l-211 401h-254l-68 -401h-180l180 1065h467z" />
    <glyph glyph-name="rcaron.sc" unicode="&#xf696;" 
d="M586 1229l-207 336h172l131 -222l205 222h180l-322 -336h-159zM655 557q109 0 169 52q60 53 60 137q1 163 -163 163h-297l-59 -352h290zM737 1065q162 0 253 -81t91 -214t-82 -227t-221 -127l221 -416h-196l-211 401h-254l-68 -401h-180l180 1065h467z" />
    <glyph glyph-name="rcommaaccent.sc" unicode="&#xf697;" 
d="M410 -139h180l-29 -160l-110 -209h-82l84 189h-76zM655 557q109 0 169 52q60 53 60 137q1 163 -163 163h-297l-59 -352h290zM737 1065q162 0 253 -81t91 -214t-82 -227t-221 -127l221 -416h-196l-211 401h-254l-68 -401h-180l180 1065h467z" />
    <glyph glyph-name="sacute.sc" unicode="&#xf698;" horiz-adv-x="1064" 
d="M553 1229l270 336h213l-352 -336h-131zM467 123q279 0 278 172q0 67 -61 101t-149 52q-89 18 -177 44t-149 90t-62 172q0 152 122 244t329 92t312 -86t79 -234h-180q14 80 -47 126t-175 46t-187 -43q-72 -43 -72 -119t62 -110t152 -54q90 -18 178 -43q89 -25 151 -89
t63 -173q0 -160 -119 -248t-348 -88t-333 87t-77 241h181q-14 -86 44 -133t185 -47z" />
    <glyph glyph-name="scedilla.sc" unicode="&#xf699;" horiz-adv-x="1064" 
d="M467 123q279 0 278 172q0 67 -61 101t-149 52q-89 18 -177 44t-149 90t-62 172q0 152 122 244t329 92t312 -86t79 -234h-180q14 80 -47 126t-175 46t-187 -43q-72 -43 -72 -119t62 -110t152 -54q90 -18 178 -43q89 -25 151 -89t63 -173q0 -155 -111 -241t-329 -93
l-11 -51q78 -6 121 -46t43 -101q0 -109 -76 -169t-202 -61h-115l25 115h98q123 0 123 98q0 66 -99 66h-57l78 149q-205 7 -298 93t-67 233h181q-14 -86 44 -133t185 -47z" />
    <glyph glyph-name="scircumflex.sc" unicode="&#xf69a;" horiz-adv-x="1064" 
d="M270 1229l322 336h164l202 -336h-172l-131 221l-204 -221h-181zM467 123q279 0 278 172q0 67 -61 101t-149 52q-89 18 -177 44t-149 90t-62 172q0 152 122 244t329 92t312 -86t79 -234h-180q14 80 -47 126t-175 46t-187 -43q-72 -43 -72 -119t62 -110t152 -54
q90 -18 178 -43q89 -25 151 -89t63 -173q0 -160 -119 -248t-348 -88t-333 87t-77 241h181q-14 -86 44 -133t185 -47z" />
    <glyph glyph-name="scommaaccent.sc" unicode="&#xf69b;" horiz-adv-x="1064" 
d="M352 -139h180l-28 -160l-111 -209h-82l84 189h-76zM467 123q279 0 278 172q0 67 -61 101t-149 52q-89 18 -177 44t-149 90t-62 172q0 152 122 244t329 92t312 -86t79 -234h-180q14 80 -47 126t-175 46t-187 -43q-72 -43 -72 -119t62 -110t152 -54q90 -18 178 -43
q89 -25 151 -89t63 -173q0 -160 -119 -248t-348 -88t-333 87t-77 241h181q-14 -86 44 -133t185 -47z" />
    <glyph glyph-name="tbar.sc" unicode="&#xf69c;" horiz-adv-x="1048" 
d="M106 909l25 156h967l-25 -156h-395l-62 -360h310l-25 -131h-307l-70 -418h-180l70 418h-299l24 131h297l62 360h-392z" />
    <glyph glyph-name="tcaron.sc" unicode="&#xf69d;" horiz-adv-x="1048" 
d="M561 1229l-207 336h172l131 -222l205 222h180l-321 -336h-160zM106 909l25 156h967l-25 -156h-395l-154 -909h-180l154 909h-392z" />
    <glyph glyph-name="tcommaaccent.sc" unicode="&#xf69e;" horiz-adv-x="1048" 
d="M623 -221q0 -109 -76 -169t-203 -61h-115l25 115h98q123 0 123 98q0 66 -98 66h-58l91 172h-66l154 909h-392l25 156h967l-25 -156h-395l-154 -909h-49l-16 -74q78 -6 121 -46t43 -101z" />
    <glyph glyph-name="ubreve.sc" unicode="&#xf69f;" horiz-adv-x="1214" 
d="M723 1253q-115 0 -187 68t-59 219h115q-4 -172 139 -172t213 172h115q-82 -287 -336 -287zM543 139q279 0 327 287l107 639h180l-106 -639q-76 -451 -525 -451q-216 0 -328 110t-73 341l106 639h181l-107 -639q-47 -287 238 -287z" />
    <glyph glyph-name="uhungarumlaut.sc" unicode="&#xf6a0;" horiz-adv-x="1214" 
d="M461 1229l270 336h213l-352 -336h-131zM829 1229l271 336h213l-352 -336h-132zM543 139q279 0 327 287l107 639h180l-106 -639q-76 -451 -525 -451q-216 0 -328 110t-73 341l106 639h181l-107 -639q-47 -287 238 -287z" />
    <glyph glyph-name="umacron.sc" unicode="&#xf6a1;" horiz-adv-x="1214" 
d="M444 1327l25 139h565l-24 -139h-566zM543 139q279 0 327 287l107 639h180l-106 -639q-76 -451 -525 -451q-216 0 -328 110t-73 341l106 639h181l-107 -639q-47 -287 238 -287z" />
    <glyph glyph-name="uogonek.sc" unicode="&#xf6a2;" horiz-adv-x="1228" 
d="M530 139q282 0 330 287l107 639h180l-107 -639q-47 -285 -262 -395q-110 -57 -182 -131t-72 -146q0 -82 99 -82h57l-21 -123h-81q-98 0 -154 45q-55 45 -55 125q0 150 184 258q-14 -2 -45 -2q-217 0 -325 109q-107 109 -68 342l106 639h180l-106 -639q-47 -287 235 -287z
" />
    <glyph glyph-name="uring.sc" unicode="&#xf6a3;" horiz-adv-x="1214" 
d="M637 1393q0 -82 93 -82q48 0 84 37t36 84q0 92 -86 92q-55 0 -91 -37t-36 -94zM726 1221q-87 0 -139 45q-52 44 -52 132t69 152q70 64 157 64t139 -45t52 -133t-69 -152q-70 -63 -157 -63zM543 139q279 0 327 287l107 639h180l-106 -639q-76 -451 -525 -451
q-216 0 -328 110t-73 341l106 639h181l-107 -639q-47 -287 238 -287z" />
    <glyph glyph-name="utilde.sc" unicode="&#xf6a4;" horiz-adv-x="1214" 
d="M614 1507q80 0 158 -49t107 -49q78 0 106 98h107q-23 -98 -81 -159q-57 -62 -137 -62t-158 49t-108 49q-74 0 -106 -98h-107q23 98 81 160t138 61zM543 139q279 0 327 287l107 639h180l-106 -639q-76 -451 -525 -451q-216 0 -328 110t-73 341l106 639h181l-107 -639
q-47 -287 238 -287z" />
    <glyph glyph-name="wacute.sc" unicode="&#xf6a5;" horiz-adv-x="1581" 
d="M831 1229l271 336h213l-352 -336h-132zM238 0l-115 1065h180l74 -868h8l406 868h184l115 -868h8l360 868h180l-458 -1065h-222l-110 836h-8l-377 -836h-225z" />
    <glyph glyph-name="wcircumflex.sc" unicode="&#xf6a6;" horiz-adv-x="1581" 
d="M549 1229l321 336h164l203 -336h-172l-131 221l-205 -221h-180zM238 0l-115 1065h180l74 -868h8l406 868h184l115 -868h8l360 868h180l-458 -1065h-222l-110 836h-8l-377 -836h-225z" />
    <glyph glyph-name="wdieresis.sc" unicode="&#xf6a7;" horiz-adv-x="1581" 
d="M614 1303l33 188h180l-32 -188h-181zM1024 1303l33 188h180l-33 -188h-180zM238 0l-115 1065h180l74 -868h8l406 868h184l115 -868h8l360 868h180l-458 -1065h-222l-110 836h-8l-377 -836h-225z" />
    <glyph glyph-name="wgrave.sc" unicode="&#xf6a8;" horiz-adv-x="1581" 
d="M840 1229l-238 336h197l155 -336h-114zM238 0l-115 1065h180l74 -868h8l406 868h184l115 -868h8l360 868h180l-458 -1065h-222l-110 836h-8l-377 -836h-225z" />
    <glyph glyph-name="ycircumflex.sc" unicode="&#xf6a9;" horiz-adv-x="1032" 
d="M295 1229l321 336h164l203 -336h-172l-131 221l-205 -221h-180zM334 0l67 420l-295 645h205l209 -483h8l390 483h196l-534 -662l-66 -403h-180z" />
    <glyph glyph-name="ygrave.sc" unicode="&#xf6aa;" horiz-adv-x="1032" 
d="M586 1229l-238 336h197l155 -336h-114zM334 0l67 420l-295 645h205l209 -483h8l390 483h196l-534 -662l-66 -403h-180z" />
    <glyph glyph-name="zacute.sc" unicode="&#xf6ab;" horiz-adv-x="1040" 
d="M578 1229l270 336h213l-352 -336h-131zM172 909l33 156h835l-16 -115l-739 -794h592l-25 -156h-852l16 106l748 803h-592z" />
    <glyph glyph-name="zdotaccent.sc" unicode="&#xf6ac;" horiz-adv-x="1040" 
d="M565 1303l33 188h180l-33 -188h-180zM172 909l33 156h835l-16 -115l-739 -794h592l-25 -156h-852l16 106l748 803h-592z" />
    <glyph glyph-name="idotaccent.sc" unicode="&#xf6ad;" horiz-adv-x="540" 
d="M311 1303l33 188h180l-32 -188h-181zM90 0l180 1065h181l-181 -1065h-180z" />
    <glyph glyph-name="parenleft.cap" unicode="&#xf6ae;" horiz-adv-x="663" 
d="M188 492q0 535 443 1032h172q-183 -207 -313 -471t-130 -566t156 -602h-164q-164 276 -164 607z" />
    <glyph glyph-name="parenright.cap" unicode="&#xf6af;" horiz-adv-x="663" 
d="M360 922q0 302 -155 602h164q164 -276 163 -606q0 -535 -442 -1033h-172q182 207 312 471t130 566z" />
    <glyph glyph-name="bracketleft.cap" unicode="&#xf6b0;" horiz-adv-x="679" 
d="M66 -115l286 1639h467l-24 -148h-303l-238 -1343h303l-25 -148h-466z" />
    <glyph glyph-name="bracketright.cap" unicode="&#xf6b1;" horiz-adv-x="679" 
d="M-57 33h303l237 1343h-303l25 148h467l-287 -1639h-467z" />
    <glyph glyph-name="braceleft.cap" unicode="&#xf6b2;" horiz-adv-x="729" 
d="M754 1524h114l-24 -140h-99q-92 0 -138 -42t-60 -130l-25 -163q-25 -158 -82 -228t-180 -100v-8q112 -39 140 -116t-1 -228l-30 -172q-16 -94 14 -134q31 -39 125 -38h98l-24 -140h-99q-177 0 -241 79t-37 233l31 172q14 92 18 155q4 62 -39 96t-152 35l17 123
q139 0 196 58t82 213l27 163q27 160 109 236t260 76z" />
    <glyph glyph-name="braceright.cap" unicode="&#xf6b3;" horiz-adv-x="729" 
d="M47 25q92 0 138 42t61 130l24 180q25 157 82 227t180 101v8q-112 39 -140 115t1 229l31 155q16 94 -14 134q-31 39 -125 38h-99l25 140h98q340 0 279 -312l-31 -155q-14 -91 -18 -155t39 -97t151 -35l-16 -123q-139 0 -197 -58t-82 -212l-26 -180q-27 -158 -107 -235
t-254 -77h-123l25 140h98z" />
    <glyph glyph-name="exclamdown.cap" unicode="&#xf6b4;" horiz-adv-x="573" 
d="M86 0l68 393l163 623h99l-49 -623l-68 -393h-213zM291 1188l37 221h213l-37 -221h-213z" />
    <glyph glyph-name="questiondown.cap" unicode="&#xf6b5;" horiz-adv-x="1032" 
d="M49 295q0 104 44 181t109 125q66 48 132 92q161 106 182 257l8 58h181l-9 -58q-14 -94 -54 -168t-90 -114q-62 -50 -209 -153q-107 -74 -105 -204q0 -80 59 -130t172 -50t191 71t102 199h172q-18 -182 -150 -304t-350 -122q-170 0 -278 85t-107 235zM524 1188l33 221h213
l-33 -221h-213z" />
    <glyph glyph-name="guillemotleft.cap" unicode="&#xf6b6;" horiz-adv-x="1048" 
d="M369 295l-230 418l369 417h147l-319 -434l180 -401h-147zM762 295l-230 418l369 417h148l-320 -434l180 -401h-147z" />
    <glyph glyph-name="guillemotright.cap" unicode="&#xf6b7;" horiz-adv-x="1048" 
d="M57 295l320 434l-180 401h147l229 -417l-368 -418h-148zM451 295l319 434l-180 401h147l230 -417l-369 -418h-147z" />
    <glyph glyph-name="guilsinglleft.cap" unicode="&#xf6b8;" horiz-adv-x="655" 
d="M369 295l-230 418l369 417h147l-319 -434l180 -401h-147z" />
    <glyph glyph-name="guilsinglright.cap" unicode="&#xf6b9;" horiz-adv-x="655" 
d="M57 295l320 434l-180 401h147l229 -417l-368 -418h-148z" />
    <glyph glyph-name="hyphen.cap" unicode="&#xf6ba;" horiz-adv-x="811" 
d="M139 631l25 164h565l-24 -164h-566z" />
    <glyph glyph-name="endash.cap" unicode="&#xf6bb;" horiz-adv-x="1138" 
d="M139 631l25 164h893l-25 -164h-893z" />
    <glyph glyph-name="emdash.cap" unicode="&#xf6bc;" horiz-adv-x="1720" 
d="M139 631l25 164h1474l-24 -164h-1475z" />
    <glyph glyph-name="periodcentered.cap" unicode="&#xf6bd;" horiz-adv-x="540" 
d="M164 598l41 229h229l-41 -229h-229z" />
    <glyph glyph-name="dotlessj" unicode="&#xf6be;" horiz-adv-x="491" 
d="M-98 -295q61 0 93 36t44 112l199 1146h180l-205 -1179q-47 -270 -328 -271h-65l24 156h58z" />
    <glyph glyph-name="space_uni0326" unicode="&#xf6c3;" horiz-adv-x="1146" 
d="M369 -139h180l-29 -160l-110 -209h-82l84 189h-76z" />
    <glyph glyph-name="cent.inferior" unicode="&#xf6df;" horiz-adv-x="720" 
d="M0 -8q0 127 78 214t213 101l20 103h131l-20 -107q162 -39 168 -188h-156q-4 31 -31 57t-88 25q-61 1 -106 -53t-45 -122t33 -103q33 -34 90 -34q86 0 123 82h155q-17 -72 -79 -126t-158 -66l-17 -103h-131l19 105q-94 16 -147 73q-52 58 -52 142z" />
    <glyph glyph-name="cent.superior" unicode="&#xf6e0;" horiz-adv-x="720" 
d="M205 1319q0 127 78 214t213 101l20 103h131l-20 -107q162 -39 168 -188h-156q-4 30 -31 56q-26 26 -88 26t-106 -54t-45 -122q1 -68 33 -102t90 -34q86 0 122 82h156q-18 -72 -80 -126t-158 -66l-16 -103h-131l18 105q-94 16 -146 74t-52 141z" />
    <glyph glyph-name="comma.inferior" unicode="&#xf6e1;" horiz-adv-x="376" 
d="M-27 -311l33 188h180l-30 -180l-99 -238h-90l84 230h-78z" />
    <glyph glyph-name="comma.superior" unicode="&#xf6e2;" horiz-adv-x="376" 
d="M178 1016l33 188h180l-31 -180l-98 -238h-90l84 230h-78z" />
    <glyph glyph-name="dollar.inferior" unicode="&#xf6e3;" horiz-adv-x="720" 
d="M115 -106q0 -49 38 -78t102 -29t110 25q45 24 45 72t-58 75t-127 38q-70 11 -127 54t-57 130t68 149t182 76l20 110h131l-20 -115q170 -39 176 -188h-147q-2 39 -36 61t-88 21q-55 0 -97 -25q-42 -24 -42 -70t60 -71t129 -36q70 -11 129 -57t59 -135t-71 -151
q-72 -61 -195 -74l-20 -127h-132l23 129q-86 16 -146 70t-57 146h148z" />
    <glyph glyph-name="dollar.superior" unicode="&#xf6e4;" horiz-adv-x="720" 
d="M319 1221q0 -49 38 -78q39 -29 103 -29t109 25t45 73t-57 74q-57 27 -127 38t-127 54t-57 130t67 150q68 62 183 75l20 110h131l-20 -114q170 -39 176 -189h-148q-2 39 -35 61q-34 21 -88 21t-97 -25q-42 -25 -42 -71q-1 -46 59 -70q60 -25 130 -36t129 -57t59 -135
q0 -88 -72 -150t-194 -74l-21 -127h-131l23 129q-86 16 -146 69q-59 54 -57 146h147z" />
    <glyph glyph-name="hyphen.inferior" unicode="&#xf6e5;" horiz-adv-x="565" 
d="M-2 -25l25 140h417l-24 -140h-418z" />
    <glyph glyph-name="hyphen.superior" unicode="&#xf6e6;" horiz-adv-x="565" 
d="M203 1303l24 139h418l-24 -139h-418z" />
    <glyph glyph-name="period.inferior" unicode="&#xf6e7;" horiz-adv-x="376" 
d="M-27 -311l33 188h180l-32 -188h-181z" />
    <glyph glyph-name="period.superior" unicode="&#xf6e8;" horiz-adv-x="376" 
d="M178 1016l33 188h180l-33 -188h-180z" />
    <glyph glyph-name="a.superior" unicode="&#xf6e9;" horiz-adv-x="876" 
d="M745 1434q0 172 -158 172q-79 0 -149 -86t-69 -217q0 -82 40 -127q41 -46 119 -46t148 86t69 218zM467 999q-117 0 -194 81t-76 214q0 205 113 324q114 119 263 119q81 0 137 -35t76 -96h7l20 114h160l-121 -704h-156l17 98h-8q-82 -115 -238 -115z" />
    <glyph glyph-name="b.superior" unicode="&#xf6ea;" horiz-adv-x="878" 
d="M410 1303q0 -82 40 -127q40 -46 118 -46t149 86q70 86 69 218q0 82 -40 127t-118 45t-148 -86t-70 -217zM688 1737q117 0 194 -81t76 -214q0 -205 -114 -324t-262 -119q-80 0 -137 35q-56 35 -76 96h-9l-18 -114h-154l181 1057h163l-34 -213q-23 -131 -56 -238h7
q88 115 239 115z" />
    <glyph glyph-name="d.superior" unicode="&#xf6eb;" horiz-adv-x="876" 
d="M745 1434q0 172 -158 172q-79 0 -149 -86t-69 -217q0 -82 40 -127q41 -46 119 -46t148 86t69 218zM197 1294q0 205 113 324q114 119 263 119q81 0 137 -35t76 -96h9q4 51 32 221l41 246h164l-180 -1057h-156l17 98h-8q-82 -115 -238 -115q-117 0 -194 81q-76 81 -76 214z
" />
    <glyph glyph-name="e.superior" unicode="&#xf6ec;" horiz-adv-x="815" 
d="M735 1450q0 156 -146 156t-198 -156h344zM197 1294q0 219 147 347q108 95 260 95t232 -96t57 -247l-8 -50h-516v-49q0 -164 155 -164q127 0 172 99h156q-27 -105 -120 -167t-231 -62t-221 78q-83 79 -83 216z" />
    <glyph glyph-name="i.superior" unicode="&#xf6ed;" horiz-adv-x="360" 
d="M188 1016l115 704h164l-115 -704h-164zM336 1909l24 164h172l-24 -164h-172z" />
    <glyph glyph-name="l.superior" unicode="&#xf6ee;" horiz-adv-x="376" 
d="M188 1016l181 1057h163l-180 -1057h-164z" />
    <glyph glyph-name="m.superior" unicode="&#xf6ef;" horiz-adv-x="1280" 
d="M674 1737q152 0 196 -138q92 137 248 138q113 0 176 -76t37 -244l-65 -401h-164l65 401q31 188 -106 189q-68 0 -120 -58t-69 -164l-61 -368h-164l66 401q31 188 -107 189q-68 0 -121 -60t-69 -162l-64 -368h-164l123 704h156l-18 -98h4q69 115 221 115z" />
    <glyph glyph-name="o.superior" unicode="&#xf6f0;" horiz-adv-x="854" 
d="M369 1303q0 -172 155 -173q100 0 169 86t69 218q0 172 -156 172q-100 0 -168 -86t-69 -217zM197 1294q0 199 124 321q123 122 285 122t245 -80t83 -215q0 -199 -124 -321t-286 -122t-244 80q-83 80 -83 215z" />
    <glyph glyph-name="r.superior" unicode="&#xf6f1;" horiz-adv-x="559" 
d="M647 1737q61 0 98 -25l-57 -156q-43 25 -90 25q-74 0 -124 -67t-66 -158l-56 -340h-164l115 704h156l-19 -110h6q82 127 201 127z" />
    <glyph glyph-name="s.superior" unicode="&#xf6f2;" horiz-adv-x="759" 
d="M336 1229q0 -115 152 -115t151 98q0 72 -98 91l-131 24q-72 14 -114 56t-42 108q0 117 84 181t215 65t212 -55t79 -166h-156q0 106 -135 106q-61 0 -102 -25t-41 -69t47 -60q14 -4 43 -10l131 -24q72 -14 122 -62t50 -127q0 -123 -94 -184q-93 -61 -227 -61t-221 52
t-81 177h156z" />
    <glyph glyph-name="t.superior" unicode="&#xf6f3;" horiz-adv-x="509" 
d="M483 1155h99l-25 -139h-115q-129 0 -174 52t-22 177l57 344h-123l25 131h119l36 213h164l-37 -213h193l-25 -131h-190l-55 -327q-10 -55 6 -81t67 -26z" />
    <glyph glyph-name="lslash.sc" unicode="&#xf6f9;" horiz-adv-x="974" 
d="M33 221l-66 115l201 129l102 600h181l-80 -471l186 119l57 -115l-272 -178l-45 -264h547l-25 -156h-729l49 289z" />
    <glyph glyph-name="oe.sc" unicode="&#xf6fa;" horiz-adv-x="1761" 
d="M270 451q0 -129 81 -212t247 -83h190l127 753h-194q-217 0 -334 -135t-117 -323zM82 451q0 268 184 441t479 173h975l-24 -156h-600l-49 -293h483l-25 -151h-485l-51 -309h612l-25 -156h-983q-235 0 -363 124t-128 327z" />
    <glyph glyph-name="scaron.sc" unicode="&#xf6fd;" horiz-adv-x="1064" 
d="M537 1229l-207 336h172l131 -222l205 222h180l-322 -336h-159zM467 123q279 0 278 172q0 67 -61 101t-149 52q-89 18 -177 44t-149 90t-62 172q0 152 122 244t329 92t312 -86t79 -234h-180q14 80 -47 126t-175 46t-187 -43q-72 -43 -72 -119t62 -110t152 -54
q90 -18 178 -43q89 -25 151 -89t63 -173q0 -160 -119 -248t-348 -88t-333 87t-77 241h181q-14 -86 44 -133t185 -47z" />
    <glyph glyph-name="zcaron.sc" unicode="&#xf6ff;" horiz-adv-x="1040" 
d="M561 1229l-207 336h172l131 -222l205 222h180l-321 -336h-160zM172 909l33 156h835l-16 -115l-739 -794h592l-25 -156h-852l16 106l748 803h-592z" />
    <glyph glyph-name="exclam.sc" unicode="&#xf721;" horiz-adv-x="573" 
d="M90 0l33 213h213l-33 -213h-213zM197 311l24 459l49 295h213l-49 -295l-139 -459h-98z" />
    <glyph glyph-name="ampersand.sc" unicode="&#xf726;" horiz-adv-x="1204" 
d="M426 808q0 -66 76 -163q121 45 182 89t61 118q0 47 -34 77q-35 29 -111 29t-125 -42t-49 -108zM483 115q128 0 234 67l-283 310q-98 -38 -151 -88t-54 -125q0 -164 254 -164zM49 252q0 127 80 205t223 135q-82 112 -82 218t94 188t242 83q148 -1 222 -65t73 -178
q0 -114 -92 -179t-225 -112l235 -264q70 100 99 249h155q-47 -223 -158 -356l158 -176h-188l-74 78q-147 -102 -345 -102t-308 74q-109 75 -109 202z" />
    <glyph glyph-name="zero.oldstyle" unicode="&#xf730;" horiz-adv-x="1196" 
d="M254 418q0 -133 74 -210t196 -77q162 0 282 128t120 323q0 133 -74 210t-197 76q-161 0 -281 -128t-120 -322zM66 401q0 267 179 445t427 178q206 0 324 -115t118 -311q0 -266 -179 -444t-427 -179q-206 1 -324 115t-118 311z" />
    <glyph glyph-name="one.oldstyle" unicode="&#xf731;" horiz-adv-x="704" 
d="M131 606l-74 139l418 254h139l-172 -999h-180l131 764z" />
    <glyph glyph-name="two.oldstyle" unicode="&#xf732;" horiz-adv-x="999" 
d="M770 732q0 56 -52 100t-169 45q-233 0 -295 -230h-164q37 195 166 286t307 91q179 0 283 -73t104 -206q0 -86 -24 -127q-24 -42 -38 -64t-45 -42q-30 -20 -47 -34q-16 -14 -54 -28q-38 -16 -51 -22t-51 -19t-42 -16l-131 -49q-84 -31 -152 -82t-77 -106h622l-24 -156
h-844q61 360 409 483l140 49q69 25 109 43q40 17 80 59t40 98z" />
    <glyph glyph-name="three.oldstyle" unicode="&#xf733;" horiz-adv-x="1073" 
d="M374 -279q148 0 252 82q103 82 103 222q0 98 -74 155t-188 58h-107l33 155h107q121 0 208 78t87 201q1 90 -61 143t-172 53t-190 -63t-102 -191h-172q33 190 165 300q133 110 317 110t285 -91t101 -227t-77 -241q-78 -106 -184 -137v-9q92 -27 148 -105t56 -181
q1 -213 -153 -340t-387 -127t-342 116t-76 334h172q-23 -135 41 -215q62 -80 210 -80z" />
    <glyph glyph-name="four.oldstyle" unicode="&#xf734;" horiz-adv-x="1097" 
d="M176 156h426l90 540zM-57 0l24 131l811 868h148l-144 -843h209l-24 -156h-211l-68 -410h-180l67 410h-632z" />
    <glyph glyph-name="five.oldstyle" unicode="&#xf735;" horiz-adv-x="1032" 
d="M-33 -33h180q0 -100 67 -173t199 -73q132 -1 228 99t96 270q-1 110 -67 178t-170 68q-154 0 -271 -139l-163 8l172 794h761l-24 -163h-598l-101 -435h9q80 91 255 91t280 -104t106 -282q0 -246 -158 -393t-359 -147t-321 103t-121 298z" />
    <glyph glyph-name="six.oldstyle" unicode="&#xf736;" horiz-adv-x="1122" 
d="M623 745q-139 0 -241 -100t-103 -268q1 -111 71 -179t194 -67q124 0 221 99q95 99 95 270q0 111 -66 178q-67 67 -171 67zM90 451q0 139 12 221q64 399 234 580t401 182q181 0 283 -94t94 -283h-180q6 113 -53 167t-160 54q-141 0 -252 -133t-168 -424q51 86 147 133
t216 47q174 0 279 -103t106 -282q0 -246 -158 -393t-361 -147q-204 0 -322 113q-118 114 -118 362z" />
    <glyph glyph-name="seven.oldstyle" unicode="&#xf737;" horiz-adv-x="942" 
d="M-41 -410l795 1246h-672l24 163h885l-24 -131l-811 -1278h-197z" />
    <glyph glyph-name="eight.oldstyle" unicode="&#xf738;" horiz-adv-x="1097" 
d="M610 803q114 0 203 77q88 77 88 185q0 109 -63 165t-178 56t-203 -77t-88 -185t63 -165q64 -56 178 -56zM205 344q0 -98 75 -156t210 -57q135 0 240 82t106 221q0 98 -75 156t-211 57q-136 0 -240 -82q-105 -82 -105 -221zM477 -25q-221 -1 -337 95t-115 246
q0 150 94 262q94 113 241 151v8q-72 27 -118 102t-45 169q0 180 142 303q143 123 337 123t296 -94t101 -250q0 -114 -80 -218t-190 -135v-8q98 -27 155 -103t58 -184q0 -213 -159 -340t-380 -127z" />
    <glyph glyph-name="nine.oldstyle" unicode="&#xf739;" horiz-adv-x="1122" 
d="M242 500q0 -110 66 -178t188 -68q120 0 224 98q103 98 103 271q-1 111 -71 179t-195 66q-125 0 -220 -99t-95 -269zM438 98q-174 0 -279 104t-106 281q0 245 158 393t361 148q204 0 322 -114t118 -361q0 -139 -13 -221q-121 -762 -626 -762q-182 0 -284 93
q-101 94 -93 284h180q-6 -113 53 -167t160 -55q301 0 410 555q-51 -86 -147 -132t-214 -46z" />
    <glyph glyph-name="question.sc" unicode="&#xf73f;" horiz-adv-x="958" 
d="M274 0l37 213h205l-37 -213h-205zM729 814q0 54 -52 91q-51 37 -149 37t-166 -56t-83 -149h-173q27 152 144 252q117 101 291 101t271 -72t97 -201t-90 -198q-90 -68 -159 -104q-128 -66 -144 -155l-8 -49h-180l8 49q12 78 58 136t102 93q56 34 108 63q125 71 125 162z
" />
    <glyph glyph-name="a.sc" unicode="&#xf761;" horiz-adv-x="1073" 
d="M598 885h-8l-252 -475h356zM-74 0l590 1065h213l238 -1065h-189l-51 254h-471l-133 -254h-197z" />
    <glyph glyph-name="b.sc" unicode="&#xf762;" horiz-adv-x="1187" 
d="M737 909h-313l-49 -282h313q92 0 145 45q52 45 52 123q-1 114 -148 114zM696 471h-346l-53 -315h342q100 0 161 48q60 48 60 120q0 146 -164 147zM754 1065q152 0 236 -65t83 -164q0 -98 -50 -172t-159 -99v-8q82 -17 133 -79t52 -142q0 -152 -116 -244t-310 -92h-533
l180 1065h484z" />
    <glyph glyph-name="c.sc" unicode="&#xf763;" horiz-adv-x="1196" 
d="M82 434q0 279 182 467t449 189q193 0 313 -102t125 -267h-176q-25 209 -270 209q-183 0 -309 -138t-126 -341q0 -137 80 -227t223 -89q233 0 336 209h181q-64 -168 -206 -268t-344 -100t-330 129q-128 130 -128 329z" />
    <glyph glyph-name="d.sc" unicode="&#xf764;" horiz-adv-x="1228" 
d="M631 909h-207l-127 -753h211q217 0 334 135t116 323q0 129 -80 212q-81 83 -247 83zM655 1065q236 0 364 -124t128 -327q0 -268 -184 -441t-480 -173h-393l180 1065h385z" />
    <glyph glyph-name="e.sc" unicode="&#xf765;" horiz-adv-x="1089" 
d="M90 0l180 1065h779l-25 -156h-600l-49 -293h483l-24 -151h-486l-51 -309h612l-24 -156h-795z" />
    <glyph glyph-name="f.sc" unicode="&#xf766;" horiz-adv-x="1032" 
d="M90 0l180 1065h770l-24 -156h-592l-59 -350h469l-25 -151h-471l-68 -408h-180z" />
    <glyph glyph-name="g.sc" unicode="&#xf767;" horiz-adv-x="1310" 
d="M950 0v121h-8q-140 -145 -368 -145t-356 132t-128 334q0 279 188 463t467 185q191 0 313 -98t130 -247h-189q-12 78 -80 132q-69 53 -190 53q-193 0 -321 -138t-129 -341q0 -139 82 -228q83 -88 227 -88t252 72q109 72 131 211h-332l25 147h491l-90 -565h-115z" />
    <glyph glyph-name="h.sc" unicode="&#xf768;" horiz-adv-x="1286" 
d="M90 0l180 1065h181l-76 -451h565l76 451h180l-180 -1065h-180l77 459h-565l-78 -459h-180z" />
    <glyph glyph-name="i.sc" unicode="&#xf769;" horiz-adv-x="540" 
d="M90 0l180 1065h181l-181 -1065h-180z" />
    <glyph glyph-name="j.sc" unicode="&#xf76a;" horiz-adv-x="909" 
d="M347 123q81 0 127 48t67 157l131 737h180l-131 -737q-33 -184 -125 -268t-255 -85q-163 0 -248 87t-52 257l8 41h172l-8 -41q-19 -100 17 -148t117 -48z" />
    <glyph glyph-name="k.sc" unicode="&#xf76b;" horiz-adv-x="1146" 
d="M90 0l180 1065h181l-93 -543l617 543h213l-524 -461l368 -604h-196l-301 492l-213 -189l-52 -303h-180z" />
    <glyph glyph-name="l.sc" unicode="&#xf76c;" horiz-adv-x="974" 
d="M90 0l180 1065h181l-154 -909h547l-25 -156h-729z" />
    <glyph glyph-name="m.sc" unicode="&#xf76d;" horiz-adv-x="1572" 
d="M90 0l180 1065h226l237 -827h8l521 827h221l-180 -1065h-181l144 795h-6l-498 -795h-127l-238 795h-6l-121 -795h-180z" />
    <glyph glyph-name="n.sc" unicode="&#xf76e;" horiz-adv-x="1286" 
d="M90 0l180 1065h164l447 -778h8l127 778h180l-180 -1065h-164l-446 778h-11l-125 -778h-180z" />
    <glyph glyph-name="o.sc" unicode="&#xf76f;" horiz-adv-x="1294" 
d="M586 135q150 0 266 95q172 140 172 393q0 139 -83 223t-233 84t-266 -95q-168 -137 -172 -393q0 -139 84 -223q82 -84 232 -84zM82 434q0 287 190 471t457 185q213 0 348 -128t135 -331q0 -287 -190 -471t-457 -185q-213 0 -348 128t-135 331z" />
    <glyph glyph-name="p.sc" unicode="&#xf770;" horiz-adv-x="1122" 
d="M713 909h-291l-70 -393h287q113 0 179 62t67 152q0 179 -172 179zM729 1065q166 0 255 -86t89 -217q0 -182 -124 -292t-335 -110h-288l-64 -360h-172l180 1065h459z" />
    <glyph glyph-name="q.sc" unicode="&#xf771;" horiz-adv-x="1294" 
d="M586 135q150 0 266 95q172 140 172 393q0 139 -83 223t-233 84t-266 -95q-168 -137 -172 -393q0 -139 84 -223q82 -84 232 -84zM82 434q0 287 190 471t457 185q213 0 348 -128t135 -331q0 -322 -235 -512l170 -209l-146 -115l-182 230q-127 -49 -254 -50q-213 0 -348 128
t-135 331z" />
    <glyph glyph-name="r.sc" unicode="&#xf772;" 
d="M655 557q109 0 169 52q60 53 60 137q1 163 -163 163h-297l-59 -352h290zM737 1065q162 0 253 -81t91 -214t-82 -227t-221 -127l221 -416h-196l-211 401h-254l-68 -401h-180l180 1065h467z" />
    <glyph glyph-name="s.sc" unicode="&#xf773;" horiz-adv-x="1064" 
d="M467 123q279 0 278 172q0 67 -61 101t-149 52q-89 18 -177 44t-149 90t-62 172q0 152 122 244t329 92t312 -86t79 -234h-180q14 80 -47 126t-175 46t-187 -43q-72 -43 -72 -119t62 -110t152 -54q90 -18 178 -43q89 -25 151 -89t63 -173q0 -160 -119 -248t-348 -88
t-333 87t-77 241h181q-14 -86 44 -133t185 -47z" />
    <glyph glyph-name="t.sc" unicode="&#xf774;" horiz-adv-x="1048" 
d="M106 909l25 156h967l-25 -156h-395l-154 -909h-180l154 909h-392z" />
    <glyph glyph-name="u.sc" unicode="&#xf775;" horiz-adv-x="1214" 
d="M543 139q279 0 327 287l107 639h180l-106 -639q-76 -451 -525 -451q-216 0 -328 110t-73 341l106 639h181l-107 -639q-47 -287 238 -287z" />
    <glyph glyph-name="v.sc" unicode="&#xf776;" horiz-adv-x="1056" 
d="M336 0l-230 1065h189l172 -885h8l467 885h188l-581 -1065h-213z" />
    <glyph glyph-name="w.sc" unicode="&#xf777;" horiz-adv-x="1581" 
d="M238 0l-115 1065h180l74 -868h8l406 868h184l115 -868h8l360 868h180l-458 -1065h-222l-110 836h-8l-377 -836h-225z" />
    <glyph glyph-name="x.sc" unicode="&#xf778;" horiz-adv-x="1015" 
d="M-74 0l484 541l-287 524h213l196 -385l336 385h205l-459 -516l295 -549h-196l-221 410l-361 -410h-205z" />
    <glyph glyph-name="y.sc" unicode="&#xf779;" horiz-adv-x="1032" 
d="M334 0l67 420l-295 645h205l209 -483h8l390 483h196l-534 -662l-66 -403h-180z" />
    <glyph glyph-name="z.sc" unicode="&#xf77a;" horiz-adv-x="1040" 
d="M172 909l33 156h835l-16 -115l-739 -794h592l-25 -156h-852l16 106l748 803h-592z" />
    <glyph glyph-name="exclamdown.sc" unicode="&#xf7a1;" horiz-adv-x="573" 
d="M90 0l49 295l140 459h98l-25 -459l-49 -295h-213zM238 852l32 213h213l-32 -213h-213z" />
    <glyph glyph-name="questiondown.sc" unicode="&#xf7bf;" horiz-adv-x="958" 
d="M221 279q0 -57 52 -95t150 -37q97 1 165 57t84 148h172q-27 -152 -144 -252t-291 -100t-271 72t-97 200q0 129 92 198q92 70 159 106q126 65 142 153l8 49h181l-9 -49q-12 -78 -58 -136t-101 -92t-109 -64q-126 -70 -125 -158zM442 877l37 213h205l-37 -213h-205z" />
    <glyph glyph-name="agrave.sc" unicode="&#xf7e0;" horiz-adv-x="1073" 
d="M586 1229l-238 336h197l155 -336h-114zM598 885h-8l-252 -475h356zM-74 0l590 1065h213l238 -1065h-189l-51 254h-471l-133 -254h-197z" />
    <glyph glyph-name="aacute.sc" unicode="&#xf7e1;" horiz-adv-x="1073" 
d="M578 1229l270 336h213l-352 -336h-131zM598 885h-8l-252 -475h356zM-74 0l590 1065h213l238 -1065h-189l-51 254h-471l-133 -254h-197z" />
    <glyph glyph-name="acircumflex.sc" unicode="&#xf7e2;" horiz-adv-x="1073" 
d="M295 1229l321 336h164l203 -336h-172l-131 221l-205 -221h-180zM598 885h-8l-252 -475h356zM-74 0l590 1065h213l238 -1065h-189l-51 254h-471l-133 -254h-197z" />
    <glyph glyph-name="atilde.sc" unicode="&#xf7e3;" horiz-adv-x="1073" 
d="M536 1507q78 0 158 -49t109 -49q78 0 106 98h107q-23 -98 -81 -159q-59 -62 -137 -62t-158 49t-108 49q-74 0 -106 -98h-107q23 98 81 160t136 61zM598 885h-8l-252 -475h356zM-74 0l590 1065h213l238 -1065h-189l-51 254h-471l-133 -254h-197z" />
    <glyph glyph-name="adieresis.sc" unicode="&#xf7e4;" horiz-adv-x="1073" 
d="M360 1303l33 188h180l-32 -188h-181zM770 1303l33 188h180l-33 -188h-180zM598 885h-8l-252 -475h356zM-74 0l590 1065h213l238 -1065h-189l-51 254h-471l-133 -254h-197z" />
    <glyph glyph-name="aring.sc" unicode="&#xf7e5;" horiz-adv-x="1073" 
d="M561 1403q0 -92 93 -92q48 0 84 37t36 84q0 92 -86 92q-55 0 -91 -37t-36 -84zM650 1221q-87 0 -139 45q-52 44 -52 132t69 152q70 64 157 64t139 -45t52 -133t-69 -152q-70 -64 -157 -63zM598 885h-8l-252 -475h356zM-74 0l590 1065h213l238 -1065h-189l-51 254h-471
l-133 -254h-197z" />
    <glyph glyph-name="ae.sc" unicode="&#xf7e6;" horiz-adv-x="1794" 
d="M934 885l-463 -504h387l86 504h-10zM-90 0l991 1065h852l-24 -156h-601l-49 -291h486l-25 -155h-487l-52 -307h613l-25 -156h-794l39 233h-498l-213 -233h-213z" />
    <glyph glyph-name="ccedilla.sc" unicode="&#xf7e7;" horiz-adv-x="1196" 
d="M82 434q0 279 182 467t449 189q193 0 313 -102t125 -267h-176q-25 209 -270 209q-183 0 -309 -138t-126 -341q0 -137 80 -227t223 -89q233 0 336 209h181q-60 -162 -196 -261t-310 -108l-11 -49q78 -6 121 -46t43 -101q1 -109 -75 -169t-203 -61h-115l25 115h98
q123 0 123 98q0 66 -98 66h-58l78 149q-202 13 -316 141t-114 316z" />
    <glyph glyph-name="egrave.sc" unicode="&#xf7e8;" horiz-adv-x="1089" 
d="M618 1229l-237 336h197l155 -336h-115zM90 0l180 1065h779l-25 -156h-600l-49 -293h483l-24 -151h-486l-51 -309h612l-24 -156h-795z" />
    <glyph glyph-name="eacute.sc" unicode="&#xf7e9;" horiz-adv-x="1089" 
d="M610 1229l271 336h213l-353 -336h-131zM90 0l180 1065h779l-25 -156h-600l-49 -293h483l-24 -151h-486l-51 -309h612l-24 -156h-795z" />
    <glyph glyph-name="ecircumflex.sc" unicode="&#xf7ea;" horiz-adv-x="1089" 
d="M328 1229l321 336h164l203 -336h-172l-131 221l-205 -221h-180zM90 0l180 1065h779l-25 -156h-600l-49 -293h483l-24 -151h-486l-51 -309h612l-24 -156h-795z" />
    <glyph glyph-name="edieresis.sc" unicode="&#xf7eb;" horiz-adv-x="1089" 
d="M393 1303l33 188h180l-33 -188h-180zM803 1303l33 188h180l-33 -188h-180zM90 0l180 1065h779l-25 -156h-600l-49 -293h483l-24 -151h-486l-51 -309h612l-24 -156h-795z" />
    <glyph glyph-name="igrave.sc" unicode="&#xf7ec;" horiz-adv-x="540" 
d="M332 1229l-238 336h197l155 -336h-114zM90 0l180 1065h181l-181 -1065h-180z" />
    <glyph glyph-name="iacute.sc" unicode="&#xf7ed;" horiz-adv-x="540" 
d="M324 1229l270 336h213l-352 -336h-131zM90 0l180 1065h181l-181 -1065h-180z" />
    <glyph glyph-name="icircumflex.sc" unicode="&#xf7ee;" horiz-adv-x="540" 
d="M41 1229l321 336h164l203 -336h-172l-131 221l-205 -221h-180zM90 0l180 1065h181l-181 -1065h-180z" />
    <glyph glyph-name="idieresis.sc" unicode="&#xf7ef;" horiz-adv-x="540" 
d="M106 1303l33 188h180l-32 -188h-181zM516 1303l33 188h180l-33 -188h-180zM90 0l180 1065h181l-181 -1065h-180z" />
    <glyph glyph-name="eth.sc" unicode="&#xf7f0;" horiz-adv-x="1228" 
d="M631 909h-207l-53 -311h219l-25 -131h-217l-51 -311h211q217 0 334 135t116 323q0 129 -80 212q-81 83 -247 83zM655 1065q236 0 364 -124t128 -327q0 -268 -184 -441t-480 -173h-393l78 467h-168l25 131h165l80 467h385z" />
    <glyph glyph-name="ntilde.sc" unicode="&#xf7f1;" horiz-adv-x="1286" 
d="M652 1507q78 0 158 -49t108 -49q78 0 106 98h106q-22 -98 -80 -159q-58 -62 -136 -62t-158 49t-109 49q-74 0 -106 -98h-107q23 98 81 160q59 62 137 61zM90 0l180 1065h164l447 -778h8l127 778h180l-180 -1065h-164l-446 778h-11l-125 -778h-180z" />
    <glyph glyph-name="ograve.sc" unicode="&#xf7f2;" horiz-adv-x="1294" 
d="M700 1229l-237 336h196l156 -336h-115zM586 135q150 0 266 95q172 140 172 393q0 139 -83 223t-233 84t-266 -95q-168 -137 -172 -393q0 -139 84 -223q82 -84 232 -84zM82 434q0 287 190 471t457 185q213 0 348 -128t135 -331q0 -287 -190 -471t-457 -185
q-213 0 -348 128t-135 331z" />
    <glyph glyph-name="oacute.sc" unicode="&#xf7f3;" horiz-adv-x="1294" 
d="M692 1229l271 336h213l-353 -336h-131zM586 135q150 0 266 95q172 140 172 393q0 139 -83 223t-233 84t-266 -95q-168 -137 -172 -393q0 -139 84 -223q82 -84 232 -84zM82 434q0 287 190 471t457 185q213 0 348 -128t135 -331q0 -287 -190 -471t-457 -185
q-213 0 -348 128t-135 331z" />
    <glyph glyph-name="ocircumflex.sc" unicode="&#xf7f4;" horiz-adv-x="1294" 
d="M410 1229l321 336h164l203 -336h-172l-131 221l-205 -221h-180zM586 135q150 0 266 95q172 140 172 393q0 139 -83 223t-233 84t-266 -95q-168 -137 -172 -393q0 -139 84 -223q82 -84 232 -84zM82 434q0 287 190 471t457 185q213 0 348 -128t135 -331q0 -287 -190 -471
t-457 -185q-213 0 -348 128t-135 331z" />
    <glyph glyph-name="otilde.sc" unicode="&#xf7f5;" horiz-adv-x="1294" 
d="M652 1507q78 0 158 -49t108 -49q78 0 106 98h106q-22 -98 -80 -159q-58 -62 -136 -62t-158 49t-109 49q-74 0 -106 -98h-107q23 98 81 160q59 62 137 61zM586 135q150 0 266 95q172 140 172 393q0 139 -83 223t-233 84t-266 -95q-168 -137 -172 -393q0 -139 84 -223
q82 -84 232 -84zM82 434q0 287 190 471t457 185q213 0 348 -128t135 -331q0 -287 -190 -471t-457 -185q-213 0 -348 128t-135 331z" />
    <glyph glyph-name="odieresis.sc" unicode="&#xf7f6;" horiz-adv-x="1294" 
d="M475 1303l33 188h180l-33 -188h-180zM885 1303l33 188h180l-33 -188h-180zM586 135q150 0 266 95q172 140 172 393q0 139 -83 223t-233 84t-266 -95q-168 -137 -172 -393q0 -139 84 -223q82 -84 232 -84zM82 434q0 287 190 471t457 185q213 0 348 -128t135 -331
q0 -287 -190 -471t-457 -185q-213 0 -348 128t-135 331z" />
    <glyph glyph-name="oslash.sc" unicode="&#xf7f8;" horiz-adv-x="1294" 
d="M270 427q0 -85 43 -159l596 604q-80 58 -215 58t-252 -95q-172 -140 -172 -408zM600 135q136 0 252 95q172 140 172 393q0 98 -45 172l-594 -605q79 -55 215 -55zM82 434q0 287 190 471t457 185q176 0 303 -93l90 93h148l-162 -164q104 -125 104 -295q0 -287 -190 -471
t-457 -185q-178 0 -303 91l-90 -91h-147l159 162q-102 121 -102 297z" />
    <glyph glyph-name="ugrave.sc" unicode="&#xf7f9;" horiz-adv-x="1214" 
d="M662 1229l-238 336h197l155 -336h-114zM543 139q279 0 327 287l107 639h180l-106 -639q-76 -451 -525 -451q-216 0 -328 110t-73 341l106 639h181l-107 -639q-47 -287 238 -287z" />
    <glyph glyph-name="uacute.sc" unicode="&#xf7fa;" horiz-adv-x="1214" 
d="M653 1229l271 336h213l-353 -336h-131zM543 139q279 0 327 287l107 639h180l-106 -639q-76 -451 -525 -451q-216 0 -328 110t-73 341l106 639h181l-107 -639q-47 -287 238 -287z" />
    <glyph glyph-name="ucircumflex.sc" unicode="&#xf7fb;" horiz-adv-x="1214" 
d="M371 1229l321 336h164l203 -336h-172l-131 221l-205 -221h-180zM543 139q279 0 327 287l107 639h180l-106 -639q-76 -451 -525 -451q-216 0 -328 110t-73 341l106 639h181l-107 -639q-47 -287 238 -287z" />
    <glyph glyph-name="udieresis.sc" unicode="&#xf7fc;" horiz-adv-x="1214" 
d="M436 1303l33 188h180l-33 -188h-180zM846 1303l33 188h180l-33 -188h-180zM543 139q279 0 327 287l107 639h180l-106 -639q-76 -451 -525 -451q-216 0 -328 110t-73 341l106 639h181l-107 -639q-47 -287 238 -287z" />
    <glyph glyph-name="yacute.sc" unicode="&#xf7fd;" horiz-adv-x="1032" 
d="M578 1229l270 336h213l-352 -336h-131zM334 0l67 420l-295 645h205l209 -483h8l390 483h196l-534 -662l-66 -403h-180z" />
    <glyph glyph-name="thorn.sc" unicode="&#xf7fe;" horiz-adv-x="1122" 
d="M614 352q113 0 180 62q66 62 66 152q-1 178 -172 179h-295l-69 -393h290zM705 901q167 0 255 -86t89 -217q0 -182 -124 -292t-335 -109h-293l-35 -197h-172l180 1065h181l-29 -164h283z" />
    <glyph glyph-name="ydieresis.sc" unicode="&#xf7ff;" horiz-adv-x="1032" 
d="M360 1303l33 188h180l-32 -188h-181zM770 1303l33 188h180l-33 -188h-180zM334 0l67 420l-295 645h205l209 -483h8l390 483h196l-534 -662l-66 -403h-180z" />
    <glyph glyph-name="at.sc" horiz-adv-x="1691" 
d="M756 106q74 0 142 48q69 48 89 151l14 78q-25 -29 -88 -39l-139 -22q-152 -25 -151 -121q1 -95 133 -95zM449 176q0 201 296 248l152 22q65 8 93 20t34 36q12 61 -23 103t-116 42q-156 0 -189 -133h-166q29 125 125 193t252 67q340 0 287 -297l-41 -223q-27 -162 92 -162
q78 0 137 70q109 129 109 325q0 236 -161 361t-412 125q-312 0 -514 -205t-201 -510q0 -215 145 -357q146 -143 376 -143t366 109h174q-215 -219 -549 -219q-293 0 -471 171t-178 427q0 356 244 597q245 241 628 240q303 -1 497 -155q193 -154 193 -430t-184 -432
q-98 -84 -234 -84q-186 0 -225 124q-102 -125 -299 -124q-113 0 -175 54t-62 140z" />
    <glyph glyph-name="fi.sc" horiz-adv-x="1572" 
d="M1122 0l181 1065h180l-180 -1065h-181zM90 0l180 1065h770l-24 -156h-592l-59 -350h469l-25 -151h-471l-68 -408h-180z" />
    <glyph glyph-name="fl.sc" horiz-adv-x="2007" 
d="M1122 0l181 1065h180l-154 -909h547l-25 -156h-729zM90 0l180 1065h770l-24 -156h-592l-59 -350h469l-25 -151h-471l-68 -408h-180z" />
    <glyph glyph-name="t_t" horiz-adv-x="1277" 
d="M385 0q-297 0 -246 295l94 557h-184l25 147h186l51 304h181l-52 -304h434l52 304h180l-51 -304h256l-25 -147h-256l-92 -549q-12 -78 10 -113t92 -34h131l-24 -156h-148q-297 0 -245 295l94 557h-432l-92 -549q-12 -78 10 -113t92 -34h131l-25 -156h-147z" />
    <glyph glyph-name="t_f" horiz-adv-x="1236" 
d="M1303 1499h122l-24 -156h-107q-92 0 -140 -45t-64 -143l-27 -156h240l-25 -147h-240l-145 -852h-180l143 852h-440l-92 -549q-12 -78 10 -113t92 -34h131l-25 -156h-147q-297 0 -246 295l94 557h-184l25 147h186l51 304h181l-52 -304h441l28 164q55 336 394 336z" />
    <glyph glyph-name="caronquoteleft" horiz-adv-x="1146" 
d="M590 1163l28 160l111 209h82l-84 -189h76l-33 -180h-180z" />
    <glyph glyph-name="caronquoteright" horiz-adv-x="1146" 
d="M614 1163l84 189h-75l32 180h181l-29 -160l-111 -209h-82z" />
    <glyph glyph-name="slashedzero" 
d="M512 139q305 0 401 566q37 229 7 380l-555 -890q53 -56 147 -56zM287 480q0 -100 14 -158l555 892q-55 55 -147 56q-305 0 -402 -565q-20 -125 -20 -225zM487 -25q-201 0 -295 129t-94 355q0 123 21 246q55 333 209 531t405 198q201 0 295 -129t94 -355q0 -123 -20 -245
q-55 -334 -209 -532t-406 -198z" />
    <glyph glyph-name="zero.sc" horiz-adv-x="1032" 
d="M444 123q119 -1 201 107t117 302q14 84 14 162q0 248 -190 248q-121 0 -202 -106t-114 -304q-16 -94 -16 -159q0 -119 49 -185t141 -65zM424 -25q-176 -1 -262 105t-86 287q0 86 14 165q41 250 171 404t345 154q178 0 264 -106t86 -288q0 -84 -14 -164
q-43 -250 -173 -404t-345 -153z" />
    <glyph glyph-name="one.sc" horiz-adv-x="1032" 
d="M238 688l-58 131l434 246h131l-155 -918h278l-24 -147h-754l25 147h295l116 703z" />
    <glyph glyph-name="two.sc" horiz-adv-x="1032" 
d="M762 811q0 51 -45 91t-135 40q-203 0 -254 -197h-164q78 344 426 345q152 0 248 -76t96 -207t-83 -209q-83 -77 -208 -140q-6 -3 -12 -7l-148 -82q-123 -68 -168 -116t-61 -106h590l-25 -147h-794q35 178 117 283q83 104 243 192l147 82q66 37 95 54q95 56 121 115
q14 34 14 85z" />
    <glyph glyph-name="three.sc" horiz-adv-x="1032" 
d="M762 798q0 152 -179 152q-85 0 -150 -44t-73 -128h-155q12 140 120 226q107 86 265 86t247 -73t89 -177t-52 -176q-52 -74 -145 -107v-8q72 -27 118 -83t46 -138q0 -172 -129 -262q-128 -90 -312 -90t-289 81q-105 82 -89 254h164q-12 -98 50 -147t170 -49t182 54t73 139
q1 85 -57 130t-148 45h-82l25 140h81q94 0 162 49q68 50 68 126z" />
    <glyph glyph-name="four.sc" horiz-adv-x="1032" 
d="M233 385h347l71 414zM20 319l5 41l704 705h148l-117 -680h166l-25 -147h-166l-39 -238h-180l39 238h-547z" />
    <glyph glyph-name="five.sc" horiz-adv-x="1032" 
d="M262 279q0 -72 52 -114t142 -42t151 41q103 68 106 213q0 78 -50 121t-139 43q-129 0 -213 -107l-180 17l139 614h680l-24 -156h-525l-67 -295h6q78 74 225 74t237 -81t91 -214q0 -53 -14 -114q-37 -152 -155 -228t-274 -76t-261 72t-107 232h180z" />
    <glyph glyph-name="six.sc" horiz-adv-x="1032" 
d="M279 287q0 -78 48 -121t133 -43t147 41q103 68 106 213q0 78 -48 121q-47 43 -145 43q-98 -1 -170 -69t-71 -185zM778 795q0 61 -45 104t-145 43t-180 -88q-78 -88 -121 -303q39 63 115 100t163 37q147 0 237 -80t91 -215q0 -222 -168 -338q-117 -80 -266 -80
q-377 0 -381 369q0 78 12 164q47 303 184 442t332 140q150 0 246 -71t98 -224h-172z" />
    <glyph glyph-name="seven.sc" horiz-adv-x="1032" 
d="M164 0l635 901h-639l28 164h844l-16 -115l-664 -950h-188z" />
    <glyph glyph-name="eight.sc" horiz-adv-x="1032" 
d="M532 623q78 0 140 33q90 50 90 155q0 63 -47 101t-125 38t-139 -34q-88 -49 -91 -154q0 -63 47 -101t125 -38zM238 270q0 -74 56 -114t150 -41q94 0 166 39q103 56 103 165q-1 74 -57 119t-150 45t-166 -42q-102 -59 -102 -171zM57 236q0 122 71 206t183 115v8
q-115 61 -115 199t115 231q115 95 279 95t250 -72t86 -176t-54 -178t-143 -107v-8q70 -27 117 -85t47 -136q0 -168 -129 -260q-130 -92 -314 -92t-288 69q-104 70 -105 191z" />
    <glyph glyph-name="nine.sc" horiz-adv-x="1032" 
d="M496 524q97 0 170 66q72 66 72 163q-1 189 -185 189q-82 0 -144 -41q-106 -70 -106 -213q0 -78 48 -121t145 -43zM238 270q0 -61 45 -104t135 -43q229 0 311 389q-88 -135 -278 -135q-147 0 -238 80q-90 80 -90 215q0 223 171 338q120 80 288 80t258 -102t94 -269
q4 -84 -8 -162q-46 -303 -184 -442t-332 -140q-150 1 -246 71t-98 224h172z" />
    <glyph glyph-name="slashedzero.sc" horiz-adv-x="1032" 
d="M444 123q119 -1 201 107t117 302q14 84 14 157t-14 116l-424 -651q43 -31 106 -31zM254 372q0 -67 14 -112l424 651q-43 31 -106 31q-121 0 -202 -106t-114 -304q-16 -93 -16 -160zM424 -25q-176 -1 -262 105t-86 287q0 86 14 165q41 250 171 404t345 154q178 0 264 -106
t86 -288q0 -84 -14 -164q-43 -250 -173 -404t-345 -153z" />
    <glyph glyph-name="currency.sc" horiz-adv-x="1032" 
d="M311 508q0 -180 176 -180q86 0 156 72t70 166q0 180 -176 179q-86 -1 -156 -73t-70 -164zM164 483q0 139 102 254l-102 123l106 86l103 -123q94 53 195 53t180 -57l145 131l86 -98l-150 -129q31 -61 31 -133q0 -141 -102 -254l102 -123l-106 -86l-105 121
q-90 -51 -193 -51t-180 55l-145 -129l-86 98l150 129q-31 61 -31 133z" />
    <glyph glyph-name="dollar.sc" horiz-adv-x="1032" 
d="M452 115q104 0 175 44q70 44 69 136q0 59 -41 95t-123 61l-139 41q-229 68 -229 262q0 137 96 226t258 105l31 177h164l-31 -183q110 -23 178 -95t66 -189h-172q0 71 -56 113t-146 42q-88 0 -148 -43t-60 -129q0 -51 39 -82t125 -57l139 -41q238 -68 238 -270
q-1 -154 -107 -244t-286 -104l-33 -185h-164l33 189q-129 20 -204 100t-67 219h172q-5 -98 57 -143t166 -45z" />
    <glyph glyph-name="cent.sc" horiz-adv-x="1032" 
d="M115 467q0 213 144 350q110 104 271 121l27 152h164l-27 -160q104 -26 175 -96t73 -179h-180q-4 57 -51 99t-143 41q-96 0 -167 -67q-98 -94 -98 -253q0 -88 51 -142t146 -54q172 0 229 147h172q-31 -111 -124 -193t-224 -98l-29 -160h-164l31 164q-131 27 -204 115
q-72 88 -72 213z" />
    <glyph glyph-name="Euro.sc" horiz-adv-x="1032" 
d="M678 1090q164 0 251 -86t87 -226h-164q0 72 -49 118t-137 46t-163 -64t-118 -182h336l-41 -98h-324q-8 -47 -10 -66l-6 -57h307l-41 -98h-270q4 -254 205 -254q145 0 213 139h164q-106 -287 -394 -287q-176 0 -272 109t-96 285v8h-156l41 98h115q11 100 20 123h-110
l40 98h99q61 178 185 286t288 108z" />
    <glyph glyph-name="yen.sc" horiz-adv-x="1032" 
d="M147 369l17 98h244l-277 598h213l188 -442h9l336 442h204l-473 -598h236l-17 -98h-243l-17 -107h244l-16 -98h-244l-27 -164h-180l27 164h-256l16 98h254l18 107h-256z" />
    <glyph glyph-name="sterling.sc" horiz-adv-x="1032" 
d="M88 143q0 -61 80 -61t129 111q-53 37 -104 37t-78 -28q-27 -26 -27 -59zM276 754q0 158 98 246t246 90q148 0 224 -73t71 -206h-163q0 59 -37 99t-108 40t-113 -51t-43 -123q0 -72 24 -170h264l-16 -110h-221q6 -33 6 -66q0 -102 -55 -213q106 -82 141 -91t55 -9
q53 0 80 34t41 103h148q-30 -135 -92 -203t-185 -67q-49 0 -99 22t-79 46q-29 22 -74 63q-111 -131 -239 -131q-82 0 -130 41q-47 41 -47 119t65 130q66 54 146 54t146 -31q8 41 8 85t-12 114h-201l16 110h158q-23 90 -23 148z" />
    <glyph glyph-name="florin.sc" horiz-adv-x="1032" 
d="M180 -311q-121 0 -182 60t-47 185l8 66h156l-9 -57q-16 -123 82 -123q92 0 115 139l76 475h-199l8 115h209l45 270q43 270 303 271q121 0 183 -60t47 -186l-8 -66h-156l8 58q16 123 -82 122q-92 0 -114 -139l-45 -270h258l-9 -115h-268l-76 -475q-43 -270 -303 -270z" />
    <glyph glyph-name="zero.TOSF" 
d="M262 410q0 -129 66 -204t180 -75q154 0 266 130t111 329q0 129 -66 204t-180 74q-153 0 -265 -130t-112 -328zM74 393q0 271 170 451t411 180q199 0 309 -113t109 -305q0 -270 -170 -450t-411 -181q-198 1 -308 113t-110 305z" />
    <glyph glyph-name="one.TOSF" 
d="M254 565l-74 140l475 294h140l-146 -843h342l-24 -156h-885l24 156h363l102 600z" />
    <glyph glyph-name="two.TOSF" 
d="M868 732q0 56 -58 100t-179 45q-264 0 -328 -238h-164q37 195 174 290t325 95t300 -76q111 -76 111 -222t-117 -224q-84 -55 -223 -101q-20 -6 -29 -8l-148 -49q-225 -76 -245 -188h671l-24 -156h-893q35 202 145 316t281 167l156 49q79 24 123 44t83 60t39 96z" />
    <glyph glyph-name="three.TOSF" 
d="M424 -279q148 0 251 82t103 222q0 98 -73 155q-74 57 -189 58h-106l32 155h107q121 0 208 78t87 201q0 90 -62 143t-170 53q-110 0 -191 -63t-102 -191h-172q33 190 165 300t316 110t286 -91t102 -227t-78 -241q-78 -106 -184 -137v-9q92 -27 148 -105t56 -181
q0 -213 -154 -340t-386 -127q-233 0 -342 116t-76 334h172q-24 -135 40 -215t212 -80z" />
    <glyph glyph-name="four.TOSF" 
d="M195 156h440l92 544zM-41 0l25 131l827 868h147l-143 -843h201l-25 -156h-203l-67 -410h-180l67 410h-649z" />
    <glyph glyph-name="five.TOSF" 
d="M25 -33h180q1 -100 67 -173t189 -73t212 65q138 101 138 304q0 110 -70 178t-176 68q-152 0 -295 -139l-164 8l173 794h794l-24 -163h-631l-103 -439h9q110 95 284 95t283 -104t108 -282q0 -70 -16 -139q-43 -186 -190 -294q-147 -107 -337 -107t-311 103
q-120 103 -120 298z" />
    <glyph glyph-name="six.TOSF" 
d="M622 745q-122 0 -228 -100t-107 -268q1 -111 71 -179t174 -67q104 0 186 50q83 50 125 135t42 190t-70 172q-71 67 -193 67zM98 451q0 139 13 221q63 399 237 580t406 182q182 0 287 -94t98 -283h-181q6 113 -57 167t-164 54q-145 0 -260 -139t-172 -443q47 98 147 152
t228 53q176 0 285 -103t108 -282q0 -106 -31 -197q-55 -163 -196 -253t-328 -90q-188 0 -304 114q-116 115 -116 361z" />
    <glyph glyph-name="seven.TOSF" 
d="M115 -410l794 1246h-753l24 163h967l-25 -131l-811 -1278h-196z" />
    <glyph glyph-name="eight.TOSF" 
d="M934 1065q0 109 -64 165t-178 56t-202 -77t-89 -185q0 -108 64 -164q65 -56 179 -57q114 0 202 77t88 185zM238 344q0 -98 74 -156q74 -57 210 -57t241 82t105 221q0 98 -74 156q-74 57 -210 57t-241 -82t-105 -221zM510 -25q-221 -1 -337 95t-116 246q1 150 95 262
q94 113 241 151v8q-72 27 -118 102t-46 169q1 180 143 303t336 123t296 -94t102 -250q0 -114 -80 -218t-190 -135v-8q98 -27 155 -103t58 -184q0 -213 -159 -340t-380 -127z" />
    <glyph glyph-name="nine.TOSF" 
d="M270 494q0 -104 70 -172t190 -68t230 98q108 98 108 240t-69 209q-71 67 -175 67t-187 -50t-125 -135t-42 -189zM475 98q-176 0 -285 104t-108 281q0 106 31 197q55 162 196 253t328 91t303 -115t117 -360q0 -139 -13 -221q-63 -398 -237 -580t-406 -182q-181 0 -287 94
t-98 283h181q-6 -113 57 -167t164 -55q141 -1 255 133t171 422q-50 -86 -150 -132t-219 -46z" />
    <glyph glyph-name="slashedzero.TOSF" 
d="M885 590q0 82 -25 139l-495 -557q59 -41 143 -41q154 0 266 130t111 329zM262 410q0 -80 25 -142l495 557q-63 43 -143 43q-153 0 -265 -130t-112 -328zM74 393q0 271 170 451t411 180q199 0 309 -113t109 -305q0 -270 -170 -450t-411 -181q-198 1 -308 113t-110 305z
" />
    <glyph glyph-name="zero.PPF" horiz-adv-x="1179" 
d="M516 139q156 1 261 147t153 419q20 125 20 237q0 328 -237 328q-309 0 -406 -565q-20 -125 -20 -238q0 -328 229 -328zM98 459q0 123 21 246q55 333 211 531t407 198q201 0 301 -130t101 -354q0 -123 -21 -245q-55 -330 -214 -530t-412 -200q-202 -1 -298 129t-96 355z
" />
    <glyph glyph-name="one.PPF" horiz-adv-x="696" 
d="M193 1016l-74 139l418 254h139l-242 -1409h-180l201 1174z" />
    <glyph glyph-name="two.PPF" horiz-adv-x="1081" 
d="M893 1055q0 103 -56 163t-177 60q-239 0 -316 -287h-164q31 160 117 263q86 104 184 142t215 38q170 0 274 -90t103 -254q0 -260 -255 -426q-40 -27 -105 -66l-181 -106q-114 -68 -182 -134t-87 -106t-34 -96h721l-24 -156h-926q47 232 142 364t284 242l180 107
q150 88 218 163t69 179z" />
    <glyph glyph-name="three.PPF" horiz-adv-x="1105" 
d="M480 131q148 0 252 82q103 82 104 221q0 98 -74 156t-189 57h-106l33 156h106q121 0 208 78t87 184q0 105 -61 159t-171 54t-191 -64t-101 -190h-172q33 190 165 300t316 110t286 -92q101 -92 101 -226q0 -136 -78 -242t-184 -137v-8q92 -27 148 -105t57 -182
q0 -213 -154 -340t-387 -127t-342 116t-76 335h172q-23 -135 41 -215q62 -80 210 -80z" />
    <glyph glyph-name="four.PPF" horiz-adv-x="1114" 
d="M246 508h436l100 592zM16 352l25 131l827 926h148l-152 -901h201l-25 -156h-202l-60 -352h-180l59 352h-641z" />
    <glyph glyph-name="five.PPF" horiz-adv-x="1073" 
d="M33 377h180q0 -100 67 -173q66 -73 198 -73t229 99q96 99 96 270q0 110 -67 178t-171 67q-154 0 -270 -139l-164 8l172 795h762l-25 -164h-598l-102 -438h8q84 94 258 94t280 -103t105 -282q1 -246 -157 -393t-359 -147t-321 102q-120 104 -121 299z" />
    <glyph glyph-name="six.PPF" horiz-adv-x="1138" 
d="M639 745q-139 0 -241 -100t-103 -268q0 -111 71 -179q72 -68 196 -67q124 0 219 99t96 270q0 111 -67 178t-171 67zM106 451q0 139 13 221q63 399 233 580t402 182q182 0 283 -94t93 -283h-180q6 113 -53 167t-160 54q-141 0 -252 -133t-168 -424q51 86 147 133t216 47
q174 0 279 -103t106 -282q0 -246 -158 -393q-159 -147 -361 -147t-321 113q-119 114 -119 362z" />
    <glyph glyph-name="seven.PPF" horiz-adv-x="942" 
d="M33 0l794 1245h-671l24 164h885l-25 -131l-811 -1278h-196z" />
    <glyph glyph-name="eight.PPF" horiz-adv-x="1097" 
d="M610 803q114 0 203 77q88 77 88 185q0 109 -63 165t-178 56t-203 -77t-88 -185t63 -165q64 -56 178 -56zM205 344q0 -98 75 -156t210 -57q135 0 240 82t106 221q0 98 -75 156t-211 57q-136 0 -240 -82q-105 -82 -105 -221zM477 -25q-221 -1 -337 95t-115 246
q0 150 94 262q94 113 241 151v8q-72 27 -118 102t-45 169q0 180 142 303q143 123 337 123t296 -94t101 -250q0 -114 -80 -218t-190 -135v-8q98 -27 155 -103t58 -184q0 -213 -159 -340t-380 -127z" />
    <glyph glyph-name="nine.PPF" horiz-adv-x="1138" 
d="M332 909q0 -111 66 -178t188 -67q120 0 224 98q103 98 103 270q-1 110 -71 178t-195 68t-220 -99t-95 -270zM479 131q301 0 410 555q-51 -86 -147 -132t-214 -46q-174 0 -279 103t-106 282q0 246 158 393q158 148 361 148q204 0 322 -114t118 -362q0 -139 -12 -221
q-121 -762 -611 -762q-185 -1 -293 93t-100 284h180q-6 -113 53 -167t160 -54z" />
    <glyph glyph-name="slashedzero.PPF" horiz-adv-x="1179" 
d="M516 139q156 1 261 147t153 419q20 125 20 224t-18 165l-563 -904q53 -51 147 -51zM287 482q0 -98 16 -169l561 901q-57 55 -151 56q-309 0 -406 -565q-20 -125 -20 -223zM492 -25q-201 0 -297 129t-97 355q0 123 21 246q55 333 211 531t407 198q201 0 301 -130t101 -354
q0 -123 -21 -245q-56 -330 -214 -530t-412 -200z" />
    <glyph glyph-name="currency.PPF" horiz-adv-x="983" 
d="M721 729q0 180 -176 180q-86 -1 -156 -73t-70 -164q0 -180 176 -180q86 0 156 72t70 165zM172 647q0 139 102 254l-102 123l107 86l102 -123q94 53 195 53t180 -57l145 131l86 -98l-149 -129q31 -61 30 -133q0 -141 -102 -254l102 -123l-106 -86l-105 121
q-90 -52 -193 -52t-179 56l-146 -129l-86 98l150 129q-31 61 -31 133z" />
    <glyph glyph-name="dollar.PPF" horiz-adv-x="1073" 
d="M778 410q0 78 -47 126t-141 78l-172 58q-262 86 -262 327q0 174 115 291q116 117 307 140l36 217h181l-37 -224q137 -27 218 -121t73 -245h-181q0 115 -64 172t-180 57t-198 -66t-82 -196q0 -76 45 -119t152 -78l172 -57q254 -86 254 -336q0 -192 -128 -314t-333 -140
l-37 -226h-180l37 230q-160 25 -242 128t-68 281h181q-13 -133 57 -202t207 -69t227 79q90 78 90 209z" />
    <glyph glyph-name="cent.PPF" horiz-adv-x="1056" 
d="M98 606q0 226 128 410t356 215l32 203h181l-35 -207q129 -25 208 -114t81 -236h-181q-6 90 -64 147t-165 57q-150 0 -247 -128t-97 -330q1 -129 65 -204t181 -75q184 0 278 205h180q-43 -143 -146 -239t-261 -117l-35 -218h-180l35 222q-150 27 -232 137t-82 272z" />
    <glyph glyph-name="Euro.PPF" horiz-adv-x="1228" 
d="M868 1286q-129 0 -230 -94t-163 -266h385l-33 -115h-387q-27 -111 -32 -188h387l-33 -115h-361v-16q0 -174 70 -272t201 -97q190 0 295 180h172q-80 -172 -195 -250q-116 -78 -312 -78q-196 1 -308 145t-111 380v8h-172l33 115h143q4 61 35 188h-146l33 115h146
q82 233 235 370q154 138 354 138t302 -98q100 -98 110 -271h-172q-33 221 -246 221z" />
    <glyph glyph-name="yen.PPF" horiz-adv-x="1097" 
d="M139 508l25 115h309l2 2l-328 784h197l246 -606h8l451 606h196l-590 -782l-2 -4h322l-25 -115h-315l-27 -156h318l-25 -114h-313l-39 -238h-180l39 238h-318l25 114h313l27 156h-316z" />
    <glyph glyph-name="sterling.PPF" horiz-adv-x="1122" 
d="M41 164q0 -82 88 -82t156 143q-74 45 -126 45t-85 -30t-33 -76zM303 983q0 209 114 330t298 121t267 -96t67 -265h-172q14 85 -27 149t-140 64q-98 0 -162 -72t-65 -206q0 -74 25 -213h328l-17 -127h-293q6 -49 6 -103q0 -158 -67 -305q4 -2 29 -20q26 -18 30 -22t27 -19
t31 -19t26 -15t30 -15l36 -12q22 -8 55 -7q135 0 180 205h156q-39 -162 -115 -261t-229 -100q-57 0 -121 29q-64 28 -102 56q-39 28 -103 81q-123 -166 -289 -166q-90 1 -142 49t-52 121q0 109 73 175t187 65q72 0 156 -39q24 96 24 158t-12 164h-209l16 127h172
q-16 127 -16 188z" />
    <glyph glyph-name="florin.PPF" horiz-adv-x="991" 
d="M795 1434q301 0 245 -344l-8 -50h-164l9 50q33 197 -99 196q-123 0 -155 -188l-66 -369h320l-17 -131h-328l-114 -655q-29 -170 -122 -253t-230 -83q-301 0 -246 344l8 49h164l-8 -49q-33 -197 98 -197q123 0 156 189l114 655h-246l17 131h254l65 369q29 170 122 253
t231 83z" />
    <glyph glyph-name="zero.scppf" horiz-adv-x="1064" 
d="M461 123q119 -1 201 107t116 302q14 78 15 152q0 258 -191 258q-121 0 -202 -106t-113 -304q-14 -78 -15 -151q1 -258 189 -258zM88 373q0 351 184 561q137 156 355 156q180 0 265 -108t85 -294q0 -347 -186 -557q-137 -156 -355 -156q-178 0 -263 107t-85 291z" />
    <glyph glyph-name="one.scppf" horiz-adv-x="655" 
d="M123 721l-57 131l368 213h131l-180 -1065h-180l141 848z" />
    <glyph glyph-name="two.scppf" horiz-adv-x="950" 
d="M729 811q0 51 -45 91t-135 40q-203 0 -254 -197h-164q78 344 426 345q152 0 248 -76t96 -208q-1 -132 -81 -207q-96 -89 -210 -141q-6 -3 -12 -7l-147 -82q-123 -68 -168 -116t-62 -106h590l-25 -147h-794q35 178 118 282t242 193l148 82q115 65 158 100t57 69t14 85z
" />
    <glyph glyph-name="three.scppf" horiz-adv-x="950" 
d="M713 798q0 152 -179 152q-85 0 -150 -44t-73 -128h-155q12 140 118 226t264 86t248 -73t90 -177t-52 -176q-52 -74 -144 -107v-8q68 -19 116 -81t48 -140q0 -172 -129 -262t-313 -90t-288 81q-105 82 -89 254h163q-12 -98 50 -147t170 -49t182 54t74 139t-58 130t-147 45
h-82l24 140h82q94 0 162 49q68 50 68 126z" />
    </font>
</defs>
</svg>
