<?xml version="1.0" standalone="no"?>
<!DOCTYPE svg PUBLIC "-//W3C//DTD SVG 1.1//EN" "http://www.w3.org/Graphics/SVG/1.1/DTD/svg11.dtd" >
<svg xmlns="http://www.w3.org/2000/svg">
<metadata>
Created by FontPrep 20130207 at Wed Jan  3 23:35:56 2018
 By Daniel
(c) Copyright (c) 2010. All rights reserved. Fakt is a design by Thomas Thiemich, published by OurType. www.ourtype.com
</metadata>
<defs>
<font id="9d16f59e79986f7b9258a83f671e83cd" horiz-adv-x='1024' >
  <font-face 
    font-family="FaktPro-ThinItalic"
    font-weight="200"
    font-style="italic"
    font-stretch="normal"
    units-per-em="2048"
    panose-1="2 0 0 0 0 0 0 0 0 0"
    ascent="1532"
    descent="-516"
    x-height="999"
    cap-height="1409"
    bbox="-440 -639 2257 2073"
    underline-thickness="102"
    underline-position="-102"
    unicode-range="U+0020-FB04"
  />
<missing-glyph horiz-adv-x="1458" 
d="M475 377l258 264l258 -264l107 106l-260 267l260 266l-107 106l-258 -264l-258 264l-106 -106l258 -266l-258 -267zM0 0v1475h1458v-1475h-1458z" />
    <glyph glyph-name="f_b" unicode="fb" horiz-adv-x="1730" 
d="M817 406q0 -164 84 -266t229 -101q188 0 315 166q126 166 126 389q0 164 -87 265t-235 102q-186 0 -309 -165t-123 -390zM664 1442q-223 0 -267 -246l-35 -197h234l-6 -53h-236l-159 -946h-66l160 946h-213l6 53h215l35 199q49 301 336 301h323l-57 -330
q-31 -217 -70 -397h4q64 114 166 180t219 66q175 0 279 -117t104 -303q0 -258 -146 -437t-360 -179q-141 0 -234 82t-116 217h-2l-47 -281h-61l245 1442h-251z" />
    <glyph glyph-name="f_f_b" unicode="ffb" horiz-adv-x="2271" 
d="M1358 406q0 -164 84 -266t229 -101q188 0 315 166q126 166 125 389q0 164 -87 265t-234 102q-186 0 -309 -165t-123 -390zM1204 1442q-225 0 -268 -246l-33 -197h234l-9 -53h-235l-158 -946h-65l157 946h-473l-159 -946h-66l160 946h-213l6 53h215l35 199q49 301 336 301
h71l-6 -57h-69q-223 0 -267 -246l-35 -197h476l32 199q53 301 336 301h326l-57 -330q-31 -217 -70 -397h4q63 114 165 180t220 66q176 0 280 -117t103 -303q0 -258 -146 -437t-360 -179q-141 0 -234 82t-116 217h-2l-47 -281h-62l246 1442h-252z" />
    <glyph glyph-name="f_f_h" unicode="ffh" horiz-adv-x="2242" 
d="M668 1499h71l-6 -57h-69q-223 0 -267 -246l-35 -197h476l32 199q53 301 336 301h322l-58 -346q-59 -354 -69 -389h2q133 254 389 254q164 0 248 -100t49 -297l-107 -621h-65l106 616q31 174 -34 260q-66 85 -211 85q-146 0 -264 -119t-154 -336l-86 -506h-66l244 1442
h-248q-225 0 -268 -246l-33 -197h234l-9 -53h-235l-158 -946h-65l157 946h-473l-159 -946h-66l160 946h-213l6 53h215l35 199q49 301 336 301z" />
    <glyph glyph-name="f_f_j" unicode="ffj" horiz-adv-x="1542" 
d="M1430 1317l30 182h68l-31 -182h-67zM987 -393q80 0 125 40t62 136l194 1163h-475l-158 -946h-65l157 946h-473l-159 -946h-66l160 946h-213l6 53h215l35 199q49 301 336 301h71l-6 -57h-69q-223 0 -267 -246l-35 -197h476l32 199q53 301 336 301h74l-8 -57h-68
q-225 0 -268 -246l-33 -197h541l-209 -1226q-39 -223 -254 -224h-55l10 58h51z" />
    <glyph glyph-name="f_f_k" unicode="ffk" horiz-adv-x="2107" 
d="M668 1499h71l-6 -57h-69q-223 0 -267 -246l-35 -197h476l32 199q53 301 336 301h322l-195 -1145l697 645h79l-452 -417l321 -582h-69l-299 537l-291 -267l-45 -270h-66l244 1442h-248q-225 0 -268 -246l-33 -197h234l-9 -53h-235l-158 -946h-65l157 946h-473l-159 -946
h-66l160 946h-213l6 53h215l35 199q49 301 336 301z" />
    <glyph glyph-name="f_f_t" unicode="fft" horiz-adv-x="1685" 
d="M668 1499h71l-6 -57h-69q-223 0 -267 -246l-35 -197h476l32 199q53 301 336 301h82l-8 -57h-76q-225 0 -268 -246l-33 -197h453l51 304h66l-52 -304h297l-6 -53h-299l-110 -667q-19 -117 15 -169t138 -53h115l-6 -57h-117q-138 0 -188 68t-27 206l113 672h-453l-158 -946
h-65l157 946h-473l-159 -946h-66l160 946h-213l6 53h215l35 199q49 301 336 301z" />
    <glyph glyph-name="f_h" unicode="fh" horiz-adv-x="1703" 
d="M668 1499h321l-57 -344q-56 -337 -70 -389h4q125 252 387 252q164 0 247 -100t50 -297l-106 -621h-66l105 616q59 344 -244 345q-145 0 -261 -115t-155 -334l-88 -512h-65l243 1442h-249q-223 0 -267 -246l-35 -197h234l-6 -53h-236l-159 -946h-66l160 946h-213l6 53h215
l35 199q49 301 336 301z" />
    <glyph glyph-name="f_j" unicode="fj" horiz-adv-x="1003" 
d="M889 1317l31 182h67l-29 -182h-69zM449 -393q79 0 123 40t61 136l194 1163h-473l-159 -946h-66l160 946h-213l6 53h215l35 199q49 301 336 301h71l-6 -57h-69q-223 0 -267 -246l-35 -197h541l-207 -1226q-39 -223 -254 -224h-55l8 58h54z" />
    <glyph glyph-name="f_k" unicode="fk" horiz-adv-x="1566" 
d="M668 1499h321l-194 -1145l694 645h82l-455 -417l324 -582h-70l-301 537l-289 -265l-45 -272h-65l243 1442h-249q-223 0 -267 -246l-35 -197h234l-6 -53h-236l-159 -946h-66l160 946h-213l6 53h215l35 199q49 301 336 301z" />
    <glyph glyph-name="f_t" unicode="ft" horiz-adv-x="1144" 
d="M668 1499h80l-9 -57h-75q-223 0 -267 -246l-35 -197h455l51 304h66l-51 -304h297l-6 -53h-302l-112 -667q-16 -117 18 -169t140 -53h114l-8 -57h-121q-256 0 -209 274l113 672h-453l-159 -946h-66l160 946h-213l6 53h215l35 199q49 301 336 301z" />
    <glyph glyph-name="fi" unicode="fi" horiz-adv-x="1003" 
d="M889 1317l31 182h67l-29 -182h-69zM666 1499h73l-6 -57h-69q-223 0 -267 -246l-35 -197h541l-168 -999h-65l157 946h-473l-159 -946h-66l160 946h-213l6 53h215l35 199q49 301 334 301z" />
    <glyph glyph-name="fl" unicode="fl" horiz-adv-x="1003" 
d="M668 1499h321l-254 -1499h-65l243 1442h-249q-223 0 -267 -246l-35 -197h234l-6 -53h-236l-159 -946h-66l160 946h-213l6 53h215l35 199q49 301 336 301z" />
    <glyph glyph-name="ff" unicode="ff" horiz-adv-x="1099" 
d="M668 1499h71l-6 -57h-69q-223 0 -267 -246l-35 -197h476l32 199q53 301 336 301h82l-8 -57h-76q-225 0 -268 -246l-33 -197h271l-9 -53h-272l-158 -946h-65l157 946h-473l-159 -946h-66l160 946h-213l6 53h215l35 199q49 301 336 301z" />
    <glyph glyph-name="ffi" unicode="ffi" horiz-adv-x="1542" 
d="M1430 1317l30 182h68l-31 -182h-67zM668 1499h71l-6 -57h-69q-223 0 -267 -246l-35 -197h476l32 199q53 301 336 301h74l-8 -57h-68q-225 0 -268 -246l-33 -197h541l-170 -999h-66l160 946h-475l-158 -946h-65l157 946h-473l-159 -946h-66l160 946h-213l6 53h215l35 199
q49 301 336 301z" />
    <glyph glyph-name="ffl" unicode="ffl" horiz-adv-x="1542" 
d="M668 1499h71l-6 -57h-69q-223 0 -267 -246l-35 -197h476l32 199q53 301 336 301h322l-254 -1499h-66l244 1442h-248q-225 0 -268 -246l-33 -197h234l-9 -53h-235l-158 -946h-65l157 946h-473l-159 -946h-66l160 946h-213l6 53h215l35 199q49 301 336 301z" />
    <glyph glyph-name=".notdef" horiz-adv-x="1458" 
d="M475 377l258 264l258 -264l107 106l-260 267l260 266l-107 106l-258 -264l-258 264l-106 -106l258 -266l-258 -267zM0 0v1475h1458v-1475h-1458z" />
    <glyph glyph-name=".null" horiz-adv-x="0" 
 />
    <glyph glyph-name="nonmarkingreturn" horiz-adv-x="681" 
 />
    <glyph glyph-name="space" unicode=" " horiz-adv-x="425" 
 />
    <glyph glyph-name="exclam" unicode="!" horiz-adv-x="436" 
d="M90 0l31 186h72l-31 -186h-72zM166 375l104 688l60 346h71l-59 -346l-131 -688h-45z" />
    <glyph glyph-name="quotedbl" unicode="&#x22;" horiz-adv-x="755" 
d="M238 893l47 326l30 190h66l-33 -190l-67 -326h-43zM598 893l47 326l31 190h65l-32 -190l-68 -326h-43z" />
    <glyph glyph-name="numbersign" unicode="#" horiz-adv-x="1204" 
d="M467 987l-96 -551h413l97 551h-414zM158 987v53h254l65 369h64l-66 -369h414l65 369h62l-66 -369h244v-53h-252l-96 -551h248v-53h-258l-66 -383h-61l65 383h-414l-65 -383h-64l66 383h-238v53h248l96 551h-245z" />
    <glyph glyph-name="dollar" unicode="$" horiz-adv-x="1163" 
d="M504 37q182 0 306 97t124 269q0 99 -57 163t-183 104l-221 67q-121 37 -191 105t-69 196q0 166 127 274t328 115l37 220h65l-37 -222q166 -10 264 -105t90 -241h-63q4 133 -87 213t-261 80t-283 -89t-112 -241q0 -104 59 -159t172 -90l221 -70q268 -80 268 -313
q0 -193 -138 -308t-351 -120l-37 -228h-65l36 230q-182 10 -285 112t-85 275h63q-16 -158 83 -246q100 -88 282 -88z" />
    <glyph glyph-name="percent" unicode="%" horiz-adv-x="1519" 
d="M897 254q0 -100 44 -160t139 -59q95 0 169 84t99 223q10 57 10 107q0 221 -176 221q-104 0 -177 -84t-98 -224q-10 -57 -10 -108zM1075 -14q-123 0 -181 72t-58 196q0 51 10 108q27 156 118 256t215 100t181 -72q57 -73 57 -195q0 -224 -128 -365q-91 -100 -214 -100z
M281 -25l966 1459h53l-966 -1459h-53zM674 1153q0 221 -184 221q-96 0 -170 -84q-108 -122 -109 -337q0 -214 184 -214q96 0 170 84t99 224q10 57 10 106zM391 690q-123 0 -181 74t-58 194q0 224 128 365q91 100 214 100q123 1 181 -73t58 -195q0 -51 -10 -108
q-27 -157 -118 -257t-214 -100z" />
    <glyph glyph-name="ampersand" unicode="&#x26;" horiz-adv-x="1372" 
d="M732 1374q-126 0 -214 -78t-88 -195q0 -118 143 -298q275 112 337 178q85 87 84 183q-1 95 -68 153q-68 57 -194 57zM508 37q281 0 457 194l-420 506q-193 -80 -296 -169t-103 -228t98 -221t264 -82zM80 322q0 183 136 291q111 87 298 165q-145 182 -145 322t106 233
q106 94 260 94q154 1 238 -71t84 -185q0 -80 -49 -164q-25 -45 -111 -104q-86 -60 -154 -86t-137 -55l398 -483q123 164 170 426h59q-53 -287 -195 -469l195 -236h-76l-158 188q-188 -207 -491 -206q-200 0 -314 96t-114 244z" />
    <glyph glyph-name="quotesingle" unicode="'" horiz-adv-x="395" 
d="M238 893l47 326l30 190h66l-33 -190l-67 -326h-43z" />
    <glyph glyph-name="parenleft" unicode="(" horiz-adv-x="530" 
d="M127 287q0 -406 186 -754h-57q-190 349 -190 742t179 736q150 288 349 513h61q-182 -209 -334 -494q-87 -162 -141 -358t-53 -385z" />
    <glyph glyph-name="parenright" unicode=")" horiz-adv-x="530" 
d="M403 786q0 206 -56 404q-56 197 -132 334h59q193 -352 193 -743t-180 -734q-152 -290 -350 -514h-62q180 206 335 494q193 359 193 759z" />
    <glyph glyph-name="asterisk" unicode="*" horiz-adv-x="899" 
d="M629 1425l-64 -307l305 105l9 -49l-310 -84l146 -240l-47 -33l-127 250l-213 -250l-41 33l231 242l-278 82l24 51l271 -107l38 307h56z" />
    <glyph glyph-name="plus" unicode="+" horiz-adv-x="1163" 
d="M117 489l8 58h426l74 436h61l-74 -436h426l-8 -58h-428l-72 -432h-61l72 432h-424z" />
    <glyph glyph-name="comma" unicode="," horiz-adv-x="425" 
d="M82 0l35 215h80l-35 -209l-131 -325h-41l121 319h-29z" />
    <glyph glyph-name="hyphen" unicode="-" horiz-adv-x="811" 
d="M117 489l8 58h565l-8 -58h-565z" />
    <glyph glyph-name="period" unicode="." horiz-adv-x="425" 
d="M82 0l35 215h80l-37 -215h-78z" />
    <glyph glyph-name="slash" unicode="/" horiz-adv-x="825" 
d="M-25 -25l873 1459h61l-874 -1459h-60z" />
    <glyph glyph-name="zero" unicode="0" horiz-adv-x="1163" 
d="M498 41q199 0 336 182t184 482q20 115 20 237q0 202 -79 314t-236 112q-199 0 -336 -182t-184 -481q-20 -115 -21 -238q0 -201 79 -313t237 -113zM492 -18q-188 0 -282 129q-93 129 -93 354q0 123 18 240q49 319 207 521t387 201q191 0 283 -129t92 -354q0 -121 -19 -239
q-49 -319 -206 -522q-158 -201 -387 -201z" />
    <glyph glyph-name="one" unicode="1" horiz-adv-x="1163" 
d="M281 1047l-27 49l502 313h47l-230 -1352h400l-8 -57h-877l6 57h414l213 1262z" />
    <glyph glyph-name="two" unicode="2" horiz-adv-x="1163" 
d="M1040 1098q0 120 -88 196t-238 76t-271 -90q-120 -90 -156 -283h-62q27 156 110 256q83 99 180 137t214 37q162 0 268 -88q107 -88 107 -241t-83 -245l-51 -57q-41 -46 -155 -107t-125 -66l-174 -95q-184 -100 -263 -199t-118 -272h817l-8 -57h-889q45 227 139 347
t287 226l174 95q17 8 69 37t72 39t62 38q43 29 61 46q74 74 87 108q34 86 34 162z" />
    <glyph glyph-name="three" unicode="3" horiz-adv-x="1163" 
d="M496 39q190 0 324 101t134 282q0 123 -97 205t-257 82h-102l10 55h106q172 0 289 100t117 234t-84 202q-84 70 -230 70t-261 -85q-114 -85 -142 -251h-61q33 188 164 290t304 103q173 0 273 -85t100 -228q0 -142 -104 -248t-238 -127v-4q123 -25 202 -111t79 -200
q0 -207 -155 -325q-155 -117 -373 -117t-331 114q-114 114 -81 312h61q-27 -168 69 -268q94 -100 284 -101z" />
    <glyph glyph-name="four" unicode="4" horiz-adv-x="1163" 
d="M141 467h623l139 831zM57 410l6 47l873 958h53l-160 -948h232l-6 -57h-234l-69 -410h-66l68 410h-697z" />
    <glyph glyph-name="five" unicode="5" horiz-adv-x="1163" 
d="M496 -18q-182 0 -287 104q-104 104 -109 268h64q6 -133 91 -224t243 -91t267 77q110 77 159 188t49 218q0 146 -94 234t-232 88q-233 0 -395 -211l-66 4l174 772h754l-8 -59h-694l-146 -631h2q152 182 389 182q166 0 274 -100t107 -275q0 -109 -39 -209
q-61 -155 -191 -245t-312 -90z" />
    <glyph glyph-name="six" unicode="6" horiz-adv-x="1163" 
d="M209 356q0 -145 90 -231t243 -86q152 0 270 97t163 247q23 82 22 145q0 144 -87 230t-238 86q-197 0 -330 -144t-133 -344zM131 440q0 108 14 220t63 255q108 321 317 445q114 68 251 67q176 0 270 -98t82 -272h-65q8 145 -69 229t-212 84q-258 0 -398 -230
q-141 -230 -177 -532q-4 -20 -4 -49q51 147 178 245t301 97q174 0 277 -101t104 -268q0 -72 -21 -149q-45 -174 -184 -288q-140 -113 -326 -113t-294 112t-107 346z" />
    <glyph glyph-name="seven" unicode="7" horiz-adv-x="1163" 
d="M295 0l825 1350h-856l8 59h932l-8 -47l-829 -1362h-72z" />
    <glyph glyph-name="eight" unicode="8" horiz-adv-x="1163" 
d="M317 1026q0 -118 78 -190t240 -72q163 0 279 100t116 234t-84 204t-234 70t-273 -95q-122 -95 -122 -251zM141 326q-1 -127 99 -207t273 -80t313 104t141 275q-1 127 -99 209t-276 82q-178 -1 -314 -109q-137 -108 -137 -274zM76 325q0 157 120 271t281 141v4
q-102 23 -163 98q-60 75 -60 187q0 178 141 290t319 112t278 -86q102 -85 102 -227q0 -141 -100 -245t-238 -131v-4q122 -25 198 -109t76 -206q0 -197 -160 -318q-160 -120 -361 -120t-318 93q-115 93 -115 250z" />
    <glyph glyph-name="nine" unicode="9" horiz-adv-x="1163" 
d="M1012 1053q0 143 -89 230t-242 87t-271 -97t-162 -247q-23 -72 -23 -145q0 -143 87 -229t237 -87q197 1 330 145t133 343zM440 39q359 0 512 479q43 131 62 283q4 20 4 47q-49 -144 -177 -242t-302 -98t-278 101q-103 101 -103 268q0 72 20 149q45 174 184 288
q140 114 326 114t295 -114q109 -112 109 -348t-79 -472q-48 -143 -126 -261q-167 -251 -463 -251q-156 0 -248 98t-82 272h66q-10 -145 66 -229q78 -84 214 -84z" />
    <glyph glyph-name="colon" unicode=":" horiz-adv-x="425" 
d="M82 0l35 215h80l-37 -215h-78zM217 784l37 215h78l-35 -215h-80z" />
    <glyph glyph-name="semicolon" unicode=";" horiz-adv-x="425" 
d="M82 0l35 215h80l-35 -209l-131 -325h-41l121 319h-29zM217 784l37 215h78l-35 -215h-80z" />
    <glyph glyph-name="less" unicode="&#x3c;" horiz-adv-x="1163" 
d="M150 498l6 51v4l917 373l-6 -64l-850 -340l733 -336l-8 -61z" />
    <glyph glyph-name="equal" unicode="=" horiz-adv-x="1163" 
d="M84 276l8 58h914l-9 -58h-913zM156 709l8 55h913l-8 -55h-913z" />
    <glyph glyph-name="greater" unicode="&#x3e;" horiz-adv-x="1163" 
d="M207 862l12 62l793 -373l-8 -53l-920 -373l8 61l850 338z" />
    <glyph glyph-name="question" unicode="?" horiz-adv-x="923" 
d="M346 0l29 186h71l-28 -186h-72zM879 1136q0 96 -79 166t-198 68q-156 0 -258 -91t-129 -267h-61q24 196 146 306t306 109q143 0 241 -81q97 -82 97 -213q0 -84 -31 -152t-79 -110t-104 -88q-58 -46 -109 -86t-93 -102t-53 -136l-10 -58h-66l11 58q16 98 70 174t120 125
t129 97q150 115 150 281z" />
    <glyph glyph-name="at" unicode="@" horiz-adv-x="2113" 
d="M881 37q161 0 277 101t151 302l24 135q-33 -39 -139 -53l-256 -33q-283 -33 -283 -256q0 -86 61 -141t165 -55zM1339 199q0 -168 196 -168q93 1 179 67t135 168q101 210 101 420q0 324 -217 508t-547 184q-203 0 -389 -79q-187 -79 -327 -217t-224 -340t-84 -433
q0 -325 198 -525t531 -200q332 0 569 217h72q-256 -268 -662 -268q-342 0 -556 214t-214 547t152 593t402 401t542 142q350 0 582 -200t233 -540q0 -237 -120 -463q-58 -109 -157 -177t-212 -68t-180 52t-66 154v29q-66 -111 -171 -173t-235 -62t-204 70t-74 175
q0 268 338 310l256 32q150 18 162 93q28 145 -36 223t-198 78t-226 -70q-93 -70 -126 -205h-64q37 158 148 244q110 86 272 86t243 -93t50 -274l-68 -395q-4 -20 -4 -57z" />
    <glyph glyph-name="A" unicode="A" horiz-adv-x="1243" 
d="M760 1339h-2l-447 -811h619zM-47 0l776 1409h80l303 -1409h-70l-100 469h-663l-256 -469h-70z" />
    <glyph glyph-name="B" unicode="B" horiz-adv-x="1310" 
d="M874 1350h-468l-101 -578h483q172 0 279 101q106 101 107 255q0 102 -74 162t-226 60zM788 713h-493l-111 -654h486q198 0 320 110t122 280q0 115 -84 189t-240 75zM883 1409q180 0 269 -72q89 -71 89 -207t-90 -246t-244 -139v-2q129 -20 201 -99t72 -189
q0 -197 -144 -326t-374 -129h-553l239 1409h535z" />
    <glyph glyph-name="C" unicode="C" horiz-adv-x="1435" 
d="M125 557q0 354 217 612t547 258q229 -1 366 -119t156 -319h-65q-27 179 -145 279q-119 100 -317 100t-358 -115t-246 -298t-85 -401q0 -218 131 -366t356 -147q383 0 575 379h68q-92 -207 -256 -323q-165 -115 -407 -115t-390 162q-147 163 -147 413z" />
    <glyph glyph-name="D" unicode="D" horiz-adv-x="1394" 
d="M680 1350h-279l-217 -1291h273q373 0 587 213t216 557q0 233 -146 377t-434 144zM684 1409q315 0 480 -160t165 -420q-1 -371 -237 -600t-639 -229h-344l237 1409h338z" />
    <glyph glyph-name="E" unicode="E" horiz-adv-x="1218" 
d="M109 0l237 1409h905l-8 -59h-842l-100 -600h684l-8 -60h-686l-107 -631h854l-8 -59h-921z" />
    <glyph glyph-name="F" unicode="F" horiz-adv-x="1144" 
d="M109 0l237 1409h893l-8 -59h-830l-106 -631h674l-6 -60h-678l-111 -659h-65z" />
    <glyph glyph-name="G" unicode="G" horiz-adv-x="1521" 
d="M684 -18q-252 0 -406 164t-153 415q0 369 226 618t556 248q238 1 375 -119t143 -307h-65q-10 159 -129 263t-330 104q-297 0 -503 -232t-205 -569q0 -227 138 -377t360 -150t391 131q169 130 212 384l19 111h-518l6 57h585l-122 -723h-50l43 291h-4q-180 -309 -569 -309z
" />
    <glyph glyph-name="H" unicode="H" horiz-adv-x="1421" 
d="M109 0l237 1409h66l-113 -661h893l113 661h67l-237 -1409h-68l117 690h-893l-117 -690h-65z" />
    <glyph glyph-name="I" unicode="I" horiz-adv-x="462" 
d="M109 0l237 1409h66l-238 -1409h-65z" />
    <glyph glyph-name="J" unicode="J" horiz-adv-x="1054" 
d="M420 -18q-184 0 -273 97q-88 97 -51 304l17 84h65l-14 -84q-33 -174 38 -258t222 -84q303 0 364 348l173 1020h67l-172 -1020q-69 -407 -436 -407z" />
    <glyph glyph-name="K" unicode="K" horiz-adv-x="1304" 
d="M100 0l246 1409h66l-162 -932l1016 932h82l-662 -608l457 -801h-70l-434 758l-403 -371l-68 -387h-68z" />
    <glyph glyph-name="L" unicode="L" horiz-adv-x="1095" 
d="M109 0l237 1409h66l-228 -1350h772l-8 -59h-839z" />
    <glyph glyph-name="M" unicode="M" horiz-adv-x="1753" 
d="M109 0l237 1409h76l377 -1319l821 1319h84l-238 -1409h-67l219 1282h-4l-801 -1282h-57l-365 1282h-4l-213 -1282h-65z" />
    <glyph glyph-name="N" unicode="N" horiz-adv-x="1431" 
d="M109 0l237 1409h60l688 -1292h2l219 1292h67l-237 -1409h-62l-688 1292h-4l-217 -1292h-65z" />
    <glyph glyph-name="O" unicode="O" horiz-adv-x="1521" 
d="M201 559q0 -231 131 -375t354 -143q295 0 499 237t204 572q1 230 -135 374t-359 144q-295 0 -495 -236q-199 -237 -199 -573zM131 555q0 367 221 620t551 252q248 -1 401 -161t152 -412q0 -367 -225 -620t-555 -252q-246 0 -396 160t-149 413z" />
    <glyph glyph-name="P" unicode="P" horiz-adv-x="1245" 
d="M838 1350h-437l-125 -742h431q205 0 329 125t125 322q-1 131 -85 213t-238 82zM846 1409q182 0 283 -97t102 -253q-1 -227 -147 -369t-386 -141h-432l-92 -549h-65l237 1409h500z" />
    <glyph glyph-name="Q" unicode="Q" horiz-adv-x="1521" 
d="M201 563q0 -231 131 -377t354 -145q289 -1 493 235t203 570q0 230 -133 376t-354 146q-291 0 -493 -234q-201 -235 -201 -571zM131 563q0 361 224 613t548 251q247 -1 397 -163t150 -402t-93 -432q-93 -190 -255 -307l227 -287l-55 -45l-230 293q-172 -102 -368 -102
q-246 0 -396 162t-149 419z" />
    <glyph glyph-name="R" unicode="R" horiz-adv-x="1296" 
d="M854 1350h-453l-112 -668h454q193 0 314 113t121 292q0 121 -83 192t-241 71zM860 1409q188 0 288 -85t99 -232q0 -197 -128 -324t-335 -143l306 -625h-70l-305 625h-436l-105 -625h-65l237 1409h514z" />
    <glyph glyph-name="S" unicode="S" horiz-adv-x="1269" 
d="M570 39q214 0 342 92t128 256q0 121 -83 187t-201 95t-235 57q-119 28 -201 104t-82 208q0 172 139 281t373 109t354 -96q121 -95 90 -271h-64q25 149 -79 229t-304 80t-320 -89t-120 -234q0 -85 44 -143t116 -87t227 -65t242 -78q176 -82 176 -278t-148 -306t-396 -108
q-248 0 -372 102q-125 102 -90 295h64q-29 -168 79 -254q107 -86 321 -86z" />
    <glyph glyph-name="T" unicode="T" horiz-adv-x="1153" 
d="M154 1352l10 57h1120l-10 -57h-526l-228 -1352h-67l227 1352h-526z" />
    <glyph glyph-name="U" unicode="U" horiz-adv-x="1390" 
d="M603 43q212 0 358 130q145 130 186 378l147 858h68l-148 -858q-49 -285 -213 -427q-163 -142 -401 -142t-356 142t-68 427l148 858h67l-147 -858q-43 -250 52 -379t307 -129z" />
    <glyph glyph-name="V" unicode="V" horiz-adv-x="1206" 
d="M475 0l-299 1409h70l278 -1339h2l731 1339h70l-774 -1409h-78z" />
    <glyph glyph-name="W" unicode="W" horiz-adv-x="1812" 
d="M324 0l-144 1409h66l133 -1337h4l633 1337h82l176 -1337h4l588 1337h65l-620 -1409h-90l-179 1327h-2l-628 -1327h-88z" />
    <glyph glyph-name="X" unicode="X" horiz-adv-x="1157" 
d="M-57 0l626 721l-370 688h71l342 -641l557 641h74l-602 -690l389 -719h-72l-362 672l-582 -672h-71z" />
    <glyph glyph-name="Y" unicode="Y" horiz-adv-x="1165" 
d="M455 0l100 590l-373 819h70l348 -762h2l606 762h74l-657 -825l-103 -584h-67z" />
    <glyph glyph-name="Z" unicode="Z" horiz-adv-x="1144" 
d="M258 1352l10 57h942l-4 -43l-1122 -1309h889l-8 -57h-975l4 43l1120 1309h-856z" />
    <glyph glyph-name="bracketleft" unicode="[" horiz-adv-x="600" 
d="M96 -412h295l-8 -55h-356l342 1991h352l-6 -56h-295z" />
    <glyph glyph-name="backslash" unicode="\" horiz-adv-x="825" 
d="M600 -25l-377 1459h58l376 -1459h-57z" />
    <glyph glyph-name="bracketright" unicode="]" horiz-adv-x="600" 
d="M-115 -412h295l324 1880h-295l6 56h358l-342 -1991h-352z" />
    <glyph glyph-name="asciicircum" unicode="^" horiz-adv-x="1163" 
d="M172 721l522 688h66l282 -688h-65l-256 633l-477 -633h-72z" />
    <glyph glyph-name="underscore" unicode="_" horiz-adv-x="1024" 
d="M-117 -147h1024l-8 -54h-1024z" />
    <glyph glyph-name="grave" unicode="`" horiz-adv-x="1089" 
d="M631 1163l-191 336h72l166 -336h-47z" />
    <glyph glyph-name="a" unicode="a" horiz-adv-x="1034" 
d="M129 233q0 -86 59 -141t164 -55q162 0 280 104t152 305l23 134q-29 -47 -141 -60l-256 -31q-281 -35 -281 -256zM63 227q0 270 338 312l258 30q152 16 162 97q23 143 -43 220t-201 77t-224 -70t-120 -205h-61q31 160 138 245q108 85 272 85t248 -94t53 -285l-109 -639
h-61l43 248q-54 -123 -160 -195q-106 -71 -244 -71t-214 68q-75 68 -75 177z" />
    <glyph glyph-name="b" unicode="b" horiz-adv-x="1148" 
d="M236 406q0 -164 83 -266q84 -101 230 -101q188 0 314 166t126 389q0 164 -87 265t-234 102q-186 0 -309 -165t-123 -390zM672 1018q176 0 279 -117t104 -303q-1 -258 -147 -437t-359 -179q-141 0 -235 81q-93 82 -115 218h-2l-47 -281h-62l256 1499h66l-58 -330
q-31 -217 -69 -397h4q63 114 165 180t220 66z" />
    <glyph glyph-name="c" unicode="c" horiz-adv-x="1017" 
d="M84 401q0 80 14 150q43 205 176 336t330 131q146 0 246 -90t104 -246h-63q-6 127 -88 203t-207 76q-162 0 -277 -114t-153 -296q-16 -72 -16 -145q0 -166 86 -266t239 -101q115 0 210 76t144 202h66q-53 -155 -168 -245t-277 -90t-265 116q-101 117 -101 303z" />
    <glyph glyph-name="d" unicode="d" horiz-adv-x="1148" 
d="M150 406q0 -164 87 -266t234 -101q186 0 309 165t123 390q0 164 -84 265t-231 102q-186 0 -312 -166t-126 -389zM84 401q0 257 146 437t358 180q139 0 233 -83t115 -216h6l129 780h64l-254 -1499h-62l37 227h-4q-62 -115 -164 -181t-221 -64q-176 0 -280 116
q-103 117 -103 303z" />
    <glyph glyph-name="e" unicode="e" horiz-adv-x="1034" 
d="M584 961q-139 0 -258 -110t-158 -288h711q6 47 6 84q0 150 -81 232t-220 82zM84 403q0 309 194 485q142 130 332 130t283 -148q92 -148 45 -356h-780q-8 -47 -8 -108q0 -166 84 -267q86 -100 220 -100t231 69t146 195h66q-57 -153 -173 -237t-278 -84t-263 116
q-99 117 -99 305z" />
    <glyph glyph-name="f" unicode="f" horiz-adv-x="561" 
d="M668 1499h82l-7 -57h-79q-223 0 -267 -246l-35 -197h271l-8 -53h-271l-159 -946h-66l160 946h-213l6 53h215l35 199q49 301 336 301z" />
    <glyph glyph-name="g" unicode="g" horiz-adv-x="1148" 
d="M150 406q0 -164 87 -266t234 -101q186 0 309 165t123 390q0 164 -84 265t-231 102q-186 0 -312 -166t-126 -389zM397 -412q352 0 424 430l35 209h-2q-62 -115 -164 -181t-223 -64q-176 0 -280 116q-103 117 -103 303q0 257 146 437t358 180q139 0 233 -83t115 -216h6
l47 280h62l-166 -981q-45 -258 -168 -372t-317 -113q-194 0 -297 93q-101 93 -72 251h59q-24 -133 62 -211t245 -78z" />
    <glyph glyph-name="h" unicode="h" horiz-adv-x="1124" 
d="M672 1018q164 0 247 -100t50 -297l-107 -621h-65l104 616q59 344 -244 345q-147 0 -264 -117t-153 -332l-86 -512h-66l254 1499h66l-127 -729h4q129 248 387 248z" />
    <glyph glyph-name="i" unicode="i" horiz-adv-x="421" 
d="M88 0l170 999h66l-170 -999h-66zM309 1317l29 182h70l-31 -182h-68z" />
    <glyph glyph-name="j" unicode="j" horiz-adv-x="421" 
d="M-133 -393q80 0 125 40t59 136l207 1216h66l-209 -1226q-39 -223 -254 -224h-54l7 58h53zM309 1317l29 182h70l-31 -182h-68z" />
    <glyph glyph-name="k" unicode="k" horiz-adv-x="985" 
d="M88 0l254 1499h66l-195 -1145l694 645h82l-454 -417l323 -582h-70l-301 539l-288 -267l-45 -272h-66z" />
    <glyph glyph-name="l" unicode="l" horiz-adv-x="421" 
d="M88 0l254 1499h66l-254 -1499h-66z" />
    <glyph glyph-name="m" unicode="m" horiz-adv-x="1767" 
d="M655 1018q123 0 202 -67t87 -197q133 264 383 264q154 0 235 -102t46 -295l-107 -621h-65l106 616q30 174 -32 260t-198 85q-136 0 -248 -118t-149 -333l-86 -510h-65l104 616q29 174 -32 260q-60 86 -194 85q-134 0 -248 -117t-148 -316l-92 -528h-66l170 999h61
l-40 -231h4q129 250 372 250z" />
    <glyph glyph-name="n" unicode="n" horiz-adv-x="1124" 
d="M672 1018q164 0 247 -100t50 -297l-107 -621h-65l104 616q59 344 -244 345q-147 0 -265 -121t-152 -332l-86 -508h-66l170 999h64l-41 -229h4q129 248 387 248z" />
    <glyph glyph-name="o" unicode="o" horiz-adv-x="1089" 
d="M150 406q0 -164 88 -266t240 -101q152 0 275 119q122 119 156 301q14 59 15 135q0 164 -88 265t-241 101t-275 -118q-122 -119 -156 -301q-14 -59 -14 -135zM84 403q0 293 189 479q139 136 323 136t288 -118t105 -304q0 -292 -189 -478q-138 -136 -322 -136t-290 117
q-104 118 -104 304z" />
    <glyph glyph-name="p" unicode="p" horiz-adv-x="1148" 
d="M551 39q186 0 312 166t126 389q0 164 -86 265t-233 102q-186 0 -310 -165t-122 -390q0 -166 83 -266t230 -101zM672 1018q176 0 280 -117t105 -301q-1 -258 -147 -438t-359 -180q-141 0 -236 81q-94 82 -116 218h-2l-70 -445l-49 -287h-66l246 1450h61l-40 -237h2
q63 120 167 188t224 68z" />
    <glyph glyph-name="q" unicode="q" horiz-adv-x="1148" 
d="M471 39q186 0 309 165t123 390q0 164 -84 265t-231 102q-186 0 -312 -166t-126 -389q0 -164 87 -266t234 -101zM84 401q0 257 146 437t358 180q139 0 233 -83t115 -216h6l47 280h62l-246 -1450h-66l49 287q2 20 33 198t35 193h-2q-62 -115 -164 -181t-223 -64
q-176 0 -280 116q-103 117 -103 303z" />
    <glyph glyph-name="r" unicode="r" horiz-adv-x="684" 
d="M88 0l170 999h61l-34 -208h2q51 102 134 164q83 63 176 63t144 -39l-28 -55q-55 33 -125 32q-123 0 -217 -116t-125 -291l-92 -549h-66z" />
    <glyph glyph-name="s" unicode="s" horiz-adv-x="944" 
d="M400 35q154 0 246 60q91 59 91 163t-61 152q-62 48 -150 62t-176 32t-149 72t-62 155q1 133 105 210t275 77t266 -70t71 -209h-61q18 113 -59 169t-219 56t-228 -60t-86 -158t61 -140q62 -43 150 -58q88 -14 176 -32t149 -76t62 -164q0 -143 -110 -219q-110 -75 -293 -75
q-182 0 -284 74t-75 220h61q-22 -125 62 -183t238 -58z" />
    <glyph glyph-name="t" unicode="t" horiz-adv-x="612" 
d="M373 0q-135 0 -185 68q-49 68 -26 206l112 672h-215l9 53h215l51 304h65l-51 -304h299l-8 -53h-301l-111 -670q-18 -118 17 -168t139 -51h113l-7 -57h-116z" />
    <glyph glyph-name="u" unicode="u" horiz-adv-x="1107" 
d="M430 -18q-164 0 -247 100t-48 297l105 620h65l-104 -616q-59 -344 243 -344q145 0 261 117q115 117 153 346l86 497h66l-170 -999h-64l41 238h-4q-127 -256 -383 -256z" />
    <glyph glyph-name="v" unicode="v" horiz-adv-x="915" 
d="M330 0l-219 999h65l201 -927h4l518 927h66l-562 -999h-73z" />
    <glyph glyph-name="w" unicode="w" horiz-adv-x="1406" 
d="M250 0l-139 999h61l131 -929h2l440 929h76l119 -929h4l447 929h63l-483 -999h-80l-119 926h-4l-436 -926h-82z" />
    <glyph glyph-name="x" unicode="x" horiz-adv-x="864" 
d="M-53 0l444 502l-268 497h70l239 -450l399 450h70l-440 -501l266 -498h-68l-241 453l-400 -453h-71z" />
    <glyph glyph-name="y" unicode="y" horiz-adv-x="915" 
d="M-51 -399q98 0 163 56t130 171l90 164l-221 1007h65l201 -927h4l518 927h66l-674 -1196q-72 -129 -148 -193t-194 -65h-47l8 56h39z" />
    <glyph glyph-name="z" unicode="z" horiz-adv-x="845" 
d="M141 946l6 53h719l-6 -41l-778 -905h633l-8 -53h-717l4 37l782 909h-635z" />
    <glyph glyph-name="braceleft" unicode="{" horiz-adv-x="745" 
d="M772 1524h92l-6 -54h-88q-108 0 -176 -63t-86 -184l-72 -418q-20 -125 -78 -183t-174 -85v-5q102 -33 140 -92t16 -182l-74 -424q-41 -248 178 -248h88l-6 -53h-90q-138 0 -196 78t-35 223l74 424q20 123 -17 176t-160 78l4 47q127 23 188 74q60 51 81 172l71 418
q51 301 326 301z" />
    <glyph glyph-name="bar" unicode="|" horiz-adv-x="524" 
d="M55 -492l351 2048h61l-350 -2048h-62z" />
    <glyph glyph-name="braceright" unicode="}" horiz-adv-x="745" 
d="M307 1524q135 0 193 -78t37 -223l-70 -414q-19 -119 17 -172t159 -78l-6 -47q-125 -25 -185 -77t-81 -171l-74 -430q-51 -301 -328 -301h-94l8 53h88q222 0 265 248l73 430q19 125 77 182t173 86v5q-102 31 -139 91t-14 181l69 414q41 248 -178 247h-88l8 54h90z" />
    <glyph glyph-name="asciitilde" unicode="~" horiz-adv-x="1163" 
d="M780 399q-59 0 -117 30q-57 30 -97 67q-102 96 -195 96q-152 0 -185 -205h-57q20 127 86 195t160 67q59 1 117 -29t98 -67q103 -98 194 -96q152 0 185 202h57q-20 -129 -85 -195t-161 -65z" />
    <glyph glyph-name="exclamdown" unicode="&#xa1;" horiz-adv-x="436" 
d="M82 -63l131 688h45l-104 -688l-60 -347h-71zM231 813l31 186h72l-31 -186h-72z" />
    <glyph glyph-name="cent" unicode="&#xa2;" horiz-adv-x="1163" 
d="M160 600q0 264 147 442t379 189l35 205h65l-34 -207q141 -11 231 -101t92 -237h-61q-6 135 -89 210t-216 75q-179 0 -309 -122q-169 -158 -173 -450q-1 -160 95 -256t236 -96t249 75t154 203h61q-43 -147 -169 -237t-275 -96l-35 -222h-66l35 224q-154 14 -253 122
t-99 279z" />
    <glyph glyph-name="sterling" unicode="&#xa3;" horiz-adv-x="1163" 
d="M141 27q145 0 232 202q-101 88 -183 88t-131 -51q-49 -52 -49 -112t36 -94t95 -33zM334 1001q0 195 116 311t296 116t264 -99q84 -98 65 -256h-63q16 129 -51 214q-69 85 -219 85t-246 -98t-97 -266q0 -74 52 -254h391l-4 -47h-375q31 -119 31 -227t-56 -240q8 -6 54 -54
t63 -59q16 -12 66 -50t118 -38q167 0 238 195q16 44 31 102h57q-58 -245 -183 -321q-58 -33 -130 -33t-108 20l-54 30t-48 37q-30 25 -41 35t-45 44l-40 40q-104 -207 -279 -206q-84 0 -132 45t-48 127t66 146q67 65 165 65t203 -86q37 115 37 206t-35 222h-217l6 47h197
q-45 164 -45 247z" />
    <glyph glyph-name="currency" unicode="&#xa4;" horiz-adv-x="1163" 
d="M578 412q118 0 215 103q96 103 96 225q1 122 -63 186t-183 63q-119 0 -215 -103t-96 -224t63 -186q65 -64 183 -64zM666 1040q123 0 202 -79l146 120l30 -37l-145 -122q49 -76 49 -162q0 -160 -123 -283l101 -123l-41 -32l-101 120q-104 -82 -228 -82t-204 80l-143 -123
l-33 37l146 123q-49 68 -50 164q0 164 123 283l-98 123l41 32l96 -121q109 82 232 82z" />
    <glyph glyph-name="yen" unicode="&#xa5;" horiz-adv-x="1163" 
d="M201 559l6 45h348l-350 805h71l322 -750h4l586 750h72l-631 -805h350l-6 -45h-357l-36 -225h354l-8 -45h-355l-49 -289h-65l49 289h-350l6 45h352l37 225h-350z" />
    <glyph glyph-name="brokenbar" unicode="&#xa6;" horiz-adv-x="524" 
d="M84 -336l123 721h61l-123 -721h-61zM258 688l123 721h61l-123 -721h-61z" />
    <glyph glyph-name="section" unicode="&#xa7;" horiz-adv-x="1101" 
d="M180 459q0 -170 217 -240l131 -43q156 12 266 102t109 230q0 170 -217 240l-133 40q-153 -10 -263 -100t-110 -229zM115 453q0 143 99 239t251 129q-201 82 -201 251t125 265q125 97 299 97t284 -76t93 -228h-61q12 122 -80 186t-240 64t-251 -81t-103 -212
q0 -162 209 -229l178 -57q252 -82 252 -287q-1 -144 -99 -240t-252 -129q199 -82 199 -251t-124 -265t-297 -96q-174 -1 -284 75t-94 228h62q-12 -123 80 -186q92 -64 238 -64t251 81q104 81 105 212q0 162 -209 230l-178 57q-252 82 -252 287z" />
    <glyph glyph-name="dieresis" unicode="&#xa8;" horiz-adv-x="1089" 
d="M440 1243l31 176h66l-31 -176h-66zM834 1243l30 176h66l-31 -176h-65z" />
    <glyph glyph-name="copyright" unicode="&#xa9;" horiz-adv-x="1583" 
d="M1065 840q-43 182 -256 182q-111 0 -189 -90t-77 -219q0 -129 78 -219t188 -90q111 0 173 48q62 50 83 134h55q-23 -104 -101 -168q-79 -64 -212 -64t-227 104t-95 255q1 152 95 255t227 103t212 -63t101 -168h-55zM170 713q0 -287 183 -485t468 -198t468 198t183 484
t-182 475q-184 189 -470 189t-468 -188t-182 -475zM111 713q0 307 199 511q200 204 508 204t510 -206q202 -204 202 -510t-200 -518t-509 -212t-510 212q-200 212 -200 519z" />
    <glyph glyph-name="ordfeminine" unicode="&#xaa;" horiz-adv-x="835" 
d="M424 743q127 0 220 117t93 273q0 109 -58 172t-153 63q-129 0 -222 -113t-93 -282q1 -106 59 -168t154 -62zM394 692q-101 0 -174 76t-73 203q0 197 111 323t262 125q90 0 158 -50t88 -134h2l29 174h59l-121 -704h-57l27 161h-3q-49 -82 -128 -128t-180 -46z" />
    <glyph glyph-name="guillemotleft" unicode="&#xab;" horiz-adv-x="1009" 
d="M350 98l-233 420l375 416h57l-361 -422l218 -414h-56zM754 98l-232 420l373 416h57l-360 -422l219 -414h-57z" />
    <glyph glyph-name="logicalnot" unicode="&#xac;" horiz-adv-x="1163" 
d="M123 489l10 58h914l-86 -490h-62l76 432h-852z" />
    <glyph glyph-name="uni00AD" unicode="&#xad;" horiz-adv-x="811" 
d="M117 489l8 58h565l-8 -58h-565z" />
    <glyph glyph-name="registered" unicode="&#xae;" horiz-adv-x="1583" 
d="M877 1016h-259v-316h259q84 0 129 45t45 116t-45 113t-129 42zM561 360v705h318q111 0 170 -55q59 -54 59 -142t-50 -145t-138 -70l194 -293h-63l-191 291h-242v-291h-57zM170 713q0 -287 183 -485t468 -198t468 198t183 484t-182 475q-184 189 -470 189t-468 -188
t-182 -475zM111 713q0 307 199 511q200 204 508 204t510 -206q202 -204 202 -510t-200 -518t-509 -212t-510 212q-200 212 -200 519z" />
    <glyph glyph-name="macron" unicode="&#xaf;" horiz-adv-x="1089" 
d="M395 1303l8 51h566l-8 -51h-566z" />
    <glyph glyph-name="degree" unicode="&#xb0;" horiz-adv-x="714" 
d="M436 930q96 0 172 76q74 76 74 170t-50 147t-146 53t-172 -77q-75 -77 -74 -187q0 -78 50 -130t146 -52zM434 879q-118 1 -185 67t-67 162q0 133 93 226t212 93q119 -1 186 -67t66 -164q0 -133 -93 -225q-94 -92 -212 -92z" />
    <glyph glyph-name="plusminus" unicode="&#xb1;" horiz-adv-x="1163" 
d="M20 0l11 57h921l-8 -57h-924zM133 586l6 55h430l70 406h61l-69 -406h424l-8 -55h-424l-68 -400h-61l67 400h-428z" />
    <glyph glyph-name="acute" unicode="&#xb4;" horiz-adv-x="1089" 
d="M627 1163l280 336h78l-309 -336h-49z" />
    <glyph glyph-name="mu" unicode="&#xb5;" horiz-adv-x="1124" 
d="M444 -18q-221 0 -272 174q-4 -44 -35 -232t-37 -213l-26 -162h-66l250 1450h66l-107 -616q-29 -174 38 -259t209 -85t257 119t153 340l87 501h65l-170 -999h-63l43 244h-5q-129 -262 -387 -262z" />
    <glyph glyph-name="paragraph" unicode="&#xb6;" horiz-adv-x="1153" 
d="M201 920q0 217 153 353q154 136 394 136h47l-240 -1409h-66l101 588q-186 4 -288 94q-101 90 -101 238zM791 0l239 1409h66l-240 -1409h-65z" />
    <glyph glyph-name="periodcentered" unicode="&#xb7;" horiz-adv-x="425" 
d="M152 412l34 209h80l-35 -209h-79z" />
    <glyph glyph-name="cedilla" unicode="&#xb8;" horiz-adv-x="1089" 
d="M580 -242q0 -68 -58 -128q-58 -58 -172 -58h-98l10 45h92q86 0 129 45t43 95q0 106 -133 106h-37l82 137h33l-51 -96q78 -2 119 -40t41 -106z" />
    <glyph glyph-name="ordmasculine" unicode="&#xba;" horiz-adv-x="808" 
d="M432 745q131 0 227 114t97 282q0 107 -58 167t-159 60q-131 0 -229 -113t-97 -282q1 -106 59 -167t160 -61zM428 694q-127 0 -203 75t-75 204q0 193 118 319t275 127q127 -1 201 -75t75 -203q-1 -193 -117 -320t-274 -127z" />
    <glyph glyph-name="guillemotright" unicode="&#xbb;" horiz-adv-x="1009" 
d="M45 98l363 422l-220 414h56l233 -420l-373 -416h-59zM451 98l360 422l-219 414h57l232 -420l-373 -416h-57z" />
    <glyph glyph-name="onequarter" unicode="&#xbc;" horiz-adv-x="1519" 
d="M881 231h333l70 400zM293 -25l967 1459h53l-967 -1459h-53zM254 1210l-21 43l291 156h41l-112 -653h221l-4 -51h-520l4 51h239l99 577zM805 184l6 39l494 488h49l-82 -480h125l-6 -47h-127l-31 -184h-57l30 184h-401z" />
    <glyph glyph-name="onehalf" unicode="&#xbd;" horiz-adv-x="1519" 
d="M287 -25l966 1459h54l-967 -1459h-53zM254 1210l-21 43l291 156h41l-112 -653h221l-4 -51h-520l4 51h239l99 577zM1362 533q0 59 -49 97t-131 38q-199 0 -244 -201h-51q23 127 105 188q84 61 190 61t172 -49q66 -50 66 -122t-23 -100t-33 -41t-42 -30q-32 -18 -41 -24
t-51 -24t-48 -23l-86 -41q-92 -43 -142 -91t-69 -120h463l-7 -51h-530q25 122 88 188t178 119l84 39q127 57 164 93t37 94z" />
    <glyph glyph-name="threequarters" unicode="&#xbe;" horiz-adv-x="1519" 
d="M881 231h333l70 400zM289 -25l966 1459h54l-967 -1459h-53zM398 737q97 0 167 48t70 121t-53 109t-140 36h-61l4 45h61q92 0 157 43t65 108t-50 97t-122 32q-195 0 -215 -164h-56q10 102 86 156q75 54 181 55q106 0 171 -44q65 -43 65 -115t-47 -122q-46 -50 -124 -67v-2
q63 -16 100 -57t37 -98q0 -104 -87 -166t-211 -62t-198 53t-55 164h58q-16 -88 42 -129t155 -41zM805 184l6 39l494 488h49l-82 -480h125l-6 -47h-127l-31 -184h-57l30 184h-401z" />
    <glyph glyph-name="questiondown" unicode="&#xbf;" horiz-adv-x="923" 
d="M-31 -133q0 98 43 174q42 76 106 126t131 98q164 117 189 276l8 57h66l-8 -57q-16 -98 -70 -174t-121 -125q-66 -50 -129 -98q-149 -115 -149 -271q0 -106 78 -175t215 -69t240 91t130 268h60q-25 -196 -147 -306t-306 -110q-143 0 -239 82t-97 213zM465 813l29 186h73
l-30 -186h-72z" />
    <glyph glyph-name="Agrave" unicode="&#xc0;" horiz-adv-x="1243" 
d="M774 1573l-190 336h71l166 -336h-47zM760 1339h-2l-447 -811h619zM-47 0l776 1409h80l303 -1409h-70l-100 469h-663l-256 -469h-70z" />
    <glyph glyph-name="Aacute" unicode="&#xc1;" horiz-adv-x="1243" 
d="M770 1573l281 336h77l-309 -336h-49zM760 1339h-2l-447 -811h619zM-47 0l776 1409h80l303 -1409h-70l-100 469h-663l-256 -469h-70z" />
    <glyph glyph-name="Acircumflex" unicode="&#xc2;" horiz-adv-x="1243" 
d="M500 1573l323 336h62l202 -336h-63l-178 293l-279 -293h-67zM760 1339h-2l-447 -811h619zM-47 0l776 1409h80l303 -1409h-70l-100 469h-663l-256 -469h-70z" />
    <glyph glyph-name="Atilde" unicode="&#xc3;" horiz-adv-x="1243" 
d="M698 1823q54 -1 142 -59t127 -58q86 0 123 123h43q-17 -70 -61 -120t-105 -50t-147 58t-128 59q-84 0 -121 -123h-45q47 170 172 170zM760 1339h-2l-447 -811h619zM-47 0l776 1409h80l303 -1409h-70l-100 469h-663l-256 -469h-70z" />
    <glyph glyph-name="Adieresis" unicode="&#xc4;" horiz-adv-x="1243" 
d="M584 1653l30 176h66l-31 -176h-65zM977 1653l31 176h65l-31 -176h-65zM760 1339h-2l-447 -811h619zM-47 0l776 1409h80l303 -1409h-70l-100 469h-663l-256 -469h-70z" />
    <glyph glyph-name="Aring" unicode="&#xc5;" horiz-adv-x="1243" 
d="M690 1732q0 -64 33 -94t90 -30t106 48q48 48 48 110t-34 95q-33 31 -91 31t-105 -48t-47 -112zM1010 1768q0 -80 -62 -138t-137 -59q-74 0 -119 41q-45 40 -45 120q-1 80 61 138t136 59q74 0 120 -41q46 -40 46 -120zM760 1339h-2l-447 -811h619zM-47 0l776 1409h80
l303 -1409h-70l-100 469h-663l-256 -469h-70z" />
    <glyph glyph-name="AE" unicode="&#xc6;" horiz-adv-x="2101" 
d="M383 412h680l156 919zM-72 0l1282 1409h924l-6 -59h-838l-102 -600h678l-6 -60h-682l-107 -631h850l-8 -59h-920l60 352h-725l-320 -352h-80z" />
    <glyph glyph-name="Ccedilla" unicode="&#xc7;" horiz-adv-x="1435" 
d="M125 557q0 354 217 612t547 258q229 -1 366 -119t156 -319h-65q-27 179 -145 279q-119 100 -317 100t-358 -115t-246 -298t-85 -401q0 -218 131 -366t356 -147q383 0 575 379h68q-197 -436 -647 -438l-41 -78q78 -2 119 -40t41 -106q-1 -68 -59 -128q-58 -58 -171 -58
h-98l10 45h92q86 0 129 45t43 95q0 106 -133 106h-37l70 119q-240 10 -379 171t-139 404z" />
    <glyph glyph-name="Egrave" unicode="&#xc8;" horiz-adv-x="1218" 
d="M803 1573l-191 336h72l166 -336h-47zM109 0l237 1409h905l-8 -59h-842l-100 -600h684l-8 -60h-686l-107 -631h854l-8 -59h-921z" />
    <glyph glyph-name="Eacute" unicode="&#xc9;" horiz-adv-x="1218" 
d="M799 1573l280 336h78l-309 -336h-49zM109 0l237 1409h905l-8 -59h-842l-100 -600h684l-8 -60h-686l-107 -631h854l-8 -59h-921z" />
    <glyph glyph-name="Ecircumflex" unicode="&#xca;" horiz-adv-x="1218" 
d="M528 1573l324 336h61l203 -336h-63l-179 293l-278 -293h-68zM109 0l237 1409h905l-8 -59h-842l-100 -600h684l-8 -60h-686l-107 -631h854l-8 -59h-921z" />
    <glyph glyph-name="Edieresis" unicode="&#xcb;" horiz-adv-x="1218" 
d="M612 1653l31 176h66l-31 -176h-66zM1006 1653l30 176h66l-31 -176h-65zM109 0l237 1409h905l-8 -59h-842l-100 -600h684l-8 -60h-686l-107 -631h854l-8 -59h-921z" />
    <glyph glyph-name="Igrave" unicode="&#xcc;" horiz-adv-x="462" 
d="M385 1573l-190 336h71l166 -336h-47zM109 0l237 1409h66l-238 -1409h-65z" />
    <glyph glyph-name="Iacute" unicode="&#xcd;" horiz-adv-x="462" 
d="M381 1573l281 336h77l-309 -336h-49zM109 0l237 1409h66l-238 -1409h-65z" />
    <glyph glyph-name="Icircumflex" unicode="&#xce;" horiz-adv-x="462" 
d="M111 1573l323 336h62l202 -336h-63l-178 293l-279 -293h-67zM109 0l237 1409h66l-238 -1409h-65z" />
    <glyph glyph-name="Idieresis" unicode="&#xcf;" horiz-adv-x="462" 
d="M195 1653l30 176h66l-31 -176h-65zM588 1653l30 176h66l-31 -176h-65zM109 0l237 1409h66l-238 -1409h-65z" />
    <glyph glyph-name="Eth" unicode="&#xd0;" horiz-adv-x="1394" 
d="M680 1350h-279l-104 -617h340l-8 -55h-340l-105 -619h277q369 0 583 213t216 557q0 233 -146 377t-434 144zM684 1409q313 0 479 -159t166 -416q0 -373 -236 -604q-237 -230 -642 -230h-342l114 678h-190l8 55h190l115 676h338z" />
    <glyph glyph-name="Ntilde" unicode="&#xd1;" horiz-adv-x="1431" 
d="M797 1823q55 -1 142 -59t126 -58q86 0 123 123h43q-17 -70 -61 -120t-105 -50t-147 58t-127 59q-84 0 -121 -123h-45q47 170 172 170zM109 0l237 1409h60l688 -1292h2l219 1292h67l-237 -1409h-62l-688 1292h-4l-217 -1292h-65z" />
    <glyph glyph-name="Ograve" unicode="&#xd2;" horiz-adv-x="1521" 
d="M918 1573l-191 336h72l166 -336h-47zM201 559q0 -231 131 -375t354 -143q295 0 499 237t204 572q1 230 -135 374t-359 144q-295 0 -495 -236q-199 -237 -199 -573zM131 555q0 367 221 620t551 252q248 -1 401 -161t152 -412q0 -367 -225 -620t-555 -252q-246 0 -396 160
t-149 413z" />
    <glyph glyph-name="Oacute" unicode="&#xd3;" horiz-adv-x="1521" 
d="M913 1573l281 336h78l-309 -336h-50zM201 559q0 -231 131 -375t354 -143q295 0 499 237t204 572q1 230 -135 374t-359 144q-295 0 -495 -236q-199 -237 -199 -573zM131 555q0 367 221 620t551 252q248 -1 401 -161t152 -412q0 -367 -225 -620t-555 -252q-246 0 -396 160
t-149 413z" />
    <glyph glyph-name="Ocircumflex" unicode="&#xd4;" horiz-adv-x="1521" 
d="M643 1573l324 336h61l203 -336h-64l-178 293l-278 -293h-68zM201 559q0 -231 131 -375t354 -143q295 0 499 237t204 572q1 230 -135 374t-359 144q-295 0 -495 -236q-199 -237 -199 -573zM131 555q0 367 221 620t551 252q248 -1 401 -161t152 -412q0 -367 -225 -620
t-555 -252q-246 0 -396 160t-149 413z" />
    <glyph glyph-name="Otilde" unicode="&#xd5;" horiz-adv-x="1521" 
d="M842 1823q55 -1 142 -59t126 -58q86 0 123 123h43q-18 -70 -62 -120t-104 -50q-61 0 -147 58t-127 59q-84 0 -121 -123h-45q47 170 172 170zM201 559q0 -231 131 -375t354 -143q295 0 499 237t204 572q1 230 -135 374t-359 144q-295 0 -495 -236q-199 -237 -199 -573z
M131 555q0 367 221 620t551 252q248 -1 401 -161t152 -412q0 -367 -225 -620t-555 -252q-246 0 -396 160t-149 413z" />
    <glyph glyph-name="Odieresis" unicode="&#xd6;" horiz-adv-x="1521" 
d="M727 1653l31 176h65l-30 -176h-66zM1120 1653l31 176h66l-31 -176h-66zM201 559q0 -231 131 -375t354 -143q295 0 499 237t204 572q1 230 -135 374t-359 144q-295 0 -495 -236q-199 -237 -199 -573zM131 555q0 367 221 620t551 252q248 -1 401 -161t152 -412
q0 -367 -225 -620t-555 -252q-246 0 -396 160t-149 413z" />
    <glyph glyph-name="multiply" unicode="&#xd7;" horiz-adv-x="1163" 
d="M164 127l-37 43l414 356l-289 355l45 39l289 -355l415 359l37 -43l-415 -359l290 -356l-45 -39l-290 356z" />
    <glyph glyph-name="Oslash" unicode="&#xd8;" horiz-adv-x="1521" 
d="M1384 850q0 188 -96 326l-971 -979q133 -156 365 -156q294 1 498 237t204 572zM197 559q0 -190 92 -328l973 979q-137 158 -371 158q-295 0 -495 -236q-199 -237 -199 -573zM129 555q0 367 221 620t549 252q254 0 408 -170l176 177h63l-211 -211q117 -152 117 -369
q0 -367 -224 -620t-556 -252q-252 0 -402 168l-172 -175h-63l207 209q-113 152 -113 371z" />
    <glyph glyph-name="Ugrave" unicode="&#xd9;" horiz-adv-x="1390" 
d="M848 1573l-191 336h72l166 -336h-47zM603 43q212 0 358 130q145 130 186 378l147 858h68l-148 -858q-49 -285 -213 -427q-163 -142 -401 -142t-356 142t-68 427l148 858h67l-147 -858q-43 -250 52 -379t307 -129z" />
    <glyph glyph-name="Uacute" unicode="&#xda;" horiz-adv-x="1390" 
d="M844 1573l280 336h78l-309 -336h-49zM603 43q212 0 358 130q145 130 186 378l147 858h68l-148 -858q-49 -285 -213 -427q-163 -142 -401 -142t-356 142t-68 427l148 858h67l-147 -858q-43 -250 52 -379t307 -129z" />
    <glyph glyph-name="Ucircumflex" unicode="&#xdb;" horiz-adv-x="1390" 
d="M573 1573l324 336h61l203 -336h-63l-178 293l-279 -293h-68zM603 43q212 0 358 130q145 130 186 378l147 858h68l-148 -858q-49 -285 -213 -427q-163 -142 -401 -142t-356 142t-68 427l148 858h67l-147 -858q-43 -250 52 -379t307 -129z" />
    <glyph glyph-name="Udieresis" unicode="&#xdc;" horiz-adv-x="1390" 
d="M657 1653l31 176h66l-31 -176h-66zM1051 1653l30 176h66l-31 -176h-65zM603 43q212 0 358 130q145 130 186 378l147 858h68l-148 -858q-49 -285 -213 -427q-163 -142 -401 -142t-356 142t-68 427l148 858h67l-147 -858q-43 -250 52 -379t307 -129z" />
    <glyph glyph-name="Yacute" unicode="&#xdd;" horiz-adv-x="1165" 
d="M733 1573l281 336h78l-310 -336h-49zM455 0l100 590l-373 819h70l348 -762h2l606 762h74l-657 -825l-103 -584h-67z" />
    <glyph glyph-name="Thorn" unicode="&#xde;" horiz-adv-x="1245" 
d="M801 1104h-441l-124 -742h432q206 0 330 124t124 321q0 133 -84 215t-237 82zM805 1161q183 0 285 -96t102 -252q0 -227 -146 -369t-384 -141h-437l-51 -303h-65l237 1409h66l-43 -248h436z" />
    <glyph glyph-name="germandbls" unicode="&#xdf;" horiz-adv-x="1077" 
d="M725 1518q137 0 213 -65t76 -153t-32 -150t-77 -104t-89 -79q-109 -91 -108 -169q1 -77 98 -157q40 -33 81 -70q98 -88 98 -213q0 -94 -38 -167q-65 -125 -230 -172q-70 -19 -146 -19h-147l6 55h143q135 0 240 72q104 72 105 223q0 111 -96 195q-40 35 -81 67
q-96 76 -96 178q0 101 109 195q45 39 89 78q109 96 107 219q0 82 -58 131t-173 49q-311 0 -385 -420l-180 -1042h-66l180 1042q41 242 161 359t296 117z" />
    <glyph glyph-name="agrave" unicode="&#xe0;" horiz-adv-x="1034" 
d="M606 1163l-190 336h71l166 -336h-47zM129 233q0 -86 59 -141t164 -55q162 0 280 104t152 305l23 134q-29 -47 -141 -60l-256 -31q-281 -35 -281 -256zM63 227q0 270 338 312l258 30q152 16 162 97q23 143 -43 220t-201 77t-224 -70t-120 -205h-61q31 160 138 245
q108 85 272 85t248 -94t53 -285l-109 -639h-61l43 248q-54 -123 -160 -195q-106 -71 -244 -71t-214 68q-75 68 -75 177z" />
    <glyph glyph-name="aacute" unicode="&#xe1;" horiz-adv-x="1034" 
d="M586 1163l280 336h78l-309 -336h-49zM129 233q0 -86 59 -141t164 -55q162 0 280 104t152 305l23 134q-29 -47 -141 -60l-256 -31q-281 -35 -281 -256zM63 227q0 270 338 312l258 30q152 16 162 97q23 143 -43 220t-201 77t-224 -70t-120 -205h-61q31 160 138 245
q108 85 272 85t248 -94t53 -285l-109 -639h-61l43 248q-54 -123 -160 -195q-106 -71 -244 -71t-214 68q-75 68 -75 177z" />
    <glyph glyph-name="acircumflex" unicode="&#xe2;" horiz-adv-x="1034" 
d="M315 1163l324 336h61l203 -336h-63l-178 293l-279 -293h-68zM129 233q0 -86 59 -141t164 -55q162 0 280 104t152 305l23 134q-29 -47 -141 -60l-256 -31q-281 -35 -281 -256zM63 227q0 270 338 312l258 30q152 16 162 97q23 143 -43 220t-201 77t-224 -70t-120 -205h-61
q31 160 138 245q108 85 272 85t248 -94t53 -285l-109 -639h-61l43 248q-54 -123 -160 -195q-106 -71 -244 -71t-214 68q-75 68 -75 177z" />
    <glyph glyph-name="atilde" unicode="&#xe3;" horiz-adv-x="1034" 
d="M514 1413q55 0 142 -58t126 -59q86 0 123 123h43q-18 -70 -61 -120t-105 -50q-62 1 -147 59q-86 58 -127 58q-84 0 -121 -123h-45q47 170 172 170zM129 233q0 -86 59 -141t164 -55q162 0 280 104t152 305l23 134q-29 -47 -141 -60l-256 -31q-281 -35 -281 -256zM63 227
q0 270 338 312l258 30q152 16 162 97q23 143 -43 220t-201 77t-224 -70t-120 -205h-61q31 160 138 245q108 85 272 85t248 -94t53 -285l-109 -639h-61l43 248q-54 -123 -160 -195q-106 -71 -244 -71t-214 68q-75 68 -75 177z" />
    <glyph glyph-name="adieresis" unicode="&#xe4;" horiz-adv-x="1034" 
d="M399 1243l31 176h66l-31 -176h-66zM793 1243l30 176h66l-31 -176h-65zM129 233q0 -86 59 -141t164 -55q162 0 280 104t152 305l23 134q-29 -47 -141 -60l-256 -31q-281 -35 -281 -256zM63 227q0 270 338 312l258 30q152 16 162 97q23 143 -43 220t-201 77t-224 -70
t-120 -205h-61q31 160 138 245q108 85 272 85t248 -94t53 -285l-109 -639h-61l43 248q-54 -123 -160 -195q-106 -71 -244 -71t-214 68q-75 68 -75 177z" />
    <glyph glyph-name="aring" unicode="&#xe5;" horiz-adv-x="1034" 
d="M629 1198q57 0 105 48t48 110t-33 95q-33 32 -91 32t-105 -48q-47 -47 -47 -111t33 -95t90 -31zM825 1358q-1 -80 -63 -138t-136 -59q-74 0 -118 41t-45 121q0 80 61 138q62 59 136 59t120 -41t45 -121zM129 233q0 -86 59 -141t164 -55q162 0 280 104t152 305l23 134
q-29 -47 -141 -60l-256 -31q-281 -35 -281 -256zM63 227q0 270 338 312l258 30q152 16 162 97q23 143 -43 220t-201 77t-224 -70t-120 -205h-61q31 160 138 245q108 85 272 85t248 -94t53 -285l-109 -639h-61l43 248q-54 -123 -160 -195q-106 -71 -244 -71t-214 68
q-75 68 -75 177z" />
    <glyph glyph-name="ae" unicode="&#xe6;" horiz-adv-x="1734" 
d="M1288 961q-140 0 -258 -110t-156 -288h707q6 47 6 86q-2 150 -81 231q-78 81 -218 81zM352 37q158 0 277 101t153 298l25 142q-35 -41 -141 -56l-256 -33q-281 -35 -281 -256q-1 -86 59 -141t164 -55zM574 1018q146 0 228 -62q81 -62 89 -184q73 114 181 180t231 66
q201 0 291 -148t46 -356h-776q-8 -47 -8 -108q0 -168 83 -268t218 -99q275 0 375 264h65q-57 -153 -171 -237t-266 -84t-242 87q-92 87 -117 238q-131 -326 -457 -325q-131 0 -206 68t-75 177q0 268 338 310l258 32q150 18 162 97q25 143 -39 220t-196 77q-134 0 -226 -70
t-127 -205h-61q37 160 146 245q110 85 256 85z" />
    <glyph glyph-name="ccedilla" unicode="&#xe7;" horiz-adv-x="1017" 
d="M84 401q0 80 14 150q43 205 176 336t330 131q146 0 246 -90t104 -246h-63q-6 127 -88 203t-207 76q-162 0 -277 -114t-153 -296q-16 -72 -16 -145q0 -166 86 -266t239 -101q115 0 210 76t144 202h66q-53 -153 -168 -243t-262 -92l-41 -78q78 -2 119 -40t41 -106t-58 -128
q-58 -58 -172 -58h-98l10 45h92q86 0 129 45t43 95q0 106 -133 106h-37l72 121q-164 10 -256 125t-92 292z" />
    <glyph glyph-name="egrave" unicode="&#xe8;" horiz-adv-x="1034" 
d="M610 1163l-190 336h72l165 -336h-47zM584 961q-139 0 -258 -110t-158 -288h711q6 47 6 84q0 150 -81 232t-220 82zM84 403q0 309 194 485q142 130 332 130t283 -148q92 -148 45 -356h-780q-8 -47 -8 -108q0 -166 84 -267q86 -100 220 -100t231 69t146 195h66
q-57 -153 -173 -237t-278 -84t-263 116q-99 117 -99 305z" />
    <glyph glyph-name="eacute" unicode="&#xe9;" horiz-adv-x="1034" 
d="M606 1163l281 336h78l-310 -336h-49zM584 961q-139 0 -258 -110t-158 -288h711q6 47 6 84q0 150 -81 232t-220 82zM84 403q0 309 194 485q142 130 332 130t283 -148q92 -148 45 -356h-780q-8 -47 -8 -108q0 -166 84 -267q86 -100 220 -100t231 69t146 195h66
q-57 -153 -173 -237t-278 -84t-263 116q-99 117 -99 305z" />
    <glyph glyph-name="ecircumflex" unicode="&#xea;" horiz-adv-x="1034" 
d="M336 1163l323 336h62l203 -336h-64l-178 293l-279 -293h-67zM584 961q-139 0 -258 -110t-158 -288h711q6 47 6 84q0 150 -81 232t-220 82zM84 403q0 309 194 485q142 130 332 130t283 -148q92 -148 45 -356h-780q-8 -47 -8 -108q0 -166 84 -267q86 -100 220 -100t231 69
t146 195h66q-57 -153 -173 -237t-278 -84t-263 116q-99 117 -99 305z" />
    <glyph glyph-name="edieresis" unicode="&#xeb;" horiz-adv-x="1034" 
d="M420 1243l31 176h65l-31 -176h-65zM813 1243l31 176h65l-30 -176h-66zM584 961q-139 0 -258 -110t-158 -288h711q6 47 6 84q0 150 -81 232t-220 82zM84 403q0 309 194 485q142 130 332 130t283 -148q92 -148 45 -356h-780q-8 -47 -8 -108q0 -166 84 -267
q86 -100 220 -100t231 69t146 195h66q-57 -153 -173 -237t-278 -84t-263 116q-99 117 -99 305z" />
    <glyph glyph-name="igrave" unicode="&#xec;" horiz-adv-x="421" 
d="M297 1163l-191 336h72l166 -336h-47zM88 0l170 999h66l-170 -999h-66z" />
    <glyph glyph-name="iacute" unicode="&#xed;" horiz-adv-x="421" 
d="M293 1163l280 336h78l-309 -336h-49zM88 0l170 999h66l-170 -999h-66z" />
    <glyph glyph-name="icircumflex" unicode="&#xee;" horiz-adv-x="421" 
d="M23 1163l323 336h62l202 -336h-63l-178 293l-279 -293h-67zM88 0l170 999h66l-170 -999h-66z" />
    <glyph glyph-name="idieresis" unicode="&#xef;" horiz-adv-x="421" 
d="M106 1243l31 176h66l-31 -176h-66zM500 1243l30 176h66l-31 -176h-65zM88 0l170 999h66l-170 -999h-66z" />
    <glyph glyph-name="eth" unicode="&#xf0;" horiz-adv-x="1087" 
d="M129 371q0 -150 86 -241t231 -91q195 0 328 160t133 362q0 152 -86 243t-231 91q-144 0 -278 -111t-169 -295q-14 -67 -14 -118zM1008 807q0 -164 -45 -367q-45 -202 -187 -330t-326 -128q-182 0 -284 106t-103 279q0 260 164 423t369 162q125 0 218 -68t120 -179
q33 403 -186 598l-246 -162l-25 37l234 153q-113 86 -281 142l23 51q199 -66 311 -156l205 135l24 -37l-194 -129q209 -188 209 -530z" />
    <glyph glyph-name="ntilde" unicode="&#xf1;" horiz-adv-x="1124" 
d="M575 1413q55 0 143 -58t126 -59q86 0 123 123h43q-18 -70 -62 -120t-104 -50q-62 1 -148 59t-127 58q-84 0 -120 -123h-46q47 170 172 170zM672 1018q164 0 247 -100t50 -297l-107 -621h-65l104 616q59 344 -244 345q-147 0 -265 -121t-152 -332l-86 -508h-66l170 999h64
l-41 -229h4q129 248 387 248z" />
    <glyph glyph-name="ograve" unicode="&#xf2;" horiz-adv-x="1089" 
d="M625 1163l-191 336h72l166 -336h-47zM150 406q0 -164 88 -266t240 -101q152 0 275 119q122 119 156 301q14 59 15 135q0 164 -88 265t-241 101t-275 -118q-122 -119 -156 -301q-14 -59 -14 -135zM84 403q0 293 189 479q139 136 323 136t288 -118t105 -304
q0 -292 -189 -478q-138 -136 -322 -136t-290 117q-104 118 -104 304z" />
    <glyph glyph-name="oacute" unicode="&#xf3;" horiz-adv-x="1089" 
d="M621 1163l280 336h78l-309 -336h-49zM150 406q0 -164 88 -266t240 -101q152 0 275 119q122 119 156 301q14 59 15 135q0 164 -88 265t-241 101t-275 -118q-122 -119 -156 -301q-14 -59 -14 -135zM84 403q0 293 189 479q139 136 323 136t288 -118t105 -304
q0 -292 -189 -478q-138 -136 -322 -136t-290 117q-104 118 -104 304z" />
    <glyph glyph-name="ocircumflex" unicode="&#xf4;" horiz-adv-x="1089" 
d="M350 1163l324 336h61l203 -336h-64l-178 293l-278 -293h-68zM150 406q0 -164 88 -266t240 -101q152 0 275 119q122 119 156 301q14 59 15 135q0 164 -88 265t-241 101t-275 -118q-122 -119 -156 -301q-14 -59 -14 -135zM84 403q0 293 189 479q139 136 323 136t288 -118
t105 -304q0 -292 -189 -478q-138 -136 -322 -136t-290 117q-104 118 -104 304z" />
    <glyph glyph-name="otilde" unicode="&#xf5;" horiz-adv-x="1089" 
d="M549 1413q55 0 142 -58t126 -59q86 0 123 123h43q-18 -70 -61 -120q-42 -50 -104 -50q-62 1 -148 59t-127 58q-84 0 -121 -123h-45q47 170 172 170zM150 406q0 -164 88 -266t240 -101q152 0 275 119q122 119 156 301q14 59 15 135q0 164 -88 265t-241 101t-275 -118
q-122 -119 -156 -301q-14 -59 -14 -135zM84 403q0 293 189 479q139 136 323 136t288 -118t105 -304q0 -292 -189 -478q-138 -136 -322 -136t-290 117q-104 118 -104 304z" />
    <glyph glyph-name="odieresis" unicode="&#xf6;" horiz-adv-x="1089" 
d="M434 1243l31 176h65l-30 -176h-66zM827 1243l31 176h66l-31 -176h-66zM150 406q0 -164 88 -266t240 -101q152 0 275 119q122 119 156 301q14 59 15 135q0 164 -88 265t-241 101t-275 -118q-122 -119 -156 -301q-14 -59 -14 -135zM84 403q0 293 189 479q139 136 323 136
t288 -118t105 -304q0 -292 -189 -478q-138 -136 -322 -136t-290 117q-104 118 -104 304z" />
    <glyph glyph-name="divide" unicode="&#xf7;" horiz-adv-x="1163" 
d="M467 68l33 192h69l-32 -192h-70zM117 489l8 58h913l-8 -58h-913zM588 778l33 195h69l-33 -195h-69z" />
    <glyph glyph-name="oslash" unicode="&#xf8;" horiz-adv-x="1089" 
d="M924 594q0 131 -56 219l-641 -663q90 -111 246 -111t279 120t157 300q15 59 15 135zM150 406q0 -133 55 -226l641 668q-92 113 -247 113t-277 -120t-158 -300q-14 -59 -14 -135zM84 401q0 301 192 483q140 134 322 134t293 -123l125 129h55l-156 -162q74 -109 74 -262
q0 -300 -193 -483q-142 -135 -324 -135t-290 120l-121 -127h-53l152 158q-76 106 -76 268z" />
    <glyph glyph-name="ugrave" unicode="&#xf9;" horiz-adv-x="1107" 
d="M631 1163l-191 336h72l166 -336h-47zM430 -18q-164 0 -247 100t-48 297l105 620h65l-104 -616q-59 -344 243 -344q145 0 261 117q115 117 153 346l86 497h66l-170 -999h-64l41 238h-4q-127 -256 -383 -256z" />
    <glyph glyph-name="uacute" unicode="&#xfa;" horiz-adv-x="1107" 
d="M627 1163l280 336h78l-309 -336h-49zM430 -18q-164 0 -247 100t-48 297l105 620h65l-104 -616q-59 -344 243 -344q145 0 261 117q115 117 153 346l86 497h66l-170 -999h-64l41 238h-4q-127 -256 -383 -256z" />
    <glyph glyph-name="ucircumflex" unicode="&#xfb;" horiz-adv-x="1107" 
d="M356 1163l324 336h61l203 -336h-63l-179 293l-278 -293h-68zM430 -18q-164 0 -247 100t-48 297l105 620h65l-104 -616q-59 -344 243 -344q145 0 261 117q115 117 153 346l86 497h66l-170 -999h-64l41 238h-4q-127 -256 -383 -256z" />
    <glyph glyph-name="udieresis" unicode="&#xfc;" horiz-adv-x="1107" 
d="M440 1243l31 176h66l-31 -176h-66zM834 1243l30 176h66l-31 -176h-65zM430 -18q-164 0 -247 100t-48 297l105 620h65l-104 -616q-59 -344 243 -344q145 0 261 117q115 117 153 346l86 497h66l-170 -999h-64l41 238h-4q-127 -256 -383 -256z" />
    <glyph glyph-name="yacute" unicode="&#xfd;" horiz-adv-x="915" 
d="M539 1163l280 336h78l-309 -336h-49zM-51 -399q98 0 163 56t130 171l90 164l-221 1007h65l201 -927h4l518 927h66l-674 -1196q-72 -129 -148 -193t-194 -65h-47l8 56h39z" />
    <glyph glyph-name="thorn" unicode="&#xfe;" horiz-adv-x="1148" 
d="M236 406q0 -164 83 -266q84 -101 230 -101q186 0 312 166t126 389q0 164 -86 265t-233 102q-186 0 -309 -165t-123 -390zM672 1018q176 0 279 -117t104 -303q-1 -258 -147 -437t-359 -179q-141 0 -235 81q-93 82 -115 218h-2q0 -13 -78 -474l-43 -258h-66l334 1950h66
l-52 -309q-16 -64 -75 -418h4q63 114 165 180t220 66z" />
    <glyph glyph-name="ydieresis" unicode="&#xff;" horiz-adv-x="915" 
d="M352 1243l31 176h66l-31 -176h-66zM745 1243l31 176h66l-31 -176h-66zM-51 -399q98 0 163 56t130 171l90 164l-221 1007h65l201 -927h4l518 927h66l-674 -1196q-72 -129 -148 -193t-194 -65h-47l8 56h39z" />
    <glyph glyph-name="Amacron" unicode="&#x100;" horiz-adv-x="1243" 
d="M539 1712l8 51h565l-8 -51h-565zM760 1339h-2l-447 -811h619zM-47 0l776 1409h80l303 -1409h-70l-100 469h-663l-256 -469h-70z" />
    <glyph glyph-name="amacron" unicode="&#x101;" horiz-adv-x="1034" 
d="M354 1303l8 51h566l-8 -51h-566zM129 233q0 -86 59 -141t164 -55q162 0 280 104t152 305l23 134q-29 -47 -141 -60l-256 -31q-281 -35 -281 -256zM63 227q0 270 338 312l258 30q152 16 162 97q23 143 -43 220t-201 77t-224 -70t-120 -205h-61q31 160 138 245
q108 85 272 85t248 -94t53 -285l-109 -639h-61l43 248q-54 -123 -160 -195q-106 -71 -244 -71t-214 68q-75 68 -75 177z" />
    <glyph glyph-name="Abreve" unicode="&#x102;" horiz-adv-x="1243" 
d="M805 1620q-104 0 -167 61q-62 61 -56 193h45q-2 -209 180 -209q188 0 258 209h47q-39 -130 -121 -192t-186 -62zM760 1339h-2l-447 -811h619zM-47 0l776 1409h80l303 -1409h-70l-100 469h-663l-256 -469h-70z" />
    <glyph glyph-name="abreve" unicode="&#x103;" horiz-adv-x="1034" 
d="M621 1210q-105 0 -167 62t-57 192h45q-2 -209 181 -209q188 0 258 209h47q-39 -130 -121 -192t-186 -62zM129 233q0 -86 59 -141t164 -55q162 0 280 104t152 305l23 134q-29 -47 -141 -60l-256 -31q-281 -35 -281 -256zM63 227q0 270 338 312l258 30q152 16 162 97
q23 143 -43 220t-201 77t-224 -70t-120 -205h-61q31 160 138 245q108 85 272 85t248 -94t53 -285l-109 -639h-61l43 248q-54 -123 -160 -195q-106 -71 -244 -71t-214 68q-75 68 -75 177z" />
    <glyph glyph-name="Aogonek" unicode="&#x104;" horiz-adv-x="1243" 
d="M760 1339h-2l-447 -811h619zM1047 -428q-164 0 -164 129t186 299h-27l-100 469h-663l-256 -469h-70l776 1409h80l303 -1409q-174 -168 -174 -287q0 -94 123 -94h72l-9 -47h-77z" />
    <glyph glyph-name="aogonek" unicode="&#x105;" horiz-adv-x="1034" 
d="M129 233q0 -86 59 -141t164 -55q162 0 280 104t152 305l23 134q-29 -47 -141 -60l-256 -31q-281 -35 -281 -256zM711 -428q-164 0 -164 129t186 299h-20l43 248q-54 -123 -160 -195q-106 -71 -244 -71t-214 68q-75 68 -75 177q0 270 338 312l258 30q152 16 162 97
q23 143 -43 220t-201 77t-224 -70t-120 -205h-61q31 160 138 245q108 85 272 85t248 -94t53 -285l-109 -639h2q-174 -168 -174 -287q0 -94 123 -94h72l-9 -47h-77z" />
    <glyph glyph-name="Cacute" unicode="&#x106;" horiz-adv-x="1435" 
d="M903 1573l281 336h78l-310 -336h-49zM125 557q0 354 217 612t547 258q229 -1 366 -119t156 -319h-65q-27 179 -145 279q-119 100 -317 100t-358 -115t-246 -298t-85 -401q0 -218 131 -366t356 -147q383 0 575 379h68q-92 -207 -256 -323q-165 -115 -407 -115t-390 162
q-147 163 -147 413z" />
    <glyph glyph-name="cacute" unicode="&#x107;" horiz-adv-x="1017" 
d="M618 1163l281 336h78l-309 -336h-50zM84 401q0 80 14 150q43 205 176 336t330 131q146 0 246 -90t104 -246h-63q-6 127 -88 203t-207 76q-162 0 -277 -114t-153 -296q-16 -72 -16 -145q0 -166 86 -266t239 -101q115 0 210 76t144 202h66q-53 -155 -168 -245t-277 -90
t-265 116q-101 117 -101 303z" />
    <glyph glyph-name="Ccircumflex" unicode="&#x108;" horiz-adv-x="1435" 
d="M633 1573l323 336h62l203 -336h-64l-178 293l-279 -293h-67zM125 557q0 354 217 612t547 258q229 -1 366 -119t156 -319h-65q-27 179 -145 279q-119 100 -317 100t-358 -115t-246 -298t-85 -401q0 -218 131 -366t356 -147q383 0 575 379h68q-92 -207 -256 -323
q-165 -115 -407 -115t-390 162q-147 163 -147 413z" />
    <glyph glyph-name="ccircumflex" unicode="&#x109;" horiz-adv-x="1017" 
d="M348 1163l324 336h61l203 -336h-64l-178 293l-278 -293h-68zM84 401q0 80 14 150q43 205 176 336t330 131q146 0 246 -90t104 -246h-63q-6 127 -88 203t-207 76q-162 0 -277 -114t-153 -296q-16 -72 -16 -145q0 -166 86 -266t239 -101q115 0 210 76t144 202h66
q-53 -155 -168 -245t-277 -90t-265 116q-101 117 -101 303z" />
    <glyph glyph-name="Cdotaccent" unicode="&#x10a;" horiz-adv-x="1435" 
d="M909 1653l31 176h66l-31 -176h-66zM125 557q0 354 217 612t547 258q229 -1 366 -119t156 -319h-65q-27 179 -145 279q-119 100 -317 100t-358 -115t-246 -298t-85 -401q0 -218 131 -366t356 -147q383 0 575 379h68q-92 -207 -256 -323q-165 -115 -407 -115t-390 162
q-147 163 -147 413z" />
    <glyph glyph-name="cdotaccent" unicode="&#x10b;" horiz-adv-x="1017" 
d="M625 1243l30 176h66l-31 -176h-65zM84 401q0 80 14 150q43 205 176 336t330 131q146 0 246 -90t104 -246h-63q-6 127 -88 203t-207 76q-162 0 -277 -114t-153 -296q-16 -72 -16 -145q0 -166 86 -266t239 -101q115 0 210 76t144 202h66q-53 -155 -168 -245t-277 -90
t-265 116q-101 117 -101 303z" />
    <glyph glyph-name="Ccaron" unicode="&#x10c;" horiz-adv-x="1435" 
d="M899 1573l-205 336h64l178 -293l278 293h68l-324 -336h-59zM125 557q0 354 217 612t547 258q229 -1 366 -119t156 -319h-65q-27 179 -145 279q-119 100 -317 100t-358 -115t-246 -298t-85 -401q0 -218 131 -366t356 -147q383 0 575 379h68q-92 -207 -256 -323
q-165 -115 -407 -115t-390 162q-147 163 -147 413z" />
    <glyph glyph-name="ccaron" unicode="&#x10d;" horiz-adv-x="1017" 
d="M614 1163l-204 336h63l178 -293l279 293h67l-323 -336h-60zM84 401q0 80 14 150q43 205 176 336t330 131q146 0 246 -90t104 -246h-63q-6 127 -88 203t-207 76q-162 0 -277 -114t-153 -296q-16 -72 -16 -145q0 -166 86 -266t239 -101q115 0 210 76t144 202h66
q-53 -155 -168 -245t-277 -90t-265 116q-101 117 -101 303z" />
    <glyph glyph-name="Dcaron" unicode="&#x10e;" horiz-adv-x="1394" 
d="M782 1573l-204 336h63l178 -293l279 293h67l-323 -336h-60zM680 1350h-279l-217 -1291h273q373 0 587 213t216 557q0 233 -146 377t-434 144zM684 1409q315 0 480 -160t165 -420q-1 -371 -237 -600t-639 -229h-344l237 1409h338z" />
    <glyph glyph-name="dcaron" unicode="&#x10f;" horiz-adv-x="1148" 
d="M1241 1126l98 232h-24l24 141h68l-25 -137l-108 -236h-33zM150 406q0 -164 87 -266t234 -101q186 0 309 165t123 390q0 164 -84 265t-231 102q-186 0 -312 -166t-126 -389zM84 401q0 257 146 437t358 180q139 0 233 -83t115 -216h6l129 780h64l-254 -1499h-62l37 227h-4
q-62 -115 -164 -181t-221 -64q-176 0 -280 116q-103 117 -103 303z" />
    <glyph glyph-name="Dcroat" unicode="&#x110;" horiz-adv-x="1394" 
d="M680 1350h-279l-104 -617h340l-8 -55h-340l-105 -619h277q369 0 583 213t216 557q0 233 -146 377t-434 144zM684 1409q313 0 479 -159t166 -416q0 -373 -236 -604q-237 -230 -642 -230h-342l114 678h-190l8 55h190l115 676h338z" />
    <glyph glyph-name="dcroat" unicode="&#x111;" horiz-adv-x="1148" 
d="M150 406q0 -164 87 -266t234 -101q186 0 309 165t123 390q0 164 -84 265t-231 102q-186 0 -312 -166t-126 -389zM84 401q0 257 146 437t358 180q139 0 233 -83t115 -216h6l86 534h-356l8 47h356l35 199h64l-35 -199h180l-6 -47h-182l-211 -1253h-62l37 227h-4
q-62 -115 -164 -181t-221 -64q-176 0 -280 116q-103 117 -103 303z" />
    <glyph glyph-name="Emacron" unicode="&#x112;" horiz-adv-x="1218" 
d="M567 1712l8 51h566l-8 -51h-566zM109 0l237 1409h905l-8 -59h-842l-100 -600h684l-8 -60h-686l-107 -631h854l-8 -59h-921z" />
    <glyph glyph-name="emacron" unicode="&#x113;" horiz-adv-x="1034" 
d="M375 1303l8 51h565l-8 -51h-565zM584 961q-139 0 -258 -110t-158 -288h711q6 47 6 84q0 150 -81 232t-220 82zM84 403q0 309 194 485q142 130 332 130t283 -148q92 -148 45 -356h-780q-8 -47 -8 -108q0 -166 84 -267q86 -100 220 -100t231 69t146 195h66
q-57 -153 -173 -237t-278 -84t-263 116q-99 117 -99 305z" />
    <glyph glyph-name="Ebreve" unicode="&#x114;" horiz-adv-x="1218" 
d="M834 1620q-104 0 -167 61q-62 61 -57 193h45q-2 -209 181 -209q188 0 258 209h47q-39 -130 -121 -192t-186 -62zM109 0l237 1409h905l-8 -59h-842l-100 -600h684l-8 -60h-686l-107 -631h854l-8 -59h-921z" />
    <glyph glyph-name="ebreve" unicode="&#x115;" horiz-adv-x="1034" 
d="M641 1210q-105 0 -167 62t-56 192h45q-2 -209 180 -209q188 0 258 209h47q-39 -130 -121 -192t-186 -62zM584 961q-139 0 -258 -110t-158 -288h711q6 47 6 84q0 150 -81 232t-220 82zM84 403q0 309 194 485q142 130 332 130t283 -148q92 -148 45 -356h-780
q-8 -47 -8 -108q0 -166 84 -267q86 -100 220 -100t231 69t146 195h66q-57 -153 -173 -237t-278 -84t-263 116q-99 117 -99 305z" />
    <glyph glyph-name="Edotaccent" unicode="&#x116;" horiz-adv-x="1218" 
d="M805 1653l31 176h65l-31 -176h-65zM109 0l237 1409h905l-8 -59h-842l-100 -600h684l-8 -60h-686l-107 -631h854l-8 -59h-921z" />
    <glyph glyph-name="edotaccent" unicode="&#x117;" horiz-adv-x="1034" 
d="M612 1243l31 176h66l-31 -176h-66zM584 961q-139 0 -258 -110t-158 -288h711q6 47 6 84q0 150 -81 232t-220 82zM84 403q0 309 194 485q142 130 332 130t283 -148q92 -148 45 -356h-780q-8 -47 -8 -108q0 -166 84 -267q86 -100 220 -100t231 69t146 195h66
q-57 -153 -173 -237t-278 -84t-263 116q-99 117 -99 305z" />
    <glyph glyph-name="Eogonek" unicode="&#x118;" horiz-adv-x="1218" 
d="M856 -287q0 -94 123 -94h72l-9 -47h-77q-164 0 -164 129t186 299h-878l237 1409h905l-8 -59h-842l-100 -600h684l-8 -60h-686l-107 -631h854l-8 -59q-174 -168 -174 -287z" />
    <glyph glyph-name="eogonek" unicode="&#x119;" horiz-adv-x="1034" 
d="M584 961q-139 0 -258 -110t-158 -288h711q6 47 6 84q0 150 -81 232t-220 82zM84 403q0 309 194 485q142 130 332 130t283 -148q92 -148 45 -356h-780q-8 -47 -8 -108q0 -166 84 -267q86 -100 220 -100t231 69t146 195h66q-59 -162 -197 -254q-307 -205 -307 -338
q0 -92 125 -92h72l-6 -47h-80q-166 0 -166 128t229 294q-53 -12 -110 -12q-174 0 -274 116q-99 117 -99 305z" />
    <glyph glyph-name="Ecaron" unicode="&#x11a;" horiz-adv-x="1218" 
d="M795 1573l-205 336h63l178 -293l279 293h68l-324 -336h-59zM109 0l237 1409h905l-8 -59h-842l-100 -600h684l-8 -60h-686l-107 -631h854l-8 -59h-921z" />
    <glyph glyph-name="ecaron" unicode="&#x11b;" horiz-adv-x="1034" 
d="M602 1163l-205 336h64l178 -293l279 293h67l-323 -336h-60zM584 961q-139 0 -258 -110t-158 -288h711q6 47 6 84q0 150 -81 232t-220 82zM84 403q0 309 194 485q142 130 332 130t283 -148q92 -148 45 -356h-780q-8 -47 -8 -108q0 -166 84 -267q86 -100 220 -100t231 69
t146 195h66q-57 -153 -173 -237t-278 -84t-263 116q-99 117 -99 305z" />
    <glyph glyph-name="Gcircumflex" unicode="&#x11c;" horiz-adv-x="1521" 
d="M651 1573l324 336h61l203 -336h-63l-179 293l-278 -293h-68zM684 -18q-252 0 -406 164t-153 415q0 369 226 618t556 248q238 1 375 -119t143 -307h-65q-10 159 -129 263t-330 104q-297 0 -503 -232t-205 -569q0 -227 138 -377t360 -150t391 131q169 130 212 384l19 111
h-518l6 57h585l-122 -723h-50l43 291h-4q-180 -309 -569 -309z" />
    <glyph glyph-name="gcircumflex" unicode="&#x11d;" horiz-adv-x="1148" 
d="M328 1163l323 336h62l202 -336h-63l-178 293l-279 -293h-67zM150 406q0 -164 87 -266t234 -101q186 0 309 165t123 390q0 164 -84 265t-231 102q-186 0 -312 -166t-126 -389zM397 -412q352 0 424 430l35 209h-2q-62 -115 -164 -181t-223 -64q-176 0 -280 116
q-103 117 -103 303q0 257 146 437t358 180q139 0 233 -83t115 -216h6l47 280h62l-166 -981q-45 -258 -168 -372t-317 -113q-194 0 -297 93q-101 93 -72 251h59q-24 -133 62 -211t245 -78z" />
    <glyph glyph-name="Gbreve" unicode="&#x11e;" horiz-adv-x="1521" 
d="M956 1620q-104 0 -166 61t-57 193h45q-2 -209 180 -209q188 0 259 209h47q-39 -131 -121 -193q-83 -61 -187 -61zM684 -18q-252 0 -406 164t-153 415q0 369 226 618t556 248q238 1 375 -119t143 -307h-65q-10 159 -129 263t-330 104q-297 0 -503 -232t-205 -569
q0 -227 138 -377t360 -150t391 131q169 130 212 384l19 111h-518l6 57h585l-122 -723h-50l43 291h-4q-180 -309 -569 -309z" />
    <glyph glyph-name="gbreve" unicode="&#x11f;" horiz-adv-x="1148" 
d="M633 1210q-105 0 -167 62t-56 192h45q-2 -209 180 -209q188 0 258 209h47q-39 -130 -121 -192t-186 -62zM150 406q0 -164 87 -266t234 -101q186 0 309 165t123 390q0 164 -84 265t-231 102q-186 0 -312 -166t-126 -389zM397 -412q352 0 424 430l35 209h-2
q-62 -115 -164 -181t-223 -64q-176 0 -280 116q-103 117 -103 303q0 257 146 437t358 180q139 0 233 -83t115 -216h6l47 280h62l-166 -981q-45 -258 -168 -372t-317 -113q-194 0 -297 93q-101 93 -72 251h59q-24 -133 62 -211t245 -78z" />
    <glyph glyph-name="Gdotaccent" unicode="&#x120;" horiz-adv-x="1521" 
d="M928 1653l30 176h66l-31 -176h-65zM684 -18q-252 0 -406 164t-153 415q0 369 226 618t556 248q238 1 375 -119t143 -307h-65q-10 159 -129 263t-330 104q-297 0 -503 -232t-205 -569q0 -227 138 -377t360 -150t391 131q169 130 212 384l19 111h-518l6 57h585l-122 -723
h-50l43 291h-4q-180 -309 -569 -309z" />
    <glyph glyph-name="gdotaccent" unicode="&#x121;" horiz-adv-x="1148" 
d="M604 1243l31 176h65l-30 -176h-66zM150 406q0 -164 87 -266t234 -101q186 0 309 165t123 390q0 164 -84 265t-231 102q-186 0 -312 -166t-126 -389zM397 -412q352 0 424 430l35 209h-2q-62 -115 -164 -181t-223 -64q-176 0 -280 116q-103 117 -103 303q0 257 146 437
t358 180q139 0 233 -83t115 -216h6l47 280h62l-166 -981q-45 -258 -168 -372t-317 -113q-194 0 -297 93q-101 93 -72 251h59q-24 -133 62 -211t245 -78z" />
    <glyph glyph-name="Gcommaaccent" unicode="&#x122;" horiz-adv-x="1521" 
d="M627 -129h65l-24 -133l-107 -217h-31l95 217h-23zM684 -18q-252 0 -406 164t-153 415q0 369 226 618t556 248q238 1 375 -119t143 -307h-65q-10 159 -129 263t-330 104q-297 0 -503 -232t-205 -569q0 -227 138 -377t360 -150t391 131q169 130 212 384l19 111h-518l6 57
h585l-122 -723h-50l43 291h-4q-180 -309 -569 -309z" />
    <glyph glyph-name="gcommaaccent" unicode="&#x123;" horiz-adv-x="1148" 
d="M588 1163l24 135l107 215h31l-95 -217h23l-25 -133h-65zM150 406q0 -164 87 -266t234 -101q186 0 309 165t123 390q0 164 -84 265t-231 102q-186 0 -312 -166t-126 -389zM397 -412q352 0 424 430l35 209h-2q-62 -115 -164 -181t-223 -64q-176 0 -280 116
q-103 117 -103 303q0 257 146 437t358 180q139 0 233 -83t115 -216h6l47 280h62l-166 -981q-45 -258 -168 -372t-317 -113q-194 0 -297 93q-101 93 -72 251h59q-24 -133 62 -211t245 -78z" />
    <glyph glyph-name="Hcircumflex" unicode="&#x124;" horiz-adv-x="1421" 
d="M590 1573l323 336h62l203 -336h-64l-178 293l-279 -293h-67zM109 0l237 1409h66l-113 -661h893l113 661h67l-237 -1409h-68l117 690h-893l-117 -690h-65z" />
    <glyph glyph-name="hcircumflex" unicode="&#x125;" horiz-adv-x="1124" 
d="M104 1663l324 336h61l203 -336h-63l-178 293l-279 -293h-68zM672 1018q164 0 247 -100t50 -297l-107 -621h-65l104 616q59 344 -244 345q-147 0 -264 -117t-153 -332l-86 -512h-66l254 1499h66l-127 -729h4q129 248 387 248z" />
    <glyph glyph-name="Hbar" unicode="&#x126;" horiz-adv-x="1421" 
d="M352 1065l-53 -317h893l53 317h-893zM94 1065l8 53h195l49 291h66l-50 -291h893l50 291h67l-49 -291h190l-8 -53h-192l-178 -1065h-68l117 690h-893l-117 -690h-65l178 1065h-193z" />
    <glyph glyph-name="hbar" unicode="&#x127;" horiz-adv-x="1124" 
d="M672 1018q164 0 247 -100t50 -297l-107 -621h-65l104 616q59 344 -244 345q-145 0 -261 -117t-154 -338l-88 -506h-66l211 1253h-176l6 47h178l35 199h66l-35 -199h358l-6 -47h-360l-84 -489h2q129 254 389 254z" />
    <glyph glyph-name="Itilde" unicode="&#x128;" horiz-adv-x="462" 
d="M309 1823q55 -1 143 -59t126 -58q86 0 122 123h43q-18 -70 -61 -120q-42 -50 -104 -50t-148 58t-127 59q-84 0 -121 -123h-45q47 170 172 170zM109 0l237 1409h66l-238 -1409h-65z" />
    <glyph glyph-name="itilde" unicode="&#x129;" horiz-adv-x="421" 
d="M221 1413q55 0 143 -58t125 -59q86 0 123 123h43q-18 -70 -61 -120q-42 -50 -104 -50q-62 1 -148 59t-127 58q-84 0 -121 -123h-45q47 170 172 170zM88 0l170 999h66l-170 -999h-66z" />
    <glyph glyph-name="Imacron" unicode="&#x12a;" horiz-adv-x="462" 
d="M150 1712l8 51h565l-8 -51h-565zM109 0l237 1409h66l-238 -1409h-65z" />
    <glyph glyph-name="imacron" unicode="&#x12b;" horiz-adv-x="421" 
d="M61 1303l9 51h565l-8 -51h-566zM88 0l170 999h66l-170 -999h-66z" />
    <glyph glyph-name="Ibreve" unicode="&#x12c;" horiz-adv-x="462" 
d="M416 1620q-104 0 -167 61q-62 61 -56 193h45q-2 -209 180 -209q188 0 258 209h47q-39 -130 -121 -192t-186 -62zM109 0l237 1409h66l-238 -1409h-65z" />
    <glyph glyph-name="ibreve" unicode="&#x12d;" horiz-adv-x="421" 
d="M328 1210q-104 0 -166 62t-58 192h46q-2 -209 180 -209q188 0 258 209h47q-39 -130 -121 -192t-186 -62zM88 0l170 999h66l-170 -999h-66z" />
    <glyph glyph-name="Iogonek" unicode="&#x12e;" horiz-adv-x="462" 
d="M0 -287q0 -94 123 -94h72l-9 -47h-77q-164 0 -164 129t186 299h-22l237 1409h66l-238 -1409q-174 -168 -174 -287z" />
    <glyph glyph-name="iogonek" unicode="&#x12f;" horiz-adv-x="421" 
d="M309 1317l29 182h70l-31 -182h-68zM-20 -287q0 -94 122 -94h72l-8 -47h-78q-164 0 -164 129t187 299h-23l170 999h66l-170 -999q-174 -168 -174 -287z" />
    <glyph glyph-name="Idotaccent" unicode="&#x130;" horiz-adv-x="462" 
d="M387 1653l31 176h65l-30 -176h-66zM109 0l237 1409h66l-238 -1409h-65z" />
    <glyph glyph-name="dotlessi" unicode="&#x131;" horiz-adv-x="421" 
d="M88 0l170 999h66l-170 -999h-66z" />
    <glyph glyph-name="IJ" unicode="&#x132;" horiz-adv-x="1519" 
d="M109 0l237 1409h66l-238 -1409h-65zM887 41q307 0 366 348l174 1020h66l-172 -1020q-70 -408 -434 -407q-184 0 -274 98q-89 98 -52 303l14 84h70l-16 -84q-63 -342 258 -342z" />
    <glyph glyph-name="ij" unicode="&#x133;" horiz-adv-x="845" 
d="M88 0l170 999h66l-170 -999h-66zM289 -393q78 0 123 40t61 136l207 1216h63l-204 -1226q-39 -223 -256 -224h-54l7 58h53zM309 1317l29 182h70l-31 -182h-68zM731 1317l31 182h67l-28 -182h-70z" />
    <glyph glyph-name="Jcircumflex" unicode="&#x134;" horiz-adv-x="1054" 
d="M729 1573l324 336h61l203 -336h-64l-178 293l-278 -293h-68zM420 -18q-184 0 -273 97q-88 97 -51 304l17 84h65l-14 -84q-33 -174 38 -258t222 -84q303 0 364 348l173 1020h67l-172 -1020q-69 -407 -436 -407z" />
    <glyph glyph-name="jcircumflex" unicode="&#x135;" horiz-adv-x="421" 
d="M23 1163l323 336h62l202 -336h-63l-178 293l-279 -293h-67zM-133 -393q80 0 125 40t59 136l207 1216h66l-209 -1226q-39 -223 -254 -224h-54l7 58h53z" />
    <glyph glyph-name="Kcommaaccent" unicode="&#x136;" horiz-adv-x="1304" 
d="M551 -129h65l-24 -133l-107 -217h-30l94 217h-23zM100 0l246 1409h66l-162 -932l1016 932h82l-662 -608l457 -801h-70l-434 758l-403 -371l-68 -387h-68z" />
    <glyph glyph-name="kcommaaccent" unicode="&#x137;" horiz-adv-x="985" 
d="M401 -129h66l-25 -133l-106 -217h-31l94 217h-22zM88 0l254 1499h66l-195 -1145l694 645h82l-454 -417l323 -582h-70l-301 539l-288 -267l-45 -272h-66z" />
    <glyph glyph-name="Lacute" unicode="&#x139;" horiz-adv-x="1095" 
d="M381 1573l281 336h77l-309 -336h-49zM109 0l237 1409h66l-228 -1350h772l-8 -59h-839z" />
    <glyph glyph-name="lacute" unicode="&#x13a;" horiz-adv-x="421" 
d="M377 1663l280 336h78l-309 -336h-49zM88 0l254 1499h66l-254 -1499h-66z" />
    <glyph glyph-name="Lcommaaccent" unicode="&#x13b;" horiz-adv-x="1095" 
d="M479 -129h66l-25 -133l-106 -217h-31l94 217h-22zM109 0l237 1409h66l-228 -1350h772l-8 -59h-839z" />
    <glyph glyph-name="lcommaaccent" unicode="&#x13c;" horiz-adv-x="421" 
d="M68 -129h65l-24 -133l-107 -217h-31l95 217h-23zM88 0l254 1499h66l-254 -1499h-66z" />
    <glyph glyph-name="Lcaron" unicode="&#x13d;" horiz-adv-x="1095" 
d="M750 1036l100 234h-25l23 139h70l-21 -135l-113 -238h-34zM106 0l240 1409h68l-230 -1350h772l-8 -59h-842z" />
    <glyph glyph-name="lcaron" unicode="&#x13e;" horiz-adv-x="421" 
d="M88 0l254 1499h66l-254 -1499h-66zM514 1126l98 232h-24l22 141h70l-25 -137l-108 -236h-33z" />
    <glyph glyph-name="Ldot" unicode="&#x13f;" horiz-adv-x="1095" 
d="M621 623l30 182h68l-29 -182h-69zM106 0l240 1409h68l-230 -1350h772l-8 -59h-842z" />
    <glyph glyph-name="ldot" unicode="&#x140;" horiz-adv-x="483" 
d="M432 612l31 183h65l-30 -183h-66zM88 0l254 1499h66l-254 -1499h-66z" />
    <glyph glyph-name="Lslash" unicode="&#x141;" horiz-adv-x="1095" 
d="M-16 430l-29 43l260 166l131 770h68l-123 -723l409 262l27 -43l-448 -287l-95 -559h772l-8 -59h-842l97 569z" />
    <glyph glyph-name="lslash" unicode="&#x142;" horiz-adv-x="421" 
d="M23 526l-25 39l219 197l125 737h66l-113 -668l182 164l25 -37l-219 -196l-129 -762h-66l117 690z" />
    <glyph glyph-name="Nacute" unicode="&#x143;" horiz-adv-x="1431" 
d="M868 1573l281 336h78l-309 -336h-50zM109 0l237 1409h60l688 -1292h2l219 1292h67l-237 -1409h-62l-688 1292h-4l-217 -1292h-65z" />
    <glyph glyph-name="nacute" unicode="&#x144;" horiz-adv-x="1124" 
d="M647 1163l281 336h78l-310 -336h-49zM672 1018q164 0 247 -100t50 -297l-107 -621h-65l104 616q59 344 -244 345q-147 0 -265 -121t-152 -332l-86 -508h-66l170 999h64l-41 -229h4q129 248 387 248z" />
    <glyph glyph-name="Ncommaaccent" unicode="&#x145;" horiz-adv-x="1431" 
d="M567 -129h66l-25 -133l-106 -217h-31l94 217h-22zM109 0l237 1409h60l688 -1292h2l219 1292h67l-237 -1409h-62l-688 1292h-4l-217 -1292h-65z" />
    <glyph glyph-name="ncommaaccent" unicode="&#x146;" horiz-adv-x="1124" 
d="M420 -129h65l-24 -133l-107 -217h-30l94 217h-23zM672 1018q164 0 247 -100t50 -297l-107 -621h-65l104 616q59 344 -244 345q-147 0 -265 -121t-152 -332l-86 -508h-66l170 999h64l-41 -229h4q129 248 387 248z" />
    <glyph glyph-name="Ncaron" unicode="&#x147;" horiz-adv-x="1431" 
d="M864 1573l-205 336h64l178 -293l279 293h67l-323 -336h-60zM109 0l237 1409h60l688 -1292h2l219 1292h67l-237 -1409h-62l-688 1292h-4l-217 -1292h-65z" />
    <glyph glyph-name="ncaron" unicode="&#x148;" horiz-adv-x="1124" 
d="M643 1163l-205 336h64l178 -293l278 293h68l-324 -336h-59zM672 1018q164 0 247 -100t50 -297l-107 -621h-65l104 616q59 344 -244 345q-147 0 -265 -121t-152 -332l-86 -508h-66l170 999h64l-41 -229h4q129 248 387 248z" />
    <glyph glyph-name="napostrophe" unicode="&#x149;" horiz-adv-x="1124" 
d="M256 1163l96 217h-22l22 133h66l-25 -133l-106 -217h-31zM672 1018q164 0 247 -100t50 -297l-107 -621h-65l104 616q59 344 -244 345q-147 0 -265 -121t-152 -332l-86 -508h-66l170 999h64l-41 -229h4q129 248 387 248z" />
    <glyph glyph-name="Eng" unicode="&#x14a;" horiz-adv-x="1431" 
d="M797 -451h-97l11 62h96q203 0 244 237l26 158l-682 1290h-4l-217 -1296h-65l237 1409h62l686 -1296l221 1296h67l-264 -1565q-49 -295 -321 -295z" />
    <glyph glyph-name="eng" unicode="&#x14b;" horiz-adv-x="1124" 
d="M575 -393q78 0 123 40t62 136l141 833q59 344 -244 345q-147 0 -265 -121t-152 -332l-86 -508h-66l170 999h61l-40 -237h4q127 256 389 256q164 0 247 -100t50 -297l-146 -848q-39 -223 -254 -224h-55l6 58h55z" />
    <glyph glyph-name="Omacron" unicode="&#x14c;" horiz-adv-x="1521" 
d="M682 1712l8 51h565l-8 -51h-565zM201 559q0 -231 131 -375t354 -143q295 0 499 237t204 572q1 230 -135 374t-359 144q-295 0 -495 -236q-199 -237 -199 -573zM131 555q0 367 221 620t551 252q248 -1 401 -161t152 -412q0 -367 -225 -620t-555 -252q-246 0 -396 160
t-149 413z" />
    <glyph glyph-name="omacron" unicode="&#x14d;" horiz-adv-x="1089" 
d="M389 1303l8 51h566l-9 -51h-565zM150 406q0 -164 88 -266t240 -101q152 0 275 119q122 119 156 301q14 59 15 135q0 164 -88 265t-241 101t-275 -118q-122 -119 -156 -301q-14 -59 -14 -135zM84 403q0 293 189 479q139 136 323 136t288 -118t105 -304q0 -292 -189 -478
q-138 -136 -322 -136t-290 117q-104 118 -104 304z" />
    <glyph glyph-name="Obreve" unicode="&#x14e;" horiz-adv-x="1521" 
d="M948 1620q-104 0 -167 61q-62 61 -56 193h45q-2 -209 180 -209q188 0 258 209h47q-39 -131 -120 -193q-83 -61 -187 -61zM201 559q0 -231 131 -375t354 -143q295 0 499 237t204 572q1 230 -135 374t-359 144q-295 0 -495 -236q-199 -237 -199 -573zM131 555
q0 367 221 620t551 252q248 -1 401 -161t152 -412q0 -367 -225 -620t-555 -252q-246 0 -396 160t-149 413z" />
    <glyph glyph-name="obreve" unicode="&#x14f;" horiz-adv-x="1089" 
d="M655 1210q-105 0 -167 62t-56 192h45q-2 -209 180 -209q188 0 258 209h48q-39 -130 -121 -192t-187 -62zM150 406q0 -164 88 -266t240 -101q152 0 275 119q122 119 156 301q14 59 15 135q0 164 -88 265t-241 101t-275 -118q-122 -119 -156 -301q-14 -59 -14 -135zM84 403
q0 293 189 479q139 136 323 136t288 -118t105 -304q0 -292 -189 -478q-138 -136 -322 -136t-290 117q-104 118 -104 304z" />
    <glyph glyph-name="Ohungarumlaut" unicode="&#x150;" horiz-adv-x="1521" 
d="M735 1573l281 336h78l-310 -336h-49zM1085 1573l283 336h78l-309 -336h-52zM201 559q0 -231 131 -375t354 -143q295 0 499 237t204 572q1 230 -135 374t-359 144q-295 0 -495 -236q-199 -237 -199 -573zM131 555q0 367 221 620t551 252q248 -1 401 -161t152 -412
q0 -367 -225 -620t-555 -252q-246 0 -396 160t-149 413z" />
    <glyph glyph-name="ohungarumlaut" unicode="&#x151;" horiz-adv-x="1089" 
d="M442 1163l281 336h78l-309 -336h-50zM793 1163l282 336h78l-309 -336h-51zM150 406q0 -164 88 -266t240 -101q152 0 275 119q122 119 156 301q14 59 15 135q0 164 -88 265t-241 101t-275 -118q-122 -119 -156 -301q-14 -59 -14 -135zM84 403q0 293 189 479
q139 136 323 136t288 -118t105 -304q0 -292 -189 -478q-138 -136 -322 -136t-290 117q-104 118 -104 304z" />
    <glyph glyph-name="OE" unicode="&#x152;" horiz-adv-x="2123" 
d="M195 580q0 -232 145 -376t432 -145h254l217 1291h-250q-371 0 -585 -213t-213 -557zM125 573q0 375 235 606q236 230 641 230h1156l-7 -59h-839l-101 -600h680l-8 -60h-682l-106 -631h850l-9 -59h-1169q-311 0 -476 158t-165 415z" />
    <glyph glyph-name="oe" unicode="&#x153;" horiz-adv-x="1861" 
d="M1413 961q-139 0 -259 -111t-159 -287h713q6 45 6 84q0 150 -81 232t-220 82zM150 406q0 -164 88 -266t240 -101q152 0 275 119q122 119 156 301q14 59 15 135q0 164 -88 265t-241 101t-275 -118q-122 -119 -156 -301q-14 -59 -14 -135zM84 401q0 298 192 482
q141 135 330 135q148 0 246 -85t125 -228q68 145 188 229q121 84 262 84q203 0 294 -148t46 -356h-782q-6 -53 -6 -108q0 -168 84 -268t219 -99q135 0 232 69t145 195h65q-57 -153 -172 -237q-114 -84 -266 -84t-246 86t-116 233q-66 -145 -186 -232t-284 -87t-267 116
q-103 117 -103 303z" />
    <glyph glyph-name="Racute" unicode="&#x154;" horiz-adv-x="1296" 
d="M766 1573l281 336h77l-309 -336h-49zM854 1350h-453l-112 -668h454q193 0 314 113t121 292q0 121 -83 192t-241 71zM860 1409q188 0 288 -85t99 -232q0 -197 -128 -324t-335 -143l306 -625h-70l-305 625h-436l-105 -625h-65l237 1409h514z" />
    <glyph glyph-name="racute" unicode="&#x155;" horiz-adv-x="684" 
d="M492 1163l280 336h78l-309 -336h-49zM88 0l170 999h61l-34 -208h2q51 102 134 164q83 63 176 63t144 -39l-28 -55q-55 33 -125 32q-123 0 -217 -116t-125 -291l-92 -549h-66z" />
    <glyph glyph-name="Rcommaaccent" unicode="&#x156;" horiz-adv-x="1296" 
d="M526 -135h66l-25 -133l-106 -217h-31l94 217h-22zM854 1350h-453l-112 -668h454q193 0 314 113t121 292q0 121 -83 192t-241 71zM860 1409q188 0 288 -85t99 -232q0 -197 -128 -324t-335 -143l306 -625h-70l-305 625h-436l-105 -625h-65l237 1409h514z" />
    <glyph glyph-name="rcommaaccent" unicode="&#x157;" horiz-adv-x="684" 
d="M68 -129h65l-24 -133l-107 -217h-31l95 217h-23zM88 0l170 999h61l-34 -208h2q51 102 134 164q83 63 176 63t144 -39l-28 -55q-55 33 -125 32q-123 0 -217 -116t-125 -291l-92 -549h-66z" />
    <glyph glyph-name="Rcaron" unicode="&#x158;" horiz-adv-x="1296" 
d="M762 1573l-205 336h64l178 -293l278 293h68l-324 -336h-59zM854 1350h-453l-112 -668h454q193 0 314 113t121 292q0 121 -83 192t-241 71zM860 1409q188 0 288 -85t99 -232q0 -197 -128 -324t-335 -143l306 -625h-70l-305 625h-436l-105 -625h-65l237 1409h514z" />
    <glyph glyph-name="rcaron" unicode="&#x159;" horiz-adv-x="684" 
d="M487 1163l-204 336h63l178 -293l279 293h67l-323 -336h-60zM88 0l170 999h61l-34 -208h2q51 102 134 164q83 63 176 63t144 -39l-28 -55q-55 33 -125 32q-123 0 -217 -116t-125 -291l-92 -549h-66z" />
    <glyph glyph-name="Sacute" unicode="&#x15a;" horiz-adv-x="1269" 
d="M756 1573l280 336h78l-309 -336h-49zM570 39q214 0 342 92t128 256q0 121 -83 187t-201 95t-235 57q-119 28 -201 104t-82 208q0 172 139 281t373 109t354 -96q121 -95 90 -271h-64q25 149 -79 229t-304 80t-320 -89t-120 -234q0 -85 44 -143t116 -87t227 -65t242 -78
q176 -82 176 -278t-148 -306t-396 -108q-248 0 -372 102q-125 102 -90 295h64q-29 -168 79 -254q107 -86 321 -86z" />
    <glyph glyph-name="sacute" unicode="&#x15b;" horiz-adv-x="944" 
d="M522 1163l281 336h78l-310 -336h-49zM400 35q154 0 246 60q91 59 91 163t-61 152q-62 48 -150 62t-176 32t-149 72t-62 155q1 133 105 210t275 77t266 -70t71 -209h-61q18 113 -59 169t-219 56t-228 -60t-86 -158t61 -140q62 -43 150 -58q88 -14 176 -32t149 -76t62 -164
q0 -143 -110 -219q-110 -75 -293 -75q-182 0 -284 74t-75 220h61q-22 -125 62 -183t238 -58z" />
    <glyph glyph-name="Scircumflex" unicode="&#x15c;" horiz-adv-x="1269" 
d="M485 1573l324 336h61l203 -336h-63l-179 293l-278 -293h-68zM570 39q214 0 342 92t128 256q0 121 -83 187t-201 95t-235 57q-119 28 -201 104t-82 208q0 172 139 281t373 109t354 -96q121 -95 90 -271h-64q25 149 -79 229t-304 80t-320 -89t-120 -234q0 -85 44 -143
t116 -87t227 -65t242 -78q176 -82 176 -278t-148 -306t-396 -108q-248 0 -372 102q-125 102 -90 295h64q-29 -168 79 -254q107 -86 321 -86z" />
    <glyph glyph-name="scircumflex" unicode="&#x15d;" horiz-adv-x="944" 
d="M252 1163l323 336h62l203 -336h-64l-178 293l-279 -293h-67zM400 35q154 0 246 60q91 59 91 163t-61 152q-62 48 -150 62t-176 32t-149 72t-62 155q1 133 105 210t275 77t266 -70t71 -209h-61q18 113 -59 169t-219 56t-228 -60t-86 -158t61 -140q62 -43 150 -58
q88 -14 176 -32t149 -76t62 -164q0 -143 -110 -219q-110 -75 -293 -75q-182 0 -284 74t-75 220h61q-22 -125 62 -183t238 -58z" />
    <glyph glyph-name="Scedilla" unicode="&#x15e;" horiz-adv-x="1269" 
d="M570 39q214 0 342 92t128 256q0 121 -83 187t-201 95t-235 57q-119 28 -201 104t-82 208q0 172 139 281t373 109t354 -96q121 -95 90 -271h-64q25 149 -79 229t-304 80t-320 -89t-120 -234q0 -85 44 -143t116 -87t227 -65t242 -78q176 -82 176 -276q0 -193 -144 -303
t-388 -113l-41 -78q79 -2 119 -40t40 -106t-58 -128q-58 -58 -171 -58h-98l10 45h92q86 0 129 45t43 95t-34 78t-99 28h-37l70 119q-233 4 -354 106q-120 102 -85 291h64q-29 -168 79 -254q107 -86 321 -86z" />
    <glyph glyph-name="scedilla" unicode="&#x15f;" horiz-adv-x="944" 
d="M400 35q154 0 246 60q91 59 91 163t-61 152q-62 48 -150 62t-176 32t-149 72t-62 155q1 133 105 210t275 77t266 -70t71 -209h-61q18 113 -59 169t-219 56t-228 -60t-86 -158t61 -140q62 -43 150 -58q88 -14 176 -32t149 -76t62 -164q-1 -143 -107 -217t-286 -77l-41 -78
q79 -2 119 -40t40 -106t-58 -128q-58 -58 -171 -58h-98l10 45h92q86 0 129 45t43 95t-34 78t-99 28h-37l70 119q-174 4 -268 78q-93 75 -66 216h61q-22 -125 62 -183t238 -58z" />
    <glyph glyph-name="Scaron" unicode="&#x160;" horiz-adv-x="1269" 
d="M752 1573l-205 336h63l178 -293l279 293h68l-324 -336h-59zM570 39q214 0 342 92t128 256q0 121 -83 187t-201 95t-235 57q-119 28 -201 104t-82 208q0 172 139 281t373 109t354 -96q121 -95 90 -271h-64q25 149 -79 229t-304 80t-320 -89t-120 -234q0 -85 44 -143
t116 -87t227 -65t242 -78q176 -82 176 -278t-148 -306t-396 -108q-248 0 -372 102q-125 102 -90 295h64q-29 -168 79 -254q107 -86 321 -86z" />
    <glyph glyph-name="scaron" unicode="&#x161;" horiz-adv-x="944" 
d="M518 1163l-205 336h64l178 -293l279 293h67l-323 -336h-60zM400 35q154 0 246 60q91 59 91 163t-61 152q-62 48 -150 62t-176 32t-149 72t-62 155q1 133 105 210t275 77t266 -70t71 -209h-61q18 113 -59 169t-219 56t-228 -60t-86 -158t61 -140q62 -43 150 -58
q88 -14 176 -32t149 -76t62 -164q0 -143 -110 -219q-110 -75 -293 -75q-182 0 -284 74t-75 220h61q-22 -125 62 -183t238 -58z" />
    <glyph glyph-name="Tcommaaccent" unicode="&#x162;" horiz-adv-x="1153" 
d="M614 -242q0 -68 -58 -128q-58 -58 -171 -58h-98l10 45h92q86 0 129 45t43 95t-34 78t-99 28h-37l82 137h-20l227 1352h-526l10 57h1120l-10 -57h-526l-228 -1352h-14l-51 -96q79 -2 119 -40t40 -106z" />
    <glyph glyph-name="tcommaaccent" unicode="&#x163;" horiz-adv-x="612" 
d="M373 0q-39 0 -58 2l-47 -98q80 -2 121 -40t41 -106t-59 -128q-59 -58 -172 -58h-97l9 45h94q84 0 127 45t43 95t-34 78t-99 28h-37l80 145q-160 41 -123 266l112 672h-215l9 53h215l51 304h65l-51 -304h299l-8 -53h-301l-111 -670q-18 -118 17 -168t139 -51h113l-7 -57
h-116z" />
    <glyph glyph-name="Tcaron" unicode="&#x164;" horiz-adv-x="1153" 
d="M721 1573l-205 336h64l178 -293l278 293h68l-324 -336h-59zM154 1352l10 57h1120l-10 -57h-526l-228 -1352h-67l227 1352h-526z" />
    <glyph glyph-name="tcaron" unicode="&#x165;" horiz-adv-x="612" 
d="M524 1143l99 231h-25l25 144h67l-24 -140l-109 -235h-33zM373 0q-135 0 -185 68q-49 68 -26 206l112 672h-215l9 53h215l51 304h65l-51 -304h299l-8 -53h-301l-111 -667q-18 -117 17 -169t139 -53h115l-6 -57h-119z" />
    <glyph glyph-name="Tbar" unicode="&#x166;" horiz-adv-x="1153" 
d="M154 1352l10 57h1120l-10 -57h-526l-105 -625h387l-8 -53h-389l-113 -674h-67l112 674h-385l8 53h387l105 625h-526z" />
    <glyph glyph-name="tbar" unicode="&#x167;" horiz-adv-x="612" 
d="M373 0q-135 0 -186 68q-50 68 -25 206l39 232h-219l8 47h219l65 393h-215l9 53h215l51 304h65l-51 -304h299l-8 -53h-301l-66 -393h289l-6 -47h-291l-37 -227q-18 -117 17 -169t139 -53h115l-6 -57h-119z" />
    <glyph glyph-name="Utilde" unicode="&#x168;" horiz-adv-x="1390" 
d="M772 1823q55 -1 142 -59t126 -58q86 0 123 123h43q-18 -70 -61 -120t-105 -50t-147 58q-86 58 -127 59q-84 0 -121 -123h-45q47 170 172 170zM603 43q212 0 358 130q145 130 186 378l147 858h68l-148 -858q-49 -285 -213 -427q-163 -142 -401 -142t-356 142t-68 427
l148 858h67l-147 -858q-43 -250 52 -379t307 -129z" />
    <glyph glyph-name="utilde" unicode="&#x169;" horiz-adv-x="1107" 
d="M555 1413q55 0 142 -58t126 -59q86 0 123 123h43q-18 -70 -61 -120q-42 -50 -104 -50q-62 1 -148 59t-127 58q-84 0 -121 -123h-45q47 170 172 170zM430 -18q-164 0 -247 100t-48 297l105 620h65l-104 -616q-59 -344 243 -344q145 0 261 117q115 117 153 346l86 497h66
l-170 -999h-64l41 238h-4q-127 -256 -383 -256z" />
    <glyph glyph-name="Umacron" unicode="&#x16a;" horiz-adv-x="1390" 
d="M612 1712l9 51h565l-8 -51h-566zM603 43q212 0 358 130q145 130 186 378l147 858h68l-148 -858q-49 -285 -213 -427q-163 -142 -401 -142t-356 142t-68 427l148 858h67l-147 -858q-43 -250 52 -379t307 -129z" />
    <glyph glyph-name="umacron" unicode="&#x16b;" horiz-adv-x="1107" 
d="M395 1303l8 51h566l-8 -51h-566zM430 -18q-164 0 -247 100t-48 297l105 620h65l-104 -616q-59 -344 243 -344q145 0 261 117q115 117 153 346l86 497h66l-170 -999h-64l41 238h-4q-127 -256 -383 -256z" />
    <glyph glyph-name="Ubreve" unicode="&#x16c;" horiz-adv-x="1390" 
d="M879 1620q-104 0 -167 61q-62 61 -57 193h45q-2 -209 181 -209q188 0 258 209h47q-39 -130 -121 -192t-186 -62zM603 43q212 0 358 130q145 130 186 378l147 858h68l-148 -858q-49 -285 -213 -427q-163 -142 -401 -142t-356 142t-68 427l148 858h67l-147 -858
q-43 -250 52 -379t307 -129z" />
    <glyph glyph-name="ubreve" unicode="&#x16d;" horiz-adv-x="1107" 
d="M662 1210q-104 0 -166 62t-58 192h45q-2 -209 181 -209q188 0 258 209h47q-39 -130 -121 -192t-186 -62zM430 -18q-164 0 -247 100t-48 297l105 620h65l-104 -616q-59 -344 243 -344q145 0 261 117q115 117 153 346l86 497h66l-170 -999h-64l41 238h-4
q-127 -256 -383 -256z" />
    <glyph glyph-name="Uring" unicode="&#x16e;" horiz-adv-x="1390" 
d="M764 1732q0 -64 33 -94t90 -30t105 48t48 110t-33 95q-33 31 -91 31t-105 -48t-47 -112zM721 1732q0 80 61 138q62 58 136 59q74 0 120 -41q46 -40 45 -120q0 -80 -62 -138t-136 -59q-74 0 -119 41q-45 40 -45 120zM603 43q212 0 358 130q145 130 186 378l147 858h68
l-148 -858q-49 -285 -213 -427q-163 -142 -401 -142t-356 142t-68 427l148 858h67l-147 -858q-43 -250 52 -379t307 -129z" />
    <glyph glyph-name="uring" unicode="&#x16f;" horiz-adv-x="1107" 
d="M670 1198q57 0 105 48t48 110t-33 95q-34 32 -92 32t-104 -48q-47 -47 -47 -111t33 -95t90 -31zM866 1358q0 -80 -62 -138t-137 -59q-75 0 -119 41t-44 121t61 138q61 59 135 59t120 -41t46 -121zM430 -18q-164 0 -247 100t-48 297l105 620h65l-104 -616
q-59 -344 243 -344q145 0 261 117q115 117 153 346l86 497h66l-170 -999h-64l41 238h-4q-127 -256 -383 -256z" />
    <glyph glyph-name="Uhungarumlaut" unicode="&#x170;" horiz-adv-x="1390" 
d="M666 1573l280 336h78l-309 -336h-49zM1016 1573l282 336h78l-309 -336h-51zM603 43q212 0 358 130q145 130 186 378l147 858h68l-148 -858q-49 -285 -213 -427q-163 -142 -401 -142t-356 142t-68 427l148 858h67l-147 -858q-43 -250 52 -379t307 -129z" />
    <glyph glyph-name="uhungarumlaut" unicode="&#x171;" horiz-adv-x="1107" 
d="M449 1163l280 336h78l-309 -336h-49zM799 1163l282 336h78l-309 -336h-51zM430 -18q-164 0 -247 100t-48 297l105 620h65l-104 -616q-59 -344 243 -344q145 0 261 117q115 117 153 346l86 497h66l-170 -999h-64l41 238h-4q-127 -256 -383 -256z" />
    <glyph glyph-name="Uogonek" unicode="&#x172;" horiz-adv-x="1378" 
d="M603 43q212 0 358 130q145 130 186 378l147 858h68l-148 -858q-57 -340 -296 -488q-342 -217 -343 -350q0 -94 130 -94h71l-8 -47h-80q-166 0 -166 129q0 137 248 301q-76 -20 -170 -20q-238 0 -356 142t-68 427l148 858h67l-147 -858q-43 -250 52 -379t307 -129z" />
    <glyph glyph-name="uogonek" unicode="&#x173;" horiz-adv-x="1107" 
d="M774 -428q-164 0 -164 129t187 299h-21l41 238h-4q-127 -256 -383 -256q-164 0 -247 100t-48 297l105 620h65l-104 -616q-59 -344 243 -344q145 0 261 117q115 117 153 346l86 497h66l-170 -999q-174 -168 -174 -287q0 -94 122 -94h72l-8 -47h-78z" />
    <glyph glyph-name="Wcircumflex" unicode="&#x174;" horiz-adv-x="1812" 
d="M782 1573l324 336h61l203 -336h-63l-179 293l-278 -293h-68zM324 0l-144 1409h66l133 -1337h4l633 1337h82l176 -1337h4l588 1337h65l-620 -1409h-90l-179 1327h-2l-628 -1327h-88z" />
    <glyph glyph-name="wcircumflex" unicode="&#x175;" horiz-adv-x="1406" 
d="M510 1163l324 336h61l203 -336h-64l-178 293l-278 -293h-68zM250 0l-139 999h61l131 -929h2l440 929h76l119 -929h4l447 929h63l-483 -999h-80l-119 926h-4l-436 -926h-82z" />
    <glyph glyph-name="Ycircumflex" unicode="&#x176;" horiz-adv-x="1165" 
d="M463 1573l323 336h62l203 -336h-64l-178 293l-279 -293h-67zM455 0l100 590l-373 819h70l348 -762h2l606 762h74l-657 -825l-103 -584h-67z" />
    <glyph glyph-name="ycircumflex" unicode="&#x177;" horiz-adv-x="915" 
d="M268 1163l324 336h61l203 -336h-63l-179 293l-278 -293h-68zM-51 -399q98 0 163 56t130 171l90 164l-221 1007h65l201 -927h4l518 927h66l-674 -1196q-72 -129 -148 -193t-194 -65h-47l8 56h39z" />
    <glyph glyph-name="Ydieresis" unicode="&#x178;" horiz-adv-x="1165" 
d="M547 1653l31 176h65l-31 -176h-65zM940 1653l31 176h65l-30 -176h-66zM455 0l100 590l-373 819h70l348 -762h2l606 762h74l-657 -825l-103 -584h-67z" />
    <glyph glyph-name="Zacute" unicode="&#x179;" horiz-adv-x="1144" 
d="M735 1573l281 336h78l-310 -336h-49zM258 1352l10 57h942l-4 -43l-1122 -1309h889l-8 -57h-975l4 43l1120 1309h-856z" />
    <glyph glyph-name="zacute" unicode="&#x17a;" horiz-adv-x="845" 
d="M506 1163l280 336h78l-309 -336h-49zM141 946l6 53h719l-6 -41l-778 -905h633l-8 -53h-717l4 37l782 909h-635z" />
    <glyph glyph-name="Zdotaccent" unicode="&#x17b;" horiz-adv-x="1144" 
d="M741 1653l31 176h66l-31 -176h-66zM258 1352l10 57h942l-4 -43l-1122 -1309h889l-8 -57h-975l4 43l1120 1309h-856z" />
    <glyph glyph-name="zdotaccent" unicode="&#x17c;" horiz-adv-x="845" 
d="M512 1243l31 176h65l-30 -176h-66zM141 946l6 53h719l-6 -41l-778 -905h633l-8 -53h-717l4 37l782 909h-635z" />
    <glyph glyph-name="Zcaron" unicode="&#x17d;" horiz-adv-x="1144" 
d="M731 1573l-205 336h64l178 -293l279 293h67l-323 -336h-60zM258 1352l10 57h942l-4 -43l-1122 -1309h889l-8 -57h-975l4 43l1120 1309h-856z" />
    <glyph glyph-name="zcaron" unicode="&#x17e;" horiz-adv-x="845" 
d="M502 1163l-205 336h63l179 -293l278 293h68l-324 -336h-59zM141 946l6 53h719l-6 -41l-778 -905h633l-8 -53h-717l4 37l782 909h-635z" />
    <glyph glyph-name="longs" unicode="&#x17f;" horiz-adv-x="516" 
d="M668 1499h82l-11 -57h-75q-223 0 -267 -246l-202 -1196h-66l160 946h-213l6 53h215l35 199q49 301 336 301z" />
    <glyph glyph-name="florin" unicode="&#x192;" horiz-adv-x="1163" 
d="M916 1372q-196 0 -242 -274l-68 -375h322l-6 -49h-324l-129 -737q-57 -328 -315 -328t-209 332l8 53h59l-8 -53q-39 -279 156 -279t243 275l129 737h-266l4 49h271l67 375q59 330 312 329q260 0 210 -331l-8 -56h-59l8 56q41 276 -155 276z" />
    <glyph glyph-name="AEacute" unicode="&#x1fc;" horiz-adv-x="2101" 
d="M1274 1573l280 336h78l-309 -336h-49zM383 412h680l156 919zM-72 0l1282 1409h924l-6 -59h-838l-102 -600h678l-6 -60h-682l-107 -631h850l-8 -59h-920l60 352h-725l-320 -352h-80z" />
    <glyph glyph-name="aeacute" unicode="&#x1fd;" horiz-adv-x="1734" 
d="M926 1163l280 336h78l-309 -336h-49zM1288 961q-140 0 -258 -110t-156 -288h707q6 47 6 86q-2 150 -81 231q-78 81 -218 81zM352 37q158 0 277 101t153 298l25 142q-35 -41 -141 -56l-256 -33q-281 -35 -281 -256q-1 -86 59 -141t164 -55zM574 1018q146 0 228 -62
q81 -62 89 -184q73 114 181 180t231 66q201 0 291 -148t46 -356h-776q-8 -47 -8 -108q0 -168 83 -268t218 -99q275 0 375 264h65q-57 -153 -171 -237t-266 -84t-242 87q-92 87 -117 238q-131 -326 -457 -325q-131 0 -206 68t-75 177q0 268 338 310l258 32q150 18 162 97
q25 143 -39 220t-196 77q-134 0 -226 -70t-127 -205h-61q37 160 146 245q110 85 256 85z" />
    <glyph glyph-name="Oslashacute" unicode="&#x1fe;" horiz-adv-x="1521" 
d="M903 1573l281 336h78l-310 -336h-49zM1384 850q0 188 -96 326l-971 -979q133 -156 365 -156q294 1 498 237t204 572zM197 559q0 -190 92 -328l973 979q-137 158 -371 158q-295 0 -495 -236q-199 -237 -199 -573zM129 555q0 367 221 620t549 252q254 0 408 -170l176 177
h63l-211 -211q117 -152 117 -369q0 -367 -224 -620t-556 -252q-252 0 -402 168l-172 -175h-63l207 209q-113 152 -113 371z" />
    <glyph glyph-name="oslashacute" unicode="&#x1ff;" horiz-adv-x="1089" 
d="M621 1163l280 336h78l-309 -336h-49zM924 594q0 131 -56 219l-641 -663q90 -111 246 -111t279 120t157 300q15 59 15 135zM150 406q0 -133 55 -226l641 668q-92 113 -247 113t-277 -120t-158 -300q-14 -59 -14 -135zM84 401q0 301 192 483q140 134 322 134t293 -123
l125 129h55l-156 -162q74 -109 74 -262q0 -300 -193 -483q-142 -135 -324 -135t-290 120l-121 -127h-53l152 158q-76 106 -76 268z" />
    <glyph glyph-name="Scommaaccent" unicode="&#x218;" horiz-adv-x="1269" 
d="M518 -129h66l-25 -133l-106 -217h-31l94 217h-22zM570 39q214 0 342 92t128 256q0 121 -83 187t-201 95t-235 57q-119 28 -201 104t-82 208q0 172 139 281t373 109t354 -96q121 -95 90 -271h-64q25 149 -79 229t-304 80t-320 -89t-120 -234q0 -85 44 -143t116 -87
t227 -65t242 -78q176 -82 176 -278t-148 -306t-396 -108q-248 0 -372 102q-125 102 -90 295h64q-29 -168 79 -254q107 -86 321 -86z" />
    <glyph glyph-name="scommaaccent" unicode="&#x219;" horiz-adv-x="944" 
d="M346 -129h66l-25 -133l-106 -217h-31l94 217h-22zM400 35q154 0 246 60q91 59 91 163t-61 152q-62 48 -150 62t-176 32t-149 72t-62 155q1 133 105 210t275 77t266 -70t71 -209h-61q18 113 -59 169t-219 56t-228 -60t-86 -158t61 -140q62 -43 150 -58q88 -14 176 -32
t149 -76t62 -164q0 -143 -110 -219q-110 -75 -293 -75q-182 0 -284 74t-75 220h61q-22 -125 62 -183t238 -58z" />
    <glyph glyph-name="uni021A" unicode="&#x21a;" horiz-adv-x="1153" 
d="M434 -129h66l-25 -133l-106 -217h-31l94 217h-22zM154 1352l10 57h1120l-10 -57h-526l-228 -1352h-67l227 1352h-526z" />
    <glyph glyph-name="uni021B" unicode="&#x21b;" horiz-adv-x="612" 
d="M254 -129h65l-24 -133l-107 -217h-30l94 217h-23zM373 0q-135 0 -185 68q-49 68 -26 206l112 672h-215l9 53h215l51 304h65l-51 -304h299l-8 -53h-301l-111 -670q-18 -118 17 -168t139 -51h113l-7 -57h-116z" />
    <glyph glyph-name="circumflex" unicode="&#x2c6;" horiz-adv-x="1089" 
d="M356 1163l324 336h61l203 -336h-63l-179 293l-278 -293h-68z" />
    <glyph glyph-name="caron" unicode="&#x2c7;" horiz-adv-x="1089" 
d="M623 1163l-205 336h63l178 -293l279 293h68l-324 -336h-59z" />
    <glyph glyph-name="uni02C9" unicode="&#x2c9;" horiz-adv-x="1089" 
d="M395 1303l8 51h566l-8 -51h-566z" />
    <glyph glyph-name="breve" unicode="&#x2d8;" horiz-adv-x="1089" 
d="M662 1210q-104 0 -166 62t-58 192h45q-2 -209 181 -209q188 0 258 209h47q-39 -130 -121 -192t-186 -62z" />
    <glyph glyph-name="dotaccent" unicode="&#x2d9;" horiz-adv-x="1089" 
d="M633 1243l31 176h65l-31 -176h-65z" />
    <glyph glyph-name="ring" unicode="&#x2da;" horiz-adv-x="1089" 
d="M670 1198q57 0 105 48t48 110t-33 95q-34 32 -92 32t-104 -48q-47 -47 -47 -111t33 -95t90 -31zM866 1358q0 -80 -62 -138t-137 -59q-75 0 -119 41t-44 121t61 138q61 59 135 59t120 -41t46 -121z" />
    <glyph glyph-name="ogonek" unicode="&#x2db;" horiz-adv-x="1089" 
d="M420 -428q-164 0 -164 129t186 299h43q-174 -168 -174 -287q0 -94 123 -94h72l-8 -47h-78z" />
    <glyph glyph-name="tilde" unicode="&#x2dc;" horiz-adv-x="1089" 
d="M555 1413q55 0 142 -58t126 -59q86 0 123 123h43q-18 -70 -61 -120q-42 -50 -104 -50q-62 1 -148 59t-127 58q-84 0 -121 -123h-45q47 170 172 170z" />
    <glyph glyph-name="hungarumlaut" unicode="&#x2dd;" horiz-adv-x="1089" 
d="M449 1163l280 336h78l-309 -336h-49zM799 1163l282 336h78l-309 -336h-51z" />
    <glyph glyph-name="uni0394" unicode="&#x394;" horiz-adv-x="1232" 
d="M752 1337l-680 -1280h927zM-29 0l754 1409h78l278 -1409h-1110z" />
    <glyph glyph-name="uni03A9" unicode="&#x3a9;" horiz-adv-x="1425" 
d="M1282 952q0 184 -122 301t-310 117q-236 0 -415 -175t-179 -431q0 -160 86 -266t190 -133l-63 -365h-395l8 57h332l47 271q-115 50 -195 162t-80 272q0 278 202 472t470 193q215 0 354 -133q140 -133 140 -352t-142 -386t-321 -230l-45 -269h336l-9 -57h-399l64 365
q139 35 280 178q72 73 119 181t47 228z" />
    <glyph glyph-name="uni03BC" unicode="&#x3bc;" horiz-adv-x="1124" 
d="M444 -18q-221 0 -272 174q-4 -44 -35 -232t-37 -213l-26 -162h-66l250 1450h66l-107 -616q-29 -174 38 -259t209 -85t257 119t153 340l87 501h65l-170 -999h-63l43 244h-5q-129 -262 -387 -262z" />
    <glyph glyph-name="pi" unicode="&#x3c0;" horiz-adv-x="1153" 
d="M92 0l172 999h787l-172 -999h-66l162 942h-656l-161 -942h-66z" />
    <glyph glyph-name="Wgrave" unicode="&#x1e80;" horiz-adv-x="1812" 
d="M1057 1573l-191 336h72l166 -336h-47zM324 0l-144 1409h66l133 -1337h4l633 1337h82l176 -1337h4l588 1337h65l-620 -1409h-90l-179 1327h-2l-628 -1327h-88z" />
    <glyph glyph-name="wgrave" unicode="&#x1e81;" horiz-adv-x="1406" 
d="M784 1163l-190 336h72l165 -336h-47zM250 0l-139 999h61l131 -929h2l440 929h76l119 -929h4l447 929h63l-483 -999h-80l-119 926h-4l-436 -926h-82z" />
    <glyph glyph-name="Wacute" unicode="&#x1e82;" horiz-adv-x="1812" 
d="M1053 1573l280 336h78l-309 -336h-49zM324 0l-144 1409h66l133 -1337h4l633 1337h82l176 -1337h4l588 1337h65l-620 -1409h-90l-179 1327h-2l-628 -1327h-88z" />
    <glyph glyph-name="wacute" unicode="&#x1e83;" horiz-adv-x="1406" 
d="M780 1163l281 336h78l-310 -336h-49zM250 0l-139 999h61l131 -929h2l440 929h76l119 -929h4l447 929h63l-483 -999h-80l-119 926h-4l-436 -926h-82z" />
    <glyph glyph-name="Wdieresis" unicode="&#x1e84;" horiz-adv-x="1812" 
d="M866 1653l31 176h66l-31 -176h-66zM1260 1653l30 176h66l-31 -176h-65zM324 0l-144 1409h66l133 -1337h4l633 1337h82l176 -1337h4l588 1337h65l-620 -1409h-90l-179 1327h-2l-628 -1327h-88z" />
    <glyph glyph-name="wdieresis" unicode="&#x1e85;" horiz-adv-x="1406" 
d="M594 1243l31 176h65l-31 -176h-65zM987 1243l31 176h65l-30 -176h-66zM250 0l-139 999h61l131 -929h2l440 929h76l119 -929h4l447 929h63l-483 -999h-80l-119 926h-4l-436 -926h-82z" />
    <glyph glyph-name="Ygrave" unicode="&#x1ef2;" horiz-adv-x="1165" 
d="M737 1573l-190 336h71l166 -336h-47zM455 0l100 590l-373 819h70l348 -762h2l606 762h74l-657 -825l-103 -584h-67z" />
    <glyph glyph-name="ygrave" unicode="&#x1ef3;" horiz-adv-x="915" 
d="M543 1163l-191 336h72l166 -336h-47zM-51 -399q98 0 163 56t130 171l90 164l-221 1007h65l201 -927h4l518 927h66l-674 -1196q-72 -129 -148 -193t-194 -65h-47l8 56h39z" />
    <glyph glyph-name="endash" unicode="&#x2013;" horiz-adv-x="1138" 
d="M117 489l8 58h893l-8 -58h-893z" />
    <glyph glyph-name="emdash" unicode="&#x2014;" horiz-adv-x="1720" 
d="M117 489l8 58h1470l-8 -58h-1470z" />
    <glyph glyph-name="quoteleft" unicode="&#x2018;" horiz-adv-x="409" 
d="M233 893l35 205l127 311h39l-119 -307h27l-35 -209h-74z" />
    <glyph glyph-name="quoteright" unicode="&#x2019;" horiz-adv-x="409" 
d="M188 893l117 307h-24l32 209h76l-35 -205l-127 -311h-39z" />
    <glyph glyph-name="quotesinglbase" unicode="&#x201a;" horiz-adv-x="409" 
d="M74 0l35 211h73l-32 -205l-127 -311h-39l114 305h-24z" />
    <glyph glyph-name="quotedblleft" unicode="&#x201c;" horiz-adv-x="733" 
d="M233 893l35 205l127 311h39l-119 -307h27l-35 -209h-74zM557 893l33 205l129 311h37l-117 -307h25l-33 -209h-74z" />
    <glyph glyph-name="quotedblright" unicode="&#x201d;" horiz-adv-x="733" 
d="M188 893l117 307h-24l32 209h76l-35 -205l-127 -311h-39zM512 893l117 307h-27l35 209h76l-35 -205l-129 -311h-37z" />
    <glyph glyph-name="quotedblbase" unicode="&#x201e;" horiz-adv-x="733" 
d="M74 0l35 211h73l-32 -205l-127 -311h-39l114 305h-24zM395 0l35 211h76l-35 -205l-127 -311h-39l117 305h-27z" />
    <glyph glyph-name="dagger" unicode="&#x2020;" horiz-adv-x="843" 
d="M166 971l8 55h301l66 383h61l-65 -383h301l-9 -55h-303l-164 -971h-61l164 971h-299z" />
    <glyph glyph-name="daggerdbl" unicode="&#x2021;" horiz-adv-x="843" 
d="M166 971l8 55h301l66 383h61l-65 -383h301l-9 -55h-303l-90 -533h303l-8 -55h-303l-66 -383h-61l66 383h-299l8 55h299l90 533h-299z" />
    <glyph glyph-name="bullet" unicode="&#x2022;" horiz-adv-x="999" 
d="M492 164q-150 0 -251 101t-102 251t101 251t252 101t250 -101t102 -251q0 -150 -101 -251t-251 -101z" />
    <glyph glyph-name="ellipsis" unicode="&#x2026;" horiz-adv-x="1265" 
d="M82 0l35 215h80l-37 -215h-78zM504 0l37 215h77l-34 -215h-80zM924 0l37 215h79l-36 -215h-80z" />
    <glyph glyph-name="perthousand" unicode="&#x2030;" horiz-adv-x="2240" 
d="M1618 254q0 -100 44 -160t139 -59q95 0 169 84q105 119 109 330q0 221 -176 221q-103 0 -177 -84t-98 -224q-10 -57 -10 -108zM1796 -14q-123 0 -181 72t-59 196q0 51 11 108q27 156 117 256q92 100 216 100t181 -72q57 -73 57 -195q0 -224 -128 -365q-91 -100 -214 -100
zM897 254q0 -100 44 -160t139 -59q95 0 169 84t99 223q10 57 10 107q0 221 -176 221q-104 0 -177 -84t-98 -224q-10 -57 -10 -108zM1075 -14q-123 0 -181 72t-58 196q0 51 10 108q27 156 118 256t215 100t181 -72q57 -73 57 -195q0 -224 -128 -365q-91 -100 -214 -100z
M281 -25l966 1459h53l-966 -1459h-53zM674 1153q0 221 -184 221q-96 0 -170 -84q-108 -122 -109 -337q0 -214 184 -214q96 0 170 84t99 224q10 57 10 106zM391 690q-123 0 -181 74t-58 194q0 224 128 365q91 100 214 100q123 1 181 -73t58 -195q0 -51 -10 -108
q-27 -157 -118 -257t-214 -100z" />
    <glyph glyph-name="guilsinglleft" unicode="&#x2039;" horiz-adv-x="604" 
d="M350 98l-233 420l375 416h57l-361 -422l218 -414h-56z" />
    <glyph glyph-name="guilsinglright" unicode="&#x203a;" horiz-adv-x="604" 
d="M45 98l363 422l-220 414h56l233 -420l-373 -416h-59z" />
    <glyph glyph-name="fraction" unicode="&#x2044;" horiz-adv-x="77" 
d="M-440 -25l966 1459h54l-967 -1459h-53z" />
    <glyph glyph-name="uni2070" unicode="&#x2070;" 
d="M452 1051q96 0 171 84q74 84 98 223q10 57 10 106q0 222 -184 222q-96 0 -170 -84q-105 -119 -109 -332q0 -219 184 -219zM448 1001q-123 0 -181 74t-58 195q0 51 10 108q27 156 118 256t214 100t181 -73q58 -74 59 -195q0 -51 -11 -108q-27 -156 -118 -256t-214 -101z
" />
    <glyph glyph-name="uni2074" unicode="&#x2074;" 
d="M254 1247h332l69 398zM178 1200l4 39l496 487h49l-82 -479h123l-6 -47h-125l-31 -184h-59l31 184h-400z" />
    <glyph glyph-name="uni2075" unicode="&#x2075;" 
d="M225 1200h54q2 -70 48 -110t129 -41q83 0 143 40t83 105q14 30 14 90t-49 102t-127 41q-119 0 -203 -100l-59 4l92 389h441l-7 -51h-389l-69 -276h4q82 82 192 82q110 -1 171 -55q63 -54 63 -160t-87 -182q-87 -77 -204 -77q-117 1 -179 55t-61 144z" />
    <glyph glyph-name="uni2076" unicode="&#x2076;" 
d="M281 1213q0 -164 180 -164q82 0 144 46t81 119q8 23 8 56q0 74 -50 116t-135 41q-85 0 -157 -64q-71 -65 -71 -150zM217 1243q0 66 10 131q31 184 131 272t209 89q109 -1 163 -51t54 -142h-57q0 145 -156 146q-92 0 -174 -77t-110 -241l-6 -33q33 61 99 100q68 38 158 38
q90 -1 152 -55t64 -160q0 -106 -87 -182q-87 -77 -203 -77q-116 -1 -181 59q-66 60 -66 183z" />
    <glyph glyph-name="uni2077" unicode="&#x2077;" 
d="M307 1016l449 651h-471l8 53h543l-5 -37l-456 -667h-68z" />
    <glyph glyph-name="uni2078" unicode="&#x2078;" 
d="M336 1536q0 -128 176 -129q84 0 148 43q64 42 65 108q0 66 -49 98t-131 32q-81 0 -145 -43t-64 -109zM252 1176q0 -60 52 -94t149 -34t169 49q70 49 70 121t-53 108t-144 36t-167 -48t-76 -138zM752 1229q0 -103 -89 -165t-213 -62t-190 44q-67 45 -67 126q0 82 58 138
t144 74v2q-55 12 -86 50t-30 88q0 94 81 152q82 58 188 58t172 -43q64 -44 64 -116t-46 -122t-122 -67v-2q60 -14 98 -56t38 -99z" />
    <glyph glyph-name="uni2079" unicode="&#x2079;" 
d="M311 1466q0 -74 50 -116t135 -41t157 65t72 148q0 166 -178 166q-83 0 -145 -46q-92 -68 -91 -176zM223 1194h56q0 -145 155 -145q94 1 175 77t110 240q4 8 4 27q-35 -59 -101 -95t-155 -36q-90 0 -153 54q-62 54 -62 160t88 182q88 77 204 77q247 0 247 -242
q0 -53 -13 -131q-31 -184 -130 -272q-100 -88 -208 -88t-162 50t-55 142z" />
    <glyph glyph-name="parenleft.superior" unicode="&#x207d;" horiz-adv-x="358" 
d="M250 1212q0 203 81 379t181 277h53q-92 -94 -174 -278t-82 -386q0 -204 84 -336h-53q-90 141 -90 344z" />
    <glyph glyph-name="parenright.superior" unicode="&#x207e;" horiz-adv-x="358" 
d="M328 1530q0 202 -86 338h57q86 -141 86 -344q0 -204 -79 -380t-179 -276h-55q94 94 175 276q81 184 81 386z" />
    <glyph glyph-name="n.superior" unicode="&#x207f;" horiz-adv-x="808" 
d="M623 1733q121 0 184 -74t37 -227l-70 -416h-61l69 416q43 250 -172 249q-100 1 -180 -79t-104 -224l-62 -362h-61l121 704h59l-27 -139h2q92 152 265 152z" />
    <glyph glyph-name="uni2080" unicode="&#x2080;" 
d="M526 137q0 221 -184 221q-96 0 -170 -84q-106 -122 -108 -356q0 -76 44 -134q44 -60 140 -60t170 84t98 223q10 57 10 106zM243 -326q-123 0 -181 74t-58 195q0 51 10 108q27 156 118 256q91 101 214 101t181 -74t59 -195q0 -51 -11 -108q-27 -157 -118 -257t-214 -100z
" />
    <glyph glyph-name="uni2081" unicode="&#x2081;" 
d="M106 195l-20 43l291 155h41l-113 -653h221l-4 -51h-520l4 51h240l98 577z" />
    <glyph glyph-name="uni2082" unicode="&#x2082;" 
d="M479 318q-49 38 -131 38q-199 0 -242 -200h-53q25 127 107 188q82 62 189 62t172 -50t65 -128q0 -77 -42 -120t-80 -62q-38 -18 -73 -34t-43 -20l-84 -41q-92 -43 -143 -91t-68 -120h461l-4 -51h-530q25 121 88 187t178 120l84 39q6 2 30 13t30 14l28 14t26 15t22 15
t22 18t16 19q24 29 24 83t-49 92z" />
    <glyph glyph-name="uni2083" unicode="&#x2083;" 
d="M250 -279q98 1 168 49t70 120t-54 109q-53 36 -139 36h-62l5 45h61q92 0 157 43q64 43 64 109t-49 97q-49 32 -123 31q-195 0 -215 -163h-55q10 102 86 156q76 55 181 55t170 -44t65 -116t-46 -122t-124 -67v-2q63 -16 100 -57t37 -98q0 -104 -87 -166t-211 -62
q-125 0 -199 53t-54 164h57q-16 -88 42 -129q57 -41 155 -41z" />
    <glyph glyph-name="uni2084" unicode="&#x2084;" 
d="M49 -80h332l70 397zM-27 -127l4 39l496 487h49l-82 -479h123l-6 -47h-125l-31 -184h-59l31 184h-400z" />
    <glyph glyph-name="uni2085" unicode="&#x2085;" 
d="M20 -127h54q2 -70 48 -111t129 -41t143 40t83 106q15 31 15 91t-50 100q-50 42 -127 42q-119 0 -202 -100l-60 4l92 389h441l-6 -51h-390l-69 -276h4q81 82 191 82t172 -55q62 -53 62 -159t-86 -183q-87 -77 -204 -77q-116 0 -178 54t-62 145z" />
    <glyph glyph-name="uni2086" unicode="&#x2086;" 
d="M76 -114q0 -165 180 -165q82 1 144 47t81 119q8 23 8 56q0 73 -50 115t-135 42t-157 -64q-71 -65 -71 -150zM12 -84q0 66 11 131q31 184 131 272q100 89 208 89t163 -50q54 -50 55 -143h-58q0 145 -155 145q-92 0 -174 -76t-111 -241l-6 -33q33 61 99 100q67 38 158 38
t153 -55q62 -53 62 -159t-86 -183t-202 -77t-182 60t-66 182z" />
    <glyph glyph-name="uni2087" unicode="&#x2087;" 
d="M102 -311l449 651h-471l8 53h543l-4 -37l-457 -667h-68z" />
    <glyph glyph-name="uni2088" unicode="&#x2088;" 
d="M307 80q84 0 149 43q64 43 64 109t-49 97t-131 31t-145 -43t-63 -109t45 -97q46 -31 130 -31zM47 -152q0 -61 52 -94q51 -33 149 -33q98 1 169 49t71 120t-54 109q-53 36 -144 36q-91 -1 -167 -49t-76 -138zM-12 -155q0 81 58 137t144 75v2q-55 11 -86 49t-30 89
q0 94 82 152q82 59 188 59t171 -44t65 -116t-46 -122t-122 -67v-2q61 -14 98 -56t37 -99q0 -104 -89 -166q-88 -62 -212 -62t-191 45t-67 126z" />
    <glyph glyph-name="uni2089" unicode="&#x2089;" 
d="M520 195q0 165 -178 165q-82 0 -144 -46q-87 -65 -92 -175q0 -73 50 -115t136 -42q85 0 157 64q71 65 71 149zM18 -133h56q0 -145 155 -146q94 0 175 77t110 241q4 8 4 27q-34 -60 -100 -96t-156 -36t-152 54t-62 160t87 183q88 77 204 77q247 0 247 -242q0 -53 -13 -131
q-31 -185 -130 -273t-207 -88t-164 50q-54 50 -54 143z" />
    <glyph glyph-name="parenleft.inferior" unicode="&#x208d;" horiz-adv-x="358" 
d="M45 -115q0 203 81 379t181 277h53q-92 -93 -174 -277t-82 -388t84 -335h-53q-90 141 -90 344z" />
    <glyph glyph-name="parenright.inferior" unicode="&#x208e;" horiz-adv-x="358" 
d="M123 202q0 202 -86 339h57q86 -141 86 -344t-79 -379t-179 -277h-55q94 95 175 277t81 384z" />
    <glyph glyph-name="Euro" unicode="&#x20ac;" horiz-adv-x="1163" 
d="M1128 1065q-21 305 -310 305q-152 0 -283 -128t-201 -345h428l-10 -45h-430q-31 -111 -46 -277h433l-9 -45h-426v-43q0 -211 85 -329t251 -119q246 0 373 264h61q-135 -322 -444 -321q-197 0 -295 137t-98 370v41h-184l10 45h176q10 137 45 277h-178l12 45h180
q74 242 224 386t332 144t271 -96t97 -266h-64z" />
    <glyph glyph-name="afii61289" unicode="&#x2113;" horiz-adv-x="843" 
d="M598 1171q0 186 -113 187q-139 0 -139 -367v-289l4 -2q248 211 248 471zM186 338v151l-4 3l-121 -84l-24 49q78 63 149 125v278q0 209 37 322q37 114 113 182t173 68t153 -71t55 -179q0 -203 -138 -361q-67 -76 -114 -120t-119 -99v-223q0 -283 186 -283q129 0 242 164
l45 -33q-49 -119 -139 -185t-216 -67q-126 0 -202 81t-76 282z" />
    <glyph glyph-name="afii61352" unicode="&#x2116;" horiz-adv-x="2283" 
d="M1417 0l8 49h656l-8 -49h-656zM1481 379l8 51h655l-8 -51h-655zM1653 954q0 -88 58 -148q57 -60 161 -60t190 76q131 117 131 319q0 107 -57 167q-56 60 -160 60t-190 -77q-133 -119 -133 -337zM109 0l237 1409h62l686 -1292h2l219 1292h67l-237 -1409h-64l-686 1292h-4
l-217 -1292h-65zM1589 973q0 53 15 121q35 145 141 235t234 90q128 -1 203 -75t75 -203q0 -224 -155 -357q-105 -90 -233 -90t-204 75t-76 204z" />
    <glyph glyph-name="trademark" unicode="&#x2122;" horiz-adv-x="1531" 
d="M156 1360l8 49h577l-6 -49h-262l-111 -655h-57l113 655h-262zM723 705l121 704h78l186 -629h4l406 629h77l-120 -704h-58l111 622h-4l-402 -622h-49l-184 620h-2l-107 -620h-57z" />
    <glyph glyph-name="Omega" unicode="&#x2126;" horiz-adv-x="1425" 
d="M1282 952q0 184 -122 301t-310 117q-236 0 -415 -175t-179 -431q0 -160 86 -266t190 -133l-63 -365h-395l8 57h332l47 271q-115 50 -195 162t-80 272q0 278 202 472t470 193q215 0 354 -133q140 -133 140 -352t-142 -386t-321 -230l-45 -269h336l-9 -57h-399l64 365
q139 35 280 178q72 73 119 181t47 228z" />
    <glyph glyph-name="estimated" unicode="&#x212e;" horiz-adv-x="1740" 
d="M371 727h1007q8 0 8 12v396q0 29 -20 49q-201 205 -492 205t-495 -211q-23 -23 -23 -54v-385q1 -12 15 -12zM874 20q156 0 291 64t232 176h119q-113 -131 -282 -208t-362 -77q-338 0 -576 213q-238 212 -237 516q0 304 239 517q238 213 574 213t574 -213t237 -516v-21
h-1312q-14 0 -15 -8v-397q1 -23 21 -48q201 -211 497 -211z" />
    <glyph glyph-name="uni2153" unicode="&#x2153;" horiz-adv-x="1519" 
d="M289 -25l966 1459h54l-967 -1459h-53zM254 1210l-21 43l291 156h41l-112 -653h221l-4 -51h-520l4 51h239l99 577zM1084 33q97 0 166 48q69 49 69 121t-52 108t-141 36h-61l6 45h62q92 0 155 43q64 42 64 108t-49 98t-130 32t-139 -41t-69 -123h-54q10 102 85 156
q74 54 180 55q106 0 171 -44t65 -116t-47 -122q-46 -50 -124 -66v-2q63 -15 100 -57t37 -99q0 -103 -86 -165t-210 -62t-198 53t-55 164h56q-16 -88 43 -129t156 -41z" />
    <glyph glyph-name="uni2154" unicode="&#x2154;" horiz-adv-x="1519" 
d="M287 -25l966 1459h54l-967 -1459h-53zM1084 33q97 0 166 48q69 49 69 121t-52 108t-141 36h-61l6 45h62q92 0 155 43q64 42 64 108t-49 98t-130 32t-139 -41t-69 -123h-54q10 102 85 156q74 54 180 55q106 0 171 -44t65 -116t-47 -122q-46 -50 -124 -66v-2
q63 -15 100 -57t37 -99q0 -103 -86 -165t-210 -62t-198 53t-55 164h56q-16 -88 43 -129t156 -41zM627 1334q-49 38 -131 38q-199 0 -242 -201h-53q25 127 106 189q81 61 189 61t173 -50t65 -128t-41 -118q-40 -40 -74 -58q-35 -19 -75 -37t-48 -22l-84 -41q-92 -43 -144 -91
t-67 -120h461l-5 -51h-530q25 121 88 187t178 120l84 39q6 2 30 13t44 20t34 18q13 10 29 20t22 18t15 19q25 29 25 83t-49 92z" />
    <glyph glyph-name="uni2155" unicode="&#x2155;" horiz-adv-x="1519" 
d="M287 -25l966 1459h54l-967 -1459h-53zM254 1210l-21 43l291 156h41l-112 -653h221l-4 -51h-520l4 51h239l99 577zM852 184h55q2 -70 48 -110q47 -40 129 -41q82 0 142 40q97 65 97 181q0 74 -49 116t-127 42q-115 0 -203 -101l-57 4l90 390h440l-4 -52h-389l-70 -276h2
q86 82 194 82q108 -1 172 -55q62 -54 62 -160t-88 -182t-204 -76t-178 54t-62 144z" />
    <glyph glyph-name="uni2156" unicode="&#x2156;" horiz-adv-x="1519" 
d="M285 -25l966 1459h54l-967 -1459h-53zM627 1334q-49 38 -131 38q-199 0 -242 -201h-53q25 127 106 189q81 61 189 61t173 -50t65 -128t-41 -118q-40 -40 -74 -58q-35 -19 -75 -37t-48 -22l-84 -41q-92 -43 -144 -91t-67 -120h461l-5 -51h-530q25 121 88 187t178 120
l84 39q6 2 30 13t44 20t34 18q13 10 29 20t22 18t15 19q25 29 25 83t-49 92zM852 184h55q2 -70 48 -110q47 -40 129 -41q82 0 142 40q97 65 97 181q0 74 -49 116t-127 42q-115 0 -203 -101l-57 4l90 390h440l-4 -52h-389l-70 -276h2q86 82 194 82q108 -1 172 -55
q62 -54 62 -160t-88 -182t-204 -76t-178 54t-62 144z" />
    <glyph glyph-name="uni2157" unicode="&#x2157;" horiz-adv-x="1519" 
d="M281 -25l966 1459h53l-966 -1459h-53zM398 737q97 0 167 48t70 121t-53 109t-140 36h-61l4 45h61q92 0 157 43t65 108t-50 97t-122 32q-195 0 -215 -164h-56q10 102 86 156q75 54 181 55q106 0 171 -44q65 -43 65 -115t-47 -122q-46 -50 -124 -67v-2q63 -16 100 -57
t37 -98q0 -104 -87 -166t-211 -62t-198 53t-55 164h58q-16 -88 42 -129t155 -41zM852 184h55q2 -70 48 -110q47 -40 129 -41q82 0 142 40q97 65 97 181q0 74 -49 116t-127 42q-115 0 -203 -101l-57 4l90 390h440l-4 -52h-389l-70 -276h2q86 82 194 82q108 -1 172 -55
q62 -54 62 -160t-88 -182t-204 -76t-178 54t-62 144z" />
    <glyph glyph-name="uni2158" unicode="&#x2158;" horiz-adv-x="1519" 
d="M197 936h331l70 397zM281 -25l966 1459h53l-966 -1459h-53zM852 184h55q2 -70 48 -110q47 -40 129 -41q82 0 142 40q97 65 97 181q0 74 -49 116t-127 42q-115 0 -203 -101l-57 4l90 390h440l-4 -52h-389l-70 -276h2q86 82 194 82q108 -1 172 -55q62 -54 62 -160t-88 -182
t-204 -76t-178 54t-62 144zM121 889l4 39l496 487h49l-82 -479h123l-6 -47h-125l-31 -184h-60l31 184h-399z" />
    <glyph glyph-name="uni2159" unicode="&#x2159;" horiz-adv-x="1519" 
d="M291 -25l966 1459h54l-969 -1459h-51zM254 1210l-21 43l291 156h41l-112 -653h221l-4 -51h-520l4 51h239l99 577zM907 192q-1 -88 53 -124t132 -35q78 0 140 46q89 66 89 175q0 74 -49 116t-134 42t-158 -66t-73 -154zM844 227q0 66 10 131q33 184 132 272q100 88 208 89
q108 0 162 -50t55 -143h-57q0 145 -156 146q-92 0 -173 -77t-110 -241l-6 -28q33 59 100 96t157 37q90 -1 154 -55q62 -54 62 -160t-88 -182t-204 -76q-246 2 -246 241z" />
    <glyph glyph-name="uni215A" unicode="&#x215a;" horiz-adv-x="1519" 
d="M281 -25l966 1459h53l-966 -1459h-53zM168 889h53q2 -70 48 -111t129 -41t144 40q60 40 83 106q14 31 14 90t-49 101t-127 42q-119 0 -203 -100l-59 4l92 389h440l-6 -51h-389l-70 -277h4q82 82 192 82t172 -54q62 -53 62 -159t-87 -183t-204 -77t-178 54t-61 145z
M907 197q0 -83 50 -123t131 -41q81 0 144 46q89 66 89 175q0 74 -49 116t-134 42t-158 -66t-73 -149zM844 227q0 66 10 131q33 184 132 272q100 88 208 89q108 0 162 -50t55 -143h-57q0 145 -156 146q-92 0 -173 -77t-110 -241q-4 -12 -4 -20q35 55 102 90t155 35
q88 -1 152 -55q62 -54 62 -160t-88 -182t-204 -76q-246 2 -246 241z" />
    <glyph glyph-name="uni215B" unicode="&#x215b;" horiz-adv-x="1519" 
d="M289 -25l966 1459h54l-967 -1459h-53zM254 1210l-21 43l291 156h41l-112 -653h221l-4 -51h-520l4 51h239l99 577zM1140 391q85 0 148 43q64 42 64 108t-49 98t-130 32t-146 -43t-65 -109t47 -98q46 -31 131 -31zM1319 202q-1 144 -197 144q-92 0 -166 -48t-75 -138
q0 -61 52 -94t148 -33t167 48q71 49 71 121zM1378 213q0 -103 -88 -165t-212 -62t-190 45t-67 126t57 137t144 75v2q-115 25 -115 128t81 161q82 58 188 58t171 -43q65 -44 65 -116t-47 -122q-46 -50 -122 -66v-2q61 -15 98 -57t37 -99z" />
    <glyph glyph-name="uni215C" unicode="&#x215c;" horiz-adv-x="1519" 
d="M281 -25l966 1459h53l-966 -1459h-53zM1140 391q85 0 148 43q64 42 64 108t-49 98t-130 32t-146 -43t-65 -109t47 -98q46 -31 131 -31zM398 737q97 0 167 48t70 121t-53 109t-140 36h-61l4 45h61q92 0 157 43t65 108t-50 97t-122 32q-195 0 -215 -164h-56q10 102 86 156
q75 54 181 55q106 0 171 -44q65 -43 65 -115t-47 -122q-46 -50 -124 -67v-2q63 -16 100 -57t37 -98q0 -104 -87 -166t-211 -62t-198 53t-55 164h58q-16 -88 42 -129t155 -41zM1319 202q-1 144 -197 144q-92 0 -166 -48t-75 -138q0 -61 52 -94t148 -33t167 48q71 49 71 121z
M1378 213q0 -103 -88 -165t-212 -62t-190 45t-67 126t57 137t144 75v2q-115 25 -115 128t81 161q82 58 188 58t171 -43q65 -44 65 -116t-47 -122q-46 -50 -122 -66v-2q61 -15 98 -57t37 -99z" />
    <glyph glyph-name="uni215D" unicode="&#x215d;" horiz-adv-x="1519" 
d="M279 -25l966 1459h53l-966 -1459h-53zM1140 391q85 0 148 43q64 42 64 108t-49 98t-130 32t-146 -43t-65 -109t47 -98q46 -31 131 -31zM168 889h53q2 -70 48 -111t129 -41t144 40q60 40 83 106q14 31 14 90t-49 101t-127 42q-119 0 -203 -100l-59 4l92 389h440l-6 -51
h-389l-70 -277h4q82 82 192 82t172 -54q62 -53 62 -159t-87 -183t-204 -77t-178 54t-61 145zM1319 202q-1 144 -197 144q-92 0 -166 -48t-75 -138q0 -61 52 -94t148 -33t167 48q71 49 71 121zM1378 213q0 -103 -88 -165t-212 -62t-190 45t-67 126t57 137t144 75v2
q-115 25 -115 128t81 161q82 58 188 58t171 -43q65 -44 65 -116t-47 -122q-46 -50 -122 -66v-2q61 -15 98 -57t37 -99z" />
    <glyph glyph-name="uni215E" unicode="&#x215e;" horiz-adv-x="1519" 
d="M250 705l448 651h-471l9 53h542l-4 -37l-457 -667h-67zM270 -25l967 1459h53l-966 -1459h-54zM1140 391q85 0 148 43q64 42 64 108t-49 98t-130 32t-146 -43t-65 -109t47 -98q46 -31 131 -31zM1319 202q-1 144 -197 144q-92 0 -166 -48t-75 -138q0 -61 52 -94t148 -33
t167 48q71 49 71 121zM1378 213q0 -103 -88 -165t-212 -62t-190 45t-67 126t57 137t144 75v2q-115 25 -115 128t81 161q82 58 188 58t171 -43q65 -44 65 -116t-47 -122q-46 -50 -122 -66v-2q61 -15 98 -57t37 -99z" />
    <glyph glyph-name="uni2190" unicode="&#x2190;" horiz-adv-x="1351" 
d="M459 543h835v-51h-835q-272 0 -312 2l420 -416l-35 -35l-475 473l475 473l35 -35l-420 -415q39 4 312 4z" />
    <glyph glyph-name="uni2191" unicode="&#x2191;" horiz-adv-x="1351" 
d="M702 733v-835h-51v835q0 272 2 311l-415 -419l-35 34l473 476l473 -476l-35 -34l-416 419q4 -39 4 -311z" />
    <glyph glyph-name="uni2192" unicode="&#x2192;" horiz-adv-x="1351" 
d="M893 492h-836v51h836q272 0 309 -4l-418 415l35 35l475 -473l-475 -473l-35 35l418 416q-37 -2 -309 -2z" />
    <glyph glyph-name="uni2193" unicode="&#x2193;" horiz-adv-x="1351" 
d="M651 299v836h51v-836q0 -272 -4 -311l416 420l35 -35l-473 -475l-473 475l35 35l415 -420q-2 39 -2 311z" />
    <glyph glyph-name="uni2196" unicode="&#x2196;" horiz-adv-x="1351" 
d="M238 965h669v-47h-588q19 -18 173 -172t165 -168l469 -467l-34 -37l-469 471q-4 6 -164 165t-174 175v-590h-47v670z" />
    <glyph glyph-name="uni2197" unicode="&#x2197;" horiz-adv-x="1351" 
d="M457 918v47h669v-670h-47v590l-807 -811l-34 37l469 467q9 12 163 166l174 174h-587z" />
    <glyph glyph-name="uni2198" unicode="&#x2198;" horiz-adv-x="1351" 
d="M457 74v47h587l-173 173q-159 159 -164 165l-469 469l34 37l467 -471q12 -10 167 -164t173 -174v587h47v-669h-669z" />
    <glyph glyph-name="uni2199" unicode="&#x2199;" horiz-adv-x="1351" 
d="M285 156q338 338 807 809l34 -37l-469 -469q-6 -4 -164 -164t-174 -174h588v-47h-669v669h47v-587z" />
    <glyph glyph-name="partialdiff" unicode="&#x2202;" horiz-adv-x="1163" 
d="M421 39q130 0 232 54q173 91 257 297q34 83 34 149q0 153 -95 229t-226 76q-203 0 -354 -150t-150 -364q0 -135 86 -213t216 -78zM51 326q0 236 168 406t402 169q141 0 253 -78t115 -229v-14q66 212 66 406t-87 289t-236 95q-150 0 -258 -85t-163 -228h-63
q59 170 186 270q126 100 304 100q178 1 281 -109t103 -337q0 -119 -32 -283q-60 -315 -236 -516t-434 -200q-160 0 -264 93t-105 251z" />
    <glyph glyph-name="Delta" unicode="&#x2206;" horiz-adv-x="1232" 
d="M752 1337l-680 -1280h927zM-29 0l754 1409h78l278 -1409h-1110z" />
    <glyph glyph-name="product" unicode="&#x220f;" horiz-adv-x="1406" 
d="M109 0l245 1409h1002l-244 -1409h-65l233 1352h-872l-234 -1352h-65z" />
    <glyph glyph-name="summation" unicode="&#x2211;" horiz-adv-x="1030" 
d="M-29 0l9 41l579 666l-348 657l6 45h893l-8 -57h-813l348 -650l-563 -645h825l-8 -57h-920z" />
    <glyph glyph-name="minus" unicode="&#x2212;" horiz-adv-x="1163" 
d="M117 489l8 58h919l-8 -58h-919z" />
    <glyph glyph-name="uni2215" unicode="&#x2215;" horiz-adv-x="77" 
d="M-440 -25l966 1459h54l-967 -1459h-53z" />
    <glyph glyph-name="uni2219" unicode="&#x2219;" horiz-adv-x="425" 
d="M152 412l34 209h80l-35 -209h-79z" />
    <glyph glyph-name="radical" unicode="&#x221a;" horiz-adv-x="1204" 
d="M109 705l8 55l250 74l188 -758h2l711 1333h69l-753 -1409h-74l-197 766z" />
    <glyph glyph-name="infinity" unicode="&#x221e;" horiz-adv-x="1449" 
d="M1051 250q121 0 207 99t85 226q0 91 -54 149t-148 58q-166 0 -385 -266q121 -266 295 -266zM301 250q166 0 385 266q-121 266 -295 266q-121 0 -207 -98t-86 -227q0 -91 54 -149t149 -58zM297 199q-119 1 -187 71t-69 183q0 157 104 269t250 112q213 0 334 -273
q221 272 416 273q119 0 187 -71t69 -183q-1 -156 -105 -269t-249 -112q-115 -1 -199 75t-135 195q-219 -270 -416 -270z" />
    <glyph glyph-name="integral" unicode="&#x222b;" horiz-adv-x="745" 
d="M-23 -268q147 0 222 92q74 92 94 287l123 1095q25 217 113 326q89 109 268 108h61l-6 -57h-55q-147 0 -220 -92t-96 -285l-123 -1095q-24 -215 -114 -325t-267 -110h-61l6 56h55z" />
    <glyph glyph-name="approxequal" unicode="&#x2248;" horiz-adv-x="1163" 
d="M758 190q-86 0 -157 48t-137 96q-66 47 -126 47q-152 0 -184 -203h-58q20 127 86 194t160 66q60 0 118 -30t97 -65q103 -95 195 -95q152 0 184 201h57q-20 -127 -85 -193q-64 -66 -150 -66zM416 854q60 0 118 -30t97 -66q104 -97 194 -96q152 0 185 202h57
q-20 -128 -85 -194t-161 -66q-59 0 -117 30t-98 66q-103 96 -194 97q-152 0 -185 -205h-57q20 126 86 194t160 68z" />
    <glyph glyph-name="notequal" unicode="&#x2260;" horiz-adv-x="1163" 
d="M156 709l8 55h553l227 311l43 -28l-205 -283h295l-8 -55h-328l-272 -375h537l-9 -58h-569l-225 -311l-43 29l205 282h-281l8 58h314l272 375h-522z" />
    <glyph glyph-name="lessequal" unicode="&#x2264;" horiz-adv-x="1163" 
d="M61 0l11 57h856l-8 -57h-859zM164 586l6 55l920 373l-9 -62l-850 -340l736 -338l-11 -59z" />
    <glyph glyph-name="greaterequal" unicode="&#x2265;" horiz-adv-x="1163" 
d="M61 0l11 57h856l-8 -57h-859zM221 954l10 60l793 -373l-8 -55l-918 -371l6 61l850 336z" />
    <glyph glyph-name="uni25A0" unicode="&#x25a0;" horiz-adv-x="1409" 
d="M0 0v1409h1409v-1409h-1409z" />
    <glyph glyph-name="uni25A1" unicode="&#x25a1;" horiz-adv-x="1409" 
d="M59 57h1291v1295h-1291v-1295zM0 0v1409h1409v-1409h-1409z" />
    <glyph glyph-name="uni25B6" unicode="&#x25b6;" horiz-adv-x="1017" 
d="M90 -25v1049l903 -524z" />
    <glyph glyph-name="uni25B7" unicode="&#x25b7;" horiz-adv-x="1017" 
d="M150 76l737 424l-737 424v-848zM90 -25v1049l903 -524z" />
    <glyph glyph-name="uni25C0" unicode="&#x25c0;" horiz-adv-x="1017" 
d="M25 500l903 524v-1049z" />
    <glyph glyph-name="uni25C1" unicode="&#x25c1;" horiz-adv-x="1017" 
d="M131 500l735 -424v848zM25 500l903 524v-1049z" />
    <glyph glyph-name="lozenge" unicode="&#x25ca;" horiz-adv-x="1308" 
d="M186 702l387 -649l611 652l-389 649zM535 0l-418 705l655 704h64l419 -709l-657 -700h-63z" />
    <glyph glyph-name="uni25CB" unicode="&#x25cb;" horiz-adv-x="1130" 
d="M1010 502q0 196 -128 328t-316 132t-317 -133q-128 -134 -128 -331t128 -329t316 -132t317 134q128 134 128 331zM59 498q-1 220 147 370t360 150t358 -148t147 -368q0 -219 -147 -370q-148 -150 -360 -150t-358 148t-147 368z" />
    <glyph glyph-name="uni25CF" unicode="&#x25cf;" horiz-adv-x="1130" 
d="M59 498q-1 220 147 370t360 150t358 -148t147 -368q0 -219 -147 -370q-148 -150 -360 -150t-358 148t-147 368z" />
    <glyph glyph-name="uni25FB" unicode="&#x25fb;" horiz-adv-x="999" 
d="M59 55h881v891h-881v-891zM0 0v999h999v-999h-999z" />
    <glyph glyph-name="uni25FC" unicode="&#x25fc;" horiz-adv-x="999" 
d="M0 0v999h999v-999h-999z" />
    <glyph glyph-name="uni2605" unicode="&#x2605;" horiz-adv-x="1118" 
d="M217 27l139 374l-331 222l10 32l399 -18l109 387h32l107 -387l401 18l11 -32l-334 -222l141 -374l-29 -21l-313 248l-313 -248z" />
    <glyph glyph-name="dotlessi.sc" unicode="&#xe08e;" horiz-adv-x="460" 
d="M109 0l180 1065h63l-180 -1065h-63z" />
    <glyph glyph-name="g.superior" unicode="&#xe0a3;" horiz-adv-x="835" 
d="M270 1284q0 -106 58 -168t155 -61q127 1 220 117t94 272q-1 109 -59 172t-152 63q-128 -1 -222 -113t-94 -282zM762 1178q-104 -174 -308 -174q-102 0 -174 76t-73 202q0 197 110 323q111 126 261 126q92 -1 160 -51t87 -134h2l29 174h59l-116 -682q-61 -350 -375 -350
q-130 0 -204 60t-56 182h55q-14 -94 43 -144t174 -49q117 0 196 69t107 232l25 140h-2z" />
    <glyph glyph-name="germandbls.sc" unicode="&#xe0a4;" horiz-adv-x="2035" 
d="M1604 1083q188 0 282 -81t74 -209h-66q16 104 -60 170q-78 65 -234 65t-248 -68t-92 -166q0 -100 64 -147t158 -64q93 -17 185 -37t157 -80q65 -58 64 -165q0 -145 -110 -232t-314 -87t-304 82t-75 229h66q-21 -123 63 -190t251 -67t261 70t94 174t-64 154
q-65 48 -157 66t-184 38t-157 78q-65 57 -64 160q0 135 111 221t299 86zM803 295q0 90 -65 139q-64 48 -156 66t-184 38t-158 78q-64 57 -64 160q0 135 111 221t299 86t282 -81t74 -209h-65q16 104 -61 170q-78 65 -234 65t-248 -68t-92 -166q0 -100 64 -147t158 -64
q93 -17 185 -37t157 -80q65 -58 64 -165q0 -145 -110 -232t-314 -87q-203 0 -303 82t-75 229h65q-20 -123 64 -190q85 -67 251 -67t261 70q94 70 94 189z" />
    <glyph glyph-name="onesuperior" unicode="&#xe105;" 
d="M311 1522l-20 43l291 155h41l-113 -653h221l-4 -51h-520l4 51h240l98 578z" />
    <glyph glyph-name="twosuperior" unicode="&#xe107;" 
d="M726 1682q65 -50 65 -128t-46 -122q-18 -18 -27 -28t-44 -27q-35 -18 -74 -36t-47 -22l-84 -41q-92 -43 -143 -91t-68 -120h461l-4 -51h-531q25 122 88 188t179 119l84 39q26 9 47 20q20 11 40 21t27 15q7 6 23 16t21 17t23 27t17 74q0 54 -49 94q-49 38 -131 37
q-199 0 -242 -200h-53q25 127 107 188t189 61t172 -50z" />
    <glyph glyph-name="threesuperior" unicode="&#xe108;" 
d="M456 1049q98 0 167 48q69 49 69 121t-53 108t-139 36h-62l4 45h62q92 0 156 43q64 42 65 108q0 66 -49 98t-123 32q-195 0 -215 -164h-55q10 102 86 156t181 54t170 -43q64 -44 64 -116t-46 -122t-124 -67v-2q62 -16 100 -57t38 -98q0 -103 -87 -165t-211 -62t-199 52
q-74 54 -54 165h57q-16 -88 42 -129t156 -41z" />
    <glyph glyph-name="cent.denominator" unicode="&#xf629;" 
d="M66 303q0 129 84 216t212 95l19 101h55l-20 -101q82 -8 135 -55t53 -123h-57q0 57 -45 95t-136 38q-91 1 -165 -73t-74 -172t50 -143q50 -46 130 -46t138 38t79 95h58q-20 -72 -89 -123t-161 -57l-19 -98h-53l16 98q-98 8 -154 66t-56 149z" />
    <glyph glyph-name="dollar.denominator" unicode="&#xf62a;" 
d="M286 33q98 0 162 45q64 46 64 112t-42 97t-101 45t-119 28t-102 52t-42 110q0 74 67 130t177 63l21 110h55l-20 -112q88 -9 144 -57t58 -132h-55q-2 70 -53 107t-137 37q-87 0 -143 -41t-56 -101t42 -87q42 -28 102 -41t120 -29q60 -15 101 -55q42 -40 42 -105
q0 -96 -73 -156q-74 -59 -193 -65l-20 -125h-56l23 125q-100 6 -161 63q-60 58 -52 148h55q-6 -72 44 -119t148 -47z" />
    <glyph glyph-name="hyphen.denominator" unicode="&#xf62b;" horiz-adv-x="567" 
d="M47 328l8 53h402l-8 -53h-402z" />
    <glyph glyph-name="parenleft.denominator" unicode="&#xf62c;" horiz-adv-x="358" 
d="M78 196q0 202 81 379q81 176 181 277h53q-92 -94 -174 -278t-82 -386q0 -204 84 -335h-53q-90 141 -90 343z" />
    <glyph glyph-name="parenright.denominator" unicode="&#xf62d;" horiz-adv-x="358" 
d="M156 514q0 203 -86 338h57q86 -142 86 -344t-79 -378t-179 -277h-55q94 94 175 276t81 385z" />
    <glyph glyph-name="cent.numerator" unicode="&#xf62e;" 
d="M180 1008q0 129 84 216t213 95l19 100h55l-21 -100q82 -8 136 -55t53 -123h-57q0 57 -46 95t-136 38t-164 -74t-74 -171t50 -143t130 -46t138 38t79 95h57q-20 -72 -89 -123t-161 -57l-18 -99h-53l16 99q-99 9 -155 67t-56 148z" />
    <glyph glyph-name="dollar.numerator" unicode="&#xf62f;" 
d="M400 737q97 0 162 45q65 46 65 112t-42 97q-41 31 -101 45t-119 28q-144 34 -144 162q0 74 67 130t177 63l20 111h56l-21 -113q88 -8 144 -56t59 -132h-55q-2 71 -54 107t-137 36q-86 0 -142 -41t-56 -100t42 -87t102 -41q59 -13 119 -29t102 -56q42 -39 42 -105
q0 -96 -74 -155t-192 -66l-21 -125h-55l23 125q-101 6 -161 64t-52 147h55q-6 -72 44 -119t147 -47z" />
    <glyph glyph-name="hyphen.numerator" unicode="&#xf630;" horiz-adv-x="567" 
d="M162 1032l8 53h401l-8 -53h-401z" />
    <glyph glyph-name="parenleft.numerator" unicode="&#xf631;" horiz-adv-x="358" 
d="M193 901q0 203 80 379q81 176 182 276h53q-92 -94 -174 -277t-82 -387t84 -335h-53q-90 141 -90 344z" />
    <glyph glyph-name="parenright.numerator" unicode="&#xf632;" horiz-adv-x="358" 
d="M270 1218q0 202 -86 338h58q86 -142 86 -344t-79 -378t-179 -277h-56q94 95 175 277t81 384z" />
    <glyph glyph-name="h.superior" unicode="&#xf637;" horiz-adv-x="808" 
d="M610 1681q-100 1 -180 -79t-104 -224l-62 -362h-61l180 1057h61l-36 -218q0 -3 -12 -69t-25 -132q-12 -66 -15 -75h2q88 154 265 154q121 0 183 -73t38 -228l-70 -416h-61l69 416q43 249 -172 249z" />
    <glyph glyph-name="zero.denominator" unicode="&#xf655;" 
d="M96 254q0 -219 184 -219q96 0 171 84q74 84 98 223q10 57 10 107q0 221 -184 221q-96 0 -170 -84t-99 -224q-10 -57 -10 -108zM276 -14q-123 0 -181 74t-58 194q0 51 10 108q27 156 118 256t214 100t181 -73q58 -74 58 -194q0 -224 -128 -365q-91 -100 -214 -100z" />
    <glyph glyph-name="one.denominator" unicode="&#xf656;" 
d="M139 506l-20 43l291 156h41l-113 -654h221l-4 -51h-520l4 51h240l98 578z" />
    <glyph glyph-name="two.denominator" unicode="&#xf657;" 
d="M381 668q-199 0 -242 -201h-53q25 127 107 188t189 61t172 -49q64 -50 64 -128t-45 -123q-18 -18 -27 -28t-38 -24t-39 -20t-45 -21t-43 -20l-84 -41q-92 -43 -143 -91t-68 -120h461l-4 -51h-531q25 122 88 188t179 119l83 39q29 10 48 20q20 11 40 21t27 15q7 6 23 16
t21 17t23 28t17 74q0 55 -49 93t-131 38z" />
    <glyph glyph-name="three.denominator" unicode="&#xf658;" 
d="M284 33q98 0 167 48q69 49 69 121t-53 108t-139 36h-62l4 45h62q92 0 156 43q64 42 65 108q0 66 -49 98t-123 32q-195 0 -215 -164h-55q10 102 86 156t181 55q105 0 170 -44q64 -44 64 -116t-46 -122t-124 -66v-2q62 -15 100 -57t38 -99q0 -103 -87 -165t-211 -62
t-199 53q-74 53 -54 164h57q-16 -88 42 -129t156 -41z" />
    <glyph glyph-name="four.denominator" unicode="&#xf659;" 
d="M82 231h332l69 398zM6 184l4 39l496 488h49l-82 -480h123l-6 -47h-125l-31 -184h-59l31 184h-400z" />
    <glyph glyph-name="five.denominator" unicode="&#xf65a;" 
d="M53 184h53q2 -70 48 -110t130 -41q83 0 143 40t83 105q14 30 14 90t-49 102t-127 42q-119 0 -203 -101l-59 4l92 390h440l-6 -52h-389l-69 -276h4q82 82 191 82q109 -1 171 -55t64 -160q0 -106 -87 -182t-204 -76t-179 54t-61 144z" />
    <glyph glyph-name="six.denominator" unicode="&#xf65b;" 
d="M337 412q-85 0 -157 -65t-71 -150q0 -164 180 -164q82 0 144 46t81 120q8 23 8 55q0 74 -50 116t-135 42zM45 227q0 66 10 131q31 184 131 272t209 89q109 0 163 -50t54 -143h-57q0 145 -156 146q-92 0 -174 -77t-110 -241l-6 -32q33 61 99 99t158 38q90 -1 152 -55
t64 -160q0 -106 -87 -182t-203 -76t-181 59q-66 59 -66 182z" />
    <glyph glyph-name="seven.denominator" unicode="&#xf65c;" 
d="M135 0l449 651h-471l8 54h543l-5 -37l-456 -668h-68z" />
    <glyph glyph-name="eight.denominator" unicode="&#xf65d;" 
d="M164 520q0 -128 176 -129q84 0 148 43q64 42 65 108q0 66 -49 98t-131 32q-81 0 -145 -43t-64 -109zM80 160q0 -61 52 -94t149 -33t169 48q70 49 70 121t-53 108t-144 36t-167 -48t-76 -138zM580 213q0 -103 -90 -165t-212 -62t-190 45t-68 126t58 137t145 75v2
q-55 12 -86 49t-31 88q0 94 82 152t188 58t172 -43q64 -44 64 -116t-46 -122t-122 -66v-2q60 -15 98 -57t38 -99z" />
    <glyph glyph-name="nine.denominator" unicode="&#xf65e;" 
d="M324 293q85 1 157 65t72 148q0 166 -178 166q-83 0 -145 -46q-92 -67 -91 -175q0 -74 50 -116t135 -42zM51 178h55q0 -145 156 -145q94 0 175 77t110 240q4 8 4 27q-35 -59 -101 -95t-155 -36q-90 0 -153 54q-62 54 -62 160t88 182q88 77 204 77q248 0 246 -242
q0 -53 -12 -131q-31 -184 -130 -272q-100 -88 -208 -88t-163 50q-54 50 -54 142z" />
    <glyph glyph-name="comma.denominator" unicode="&#xf65f;" horiz-adv-x="307" 
d="M29 0l24 139h66l-25 -137l-88 -209h-33l78 207h-22z" />
    <glyph glyph-name="period.denominator" unicode="&#xf660;" horiz-adv-x="307" 
d="M29 0l24 139h66l-25 -139h-65z" />
    <glyph glyph-name="zero.numerator" unicode="&#xf661;" 
d="M674 1153q0 221 -184 221q-96 0 -170 -84q-108 -122 -109 -337q0 -214 184 -214q96 0 170 84t99 224q10 57 10 106zM391 690q-123 0 -181 74t-58 194q0 224 128 365q91 100 214 100q123 1 181 -73t58 -195q0 -51 -10 -108q-27 -157 -118 -257t-214 -100z" />
    <glyph glyph-name="one.numerator" unicode="&#xf662;" 
d="M254 1210l-21 43l291 156h41l-112 -653h221l-4 -51h-520l4 51h239l99 577z" />
    <glyph glyph-name="two.numerator" unicode="&#xf663;" 
d="M627 1334q-49 38 -131 38q-199 0 -242 -201h-53q25 127 106 189q81 61 189 61t173 -50t65 -128t-41 -118q-40 -40 -74 -58q-35 -19 -75 -37t-48 -22l-84 -41q-92 -43 -144 -91t-67 -120h461l-5 -51h-530q25 121 88 187t178 120l84 39q6 2 30 13t44 20t34 18q13 10 29 20
t22 18t15 19q25 29 25 83t-49 92z" />
    <glyph glyph-name="three.numerator" unicode="&#xf664;" 
d="M398 737q97 0 167 48t70 121t-53 109t-140 36h-61l4 45h61q92 0 157 43t65 108t-50 97t-122 32q-195 0 -215 -164h-56q10 102 86 156q75 54 181 55q106 0 171 -44q65 -43 65 -115t-47 -122q-46 -50 -124 -67v-2q63 -16 100 -57t37 -98q0 -104 -87 -166t-211 -62t-198 53
t-55 164h58q-16 -88 42 -129t155 -41z" />
    <glyph glyph-name="four.numerator" unicode="&#xf665;" 
d="M197 936h331l70 397zM121 889l4 39l496 487h49l-82 -479h123l-6 -47h-125l-31 -184h-60l31 184h-399z" />
    <glyph glyph-name="five.numerator" unicode="&#xf666;" 
d="M168 889h53q2 -70 48 -111t129 -41t144 40q60 40 83 106q14 31 14 90t-49 101t-127 42q-119 0 -203 -100l-59 4l92 389h440l-6 -51h-389l-70 -277h4q82 82 192 82t172 -54q62 -53 62 -159t-87 -183t-204 -77t-178 54t-61 145z" />
    <glyph glyph-name="six.numerator" unicode="&#xf667;" 
d="M452 1116q-85 0 -157 -64t-72 -150q0 -165 180 -165q82 0 145 46q62 46 81 120q8 23 8 55q0 74 -50 116t-135 42zM160 932q0 66 10 131q31 184 131 272q101 88 209 88t162 -50t55 -142h-57q0 145 -156 145q-92 0 -174 -77t-111 -240l-6 -33q33 61 100 99t157 38t154 -54
q62 -53 62 -159t-87 -183t-203 -77t-180 60q-66 60 -66 182z" />
    <glyph glyph-name="seven.numerator" unicode="&#xf668;" 
d="M250 705l448 651h-471l9 53h542l-4 -37l-457 -667h-67z" />
    <glyph glyph-name="eight.numerator" unicode="&#xf669;" 
d="M279 1224q0 -128 175 -128q84 0 149 43t65 108t-50 97t-130 32q-82 0 -146 -43t-63 -109zM195 864q0 -61 52 -94t149 -33t168 48t71 121t-53 109q-52 36 -144 36q-92 -1 -168 -49t-75 -138zM694 918q0 -104 -89 -166t-212 -62t-191 45t-67 126t59 137t144 75v2
q-55 12 -86 49t-31 88q0 94 82 152q83 58 189 59q106 0 171 -44q65 -43 65 -115t-47 -122q-46 -50 -122 -67v-2q61 -14 98 -56t37 -99z" />
    <glyph glyph-name="nine.numerator" unicode="&#xf66a;" 
d="M668 1211q0 165 -179 165q-82 0 -144 -46q-91 -68 -91 -175q0 -74 50 -116t135 -42t157 65t72 149zM166 883h55q0 -145 156 -146q94 0 175 77t110 241q4 8 4 26q-35 -59 -101 -95q-65 -36 -155 -36t-152 54t-63 160q0 106 88 183t204 77q248 -1 246 -242q0 -53 -12 -131
q-31 -185 -130 -273t-207 -88t-164 50q-54 51 -54 143z" />
    <glyph glyph-name="comma.numerator" unicode="&#xf66b;" horiz-adv-x="307" 
d="M143 705l25 139h65l-24 -137l-88 -209h-33l78 207h-23z" />
    <glyph glyph-name="period.numerator" unicode="&#xf66c;" horiz-adv-x="307" 
d="M143 705l25 139h65l-24 -139h-66z" />
    <glyph glyph-name="abreve.sc" unicode="&#xf66d;" horiz-adv-x="980" 
d="M612 1276q-104 0 -167 61q-62 61 -56 193h45q-2 -209 180 -209q188 0 258 209h48q-39 -131 -121 -193q-83 -61 -187 -61zM571 999h-4l-336 -600h474zM-61 0l602 1065h75l244 -1065h-67l-76 344h-516l-191 -344h-71z" />
    <glyph glyph-name="amacron.sc" unicode="&#xf66e;" horiz-adv-x="980" 
d="M346 1368l8 51h566l-9 -51h-565zM571 999h-4l-336 -600h474zM-61 0l602 1065h75l244 -1065h-67l-76 344h-516l-191 -344h-71z" />
    <glyph glyph-name="aogonek.sc" unicode="&#xf66f;" horiz-adv-x="980" 
d="M571 999h-4l-336 -600h474zM797 -428q-164 0 -164 129t186 299h-26l-76 344h-516l-191 -344h-71l602 1065h75l244 -1065h2q-174 -168 -174 -287q0 -94 123 -94h72l-9 -47h-77z" />
    <glyph glyph-name="aeacute.sc" unicode="&#xf670;" horiz-adv-x="1701" 
d="M997 1229l281 336h78l-309 -336h-50zM297 317h532l115 682zM-80 0l1014 1065h749l-6 -57h-665l-74 -437h543l-8 -55h-545l-78 -459h678l-8 -57h-744l43 262h-573l-248 -262h-78z" />
    <glyph glyph-name="cacute.sc" unicode="&#xf671;" horiz-adv-x="1177" 
d="M713 1229l280 336h78l-309 -336h-49zM94 428q0 264 176 460t432 195q184 0 292 -91t128 -249h-63q-51 283 -359 283q-227 0 -383 -177t-155 -417q0 -168 105 -280t284 -113q295 0 434 283h66q-70 -158 -200 -249q-129 -91 -319 -91t-314 128t-124 318z" />
    <glyph glyph-name="ccaron.sc" unicode="&#xf672;" horiz-adv-x="1177" 
d="M709 1229l-205 336h63l178 -293l279 293h68l-324 -336h-59zM94 428q0 264 176 460t432 195q184 0 292 -91t128 -249h-63q-51 283 -359 283q-227 0 -383 -177t-155 -417q0 -168 105 -280t284 -113q295 0 434 283h66q-70 -158 -200 -249q-129 -91 -319 -91t-314 128
t-124 318z" />
    <glyph glyph-name="ccircumflex.sc" unicode="&#xf673;" horiz-adv-x="1177" 
d="M442 1229l324 336h61l203 -336h-63l-179 293l-278 -293h-68zM94 428q0 264 176 460t432 195q184 0 292 -91t128 -249h-63q-51 283 -359 283q-227 0 -383 -177t-155 -417q0 -168 105 -280t284 -113q295 0 434 283h66q-70 -158 -200 -249q-129 -91 -319 -91t-314 128
t-124 318z" />
    <glyph glyph-name="cdotaccent.sc" unicode="&#xf674;" horiz-adv-x="1177" 
d="M719 1309l31 176h65l-31 -176h-65zM94 428q0 264 176 460t432 195q184 0 292 -91t128 -249h-63q-51 283 -359 283q-227 0 -383 -177t-155 -417q0 -168 105 -280t284 -113q295 0 434 283h66q-70 -158 -200 -249q-129 -91 -319 -91t-314 128t-124 318z" />
    <glyph glyph-name="dcaron.sc" unicode="&#xf675;" horiz-adv-x="1177" 
d="M655 1229l-204 336h63l178 -293l279 293h67l-323 -336h-60zM575 1008h-233l-162 -951h236q282 0 444 161t162 403q0 171 -114 279t-333 108zM584 1065q244 0 374 -123t132 -321q0 -269 -188 -445t-494 -176h-299l180 1065h295z" />
    <glyph glyph-name="dcroat.sc" unicode="&#xf676;" horiz-adv-x="1181" 
d="M575 1008h-233l-76 -449h236l-6 -51h-238l-78 -451h236q282 0 444 161t162 403q0 171 -114 279t-333 108zM584 1065q244 0 374 -123t132 -321q0 -269 -188 -445t-494 -176h-299l86 508h-191l8 51h191l86 506h295z" />
    <glyph glyph-name="ebreve.sc" unicode="&#xf677;" horiz-adv-x="1032" 
d="M684 1276q-104 0 -167 61q-62 61 -56 193h45q-2 -209 180 -209q188 0 258 209h47q-39 -130 -121 -192t-186 -62zM109 0l180 1065h725l-8 -57h-664l-74 -437h541l-8 -55h-543l-78 -459h678l-8 -57h-741z" />
    <glyph glyph-name="ecaron.sc" unicode="&#xf678;" horiz-adv-x="1032" 
d="M645 1229l-205 336h64l178 -293l279 293h67l-323 -336h-60zM109 0l180 1065h725l-8 -57h-664l-74 -437h541l-8 -55h-543l-78 -459h678l-8 -57h-741z" />
    <glyph glyph-name="edotaccent.sc" unicode="&#xf679;" horiz-adv-x="1032" 
d="M655 1309l31 176h66l-31 -176h-66zM109 0l180 1065h725l-8 -57h-664l-74 -437h541l-8 -55h-543l-78 -459h678l-8 -57h-741z" />
    <glyph glyph-name="emacron.sc" unicode="&#xf67a;" horiz-adv-x="1032" 
d="M418 1368l8 51h565l-8 -51h-565zM109 0l180 1065h725l-8 -57h-664l-74 -437h541l-8 -55h-543l-78 -459h678l-8 -57h-741z" />
    <glyph glyph-name="eng.sc" unicode="&#xf67b;" horiz-adv-x="1228" 
d="M608 -391q199 0 242 239l27 158l-539 955h-4l-162 -961h-63l178 1065h61l543 -961h2l164 961h63l-205 -1215q-51 -301 -315 -301h-98l8 60h98z" />
    <glyph glyph-name="eogonek.sc" unicode="&#xf67c;" horiz-adv-x="1032" 
d="M676 -287q0 -94 123 -94h71l-8 -47h-78q-164 0 -163 131q0 127 186 297h-698l180 1065h725l-8 -57h-664l-74 -437h541l-8 -55h-543l-78 -459h678l-8 -57q-174 -168 -174 -287z" />
    <glyph glyph-name="gbreve.sc" unicode="&#xf67d;" horiz-adv-x="1263" 
d="M762 1276q-104 0 -167 61q-62 61 -56 193h45q-2 -209 180 -209q188 0 258 209h47q-39 -130 -121 -192t-186 -62zM555 -18q-205 0 -332 131t-127 323q0 276 176 462t439 185q186 0 299 -94t118 -233h-65q-8 114 -102 192t-256 78q-229 0 -385 -169t-156 -417
q0 -170 110 -286t284 -115q175 0 306 95t160 290l10 70h-389l8 53h451l-92 -547h-43l26 203h-4q-143 -221 -436 -221z" />
    <glyph glyph-name="gcircumflex.sc" unicode="&#xf67e;" horiz-adv-x="1263" 
d="M457 1229l323 336h62l202 -336h-63l-178 293l-279 -293h-67zM555 -18q-205 0 -332 131t-127 323q0 276 176 462t439 185q186 0 299 -94t118 -233h-65q-8 114 -102 192t-256 78q-229 0 -385 -169t-156 -417q0 -170 110 -286t284 -115q175 0 306 95t160 290l10 70h-389
l8 53h451l-92 -547h-43l26 203h-4q-143 -221 -436 -221z" />
    <glyph glyph-name="gcommaaccent.sc" unicode="&#xf67f;" horiz-adv-x="1263" 
d="M494 -129h65l-24 -133l-107 -217h-31l95 217h-23zM555 -18q-205 0 -332 131t-127 323q0 276 176 462t439 185q186 0 299 -94t118 -233h-65q-8 114 -102 192t-256 78q-229 0 -385 -169t-156 -417q0 -170 110 -286t284 -115q175 0 306 95t160 290l10 70h-389l8 53h451
l-92 -547h-43l26 203h-4q-143 -221 -436 -221z" />
    <glyph glyph-name="gdotaccent.sc" unicode="&#xf680;" horiz-adv-x="1263" 
d="M733 1309l31 176h65l-30 -176h-66zM555 -18q-205 0 -332 131t-127 323q0 276 176 462t439 185q186 0 299 -94t118 -233h-65q-8 114 -102 192t-256 78q-229 0 -385 -169t-156 -417q0 -170 110 -286t284 -115q175 0 306 95t160 290l10 70h-389l8 53h451l-92 -547h-43
l26 203h-4q-143 -221 -436 -221z" />
    <glyph glyph-name="hbar.sc" unicode="&#xf681;" horiz-adv-x="1222" 
d="M307 805l-39 -238h699l39 238h-699zM59 805l9 49h184l37 211h63l-37 -211h699l37 211h65l-37 -211h185l-9 -49h-184l-135 -805h-66l86 510h-698l-86 -510h-63l135 805h-185z" />
    <glyph glyph-name="hcircumflex.sc" unicode="&#xf682;" horiz-adv-x="1222" 
d="M432 1229l324 336h61l203 -336h-64l-178 293l-278 -293h-68zM109 0l180 1065h63l-84 -498h699l84 498h65l-180 -1065h-66l86 510h-698l-86 -510h-63z" />
    <glyph glyph-name="ibreve.sc" unicode="&#xf683;" horiz-adv-x="460" 
d="M358 1276q-104 0 -167 61q-62 61 -56 193h45q-2 -209 180 -209q188 0 258 209h48q-39 -131 -121 -193q-83 -61 -187 -61zM109 0l180 1065h63l-180 -1065h-63z" />
    <glyph glyph-name="ij.sc" unicode="&#xf684;" horiz-adv-x="1353" 
d="M109 0l180 1065h63l-180 -1065h-63zM524 297l11 57h63l-10 -57q-24 -131 36 -196t172 -65q234 1 281 263l133 766h64l-131 -766q-27 -160 -118 -239q-91 -78 -232 -78t-219 78q-77 79 -50 237z" />
    <glyph glyph-name="imacron.sc" unicode="&#xf685;" horiz-adv-x="460" 
d="M92 1368l8 51h566l-9 -51h-565zM109 0l180 1065h63l-180 -1065h-63z" />
    <glyph glyph-name="iogonek.sc" unicode="&#xf686;" horiz-adv-x="460" 
d="M0 -287q0 -94 123 -94h72l-9 -47h-77q-164 0 -164 129t186 299h-22l180 1065h63l-180 -1065h2q-174 -168 -174 -287z" />
    <glyph glyph-name="itilde.sc" unicode="&#xf687;" horiz-adv-x="460" 
d="M252 1479q55 -1 142 -59t126 -58q86 0 123 123h43q-18 -70 -61 -120t-105 -50t-147 58q-86 58 -127 59q-84 0 -121 -123h-45q47 170 172 170zM109 0l180 1065h63l-180 -1065h-63z" />
    <glyph glyph-name="jcircumflex.sc" unicode="&#xf688;" horiz-adv-x="890" 
d="M512 1229l324 336h61l203 -336h-64l-178 293l-278 -293h-68zM334 -18q-144 0 -222 80t-51 235l11 57h63l-10 -57q-23 -131 37 -196t176 -64q229 0 276 262l134 766h65l-133 -766q-53 -317 -346 -317z" />
    <glyph glyph-name="kcommaaccent.sc" unicode="&#xf689;" horiz-adv-x="1099" 
d="M465 -129h65l-24 -133l-107 -217h-30l94 217h-23zM109 0l180 1065h63l-119 -694l789 694h78l-520 -459l368 -606h-67l-346 565l-314 -274l-49 -291h-63z" />
    <glyph glyph-name="lacute.sc" unicode="&#xf68a;" horiz-adv-x="927" 
d="M324 1229l280 336h78l-309 -336h-49zM109 0l180 1065h63l-172 -1008h617l-6 -57h-682z" />
    <glyph glyph-name="lcaron.sc" unicode="&#xf68b;" horiz-adv-x="927" 
d="M639 715l94 217h-22l24 133h64l-19 -131l-110 -219h-31zM109 0l180 1065h63l-172 -1008h617l-6 -57h-682z" />
    <glyph glyph-name="lcommaaccent.sc" unicode="&#xf68c;" horiz-adv-x="927" 
d="M399 -129h66l-25 -133l-106 -217h-31l94 217h-22zM109 0l180 1065h63l-172 -1008h617l-6 -57h-682z" />
    <glyph glyph-name="ldot.sc" unicode="&#xf68d;" horiz-adv-x="927" 
d="M545 451l30 178h66l-31 -178h-65zM109 0l180 1065h63l-172 -1008h617l-6 -57h-682z" />
    <glyph glyph-name="nacute.sc" unicode="&#xf68e;" horiz-adv-x="1228" 
d="M702 1229l281 336h78l-309 -336h-50zM109 0l180 1065h61l541 -963h2l164 963h63l-180 -1065h-61l-541 963h-2l-164 -963h-63z" />
    <glyph glyph-name="ncaron.sc" unicode="&#xf68f;" horiz-adv-x="1228" 
d="M698 1229l-204 336h63l178 -293l279 293h67l-323 -336h-60zM109 0l180 1065h61l541 -963h2l164 963h63l-180 -1065h-61l-541 963h-2l-164 -963h-63z" />
    <glyph glyph-name="ncommaaccent.sc" unicode="&#xf690;" horiz-adv-x="1228" 
d="M467 -129h65l-24 -133l-107 -217h-30l94 217h-23zM109 0l180 1065h61l541 -963h2l164 963h63l-180 -1065h-61l-541 963h-2l-164 -963h-63z" />
    <glyph glyph-name="obreve.sc" unicode="&#xf691;" horiz-adv-x="1247" 
d="M756 1276q-104 0 -167 61q-62 61 -57 193h46q-2 -209 180 -209q188 0 258 209h47q-39 -130 -121 -192t-186 -62zM546 39q175 0 321 118t198 306q23 84 22 170q0 178 -104 286q-104 107 -279 107q-174 0 -322 -118t-200 -306q-20 -88 -20 -170q0 -178 104 -286
q105 -107 280 -107zM94 428q0 279 186 467t431 188q199 0 321 -124t123 -322q0 -279 -185 -467t-433 -188q-197 0 -320 124t-123 322z" />
    <glyph glyph-name="ohungarumlaut.sc" unicode="&#xf692;" horiz-adv-x="1247" 
d="M543 1229l280 336h78l-309 -336h-49zM893 1229l283 336h77l-309 -336h-51zM546 39q175 0 321 118t198 306q23 84 22 170q0 178 -104 286q-104 107 -279 107q-174 0 -322 -118t-200 -306q-20 -88 -20 -170q0 -178 104 -286q105 -107 280 -107zM94 428q0 279 186 467
t431 188q199 0 321 -124t123 -322q0 -279 -185 -467t-433 -188q-197 0 -320 124t-123 322z" />
    <glyph glyph-name="omacron.sc" unicode="&#xf693;" horiz-adv-x="1247" 
d="M489 1368l9 51h565l-8 -51h-566zM546 39q175 0 321 118t198 306q23 84 22 170q0 178 -104 286q-104 107 -279 107q-174 0 -322 -118t-200 -306q-20 -88 -20 -170q0 -178 104 -286q105 -107 280 -107zM94 428q0 279 186 467t431 188q199 0 321 -124t123 -322
q0 -279 -185 -467t-433 -188q-197 0 -320 124t-123 322z" />
    <glyph glyph-name="oslashacute.sc" unicode="&#xf694;" horiz-adv-x="1247" 
d="M711 1229l280 336h78l-309 -336h-49zM162 432q0 -150 74 -252l749 735q-106 111 -281 111q-174 0 -322 -118t-200 -306q-20 -88 -20 -170zM544 39q177 0 323 118t198 306q23 84 22 170q0 152 -75 252l-748 -738q103 -108 280 -108zM94 428q0 279 186 467t431 188
q197 0 319 -122l125 122h59l-157 -153q98 -117 98 -293q0 -279 -185 -467t-433 -188q-195 0 -318 122l-125 -122h-61l157 153q-96 119 -96 293z" />
    <glyph glyph-name="racute.sc" unicode="&#xf695;" horiz-adv-x="1112" 
d="M608 1229l281 336h78l-310 -336h-49zM702 1008h-360l-82 -486h367q151 0 239 74t88 207q0 93 -66 149t-186 56zM709 1065q145 0 230 -72t85 -186q0 -150 -98 -240t-260 -100l245 -467h-67l-246 465h-348l-78 -465h-63l180 1065h420z" />
    <glyph glyph-name="rcaron.sc" unicode="&#xf696;" horiz-adv-x="1112" 
d="M604 1229l-205 336h64l178 -293l279 293h67l-323 -336h-60zM702 1008h-360l-82 -486h367q151 0 239 74t88 207q0 93 -66 149t-186 56zM709 1065q145 0 230 -72t85 -186q0 -150 -98 -240t-260 -100l245 -467h-67l-246 465h-348l-78 -465h-63l180 1065h420z" />
    <glyph glyph-name="rcommaaccent.sc" unicode="&#xf697;" horiz-adv-x="1112" 
d="M442 -129h66l-25 -133l-106 -217h-31l94 217h-22zM702 1008h-360l-82 -486h367q151 0 239 74t88 207q0 93 -66 149t-186 56zM709 1065q145 0 230 -72t85 -186q0 -150 -98 -240t-260 -100l245 -467h-67l-246 465h-348l-78 -465h-63l180 1065h420z" />
    <glyph glyph-name="sacute.sc" unicode="&#xf698;" horiz-adv-x="1017" 
d="M586 1229l280 336h78l-309 -336h-49zM803 295q0 90 -65 139q-64 48 -156 66t-184 38t-158 78q-64 57 -64 160q0 135 111 221t299 86t282 -81t74 -209h-65q16 104 -61 170q-78 65 -234 65t-248 -68t-92 -166q0 -100 64 -147t158 -64q93 -17 185 -37t157 -80
q65 -58 64 -165q0 -145 -110 -232t-314 -87q-203 0 -303 82t-75 229h65q-20 -123 64 -190q85 -67 251 -67t261 70q94 70 94 189z" />
    <glyph glyph-name="scedilla.sc" unicode="&#xf699;" horiz-adv-x="1017" 
d="M803 295q0 90 -65 139q-64 48 -156 66t-184 38t-158 78q-64 57 -64 160q0 135 111 221t299 86t282 -81t74 -209h-65q16 104 -61 170q-78 65 -234 65t-248 -68t-92 -166q0 -100 64 -147t158 -64q93 -17 185 -37t157 -80q65 -58 64 -165q0 -143 -108 -230t-309 -89l-41 -78
q78 -2 118 -40t41 -106q0 -68 -58 -128q-58 -58 -171 -58h-98l10 45h92q86 0 129 45t43 95t-34 78t-99 28h-37l70 119q-186 4 -281 86q-94 82 -69 225h65q-20 -123 64 -190q85 -67 251 -67t261 70q94 70 94 189z" />
    <glyph glyph-name="scircumflex.sc" unicode="&#xf69a;" horiz-adv-x="1017" 
d="M315 1229l324 336h61l203 -336h-63l-178 293l-279 -293h-68zM803 295q0 90 -65 139q-64 48 -156 66t-184 38t-158 78q-64 57 -64 160q0 135 111 221t299 86t282 -81t74 -209h-65q16 104 -61 170q-78 65 -234 65t-248 -68t-92 -166q0 -100 64 -147t158 -64q93 -17 185 -37
t157 -80q65 -58 64 -165q0 -145 -110 -232t-314 -87q-203 0 -303 82t-75 229h65q-20 -123 64 -190q85 -67 251 -67t261 70q94 70 94 189z" />
    <glyph glyph-name="scommaaccent.sc" unicode="&#xf69b;" horiz-adv-x="1017" 
d="M391 -129h66l-25 -133l-106 -217h-31l94 217h-22zM803 295q0 90 -65 139q-64 48 -156 66t-184 38t-158 78q-64 57 -64 160q0 135 111 221t299 86t282 -81t74 -209h-65q16 104 -61 170q-78 65 -234 65t-248 -68t-92 -166q0 -100 64 -147t158 -64q93 -17 185 -37t157 -80
q65 -58 64 -165q0 -145 -110 -232t-314 -87q-203 0 -303 82t-75 229h65q-20 -123 64 -190q85 -67 251 -67t261 70q94 70 94 189z" />
    <glyph glyph-name="tbar.sc" unicode="&#xf69c;" horiz-adv-x="968" 
d="M111 1008l8 57h909l-8 -57h-424l-78 -459h322l-9 -49h-321l-84 -500h-64l84 500h-321l8 49h322l77 459h-421z" />
    <glyph glyph-name="tcaron.sc" unicode="&#xf69d;" horiz-adv-x="968" 
d="M573 1229l-204 336h63l178 -293l279 293h67l-323 -336h-60zM111 1008l10 57h907l-8 -57h-424l-170 -1008h-66l172 1008h-421z" />
    <glyph glyph-name="tcommaaccent.sc" unicode="&#xf69e;" horiz-adv-x="968" 
d="M522 -242q0 -68 -58 -128q-58 -58 -171 -58h-98l10 45h92q86 0 129 45t43 95t-34 78t-99 28h-37l82 137h-21l172 1008h-421l10 57h907l-8 -57h-424l-170 -1008h-12l-52 -96q78 -2 119 -40t41 -106z" />
    <glyph glyph-name="ubreve.sc" unicode="&#xf69f;" horiz-adv-x="1179" 
d="M715 1276q-104 0 -167 61q-62 61 -56 193h45q-2 -209 180 -209q188 0 258 209h47q-39 -130 -121 -192t-186 -62zM505 41q167 0 275 97t142 282l110 645h66l-111 -645q-39 -219 -167 -329q-128 -109 -322 -109t-292 110t-59 328l111 645h66l-111 -645q-33 -188 46 -284
t246 -95z" />
    <glyph glyph-name="uhungarumlaut.sc" unicode="&#xf6a0;" horiz-adv-x="1179" 
d="M502 1229l280 336h78l-309 -336h-49zM852 1229l283 336h77l-309 -336h-51zM505 41q167 0 275 97t142 282l110 645h66l-111 -645q-39 -219 -167 -329q-128 -109 -322 -109t-292 110t-59 328l111 645h66l-111 -645q-33 -188 46 -284t246 -95z" />
    <glyph glyph-name="umacron.sc" unicode="&#xf6a1;" horiz-adv-x="1179" 
d="M449 1368l8 51h565l-8 -51h-565zM505 41q167 0 275 97t142 282l110 645h66l-111 -645q-39 -219 -167 -329q-128 -109 -322 -109t-292 110t-59 328l111 645h66l-111 -645q-33 -188 46 -284t246 -95z" />
    <glyph glyph-name="uogonek.sc" unicode="&#xf6a2;" horiz-adv-x="1181" 
d="M502 41q168 0 276 97t140 282l112 645h66l-113 -645q-47 -264 -244 -383q-299 -180 -299 -324q0 -94 123 -94h72l-8 -47h-78q-170 0 -170 131t242 291q-59 -12 -123 -12q-196 0 -294 110t-61 328l113 645h66l-113 -645q-33 -186 46 -282t247 -97z" />
    <glyph glyph-name="uring.sc" unicode="&#xf6a3;" horiz-adv-x="1179" 
d="M600 1388q0 -64 33 -94t90 -30t105 48t48 110t-33 95q-33 31 -91 31t-105 -48t-47 -112zM557 1388q0 80 61 138q62 58 136 59q74 0 120 -41q46 -40 46 -120t-62 -138t-137 -59q-74 0 -119 41q-45 40 -45 120zM505 41q167 0 275 97t142 282l110 645h66l-111 -645
q-39 -219 -167 -329q-128 -109 -322 -109t-292 110t-59 328l111 645h66l-111 -645q-33 -188 46 -284t246 -95z" />
    <glyph glyph-name="utilde.sc" unicode="&#xf6a4;" horiz-adv-x="1179" 
d="M608 1479q54 -1 142 -59t127 -58q86 0 122 123h43q-18 -70 -61 -120t-105 -50t-147 58q-86 58 -127 59q-84 0 -121 -123h-45q47 170 172 170zM505 41q167 0 275 97t142 282l110 645h66l-111 -645q-39 -219 -167 -329q-128 -109 -322 -109t-292 110t-59 328l111 645h66
l-111 -645q-33 -188 46 -284t246 -95z" />
    <glyph glyph-name="wacute.sc" unicode="&#xf6a5;" horiz-adv-x="1476" 
d="M827 1229l281 336h78l-309 -336h-50zM250 0l-127 1065h65l113 -991h4l490 991h67l154 -997h4l450 997h66l-483 -1065h-84l-154 981h-4l-479 -981h-82z" />
    <glyph glyph-name="wcircumflex.sc" unicode="&#xf6a6;" horiz-adv-x="1476" 
d="M557 1229l324 336h61l203 -336h-64l-178 293l-278 -293h-68zM250 0l-127 1065h65l113 -991h4l490 991h67l154 -997h4l450 997h66l-483 -1065h-84l-154 981h-4l-479 -981h-82z" />
    <glyph glyph-name="wdieresis.sc" unicode="&#xf6a7;" horiz-adv-x="1476" 
d="M641 1309l31 176h65l-30 -176h-66zM1034 1309l31 176h65l-30 -176h-66zM250 0l-127 1065h65l113 -991h4l490 991h67l154 -997h4l450 997h66l-483 -1065h-84l-154 981h-4l-479 -981h-82z" />
    <glyph glyph-name="wgrave.sc" unicode="&#xf6a8;" horiz-adv-x="1476" 
d="M831 1229l-190 336h72l166 -336h-48zM250 0l-127 1065h65l113 -991h4l490 991h67l154 -997h4l450 997h66l-483 -1065h-84l-154 981h-4l-479 -981h-82z" />
    <glyph glyph-name="ycircumflex.sc" unicode="&#xf6a9;" horiz-adv-x="940" 
d="M295 1229l323 336h62l203 -336h-64l-178 293l-279 -293h-67zM344 0l72 430l-303 635h71l275 -578h2l479 578h70l-529 -637l-71 -428h-66z" />
    <glyph glyph-name="ygrave.sc" unicode="&#xf6aa;" horiz-adv-x="940" 
d="M569 1229l-190 336h72l165 -336h-47zM344 0l72 430l-303 635h71l275 -578h2l479 578h70l-529 -637l-71 -428h-66z" />
    <glyph glyph-name="zacute.sc" unicode="&#xf6ab;" horiz-adv-x="964" 
d="M578 1229l280 336h78l-309 -336h-49zM190 1010l9 55h764l-5 -39l-868 -971h694l-8 -55h-786l4 37l870 973h-674z" />
    <glyph glyph-name="zdotaccent.sc" unicode="&#xf6ac;" horiz-adv-x="964" 
d="M584 1309l30 176h66l-31 -176h-65zM190 1010l9 55h764l-5 -39l-868 -971h694l-8 -55h-786l4 37l870 973h-674z" />
    <glyph glyph-name="idotaccent.sc" unicode="&#xf6ad;" horiz-adv-x="460" 
d="M330 1309l30 176h66l-31 -176h-65zM109 0l180 1065h63l-180 -1065h-63z" />
    <glyph glyph-name="parenleft.cap" unicode="&#xf6ae;" horiz-adv-x="587" 
d="M207 480q0 312 132 577q132 264 314 467h64q-183 -203 -315 -469q-132 -267 -132 -575t160 -595h-59q-164 283 -164 595z" />
    <glyph glyph-name="parenright.cap" unicode="&#xf6af;" horiz-adv-x="587" 
d="M379 909q0 319 -164 615h61q166 -292 166 -600t-133 -571t-317 -468h-64q115 127 207 269t168 349q76 208 76 406z" />
    <glyph glyph-name="bracketleft.cap" unicode="&#xf6b0;" horiz-adv-x="600" 
d="M84 -115l285 1639h352l-6 -56h-293l-266 -1527h295l-9 -56h-358z" />
    <glyph glyph-name="bracketright.cap" unicode="&#xf6b1;" horiz-adv-x="600" 
d="M-55 -59h291l266 1527h-293l6 56h358l-282 -1639h-354z" />
    <glyph glyph-name="braceleft.cap" unicode="&#xf6b2;" horiz-adv-x="739" 
d="M772 1524h92l-6 -51h-88q-108 0 -176 -65t-86 -185l-41 -242q-21 -123 -79 -181t-173 -87v-4q102 -31 140 -91t16 -184l-43 -248q-41 -250 176 -249h90l-8 -52h-88q-137 0 -197 78t-35 223l43 248q20 121 -16 175q-37 54 -160 79l4 45q127 25 188 77q60 52 81 171l40 242
q51 301 326 301z" />
    <glyph glyph-name="braceright.cap" unicode="&#xf6b3;" horiz-adv-x="739" 
d="M31 -61q109 0 177 63t87 184l39 252q23 124 81 182t173 87v2q-104 33 -142 92q-37 59 -16 182l43 240q20 121 -26 184t-152 63h-86l6 54h88q137 0 197 -78t37 -223l-43 -240q-23 -121 15 -174t159 -78l-4 -47q-126 -23 -186 -75t-81 -171l-41 -252q-51 -301 -325 -301
h-97l9 54h88z" />
    <glyph glyph-name="exclamdown.cap" unicode="&#xf6b4;" horiz-adv-x="436" 
d="M92 0l60 346l133 688h43l-103 -688l-61 -346h-72zM301 1223l31 186h74l-31 -186h-74z" />
    <glyph glyph-name="questiondown.cap" unicode="&#xf6b5;" horiz-adv-x="923" 
d="M43 276q0 98 43 174q42 76 106 127q64 50 131 98q162 116 189 275l8 58h66l-8 -58q-16 -98 -70 -174t-121 -125q-66 -49 -129 -97q-149 -114 -149 -271q-1 -106 77 -175t216 -69t240 91q103 91 130 267h59q-25 -197 -147 -307t-305 -108q-143 0 -240 81q-96 82 -96 213z
M539 1223l28 186h74l-31 -186h-71z" />
    <glyph glyph-name="guillemotleft.cap" unicode="&#xf6b6;" horiz-adv-x="1009" 
d="M387 295l-233 420l372 415h60l-363 -421l219 -414h-55zM788 295l-231 420l373 415h57l-360 -421l219 -414h-58z" />
    <glyph glyph-name="guillemotright.cap" unicode="&#xf6b7;" horiz-adv-x="1009" 
d="M78 295l360 422l-217 413h55l234 -419l-375 -416h-57zM481 295l361 422l-219 413h57l231 -419l-372 -416h-58z" />
    <glyph glyph-name="guilsinglleft.cap" unicode="&#xf6b8;" horiz-adv-x="604" 
d="M387 295l-233 420l372 415h60l-363 -421l219 -414h-55z" />
    <glyph glyph-name="guilsinglright.cap" unicode="&#xf6b9;" horiz-adv-x="604" 
d="M82 295l360 422l-219 413h58l231 -419l-373 -416h-57z" />
    <glyph glyph-name="hyphen.cap" unicode="&#xf6ba;" horiz-adv-x="811" 
d="M150 684l8 57h565l-8 -57h-565z" />
    <glyph glyph-name="endash.cap" unicode="&#xf6bb;" horiz-adv-x="1138" 
d="M150 684l8 57h893l-9 -57h-892z" />
    <glyph glyph-name="emdash.cap" unicode="&#xf6bc;" horiz-adv-x="1720" 
d="M150 684l8 57h1474l-8 -57h-1474z" />
    <glyph glyph-name="periodcentered.cap" unicode="&#xf6bd;" horiz-adv-x="587" 
d="M268 621l33 188h76l-33 -188h-76z" />
    <glyph glyph-name="dotlessj" unicode="&#xf6be;" horiz-adv-x="421" 
d="M-133 -393q80 0 125 40t59 136l207 1216h66l-209 -1226q-39 -223 -254 -224h-54l7 58h53z" />
    <glyph glyph-name="space_uni0326" unicode="&#xf6c3;" horiz-adv-x="1089" 
d="M399 -129h66l-25 -133l-106 -217h-31l94 217h-22z" />
    <glyph glyph-name="cent.inferior" unicode="&#xf6df;" 
d="M33 -8q0 129 84 216t213 95l18 100h55l-20 -100q82 -8 135 -55t53 -123h-57q0 57 -45 95t-136 38t-165 -74t-74 -171t50 -143t130 -46t139 38q58 38 79 95h57q-20 -72 -89 -123t-161 -57l-18 -99h-54l17 99q-98 8 -155 66q-56 59 -56 149z" />
    <glyph glyph-name="cent.superior" unicode="&#xf6e0;" 
d="M238 1319q0 129 84 216t213 95l18 101h55l-20 -101q82 -8 135 -55t53 -123h-57q0 57 -45 95t-136 38t-165 -74t-74 -171t50 -143t130 -46t138 38t79 95h58q-20 -72 -89 -123t-161 -57l-19 -98h-53l17 98q-98 8 -155 66q-56 59 -56 149z" />
    <glyph glyph-name="comma.inferior" unicode="&#xf6e1;" horiz-adv-x="307" 
d="M-4 -311l24 139h66l-25 -137l-88 -209h-32l77 207h-22z" />
    <glyph glyph-name="comma.superior" unicode="&#xf6e2;" horiz-adv-x="307" 
d="M201 1016l24 139h66l-25 -137l-88 -209h-33l78 207h-22z" />
    <glyph glyph-name="dollar.inferior" unicode="&#xf6e3;" 
d="M74 211q0 74 66 130q67 56 177 62l21 111h55l-20 -113q88 -8 144 -56t58 -132h-55q-2 71 -53 107t-137 36t-142 -41t-57 -100q0 -59 42 -87t102 -41q59 -13 119 -29t102 -56q42 -39 43 -104q0 -96 -74 -156t-193 -66l-20 -125h-55l22 125q-101 6 -161 64t-52 147h55
q-6 -73 44 -119q49 -46 147 -46t163 44q65 46 64 125q0 95 -143 129q-59 14 -119 29q-143 34 -143 162z" />
    <glyph glyph-name="dollar.superior" unicode="&#xf6e4;" 
d="M458 1049q98 0 162 45q65 45 64 125q0 95 -143 129q-59 14 -119 28t-101 51q-42 37 -42 111t66 130q67 56 177 63l21 110h55l-20 -112q88 -9 144 -57t58 -132h-55q-2 70 -53 107t-137 37q-87 0 -143 -42q-56 -41 -56 -100t42 -87t102 -41q60 -14 120 -30t101 -55
q42 -39 42 -104q0 -96 -73 -156q-74 -59 -193 -65l-20 -125h-56l23 125q-100 6 -161 63q-60 57 -52 147h55q-6 -72 44 -118t148 -47z" />
    <glyph glyph-name="hyphen.inferior" unicode="&#xf6e5;" horiz-adv-x="567" 
d="M14 16l9 54h401l-8 -54h-402z" />
    <glyph glyph-name="hyphen.superior" unicode="&#xf6e6;" horiz-adv-x="567" 
d="M219 1343l8 54h402l-8 -54h-402z" />
    <glyph glyph-name="period.inferior" unicode="&#xf6e7;" horiz-adv-x="307" 
d="M-4 -311l24 139h66l-25 -139h-65z" />
    <glyph glyph-name="period.superior" unicode="&#xf6e8;" horiz-adv-x="307" 
d="M201 1016l24 139h66l-25 -139h-65z" />
    <glyph glyph-name="a.superior" unicode="&#xf6e9;" horiz-adv-x="835" 
d="M270 1284q0 -106 58 -168t155 -61q127 1 220 117t94 272q-1 109 -59 172t-152 63q-128 -1 -222 -113t-94 -282zM454 1004q-102 0 -174 76t-73 202q0 197 110 323q111 126 261 126q92 -1 160 -51t87 -134h2l29 174h59l-120 -704h-58l27 162h-4q-103 -174 -306 -174z" />
    <glyph glyph-name="b.superior" unicode="&#xf6ea;" horiz-adv-x="835" 
d="M317 1292q1 -110 59 -174t152 -63q129 0 223 112q93 113 93 285q0 104 -58 166t-155 61q-127 1 -221 -117t-93 -270zM201 1016l180 1057h61l-34 -215q-2 -14 -27 -146t-31 -156h2q104 172 310 174q102 0 174 -75q72 -76 71 -203q-1 -197 -111 -323t-261 -125
q-94 0 -162 49t-86 135l-29 -172h-57z" />
    <glyph glyph-name="d.superior" unicode="&#xf6eb;" horiz-adv-x="835" 
d="M270 1284q0 -104 58 -166t155 -63q127 1 220 117t94 272q-1 109 -59 172t-152 63q-128 -1 -222 -113t-94 -282zM760 1178q-104 -174 -306 -174q-102 0 -174 76t-73 202q0 197 110 323q111 126 261 126q92 -1 160 -51t87 -134h2q12 119 47 295l39 232h62l-180 -1057h-58
l27 162h-4z" />
    <glyph glyph-name="e.superior" unicode="&#xf6ec;" horiz-adv-x="768" 
d="M592 1679q-108 0 -190 -71q-81 -72 -113 -191h489q14 109 -32 185t-154 77zM207 1280q0 57 12 113q33 149 136 243t239 94t200 -96q65 -96 44 -235l-4 -23h-555q-8 -41 -9 -96q0 -109 54 -166t153 -57q205 0 260 172h58q-29 -103 -113 -163t-209 -60t-195 72t-71 202z
" />
    <glyph glyph-name="i.superior" unicode="&#xf6ed;" horiz-adv-x="303" 
d="M205 1016l119 704h61l-119 -704h-61zM360 1937l23 136h63l-22 -136h-64z" />
    <glyph glyph-name="l.superior" unicode="&#xf6ee;" horiz-adv-x="307" 
d="M205 1016l180 1057h61l-180 -1057h-61z" />
    <glyph glyph-name="m.superior" unicode="&#xf6ef;" horiz-adv-x="1275" 
d="M614 1733q195 0 217 -177q92 176 275 177q119 0 179 -73t34 -228l-70 -416h-61l69 416q23 129 -23 189t-140 60q-94 1 -172 -77t-105 -230l-59 -358h-62l70 416q22 129 -24 189t-141 60q-95 1 -173 -79t-102 -224l-62 -362h-61l121 704h59l-27 -139h2q90 152 256 152z
" />
    <glyph glyph-name="o.superior" unicode="&#xf6f0;" horiz-adv-x="808" 
d="M270 1284q0 -106 58 -166t161 -61q131 0 228 113q96 114 96 282q0 106 -57 166t-174 61q-116 -1 -214 -113t-98 -282zM207 1284q0 193 118 320t260 127t217 -75t75 -204q0 -194 -117 -320t-275 -126q-127 0 -203 74t-75 204z" />
    <glyph glyph-name="r.superior" unicode="&#xf6f1;" horiz-adv-x="507" 
d="M575 1731q80 0 115 -35l-22 -54q-39 33 -99 33q-89 0 -155 -83t-86 -206l-64 -370h-61l119 704h57l-23 -139h2q76 150 217 150z" />
    <glyph glyph-name="s.superior" unicode="&#xf6f2;" horiz-adv-x="731" 
d="M470 1053q98 0 162 40t64 108t-34 99q-35 31 -107 43l-129 23q-166 27 -166 156q0 98 79 154t196 56t193 -52t67 -154h-58q6 80 -50 119t-150 39t-156 -40q-61 -40 -61 -104t35 -89q36 -26 100 -36l129 -22q174 -33 174 -172q0 -109 -84 -163t-206 -54t-203 51
q-80 51 -68 164h57q-8 -86 55 -126t161 -40z" />
    <glyph glyph-name="t.superior" unicode="&#xf6f3;" horiz-adv-x="497" 
d="M463 1069h80l-11 -53h-81q-100 0 -140 46q-39 46 -18 152l78 457h-166l8 49h166l37 213h61l-37 -213h215l-10 -49h-213l-78 -450q-14 -84 12 -118t97 -34z" />
    <glyph glyph-name="lslash.sc" unicode="&#xf6f9;" horiz-adv-x="927" 
d="M33 285l-25 43l176 129l105 608h63l-94 -555l295 217l22 -43l-329 -242l-66 -385h617l-6 -57h-682l65 389z" />
    <glyph glyph-name="oe.sc" unicode="&#xf6fa;" horiz-adv-x="1728" 
d="M162 444q0 -172 112 -280t332 -107h207l162 951h-207q-282 0 -444 -161t-162 -403zM94 444q0 270 186 446t494 175h938l-8 -57h-664l-75 -437h542l-8 -55h-543l-77 -459h677l-8 -57h-950q-244 0 -374 122t-130 322z" />
    <glyph glyph-name="scaron.sc" unicode="&#xf6fd;" horiz-adv-x="1017" 
d="M582 1229l-205 336h63l178 -293l279 293h68l-324 -336h-59zM803 295q0 90 -65 139q-64 48 -156 66t-184 38t-158 78q-64 57 -64 160q0 135 111 221t299 86t282 -81t74 -209h-65q16 104 -61 170q-78 65 -234 65t-248 -68t-92 -166q0 -100 64 -147t158 -64q93 -17 185 -37
t157 -80q65 -58 64 -165q0 -145 -110 -232t-314 -87q-203 0 -303 82t-75 229h65q-20 -123 64 -190q85 -67 251 -67t261 70q94 70 94 189z" />
    <glyph glyph-name="zcaron.sc" unicode="&#xf6ff;" horiz-adv-x="964" 
d="M573 1229l-204 336h63l178 -293l279 293h67l-323 -336h-60zM190 1010l9 55h764l-5 -39l-868 -971h694l-8 -55h-786l4 37l870 973h-674z" />
    <glyph glyph-name="exclam.sc" unicode="&#xf721;" horiz-adv-x="436" 
d="M90 0l27 156h71l-26 -156h-72zM152 289l75 514l45 262h72l-45 -262l-102 -514h-45z" />
    <glyph glyph-name="ampersand.sc" unicode="&#xf726;" horiz-adv-x="1134" 
d="M356 821q0 -92 107 -219q212 86 270 142q58 57 59 131q0 75 -50 115t-148 40t-168 -58t-70 -151zM416 35q221 0 356 139l-330 369q-147 -61 -226 -127t-79 -169t75 -157t204 -55zM72 239q0 123 89 200t249 143q-111 136 -111 242t87 181t211 75q125 0 189 -57t64 -131
t-27 -124q-43 -79 -192 -148q-45 -22 -133 -57l311 -348q98 125 135 317h60q-47 -227 -158 -358l153 -174h-69l-121 133q-152 -152 -395 -151q-160 0 -251 67t-91 190z" />
    <glyph glyph-name="zero.oldstyle" unicode="&#xf730;" horiz-adv-x="1138" 
d="M139 401q0 -162 95 -262t251 -100q199 0 352 161t152 398q0 160 -95 261t-249 102q-201 0 -353 -161t-153 -399zM72 397q0 265 174 443t403 178q186 0 297 -115t111 -301q0 -264 -174 -442t-404 -178q-186 0 -297 114q-110 115 -110 301z" />
    <glyph glyph-name="one.oldstyle" unicode="&#xf731;" horiz-adv-x="604" 
d="M82 717l-27 49l385 233h47l-172 -999h-63l156 911z" />
    <glyph glyph-name="two.oldstyle" unicode="&#xf732;" horiz-adv-x="960" 
d="M551 1018q164 0 258 -72t94 -193q0 -161 -185 -249q-42 -20 -86 -38t-50 -22l-172 -71q-283 -119 -314 -316h713l-8 -57h-793q27 166 125 263t256 161l174 72q126 53 182 91t75 78t20 93q0 84 -76 144t-207 61q-317 0 -383 -289h-59q35 174 153 259q119 85 283 85z" />
    <glyph glyph-name="three.oldstyle" unicode="&#xf733;" horiz-adv-x="1015" 
d="M776 14q0 125 -92 205t-235 80h-78l12 55h80q151 0 265 98t114 235q0 136 -80 205t-211 69t-237 -84t-130 -252h-63q27 188 152 290q127 103 283 103t252 -84t97 -228q0 -144 -98 -246t-227 -128v-4q116 -23 188 -107t72 -207q0 -198 -142 -320t-348 -122
q-208 0 -318 112t-75 314h61q-30 -172 64 -270t270 -98t300 104q124 106 124 280z" />
    <glyph glyph-name="four.oldstyle" unicode="&#xf734;" horiz-adv-x="1050" 
d="M41 57h592l139 830zM-47 0l8 47l844 959h53l-160 -949h211l-6 -57h-213l-69 -410h-66l68 410h-670z" />
    <glyph glyph-name="five.oldstyle" unicode="&#xf735;" horiz-adv-x="1003" 
d="M2 -55h66q0 -131 75 -224q76 -92 250 -92t297 150t123 346q0 141 -80 225t-215 84q-217 0 -366 -211l-66 4l184 772h686l-8 -59h-626l-154 -625h4q133 176 358 177q162 0 256 -98t95 -265q-1 -223 -145 -390t-359 -167q-184 0 -280 103q-95 104 -95 270z" />
    <glyph glyph-name="six.oldstyle" unicode="&#xf736;" horiz-adv-x="1064" 
d="M184 350q0 -147 78 -229t219 -82q186 0 309 148q122 148 121 348q0 141 -76 225q-77 84 -212 84q-187 0 -313 -148t-126 -346zM109 432q0 41 12 170q12 128 55 276q160 550 552 550q150 0 238 -100q89 -99 78 -271h-63q8 145 -65 229q-72 84 -200 84t-223 -68t-155 -185
q-116 -223 -152 -529q53 137 172 225t278 88t251 -97t92 -265q0 -225 -142 -391t-358 -166q-370 -1 -370 450z" />
    <glyph glyph-name="seven.oldstyle" unicode="&#xf737;" horiz-adv-x="872" 
d="M-27 -410l867 1350h-734l7 59h811l-9 -47l-870 -1362h-72z" />
    <glyph glyph-name="eight.oldstyle" unicode="&#xf738;" horiz-adv-x="1062" 
d="M295 1018q1 -114 79 -184t214 -70t252 100q115 100 114 252q0 119 -80 188t-198 68q-154 0 -268 -101t-113 -253zM121 322q0 -127 92 -205t258 -78q166 -1 292 107t126 278q0 125 -91 205t-252 80q-161 1 -293 -107t-132 -280zM55 324q0 159 115 273t266 140v4
q-88 25 -146 98t-59 179q-1 172 133 291t316 118q147 0 243 -82q95 -83 95 -225t-96 -246t-224 -133v-4q115 -27 186 -109t70 -204q0 -195 -145 -319q-145 -123 -341 -123t-305 92q-108 92 -108 250z" />
    <glyph glyph-name="nine.oldstyle" unicode="&#xf739;" horiz-adv-x="1064" 
d="M870 649q0 135 -75 223q-76 88 -222 89q-186 -1 -308 -149t-122 -347q0 -141 77 -225t212 -84q186 0 312 148t126 345zM341 -371q128 0 223 69q94 70 154 186q117 230 150 526q-55 -136 -173 -224q-119 -88 -277 -88t-249 98t-91 265q0 225 141 391t356 166
q371 0 371 -451q0 -41 -12 -170q-28 -299 -166 -550q-154 -275 -438 -275q-150 0 -239 100t-79 271h66q-10 -145 62 -230q73 -84 201 -84z" />
    <glyph glyph-name="question.sc" unicode="&#xf73f;" horiz-adv-x="872" 
d="M311 0l27 156h72l-27 -156h-72zM780 841q0 75 -74 130q-75 55 -204 55t-220 -66t-116 -194h-62q27 152 138 234t265 81q154 0 247 -68q92 -69 92 -162t-39 -149t-97 -92q-58 -34 -118 -66q-148 -78 -168 -194l-8 -45h-66l8 45q14 76 64 132t107 89l116 66q135 78 135 204
z" />
    <glyph glyph-name="a.sc" unicode="&#xf761;" horiz-adv-x="980" 
d="M571 999h-4l-336 -600h474zM-61 0l602 1065h75l244 -1065h-67l-76 344h-516l-191 -344h-71z" />
    <glyph glyph-name="b.sc" unicode="&#xf762;" horiz-adv-x="1118" 
d="M707 1008h-365l-72 -420h383q133 0 210 70t77 162q0 188 -233 188zM659 532h-399l-80 -475h395q152 0 240 75t88 200q0 88 -62 144q-63 56 -182 56zM715 1065q143 0 217 -60q74 -59 74 -161t-62 -179t-178 -102v-2q96 -15 150 -79t55 -150q0 -152 -108 -242t-294 -90
h-460l180 1065h426z" />
    <glyph glyph-name="c.sc" unicode="&#xf763;" horiz-adv-x="1177" 
d="M94 428q0 264 176 460t432 195q184 0 292 -91t128 -249h-63q-51 283 -359 283q-227 0 -383 -177t-155 -417q0 -168 105 -280t284 -113q295 0 434 283h66q-70 -158 -200 -249q-129 -91 -319 -91t-314 128t-124 318z" />
    <glyph glyph-name="d.sc" unicode="&#xf764;" horiz-adv-x="1177" 
d="M575 1008h-233l-162 -951h236q282 0 444 161t162 403q0 171 -114 279t-333 108zM584 1065q244 0 374 -123t132 -321q0 -269 -188 -445t-494 -176h-299l180 1065h295z" />
    <glyph glyph-name="e.sc" unicode="&#xf765;" horiz-adv-x="1032" 
d="M109 0l180 1065h725l-8 -57h-664l-74 -437h541l-8 -55h-543l-78 -459h678l-8 -57h-741z" />
    <glyph glyph-name="f.sc" unicode="&#xf766;" horiz-adv-x="962" 
d="M109 0l180 1065h717l-9 -57h-655l-78 -455h533l-9 -55h-532l-84 -498h-63z" />
    <glyph glyph-name="g.sc" unicode="&#xf767;" horiz-adv-x="1263" 
d="M555 -18q-205 0 -332 131t-127 323q0 276 176 462t439 185q186 0 299 -94t118 -233h-65q-8 114 -102 192t-256 78q-229 0 -385 -169t-156 -417q0 -170 110 -286t284 -115q175 0 306 95t160 290l10 70h-389l8 53h451l-92 -547h-43l26 203h-4q-143 -221 -436 -221z" />
    <glyph glyph-name="h.sc" unicode="&#xf768;" horiz-adv-x="1222" 
d="M109 0l180 1065h63l-84 -498h699l84 498h65l-180 -1065h-66l86 510h-698l-86 -510h-63z" />
    <glyph glyph-name="i.sc" unicode="&#xf769;" horiz-adv-x="460" 
d="M109 0l180 1065h63l-180 -1065h-63z" />
    <glyph glyph-name="j.sc" unicode="&#xf76a;" horiz-adv-x="890" 
d="M334 -18q-144 0 -222 80t-51 235l11 57h63l-10 -57q-23 -131 37 -196t176 -64q229 0 276 262l134 766h65l-133 -766q-53 -317 -346 -317z" />
    <glyph glyph-name="k.sc" unicode="&#xf76b;" horiz-adv-x="1099" 
d="M109 0l180 1065h63l-119 -694l789 694h78l-520 -459l368 -606h-67l-346 565l-314 -274l-49 -291h-63z" />
    <glyph glyph-name="l.sc" unicode="&#xf76c;" horiz-adv-x="927" 
d="M109 0l180 1065h63l-172 -1008h617l-6 -57h-682z" />
    <glyph glyph-name="m.sc" unicode="&#xf76d;" horiz-adv-x="1486" 
d="M109 0l180 1065h76l299 -977h2l632 977h80l-180 -1065h-65l165 961h-4l-620 -961h-45l-295 958h-4l-158 -958h-63z" />
    <glyph glyph-name="n.sc" unicode="&#xf76e;" horiz-adv-x="1228" 
d="M109 0l180 1065h61l541 -963h2l164 963h63l-180 -1065h-61l-541 963h-2l-164 -963h-63z" />
    <glyph glyph-name="o.sc" unicode="&#xf76f;" horiz-adv-x="1247" 
d="M546 39q175 0 321 118t198 306q23 84 22 170q0 178 -104 286q-104 107 -279 107q-174 0 -322 -118t-200 -306q-20 -88 -20 -170q0 -178 104 -286q105 -107 280 -107zM94 428q0 279 186 467t431 188q199 0 321 -124t123 -322q0 -279 -185 -467t-433 -188q-197 0 -320 124
t-123 322z" />
    <glyph glyph-name="p.sc" unicode="&#xf770;" horiz-adv-x="1064" 
d="M690 1008h-348l-92 -539h350q154 0 248 86t94 225q0 98 -68 163t-184 65zM694 1065q144 0 230 -81t86 -200q0 -166 -116 -269t-302 -103h-350l-70 -412h-63l180 1065h405z" />
    <glyph glyph-name="q.sc" unicode="&#xf771;" horiz-adv-x="1247" 
d="M546 39q175 0 321 118t198 306q23 84 22 170q0 178 -104 286q-104 107 -279 107q-174 0 -322 -118t-200 -306q-20 -88 -20 -170q0 -178 104 -286q105 -107 280 -107zM94 428q0 279 186 467t431 188q199 0 321 -124t123 -308q0 -184 -74 -325t-198 -232l174 -217l-51 -39
l-177 223q-137 -80 -292 -79q-197 0 -320 124t-123 322z" />
    <glyph glyph-name="r.sc" unicode="&#xf772;" horiz-adv-x="1112" 
d="M702 1008h-360l-82 -486h367q151 0 239 74t88 207q0 93 -66 149t-186 56zM709 1065q145 0 230 -72t85 -186q0 -150 -98 -240t-260 -100l245 -467h-67l-246 465h-348l-78 -465h-63l180 1065h420z" />
    <glyph glyph-name="s.sc" unicode="&#xf773;" horiz-adv-x="1017" 
d="M803 295q0 90 -65 139q-64 48 -156 66t-184 38t-158 78q-64 57 -64 160q0 135 111 221t299 86t282 -81t74 -209h-65q16 104 -61 170q-78 65 -234 65t-248 -68t-92 -166q0 -100 64 -147t158 -64q93 -17 185 -37t157 -80q65 -58 64 -165q0 -145 -110 -232t-314 -87
q-203 0 -303 82t-75 229h65q-20 -123 64 -190q85 -67 251 -67t261 70q94 70 94 189z" />
    <glyph glyph-name="t.sc" unicode="&#xf774;" horiz-adv-x="968" 
d="M111 1008l10 57h907l-8 -57h-424l-170 -1008h-66l172 1008h-421z" />
    <glyph glyph-name="u.sc" unicode="&#xf775;" horiz-adv-x="1179" 
d="M505 41q167 0 275 97t142 282l110 645h66l-111 -645q-39 -219 -167 -329q-128 -109 -322 -109t-292 110t-59 328l111 645h66l-111 -645q-33 -188 46 -284t246 -95z" />
    <glyph glyph-name="v.sc" unicode="&#xf776;" horiz-adv-x="987" 
d="M367 0l-242 1065h68l219 -999h4l559 999h67l-598 -1065h-77z" />
    <glyph glyph-name="w.sc" unicode="&#xf777;" horiz-adv-x="1476" 
d="M250 0l-127 1065h65l113 -991h4l490 991h67l154 -997h4l450 997h66l-483 -1065h-84l-154 981h-4l-479 -981h-82z" />
    <glyph glyph-name="x.sc" unicode="&#xf778;" horiz-adv-x="958" 
d="M-49 0l491 539l-301 526h74l270 -477l430 477h74l-477 -524l307 -541h-67l-283 494l-446 -494h-72z" />
    <glyph glyph-name="y.sc" unicode="&#xf779;" horiz-adv-x="940" 
d="M344 0l72 430l-303 635h71l275 -578h2l479 578h70l-529 -637l-71 -428h-66z" />
    <glyph glyph-name="z.sc" unicode="&#xf77a;" horiz-adv-x="964" 
d="M190 1010l9 55h764l-5 -39l-868 -971h694l-8 -55h-786l4 37l870 973h-674z" />
    <glyph glyph-name="exclamdown.sc" unicode="&#xf7a1;" horiz-adv-x="436" 
d="M90 0l45 262l105 514h43l-76 -514l-45 -262h-72zM246 909l26 156h72l-27 -156h-71z" />
    <glyph glyph-name="questiondown.sc" unicode="&#xf7bf;" horiz-adv-x="872" 
d="M358 -10q-156 0 -246 68q-92 68 -92 161q0 159 137 240q58 35 117 67q147 78 168 195l9 45h65l-8 -45q-14 -76 -64 -132t-108 -89l-116 -66q-134 -77 -134 -196q0 -84 75 -140t203 -55q128 0 220 67t114 195h62q-26 -151 -136 -233t-266 -82zM457 915l26 156h72l-29 -156
h-69z" />
    <glyph glyph-name="agrave.sc" unicode="&#xf7e0;" horiz-adv-x="980" 
d="M582 1229l-191 336h72l166 -336h-47zM571 999h-4l-336 -600h474zM-61 0l602 1065h75l244 -1065h-67l-76 344h-516l-191 -344h-71z" />
    <glyph glyph-name="aacute.sc" unicode="&#xf7e1;" horiz-adv-x="980" 
d="M578 1229l280 336h78l-309 -336h-49zM571 999h-4l-336 -600h474zM-61 0l602 1065h75l244 -1065h-67l-76 344h-516l-191 -344h-71z" />
    <glyph glyph-name="acircumflex.sc" unicode="&#xf7e2;" horiz-adv-x="980" 
d="M307 1229l324 336h61l203 -336h-64l-178 293l-278 -293h-68zM571 999h-4l-336 -600h474zM-61 0l602 1065h75l244 -1065h-67l-76 344h-516l-191 -344h-71z" />
    <glyph glyph-name="atilde.sc" unicode="&#xf7e3;" horiz-adv-x="980" 
d="M506 1479q55 -1 142 -59t126 -58q86 0 123 123h43q-18 -70 -61 -120t-105 -50t-147 58q-86 58 -127 59q-84 0 -121 -123h-45q47 170 172 170zM571 999h-4l-336 -600h474zM-61 0l602 1065h75l244 -1065h-67l-76 344h-516l-191 -344h-71z" />
    <glyph glyph-name="adieresis.sc" unicode="&#xf7e4;" horiz-adv-x="980" 
d="M391 1309l31 176h65l-30 -176h-66zM784 1309l31 176h66l-31 -176h-66zM571 999h-4l-336 -600h474zM-61 0l602 1065h75l244 -1065h-67l-76 344h-516l-191 -344h-71z" />
    <glyph glyph-name="aring.sc" unicode="&#xf7e5;" horiz-adv-x="980" 
d="M620 1264q57 0 106 48q48 48 48 110t-34 95q-34 31 -92 31t-104 -48t-46 -112q0 -124 122 -124zM618 1227q-74 0 -118 41q-44 40 -45 120q0 80 61 138t135 59q74 0 120 -41q46 -40 46 -120t-62 -139q-63 -58 -137 -58zM571 999h-4l-336 -600h474zM-61 0l602 1065h75
l244 -1065h-67l-76 344h-516l-191 -344h-71z" />
    <glyph glyph-name="ae.sc" unicode="&#xf7e6;" horiz-adv-x="1701" 
d="M297 317h532l115 682zM-80 0l1014 1065h749l-6 -57h-665l-74 -437h543l-8 -55h-545l-78 -459h678l-8 -57h-744l43 262h-573l-248 -262h-78z" />
    <glyph glyph-name="ccedilla.sc" unicode="&#xf7e7;" horiz-adv-x="1177" 
d="M94 428q0 264 176 460t432 195q184 0 292 -91t128 -249h-63q-51 283 -359 283q-227 0 -383 -177t-155 -417q0 -168 105 -280t284 -113q295 0 434 283h66q-70 -156 -197 -247t-299 -93l-41 -78q78 -2 119 -40t41 -106t-58 -128q-58 -58 -172 -58h-98l10 45h93q86 0 129 45
t43 95t-34 78t-100 28h-36l69 119q-194 8 -310 135t-116 311z" />
    <glyph glyph-name="egrave.sc" unicode="&#xf7e8;" horiz-adv-x="1032" 
d="M653 1229l-190 336h72l165 -336h-47zM109 0l180 1065h725l-8 -57h-664l-74 -437h541l-8 -55h-543l-78 -459h678l-8 -57h-741z" />
    <glyph glyph-name="eacute.sc" unicode="&#xf7e9;" horiz-adv-x="1032" 
d="M649 1229l281 336h78l-310 -336h-49zM109 0l180 1065h725l-8 -57h-664l-74 -437h541l-8 -55h-543l-78 -459h678l-8 -57h-741z" />
    <glyph glyph-name="ecircumflex.sc" unicode="&#xf7ea;" horiz-adv-x="1032" 
d="M379 1229l323 336h62l203 -336h-64l-178 293l-279 -293h-67zM109 0l180 1065h725l-8 -57h-664l-74 -437h541l-8 -55h-543l-78 -459h678l-8 -57h-741z" />
    <glyph glyph-name="edieresis.sc" unicode="&#xf7eb;" horiz-adv-x="1032" 
d="M463 1309l31 176h65l-31 -176h-65zM856 1309l31 176h65l-30 -176h-66zM109 0l180 1065h725l-8 -57h-664l-74 -437h541l-8 -55h-543l-78 -459h678l-8 -57h-741z" />
    <glyph glyph-name="igrave.sc" unicode="&#xf7ec;" horiz-adv-x="460" 
d="M328 1229l-191 336h72l166 -336h-47zM109 0l180 1065h63l-180 -1065h-63z" />
    <glyph glyph-name="iacute.sc" unicode="&#xf7ed;" horiz-adv-x="460" 
d="M324 1229l280 336h78l-309 -336h-49zM109 0l180 1065h63l-180 -1065h-63z" />
    <glyph glyph-name="icircumflex.sc" unicode="&#xf7ee;" horiz-adv-x="460" 
d="M53 1229l324 336h61l203 -336h-63l-179 293l-278 -293h-68zM109 0l180 1065h63l-180 -1065h-63z" />
    <glyph glyph-name="idieresis.sc" unicode="&#xf7ef;" horiz-adv-x="460" 
d="M137 1309l31 176h65l-30 -176h-66zM530 1309l31 176h66l-31 -176h-66zM109 0l180 1065h63l-180 -1065h-63z" />
    <glyph glyph-name="eth.sc" unicode="&#xf7f0;" horiz-adv-x="1181" 
d="M575 1008h-233l-76 -449h236l-6 -51h-238l-78 -451h236q282 0 444 161t162 403q0 171 -114 279t-333 108zM584 1065q244 0 374 -123t132 -321q0 -269 -188 -445t-494 -176h-299l86 508h-191l8 51h191l86 506h295z" />
    <glyph glyph-name="ntilde.sc" unicode="&#xf7f1;" horiz-adv-x="1228" 
d="M631 1479q55 -1 142 -59t126 -58q86 0 123 123h43q-18 -70 -61 -120q-42 -50 -104 -50t-148 58t-127 59q-84 0 -121 -123h-45q47 170 172 170zM109 0l180 1065h61l541 -963h2l164 963h63l-180 -1065h-61l-541 963h-2l-164 -963h-63z" />
    <glyph glyph-name="ograve.sc" unicode="&#xf7f2;" horiz-adv-x="1247" 
d="M725 1229l-190 336h71l166 -336h-47zM546 39q175 0 321 118t198 306q23 84 22 170q0 178 -104 286q-104 107 -279 107q-174 0 -322 -118t-200 -306q-20 -88 -20 -170q0 -178 104 -286q105 -107 280 -107zM94 428q0 279 186 467t431 188q199 0 321 -124t123 -322
q0 -279 -185 -467t-433 -188q-197 0 -320 124t-123 322z" />
    <glyph glyph-name="oacute.sc" unicode="&#xf7f3;" horiz-adv-x="1247" 
d="M721 1229l280 336h78l-309 -336h-49zM546 39q175 0 321 118t198 306q23 84 22 170q0 178 -104 286q-104 107 -279 107q-174 0 -322 -118t-200 -306q-20 -88 -20 -170q0 -178 104 -286q105 -107 280 -107zM94 428q0 279 186 467t431 188q199 0 321 -124t123 -322
q0 -279 -185 -467t-433 -188q-197 0 -320 124t-123 322z" />
    <glyph glyph-name="ocircumflex.sc" unicode="&#xf7f4;" horiz-adv-x="1247" 
d="M451 1229l323 336h62l202 -336h-63l-178 293l-279 -293h-67zM546 39q175 0 321 118t198 306q23 84 22 170q0 178 -104 286q-104 107 -279 107q-174 0 -322 -118t-200 -306q-20 -88 -20 -170q0 -178 104 -286q105 -107 280 -107zM94 428q0 279 186 467t431 188
q199 0 321 -124t123 -322q0 -279 -185 -467t-433 -188q-197 0 -320 124t-123 322z" />
    <glyph glyph-name="otilde.sc" unicode="&#xf7f5;" horiz-adv-x="1247" 
d="M649 1479q55 -1 143 -59t126 -58q86 0 122 123h43q-18 -70 -61 -120q-42 -50 -104 -50t-148 58t-127 59q-84 0 -121 -123h-45q47 170 172 170zM546 39q175 0 321 118t198 306q23 84 22 170q0 178 -104 286q-104 107 -279 107q-174 0 -322 -118t-200 -306
q-20 -88 -20 -170q0 -178 104 -286q105 -107 280 -107zM94 428q0 279 186 467t431 188q199 0 321 -124t123 -322q0 -279 -185 -467t-433 -188q-197 0 -320 124t-123 322z" />
    <glyph glyph-name="odieresis.sc" unicode="&#xf7f6;" horiz-adv-x="1247" 
d="M535 1309l30 176h66l-31 -176h-65zM928 1309l30 176h66l-31 -176h-65zM546 39q175 0 321 118t198 306q23 84 22 170q0 178 -104 286q-104 107 -279 107q-174 0 -322 -118t-200 -306q-20 -88 -20 -170q0 -178 104 -286q105 -107 280 -107zM94 428q0 279 186 467t431 188
q199 0 321 -124t123 -322q0 -279 -185 -467t-433 -188q-197 0 -320 124t-123 322z" />
    <glyph glyph-name="oslash.sc" unicode="&#xf7f8;" horiz-adv-x="1247" 
d="M162 432q0 -150 74 -252l749 735q-106 111 -281 111q-174 0 -322 -118t-200 -306q-20 -88 -20 -170zM544 39q177 0 323 118t198 306q23 84 22 170q0 152 -75 252l-748 -738q103 -108 280 -108zM94 428q0 279 186 467t431 188q197 0 319 -122l125 122h59l-157 -153
q98 -117 98 -293q0 -279 -185 -467t-433 -188q-195 0 -318 122l-125 -122h-61l157 153q-96 119 -96 293z" />
    <glyph glyph-name="ugrave.sc" unicode="&#xf7f9;" horiz-adv-x="1179" 
d="M684 1229l-190 336h71l166 -336h-47zM505 41q167 0 275 97t142 282l110 645h66l-111 -645q-39 -219 -167 -329q-128 -109 -322 -109t-292 110t-59 328l111 645h66l-111 -645q-33 -188 46 -284t246 -95z" />
    <glyph glyph-name="uacute.sc" unicode="&#xf7fa;" horiz-adv-x="1179" 
d="M680 1229l281 336h77l-309 -336h-49zM505 41q167 0 275 97t142 282l110 645h66l-111 -645q-39 -219 -167 -329q-128 -109 -322 -109t-292 110t-59 328l111 645h66l-111 -645q-33 -188 46 -284t246 -95z" />
    <glyph glyph-name="ucircumflex.sc" unicode="&#xf7fb;" horiz-adv-x="1179" 
d="M410 1229l323 336h62l202 -336h-63l-178 293l-279 -293h-67zM505 41q167 0 275 97t142 282l110 645h66l-111 -645q-39 -219 -167 -329q-128 -109 -322 -109t-292 110t-59 328l111 645h66l-111 -645q-33 -188 46 -284t246 -95z" />
    <glyph glyph-name="udieresis.sc" unicode="&#xf7fc;" horiz-adv-x="1179" 
d="M494 1309l30 176h66l-31 -176h-65zM887 1309l31 176h65l-31 -176h-65zM505 41q167 0 275 97t142 282l110 645h66l-111 -645q-39 -219 -167 -329q-128 -109 -322 -109t-292 110t-59 328l111 645h66l-111 -645q-33 -188 46 -284t246 -95z" />
    <glyph glyph-name="yacute.sc" unicode="&#xf7fd;" horiz-adv-x="940" 
d="M565 1229l281 336h78l-310 -336h-49zM344 0l72 430l-303 635h71l275 -578h2l479 578h70l-529 -637l-71 -428h-66z" />
    <glyph glyph-name="thorn.sc" unicode="&#xf7fe;" horiz-adv-x="1064" 
d="M659 821h-348l-92 -538h348q156 0 250 85t94 224q0 98 -67 164q-68 65 -185 65zM666 879q143 0 228 -81t85 -200q0 -166 -116 -269t-302 -104h-352l-39 -225h-61l180 1065h63l-33 -186h347z" />
    <glyph glyph-name="ydieresis.sc" unicode="&#xf7ff;" horiz-adv-x="940" 
d="M379 1309l31 176h65l-31 -176h-65zM772 1309l31 176h65l-30 -176h-66zM344 0l72 430l-303 635h71l275 -578h2l479 578h70l-529 -637l-71 -428h-66z" />
    <glyph glyph-name="at.sc" horiz-adv-x="1691" 
d="M702 35q127 0 221 76q92 76 121 221l19 100q-18 -29 -113 -43l-196 -29q-221 -35 -222 -192q0 -61 46 -97t124 -36zM469 162q0 199 274 239l201 31q121 16 131 72q16 94 -29 155q-46 61 -152 61t-181 -50q-74 -51 -99 -152h-59q29 123 119 188q90 64 222 64t198 -72
t43 -200l-54 -303q-14 -76 23 -120t115 -44q109 0 189 85q80 86 113 194q34 108 33 212q0 238 -172 375t-412 137t-426 -99q-187 -99 -302 -285t-115 -422q0 -237 159 -385q158 -148 422 -148t449 158h68q-207 -205 -531 -205q-274 0 -448 163t-174 413t123 448
q123 197 323 303t436 106q281 1 468 -151q188 -152 188 -418t-178 -435q-96 -91 -228 -91q-82 0 -135 40t-53 117v4q-111 -162 -328 -161q-102 0 -162 48q-59 48 -59 128z" />
    <glyph glyph-name="fi.sc" horiz-adv-x="1423" 
d="M1071 0l180 1065h66l-180 -1065h-66zM109 0l180 1065h717l-9 -57h-655l-78 -455h533l-9 -55h-532l-84 -498h-63z" />
    <glyph glyph-name="fl.sc" horiz-adv-x="1892" 
d="M1071 0l180 1065h66l-172 -1008h616l-8 -57h-682zM109 0l180 1065h717l-9 -57h-655l-78 -455h533l-9 -55h-532l-84 -498h-63z" />
    <glyph glyph-name="t_t" horiz-adv-x="1140" 
d="M367 0q-135 0 -185 68q-49 68 -26 206l112 672h-209l9 53h211l51 304h63l-51 -304h469l51 304h66l-51 -304h299l-9 -53h-301l-110 -667q-20 -117 14 -169t141 -53h115l-6 -57h-119q-135 0 -185 68t-26 206l113 672h-471l-111 -667q-18 -117 17 -169t141 -53h110l-8 -57
h-114z" />
    <glyph glyph-name="t_f" horiz-adv-x="1081" 
d="M1188 1499h82l-6 -57h-80q-223 0 -266 -246l-35 -197h270l-8 -53h-271l-159 -946h-66l160 946h-477l-111 -667q-18 -117 17 -169t141 -53h74l-7 -57h-77q-135 0 -186 68q-50 68 -27 206l112 672h-209l9 53h211l51 304h63l-51 -304h475l35 199q49 301 336 301z" />
    <glyph glyph-name="caronquoteleft" horiz-adv-x="1089" 
d="M616 1163l25 135l107 215h30l-94 -217h23l-25 -133h-66z" />
    <glyph glyph-name="caronquoteright" horiz-adv-x="1089" 
d="M596 1163l96 217h-22l22 133h66l-25 -133l-106 -217h-31z" />
    <glyph glyph-name="slashedzero" horiz-adv-x="1163" 
d="M182 438q0 -152 60 -258l702 1096q-80 92 -221 92q-199 0 -336 -182t-184 -481q-21 -115 -21 -267zM498 41q199 0 336 182t184 482q20 115 20 237q0 186 -65 293l-703 -1098q81 -96 228 -96zM492 -18q-188 0 -282 129q-93 129 -93 354q0 123 18 240q49 319 207 521
t387 201q191 0 283 -129t92 -354q0 -121 -19 -239q-49 -319 -206 -522q-158 -201 -387 -201z" />
    <glyph glyph-name="zero.sc" horiz-adv-x="1032" 
d="M162 365q0 -328 282 -328q148 0 260 134t150 351q16 94 16 180q0 154 -66 240q-68 86 -216 86t-260 -134t-150 -351q-16 -94 -16 -178zM440 -18q-180 0 -262 102t-82 278q0 86 17 181q41 237 171 389t309 152t261 -103q82 -102 82 -279q0 -86 -16 -180
q-41 -238 -171 -389q-129 -151 -309 -151z" />
    <glyph glyph-name="one.sc" horiz-adv-x="1032" 
d="M233 780l-22 49l420 236h45l-172 -1010h330l-9 -55h-741l8 55h346l158 928z" />
    <glyph glyph-name="two.sc" horiz-adv-x="1032" 
d="M596 1028q-123 0 -220 -68t-126 -208h-62q37 172 152 252t260 80t240 -71q94 -71 94 -177t-42 -158q-24 -30 -43 -52t-59 -46t-63 -37q-23 -12 -73 -36t-68 -34l-144 -74q-150 -75 -213 -147t-90 -197h676l-6 -55h-752q35 174 112 266t237 174l145 74q19 10 75 37
q160 78 198 131q46 68 46 149q0 82 -75 140q-76 57 -199 57z" />
    <glyph glyph-name="three.sc" horiz-adv-x="1032" 
d="M811 319q0 97 -81 155t-216 58h-84l10 52h82q145 0 240 71q94 72 94 189q0 86 -70 136t-190 50t-213 -62q-94 -62 -113 -184h-57q20 140 131 220t256 80t231 -64q87 -64 87 -170t-72 -185t-197 -106v-2q105 -21 165 -83t60 -152q0 -160 -122 -250t-339 -90
q-216 0 -303 137q-48 75 -30 186h59q-23 -137 63 -204t244 -67q156 0 261 77q104 76 104 208z" />
    <glyph glyph-name="four.sc" horiz-adv-x="1032" 
d="M131 352h502l104 611zM47 299l6 37v8l715 721h53l-123 -713h193l-8 -53h-193l-51 -299h-66l52 299h-578z" />
    <glyph glyph-name="five.sc" horiz-adv-x="1032" 
d="M170 279q0 -103 79 -173t204 -70t219 66q149 102 149 281q0 109 -78 179t-200 71q-199 0 -320 -166l-67 6l137 592h639l-8 -57h-584l-107 -459h7q113 139 315 139q145 0 239 -84t93 -217q0 -63 -19 -119q-40 -133 -154 -210q-114 -76 -262 -76t-246 81t-100 216h64z" />
    <glyph glyph-name="six.sc" horiz-adv-x="1032" 
d="M174 283q0 -115 79 -181t202 -66t216 68q144 103 144 273q0 113 -75 185t-217 73q-141 0 -245 -101t-104 -251zM100 344q0 74 15 164q49 299 185 437t325 138q143 1 227 -71t84 -211h-64q0 109 -64 168q-65 59 -187 59q-160 0 -277 -124t-164 -396l-6 -47q43 103 142 165
q98 62 240 62t234 -86t91 -221q0 -51 -15 -102q-37 -133 -150 -216q-114 -81 -268 -81t-252 90q-96 90 -96 272z" />
    <glyph glyph-name="seven.sc" horiz-adv-x="1032" 
d="M254 0l702 1006h-735l10 59h809l-6 -43l-710 -1022h-70z" />
    <glyph glyph-name="eight.sc" horiz-adv-x="1032" 
d="M525 584q120 0 208 52q123 73 123 210q0 86 -70 135t-188 49t-206 -52q-118 -71 -122 -210q0 -84 68 -134t187 -50zM133 238q0 -98 77 -150t222 -53q145 0 245 57q134 77 134 227q0 97 -80 155t-211 58q-132 0 -240 -59q-148 -80 -147 -235zM444 -18q-376 0 -376 253
q0 125 93 211t234 115q-90 21 -137 75t-47 128q0 145 112 232t268 87q155 0 241 -63q86 -62 86 -168t-73 -185t-198 -106v-2q103 -23 165 -86t62 -151q0 -160 -122 -250t-308 -90z" />
    <glyph glyph-name="nine.sc" horiz-adv-x="1032" 
d="M860 782q0 110 -78 178t-202 68t-216 -66q-93 -66 -128 -176q-16 -53 -17 -98q0 -114 75 -186q76 -72 218 -72t245 101t103 251zM162 264q0 -109 64 -168t188 -59q162 0 278 124t162 396l6 49q-41 -104 -141 -166q-101 -62 -241 -63q-140 0 -231 86t-91 221q0 51 14 102
q37 133 151 215q113 82 267 82t249 -91t97 -271q0 -86 -12 -164q-50 -299 -186 -437t-324 -138q-143 0 -228 71q-84 72 -86 211h64z" />
    <glyph glyph-name="slashedzero.sc" horiz-adv-x="1032" 
d="M162 365q0 -154 63 -238l545 846q-66 55 -170 55q-160 0 -272 -134t-150 -351q-16 -94 -16 -178zM432 37q160 0 272 134t150 351q16 94 16 180q0 154 -65 238l-547 -848q65 -55 174 -55zM440 -18q-180 0 -262 102t-82 278q0 86 17 181q41 237 171 389t309 152t261 -103
q82 -102 82 -279q0 -86 -16 -180q-41 -238 -171 -389q-129 -151 -309 -151z" />
    <glyph glyph-name="currency.sc" horiz-adv-x="1032" 
d="M484 244q120 0 216 102t96 224t-62 186q-64 64 -167 63q-135 0 -231 -103t-96 -243q0 -102 62 -166q62 -63 182 -63zM182 473q0 164 121 281l-98 125l41 32l98 -120q102 79 227 79t205 -79l142 122l36 -36l-147 -125q47 -70 47 -162q0 -164 -123 -283l100 -123l-43 -32
l-98 118q-100 -78 -228 -78t-202 78l-143 -123l-35 39l145 123q-45 74 -45 164z" />
    <glyph glyph-name="dollar.sc" horiz-adv-x="1032" 
d="M567 1030q-139 0 -226 -66t-87 -182q0 -74 50 -114t145 -64l182 -49q236 -63 235 -250q0 -145 -112 -231t-295 -92l-33 -187h-59l32 189q-145 10 -239 90t-80 223h61q-12 -129 78 -196q89 -67 235 -67t246 70q100 68 101 191q0 152 -203 207l-182 49q-227 57 -228 221
q0 137 102 221t275 90l31 179h59l-32 -181q135 -10 218 -85t81 -201h-62q2 111 -76 173t-217 62z" />
    <glyph glyph-name="cent.sc" horiz-adv-x="1032" 
d="M143 467q0 218 153 353q118 103 279 112l25 149h59l-24 -151q119 -10 197 -77t88 -179h-66q-10 94 -79 149t-195 55t-230 -90q-138 -121 -139 -319q0 -121 76 -196q75 -75 199 -75t210 58q86 57 119 150h64q-35 -111 -135 -183t-234 -80l-27 -159h-61l29 159
q-139 9 -223 99t-85 225z" />
    <glyph glyph-name="Euro.sc" horiz-adv-x="1032" 
d="M674 1028q-128 0 -230 -97t-155 -253h389l-12 -41h-390q-24 -100 -30 -195h362l-12 -41h-352v-22q0 -158 74 -250t212 -92q199 0 301 203h62q-117 -258 -369 -258q-166 0 -256 108t-90 285v26h-151l12 41h139q11 124 35 195h-117l13 41h116q59 178 178 292t291 113
q139 1 217 -77t84 -209h-59q-6 107 -70 169t-192 62z" />
    <glyph glyph-name="yen.sc" horiz-adv-x="1032" 
d="M170 416l4 39h285l-293 610h74l268 -567h4l467 567h72l-506 -610h280l-4 -39h-293l-26 -164h291l-5 -37h-292l-37 -215h-66l37 215h-293l4 37h295l27 164h-293z" />
    <glyph glyph-name="sterling.sc" horiz-adv-x="1032" 
d="M141 27q123 0 187 149q-86 72 -157 72t-108 -35t-37 -81t31 -76q31 -29 84 -29zM279 764q0 143 96 231q97 88 239 88q142 1 222 -69t69 -203h-59q8 106 -56 163q-64 56 -180 56t-192 -73t-76 -191q0 -55 47 -193h326l-4 -43h-308q29 -98 29 -174t-45 -172q44 -44 60 -56
q17 -12 41 -32t37 -26t41 -20t77 -15q88 0 132 57t75 162h57q-37 -127 -95 -198t-173 -70q-78 0 -135 42q-18 13 -28 19q-10 7 -30 23t-26 22t-28 26t-25 23q-88 -156 -230 -155q-71 0 -115 38t-44 106t52 114q52 47 138 47t176 -72q27 78 27 148t-33 163h-186l6 43h166
q-45 127 -45 191z" />
    <glyph glyph-name="florin.sc" horiz-adv-x="1032" 
d="M744 1083q208 0 184 -249l-6 -50h-58l4 47q10 102 -18 152q-29 49 -107 49q-152 0 -184 -207l-47 -282h266l-2 -45h-272l-90 -545q-41 -258 -251 -258t-181 250l4 49h59l-6 -47q-25 -201 127 -201t184 207l88 545h-223l2 45h229l48 282q42 258 250 258z" />
    <glyph glyph-name="zero.TOSF" horiz-adv-x="1163" 
d="M160 391q0 -158 92 -255t246 -97q196 0 346 165t149 404q0 158 -91 255t-245 98q-197 0 -347 -165t-150 -405zM92 387q0 267 171 449t399 182q182 0 290 -112t109 -294q0 -266 -171 -448t-398 -182q-182 0 -291 112t-109 293z" />
    <glyph glyph-name="one.TOSF" horiz-adv-x="1163" 
d="M244 659l-27 50l469 290h47l-160 -942h400l-6 -57h-885l6 57h420l145 852z" />
    <glyph glyph-name="two.TOSF" horiz-adv-x="1163" 
d="M644 1018q171 0 270 -73t100 -187q0 -160 -166 -242q-49 -27 -184 -72l-179 -59q-127 -45 -216 -129t-107 -199h762l-9 -57h-841q51 322 391 436l180 60q189 60 246 118t57 143t-81 145t-218 61q-336 0 -403 -291h-60q35 176 161 261t297 85z" />
    <glyph glyph-name="three.TOSF" horiz-adv-x="1163" 
d="M526 299h-102l10 55h107q173 0 289 100t116 234q0 133 -84 203t-230 70t-260 -85t-143 -251h-61q33 188 164 290q131 103 304 103t273 -85q101 -85 101 -229t-104 -247q-104 -104 -238 -125v-4q124 -25 202 -112t78 -202q0 -206 -156 -324t-373 -118q-218 0 -331 114
t-80 312h62q-27 -168 68 -268q96 -100 284 -100t323 102t136 280q1 123 -97 205t-258 82z" />
    <glyph glyph-name="four.TOSF" horiz-adv-x="1163" 
d="M55 57h621l139 832zM-31 0l8 47l871 959h53l-160 -949h234l-8 -57h-234l-69 -410h-66l68 410h-697z" />
    <glyph glyph-name="five.TOSF" horiz-adv-x="1163" 
d="M436 -371q160 0 272 80t162 213q39 90 39 191q0 147 -94 234t-231 87q-233 0 -396 -211l-65 4l174 772h754l-9 -59h-694l-145 -633h2q154 184 389 185q164 0 272 -100t109 -275q0 -94 -35 -195q-57 -160 -190 -255t-317 -95t-289 104t-109 269h65q6 -133 91 -225t245 -91
z" />
    <glyph glyph-name="six.TOSF" horiz-adv-x="1163" 
d="M207 356q0 -141 85 -229t243 -88q157 0 275 97t163 247q23 82 22 145q0 144 -87 230t-236 86q-199 0 -332 -144t-133 -344zM129 440q0 88 8 168q63 482 318 701q139 119 317 119t271 -99q93 -98 83 -272h-65q8 145 -69 229t-212 84q-258 0 -398 -230q-141 -230 -177 -532
q-4 -20 -4 -47q49 147 178 243t303 97q174 0 277 -101t104 -268q0 -63 -23 -149q-45 -174 -184 -288q-140 -113 -326 -113t-294 112t-107 346z" />
    <glyph glyph-name="seven.TOSF" horiz-adv-x="1163" 
d="M221 -410l826 1350h-857l9 59h931l-8 -47l-829 -1362h-72z" />
    <glyph glyph-name="eight.TOSF" horiz-adv-x="1163" 
d="M317 1026q0 -118 78 -190t240 -72q163 0 279 100t116 234t-84 204t-234 70t-273 -95q-122 -95 -122 -251zM141 326q-1 -127 99 -207t273 -80t313 104t141 275q-1 127 -99 209t-276 82q-178 -1 -314 -109q-137 -108 -137 -274zM76 325q0 157 120 271t281 141v4
q-102 23 -163 98q-60 75 -60 187q0 178 141 290t319 112t278 -86q102 -85 102 -227q0 -141 -100 -245t-238 -131v-4q122 -25 198 -109t76 -206q0 -197 -160 -318q-160 -120 -361 -120t-318 93q-115 93 -115 250z" />
    <glyph glyph-name="nine.TOSF" horiz-adv-x="1163" 
d="M950 643q0 143 -89 230t-243 87t-271 -96q-118 -98 -163 -248q-23 -82 -22 -145q0 -143 87 -229t236 -86q197 0 331 144t134 343zM376 -371q258 0 399 230t177 532q0 8 4 45q-49 -147 -178 -242q-129 -96 -303 -96t-277 102t-104 267q0 76 23 149q45 174 184 288t325 114
t295 -113q108 -113 107 -346q0 -88 -8 -168q-63 -481 -318 -700q-139 -119 -317 -119t-271 98t-83 273h65q-10 -145 67 -229t213 -85z" />
    <glyph glyph-name="slashedzero.TOSF" horiz-adv-x="1163" 
d="M160 391q0 -137 69 -229l660 712q-92 86 -232 87q-197 0 -347 -165t-150 -405zM993 608q0 137 -69 230l-662 -713q90 -86 236 -86q197 1 346 165t149 404zM92 387q0 267 171 449t399 182q182 0 290 -112t109 -294q0 -266 -171 -448t-398 -182q-182 0 -291 112t-109 293z
" />
    <glyph glyph-name="zero.PPF" horiz-adv-x="1099" 
d="M463 41q190 0 317 181t178 483q25 135 25 249q0 194 -73 304t-218 110q-190 0 -316 -180t-177 -483q-25 -135 -25 -250q0 -195 72 -305t217 -109zM109 451q0 125 20 254q55 327 201 525t370 197q176 0 263 -124q86 -125 86 -345q0 -131 -23 -253q-56 -326 -202 -525
t-369 -198q-178 0 -262 125t-84 344z" />
    <glyph glyph-name="one.PPF" horiz-adv-x="606" 
d="M147 1120l-24 49l393 240h49l-241 -1409h-66l227 1323z" />
    <glyph glyph-name="two.PPF" horiz-adv-x="1011" 
d="M932 1108q0 118 -80 190t-207 72q-330 0 -399 -373h-60q39 227 165 329t288 101t260 -83t98 -216t-56 -226q-55 -93 -109 -133t-116 -78t-64 -39q-3 -1 -7 -4t-8 -5l-176 -106q-180 -109 -257 -209t-112 -271h754l-8 -57h-828q43 225 132 343t280 235l176 106
q64 39 76 46t64 42t67 51q14 15 49 53t45 68q33 98 33 164z" />
    <glyph glyph-name="three.PPF" horiz-adv-x="1058" 
d="M458 39q176 0 301 105q124 105 124 280q0 125 -92 205t-236 80h-78l12 55h80q150 0 265 98q114 98 114 234t-80 206q-80 68 -210 68t-238 -84q-106 -84 -129 -252h-64q27 188 153 290t282 103q156 0 253 -84t97 -228q0 -145 -98 -247t-228 -127v-4q116 -23 188 -107
t72 -206q0 -199 -141 -321q-141 -121 -349 -121t-318 112t-75 314h62q-31 -172 63 -270t270 -99z" />
    <glyph glyph-name="four.PPF" horiz-adv-x="1056" 
d="M119 467h592l139 829zM33 410l8 47l842 958h53l-160 -948h213l-6 -57h-215l-70 -410h-65l67 410h-667z" />
    <glyph glyph-name="five.PPF" horiz-adv-x="1015" 
d="M55 354h66q0 -131 76 -223q75 -92 249 -92q174 -1 297 149t123 347q0 141 -80 225t-217 84q-215 0 -364 -211l-66 4l183 772h688l-9 -59h-628l-152 -627h2q135 178 359 178q162 0 257 -97t95 -265q0 -223 -144 -391t-360 -166q-184 0 -280 104t-95 268z" />
    <glyph glyph-name="six.PPF" horiz-adv-x="1069" 
d="M188 350q0 -141 77 -226t220 -85q186 0 309 148q122 148 121 348q0 141 -76 225q-77 84 -212 84q-187 0 -313 -148t-126 -346zM113 432q0 41 12 170q12 128 55 276q160 550 552 550q150 0 238 -100q89 -99 79 -271h-66q10 145 -62 229q-73 84 -201 84t-223 -68t-155 -185
q-116 -223 -152 -529q53 137 172 225t278 88t250 -97t91 -265q0 -225 -141 -391t-357 -166q-370 -1 -370 450z" />
    <glyph glyph-name="seven.PPF" horiz-adv-x="872" 
d="M41 0l866 1350h-733l6 59h811l-8 -47l-870 -1362h-72z" />
    <glyph glyph-name="eight.PPF" horiz-adv-x="1064" 
d="M295 1018q1 -114 79 -184t214 -70t252 100q115 100 114 252q0 119 -80 188t-198 68q-154 0 -268 -101t-113 -253zM121 322q0 -127 92 -205t258 -78q166 -1 292 107t126 278q0 125 -91 205t-252 80q-161 1 -293 -107t-132 -280zM55 324q0 159 115 273t266 140v4
q-88 25 -146 98t-59 179q-1 172 133 291t316 118q147 0 243 -82q95 -83 95 -225t-96 -246t-224 -133v-4q115 -27 186 -109t70 -204q0 -195 -145 -319q-145 -123 -341 -123t-305 92q-108 92 -108 250z" />
    <glyph glyph-name="nine.PPF" horiz-adv-x="1069" 
d="M952 1059q0 135 -75 223q-76 88 -222 88q-188 0 -309 -148t-121 -348q0 -143 77 -226t212 -83q186 1 312 149t126 345zM421 39q128 0 223 70q96 71 156 187q117 226 150 529q-51 -139 -170 -228q-118 -89 -278 -89t-252 97t-92 265q0 226 142 392t357 165q369 0 369 -450
q0 -225 -53 -408q-53 -184 -122 -311t-177 -202t-242 -74q-168 0 -259 99t-81 271h66q-10 -145 62 -229t201 -84z" />
    <glyph glyph-name="slashedzero.PPF" horiz-adv-x="1099" 
d="M174 432q0 -138 47 -239l684 1073q-74 102 -213 102q-190 0 -316 -180t-177 -483q-25 -135 -25 -273zM463 41q190 0 317 181t178 483q25 135 25 274t-51 242l-684 -1074q72 -106 215 -106zM455 -18q-178 0 -262 124t-84 345q0 125 20 254q55 327 201 525t370 197
q176 0 263 -124q86 -125 86 -345q0 -131 -23 -253q-56 -327 -202 -525t-369 -198z" />
    <glyph glyph-name="currency.PPF" horiz-adv-x="950" 
d="M461 412q135 0 231 103t96 225t-63 186t-183 63q-120 0 -216 -103t-96 -224q0 -122 64 -186q65 -64 167 -64zM172 641q0 164 123 283l-98 123l41 32l96 -121q106 82 229 82t203 -79l145 120l33 -37l-145 -124q47 -70 47 -160q0 -158 -121 -283l98 -123l-41 -32l-98 120
q-104 -82 -229 -82t-205 80l-144 -123l-32 37l145 123q-47 72 -47 164z" />
    <glyph glyph-name="dollar.PPF" horiz-adv-x="1003" 
d="M425 37q163 0 277 102t115 258q0 105 -52 167t-165 104l-188 67q-115 43 -176 109t-62 184q0 168 120 279t296 118l37 222h65l-37 -222q141 -12 231 -105t79 -241h-64q6 135 -77 214q-84 79 -226 79t-250 -93t-106 -245q0 -98 52 -150t157 -91l186 -70q125 -45 185 -121
t61 -201q0 -177 -128 -293t-327 -126l-37 -228h-65l36 230q-160 12 -256 113q-95 102 -77 274h65q-16 -156 76 -245t255 -89z" />
    </font>
</defs>
</svg>
