<?xml version="1.0" standalone="no"?>
<!DOCTYPE svg PUBLIC "-//W3C//DTD SVG 1.1//EN" "http://www.w3.org/Graphics/SVG/1.1/DTD/svg11.dtd" >
<svg xmlns="http://www.w3.org/2000/svg">
<metadata>
Created by FontPrep 20130207 at Wed Jan  3 23:35:49 2018
 By Daniel
(c) Copyright (c) 2010. All rights reserved. Fakt is a design by Thomas Thiemich, published by OurType. www.ourtype.com
</metadata>
<defs>
<font id="67aacebd5fff6eb0746568b42b2bf2aa" horiz-adv-x='1024' >
  <font-face 
    font-family="FaktPro-BoldItalic"
    font-weight="700"
    font-style="italic"
    font-stretch="normal"
    units-per-em="2048"
    panose-1="2 0 0 0 0 0 0 0 0 0"
    ascent="1532"
    descent="-516"
    x-height="999"
    cap-height="1409"
    bbox="-461 -639 2570.01 2073"
    underline-thickness="102"
    underline-position="-102"
    unicode-range="U+0020-FB04"
  />
<missing-glyph horiz-adv-x="1458" 
d="M475 377l258 264l258 -264l107 106l-260 267l260 266l-107 106l-258 -264l-258 264l-106 -106l258 -266l-258 -267zM0 0v1475h1458v-1475h-1458z" />
    <glyph glyph-name="f_b" unicode="fb" horiz-adv-x="1990" 
d="M1130 416q0 -102 50 -160t143 -57q127 1 205 111t78 274q0 102 -50 159t-143 58q-127 -1 -205 -111t-78 -274zM756 1270q-72 0 -111 -36t-55 -124l-21 -111h187l-39 -221h-185l-133 -778h-305l135 778h-188l41 221h184l21 113q35 205 140 296t314 91h566l-43 -262
q-23 -147 -72 -342h8q106 129 300 129t305 -111q112 -111 112 -313q0 -281 -158 -453t-385 -172q-120 0 -198 45t-103 119h-10l-27 -139h-291l218 1270h-207z" />
    <glyph glyph-name="f_f_b" unicode="ffb" horiz-adv-x="2646" 
d="M1784 416q0 -102 50 -160t142 -57q127 1 205 111t78 274q0 102 -50 159t-143 58q-126 -1 -204 -111t-78 -274zM1409 1270q-72 0 -111 -36t-53 -124l-20 -111h186l-41 -221h-182l-133 -778h-305l133 778h-351l-133 -778h-305l135 778h-188l41 221h184l21 113
q35 205 140 296t314 91h113l-35 -229h-63q-72 0 -111 -36t-55 -124l-21 -111h351l20 113q35 205 141 296t314 91h565l-43 -262q-23 -147 -72 -342h8q106 129 300 129t306 -111t111 -313q0 -281 -158 -453t-384 -172q-119 0 -198 45t-104 119h-10l-26 -139h-291l217 1270
h-207z" />
    <glyph glyph-name="f_f_h" unicode="ffh" horiz-adv-x="2619" 
d="M741 1499h113l-35 -229h-63q-72 0 -111 -36t-55 -124l-21 -111h351l20 113q35 205 141 296t314 91h567l-55 -311q-41 -231 -64 -324h4q109 160 328 160q168 0 263 -105t59 -333l-99 -586h-303l92 569q18 121 -16 173q-35 52 -124 52t-159 -71q-70 -72 -90 -195l-90 -528
h-305l215 1270h-209q-72 0 -111 -36t-53 -124l-20 -111h186l-41 -221h-182l-133 -778h-305l133 778h-351l-133 -778h-305l135 778h-188l41 221h184l21 113q35 205 140 296t314 91z" />
    <glyph glyph-name="f_f_j" unicode="ffj" horiz-adv-x="1937" 
d="M1610 1233l45 266h321l-47 -266h-319zM1245 -221q69 0 99 36t45 117l147 846h-348l-133 -778h-305l133 778h-351l-133 -778h-305l135 778h-188l41 221h184l21 113q35 205 140 296t314 91h113l-35 -229h-74q-67 0 -103 -36t-52 -124l-21 -111h351l20 113q35 205 141 296
t314 91h112l-34 -229h-74q-66 0 -103 -37t-51 -123l-20 -111h655l-188 -1077q-34 -190 -136 -281t-317 -92h-92l41 230h57z" />
    <glyph glyph-name="f_f_k" unicode="ffk" horiz-adv-x="2527" 
d="M741 1499h113l-35 -229h-63q-72 0 -111 -36t-55 -124l-21 -111h351l20 113q35 205 141 296t314 91h567l-145 -860l387 360h356l-446 -401l301 -598h-328l-193 401l-139 -127l-47 -274h-305l215 1270h-209q-72 0 -111 -36t-53 -124l-20 -111h186l-41 -221h-182l-133 -778
h-305l133 778h-351l-133 -778h-305l135 778h-188l41 221h184l21 113q35 205 140 296t314 91z" />
    <glyph glyph-name="f_f_t" unicode="fft" horiz-adv-x="2078" 
d="M741 1499h113l-35 -229h-63q-72 0 -111 -36t-55 -124l-21 -111h351l20 113q35 205 141 296t314 91h121l-35 -229h-72q-72 0 -111 -36t-53 -124l-20 -111h342l53 304h303l-51 -304h239l-40 -221h-238l-66 -391q-15 -80 5 -114t98 -33h108l-41 -240h-159q-215 0 -284 86
t-36 283l70 409h-340l-133 -778h-305l133 778h-351l-133 -778h-305l135 778h-188l41 221h184l21 113q35 205 140 296t314 91z" />
    <glyph glyph-name="f_h" unicode="fh" horiz-adv-x="1966" 
d="M741 1499h568l-54 -311q-55 -279 -67 -324h6q109 160 328 160q168 0 263 -105t58 -333l-98 -586h-305l94 569q18 121 -17 173q-36 52 -125 52t-158 -71q-69 -72 -89 -195l-90 -528h-305l215 1270h-209q-72 0 -111 -36t-55 -124l-21 -111h187l-39 -221h-185l-133 -778
h-305l135 778h-188l41 221h184l21 113q35 205 140 296t314 91z" />
    <glyph glyph-name="f_j" unicode="fj" horiz-adv-x="1282" 
d="M954 1233l47 266h320l-45 -266h-322zM592 -221q66 0 98 36t45 117l148 846h-351l-133 -778h-305l135 778h-188l41 221h184l21 113q35 205 140 296t314 91h113l-35 -229h-74q-67 0 -103 -37t-52 -123l-21 -111h658l-189 -1077q-35 -190 -136 -281t-316 -92h-94l43 230h57z
" />
    <glyph glyph-name="f_k" unicode="fk" horiz-adv-x="1873" 
d="M741 1499h568l-146 -860l387 360h357l-449 -403l303 -596h-327l-193 401l-139 -127l-47 -274h-305l215 1270h-209q-72 0 -111 -36t-55 -124l-21 -111h187l-39 -221h-185l-133 -778h-305l135 778h-188l41 221h184l21 113q35 205 140 296t314 91z" />
    <glyph glyph-name="f_t" unicode="ft" horiz-adv-x="1425" 
d="M741 1499h121l-37 -229h-80q-67 0 -103 -37t-52 -123l-21 -111h342l54 304h305l-51 -304h239l-43 -221h-235l-66 -391q-14 -80 5 -114t98 -33h108l-43 -240h-158q-214 0 -284 86t-35 283l69 409h-342l-133 -778h-305l135 778h-188l41 221h184l21 113q35 205 140 296
t314 91z" />
    <glyph glyph-name="fi" unicode="fi" horiz-adv-x="1282" 
d="M954 1233l47 266h320l-45 -266h-322zM741 1499h113l-35 -229h-74q-67 0 -103 -37t-52 -123l-21 -111h658l-172 -999h-305l133 778h-351l-133 -778h-305l135 778h-188l41 221h184l21 113q35 205 140 296t314 91z" />
    <glyph glyph-name="fl" unicode="fl" horiz-adv-x="1282" 
d="M741 1499h568l-254 -1499h-305l215 1270h-209q-72 0 -111 -36t-55 -124l-21 -111h187l-39 -221h-185l-133 -778h-305l135 778h-188l41 221h184l21 113q35 205 140 296t314 91z" />
    <glyph glyph-name="ff" unicode="ff" horiz-adv-x="1384" 
d="M741 1499h113l-35 -229h-74q-67 0 -103 -36t-52 -124l-21 -111h351l20 113q35 205 141 296t314 91h172l-37 -229h-121q-72 0 -111 -36t-53 -124l-20 -111h227l-41 -221h-223l-133 -778h-305l133 778h-351l-133 -778h-305l135 778h-188l41 221h184l21 113q35 205 140 296
t314 91z" />
    <glyph glyph-name="ffi" unicode="ffi" horiz-adv-x="1937" 
d="M1610 1233l45 266h321l-47 -266h-319zM741 1499h113l-35 -229h-74q-67 0 -103 -36t-52 -124l-21 -111h351l20 113q35 205 141 296t314 91h112l-34 -229h-74q-66 0 -103 -37t-51 -123l-20 -111h655l-172 -999h-305l133 778h-348l-133 -778h-305l133 778h-351l-133 -778
h-305l135 778h-188l41 221h184l21 113q35 205 140 296t314 91z" />
    <glyph glyph-name="ffl" unicode="ffl" horiz-adv-x="1937" 
d="M741 1499h113l-35 -229h-74q-67 0 -103 -36t-52 -124l-21 -111h351l20 113q35 205 141 296t314 91h567l-254 -1499h-305l215 1270h-209q-72 0 -111 -36t-53 -124l-20 -111h186l-41 -221h-182l-133 -778h-305l133 778h-351l-133 -778h-305l135 778h-188l41 221h184l21 113
q35 205 140 296t314 91z" />
    <glyph glyph-name=".notdef" horiz-adv-x="1458" 
d="M475 377l258 264l258 -264l107 106l-260 267l260 266l-107 106l-258 -264l-258 264l-106 -106l258 -266l-258 -267zM0 0v1475h1458v-1475h-1458z" />
    <glyph glyph-name=".null" horiz-adv-x="0" 
 />
    <glyph glyph-name="nonmarkingreturn" horiz-adv-x="681" 
 />
    <glyph glyph-name="space" unicode=" " horiz-adv-x="450" 
 />
    <glyph glyph-name="exclam" unicode="!" horiz-adv-x="595" 
d="M55 0l51 295h304l-52 -295h-303zM190 432l27 596l66 381h325l-65 -381l-174 -596h-179z" />
    <glyph glyph-name="quotedbl" unicode="&#x22;" horiz-adv-x="921" 
d="M199 803l28 389l37 217h271l-37 -217l-105 -389h-194zM621 803l28 389l37 217h270l-36 -217l-105 -389h-194z" />
    <glyph glyph-name="numbersign" unicode="#" horiz-adv-x="1306" 
d="M602 895l-67 -383h233l68 383h-234zM160 895v201h239l56 313h237l-55 -313h233l56 313h237l-55 -313h199v-201h-234l-67 -383h202l-6 -203h-231l-53 -309h-238l53 309h-233l-54 -309h-237l53 309h-203v203h238l68 383h-205z" />
    <glyph glyph-name="dollar" unicode="$" 
d="M514 197q100 0 169 53t69 133t-43 116t-121 58l-156 47q-281 84 -280 350q0 184 122 315q123 130 330 156l37 222h225l-37 -226q150 -31 238 -127t68 -250h-299q4 78 -41 120t-128 42t-143 -49t-59 -139q0 -55 37 -88t116 -58l156 -45q289 -86 289 -348q0 -197 -133 -332
t-352 -163l-37 -230h-226l37 232q-166 27 -257 132q-90 106 -72 288h299q-12 -104 39 -157q53 -52 153 -52z" />
    <glyph glyph-name="percent" unicode="%" horiz-adv-x="1695" 
d="M1245 158q55 0 96 48q68 80 68 210q0 131 -92 131q-57 0 -98 -48q-66 -77 -66 -209t92 -132zM1232 -16q-152 0 -227 78t-75 208q0 222 140 353q104 98 258 98t230 -78t74 -209q0 -33 -8 -94q-29 -160 -134 -258q-106 -98 -258 -98zM305 -25q285 424 965 1459h180
l-965 -1459h-180zM428 862q57 0 98 48q66 77 66 209t-92 132q-54 0 -96 -49q-66 -77 -66 -209q0 -131 90 -131zM418 688q-152 0 -230 78q-76 78 -75 209q0 43 10 94q27 160 132 258t257 98q152 1 228 -77q75 -78 75 -209q0 -222 -140 -353q-105 -98 -257 -98z" />
    <glyph glyph-name="ampersand" unicode="&#x26;" horiz-adv-x="1509" 
d="M905 1100q-1 134 -149 133q-72 0 -116 -50t-44 -122t80 -180q113 49 171 101t58 118zM604 197q118 0 232 59l-304 358q-188 -94 -188 -239q0 -82 71 -130t189 -48zM553 -25q-246 1 -382 97t-136 259t100 264t275 177q-104 152 -105 270q0 172 123 282t335 110
q213 0 321 -83t108 -233t-123 -247q-101 -80 -268 -146l233 -276q66 113 84 256h266q-43 -254 -192 -441l225 -264h-362l-72 84q-184 -109 -430 -109z" />
    <glyph glyph-name="quotesingle" unicode="'" horiz-adv-x="499" 
d="M199 803l28 389l37 217h271l-37 -217l-105 -389h-194z" />
    <glyph glyph-name="parenleft" unicode="(" horiz-adv-x="677" 
d="M-2 263q0 386 143 688t379 573h281q-161 -174 -323 -485q-85 -163 -139 -363t-54 -408t55 -412t121 -323h-275q-188 344 -188 730z" />
    <glyph glyph-name="parenright" unicode=")" horiz-adv-x="677" 
d="M393 790q0 208 -55 411q-55 204 -121 323h272q191 -340 191 -728t-143 -691q-143 -302 -379 -572h-283q152 160 324 484q86 163 140 364t54 409z" />
    <glyph glyph-name="asterisk" unicode="*" horiz-adv-x="978" 
d="M750 1425l-70 -237l233 102l33 -209l-246 -47l134 -174l-197 -129l-80 209l-151 -207l-156 127l192 174l-223 47l100 209l201 -102l10 237h220z" />
    <glyph glyph-name="plus" unicode="+" 
d="M98 408l37 229h340l60 346h241l-59 -346h340l-37 -229h-342l-57 -345h-242l57 345h-338z" />
    <glyph glyph-name="comma" unicode="," horiz-adv-x="598" 
d="M43 0l51 311h332l-51 -295l-189 -374h-139l133 358h-137z" />
    <glyph glyph-name="hyphen" unicode="-" horiz-adv-x="811" 
d="M78 389l41 254h606l-41 -254h-606z" />
    <glyph glyph-name="period" unicode="." horiz-adv-x="598" 
d="M43 0l51 311h332l-51 -311h-332z" />
    <glyph glyph-name="slash" unicode="/" horiz-adv-x="899" 
d="M-90 -25l860 1459h270l-860 -1459h-270z" />
    <glyph glyph-name="zero" unicode="0" 
d="M526 219q109 0 182 119t115 367q23 133 23 243q0 242 -154 242q-110 0 -182 -119t-113 -366q-25 -147 -24 -246q-1 -240 153 -240zM489 -25q-217 -1 -321 133t-105 363q0 117 21 234q55 333 216 531t429 198q219 0 323 -134t105 -381q0 -248 -104 -517t-314 -371
q-113 -56 -250 -56z" />
    <glyph glyph-name="one" unicode="1" 
d="M289 874l-103 207l547 328h191l-199 -1169h303l-35 -240h-934l35 240h328l133 794z" />
    <glyph glyph-name="two" unicode="2" 
d="M709 1434q199 0 323 -96t125 -269q0 -174 -94 -285t-287 -215l-186 -100q-111 -61 -150 -111t-57 -118h639l-35 -240h-991q51 264 140 412t280 252l186 100q125 68 181 128q57 60 57 141q1 161 -163 161t-212 -219h-301q78 459 545 459z" />
    <glyph glyph-name="three" unicode="3" 
d="M526 199q102 0 169 58t67 183q0 80 -49 124t-135 44h-107l45 234h107q89 0 155 62t66 146q0 160 -164 160q-94 0 -154 -53t-71 -145h-279q23 198 167 310t353 112t327 -92t118 -237q0 -143 -73 -235t-189 -133v-8q90 -37 141 -111t51 -176q1 -229 -153 -348t-402 -119
t-376 116t-89 335h293q-16 -111 32 -169t150 -58z" />
    <glyph glyph-name="four" unicode="4" 
d="M338 524h315l76 447zM-2 285l22 137l9 49l819 938h260l-150 -885h166l-43 -241h-163l-48 -283h-305l47 283z" />
    <glyph glyph-name="five" unicode="5" 
d="M504 -25q-201 1 -329 103t-128 299h299q4 -74 47 -123t122 -49q166 0 220 157q21 61 21 135q0 75 -48 125t-120 50q-117 0 -195 -123l-268 37l182 823h840l-41 -244h-574l-75 -325h8q77 61 233 61t264 -97t107 -276q0 -305 -217 -452q-147 -101 -348 -101z" />
    <glyph glyph-name="six" unicode="6" 
d="M608 672q-84 0 -154 -74t-69 -215q0 -84 47 -131t119 -47t130 42q57 41 81 111t24 145t-47 122t-131 47zM72 451q0 119 14 231q49 344 214 548t445 204q185 0 303 -92t115 -285h-293q2 147 -147 147q-207 0 -301 -426q90 123 301 123q155 0 263 -97t108 -276
q0 -86 -19 -157q-45 -193 -191 -294t-352 -101t-334 113q-126 114 -126 362z" />
    <glyph glyph-name="seven" unicode="7" 
d="M137 0l721 1149h-668l41 260h1012l-31 -176l-759 -1233h-316z" />
    <glyph glyph-name="eight" unicode="8" 
d="M854 1050q0 164 -175 162q-85 0 -147 -60t-63 -146q0 -164 176 -164q84 0 147 61q62 61 62 147zM344 367q0 -78 51 -123t143 -45t163 62t71 179q0 78 -51 123t-143 45t-163 -62t-71 -179zM518 -25q-238 -1 -360 93q-123 94 -123 250t82 260t225 151v8q-74 31 -116 103
t-42 161q0 197 154 315t367 118t329 -92t117 -252q0 -115 -76 -214t-188 -139v-8q197 -76 197 -292t-164 -339t-402 -123z" />
    <glyph glyph-name="nine" unicode="9" 
d="M604 737q84 0 154 72t69 217q0 84 -46 131t-119 47t-130 -42t-86 -124q-18 -63 -18 -135t46 -119t130 -47zM469 -25q-186 1 -304 93t-116 284h295q-6 -147 148 -147q205 0 301 424q-92 -121 -301 -121q-156 0 -264 97t-107 276q0 86 18 157q43 193 191 294
q148 102 353 102q206 0 332 -114t126 -362q0 -139 -15 -231q-48 -344 -212 -548t-445 -204z" />
    <glyph glyph-name="colon" unicode=":" horiz-adv-x="598" 
d="M43 0l51 311h332l-51 -311h-332zM162 688l53 311h332l-53 -311h-332z" />
    <glyph glyph-name="semicolon" unicode=";" horiz-adv-x="598" 
d="M43 0l51 311h332l-51 -295l-189 -374h-139l133 358h-137zM162 688l53 311h332l-53 -311h-332z" />
    <glyph glyph-name="less" unicode="&#x3c;" 
d="M125 406l43 237l928 361l-43 -269l-604 -213l530 -227l-45 -256z" />
    <glyph glyph-name="equal" unicode="=" 
d="M59 178l37 230h928l-37 -230h-928zM137 633l35 229h930l-37 -229h-928z" />
    <glyph glyph-name="greater" unicode="&#x3e;" 
d="M184 750l45 254l809 -367l-43 -238l-927 -360l43 268l604 213z" />
    <glyph glyph-name="question" unicode="?" horiz-adv-x="1089" 
d="M297 0l49 295h309l-49 -295h-309zM659 1198q-201 0 -239 -207h-291q25 195 163 319t400 124q197 0 317 -94t119 -255q0 -104 -43 -182t-107 -126t-130 -88q-161 -98 -182 -208l-9 -45h-280l8 45q17 103 71 181t115 120t121 80q140 86 139 197q0 61 -46 100t-126 39z" />
    <glyph glyph-name="at" unicode="@" horiz-adv-x="2119" 
d="M948 180q92 0 161 53t89 164l12 72q-25 -27 -94 -37l-145 -18q-152 -18 -152 -129q0 -105 129 -105zM518 240q0 276 387 325l197 25q78 10 110 26t39 69q9 53 -29 93t-116 41q-160 0 -197 -147h-286q80 352 505 352q215 0 334 -95t80 -306l-49 -287q-10 -55 -10 -88
q0 -106 94 -107q111 0 193 173t81 354q0 288 -190 444t-494 156q-391 0 -642 -264t-251 -666q0 -279 174 -459t454 -180q278 0 429 133h244q-262 -299 -682 -299q-365 0 -588 225t-223 550t143 580t399 400t574 146q374 0 610 -201t236 -543q0 -254 -126 -473
q-62 -109 -170 -175t-245 -67q-248 0 -303 152q-125 -152 -366 -152q-145 0 -231 72q-85 72 -85 193z" />
    <glyph glyph-name="A" unicode="A" horiz-adv-x="1447" 
d="M829 1116h-8l-295 -577h396zM-72 0l754 1409h399l252 -1409h-325l-47 289h-562l-145 -289h-326z" />
    <glyph glyph-name="B" unicode="B" horiz-adv-x="1474" 
d="M924 1165h-340l-56 -325h334q111 0 173 55t63 147q0 123 -174 123zM862 612h-373l-63 -368h369q117 0 185 61t69 156q-1 151 -187 151zM1014 1409q403 0 403 -309q1 -121 -69 -217t-197 -131v-11q103 -20 163 -95t60 -175q0 -205 -158 -338t-407 -133h-741l239 1409h707z
" />
    <glyph glyph-name="C" unicode="C" horiz-adv-x="1519" 
d="M106 580q0 366 224 610t592 244q252 0 416 -136t171 -366h-313q-25 113 -100 175q-76 62 -199 62q-201 1 -330 -163t-129 -402q0 -168 89 -266t243 -98q240 0 346 237h316q-76 -246 -254 -374t-456 -128q-278 1 -447 169t-169 436z" />
    <glyph glyph-name="D" unicode="D" horiz-adv-x="1538" 
d="M795 1149h-217l-150 -889h201q244 0 386 151t142 388q0 158 -90 254t-272 96zM838 1409q305 0 478 -166t173 -418q-1 -375 -231 -600t-646 -225h-544l237 1409h533z" />
    <glyph glyph-name="E" unicode="E" horiz-adv-x="1337" 
d="M68 0l237 1409h1061l-43 -260h-745l-52 -307h604l-40 -244h-605l-57 -338h764l-43 -260h-1081z" />
    <glyph glyph-name="F" unicode="F" horiz-adv-x="1259" 
d="M68 0l237 1409h1034l-41 -260h-720l-66 -395h584l-47 -254h-580l-84 -500h-317z" />
    <glyph glyph-name="G" unicode="G" horiz-adv-x="1601" 
d="M1165 0v139h-10q-171 -164 -445 -164t-439 169t-165 436q0 370 230 612t610 242q254 0 412 -122t178 -337h-315q-17 84 -91 139t-208 55q-211 0 -348 -163q-136 -164 -136 -402q0 -168 90 -265t248 -97t268 79t138 216h-353l35 231h639l-135 -768h-203z" />
    <glyph glyph-name="H" unicode="H" horiz-adv-x="1570" 
d="M68 0l237 1409h318l-97 -563h619l96 563h320l-238 -1409h-319l96 580h-619l-96 -580h-317z" />
    <glyph glyph-name="I" unicode="I" horiz-adv-x="632" 
d="M68 0l237 1409h318l-238 -1409h-317z" />
    <glyph glyph-name="J" unicode="J" horiz-adv-x="1183" 
d="M474 -25q-232 0 -344 113t-75 342l13 66h307l-13 -66q-33 -195 138 -194q178 0 215 217l159 956h320l-162 -956q-43 -248 -184 -363q-142 -115 -374 -115z" />
    <glyph glyph-name="K" unicode="K" horiz-adv-x="1472" 
d="M68 0l237 1409h318l-103 -610l672 610h371l-678 -614l463 -795h-357l-338 586l-200 -180l-68 -406h-317z" />
    <glyph glyph-name="L" unicode="L" horiz-adv-x="1220" 
d="M61 0l244 1409h318l-197 -1143h672l-47 -266h-990z" />
    <glyph glyph-name="M" unicode="M" horiz-adv-x="1953" 
d="M68 0l237 1409h416l237 -975h9l532 975h445l-238 -1409h-320l181 983h-8l-545 -983h-244l-231 969h-9l-145 -969h-317z" />
    <glyph glyph-name="N" unicode="N" horiz-adv-x="1587" 
d="M68 0l237 1409h279l522 -881h8l143 881h320l-238 -1409h-280l-520 881h-9l-145 -881h-317z" />
    <glyph glyph-name="O" unicode="O" horiz-adv-x="1646" 
d="M438 604q0 -164 91 -264t249 -100q203 0 346 164t144 401q0 162 -91 263t-249 101q-202 1 -346 -163t-144 -402zM106 586q0 360 240 604t610 244q295 0 468 -171t173 -440q1 -358 -241 -603t-615 -245q-293 1 -464 171t-171 440z" />
    <glyph glyph-name="P" unicode="P" horiz-adv-x="1421" 
d="M860 1161h-280l-78 -467h278q139 0 220 76t81 203q0 86 -58 137q-59 51 -163 51zM952 1409q223 0 339 -110t116 -304q0 -241 -172 -395t-457 -154h-317l-76 -446h-317l237 1409h647z" />
    <glyph glyph-name="Q" unicode="Q" horiz-adv-x="1646" 
d="M438 604q0 -164 91 -264t249 -100q203 0 346 164t144 401q0 162 -91 263t-249 101q-202 1 -346 -163t-144 -402zM106 586q0 360 240 604t610 244q295 0 468 -171t173 -440q1 -197 -77 -365t-217 -286l206 -260l-237 -178l-223 293q-147 -51 -308 -52q-293 1 -464 171
t-171 440z" />
    <glyph glyph-name="R" unicode="R" horiz-adv-x="1464" 
d="M879 1161h-299l-70 -420h297q125 0 200 72t74 188q0 74 -53 117t-149 43zM944 1409q469 0 469 -387q0 -166 -100 -297t-275 -188l260 -537h-346l-225 498h-258l-84 -498h-317l237 1409h639z" />
    <glyph glyph-name="S" unicode="S" horiz-adv-x="1388" 
d="M634 205q140 0 219 48t79 140q0 106 -145 151q-65 18 -143 34q-178 36 -297 105q-65 38 -104 113q-40 75 -40 181q0 205 159 331q160 126 442 126t420 -111t107 -297h-303q14 86 -52 132q-67 46 -189 46q-121 0 -195 -45t-74 -131q0 -107 148 -150q66 -18 144 -34
q183 -36 302 -106q66 -38 107 -112t41 -180q0 -221 -168 -346t-476 -125q-308 1 -449 113t-104 313h306q-15 -96 55 -146t210 -50z" />
    <glyph glyph-name="T" unicode="T" horiz-adv-x="1288" 
d="M119 1145l47 264h1253l-45 -264h-465l-196 -1145h-318l197 1145h-473z" />
    <glyph glyph-name="U" unicode="U" horiz-adv-x="1527" 
d="M135 569l148 840h319l-147 -836q-59 -330 245 -329q154 0 249 85t124 244l148 836h317l-147 -840q-55 -319 -241 -456t-482 -137q-298 0 -442 144q-144 146 -91 449z" />
    <glyph glyph-name="V" unicode="V" horiz-adv-x="1423" 
d="M412 0l-242 1409h326l168 -1116h8l557 1116h325l-745 -1409h-397z" />
    <glyph glyph-name="W" unicode="W" horiz-adv-x="2045" 
d="M258 0l-78 1409h322l41 -1065h8l463 1065h299l98 -1065h8l412 1065h328l-576 -1409h-399l-94 993h-9l-430 -993h-393z" />
    <glyph glyph-name="X" unicode="X" horiz-adv-x="1400" 
d="M-66 0l621 729l-362 680h339l236 -473l381 473h346l-596 -698l383 -711h-342l-254 502l-405 -502h-347z" />
    <glyph glyph-name="Y" unicode="Y" horiz-adv-x="1421" 
d="M455 0l94 545l-354 864h331l232 -580h8l451 580h327l-676 -860l-96 -549h-317z" />
    <glyph glyph-name="Z" unicode="Z" horiz-adv-x="1280" 
d="M195 1151l45 258h1118l-29 -180l-883 -971h715l-43 -258h-1141l29 180l883 971h-694z" />
    <glyph glyph-name="bracketleft" unicode="[" horiz-adv-x="747" 
d="M281 -236h286l-35 -231h-563l344 1991h564l-43 -232h-285z" />
    <glyph glyph-name="backslash" unicode="\" horiz-adv-x="899" 
d="M537 -25l-377 1459h258l377 -1459h-258z" />
    <glyph glyph-name="bracketright" unicode="]" horiz-adv-x="747" 
d="M-86 -236h287l266 1528h-287l37 232h561l-344 -1991h-561z" />
    <glyph glyph-name="asciicircum" unicode="^" 
d="M109 721l485 688h248l252 -688h-263l-151 434l-295 -434h-276z" />
    <glyph glyph-name="underscore" unicode="_" horiz-adv-x="1024" 
d="M-117 -147h1018l-41 -246h-1020z" />
    <glyph glyph-name="grave" unicode="`" horiz-adv-x="1249" 
d="M641 1163l-250 336h293l145 -336h-188z" />
    <glyph glyph-name="a" unicode="a" horiz-adv-x="1191" 
d="M354 285q0 -104 127 -105q92 0 162 53t90 164l15 76q-33 -31 -97 -41l-147 -18q-150 -18 -150 -129zM53 252q0 264 387 313l197 25q73 10 105 26t42 68t-27 93q-38 42 -116 42q-162 0 -199 -147h-284q80 352 506 352q202 0 327 -92t86 -309l-108 -623h-289l16 106h-8
q-96 -131 -319 -131q-145 0 -231 72q-85 72 -85 205z" />
    <glyph glyph-name="b" unicode="b" horiz-adv-x="1292" 
d="M430 416q0 -102 50 -160t143 -57q127 1 205 111t77 274q0 102 -50 159t-142 58q-127 -1 -205 -111t-78 -274zM800 1024q194 0 305 -111q112 -111 112 -313q0 -281 -158 -453t-385 -172q-119 0 -198 45t-103 119h-11l-26 -139h-291l256 1499h305l-43 -262
q-23 -147 -71 -342h8q106 129 300 129z" />
    <glyph glyph-name="c" unicode="c" horiz-adv-x="1169" 
d="M53 418q0 47 10 104q37 230 196 366t409 136q192 0 322 -98t130 -279h-299q-6 63 -50 109t-135 45q-91 0 -163 -74q-106 -109 -106 -311q0 -102 49 -160t141 -57q162 0 221 153h299q-45 -164 -186 -270t-361 -106t-348 117q-129 118 -129 325z" />
    <glyph glyph-name="d" unicode="d" horiz-adv-x="1292" 
d="M373 416q0 -102 50 -160t142 -57q125 1 203 111t78 274q0 102 -50 159t-143 58q-125 -1 -203 -111t-77 -274zM59 399q0 281 157 453t388 172q119 0 198 -45t103 -119h6q27 213 43 305l58 334h305l-254 -1499h-295l18 104h-8q-106 -129 -300 -129q-194 1 -306 111
q-113 110 -113 313z" />
    <glyph glyph-name="e" unicode="e" horiz-adv-x="1198" 
d="M655 817q-186 0 -252 -199h433q-5 199 -181 199zM59 416q0 47 11 104q37 236 194 370q158 134 403 134t375 -151t72 -433h-745q-2 -12 -2 -37q0 -102 55 -158t149 -57q150 0 213 115h293q-53 -145 -191 -236t-351 -91t-345 117q-131 118 -131 323z" />
    <glyph glyph-name="f" unicode="f" horiz-adv-x="733" 
d="M741 1499h174l-36 -229h-123q-72 0 -111 -36t-55 -124l-21 -111h230l-41 -221h-226l-133 -778h-305l135 778h-188l41 221h184l21 113q35 205 140 296t314 91z" />
    <glyph glyph-name="g" unicode="g" horiz-adv-x="1292" 
d="M373 416q0 -102 50 -160t142 -57q125 1 203 111t78 274q0 102 -50 159t-143 58q-125 -1 -203 -111t-77 -274zM471 -268q133 0 206 77t99 236l10 61h-6q-104 -131 -300 -131t-308 111q-113 111 -113 313q0 281 156 453t383 172q123 0 203 -44t104 -120h8l25 139h295
l-162 -970q-43 -262 -199 -379t-400 -117t-363 90t-111 254h285q-4 -65 47 -105t141 -40z" />
    <glyph glyph-name="h" unicode="h" horiz-adv-x="1265" 
d="M819 1024q170 0 265 -105t59 -333l-99 -586h-305l92 569q18 121 -16 173q-35 52 -123 52t-158 -69q-70 -70 -92 -197l-90 -528h-303l254 1499h303l-51 -305q-33 -197 -70 -330h9q106 160 325 160z" />
    <glyph glyph-name="i" unicode="i" horiz-adv-x="581" 
d="M49 0l172 999h303l-172 -999h-303zM254 1233l45 266h322l-46 -266h-321z" />
    <glyph glyph-name="j" unicode="j" horiz-adv-x="581" 
d="M-111 -221q68 -1 100 35t46 118l186 1067h303l-186 -1077q-35 -190 -136 -281t-317 -92h-94l41 230h57zM256 1233l43 266h322l-43 -266h-322z" />
    <glyph glyph-name="k" unicode="k" horiz-adv-x="1173" 
d="M49 0l254 1499h303l-145 -862l389 362h356l-448 -401l303 -598h-328l-192 401l-142 -127l-47 -274h-303z" />
    <glyph glyph-name="l" unicode="l" horiz-adv-x="581" 
d="M49 0l254 1499h303l-254 -1499h-303z" />
    <glyph glyph-name="m" unicode="m" horiz-adv-x="1912" 
d="M809 1024q248 0 307 -201q125 201 363 201q164 0 256 -105t55 -333l-96 -586h-305l92 569q18 121 -15 173q-32 52 -116 52t-152 -72q-68 -73 -88 -194l-88 -528h-303l92 569q18 121 -14 173q-33 52 -116 52t-151 -71q-68 -72 -88 -195l-90 -528h-303l172 999h289
l-25 -135h9q102 160 315 160z" />
    <glyph glyph-name="n" unicode="n" horiz-adv-x="1265" 
d="M819 1024q170 0 265 -105t59 -333l-99 -586h-305l92 569q18 121 -16 173q-35 52 -124 52t-159 -71q-70 -72 -90 -195l-90 -528h-303l172 999h289l-25 -135h9q106 160 325 160z" />
    <glyph glyph-name="o" unicode="o" horiz-adv-x="1236" 
d="M371 416q0 -102 51 -160t149 -57q98 0 174 82t99 217q8 35 8 86q0 100 -52 158t-150 58t-175 -81q-104 -112 -104 -303zM57 418q0 291 202 464q167 142 403 142t368 -118q133 -118 133 -324q0 -290 -199 -464q-166 -142 -402 -142t-371 117q-134 118 -134 325z" />
    <glyph glyph-name="p" unicode="p" horiz-adv-x="1292" 
d="M621 199q127 1 205 111t77 274q0 102 -50 159t-142 58q-125 0 -203 -111t-78 -274q0 -102 50 -160q51 -57 141 -57zM798 1024q196 0 308 -112q111 -112 111 -312q0 -281 -158 -453t-387 -172q-119 0 -198 45t-103 119h-6q-17 -147 -37 -280l-54 -310h-305l246 1450h291
l-19 -108h9q106 133 302 133z" />
    <glyph glyph-name="q" unicode="q" horiz-adv-x="1290" 
d="M565 199q125 1 203 111t78 274q0 102 -50 159t-143 58q-125 0 -203 -111t-77 -274q0 -102 50 -160t142 -57zM478 -25q-194 0 -306 111q-113 111 -113 313q0 281 157 453t388 172q119 0 198 -45t103 -119h8l27 139h287l-246 -1450h-305l41 244q20 119 69 311h-8
q-106 -129 -300 -129z" />
    <glyph glyph-name="r" unicode="r" horiz-adv-x="856" 
d="M774 1024q86 0 139 -41l-100 -260q-57 33 -123 33q-109 0 -172 -83t-88 -218l-78 -455h-303l172 999h289l-29 -165h6q92 190 287 190z" />
    <glyph glyph-name="s" unicode="s" horiz-adv-x="1114" 
d="M690 272q0 48 -41 72t-103 31q-62 8 -134 25t-134 43t-104 87q-41 61 -41 154q0 162 133 251t355 89t338 -78t90 -225h-279q12 63 -35 91t-133 28t-132 -31t-46 -80t58 -73t142 -36t170 -34q85 -22 143 -88t58 -174q0 -174 -143 -262t-381 -87q-238 0 -359 77t-94 235
h285q-12 -72 39 -100q50 -27 146 -27t149 32t53 80z" />
    <glyph glyph-name="t" unicode="t" horiz-adv-x="770" 
d="M465 0q-215 0 -285 86t-35 283l70 409h-188l41 221h184l53 304h305l-53 -304h242l-43 -221h-236l-67 -391q-12 -80 6 -114t96 -33h115l-41 -240h-164z" />
    <glyph glyph-name="u" unicode="u" horiz-adv-x="1253" 
d="M430 -25q-168 -1 -264 105t-57 334l96 585h305l-92 -569q-18 -121 16 -173t123 -52q88 -1 155 67t87 189l94 538h305l-172 -999h-291l23 135h-4q-107 -160 -324 -160z" />
    <glyph glyph-name="v" unicode="v" horiz-adv-x="1124" 
d="M274 0l-178 999h318l104 -706h8l346 706h314l-520 -999h-392z" />
    <glyph glyph-name="w" unicode="w" horiz-adv-x="1640" 
d="M188 0l-98 999h299l51 -704h9l307 704h278l72 -704h8l297 704h303l-461 -999h-344l-65 676h-8l-295 -676h-353z" />
    <glyph glyph-name="x" unicode="x" horiz-adv-x="1075" 
d="M-72 0l443 496l-265 503h326l141 -292l244 292h309l-432 -487l271 -512h-328l-148 303l-251 -303h-310z" />
    <glyph glyph-name="y" unicode="y" horiz-adv-x="1124" 
d="M129 -467h-147l43 236h59q90 0 153 40q62 40 107 136l27 55h-95l-180 999h318l104 -706h8l346 706h314l-568 -1103q-86 -170 -202 -267q-117 -96 -287 -96z" />
    <glyph glyph-name="z" unicode="z" horiz-adv-x="1015" 
d="M111 772l43 227h870l-29 -180l-581 -592h489l-37 -227h-882l6 29l16 135l594 608h-489z" />
    <glyph glyph-name="braceleft" unicode="{" horiz-adv-x="835" 
d="M797 1524h159l-41 -230h-127q-80 0 -118 -37t-52 -129l-47 -299q-23 -131 -77 -194t-175 -94v-9q109 -34 138 -102t6 -213l-47 -289q-16 -98 6 -132t110 -34h115l-35 -229h-157q-207 0 -279 81t-41 269l49 305q23 128 -12 182t-174 54l39 225q137 -1 193 57t81 214
l43 264q29 184 130 262t313 78z" />
    <glyph glyph-name="bar" unicode="|" horiz-adv-x="614" 
d="M0 -492l352 2048h254l-352 -2048h-254z" />
    <glyph glyph-name="braceright" unicode="}" horiz-adv-x="835" 
d="M371 1524q207 0 277 -82t40 -268l-47 -289q-23 -129 12 -183t174 -53l-39 -225q-137 0 -192 -57t-80 -213l-45 -281q-29 -184 -130 -262t-312 -78h-160l41 229h127q80 0 118 37t52 129l49 316q20 131 76 194t174 94v9q-106 33 -136 103t-5 212l45 272q16 98 -7 132
t-110 34h-117l37 230h158z" />
    <glyph glyph-name="asciitilde" unicode="~" 
d="M397 727q66 1 125 -21t94 -48q94 -70 150 -68q106 0 129 149h213q-31 -193 -123 -285t-221 -94q-84 0 -154 35t-123 69t-94 34q-106 0 -127 -150h-213q29 193 122 286t222 93z" />
    <glyph glyph-name="exclamdown" unicode="&#xa1;" horiz-adv-x="595" 
d="M39 -29l174 596h178l-26 -596l-66 -381h-326zM172 705l51 294h303l-51 -294h-303z" />
    <glyph glyph-name="cent" unicode="&#xa2;" 
d="M92 606q0 256 138 424t380 201l33 203h227l-34 -209q147 -29 234 -125t85 -254h-297q-6 74 -48 122t-133 48t-161 -69t-91 -163t-21 -178t50 -140q52 -56 138 -56t142 44t83 111h297q-39 -150 -158 -249t-299 -121l-30 -220h-226l33 224q-162 29 -252 134t-90 273z" />
    <glyph glyph-name="sterling" unicode="&#xa3;" 
d="M201 117q84 0 139 121q-62 49 -114 49t-81 -29t-28 -65q0 -76 84 -76zM738 1434q200 0 305 -92t87 -269h-268q16 156 -119 156q-67 0 -109 -53q-42 -54 -42 -144t33 -225h309l-23 -164h-247q6 -43 6 -84q0 -141 -80 -291q104 -76 164 -75q96 0 123 143h225
q-33 -172 -116 -266q-84 -94 -232 -94t-281 133q-137 -133 -303 -134q-100 1 -165 53t-65 156t84 178q83 74 212 74q72 0 147 -35q6 45 6 95t-22 147h-220l23 164h149q-31 123 -30 199q0 196 124 312q125 116 325 116z" />
    <glyph glyph-name="currency" unicode="&#xa4;" 
d="M770 722q0 148 -140 148q-70 0 -124 -57q-55 -57 -55 -145q1 -133 141 -133q70 0 124 56q54 55 54 131zM256 645q0 129 82 234l-105 122l152 123l104 -123q83 39 175 39t163 -39l142 119l116 -139l-139 -117q18 -47 19 -104q0 -131 -82 -236l104 -123l-151 -122l-107 122
q-84 -39 -175 -39t-163 39l-139 -116l-117 137l139 115q-18 49 -18 108z" />
    <glyph glyph-name="yen" unicode="&#xa5;" 
d="M143 463l31 147h260l-293 799h332l166 -504h8l350 504h326l-573 -799h264l-31 -147h-264l-21 -123h273l-31 -147h-266l-31 -193h-303l31 193h-271l31 147h264l21 123h-273z" />
    <glyph glyph-name="brokenbar" unicode="&#xa6;" horiz-adv-x="614" 
d="M33 -336l123 721h254l-123 -721h-254zM205 688l123 721h254l-123 -721h-254z" />
    <glyph glyph-name="section" unicode="&#xa7;" horiz-adv-x="1183" 
d="M666 659l-105 29q-96 -27 -161 -84q-64 -57 -64 -128q0 -72 34 -108t117 -61l103 -31q96 27 162 85q66 57 66 129t-34 108t-118 61zM901 1112q-4 131 -199 131q-90 0 -150 -44q-60 -45 -60 -109t36 -93t123 -53l152 -45q155 -45 223 -128t68 -212q0 -238 -291 -358
q141 -86 141 -259t-138 -291t-387 -118t-376 129q-74 76 -72 193h279q2 -66 55 -99q53 -32 145 -32t152 44t60 108t-36 93t-124 54l-154 45q-152 45 -220 128t-69 212q0 238 289 358q-139 84 -139 258t137 292t389 118q163 0 297 -68q70 -34 111 -100t39 -154h-281z" />
    <glyph glyph-name="dieresis" unicode="&#xa8;" horiz-adv-x="1249" 
d="M373 1214l45 263h270l-45 -263h-270zM840 1214l43 263h270l-43 -263h-270z" />
    <glyph glyph-name="copyright" unicode="&#xa9;" horiz-adv-x="1589" 
d="M469 713q0 156 98 258t267 102q129 -1 216 -69t105 -181h-192q-33 88 -129 88q-72 0 -116 -56t-44 -142q0 -87 44 -143t116 -56q96 0 129 88h192q-18 -114 -105 -182t-216 -68q-168 0 -266 102t-99 259zM827 1280q-243 0 -397 -160t-154 -408q0 -249 155 -420t393 -171
t397 171q157 171 157 420q0 248 -154 408t-397 160zM828 -25q-314 -1 -521 213t-207 524t206 516t519 206t521 -206t208 -516t-206 -524q-206 -213 -520 -213z" />
    <glyph glyph-name="ordfeminine" unicode="&#xaa;" horiz-adv-x="915" 
d="M373 1024q-1 -160 135 -160q68 0 121 72t53 154t-33 121q-33 38 -101 38q-68 1 -122 -71q-53 -72 -53 -154zM635 803v2q-82 -117 -238 -117q-111 0 -187 78t-77 217q0 207 114 325t257 117q180 0 213 -131h8l20 115h228l-121 -704h-227l16 98h-6z" />
    <glyph glyph-name="guillemotleft" unicode="&#xab;" horiz-adv-x="1202" 
d="M315 98l-229 418l369 418h256l-310 -434l164 -402h-250zM788 98l-229 418l369 418h256l-310 -434l164 -402h-250z" />
    <glyph glyph-name="logicalnot" unicode="&#xac;" 
d="M92 408l43 229h928l-102 -580h-242l61 351h-688z" />
    <glyph glyph-name="uni00AD" unicode="&#xad;" horiz-adv-x="811" 
d="M78 389l41 254h606l-41 -254h-606z" />
    <glyph glyph-name="registered" unicode="&#xae;" horiz-adv-x="1589" 
d="M860 907h-143v-164h143q45 0 70 23t24 61q0 80 -94 80zM518 360v705h354q135 -1 208 -63t73 -171q0 -70 -39 -128t-110 -87l174 -256h-213l-144 232h-104v-232h-199zM827 1280q-243 0 -397 -160t-154 -408q0 -249 155 -420t393 -171t397 171q157 171 157 420
q0 248 -154 408t-397 160zM828 -25q-314 -1 -521 213t-207 524t206 516t519 206t521 -206t208 -516t-206 -524q-206 -213 -520 -213z" />
    <glyph glyph-name="macron" unicode="&#xaf;" horiz-adv-x="1249" 
d="M422 1233l35 197h633l-35 -197h-633z" />
    <glyph glyph-name="degree" unicode="&#xb0;" horiz-adv-x="849" 
d="M381 1092q1 -128 123 -129q58 0 110 49q52 50 52 116t-33 98t-91 32t-109 -50q-52 -48 -52 -116zM868 1157q0 -163 -114 -267t-262 -104t-232 78t-84 199q0 164 115 267q115 104 263 104t231 -78t83 -199z" />
    <glyph glyph-name="plusminus" unicode="&#xb1;" 
d="M16 0l41 229h934l-41 -229h-934zM147 682l37 229h338l53 314h244l-53 -314h340l-35 -229h-344l-53 -311h-244l53 311h-336z" />
    <glyph glyph-name="acute" unicode="&#xb4;" horiz-adv-x="1249" 
d="M633 1163l258 336h309l-362 -336h-205z" />
    <glyph glyph-name="mu" unicode="&#xb5;" horiz-adv-x="1247" 
d="M444 -25q-68 0 -129 29q-10 -201 -32 -340l-21 -115h-305l252 1450h305l-92 -569q-18 -121 16 -173t123 -52q88 -1 157 71t89 195l90 528h305l-172 -999h-291l25 135h-4q-102 -160 -316 -160z" />
    <glyph glyph-name="paragraph" unicode="&#xb6;" horiz-adv-x="1286" 
d="M147 862q0 242 167 394t431 153h158l-237 -1409h-267l86 508q-164 25 -251 115t-87 239zM803 0l237 1409h265l-238 -1409h-264z" />
    <glyph glyph-name="periodcentered" unicode="&#xb7;" horiz-adv-x="598" 
d="M102 367l54 309h329l-51 -309h-332z" />
    <glyph glyph-name="cedilla" unicode="&#xb8;" horiz-adv-x="1249" 
d="M731 -227q0 -99 -73 -161t-205 -63h-154l25 132h114q106 0 107 81q0 53 -82 54h-74l100 184h95l-17 -80q78 -2 121 -43t43 -104z" />
    <glyph glyph-name="ordmasculine" unicode="&#xba;" horiz-adv-x="897" 
d="M373 1004q1 -140 139 -140q70 0 125 70t55 176q0 139 -127 139q-82 1 -137 -69t-55 -176zM934 1124q0 -196 -129 -316t-307 -120t-272 81q-93 81 -93 220q0 197 129 317t326 119q160 -1 253 -81t93 -220z" />
    <glyph glyph-name="guillemotright" unicode="&#xbb;" horiz-adv-x="1202" 
d="M10 98l307 434l-161 402h247l230 -418l-369 -418h-254zM483 98l308 434l-164 402h250l229 -418l-369 -418h-254z" />
    <glyph glyph-name="onequarter" unicode="&#xbc;" horiz-adv-x="1695" 
d="M1133 276h145l31 187zM379 -25q921 1390 967 1459h178l-965 -1459h-180zM252 1067l-68 160l346 182h138l-88 -535h190l-29 -169h-616l29 169h192l43 263zM897 115l23 121l464 475h199l-74 -435h93l-29 -161h-92l-19 -115h-229l18 115h-354z" />
    <glyph glyph-name="onehalf" unicode="&#xbd;" horiz-adv-x="1695" 
d="M336 -25q680 1034 964 1459h179l-965 -1459h-178zM252 1067l-68 160l346 182h138l-88 -535h190l-29 -169h-616l29 169h192l43 263zM1405 506q0 57 -96 57t-111 -102h-217q19 131 117 195t233 65q135 0 217 -54q82 -55 82 -147t-60 -146t-190 -108l-30 -12
q-150 -60 -152 -84h371l-29 -170h-645q25 156 105 239q81 83 210 134l31 14q96 39 130 62t34 57z" />
    <glyph glyph-name="threequarters" unicode="&#xbe;" horiz-adv-x="1695" 
d="M1133 276h145l31 187zM344 -25q680 1034 965 1459h178l-965 -1459h-178zM543 926q0 74 -97 73h-34l20 129h35q117 0 117 95q0 66 -84 65q-45 0 -70 -26t-29 -64h-204q10 113 97 170t223 57t212 -49t76 -127t-45 -122t-109 -60v-8q51 -10 83 -50t32 -96q0 -109 -93 -167
t-241 -58t-230 56q-83 56 -73 174h209q-6 -92 92 -93q49 0 81 26t32 75zM897 115l23 121l464 475h199l-74 -435h93l-29 -161h-92l-19 -115h-229l18 115h-354z" />
    <glyph glyph-name="questiondown" unicode="&#xbf;" horiz-adv-x="1089" 
d="M-47 -86q0 104 43 182t107 126q65 48 131 88q162 99 180 208l8 45h283l-9 -45q-18 -104 -71 -181t-115 -120t-122 -80q-140 -87 -140 -196q0 -61 47 -101t127 -39q199 0 237 207h291q-25 -194 -162 -318t-399 -124q-197 0 -317 93t-119 255zM424 705l51 294h309l-51 -294
h-309z" />
    <glyph glyph-name="Agrave" unicode="&#xc0;" horiz-adv-x="1447" 
d="M811 1573l-250 336h293l145 -336h-188zM829 1116h-8l-295 -577h396zM-72 0l754 1409h399l252 -1409h-325l-47 289h-562l-145 -289h-326z" />
    <glyph glyph-name="Aacute" unicode="&#xc1;" horiz-adv-x="1447" 
d="M803 1573l258 336h309l-362 -336h-205zM829 1116h-8l-295 -577h396zM-72 0l754 1409h399l252 -1409h-325l-47 289h-562l-145 -289h-326z" />
    <glyph glyph-name="Acircumflex" unicode="&#xc2;" horiz-adv-x="1447" 
d="M528 1573l320 336h221l205 -336h-240l-98 186l-166 -186h-242zM829 1116h-8l-295 -577h396zM-72 0l754 1409h399l252 -1409h-325l-47 289h-562l-145 -289h-326z" />
    <glyph glyph-name="Atilde" unicode="&#xc3;" horiz-adv-x="1447" 
d="M803 1874q67 0 155 -43t123 -43q80 0 101 98h141q-51 -272 -264 -272q-68 0 -154 43t-123 43q-76 0 -100 -98h-139q47 272 260 272zM829 1116h-8l-295 -577h396zM-72 0l754 1409h399l252 -1409h-325l-47 289h-562l-145 -289h-326z" />
    <glyph glyph-name="Adieresis" unicode="&#xc4;" horiz-adv-x="1447" 
d="M543 1624l45 262h270l-45 -262h-270zM1010 1624l43 262h270l-43 -262h-270zM829 1116h-8l-295 -577h396zM-72 0l754 1409h399l252 -1409h-325l-47 289h-562l-145 -289h-326z" />
    <glyph glyph-name="Aring" unicode="&#xc5;" horiz-adv-x="1447" 
d="M831 1740q0 -91 89 -91q42 1 75 33t33 78q0 94 -89 92q-42 0 -75 -34q-33 -32 -33 -78zM1161 1782q0 -110 -77 -178t-174 -68t-154 51t-58 129q0 112 76 180t173 68t155 -52t59 -130zM829 1116h-8l-295 -577h396zM-72 0l754 1409h399l252 -1409h-325l-47 289h-562
l-145 -289h-326z" />
    <glyph glyph-name="AE" unicode="&#xc6;" horiz-adv-x="2340" 
d="M1249 1108l-481 -555h397l95 555h-11zM-82 0l1247 1409h1202l-40 -260h-744l-51 -307h602l-41 -244h-602l-57 -338h759l-41 -260h-1079l51 309h-567l-266 -309h-373z" />
    <glyph glyph-name="Ccedilla" unicode="&#xc7;" horiz-adv-x="1519" 
d="M106 580q0 366 224 610t592 244q252 0 416 -136t171 -366h-313q-25 113 -100 175q-76 62 -199 62q-201 1 -330 -163t-129 -402q0 -168 89 -266t243 -98q240 0 346 237h316q-147 -477 -656 -500l-10 -57q78 -2 121 -43t43 -104q0 -99 -73 -161t-206 -63h-153l24 132h115
q106 0 106 81q0 53 -81 54h-74l88 161q-264 17 -417 183t-153 420z" />
    <glyph glyph-name="Egrave" unicode="&#xc8;" horiz-adv-x="1337" 
d="M776 1573l-250 336h293l146 -336h-189zM68 0l237 1409h1061l-43 -260h-745l-52 -307h604l-40 -244h-605l-57 -338h764l-43 -260h-1081z" />
    <glyph glyph-name="Eacute" unicode="&#xc9;" horiz-adv-x="1337" 
d="M768 1573l258 336h309l-362 -336h-205zM68 0l237 1409h1061l-43 -260h-745l-52 -307h604l-40 -244h-605l-57 -338h764l-43 -260h-1081z" />
    <glyph glyph-name="Ecircumflex" unicode="&#xca;" horiz-adv-x="1337" 
d="M494 1573l319 336h221l205 -336h-240l-98 186l-166 -186h-241zM68 0l237 1409h1061l-43 -260h-745l-52 -307h604l-40 -244h-605l-57 -338h764l-43 -260h-1081z" />
    <glyph glyph-name="Edieresis" unicode="&#xcb;" horiz-adv-x="1337" 
d="M508 1624l45 262h270l-45 -262h-270zM975 1624l43 262h270l-43 -262h-270zM68 0l237 1409h1061l-43 -260h-745l-52 -307h604l-40 -244h-605l-57 -338h764l-43 -260h-1081z" />
    <glyph glyph-name="Igrave" unicode="&#xcc;" horiz-adv-x="632" 
d="M397 1573l-250 336h293l146 -336h-189zM68 0l237 1409h318l-238 -1409h-317z" />
    <glyph glyph-name="Iacute" unicode="&#xcd;" horiz-adv-x="632" 
d="M389 1573l258 336h309l-362 -336h-205zM68 0l237 1409h318l-238 -1409h-317z" />
    <glyph glyph-name="Icircumflex" unicode="&#xce;" horiz-adv-x="632" 
d="M115 1573l319 336h221l205 -336h-239l-99 186l-166 -186h-241zM68 0l237 1409h318l-238 -1409h-317z" />
    <glyph glyph-name="Idieresis" unicode="&#xcf;" horiz-adv-x="632" 
d="M129 1624l45 262h270l-45 -262h-270zM596 1624l43 262h270l-43 -262h-270zM68 0l237 1409h318l-238 -1409h-317z" />
    <glyph glyph-name="Eth" unicode="&#xd0;" horiz-adv-x="1538" 
d="M795 1149h-217l-60 -356h293l-31 -175h-291l-61 -358h203q244 0 385 151t141 388q0 158 -90 254t-272 96zM838 1409q305 0 478 -165t173 -417q-1 -375 -231 -601t-648 -226h-542l104 618h-154l31 175h152l104 616h533z" />
    <glyph glyph-name="Ntilde" unicode="&#xd1;" horiz-adv-x="1587" 
d="M866 1874q68 0 156 -43t123 -43q80 0 100 98h141q-51 -272 -264 -272q-68 0 -154 43t-122 43q-76 0 -101 -98h-139q47 272 260 272zM68 0l237 1409h279l522 -881h8l143 881h320l-238 -1409h-280l-520 881h-9l-145 -881h-317z" />
    <glyph glyph-name="Ograve" unicode="&#xd2;" horiz-adv-x="1646" 
d="M903 1573l-250 336h293l146 -336h-189zM438 604q0 -164 91 -264t249 -100q203 0 346 164t144 401q0 162 -91 263t-249 101q-202 1 -346 -163t-144 -402zM106 586q0 360 240 604t610 244q295 0 468 -171t173 -440q1 -358 -241 -603t-615 -245q-293 1 -464 171t-171 440z
" />
    <glyph glyph-name="Oacute" unicode="&#xd3;" horiz-adv-x="1646" 
d="M895 1573l258 336h309l-362 -336h-205zM438 604q0 -164 91 -264t249 -100q203 0 346 164t144 401q0 162 -91 263t-249 101q-202 1 -346 -163t-144 -402zM106 586q0 360 240 604t610 244q295 0 468 -171t173 -440q1 -358 -241 -603t-615 -245q-293 1 -464 171t-171 440z
" />
    <glyph glyph-name="Ocircumflex" unicode="&#xd4;" horiz-adv-x="1646" 
d="M621 1573l319 336h221l205 -336h-240l-98 186l-166 -186h-241zM438 604q0 -164 91 -264t249 -100q203 0 346 164t144 401q0 162 -91 263t-249 101q-202 1 -346 -163t-144 -402zM106 586q0 360 240 604t610 244q295 0 468 -171t173 -440q1 -358 -241 -603t-615 -245
q-293 1 -464 171t-171 440z" />
    <glyph glyph-name="Otilde" unicode="&#xd5;" horiz-adv-x="1646" 
d="M895 1874q68 0 156 -43t123 -43q80 0 100 98h141q-51 -272 -264 -272q-68 0 -154 43t-123 43q-76 0 -100 -98h-139q47 272 260 272zM438 604q0 -164 91 -264t249 -100q203 0 346 164t144 401q0 162 -91 263t-249 101q-202 1 -346 -163t-144 -402zM106 586q0 360 240 604
t610 244q295 0 468 -171t173 -440q1 -358 -241 -603t-615 -245q-293 1 -464 171t-171 440z" />
    <glyph glyph-name="Odieresis" unicode="&#xd6;" horiz-adv-x="1646" 
d="M635 1624l45 262h270l-45 -262h-270zM1102 1624l43 262h270l-43 -262h-270zM438 604q0 -164 91 -264t249 -100q203 0 346 164t144 401q0 162 -91 263t-249 101q-202 1 -346 -163t-144 -402zM106 586q0 360 240 604t610 244q295 0 468 -171t173 -440q1 -358 -241 -603
t-615 -245q-293 1 -464 171t-171 440z" />
    <glyph glyph-name="multiply" unicode="&#xd7;" 
d="M209 59l-141 177l346 296l-236 289l184 152l234 -283l330 283l149 -172l-334 -285l242 -291l-190 -157l-236 288z" />
    <glyph glyph-name="Oslash" unicode="&#xd8;" horiz-adv-x="1646" 
d="M438 604q0 -98 35 -180l674 670q-90 74 -219 73q-202 -1 -346 -163t-144 -400zM1268 805q0 100 -37 180l-674 -672q88 -72 221 -71q202 0 346 164t144 399zM106 586q0 360 240 604t610 244q242 0 408 -121l123 121h194l-217 -215q133 -162 133 -396q1 -358 -241 -603
t-615 -245q-242 0 -405 119l-119 -119h-194l215 213q-132 160 -132 398z" />
    <glyph glyph-name="Ugrave" unicode="&#xd9;" horiz-adv-x="1527" 
d="M846 1573l-250 336h293l145 -336h-188zM135 569l148 840h319l-147 -836q-59 -330 245 -329q154 0 249 85t124 244l148 836h317l-147 -840q-55 -319 -241 -456t-482 -137q-298 0 -442 144q-144 146 -91 449z" />
    <glyph glyph-name="Uacute" unicode="&#xda;" horiz-adv-x="1527" 
d="M838 1573l258 336h309l-363 -336h-204zM135 569l148 840h319l-147 -836q-59 -330 245 -329q154 0 249 85t124 244l148 836h317l-147 -840q-55 -319 -241 -456t-482 -137q-298 0 -442 144q-144 146 -91 449z" />
    <glyph glyph-name="Ucircumflex" unicode="&#xdb;" horiz-adv-x="1527" 
d="M563 1573l320 336h221l205 -336h-240l-98 186l-166 -186h-242zM135 569l148 840h319l-147 -836q-59 -330 245 -329q154 0 249 85t124 244l148 836h317l-147 -840q-55 -319 -241 -456t-482 -137q-298 0 -442 144q-144 146 -91 449z" />
    <glyph glyph-name="Udieresis" unicode="&#xdc;" horiz-adv-x="1527" 
d="M578 1624l45 262h270l-45 -262h-270zM1044 1624l43 262h271l-43 -262h-271zM135 569l148 840h319l-147 -836q-59 -330 245 -329q154 0 249 85t124 244l148 836h317l-147 -840q-55 -319 -241 -456t-482 -137q-298 0 -442 144q-144 146 -91 449z" />
    <glyph glyph-name="Yacute" unicode="&#xdd;" horiz-adv-x="1421" 
d="M788 1573l259 336h309l-363 -336h-205zM455 0l94 545l-354 864h331l232 -580h8l451 580h327l-676 -860l-96 -549h-317z" />
    <glyph glyph-name="Thorn" unicode="&#xde;" horiz-adv-x="1421" 
d="M834 948h-289l-80 -465h289q139 0 219 75t80 204q1 84 -57 135t-162 51zM924 1196q223 0 340 -110t116 -304q0 -240 -172 -394t-456 -155h-328l-39 -233h-317l237 1409h318l-37 -213h338z" />
    <glyph glyph-name="germandbls" unicode="&#xdf;" horiz-adv-x="1304" 
d="M799 1524q227 0 330 -84t104 -209q0 -86 -38 -157q-38 -70 -83 -108q-121 -101 -121 -161q0 -59 119 -149q45 -34 82 -96t37 -154t-42 -177q-73 -147 -260 -204q-79 -25 -163 -25h-246l37 231h201q70 0 112 37q42 36 41 86q1 50 -23 80t-57 56q-33 24 -65 53
q-80 71 -80 171q0 101 40 174q40 72 89 112q129 104 129 192q0 49 -39 80t-125 31t-156 -66t-94 -205l-176 -1032h-303l180 1032q41 236 192 364t378 128z" />
    <glyph glyph-name="agrave" unicode="&#xe0;" horiz-adv-x="1191" 
d="M606 1163l-250 336h293l146 -336h-189zM354 285q0 -104 127 -105q92 0 162 53t90 164l15 76q-33 -31 -97 -41l-147 -18q-150 -18 -150 -129zM53 252q0 264 387 313l197 25q73 10 105 26t42 68t-27 93q-38 42 -116 42q-162 0 -199 -147h-284q80 352 506 352q202 0 327 -92
t86 -309l-108 -623h-289l16 106h-8q-96 -131 -319 -131q-145 0 -231 72q-85 72 -85 205z" />
    <glyph glyph-name="aacute" unicode="&#xe1;" horiz-adv-x="1191" 
d="M582 1163l258 336h309l-363 -336h-204zM354 285q0 -104 127 -105q92 0 162 53t90 164l15 76q-33 -31 -97 -41l-147 -18q-150 -18 -150 -129zM53 252q0 264 387 313l197 25q73 10 105 26t42 68t-27 93q-38 42 -116 42q-162 0 -199 -147h-284q80 352 506 352q202 0 327 -92
t86 -309l-108 -623h-289l16 106h-8q-96 -131 -319 -131q-145 0 -231 72q-85 72 -85 205z" />
    <glyph glyph-name="acircumflex" unicode="&#xe2;" horiz-adv-x="1191" 
d="M307 1163l320 336h221l205 -336h-240l-98 187l-166 -187h-242zM354 285q0 -104 127 -105q92 0 162 53t90 164l15 76q-33 -31 -97 -41l-147 -18q-150 -18 -150 -129zM53 252q0 264 387 313l197 25q73 10 105 26t42 68t-27 93q-38 42 -116 42q-162 0 -199 -147h-284
q80 352 506 352q202 0 327 -92t86 -309l-108 -623h-289l16 106h-8q-96 -131 -319 -131q-145 0 -231 72q-85 72 -85 205z" />
    <glyph glyph-name="atilde" unicode="&#xe3;" horiz-adv-x="1191" 
d="M582 1464q68 0 156 -43t122 -43q80 0 101 99h141q-51 -272 -264 -273q-68 0 -154 43t-123 43q-76 0 -100 -98h-139q47 272 260 272zM354 285q0 -104 127 -105q92 0 162 53t90 164l15 76q-33 -31 -97 -41l-147 -18q-150 -18 -150 -129zM53 252q0 264 387 313l197 25
q73 10 105 26t42 68t-27 93q-38 42 -116 42q-162 0 -199 -147h-284q80 352 506 352q202 0 327 -92t86 -309l-108 -623h-289l16 106h-8q-96 -131 -319 -131q-145 0 -231 72q-85 72 -85 205z" />
    <glyph glyph-name="adieresis" unicode="&#xe4;" horiz-adv-x="1191" 
d="M322 1214l45 263h270l-45 -263h-270zM788 1214l43 263h271l-43 -263h-271zM354 285q0 -104 127 -105q92 0 162 53t90 164l15 76q-33 -31 -97 -41l-147 -18q-150 -18 -150 -129zM53 252q0 264 387 313l197 25q73 10 105 26t42 68t-27 93q-38 42 -116 42q-162 0 -199 -147
h-284q80 352 506 352q202 0 327 -92t86 -309l-108 -623h-289l16 106h-8q-96 -131 -319 -131q-145 0 -231 72q-85 72 -85 205z" />
    <glyph glyph-name="aring" unicode="&#xe5;" horiz-adv-x="1191" 
d="M807 1351q1 91 -89 91q-42 0 -75 -33t-33 -79q0 -91 89 -91q42 0 75 33t33 79zM940 1372q0 -110 -77 -178t-174 -68t-154 52t-58 129q0 111 76 179t173 68q98 0 156 -52t58 -130zM354 285q0 -104 127 -105q92 0 162 53t90 164l15 76q-33 -31 -97 -41l-147 -18
q-150 -18 -150 -129zM53 252q0 264 387 313l197 25q73 10 105 26t42 68t-27 93q-38 42 -116 42q-162 0 -199 -147h-284q80 352 506 352q202 0 327 -92t86 -309l-108 -623h-289l16 106h-8q-96 -131 -319 -131q-145 0 -231 72q-85 72 -85 205z" />
    <glyph glyph-name="ae" unicode="&#xe6;" horiz-adv-x="1847" 
d="M1301 817q-183 0 -250 -199h434v3q-1 196 -184 196zM483 180q94 0 163 53t87 164l12 74q-27 -29 -94 -39l-147 -18q-150 -18 -150 -129q0 -105 129 -105zM664 1024q221 0 317 -98q133 98 338 98q246 0 374 -152t72 -432h-743v-37q0 -104 53 -159t150 -56q145 0 209 115
h292q-53 -145 -193 -236t-347 -92q-285 0 -381 195q-133 -195 -424 -195q-156 0 -242 72t-86 205q0 264 387 313l197 25q73 10 105 25t42 69t-28 94t-115 41q-162 0 -199 -147h-284q80 352 506 352z" />
    <glyph glyph-name="ccedilla" unicode="&#xe7;" horiz-adv-x="1169" 
d="M53 418q0 47 10 104q37 230 196 366t409 136q192 0 322 -98t130 -279h-299q-6 63 -50 109t-135 45q-91 0 -163 -74q-106 -109 -106 -311q0 -102 49 -160t141 -57q162 0 221 153h299q-43 -156 -173 -260t-333 -115l-10 -57q78 -2 121 -43t43 -104q0 -99 -73 -161t-206 -63
h-153l24 132h115q106 0 107 81q0 53 -82 54h-74l88 161q-193 17 -305 133t-113 308z" />
    <glyph glyph-name="egrave" unicode="&#xe8;" horiz-adv-x="1198" 
d="M610 1163l-250 336h293l146 -336h-189zM655 817q-186 0 -252 -199h433q-5 199 -181 199zM59 416q0 47 11 104q37 236 194 370q158 134 403 134t375 -151t72 -433h-745q-2 -12 -2 -37q0 -102 55 -158t149 -57q150 0 213 115h293q-53 -145 -191 -236t-351 -91t-345 117
q-131 118 -131 323z" />
    <glyph glyph-name="eacute" unicode="&#xe9;" horiz-adv-x="1198" 
d="M602 1163l258 336h309l-362 -336h-205zM655 817q-186 0 -252 -199h433q-5 199 -181 199zM59 416q0 47 11 104q37 236 194 370q158 134 403 134t375 -151t72 -433h-745q-2 -12 -2 -37q0 -102 55 -158t149 -57q150 0 213 115h293q-53 -145 -191 -236t-351 -91t-345 117
q-131 118 -131 323z" />
    <glyph glyph-name="ecircumflex" unicode="&#xea;" horiz-adv-x="1198" 
d="M328 1163l319 336h221l205 -336h-239l-99 187l-166 -187h-241zM655 817q-186 0 -252 -199h433q-5 199 -181 199zM59 416q0 47 11 104q37 236 194 370q158 134 403 134t375 -151t72 -433h-745q-2 -12 -2 -37q0 -102 55 -158t149 -57q150 0 213 115h293q-53 -145 -191 -236
t-351 -91t-345 117q-131 118 -131 323z" />
    <glyph glyph-name="edieresis" unicode="&#xeb;" horiz-adv-x="1198" 
d="M342 1214l45 263h270l-45 -263h-270zM809 1214l43 263h270l-43 -263h-270zM655 817q-186 0 -252 -199h433q-5 199 -181 199zM59 416q0 47 11 104q37 236 194 370q158 134 403 134t375 -151t72 -433h-745q-2 -12 -2 -37q0 -102 55 -158t149 -57q150 0 213 115h293
q-53 -145 -191 -236t-351 -91t-345 117q-131 118 -131 323z" />
    <glyph glyph-name="igrave" unicode="&#xec;" horiz-adv-x="581" 
d="M307 1163l-250 336h293l146 -336h-189zM49 0l172 999h303l-172 -999h-303z" />
    <glyph glyph-name="iacute" unicode="&#xed;" horiz-adv-x="581" 
d="M299 1163l258 336h309l-362 -336h-205zM49 0l172 999h303l-172 -999h-303z" />
    <glyph glyph-name="icircumflex" unicode="&#xee;" horiz-adv-x="581" 
d="M25 1163l319 336h221l205 -336h-240l-98 187l-166 -187h-241zM49 0l172 999h303l-172 -999h-303z" />
    <glyph glyph-name="idieresis" unicode="&#xef;" horiz-adv-x="581" 
d="M39 1214l45 263h270l-45 -263h-270zM506 1214l43 263h270l-43 -263h-270zM49 0l172 999h303l-172 -999h-303z" />
    <glyph glyph-name="eth" unicode="&#xf0;" horiz-adv-x="1282" 
d="M381 424q0 -224 192 -225q125 0 205 98q80 99 80 213q0 226 -192 225q-125 0 -205 -99q-80 -98 -80 -212zM74 391q0 244 163 406t414 161q188 0 262 -106h9q-12 186 -152 301l-182 -127l-88 121l135 92q-72 37 -201 86l111 211q195 -61 321 -135l187 129l88 -121
l-148 -102q223 -195 224 -555q0 -137 -35 -267q-55 -227 -215 -368t-430 -142q-213 0 -338 116t-125 300z" />
    <glyph glyph-name="ntilde" unicode="&#xf1;" horiz-adv-x="1265" 
d="M647 1464q68 0 156 -43t123 -43q80 0 100 99h141q-51 -272 -264 -273q-67 0 -153 43t-123 43q-76 0 -101 -98h-139q47 272 260 272zM819 1024q170 0 265 -105t59 -333l-99 -586h-305l92 569q18 121 -16 173q-35 52 -124 52t-159 -71q-70 -72 -90 -195l-90 -528h-303
l172 999h289l-25 -135h9q106 160 325 160z" />
    <glyph glyph-name="ograve" unicode="&#xf2;" horiz-adv-x="1236" 
d="M627 1163l-250 336h293l145 -336h-188zM371 416q0 -102 51 -160t149 -57q98 0 174 82t99 217q8 35 8 86q0 100 -52 158t-150 58t-175 -81q-104 -112 -104 -303zM57 418q0 291 202 464q167 142 403 142t368 -118q133 -118 133 -324q0 -290 -199 -464q-166 -142 -402 -142
t-371 117q-134 118 -134 325z" />
    <glyph glyph-name="oacute" unicode="&#xf3;" horiz-adv-x="1236" 
d="M618 1163l259 336h309l-363 -336h-205zM371 416q0 -102 51 -160t149 -57q98 0 174 82t99 217q8 35 8 86q0 100 -52 158t-150 58t-175 -81q-104 -112 -104 -303zM57 418q0 291 202 464q167 142 403 142t368 -118q133 -118 133 -324q0 -290 -199 -464q-166 -142 -402 -142
t-371 117q-134 118 -134 325z" />
    <glyph glyph-name="ocircumflex" unicode="&#xf4;" horiz-adv-x="1236" 
d="M344 1163l320 336h221l205 -336h-240l-98 187l-166 -187h-242zM371 416q0 -102 51 -160t149 -57q98 0 174 82t99 217q8 35 8 86q0 100 -52 158t-150 58t-175 -81q-104 -112 -104 -303zM57 418q0 291 202 464q167 142 403 142t368 -118q133 -118 133 -324
q0 -290 -199 -464q-166 -142 -402 -142t-371 117q-134 118 -134 325z" />
    <glyph glyph-name="otilde" unicode="&#xf5;" horiz-adv-x="1236" 
d="M618 1464q68 0 156 -43t123 -43q80 0 100 99h142q-51 -272 -265 -273q-68 0 -154 43t-122 43q-76 0 -100 -98h-140q47 272 260 272zM371 416q0 -102 51 -160t149 -57q98 0 174 82t99 217q8 35 8 86q0 100 -52 158t-150 58t-175 -81q-104 -112 -104 -303zM57 418
q0 291 202 464q167 142 403 142t368 -118q133 -118 133 -324q0 -290 -199 -464q-166 -142 -402 -142t-371 117q-134 118 -134 325z" />
    <glyph glyph-name="odieresis" unicode="&#xf6;" horiz-adv-x="1236" 
d="M358 1214l45 263h271l-45 -263h-271zM825 1214l43 263h271l-43 -263h-271zM371 416q0 -102 51 -160t149 -57q98 0 174 82t99 217q8 35 8 86q0 100 -52 158t-150 58t-175 -81q-104 -112 -104 -303zM57 418q0 291 202 464q167 142 403 142t368 -118q133 -118 133 -324
q0 -290 -199 -464q-166 -142 -402 -142t-371 117q-134 118 -134 325z" />
    <glyph glyph-name="divide" unicode="&#xf7;" 
d="M362 10l44 256h253l-45 -256h-252zM92 408l43 229h934l-43 -229h-934zM496 778l45 256h252l-43 -256h-254z" />
    <glyph glyph-name="oslash" unicode="&#xf8;" horiz-adv-x="1249" 
d="M856 570q0 34 -4 71l-408 -405q47 -37 121 -37q109 0 184 80t99 219q8 38 8 72zM377 417q0 -46 8 -77l414 412q-53 49 -146 49t-169 -80t-99 -219q-8 -39 -8 -85zM66 416q0 297 203 468q167 140 407 140q188 0 313 -84l84 84h164l-162 -160q92 -111 92 -280q0 -51 -8 -92
q-29 -236 -195 -376t-409 -141q-178 0 -299 74l-74 -74h-164l148 148q-100 111 -100 293z" />
    <glyph glyph-name="ugrave" unicode="&#xf9;" horiz-adv-x="1253" 
d="M633 1163l-250 336h293l145 -336h-188zM430 -25q-168 -1 -264 105t-57 334l96 585h305l-92 -569q-18 -121 16 -173t123 -52q88 -1 155 67t87 189l94 538h305l-172 -999h-291l23 135h-4q-107 -160 -324 -160z" />
    <glyph glyph-name="uacute" unicode="&#xfa;" horiz-adv-x="1253" 
d="M625 1163l258 336h309l-363 -336h-204zM430 -25q-168 -1 -264 105t-57 334l96 585h305l-92 -569q-18 -121 16 -173t123 -52q88 -1 155 67t87 189l94 538h305l-172 -999h-291l23 135h-4q-107 -160 -324 -160z" />
    <glyph glyph-name="ucircumflex" unicode="&#xfb;" horiz-adv-x="1253" 
d="M350 1163l320 336h221l205 -336h-240l-98 187l-166 -187h-242zM430 -25q-168 -1 -264 105t-57 334l96 585h305l-92 -569q-18 -121 16 -173t123 -52q88 -1 155 67t87 189l94 538h305l-172 -999h-291l23 135h-4q-107 -160 -324 -160z" />
    <glyph glyph-name="udieresis" unicode="&#xfc;" horiz-adv-x="1253" 
d="M365 1214l45 263h270l-45 -263h-270zM831 1214l43 263h271l-43 -263h-271zM430 -25q-168 -1 -264 105t-57 334l96 585h305l-92 -569q-18 -121 16 -173t123 -52q88 -1 155 67t87 189l94 538h305l-172 -999h-291l23 135h-4q-107 -160 -324 -160z" />
    <glyph glyph-name="yacute" unicode="&#xfd;" horiz-adv-x="1124" 
d="M565 1163l258 336h310l-363 -336h-205zM129 -467h-147l43 236h59q90 0 153 40q62 40 107 136l27 55h-95l-180 999h318l104 -706h8l346 706h314l-568 -1103q-86 -170 -202 -267q-117 -96 -287 -96z" />
    <glyph glyph-name="thorn" unicode="&#xfe;" horiz-adv-x="1280" 
d="M430 416q0 -102 50 -160t141 -57q127 1 205 111t77 274q0 102 -50 159t-142 58q-125 -1 -203 -111t-78 -274zM800 1024q194 0 305 -111q112 -111 112 -313q0 -281 -158 -453t-387 -172q-119 0 -197 45t-102 119h-8q-6 -79 -43 -329l-48 -261h-303l332 1950h303l-41 -262
q-23 -152 -73 -342h8q106 129 300 129z" />
    <glyph glyph-name="ydieresis" unicode="&#xff;" horiz-adv-x="1124" 
d="M305 1214l45 263h271l-46 -263h-270zM772 1214l43 263h270l-43 -263h-270zM129 -467h-147l43 236h59q90 0 153 40q62 40 107 136l27 55h-95l-180 999h318l104 -706h8l346 706h314l-568 -1103q-86 -170 -202 -267q-117 -96 -287 -96z" />
    <glyph glyph-name="Amacron" unicode="&#x100;" horiz-adv-x="1447" 
d="M592 1642l35 197h633l-35 -197h-633zM829 1116h-8l-295 -577h396zM-72 0l754 1409h399l252 -1409h-325l-47 289h-562l-145 -289h-326z" />
    <glyph glyph-name="amacron" unicode="&#x101;" horiz-adv-x="1191" 
d="M371 1233l35 197h632l-34 -197h-633zM354 285q0 -104 127 -105q92 0 162 53t90 164l15 76q-33 -31 -97 -41l-147 -18q-150 -18 -150 -129zM53 252q0 264 387 313l197 25q73 10 105 26t42 68t-27 93q-38 42 -116 42q-162 0 -199 -147h-284q80 352 506 352q202 0 327 -92
t86 -309l-108 -623h-289l16 106h-8q-96 -131 -319 -131q-145 0 -231 72q-85 72 -85 205z" />
    <glyph glyph-name="Abreve" unicode="&#x102;" horiz-adv-x="1447" 
d="M909 1581q-137 0 -217 76t-63 244h159q-2 -74 37 -114t109 -40q141 0 190 154h160q-76 -320 -375 -320zM829 1116h-8l-295 -577h396zM-72 0l754 1409h399l252 -1409h-325l-47 289h-562l-145 -289h-326z" />
    <glyph glyph-name="abreve" unicode="&#x103;" horiz-adv-x="1191" 
d="M688 1171q-137 0 -217 76t-63 244h159q-2 -74 37 -114t109 -40q141 0 190 154h160q-76 -320 -375 -320zM354 285q0 -104 127 -105q92 0 162 53t90 164l15 76q-33 -31 -97 -41l-147 -18q-150 -18 -150 -129zM53 252q0 264 387 313l197 25q73 10 105 26t42 68t-27 93
q-38 42 -116 42q-162 0 -199 -147h-284q80 352 506 352q202 0 327 -92t86 -309l-108 -623h-289l16 106h-8q-96 -131 -319 -131q-145 0 -231 72q-85 72 -85 205z" />
    <glyph glyph-name="Aogonek" unicode="&#x104;" horiz-adv-x="1447" 
d="M829 1116h-8l-295 -577h396zM971 -293q0 81 54 145t165 148h-182l-47 289h-562l-145 -289h-326l754 1409h399l252 -1409q-164 -145 -164 -225q0 -63 88 -64h62l-29 -162h-82q-125 0 -181 38t-56 120z" />
    <glyph glyph-name="aogonek" unicode="&#x105;" horiz-adv-x="1191" 
d="M354 285q0 -104 127 -105q92 0 162 53t90 164l15 76q-33 -31 -97 -41l-147 -18q-150 -18 -150 -129zM856 -451q-126 0 -182 38t-56 120q0 81 54 145t166 148h-158l16 106h-8q-96 -131 -319 -131q-145 0 -231 72q-85 72 -85 205q0 264 387 313l197 25q73 10 105 26t42 68
t-27 93q-38 42 -116 42q-162 0 -199 -147h-284q80 352 506 352q202 0 327 -92t86 -309l-108 -623h12q-164 -145 -164 -225q0 -63 88 -64h62l-29 -162h-82z" />
    <glyph glyph-name="Cacute" unicode="&#x106;" horiz-adv-x="1519" 
d="M862 1573l258 336h310l-363 -336h-205zM106 580q0 366 224 610t592 244q252 0 416 -136t171 -366h-313q-25 113 -100 175q-76 62 -199 62q-201 1 -330 -163t-129 -402q0 -168 89 -266t243 -98q240 0 346 237h316q-76 -246 -254 -374t-456 -128q-278 1 -447 169t-169 436z
" />
    <glyph glyph-name="cacute" unicode="&#x107;" horiz-adv-x="1169" 
d="M606 1163l258 336h310l-363 -336h-205zM53 418q0 47 10 104q37 230 196 366t409 136q192 0 322 -98t130 -279h-299q-6 63 -50 109t-135 45q-91 0 -163 -74q-106 -109 -106 -311q0 -102 49 -160t141 -57q162 0 221 153h299q-45 -164 -186 -270t-361 -106t-348 117
q-129 118 -129 325z" />
    <glyph glyph-name="Ccircumflex" unicode="&#x108;" horiz-adv-x="1519" 
d="M588 1573l319 336h221l205 -336h-239l-99 186l-166 -186h-241zM106 580q0 366 224 610t592 244q252 0 416 -136t171 -366h-313q-25 113 -100 175q-76 62 -199 62q-201 1 -330 -163t-129 -402q0 -168 89 -266t243 -98q240 0 346 237h316q-76 -246 -254 -374t-456 -128
q-278 1 -447 169t-169 436z" />
    <glyph glyph-name="ccircumflex" unicode="&#x109;" horiz-adv-x="1169" 
d="M332 1163l319 336h221l205 -336h-239l-99 187l-166 -187h-241zM53 418q0 47 10 104q37 230 196 366t409 136q192 0 322 -98t130 -279h-299q-6 63 -50 109t-135 45q-91 0 -163 -74q-106 -109 -106 -311q0 -102 49 -160t141 -57q162 0 221 153h299q-45 -164 -186 -270
t-361 -106t-348 117q-129 118 -129 325z" />
    <glyph glyph-name="Cdotaccent" unicode="&#x10a;" horiz-adv-x="1519" 
d="M836 1624l47 262h270l-47 -262h-270zM106 580q0 366 224 610t592 244q252 0 416 -136t171 -366h-313q-25 113 -100 175q-76 62 -199 62q-201 1 -330 -163t-129 -402q0 -168 89 -266t243 -98q240 0 346 237h316q-76 -246 -254 -374t-456 -128q-278 1 -447 169t-169 436z
" />
    <glyph glyph-name="cdotaccent" unicode="&#x10b;" horiz-adv-x="1169" 
d="M580 1214l47 263h270l-47 -263h-270zM53 418q0 47 10 104q37 230 196 366t409 136q192 0 322 -98t130 -279h-299q-6 63 -50 109t-135 45q-91 0 -163 -74q-106 -109 -106 -311q0 -102 49 -160t141 -57q162 0 221 153h299q-45 -164 -186 -270t-361 -106t-348 117
q-129 118 -129 325z" />
    <glyph glyph-name="Ccaron" unicode="&#x10c;" horiz-adv-x="1519" 
d="M852 1573l-207 336h240l98 -187l166 187h242l-320 -336h-219zM106 580q0 366 224 610t592 244q252 0 416 -136t171 -366h-313q-25 113 -100 175q-76 62 -199 62q-201 1 -330 -163t-129 -402q0 -168 89 -266t243 -98q240 0 346 237h316q-76 -246 -254 -374t-456 -128
q-278 1 -447 169t-169 436z" />
    <glyph glyph-name="ccaron" unicode="&#x10d;" horiz-adv-x="1169" 
d="M596 1163l-207 336h240l98 -186l166 186h242l-320 -336h-219zM53 418q0 47 10 104q37 230 196 366t409 136q192 0 322 -98t130 -279h-299q-6 63 -50 109t-135 45q-91 0 -163 -74q-106 -109 -106 -311q0 -102 49 -160t141 -57q162 0 221 153h299q-45 -164 -186 -270
t-361 -106t-348 117q-129 118 -129 325z" />
    <glyph glyph-name="Dcaron" unicode="&#x10e;" horiz-adv-x="1538" 
d="M768 1573l-207 336h240l98 -187l166 187h242l-320 -336h-219zM795 1149h-217l-150 -889h201q244 0 386 151t142 388q0 158 -90 254t-272 96zM838 1409q305 0 478 -166t173 -418q-1 -375 -231 -600t-646 -225h-544l237 1409h533z" />
    <glyph glyph-name="dcaron" unicode="&#x10f;" horiz-adv-x="1292" 
d="M1417 1057l117 215h-117l39 227h275l-31 -201l-158 -241h-125zM373 416q0 -102 50 -160t142 -57q125 1 203 111t78 274q0 102 -50 159t-143 58q-125 -1 -203 -111t-77 -274zM59 399q0 281 157 453t388 172q119 0 198 -45t103 -119h6q14 145 43 305l58 334h305l-254 -1499
h-295l18 104h-8q-106 -129 -300 -129q-194 1 -306 111q-113 110 -113 313z" />
    <glyph glyph-name="Dcroat" unicode="&#x110;" horiz-adv-x="1538" 
d="M795 1149h-217l-60 -356h293l-31 -175h-291l-61 -358h203q244 0 385 151t141 388q0 158 -90 254t-272 96zM838 1409q305 0 478 -165t173 -417q-1 -375 -231 -601t-648 -226h-542l104 618h-154l31 175h152l104 616h533z" />
    <glyph glyph-name="dcroat" unicode="&#x111;" horiz-adv-x="1292" 
d="M373 416q0 -102 50 -160t142 -57q125 1 203 111t78 274q0 102 -50 159t-143 58q-125 -1 -203 -111t-77 -274zM478 -25q-194 0 -306 111q-113 111 -113 313q0 281 157 453t388 172q119 0 198 -45t103 -119h6q14 145 43 305l7 35h-287l24 152h287l27 147h305l-25 -147h140
l-25 -152h-141l-203 -1200h-295l18 104h-8q-106 -129 -300 -129z" />
    <glyph glyph-name="Emacron" unicode="&#x112;" horiz-adv-x="1337" 
d="M557 1642l35 197h633l-35 -197h-633zM68 0l237 1409h1061l-43 -260h-745l-52 -307h604l-40 -244h-605l-57 -338h764l-43 -260h-1081z" />
    <glyph glyph-name="emacron" unicode="&#x113;" horiz-adv-x="1198" 
d="M391 1233l35 197h633l-35 -197h-633zM655 817q-186 0 -252 -199h433q-5 199 -181 199zM59 416q0 47 11 104q37 236 194 370q158 134 403 134t375 -151t72 -433h-745q-2 -12 -2 -37q0 -102 55 -158t149 -57q150 0 213 115h293q-53 -145 -191 -236t-351 -91t-345 117
q-131 118 -131 323z" />
    <glyph glyph-name="Ebreve" unicode="&#x114;" horiz-adv-x="1337" 
d="M874 1581q-137 0 -217 76t-63 244h160q-2 -74 37 -114t108 -40q141 0 191 154h159q-76 -320 -375 -320zM68 0l237 1409h1061l-43 -260h-745l-52 -307h604l-40 -244h-605l-57 -338h764l-43 -260h-1081z" />
    <glyph glyph-name="ebreve" unicode="&#x115;" horiz-adv-x="1198" 
d="M709 1171q-137 0 -217 76t-64 244h160q-2 -74 37 -114t108 -40q141 0 191 154h159q-75 -320 -374 -320zM655 817q-186 0 -252 -199h433q-5 199 -181 199zM59 416q0 47 11 104q37 236 194 370q158 134 403 134t375 -151t72 -433h-745q-2 -12 -2 -37q0 -102 55 -158
t149 -57q150 0 213 115h293q-53 -145 -191 -236t-351 -91t-345 117q-131 118 -131 323z" />
    <glyph glyph-name="Edotaccent" unicode="&#x116;" horiz-adv-x="1337" 
d="M741 1624l47 262h271l-47 -262h-271zM68 0l237 1409h1061l-43 -260h-745l-52 -307h604l-40 -244h-605l-57 -338h764l-43 -260h-1081z" />
    <glyph glyph-name="edotaccent" unicode="&#x117;" horiz-adv-x="1198" 
d="M575 1214l48 263h270l-47 -263h-271zM655 817q-186 0 -252 -199h433q-5 199 -181 199zM59 416q0 47 11 104q37 236 194 370q158 134 403 134t375 -151t72 -433h-745q-2 -12 -2 -37q0 -102 55 -158t149 -57q150 0 213 115h293q-53 -145 -191 -236t-351 -91t-345 117
q-131 118 -131 323z" />
    <glyph glyph-name="Eogonek" unicode="&#x118;" horiz-adv-x="1337" 
d="M985 -225q0 -63 88 -64h62l-29 -162h-82q-125 0 -181 38q-57 38 -57 120q0 81 54 145t166 148h-938l237 1409h1061l-43 -260h-745l-52 -307h604l-40 -244h-605l-57 -338h764l-43 -260q-164 -145 -164 -225z" />
    <glyph glyph-name="eogonek" unicode="&#x119;" horiz-adv-x="1198" 
d="M643 817q-178 0 -246 -199h439q-5 199 -193 199zM59 403q0 317 213 490q162 131 409 131t369 -150t64 -434h-745q-2 -6 -2 -37q0 -104 54 -159t150 -56q150 0 213 115h293q-68 -180 -262 -272q-289 -135 -289 -252q0 -68 86 -68h64l-27 -162h-82q-240 0 -239 170
q0 156 194 256h-14q-209 6 -329 122t-120 306z" />
    <glyph glyph-name="Ecaron" unicode="&#x11a;" horiz-adv-x="1337" 
d="M758 1573l-207 336h240l98 -187l166 187h241l-319 -336h-219zM68 0l237 1409h1061l-43 -260h-745l-52 -307h604l-40 -244h-605l-57 -338h764l-43 -260h-1081z" />
    <glyph glyph-name="ecaron" unicode="&#x11b;" horiz-adv-x="1198" 
d="M592 1163l-207 336h240l98 -186l166 186h241l-319 -336h-219zM655 817q-186 0 -252 -199h433q-5 199 -181 199zM59 416q0 47 11 104q37 236 194 370q158 134 403 134t375 -151t72 -433h-745q-2 -12 -2 -37q0 -102 55 -158t149 -57q150 0 213 115h293q-53 -145 -191 -236
t-351 -91t-345 117q-131 118 -131 323z" />
    <glyph glyph-name="Gcircumflex" unicode="&#x11c;" horiz-adv-x="1601" 
d="M606 1573l320 336h221l205 -336h-240l-98 186l-166 -186h-242zM1165 0v139h-10q-171 -164 -445 -164t-439 169t-165 436q0 370 230 612t610 242q254 0 412 -122t178 -337h-315q-17 84 -91 139t-208 55q-211 0 -348 -163q-136 -164 -136 -402q0 -168 90 -265t248 -97
t268 79t138 216h-353l35 231h639l-135 -768h-203z" />
    <glyph glyph-name="gcircumflex" unicode="&#x11d;" horiz-adv-x="1292" 
d="M328 1163l319 336h221l205 -336h-239l-99 187l-166 -187h-241zM373 416q0 -102 50 -160t142 -57q125 1 203 111t78 274q0 102 -50 159t-143 58q-125 -1 -203 -111t-77 -274zM471 -268q133 0 206 77t99 236l10 61h-6q-104 -131 -300 -131t-308 111q-113 111 -113 313
q0 281 156 453t383 172q123 0 203 -44t104 -120h8l25 139h295l-162 -970q-43 -262 -199 -379t-400 -117t-363 90t-111 254h285q-4 -65 47 -105t141 -40z" />
    <glyph glyph-name="Gbreve" unicode="&#x11e;" horiz-adv-x="1601" 
d="M987 1581q-137 0 -217 76t-63 244h159q-2 -74 37 -114t109 -40q141 0 190 154h160q-76 -320 -375 -320zM1165 0v139h-10q-171 -164 -445 -164t-439 169t-165 436q0 370 230 612t610 242q254 0 412 -122t178 -337h-315q-17 84 -91 139t-208 55q-211 0 -348 -163
q-136 -164 -136 -402q0 -168 90 -265t248 -97t268 79t138 216h-353l35 231h639l-135 -768h-203z" />
    <glyph glyph-name="gbreve" unicode="&#x11f;" horiz-adv-x="1292" 
d="M709 1171q-137 0 -217 76t-64 244h160q-2 -74 37 -114t108 -40q141 0 191 154h159q-75 -320 -374 -320zM373 416q0 -102 50 -160t142 -57q125 1 203 111t78 274q0 102 -50 159t-143 58q-125 -1 -203 -111t-77 -274zM471 -268q133 0 206 77t99 236l10 61h-6
q-104 -131 -300 -131t-308 111q-113 111 -113 313q0 281 156 453t383 172q123 0 203 -44t104 -120h8l25 139h295l-162 -970q-43 -262 -199 -379t-400 -117t-363 90t-111 254h285q-4 -65 47 -105t141 -40z" />
    <glyph glyph-name="Gdotaccent" unicode="&#x120;" horiz-adv-x="1601" 
d="M854 1624l47 262h270l-47 -262h-270zM1165 0v139h-10q-171 -164 -445 -164t-439 169t-165 436q0 370 230 612t610 242q254 0 412 -122t178 -337h-315q-17 84 -91 139t-208 55q-211 0 -348 -163q-136 -164 -136 -402q0 -168 90 -265t248 -97t268 79t138 216h-353l35 231
h639l-135 -768h-203z" />
    <glyph glyph-name="gdotaccent" unicode="&#x121;" horiz-adv-x="1292" 
d="M575 1214l48 263h270l-47 -263h-271zM373 416q0 -102 50 -160t142 -57q125 1 203 111t78 274q0 102 -50 159t-143 58q-125 -1 -203 -111t-77 -274zM471 -268q133 0 206 77t99 236l10 61h-6q-104 -131 -300 -131t-308 111q-113 111 -113 313q0 281 156 453t383 172
q123 0 203 -44t104 -120h8l25 139h295l-162 -970q-43 -262 -199 -379t-400 -117t-363 90t-111 254h285q-4 -65 47 -105t141 -40z" />
    <glyph glyph-name="Gcommaaccent" unicode="&#x122;" horiz-adv-x="1601" 
d="M561 -117h270l-32 -190l-152 -230h-123l117 201h-119zM1165 0v139h-10q-171 -164 -445 -164t-439 169t-165 436q0 370 230 612t610 242q254 0 412 -122t178 -337h-315q-17 84 -91 139t-208 55q-211 0 -348 -163q-136 -164 -136 -402q0 -168 90 -265t248 -97t268 79
t138 216h-353l35 231h639l-135 -768h-203z" />
    <glyph glyph-name="gcommaaccent" unicode="&#x123;" horiz-adv-x="1292" 
d="M565 1163l31 191l154 229h120l-116 -201h120l-38 -219h-271zM373 416q0 -102 50 -160t142 -57q125 1 203 111t78 274q0 102 -50 159t-143 58q-125 -1 -203 -111t-77 -274zM471 -268q133 0 206 77t99 236l10 61h-6q-104 -131 -300 -131t-308 111q-113 111 -113 313
q0 281 156 453t383 172q123 0 203 -44t104 -120h8l25 139h295l-162 -970q-43 -262 -199 -379t-400 -117t-363 90t-111 254h285q-4 -65 47 -105t141 -40z" />
    <glyph glyph-name="Hcircumflex" unicode="&#x124;" horiz-adv-x="1570" 
d="M584 1573l319 336h221l205 -336h-239l-99 186l-166 -186h-241zM68 0l237 1409h318l-97 -563h619l96 563h320l-238 -1409h-319l96 580h-619l-96 -580h-317z" />
    <glyph glyph-name="hcircumflex" unicode="&#x125;" horiz-adv-x="1265" 
d="M104 1647l320 335h221l205 -335h-240l-98 186l-166 -186h-242zM819 1024q170 0 265 -105t59 -333l-99 -586h-305l92 569q18 121 -16 173q-35 52 -123 52t-158 -69q-70 -70 -92 -197l-90 -528h-303l254 1499h303l-51 -305q-33 -197 -70 -330h9q106 160 325 160z" />
    <glyph glyph-name="Hbar" unicode="&#x126;" horiz-adv-x="1570" 
d="M561 1049l-35 -203h619l35 203h-619zM94 1049l29 174h149l33 186h318l-33 -186h618l33 186h320l-33 -186h153l-28 -174h-154l-176 -1049h-319l96 580h-619l-96 -580h-317l176 1049h-150z" />
    <glyph glyph-name="hbar" unicode="&#x127;" horiz-adv-x="1265" 
d="M555 1200v-6q-55 -283 -68 -330h7q106 160 325 160q170 0 265 -105t59 -333l-99 -586h-305l92 569q18 121 -16 173q-35 52 -123 52t-158 -69q-70 -70 -94 -203l-88 -522h-303l203 1200h-137l24 152h140l24 147h303l-24 -147h290l-24 -152h-293z" />
    <glyph glyph-name="Itilde" unicode="&#x128;" horiz-adv-x="632" 
d="M389 1874q68 0 156 -43t123 -43q80 0 100 98h141q-51 -272 -264 -272q-67 0 -153 43t-123 43q-76 0 -101 -98h-139q47 272 260 272zM68 0l237 1409h318l-238 -1409h-317z" />
    <glyph glyph-name="itilde" unicode="&#x129;" horiz-adv-x="581" 
d="M299 1464q68 0 156 -43t123 -43q80 0 100 99h141q-51 -272 -264 -273q-68 0 -154 43t-122 43q-76 0 -101 -98h-139q47 272 260 272zM49 0l172 999h303l-172 -999h-303z" />
    <glyph glyph-name="Imacron" unicode="&#x12a;" horiz-adv-x="632" 
d="M178 1642l35 197h633l-35 -197h-633zM68 0l237 1409h318l-238 -1409h-317z" />
    <glyph glyph-name="imacron" unicode="&#x12b;" horiz-adv-x="581" 
d="M88 1233l35 197h633l-35 -197h-633zM49 0l172 999h303l-172 -999h-303z" />
    <glyph glyph-name="Ibreve" unicode="&#x12c;" horiz-adv-x="632" 
d="M496 1581q-137 0 -217 76t-64 244h160q-2 -74 37 -114t108 -40q141 0 191 154h159q-75 -320 -374 -320zM68 0l237 1409h318l-238 -1409h-317z" />
    <glyph glyph-name="ibreve" unicode="&#x12d;" horiz-adv-x="581" 
d="M406 1171q-137 0 -218 76q-80 76 -63 244h160q-2 -74 37 -114t108 -40q141 0 191 154h159q-75 -320 -374 -320zM49 0l172 999h303l-172 -999h-303z" />
    <glyph glyph-name="Iogonek" unicode="&#x12e;" horiz-adv-x="632" 
d="M215 -225q0 -63 88 -64h62l-29 -162h-82q-125 0 -181 38q-57 38 -57 120q0 81 54 145t166 148h-168l237 1409h318l-238 -1409h-6q-164 -145 -164 -225z" />
    <glyph glyph-name="iogonek" unicode="&#x12f;" horiz-adv-x="581" 
d="M254 1233l45 266h322l-46 -266h-321zM188 -225q0 -63 88 -64h62l-29 -162h-82q-125 0 -181 38t-56 120q0 81 54 145t165 148h-160l172 999h303l-172 -999q-164 -145 -164 -225z" />
    <glyph glyph-name="Idotaccent" unicode="&#x130;" horiz-adv-x="632" 
d="M362 1624l48 262h270l-47 -262h-271zM68 0l237 1409h318l-238 -1409h-317z" />
    <glyph glyph-name="dotlessi" unicode="&#x131;" horiz-adv-x="581" 
d="M49 0l172 999h303l-172 -999h-303z" />
    <glyph glyph-name="IJ" unicode="&#x132;" horiz-adv-x="1820" 
d="M68 0l237 1409h318l-238 -1409h-317zM1112 -25q-234 0 -345 113q-112 113 -75 342l10 66h308l-11 -66q-35 -195 138 -194q88 0 141 50t72 167l161 956h318l-160 -956q-43 -248 -183 -363t-374 -115z" />
    <glyph glyph-name="ij" unicode="&#x133;" 
d="M49 0l172 999h303l-172 -999h-303zM471 -221q67 0 99 36t46 117l187 1067h303l-186 -1077q-34 -190 -136 -281t-317 -92h-94l41 230h57zM254 1233l45 266h322l-46 -266h-321zM831 1233l46 266h319l-43 -266h-322z" />
    <glyph glyph-name="Jcircumflex" unicode="&#x134;" horiz-adv-x="1183" 
d="M686 1573l320 336h221l205 -336h-240l-98 186l-166 -186h-242zM474 -25q-232 0 -344 113t-75 342l13 66h307l-13 -66q-33 -195 138 -194q178 0 215 217l159 956h320l-162 -956q-43 -248 -184 -363q-142 -115 -374 -115z" />
    <glyph glyph-name="jcircumflex" unicode="&#x135;" horiz-adv-x="581" 
d="M25 1163l319 336h221l205 -336h-240l-98 187l-166 -187h-241zM-111 -221q68 -1 100 35t46 118l186 1067h303l-186 -1077q-35 -190 -136 -281t-317 -92h-94l41 230h57z" />
    <glyph glyph-name="Kcommaaccent" unicode="&#x136;" horiz-adv-x="1472" 
d="M537 -117h270l-33 -190l-151 -230h-123l116 201h-118zM68 0l237 1409h318l-103 -610l672 610h371l-678 -614l463 -795h-357l-338 586l-200 -180l-68 -406h-317z" />
    <glyph glyph-name="kcommaaccent" unicode="&#x137;" horiz-adv-x="1173" 
d="M391 -117h271l-33 -190l-152 -230h-123l117 201h-119zM49 0l254 1499h303l-145 -862l389 362h356l-448 -401l303 -598h-328l-192 401l-142 -127l-47 -274h-303z" />
    <glyph glyph-name="Lacute" unicode="&#x139;" horiz-adv-x="1220" 
d="M389 1573l258 336h309l-362 -336h-205zM61 0l244 1409h318l-197 -1143h672l-47 -266h-990z" />
    <glyph glyph-name="lacute" unicode="&#x13a;" horiz-adv-x="581" 
d="M381 1647l258 335h309l-362 -335h-205zM49 0l254 1499h303l-254 -1499h-303z" />
    <glyph glyph-name="Lcommaaccent" unicode="&#x13b;" horiz-adv-x="1220" 
d="M414 -117h270l-33 -190l-151 -230h-123l117 201h-119zM61 0l244 1409h318l-197 -1143h672l-47 -266h-990z" />
    <glyph glyph-name="lcommaaccent" unicode="&#x13c;" horiz-adv-x="581" 
d="M47 -117h270l-32 -190l-152 -230h-123l117 201h-119zM49 0l254 1499h303l-254 -1499h-303z" />
    <glyph glyph-name="Lcaron" unicode="&#x13d;" horiz-adv-x="1220" 
d="M825 967l115 215h-117l39 227h277l-33 -201l-158 -241h-123zM61 0l244 1409h318l-197 -1143h672l-47 -266h-990z" />
    <glyph glyph-name="lcaron" unicode="&#x13e;" horiz-adv-x="581" 
d="M49 0l254 1499h303l-254 -1499h-303zM709 1057l114 215h-116l38 227h275l-31 -201l-158 -241h-122z" />
    <glyph glyph-name="Ldot" unicode="&#x13f;" horiz-adv-x="1220" 
d="M700 623l45 266h277l-45 -266h-277zM61 0l244 1409h318l-197 -1143h672l-47 -266h-990z" />
    <glyph glyph-name="ldot" unicode="&#x140;" horiz-adv-x="847" 
d="M575 528l46 267h276l-45 -267h-277zM49 0l254 1499h303l-254 -1499h-303z" />
    <glyph glyph-name="Lslash" unicode="&#x141;" horiz-adv-x="1220" 
d="M8 369l-74 139l240 151l131 750h318l-91 -522l232 147l80 -139l-346 -219l-72 -410h672l-47 -266h-990l78 451z" />
    <glyph glyph-name="lslash" unicode="&#x142;" horiz-adv-x="581" 
d="M16 365l-77 120l221 168l143 846h303l-98 -581l108 81l78 -120l-221 -168l-121 -711h-303l76 446z" />
    <glyph glyph-name="Nacute" unicode="&#x143;" horiz-adv-x="1587" 
d="M866 1573l258 336h310l-363 -336h-205zM68 0l237 1409h279l522 -881h8l143 881h320l-238 -1409h-280l-520 881h-9l-145 -881h-317z" />
    <glyph glyph-name="nacute" unicode="&#x144;" horiz-adv-x="1265" 
d="M647 1163l258 336h309l-362 -336h-205zM819 1024q170 0 265 -105t59 -333l-99 -586h-305l92 569q18 121 -16 173q-35 52 -124 52t-159 -71q-70 -72 -90 -195l-90 -528h-303l172 999h289l-25 -135h9q106 160 325 160z" />
    <glyph glyph-name="Ncommaaccent" unicode="&#x145;" horiz-adv-x="1587" 
d="M553 -117h270l-32 -190l-152 -230h-123l117 201h-119zM68 0l237 1409h279l522 -881h8l143 881h320l-238 -1409h-280l-520 881h-9l-145 -881h-317z" />
    <glyph glyph-name="ncommaaccent" unicode="&#x146;" horiz-adv-x="1265" 
d="M395 -117h271l-33 -190l-152 -230h-123l117 201h-119zM819 1024q170 0 265 -105t59 -333l-99 -586h-305l92 569q18 121 -16 173q-35 52 -124 52t-159 -71q-70 -72 -90 -195l-90 -528h-303l172 999h289l-25 -135h9q106 160 325 160z" />
    <glyph glyph-name="Ncaron" unicode="&#x147;" horiz-adv-x="1587" 
d="M856 1573l-207 336h240l98 -187l166 187h242l-320 -336h-219zM68 0l237 1409h279l522 -881h8l143 881h320l-238 -1409h-280l-520 881h-9l-145 -881h-317z" />
    <glyph glyph-name="ncaron" unicode="&#x148;" horiz-adv-x="1265" 
d="M637 1163l-207 336h240l98 -186l166 186h242l-320 -336h-219zM819 1024q170 0 265 -105t59 -333l-99 -586h-305l92 569q18 121 -16 173q-35 52 -124 52t-159 -71q-70 -72 -90 -195l-90 -528h-303l172 999h289l-25 -135h9q106 160 325 160z" />
    <glyph glyph-name="napostrophe" unicode="&#x149;" horiz-adv-x="1265" 
d="M293 1163l117 201h-119l39 219h270l-33 -190l-151 -230h-123zM819 1024q170 0 265 -105t59 -333l-99 -586h-305l92 569q18 121 -16 173q-35 52 -124 52t-159 -71q-70 -72 -90 -195l-90 -528h-303l172 999h289l-25 -135h9q106 160 325 160z" />
    <glyph glyph-name="Eng" unicode="&#x14a;" horiz-adv-x="1587" 
d="M846 -211q82 0 127 42t61 142l8 50l-507 858h-9l-141 -881h-317l237 1409h283l516 -881h8l145 881h320l-244 -1440q-39 -229 -147 -324t-332 -96h-131l43 240h80z" />
    <glyph glyph-name="eng" unicode="&#x14b;" horiz-adv-x="1265" 
d="M582 -221q68 0 100 36t43 117l106 637q18 121 -16 173q-35 52 -123 52t-156 -68q-68 -69 -92 -194l-92 -532h-303l172 999h289l-23 -135h7q106 160 325 160q170 0 265 -105t59 -333l-113 -664q-35 -190 -136 -281t-316 -92h-95l41 230h58z" />
    <glyph glyph-name="Omacron" unicode="&#x14c;" horiz-adv-x="1646" 
d="M684 1642l35 197h633l-35 -197h-633zM438 604q0 -164 91 -264t249 -100q203 0 346 164t144 401q0 162 -91 263t-249 101q-202 1 -346 -163t-144 -402zM106 586q0 360 240 604t610 244q295 0 468 -171t173 -440q1 -358 -241 -603t-615 -245q-293 1 -464 171t-171 440z" />
    <glyph glyph-name="omacron" unicode="&#x14d;" horiz-adv-x="1236" 
d="M408 1233l34 197h633l-35 -197h-632zM371 416q0 -102 51 -160t149 -57q98 0 174 82t99 217q8 35 8 86q0 100 -52 158t-150 58t-175 -81q-104 -112 -104 -303zM57 418q0 291 202 464q167 142 403 142t368 -118q133 -118 133 -324q0 -290 -199 -464q-166 -142 -402 -142
t-371 117q-134 118 -134 325z" />
    <glyph glyph-name="Obreve" unicode="&#x14e;" horiz-adv-x="1646" 
d="M1001 1581q-137 0 -217 76t-63 244h160q-2 -74 37 -114t108 -40q141 0 191 154h159q-76 -320 -375 -320zM438 604q0 -164 91 -264t249 -100q203 0 346 164t144 401q0 162 -91 263t-249 101q-202 1 -346 -163t-144 -402zM106 586q0 360 240 604t610 244q295 0 468 -171
t173 -440q1 -358 -241 -603t-615 -245q-293 1 -464 171t-171 440z" />
    <glyph glyph-name="obreve" unicode="&#x14f;" horiz-adv-x="1236" 
d="M725 1171q-137 0 -217 76t-64 244h160q-2 -74 37 -114t109 -40q141 0 190 154h160q-76 -320 -375 -320zM371 416q0 -102 51 -160t149 -57q98 0 174 82t99 217q8 35 8 86q0 100 -52 158t-150 58t-175 -81q-104 -112 -104 -303zM57 418q0 291 202 464q167 142 403 142
t368 -118q133 -118 133 -324q0 -290 -199 -464q-166 -142 -402 -142t-371 117q-134 118 -134 325z" />
    <glyph glyph-name="Ohungarumlaut" unicode="&#x150;" horiz-adv-x="1646" 
d="M676 1573l260 336h309l-364 -336h-205zM1102 1573l260 336h307l-362 -336h-205zM438 604q0 -164 91 -264t249 -100q203 0 346 164t144 401q0 162 -91 263t-249 101q-202 1 -346 -163t-144 -402zM106 586q0 360 240 604t610 244q295 0 468 -171t173 -440q1 -358 -241 -603
t-615 -245q-293 1 -464 171t-171 440z" />
    <glyph glyph-name="ohungarumlaut" unicode="&#x151;" horiz-adv-x="1236" 
d="M399 1163l260 336h310l-365 -336h-205zM825 1163l260 336h308l-363 -336h-205zM371 416q0 -102 51 -160t149 -57q98 0 174 82t99 217q8 35 8 86q0 100 -52 158t-150 58t-175 -81q-104 -112 -104 -303zM57 418q0 291 202 464q167 142 403 142t368 -118q133 -118 133 -324
q0 -290 -199 -464q-166 -142 -402 -142t-371 117q-134 118 -134 325z" />
    <glyph glyph-name="OE" unicode="&#x152;" horiz-adv-x="2238" 
d="M438 610q0 -158 90 -254t273 -96h213l149 889h-198q-243 -1 -385 -151t-142 -388zM106 580q0 377 230 603t647 226h1282l-41 -260h-743l-51 -307h602l-43 -244h-600l-58 -338h760l-41 -260h-1296q-304 0 -476 165t-172 415z" />
    <glyph glyph-name="oe" unicode="&#x153;" horiz-adv-x="1957" 
d="M1407 817q-184 0 -250 -199h438q-4 199 -188 199zM371 416q0 -102 49 -160t148 -57q99 0 175 80t99 219q8 39 8 86q0 102 -49 159t-149 57t-174 -79q-75 -80 -99 -219q-8 -39 -8 -86zM59 416q0 51 9 92q29 236 195 376q167 140 412 140t359 -154q146 154 400 154
t376 -150t66 -434h-748v-37q0 -104 54 -159t149 -56q150 0 213 115h293q-53 -145 -195 -236t-348 -92q-246 0 -350 150q-154 -150 -387 -150t-366 117q-132 117 -132 324z" />
    <glyph glyph-name="Racute" unicode="&#x154;" horiz-adv-x="1464" 
d="M754 1573l258 336h309l-363 -336h-204zM879 1161h-299l-70 -420h297q125 0 200 72t74 188q0 74 -53 117t-149 43zM944 1409q469 0 469 -387q0 -166 -100 -297t-275 -188l260 -537h-346l-225 498h-258l-84 -498h-317l237 1409h639z" />
    <glyph glyph-name="racute" unicode="&#x155;" horiz-adv-x="856" 
d="M489 1163l259 336h309l-363 -336h-205zM774 1024q86 0 139 -41l-100 -260q-57 33 -123 33q-109 0 -172 -83t-88 -218l-78 -455h-303l172 999h289l-29 -165h6q92 190 287 190z" />
    <glyph glyph-name="Rcommaaccent" unicode="&#x156;" horiz-adv-x="1464" 
d="M502 -117h270l-33 -190l-151 -230h-123l117 201h-119zM879 1161h-299l-70 -420h297q125 0 200 72t74 188q0 74 -53 117t-149 43zM944 1409q469 0 469 -387q0 -166 -100 -297t-275 -188l260 -537h-346l-225 498h-258l-84 -498h-317l237 1409h639z" />
    <glyph glyph-name="rcommaaccent" unicode="&#x157;" horiz-adv-x="856" 
d="M47 -117h270l-32 -190l-152 -230h-123l117 201h-119zM774 1024q86 0 139 -41l-100 -260q-57 33 -123 33q-109 0 -172 -83t-88 -218l-78 -455h-303l172 999h289l-29 -165h6q92 190 287 190z" />
    <glyph glyph-name="Rcaron" unicode="&#x158;" horiz-adv-x="1464" 
d="M743 1573l-206 336h239l98 -187l166 187h242l-319 -336h-220zM879 1161h-299l-70 -420h297q125 0 200 72t74 188q0 74 -53 117t-149 43zM944 1409q469 0 469 -387q0 -166 -100 -297t-275 -188l260 -537h-346l-225 498h-258l-84 -498h-317l237 1409h639z" />
    <glyph glyph-name="rcaron" unicode="&#x159;" horiz-adv-x="856" 
d="M479 1163l-207 336h240l98 -186l166 186h242l-320 -336h-219zM774 1024q86 0 139 -41l-100 -260q-57 33 -123 33q-109 0 -172 -83t-88 -218l-78 -455h-303l172 999h289l-29 -165h6q92 190 287 190z" />
    <glyph glyph-name="Sacute" unicode="&#x15a;" horiz-adv-x="1388" 
d="M733 1573l258 336h309l-362 -336h-205zM634 205q140 0 219 48t79 140q0 106 -145 151q-65 18 -143 34q-178 36 -297 105q-65 38 -104 113q-40 75 -40 181q0 205 159 331q160 126 442 126t420 -111t107 -297h-303q14 86 -52 132q-67 46 -189 46q-121 0 -195 -45t-74 -131
q0 -107 148 -150q66 -18 144 -34q183 -36 302 -106q66 -38 107 -112t41 -180q0 -221 -168 -346t-476 -125q-308 1 -449 113t-104 313h306q-15 -96 55 -146t210 -50z" />
    <glyph glyph-name="sacute" unicode="&#x15b;" horiz-adv-x="1114" 
d="M543 1163l258 336h309l-362 -336h-205zM690 272q0 48 -41 72t-103 31q-62 8 -134 25t-134 43t-104 87q-41 61 -41 154q0 162 133 251t355 89t338 -78t90 -225h-279q12 63 -35 91t-133 28t-132 -31t-46 -80t58 -73t142 -36t170 -34q85 -22 143 -88t58 -174
q0 -174 -143 -262t-381 -87q-238 0 -359 77t-94 235h285q-12 -72 39 -100q50 -27 146 -27t149 32t53 80z" />
    <glyph glyph-name="Scircumflex" unicode="&#x15c;" horiz-adv-x="1388" 
d="M459 1573l319 336h221l205 -336h-239l-99 186l-166 -186h-241zM634 205q140 0 219 48t79 140q0 106 -145 151q-65 18 -143 34q-178 36 -297 105q-65 38 -104 113q-40 75 -40 181q0 205 159 331q160 126 442 126t420 -111t107 -297h-303q14 86 -52 132q-67 46 -189 46
q-121 0 -195 -45t-74 -131q0 -107 148 -150q66 -18 144 -34q183 -36 302 -106q66 -38 107 -112t41 -180q0 -221 -168 -346t-476 -125q-308 1 -449 113t-104 313h306q-15 -96 55 -146t210 -50z" />
    <glyph glyph-name="scircumflex" unicode="&#x15d;" horiz-adv-x="1114" 
d="M268 1163l320 336h221l205 -336h-240l-98 187l-166 -187h-242zM690 272q0 48 -41 72t-103 31q-62 8 -134 25t-134 43t-104 87q-41 61 -41 154q0 162 133 251t355 89t338 -78t90 -225h-279q12 63 -35 91t-133 28t-132 -31t-46 -80t58 -73t142 -36t170 -34q85 -22 143 -88
t58 -174q0 -174 -143 -262t-381 -87q-238 0 -359 77t-94 235h285q-12 -72 39 -100q50 -27 146 -27t149 32t53 80z" />
    <glyph glyph-name="Scedilla" unicode="&#x15e;" horiz-adv-x="1388" 
d="M634 205q140 0 219 48t79 140q0 106 -145 151q-65 18 -143 34q-178 36 -297 105q-65 38 -104 113q-40 75 -40 181q0 205 159 331q160 126 442 126t420 -111t107 -297h-303q14 86 -52 132q-67 46 -189 46q-121 0 -195 -45t-74 -131q0 -107 148 -150q66 -18 144 -34
q183 -36 302 -106q66 -38 107 -112t41 -180q0 -210 -154 -334t-428 -135l-10 -57q78 -2 120 -43t43 -104q0 -98 -72 -161q-73 -62 -206 -63h-154l25 132h115q106 0 106 81q0 53 -82 54h-74l86 161q-291 8 -419 120t-93 304h306q-15 -96 55 -146t210 -50z" />
    <glyph glyph-name="scedilla" unicode="&#x15f;" horiz-adv-x="1114" 
d="M690 272q0 48 -41 72t-103 31q-62 8 -134 25t-134 43t-104 87q-41 61 -41 154q0 162 133 251t355 89t338 -78t90 -225h-279q12 63 -35 91t-133 28t-132 -31t-46 -80t58 -73t142 -36t170 -34q85 -22 143 -88t58 -174q0 -166 -130 -252t-349 -95l-10 -57q78 -2 121 -43
t43 -104q0 -99 -73 -161t-206 -63h-153l24 132h115q106 0 106 81q0 53 -82 54h-73l88 161q-445 17 -398 310h285q-12 -72 39 -100q50 -27 146 -27t149 32t53 80z" />
    <glyph glyph-name="Scaron" unicode="&#x160;" horiz-adv-x="1388" 
d="M723 1573l-207 336h240l98 -187l166 187h242l-320 -336h-219zM634 205q140 0 219 48t79 140q0 106 -145 151q-65 18 -143 34q-178 36 -297 105q-65 38 -104 113q-40 75 -40 181q0 205 159 331q160 126 442 126t420 -111t107 -297h-303q14 86 -52 132q-67 46 -189 46
q-121 0 -195 -45t-74 -131q0 -107 148 -150q66 -18 144 -34q183 -36 302 -106q66 -38 107 -112t41 -180q0 -221 -168 -346t-476 -125q-308 1 -449 113t-104 313h306q-15 -96 55 -146t210 -50z" />
    <glyph glyph-name="scaron" unicode="&#x161;" horiz-adv-x="1114" 
d="M532 1163l-206 336h239l99 -186l165 186h242l-319 -336h-220zM690 272q0 48 -41 72t-103 31q-62 8 -134 25t-134 43t-104 87q-41 61 -41 154q0 162 133 251t355 89t338 -78t90 -225h-279q12 63 -35 91t-133 28t-132 -31t-46 -80t58 -73t142 -36t170 -34q85 -22 143 -88
t58 -174q0 -174 -143 -262t-381 -87q-238 0 -359 77t-94 235h285q-12 -72 39 -100q50 -27 146 -27t149 32t53 80z" />
    <glyph glyph-name="Tcommaaccent" unicode="&#x162;" horiz-adv-x="1288" 
d="M752 -227q0 -99 -73 -161t-206 -63h-154l25 132h115q106 0 106 81q0 53 -82 54h-73l100 184h-115l197 1145h-473l47 264h1253l-45 -264h-465l-196 -1145h-109l-16 -80q78 -2 121 -43t43 -104z" />
    <glyph glyph-name="tcommaaccent" unicode="&#x163;" horiz-adv-x="770" 
d="M590 -227q0 -99 -73 -161t-206 -63h-153l24 132h115q106 0 106 81q0 53 -81 54h-74l96 192q-139 20 -183 106t-16 255l70 409h-188l41 221h184l53 304h305l-53 -304h242l-43 -221h-236l-67 -391q-12 -80 6 -114t96 -33h115l-41 -240h-191l-12 -80q78 -2 121 -43t43 -104z
" />
    <glyph glyph-name="Tcaron" unicode="&#x164;" horiz-adv-x="1288" 
d="M709 1573l-207 336h239l99 -187l166 187h241l-319 -336h-219zM119 1145l47 264h1253l-45 -264h-465l-196 -1145h-318l197 1145h-473z" />
    <glyph glyph-name="tcaron" unicode="&#x165;" horiz-adv-x="770" 
d="M713 1114l114 215h-114l39 227h274l-33 -200l-155 -242h-125zM465 0q-215 0 -285 86t-35 283l70 409h-188l41 221h184l53 304h305l-53 -304h242l-43 -221h-236l-67 -391q-12 -80 6 -114t96 -33h109l-41 -240h-158z" />
    <glyph glyph-name="Tbar" unicode="&#x166;" horiz-adv-x="1288" 
d="M119 1145l47 264h1253l-45 -264h-463l-77 -451h346l-31 -170h-346l-90 -524h-318l90 524h-350l31 170h350l78 451h-475z" />
    <glyph glyph-name="tbar" unicode="&#x167;" horiz-adv-x="770" 
d="M465 0q-215 0 -283 85t-37 284l11 67h-187l25 152h188l33 190h-188l41 221h184l53 304h305l-53 -304h242l-43 -221h-236l-33 -190h238l-25 -152h-239l-8 -49q-12 -80 6 -114t96 -33h109l-41 -240h-158z" />
    <glyph glyph-name="Utilde" unicode="&#x168;" horiz-adv-x="1527" 
d="M838 1874q68 0 156 -43t122 -43q80 0 101 98h141q-51 -272 -264 -272q-68 0 -154 43t-123 43q-76 0 -100 -98h-139q47 272 260 272zM135 569l148 840h319l-147 -836q-59 -330 245 -329q154 0 249 85t124 244l148 836h317l-147 -840q-55 -319 -241 -456t-482 -137
q-298 0 -442 144q-144 146 -91 449z" />
    <glyph glyph-name="utilde" unicode="&#x169;" horiz-adv-x="1253" 
d="M625 1464q67 0 155 -43t123 -43q80 0 101 99h141q-51 -272 -264 -273q-68 0 -154 43t-123 43q-76 0 -100 -98h-139q47 272 260 272zM430 -25q-168 -1 -264 105t-57 334l96 585h305l-92 -569q-18 -121 16 -173t123 -52q88 -1 155 67t87 189l94 538h305l-172 -999h-291
l23 135h-4q-107 -160 -324 -160z" />
    <glyph glyph-name="Umacron" unicode="&#x16a;" horiz-adv-x="1527" 
d="M627 1642l35 197h632l-34 -197h-633zM135 569l148 840h319l-147 -836q-59 -330 245 -329q154 0 249 85t124 244l148 836h317l-147 -840q-55 -319 -241 -456t-482 -137q-298 0 -442 144q-144 146 -91 449z" />
    <glyph glyph-name="umacron" unicode="&#x16b;" horiz-adv-x="1253" 
d="M414 1233l35 197h632l-34 -197h-633zM430 -25q-168 -1 -264 105t-57 334l96 585h305l-92 -569q-18 -121 16 -173t123 -52q88 -1 155 67t87 189l94 538h305l-172 -999h-291l23 135h-4q-107 -160 -324 -160z" />
    <glyph glyph-name="Ubreve" unicode="&#x16c;" horiz-adv-x="1527" 
d="M944 1581q-137 0 -217 76t-63 244h159q-2 -74 37 -114t109 -40q141 0 190 154h160q-76 -320 -375 -320zM135 569l148 840h319l-147 -836q-59 -330 245 -329q154 0 249 85t124 244l148 836h317l-147 -840q-55 -319 -241 -456t-482 -137q-298 0 -442 144q-144 146 -91 449z
" />
    <glyph glyph-name="ubreve" unicode="&#x16d;" horiz-adv-x="1253" 
d="M731 1171q-137 0 -217 76t-63 244h159q-2 -74 37 -114t109 -40q141 0 190 154h160q-76 -320 -375 -320zM430 -25q-168 -1 -264 105t-57 334l96 585h305l-92 -569q-18 -121 16 -173t123 -52q88 -1 155 67t87 189l94 538h305l-172 -999h-291l23 135h-4q-107 -160 -324 -160
z" />
    <glyph glyph-name="Uring" unicode="&#x16e;" horiz-adv-x="1527" 
d="M866 1740q0 -91 89 -91q42 1 75 33t33 78t-24 69q-23 23 -65 23t-75 -34q-33 -32 -33 -78zM1196 1782q0 -110 -77 -178t-174 -68t-154 51t-58 129q0 112 76 180t173 68q98 0 156 -52t58 -130zM135 569l148 840h319l-147 -836q-59 -330 245 -329q154 0 249 85t124 244
l148 836h317l-147 -840q-55 -319 -241 -456t-482 -137q-298 0 -442 144q-144 146 -91 449z" />
    <glyph glyph-name="uring" unicode="&#x16f;" horiz-adv-x="1253" 
d="M850 1351q0 91 -90 91q-42 0 -74 -33q-33 -33 -33 -79q0 -91 89 -91q42 0 75 33t33 79zM983 1372q0 -110 -77 -178t-174 -68t-154 52t-58 129q0 111 76 179t173 68t155 -52t59 -130zM430 -25q-168 -1 -264 105t-57 334l96 585h305l-92 -569q-18 -121 16 -173t123 -52
q88 -1 155 67t87 189l94 538h305l-172 -999h-291l23 135h-4q-107 -160 -324 -160z" />
    <glyph glyph-name="Uhungarumlaut" unicode="&#x170;" horiz-adv-x="1527" 
d="M618 1573l261 336h309l-365 -336h-205zM1044 1573l261 336h307l-363 -336h-205zM135 569l148 840h319l-147 -836q-59 -330 245 -329q154 0 249 85t124 244l148 836h317l-147 -840q-55 -319 -241 -456t-482 -137q-298 0 -442 144q-144 146 -91 449z" />
    <glyph glyph-name="uhungarumlaut" unicode="&#x171;" horiz-adv-x="1253" 
d="M406 1163l260 336h309l-365 -336h-204zM831 1163l261 336h307l-363 -336h-205zM430 -25q-168 -1 -264 105t-57 334l96 585h305l-92 -569q-18 -121 16 -173t123 -52q88 -1 155 67t87 189l94 538h305l-172 -999h-291l23 135h-4q-107 -160 -324 -160z" />
    <glyph glyph-name="Uogonek" unicode="&#x172;" horiz-adv-x="1527" 
d="M717 -219q0 -70 86 -70h63l-30 -162h-82q-240 0 -240 162t205 266q-18 -2 -57 -2q-292 -1 -436 145t-91 449l148 840h319l-147 -836q-59 -330 245 -329q154 0 249 85t124 244l148 836h317l-147 -840q-70 -395 -372 -532t-302 -256z" />
    <glyph glyph-name="uogonek" unicode="&#x173;" horiz-adv-x="1253" 
d="M662 -293q0 81 54 145t165 148h-146l23 135h-4q-106 -160 -324 -160q-168 -1 -264 105t-57 334l96 585h305l-92 -569q-18 -121 16 -173t123 -52q88 -1 155 67t87 189l94 538h305l-172 -999h-2q-164 -145 -164 -225q0 -63 88 -64h62l-29 -162h-82q-125 0 -181 38t-56 120z
" />
    <glyph glyph-name="Wcircumflex" unicode="&#x174;" horiz-adv-x="2045" 
d="M807 1573l319 336h222l204 -336h-239l-99 186l-165 -186h-242zM258 0l-78 1409h322l41 -1065h8l463 1065h299l98 -1065h8l412 1065h328l-576 -1409h-399l-94 993h-9l-430 -993h-393z" />
    <glyph glyph-name="wcircumflex" unicode="&#x175;" horiz-adv-x="1640" 
d="M539 1163l319 336h221l205 -336h-240l-98 187l-166 -187h-241zM188 0l-98 999h299l51 -704h9l307 704h278l72 -704h8l297 704h303l-461 -999h-344l-65 676h-8l-295 -676h-353z" />
    <glyph glyph-name="Ycircumflex" unicode="&#x176;" horiz-adv-x="1421" 
d="M514 1573l320 336h221l205 -336h-240l-98 186l-166 -186h-242zM455 0l94 545l-354 864h331l232 -580h8l451 580h327l-676 -860l-96 -549h-317z" />
    <glyph glyph-name="ycircumflex" unicode="&#x177;" horiz-adv-x="1124" 
d="M291 1163l319 336h221l205 -336h-239l-99 187l-166 -187h-241zM129 -467h-147l43 236h59q90 0 153 40q62 40 107 136l27 55h-95l-180 999h318l104 -706h8l346 706h314l-568 -1103q-86 -170 -202 -267q-117 -96 -287 -96z" />
    <glyph glyph-name="Ydieresis" unicode="&#x178;" horiz-adv-x="1421" 
d="M528 1624l45 262h271l-45 -262h-271zM995 1624l43 262h271l-43 -262h-271zM455 0l94 545l-354 864h331l232 -580h8l451 580h327l-676 -860l-96 -549h-317z" />
    <glyph glyph-name="Zacute" unicode="&#x179;" horiz-adv-x="1280" 
d="M717 1573l258 336h309l-362 -336h-205zM195 1151l45 258h1118l-29 -180l-883 -971h715l-43 -258h-1141l29 180l883 971h-694z" />
    <glyph glyph-name="zacute" unicode="&#x17a;" horiz-adv-x="1015" 
d="M504 1163l258 336h309l-362 -336h-205zM111 772l43 227h870l-29 -180l-581 -592h489l-37 -227h-882l6 29l16 135l594 608h-489z" />
    <glyph glyph-name="Zdotaccent" unicode="&#x17b;" horiz-adv-x="1280" 
d="M690 1624l47 262h271l-47 -262h-271zM195 1151l45 258h1118l-29 -180l-883 -971h715l-43 -258h-1141l29 180l883 971h-694z" />
    <glyph glyph-name="zdotaccent" unicode="&#x17c;" horiz-adv-x="1015" 
d="M477 1214l47 263h271l-47 -263h-271zM111 772l43 227h870l-29 -180l-581 -592h489l-37 -227h-882l6 29l16 135l594 608h-489z" />
    <glyph glyph-name="Zcaron" unicode="&#x17d;" horiz-adv-x="1280" 
d="M707 1573l-207 336h239l99 -187l166 187h241l-319 -336h-219zM195 1151l45 258h1118l-29 -180l-883 -971h715l-43 -258h-1141l29 180l883 971h-694z" />
    <glyph glyph-name="zcaron" unicode="&#x17e;" horiz-adv-x="1015" 
d="M494 1163l-207 336h239l99 -186l166 186h241l-319 -336h-219zM111 772l43 227h870l-29 -180l-581 -592h489l-37 -227h-882l6 29l16 135l594 608h-489z" />
    <glyph glyph-name="longs" unicode="&#x17f;" horiz-adv-x="733" 
d="M741 1499h174l-38 -229h-121q-72 0 -111 -36t-55 -124l-191 -1110h-305l135 778h-188l41 221h184l21 113q35 205 140 296t314 91z" />
    <glyph glyph-name="florin" unicode="&#x192;" 
d="M897 1219q-88 0 -117 -172l-55 -312h281l-23 -182h-291l-100 -559q-35 -205 -140 -296q-104 -91 -280 -91t-261 93t-58 280l8 55h256l-8 -55q-14 -84 1 -121t62 -37q88 0 117 172l98 559h-244l25 182h252l55 312q37 207 142 297t281 90t260 -94q85 -94 56 -279l-8 -55
h-254l9 55q11 86 -3 122t-61 36z" />
    <glyph glyph-name="AEacute" unicode="&#x1fc;" horiz-adv-x="2340" 
d="M1397 1573l258 336h309l-362 -336h-205zM1249 1108l-481 -555h397l95 555h-11zM-82 0l1247 1409h1202l-40 -260h-744l-51 -307h602l-41 -244h-602l-57 -338h759l-41 -260h-1079l51 309h-567l-266 -309h-373z" />
    <glyph glyph-name="aeacute" unicode="&#x1fd;" horiz-adv-x="1847" 
d="M911 1163l258 336h310l-363 -336h-205zM1301 817q-183 0 -250 -199h434v3q-1 196 -184 196zM483 180q94 0 163 53t87 164l12 74q-27 -29 -94 -39l-147 -18q-150 -18 -150 -129q0 -105 129 -105zM664 1024q221 0 317 -98q133 98 338 98q246 0 374 -152t72 -432h-743v-37
q0 -104 53 -159t150 -56q145 0 209 115h292q-53 -145 -193 -236t-347 -92q-285 0 -381 195q-133 -195 -424 -195q-156 0 -242 72t-86 205q0 264 387 313l197 25q73 10 105 25t42 69t-28 94t-115 41q-162 0 -199 -147h-284q80 352 506 352z" />
    <glyph glyph-name="Oslashacute" unicode="&#x1fe;" horiz-adv-x="1646" 
d="M872 1573l258 336h310l-363 -336h-205zM438 604q0 -98 35 -180l674 670q-90 74 -219 73q-202 -1 -346 -163t-144 -400zM1268 805q0 100 -37 180l-674 -672q88 -72 221 -71q202 0 346 164t144 399zM106 586q0 360 240 604t610 244q242 0 408 -121l123 121h194l-217 -215
q133 -162 133 -396q1 -358 -241 -603t-615 -245q-242 0 -405 119l-119 -119h-194l215 213q-132 160 -132 398z" />
    <glyph glyph-name="oslashacute" unicode="&#x1ff;" horiz-adv-x="1249" 
d="M631 1163l258 336h309l-362 -336h-205zM856 570q0 34 -4 71l-408 -405q47 -37 121 -37q109 0 184 80t99 219q8 38 8 72zM377 417q0 -46 8 -77l414 412q-53 49 -146 49t-169 -80t-99 -219q-8 -39 -8 -85zM66 416q0 297 203 468q167 140 407 140q188 0 313 -84l84 84h164
l-162 -160q92 -111 92 -280q0 -51 -8 -92q-29 -236 -195 -376t-409 -141q-178 0 -299 74l-74 -74h-164l148 148q-100 111 -100 293z" />
    <glyph glyph-name="Scommaaccent" unicode="&#x218;" horiz-adv-x="1388" 
d="M481 -117h271l-33 -190l-152 -230h-123l117 201h-119zM634 205q140 0 219 48t79 140q0 106 -145 151q-65 18 -143 34q-178 36 -297 105q-65 38 -104 113q-40 75 -40 181q0 205 159 331q160 126 442 126t420 -111t107 -297h-303q14 86 -52 132q-67 46 -189 46
q-121 0 -195 -45t-74 -131q0 -107 148 -150q66 -18 144 -34q183 -36 302 -106q66 -38 107 -112t41 -180q0 -221 -168 -346t-476 -125q-308 1 -449 113t-104 313h306q-15 -96 55 -146t210 -50z" />
    <glyph glyph-name="scommaaccent" unicode="&#x219;" horiz-adv-x="1114" 
d="M319 -117h271l-33 -190l-151 -230h-123l116 201h-118zM690 272q0 48 -41 72t-103 31q-62 8 -134 25t-134 43t-104 87q-41 61 -41 154q0 162 133 251t355 89t338 -78t90 -225h-279q12 63 -35 91t-133 28t-132 -31t-46 -80t58 -73t142 -36t170 -34q85 -22 143 -88t58 -174
q0 -174 -143 -262t-381 -87q-238 0 -359 77t-94 235h285q-12 -72 39 -100q50 -27 146 -27t149 32t53 80z" />
    <glyph glyph-name="uni021A" unicode="&#x21a;" horiz-adv-x="1288" 
d="M401 -117h271l-33 -190l-152 -230h-122l116 201h-119zM119 1145l47 264h1253l-45 -264h-465l-196 -1145h-318l197 1145h-473z" />
    <glyph glyph-name="uni021B" unicode="&#x21b;" horiz-adv-x="770" 
d="M231 -117h271l-33 -190l-152 -230h-122l116 201h-118zM465 0q-215 0 -285 86t-35 283l70 409h-188l41 221h184l53 304h305l-53 -304h242l-43 -221h-236l-67 -391q-12 -80 6 -114t96 -33h115l-41 -240h-164z" />
    <glyph glyph-name="circumflex" unicode="&#x2c6;" horiz-adv-x="1249" 
d="M358 1163l320 336h221l205 -336h-240l-98 187l-166 -187h-242z" />
    <glyph glyph-name="caron" unicode="&#x2c7;" horiz-adv-x="1249" 
d="M623 1163l-207 336h239l99 -186l166 186h241l-319 -336h-219z" />
    <glyph glyph-name="uni02C9" unicode="&#x2c9;" horiz-adv-x="1249" 
d="M422 1233l35 197h633l-35 -197h-633z" />
    <glyph glyph-name="breve" unicode="&#x2d8;" horiz-adv-x="1249" 
d="M739 1171q-137 0 -217 76t-63 244h159q-2 -74 37 -114t109 -40q141 0 190 154h160q-76 -320 -375 -320z" />
    <glyph glyph-name="dotaccent" unicode="&#x2d9;" horiz-adv-x="1249" 
d="M606 1214l47 263h271l-47 -263h-271z" />
    <glyph glyph-name="ring" unicode="&#x2da;" horiz-adv-x="1249" 
d="M858 1351q0 91 -89 91q-42 0 -75 -33q-32 -33 -32 -79t23 -68t65 -23q42 0 75 33t33 79zM991 1372q0 -110 -77 -178t-174 -68t-154 52t-58 129q0 111 76 179t173 68t155 -52t59 -130z" />
    <glyph glyph-name="ogonek" unicode="&#x2db;" horiz-adv-x="1249" 
d="M324 -293q0 81 54 145t165 148h143q-164 -145 -164 -225q0 -63 88 -64h62l-29 -162h-82q-125 0 -181 38t-56 120z" />
    <glyph glyph-name="tilde" unicode="&#x2dc;" horiz-adv-x="1249" 
d="M633 1464q67 0 155 -43t123 -43q80 0 101 99h141q-51 -272 -264 -273q-68 0 -154 43t-123 43q-76 0 -100 -98h-139q47 272 260 272z" />
    <glyph glyph-name="hungarumlaut" unicode="&#x2dd;" horiz-adv-x="1249" 
d="M414 1163l260 336h309l-365 -336h-204zM840 1163l260 336h307l-363 -336h-204z" />
    <glyph glyph-name="uni0394" unicode="&#x394;" horiz-adv-x="1370" 
d="M770 1042l-418 -802h570zM-84 0l758 1409h317l277 -1409h-1352z" />
    <glyph glyph-name="uni03A9" unicode="&#x3a9;" horiz-adv-x="1425" 
d="M1116 908q0 148 -81 222t-214 74q-169 0 -287 -119t-118 -309q0 -112 54 -184t138 -96l-86 -496h-512l35 217h272l27 152q-115 59 -177 162t-63 237q0 282 208 474t540 192q262 0 419 -134t157 -340t-112 -362t-294 -231l-25 -150h275l-37 -217h-512l84 496
q121 32 215 148t94 264z" />
    <glyph glyph-name="uni03BC" unicode="&#x3bc;" horiz-adv-x="1247" 
d="M444 -25q-68 0 -129 29q-10 -201 -32 -340l-21 -115h-305l252 1450h305l-92 -569q-18 -121 16 -173t123 -52q88 -1 157 71t89 195l90 528h305l-172 -999h-291l25 135h-4q-102 -160 -316 -160z" />
    <glyph glyph-name="pi" unicode="&#x3c0;" horiz-adv-x="1271" 
d="M53 0l172 999h985l-172 -999h-305l131 770h-375l-131 -770h-305z" />
    <glyph glyph-name="Wgrave" unicode="&#x1e80;" horiz-adv-x="2045" 
d="M1090 1573l-250 336h293l145 -336h-188zM258 0l-78 1409h322l41 -1065h8l463 1065h299l98 -1065h8l412 1065h328l-576 -1409h-399l-94 993h-9l-430 -993h-393z" />
    <glyph glyph-name="wgrave" unicode="&#x1e81;" horiz-adv-x="1640" 
d="M821 1163l-250 336h293l146 -336h-189zM188 0l-98 999h299l51 -704h9l307 704h278l72 -704h8l297 704h303l-461 -999h-344l-65 676h-8l-295 -676h-353z" />
    <glyph glyph-name="Wacute" unicode="&#x1e82;" horiz-adv-x="2045" 
d="M1081 1573l258 336h310l-363 -336h-205zM258 0l-78 1409h322l41 -1065h8l463 1065h299l98 -1065h8l412 1065h328l-576 -1409h-399l-94 993h-9l-430 -993h-393z" />
    <glyph glyph-name="wacute" unicode="&#x1e83;" horiz-adv-x="1640" 
d="M813 1163l258 336h309l-362 -336h-205zM188 0l-98 999h299l51 -704h9l307 704h278l72 -704h8l297 704h303l-461 -999h-344l-65 676h-8l-295 -676h-353z" />
    <glyph glyph-name="Wdieresis" unicode="&#x1e84;" horiz-adv-x="2045" 
d="M821 1624l45 262h271l-45 -262h-271zM1288 1624l43 262h271l-43 -262h-271zM258 0l-78 1409h322l41 -1065h8l463 1065h299l98 -1065h8l412 1065h328l-576 -1409h-399l-94 993h-9l-430 -993h-393z" />
    <glyph glyph-name="wdieresis" unicode="&#x1e85;" horiz-adv-x="1640" 
d="M553 1214l45 263h270l-45 -263h-270zM1020 1214l43 263h270l-43 -263h-270zM188 0l-98 999h299l51 -704h9l307 704h278l72 -704h8l297 704h303l-461 -999h-344l-65 676h-8l-295 -676h-353z" />
    <glyph glyph-name="Ygrave" unicode="&#x1ef2;" horiz-adv-x="1421" 
d="M797 1573l-250 336h293l145 -336h-188zM455 0l94 545l-354 864h331l232 -580h8l451 580h327l-676 -860l-96 -549h-317z" />
    <glyph glyph-name="ygrave" unicode="&#x1ef3;" horiz-adv-x="1124" 
d="M573 1163l-249 336h292l146 -336h-189zM129 -467h-147l43 236h59q90 0 153 40q62 40 107 136l27 55h-95l-180 999h318l104 -706h8l346 706h314l-568 -1103q-86 -170 -202 -267q-117 -96 -287 -96z" />
    <glyph glyph-name="endash" unicode="&#x2013;" horiz-adv-x="1138" 
d="M72 389l43 254h938l-41 -254h-940z" />
    <glyph glyph-name="emdash" unicode="&#x2014;" horiz-adv-x="1720" 
d="M72 389l43 254h1519l-41 -254h-1521z" />
    <glyph glyph-name="quoteleft" unicode="&#x2018;" horiz-adv-x="552" 
d="M178 803l45 266l156 340h139l-131 -324h129l-45 -282h-293z" />
    <glyph glyph-name="quoteright" unicode="&#x2019;" horiz-adv-x="552" 
d="M231 803l131 323h-129l46 283h290l-43 -266l-155 -340h-140z" />
    <glyph glyph-name="quotesinglbase" unicode="&#x201a;" horiz-adv-x="552" 
d="M41 0l43 283h293l-45 -267l-156 -340h-137l131 324h-129z" />
    <glyph glyph-name="quotedblleft" unicode="&#x201c;" horiz-adv-x="1001" 
d="M178 803l45 266l156 340h139l-131 -324h129l-45 -282h-293zM627 803l45 266l155 340h138l-131 -324h129l-43 -282h-293z" />
    <glyph glyph-name="quotedblright" unicode="&#x201d;" horiz-adv-x="1001" 
d="M231 803l131 323h-129l46 283h290l-43 -266l-155 -340h-140zM680 803l131 323h-129l43 283h293l-45 -266l-156 -340h-137z" />
    <glyph glyph-name="quotedblbase" unicode="&#x201e;" horiz-adv-x="1001" 
d="M41 0l43 283h293l-45 -267l-156 -340h-137l131 324h-129zM487 0l45 283h293l-45 -267l-155 -340h-140l131 324h-129z" />
    <glyph glyph-name="dagger" unicode="&#x2020;" horiz-adv-x="991" 
d="M143 856l37 209h277l59 344h254l-59 -344h280l-35 -209h-280l-144 -856h-253l143 856h-279z" />
    <glyph glyph-name="daggerdbl" unicode="&#x2021;" horiz-adv-x="991" 
d="M150 889l36 211h277l53 309h254l-53 -309h280l-36 -211h-279l-64 -377h281l-37 -211h-278l-52 -301h-253l51 301h-279l37 211h277l63 377h-278z" />
    <glyph glyph-name="bullet" unicode="&#x2022;" horiz-adv-x="999" 
d="M492 164q-150 0 -251 101t-102 251t101 251t252 101t250 -101t102 -251q0 -150 -101 -251t-251 -101z" />
    <glyph glyph-name="ellipsis" unicode="&#x2026;" horiz-adv-x="1781" 
d="M43 0l51 311h332l-51 -311h-332zM635 0l53 311h330l-51 -311h-332zM1227 0l53 311h330l-51 -311h-332z" />
    <glyph glyph-name="perthousand" unicode="&#x2030;" horiz-adv-x="2463" 
d="M2011 158q55 0 96 48q68 80 68 210q0 131 -92 131q-57 0 -98 -48q-66 -77 -66 -209t92 -132zM1998 -16q-152 0 -228 77q-75 78 -74 209q0 222 140 353q104 98 258 98t229 -78t75 -209q0 -33 -8 -94q-29 -160 -134 -258q-106 -98 -258 -98zM1245 158q55 0 96 48
q68 80 68 210q0 131 -92 131q-57 0 -98 -48q-66 -77 -66 -209t92 -132zM1232 -16q-152 0 -227 78t-75 208q0 222 140 353q104 98 258 98t230 -78t74 -209q0 -33 -8 -94q-29 -160 -134 -258q-106 -98 -258 -98zM305 -25q285 424 965 1459h180l-965 -1459h-180zM428 862
q57 0 98 48q66 77 66 209t-92 132q-54 0 -96 -49q-66 -77 -66 -209q0 -131 90 -131zM418 688q-152 0 -230 78q-76 78 -75 209q0 43 10 94q27 160 132 258t257 98q152 1 228 -77q75 -78 75 -209q0 -222 -140 -353q-105 -98 -257 -98z" />
    <glyph glyph-name="guilsinglleft" unicode="&#x2039;" horiz-adv-x="735" 
d="M315 98l-229 418l369 418h256l-310 -434l164 -402h-250z" />
    <glyph glyph-name="guilsinglright" unicode="&#x203a;" horiz-adv-x="735" 
d="M16 98l308 434l-164 402h250l229 -418l-369 -418h-254z" />
    <glyph glyph-name="fraction" unicode="&#x2044;" horiz-adv-x="163" 
d="M-461 -25l965 1459h178l-965 -1459h-178z" />
    <glyph glyph-name="uni2070" unicode="&#x2070;" horiz-adv-x="765" 
d="M485 1174q57 0 99 48q65 76 65 220q0 121 -92 121q-55 1 -96 -49q-66 -80 -66 -210t90 -130zM474 999q-152 0 -228 78t-76 209q0 43 10 94q27 160 132 258t258 98t228 -77q75 -78 74 -209q0 -220 -140 -352q-106 -98 -258 -99z" />
    <glyph glyph-name="uni2074" unicode="&#x2074;" horiz-adv-x="765" 
d="M373 1292h145l31 185zM139 1130l21 121l465 475h198l-73 -434h94l-31 -162h-90l-18 -114h-230l19 114h-355z" />
    <glyph glyph-name="uni2075" unicode="&#x2075;" horiz-adv-x="765" 
d="M588 1249q0 82 -78 82q-61 0 -94 -59l-201 24l100 424h535l-21 -166h-358l-37 -135h10q46 43 144 43t162 -47t63 -143q0 -131 -93 -202t-241 -71q-76 -1 -136 15q-59 16 -107 64t-50 126h217q-2 -33 21 -53t57 -21q72 0 99 68q8 23 8 51z" />
    <glyph glyph-name="uni2076" unicode="&#x2076;" horiz-adv-x="765" 
d="M524 1331q-46 0 -76 -32t-30 -79q0 -90 78 -90q46 0 76 35t30 84q0 82 -78 82zM193 1264q0 61 10 122q33 182 136 266t233 85q130 0 206 -48t74 -163h-211q0 68 -68 67q-49 0 -83 -38t-52 -148q52 55 156 55t169 -46t64 -138q0 -137 -99 -208q-100 -71 -240 -71t-218 66
q-77 66 -77 199z" />
    <glyph glyph-name="uni2077" unicode="&#x2077;" horiz-adv-x="765" 
d="M231 1016l385 520h-385l31 184h647l-22 -133l-420 -571h-236z" />
    <glyph glyph-name="uni2078" unicode="&#x2078;" horiz-adv-x="765" 
d="M539 1440q49 0 75 26t27 68q0 66 -80 65q-49 -1 -76 -27t-26 -69q0 -63 80 -63zM600 1237q0 72 -92 74q-47 0 -80 -27t-33 -68q0 -79 92 -79q47 1 80 27t33 73zM166 1174q0 82 48 132t122 64v8q-43 10 -70 45t-26 86q0 107 95 167t237 60t216 -48q74 -50 74 -128
t-45 -122t-108 -60v-8q51 -10 83 -50t31 -95q0 -113 -94 -169q-93 -56 -249 -56t-235 46t-79 128z" />
    <glyph glyph-name="uni2079" unicode="&#x2079;" horiz-adv-x="765" 
d="M621 1515q-1 91 -85 91q-40 0 -71 -35t-31 -84q0 -82 84 -82q41 0 72 32t31 78zM186 1210h209q0 -68 68 -67q49 0 83 38t52 148q-50 -55 -154 -55t-169 46t-64 138q0 137 98 208q97 71 239 71t220 -66t78 -198q0 -61 -10 -123q-34 -182 -138 -266t-252 -85q-99 0 -179 43
q-81 44 -81 168z" />
    <glyph glyph-name="parenleft.superior" unicode="&#x207d;" horiz-adv-x="512" 
d="M248 1213q0 202 78 377t176 278h215q-90 -98 -172 -278t-82 -376t82 -346h-209q-88 143 -88 345z" />
    <glyph glyph-name="parenright.superior" unicode="&#x207e;" horiz-adv-x="512" 
d="M328 1522q0 196 -82 346h209q88 -137 88 -342q0 -204 -78 -380t-176 -278h-215q90 98 172 278t82 376z" />
    <glyph glyph-name="n.superior" unicode="&#x207f;" horiz-adv-x="888" 
d="M733 1737q121 0 187 -77t34 -255l-65 -389h-232l66 389q27 156 -92 156q-59 0 -105 -42t-59 -133l-64 -370h-231l123 704h221l-16 -92h6q74 109 227 109z" />
    <glyph glyph-name="uni2080" unicode="&#x2080;" horiz-adv-x="765" 
d="M281 -154q57 0 98 48q65 77 65 210q0 132 -92 132q-55 0 -96 -50q-63 -76 -66 -219q1 -121 91 -121zM270 -328q-152 0 -229 78q-76 78 -76 209q0 43 10 94q27 160 133 258q106 99 258 99t227 -78t75 -209q0 -53 -9 -94q-27 -161 -132 -259t-257 -98z" />
    <glyph glyph-name="uni2081" unicode="&#x2081;" horiz-adv-x="765" 
d="M104 51l-67 160l346 182h137l-88 -534h191l-29 -170h-617l29 170h193l43 262z" />
    <glyph glyph-name="uni2082" unicode="&#x2082;" horiz-adv-x="765" 
d="M346 252q-96 0 -110 -102h-220q23 132 119 196q95 64 231 64t218 -54t82 -147t-60 -147t-190 -107l-29 -12q-142 -57 -154 -84h371l-26 -170h-648q27 157 108 239t210 133l31 15q96 40 130 62t33 57q0 57 -96 57z" />
    <glyph glyph-name="uni2083" unicode="&#x2083;" horiz-adv-x="765" 
d="M283 -190q49 0 81 26t31 74q0 74 -96 74h-35l21 129h34q117 0 117 94q0 66 -84 65q-46 0 -70 -26t-28 -64h-205q10 113 97 170q88 58 224 58t212 -50t76 -127t-46 -121q-45 -44 -108 -61v-8q51 -10 83 -50t31 -95q0 -109 -93 -167q-93 -59 -241 -59t-230 56t-72 174h208
q-6 -92 93 -92z" />
    <glyph glyph-name="uni2084" unicode="&#x2084;" horiz-adv-x="765" 
d="M168 -35h145l31 185zM-66 -197l21 121l465 475h198l-73 -434h94l-31 -162h-90l-18 -114h-230l19 114h-355z" />
    <glyph glyph-name="uni2085" unicode="&#x2085;" horiz-adv-x="765" 
d="M383 -78q0 82 -78 82q-61 0 -94 -59l-201 24l101 424h534l-20 -166h-359l-37 -135h11q47 43 144 43q96 0 160 -47t64 -143q0 -131 -93 -202t-241 -71q-76 0 -136 16t-107 63q-47 48 -49 126h217q-1 -33 21 -53t56 -21q72 0 99 68q8 23 8 51z" />
    <glyph glyph-name="uni2086" unicode="&#x2086;" horiz-adv-x="765" 
d="M319 4q-45 0 -75 -32t-31 -79q0 -90 78 -90q45 0 76 35t30 84q0 82 -78 82zM-12 -63q0 61 10 122q33 183 136 267q102 84 232 84q284 0 281 -211h-211q0 68 -67 67q-49 0 -83 -38t-53 -148q51 55 155 55t170 -46q65 -46 65 -138q1 -137 -99 -208t-240 -71t-218 66
t-78 199z" />
    <glyph glyph-name="uni2087" unicode="&#x2087;" horiz-adv-x="765" 
d="M27 -311l385 520h-385l30 184h648l-23 -133l-420 -571h-235z" />
    <glyph glyph-name="uni2088" unicode="&#x2088;" horiz-adv-x="765" 
d="M334 113q49 -1 76 25t26 69q0 66 -80 65q-50 0 -76 -26t-26 -70q0 -63 80 -63zM395 -90q0 72 -92 74q-47 0 -80 -27t-33 -68q0 -79 93 -79q47 0 79 26t33 74zM-39 -154q0 82 48 132t122 65v8q-43 10 -70 45t-26 86q0 106 95 166q94 60 236 62q142 0 217 -50t75 -127
t-46 -121q-45 -44 -108 -61v-8q51 -10 83 -50t31 -95q0 -113 -94 -169q-94 -57 -250 -57t-234 46q-79 46 -79 128z" />
    <glyph glyph-name="uni2089" unicode="&#x2089;" horiz-adv-x="765" 
d="M416 188q0 91 -84 91q-40 0 -72 -35q-31 -35 -31 -84q0 -82 84 -82q41 0 72 32t31 78zM-18 -117h208q0 -68 68 -67q49 0 83 38t52 148q-51 -55 -155 -55t-168 46t-64 138q0 137 98 208t240 71t219 -66q78 -66 78 -199q0 -61 -10 -122q-33 -183 -137 -267t-252 -84
q-260 0 -260 211z" />
    <glyph glyph-name="parenleft.inferior" unicode="&#x208d;" horiz-adv-x="512" 
d="M43 -114q0 202 78 377t176 278h215q-90 -97 -172 -277t-82 -376t82 -347h-209q-88 143 -88 345z" />
    <glyph glyph-name="parenright.inferior" unicode="&#x208e;" horiz-adv-x="512" 
d="M123 194q0 196 -82 347h209q88 -137 88 -342t-78 -381t-176 -277h-215q90 97 172 277t82 376z" />
    <glyph glyph-name="Euro" unicode="&#x20ac;" 
d="M819 1434q201 0 299 -117t103 -297h-285q-12 174 -152 174q-172 0 -260 -274h330l-45 -148h-324q-20 -113 -22 -133h313l-43 -147h-282v-35q0 -242 165 -242q135 0 201 162h285q-60 -189 -194 -295t-345 -106t-315 136t-105 371v9h-155l45 147h121l24 133h-129l43 148
h127q164 514 600 514z" />
    <glyph glyph-name="afii61289" unicode="&#x2113;" horiz-adv-x="843" 
d="M598 1171q0 186 -113 187q-139 0 -139 -367v-289l4 -2q248 211 248 471zM186 338v151l-4 3l-121 -84l-24 49q78 63 149 125v278q0 209 37 322q37 114 113 182t173 68t153 -71t55 -179q0 -203 -138 -361q-67 -76 -114 -120t-119 -99v-223q0 -283 186 -283q129 0 242 164
l45 -33q-49 -119 -139 -185t-216 -67q-126 0 -202 81t-76 282z" />
    <glyph glyph-name="afii61352" unicode="&#x2116;" horiz-adv-x="2510" 
d="M1970 996q0 -58 33 -95t95 -37t111 43q78 70 80 206q1 136 -126 136q-63 0 -112 -43q-81 -72 -81 -210zM1628 354l29 166h766l-29 -166h-766zM1567 0l28 166h766l-26 -166h-768zM1731 989q0 228 164 347q122 89 286 89q164 -1 256 -81t92 -220q0 -229 -164 -348
q-121 -88 -285 -88t-257 81q-92 81 -92 220zM68 0l237 1409h283l516 -881h8l145 881h320l-238 -1409h-282l-522 881h-9l-141 -881h-317z" />
    <glyph glyph-name="trademark" unicode="&#x2122;" horiz-adv-x="1720" 
d="M127 1229l31 180h665l-30 -180h-228l-90 -524h-209l90 524h-229zM782 705l121 704h295l76 -428h8l221 428h295l-121 -704h-209l88 462h-8l-239 -462h-156l-80 462h-8l-72 -462h-211z" />
    <glyph glyph-name="Omega" unicode="&#x2126;" horiz-adv-x="1425" 
d="M1116 908q0 148 -81 222t-214 74q-169 0 -287 -119t-118 -309q0 -112 54 -184t138 -96l-86 -496h-512l35 217h272l27 152q-115 59 -177 162t-63 237q0 282 208 474t540 192q262 0 419 -134t157 -340t-112 -362t-294 -231l-25 -150h275l-37 -217h-512l84 496
q121 32 215 148t94 264z" />
    <glyph glyph-name="estimated" unicode="&#x212e;" horiz-adv-x="1740" 
d="M371 727h1007q8 0 8 12v396q0 29 -20 49q-201 205 -492 205t-495 -211q-23 -23 -23 -54v-385q1 -12 15 -12zM874 20q156 0 291 64t232 176h119q-113 -131 -282 -208t-362 -77q-338 0 -576 213q-238 212 -237 516q0 304 239 517q238 213 574 213t574 -213t237 -516v-21
h-1312q-14 0 -15 -8v-397q1 -23 21 -48q201 -211 497 -211z" />
    <glyph glyph-name="uni2153" unicode="&#x2153;" horiz-adv-x="1695" 
d="M350 -25q680 1034 965 1459h178l-965 -1459h-178zM252 1067l-68 160l346 182h138l-88 -535h190l-29 -169h-616l29 169h192l43 263zM1245 121q49 -1 81 25t32 75q0 74 -96 74h-35l22 129h35q115 0 115 94q0 66 -85 66t-97 -90h-205q10 113 97 170t223 57t212 -49t76 -127
t-45 -122t-109 -61v-8q53 -10 84 -49t31 -96q0 -109 -93 -167q-92 -58 -240 -58t-231 56t-73 173h209q-6 -92 92 -92z" />
    <glyph glyph-name="uni2154" unicode="&#x2154;" horiz-adv-x="1695" 
d="M342 -25q680 1034 965 1459h178l-965 -1459h-178zM1245 121q49 -1 81 25t32 75q0 74 -96 74h-35l22 129h35q115 0 115 94q0 66 -85 66t-97 -90h-205q10 113 97 170t223 57t212 -49t76 -127t-45 -122t-109 -61v-8q53 -10 84 -49t31 -96q0 -109 -93 -167q-92 -58 -240 -58
t-231 56t-73 173h209q-6 -92 92 -92zM590 1210q0 58 -96 58t-111 -103h-219q23 131 119 196t231 65t217 -55q82 -54 82 -146q0 -93 -60 -147t-190 -107l-28 -13q-137 -59 -145 -69t-9 -15h371l-27 -169h-647q28 157 108 239t209 133l31 15q96 40 130 62t34 56z" />
    <glyph glyph-name="uni2155" unicode="&#x2155;" horiz-adv-x="1695" 
d="M336 -25q680 1034 964 1459h179l-965 -1459h-178zM252 1067l-68 160l346 182h138l-88 -535h190l-29 -169h-616l29 169h192l43 263zM1241 115q70 0 97 70t-12 109q-22 22 -58 21q-61 0 -94 -59l-201 25l102 424h535l-23 -166h-356l-37 -136h8q50 43 146 43t159 -47
t64 -143q0 -131 -93 -202q-94 -70 -228 -70t-218 46t-86 158h215q-2 -33 22 -53t58 -20z" />
    <glyph glyph-name="uni2156" unicode="&#x2156;" horiz-adv-x="1695" 
d="M328 -25q680 1034 964 1459h178l-964 -1459h-178zM1241 115q70 0 97 70t-12 109q-22 22 -58 21q-61 0 -94 -59l-201 25l102 424h535l-23 -166h-356l-37 -136h8q50 43 146 43t159 -47t64 -143q0 -131 -93 -202q-94 -70 -228 -70t-218 46t-86 158h215q-2 -33 22 -53t58 -20
zM590 1210q0 58 -96 58t-111 -103h-219q23 131 119 196t231 65t217 -55q82 -54 82 -146q0 -93 -60 -147t-190 -107l-28 -13q-137 -59 -145 -69t-9 -15h371l-27 -169h-647q28 157 108 239t209 133l31 15q96 40 130 62t34 56z" />
    <glyph glyph-name="uni2157" unicode="&#x2157;" horiz-adv-x="1695" 
d="M305 -25q285 424 965 1459h180l-965 -1459h-180zM543 926q0 74 -97 73h-34l20 129h35q117 0 117 95q0 66 -84 65q-45 0 -70 -26t-29 -64h-204q10 113 97 170t223 57t212 -49t76 -127t-45 -122t-109 -60v-8q51 -10 83 -50t32 -96q0 -109 -93 -167t-241 -58t-230 56
q-83 56 -73 174h209q-6 -92 92 -93q49 0 81 26t32 75zM1241 115q70 0 97 70t-12 109q-22 22 -58 21q-61 0 -94 -59l-201 25l102 424h535l-23 -166h-356l-37 -136h8q50 43 146 43t159 -47t64 -143q0 -131 -93 -202q-94 -70 -228 -70t-218 46t-86 158h215q-2 -33 22 -53
t58 -20z" />
    <glyph glyph-name="uni2158" unicode="&#x2158;" horiz-adv-x="1695" 
d="M315 981h146l31 184zM305 -25q285 424 965 1459h180l-965 -1459h-180zM82 819l20 121l465 475h199l-74 -434h94l-30 -162h-90l-19 -114h-229l18 114h-354zM1241 115q70 0 97 70t-12 109q-22 22 -58 21q-61 0 -94 -59l-201 25l102 424h535l-23 -166h-356l-37 -136h8
q50 43 146 43t159 -47t64 -143q0 -131 -93 -202q-94 -70 -228 -70t-218 46t-86 158h215q-2 -33 22 -53t58 -20z" />
    <glyph glyph-name="uni2159" unicode="&#x2159;" horiz-adv-x="1695" 
d="M1362 233q0 82 -84 82q-41 1 -72 -31q-30 -32 -30 -78t22 -69t57 -22q74 0 101 78q6 18 6 40zM358 -25q680 1034 965 1459h178l-964 -1459h-179zM252 1067l-68 160l346 182h138l-88 -535h190l-29 -169h-616l29 169h192l43 263zM950 248q0 49 13 123q31 182 135 266
t234 84t204 -48q76 -48 74 -163h-209q0 68 -68 68q-49 0 -83 -38t-52 -149q50 55 154 55t169 -46t64 -138q0 -137 -98 -208q-97 -70 -239 -70t-220 66t-78 198z" />
    <glyph glyph-name="uni215A" unicode="&#x215a;" horiz-adv-x="1695" 
d="M1362 233q0 82 -84 82q-41 1 -72 -31q-30 -32 -30 -78t22 -69t57 -22q74 0 101 78q6 18 6 40zM305 -25q285 424 965 1459h180l-965 -1459h-180zM530 938q0 82 -77 82q-61 0 -95 -59l-200 24l100 424h535l-21 -166h-358l-37 -135h10q47 43 145 43t160 -47q63 -47 64 -143
q0 -131 -93 -202t-241 -71q-76 0 -136 15t-108 63t-49 127h217q-2 -33 21 -53t57 -21q72 0 98 68q8 23 8 51zM950 248q0 49 13 123q31 182 135 266t234 84t204 -48q76 -48 74 -163h-209q0 68 -68 68q-49 0 -83 -38t-52 -149q50 55 154 55t169 -46t64 -138q0 -137 -98 -208
q-97 -70 -239 -70t-220 66t-78 198z" />
    <glyph glyph-name="uni215B" unicode="&#x215b;" horiz-adv-x="1695" 
d="M1298 424q47 0 74 26t27 68q0 66 -80 66q-47 0 -75 -27t-27 -70q-1 -63 81 -63zM1358 221q0 71 -94 73q-44 0 -78 -26q-33 -26 -33 -67q0 -80 92 -80q47 1 80 27t33 73zM344 -25q680 1034 965 1459h178l-965 -1459h-178zM252 1067l-68 160l346 182h138l-88 -535h190
l-29 -169h-616l29 169h192l43 263zM1581 209q0 -225 -358 -225q-141 0 -219 46t-78 128t47 132t121 64v8q-94 26 -94 132t94 166t235 60t216 -48q75 -49 75 -127t-45 -122t-109 -61v-8q53 -10 84 -49t31 -96z" />
    <glyph glyph-name="uni215C" unicode="&#x215c;" horiz-adv-x="1695" 
d="M1298 424q47 0 74 26t27 68q0 66 -80 66q-47 0 -75 -27t-27 -70q-1 -63 81 -63zM1358 221q0 71 -94 73q-44 0 -78 -26q-33 -26 -33 -67q0 -80 92 -80q47 1 80 27t33 73zM305 -25q285 424 965 1459h180l-965 -1459h-180zM543 926q0 74 -97 73h-34l20 129h35q117 0 117 95
q0 66 -84 65q-45 0 -70 -26t-29 -64h-204q10 113 97 170t223 57t212 -49t76 -127t-45 -122t-109 -60v-8q51 -10 83 -50t32 -96q0 -109 -93 -167t-241 -58t-230 56q-83 56 -73 174h209q-6 -92 92 -93q49 0 81 26t32 75zM1581 209q0 -225 -358 -225q-141 0 -219 46t-78 128
t47 132t121 64v8q-94 26 -94 132t94 166t235 60t216 -48q75 -49 75 -127t-45 -122t-109 -61v-8q53 -10 84 -49t31 -96z" />
    <glyph glyph-name="uni215D" unicode="&#x215d;" horiz-adv-x="1695" 
d="M1298 424q47 0 74 26t27 68q0 66 -80 66q-47 0 -75 -27t-27 -70q-1 -63 81 -63zM1358 221q0 71 -94 73q-44 0 -78 -26q-33 -26 -33 -67q0 -80 92 -80q47 1 80 27t33 73zM303 -25q680 1034 965 1459h178l-965 -1459h-178zM530 938q0 82 -77 82q-61 0 -95 -59l-200 24
l100 424h535l-21 -166h-358l-37 -135h10q47 43 145 43t160 -47q63 -47 64 -143q0 -131 -93 -202t-241 -71q-76 0 -136 15t-108 63t-49 127h217q-2 -33 21 -53t57 -21q72 0 98 68q8 23 8 51zM1581 209q0 -225 -358 -225q-141 0 -219 46t-78 128t47 132t121 64v8
q-94 26 -94 132t94 166t235 60t216 -48q75 -49 75 -127t-45 -122t-109 -61v-8q53 -10 84 -49t31 -96z" />
    <glyph glyph-name="uni215E" unicode="&#x215e;" horiz-adv-x="1695" 
d="M1298 424q47 0 74 26t27 68q0 66 -80 66q-47 0 -75 -27t-27 -70q-1 -63 81 -63zM1358 221q0 71 -94 73q-44 0 -78 -26q-33 -26 -33 -67q0 -80 92 -80q47 1 80 27t33 73zM174 705l385 520h-385l31 184h647l-23 -133l-419 -571h-236zM250 -25q285 424 964 1459h181
l-965 -1459h-180zM1581 209q0 -225 -358 -225q-141 0 -219 46t-78 128t47 132t121 64v8q-94 26 -94 132t94 166t235 60t216 -48q75 -49 75 -127t-45 -122t-109 -61v-8q53 -10 84 -49t31 -96z" />
    <glyph glyph-name="uni2190" unicode="&#x2190;" horiz-adv-x="1351" 
d="M811 639h483v-246h-483q-158 0 -332 8l277 -274l-160 -150l-539 539l539 539l160 -150l-277 -274q174 8 332 8z" />
    <glyph glyph-name="uni2191" unicode="&#x2191;" horiz-adv-x="1351" 
d="M811 381v-483h-244v483q0 199 8 332l-274 -277l-151 160l538 539l541 -539l-152 -160l-274 277q8 -178 8 -332z" />
    <glyph glyph-name="uni2192" unicode="&#x2192;" horiz-adv-x="1351" 
d="M541 393h-484v246h484q154 0 331 -8l-276 274l160 150l538 -539l-538 -539l-160 150l276 274q-178 -8 -331 -8z" />
    <glyph glyph-name="uni2193" unicode="&#x2193;" horiz-adv-x="1351" 
d="M553 651v484h246v-484q0 -158 -8 -332l274 277l149 -160l-538 -538l-539 538l150 160l274 -277q-8 174 -8 332z" />
    <glyph glyph-name="uni2196" unicode="&#x2196;" horiz-adv-x="1351" 
d="M164 965h766v-217h-381q78 -70 235 -228l342 -342l-168 -172l-344 340q-129 129 -231 246v-393h-219v766z" />
    <glyph glyph-name="uni2197" unicode="&#x2197;" horiz-adv-x="1351" 
d="M360 748v217h766v-766h-219v393q-102 -117 -231 -246l-342 -340l-170 172l342 342q162 162 233 228h-379z" />
    <glyph glyph-name="uni2198" unicode="&#x2198;" horiz-adv-x="1351" 
d="M360 6v219h379q-78 70 -233 226l-342 344l170 170l342 -338q129 -129 231 -246v391h219v-766h-766z" />
    <glyph glyph-name="uni2199" unicode="&#x2199;" horiz-adv-x="1351" 
d="M930 225v-219h-766v766h219v-391q102 117 231 246l344 338l168 -170l-342 -344q-153 -154 -235 -226h381z" />
    <glyph glyph-name="partialdiff" unicode="&#x2202;" 
d="M491 205q86 0 164 80t78 213q0 82 -46 128t-133 46t-165 -80t-78 -217q0 -80 47 -125t133 -45zM12 342q0 225 144 392t387 167q113 0 191 -42t102 -109q24 106 24 218t-48 174t-124 62q-143 0 -196 -147h-289q53 176 185 276q132 101 330 101t319 -112q122 -112 122 -343
q0 -113 -41 -330q-59 -309 -239 -491t-445 -183q-178 1 -300 99t-122 268z" />
    <glyph glyph-name="Delta" unicode="&#x2206;" horiz-adv-x="1370" 
d="M770 1042l-418 -802h570zM-84 0l758 1409h317l277 -1409h-1352z" />
    <glyph glyph-name="product" unicode="&#x220f;" horiz-adv-x="1533" 
d="M70 0l237 1409h1215l-238 -1409h-305l197 1169h-605l-196 -1169h-305z" />
    <glyph glyph-name="summation" unicode="&#x2211;" horiz-adv-x="1148" 
d="M-78 0l19 106l563 609l-342 577l16 117h1045l-41 -235h-613l279 -472l-430 -466h614l-37 -236h-1073z" />
    <glyph glyph-name="minus" unicode="&#x2212;" 
d="M98 408l37 229h928l-37 -229h-928z" />
    <glyph glyph-name="uni2215" unicode="&#x2215;" horiz-adv-x="163" 
d="M-461 -25l965 1459h178l-965 -1459h-178z" />
    <glyph glyph-name="uni2219" unicode="&#x2219;" horiz-adv-x="598" 
d="M102 367l54 309h329l-51 -309h-332z" />
    <glyph glyph-name="radical" unicode="&#x221a;" horiz-adv-x="1265" 
d="M51 549l41 229l393 119l103 -565h8l534 1077h297l-716 -1409h-330l-131 610z" />
    <glyph glyph-name="infinity" unicode="&#x221e;" horiz-adv-x="1449" 
d="M1028 377q68 0 114 51q46 50 46 112t-30 95t-81 33q-92 0 -227 -146q80 -145 178 -145zM371 377q98 0 225 145q-82 145 -178 146q-66 0 -113 -52t-47 -113q0 -60 31 -93t82 -33zM332 180q-133 0 -209 77t-76 202q0 178 108 292t275 113q195 0 320 -205q190 205 366 205
q133 0 209 -77t76 -201q0 -178 -108 -292t-275 -114q-199 0 -320 203q-188 -203 -366 -203z" />
    <glyph glyph-name="integral" unicode="&#x222b;" horiz-adv-x="745" 
d="M-18 -147q102 1 141 67t55 225l113 1033q27 256 136 386q110 130 347 130h107l-39 -230h-74q-102 0 -141 -66t-56 -227l-110 -1032q-29 -256 -137 -386t-349 -130h-104l39 230h72z" />
    <glyph glyph-name="approxequal" unicode="&#x2248;" 
d="M947 186q-93 -92 -219 -92t-221 69t-151 68q-106 0 -129 -149h-213q31 193 123 286t217 93t224 -69q94 -70 151 -68q106 0 127 149h213q-29 -195 -122 -287zM438 950q84 0 154 -35t122 -69t93 -35q104 0 129 150h213q-31 -193 -123 -286t-221 -93q-84 0 -154 34t-123 70
q-53 35 -94 35q-106 0 -127 -152h-213q29 195 122 288t222 93z" />
    <glyph glyph-name="notequal" unicode="&#x2260;" 
d="M137 633l35 229h530l185 271l149 -86l-127 -185h193l-37 -229h-311l-154 -225h424l-37 -230h-543l-184 -270l-149 86l125 184h-177l37 230h297l154 225h-410z" />
    <glyph glyph-name="lessequal" unicode="&#x2264;" 
d="M57 0l37 229h869l-37 -229h-869zM176 684l41 231l922 338l-41 -268l-578 -192l502 -203l-43 -254z" />
    <glyph glyph-name="greaterequal" unicode="&#x2265;" 
d="M57 0l37 229h869l-37 -229h-869zM227 999l43 254l803 -348l-41 -233l-921 -336l41 268l573 193z" />
    <glyph glyph-name="uni25A0" unicode="&#x25a0;" horiz-adv-x="1409" 
d="M0 0v1409h1409v-1409h-1409z" />
    <glyph glyph-name="uni25A1" unicode="&#x25a1;" horiz-adv-x="1409" 
d="M260 240h889v929h-889v-929zM0 0v1409h1409v-1409h-1409z" />
    <glyph glyph-name="uni25B6" unicode="&#x25b6;" horiz-adv-x="1028" 
d="M90 -25v1049l914 -524z" />
    <glyph glyph-name="uni25B7" unicode="&#x25b7;" horiz-adv-x="1028" 
d="M293 311l336 189l-336 188v-377zM90 -25v1049l914 -524z" />
    <glyph glyph-name="uni25C0" unicode="&#x25c0;" horiz-adv-x="1028" 
d="M25 500l913 524v-1049z" />
    <glyph glyph-name="uni25C1" unicode="&#x25c1;" horiz-adv-x="1028" 
d="M399 500l336 -189v377zM25 500l913 524v-1049z" />
    <glyph glyph-name="lozenge" unicode="&#x25ca;" horiz-adv-x="1376" 
d="M379 696l252 -450l418 467l-252 448zM461 0l-398 705l635 704h269l395 -704l-633 -705h-268z" />
    <glyph glyph-name="uni25CB" unicode="&#x25cb;" horiz-adv-x="1130" 
d="M563 797q-119 0 -195 -83t-75 -213q0 -130 78 -214q79 -84 197 -84t194 83t76 213t-78 214t-197 84zM37 497q-1 223 151 375t378 152t377 -148t151 -372t-152 -377q-152 -152 -378 -152t-377 149q-150 149 -150 373z" />
    <glyph glyph-name="uni25CF" unicode="&#x25cf;" horiz-adv-x="1130" 
d="M37 497q-1 223 151 375t378 152t377 -148t151 -372t-152 -377q-152 -152 -378 -152t-377 149q-150 149 -150 373z" />
    <glyph glyph-name="uni25FB" unicode="&#x25fb;" horiz-adv-x="999" 
d="M238 227h524v545h-524v-545zM0 0v999h999v-999h-999z" />
    <glyph glyph-name="uni25FC" unicode="&#x25fc;" horiz-adv-x="999" 
d="M0 0v999h999v-999h-999z" />
    <glyph glyph-name="uni2605" unicode="&#x2605;" horiz-adv-x="1118" 
d="M217 27l139 374l-331 222l10 32l399 -18l109 387h32l107 -387l401 18l11 -32l-334 -222l141 -374l-29 -21l-313 248l-313 -248z" />
    <glyph glyph-name="dotlessi.sc" unicode="&#xe08e;" horiz-adv-x="620" 
d="M68 0l180 1065h305l-180 -1065h-305z" />
    <glyph glyph-name="g.superior" unicode="&#xe0a3;" horiz-adv-x="917" 
d="M430 1334q0 -166 125 -165q76 0 130 75t54 159q0 164 -125 164q-76 0 -130 -75q-54 -76 -54 -158zM371 932q0 -86 127 -86q92 0 132 53t64 184l6 33h-8q-80 -117 -237 -117q-111 0 -188 78t-77 217q0 207 114 325t257 118q180 0 213 -131h8l21 114h223l-108 -633
q-38 -223 -142 -311t-282 -88t-262 58q-84 59 -76 186h215z" />
    <glyph glyph-name="germandbls.sc" unicode="&#xe0a4;" horiz-adv-x="2310" 
d="M1673 180q199 0 199 121q0 87 -203 121q-84 14 -169 39t-144 91t-60 173q0 160 127 262q127 103 373 103t358 -90t87 -236h-293q10 59 -35 90t-131 31q-180 0 -180 -115q0 -86 152 -108q145 -21 280 -75q66 -26 108 -87t43 -154q0 -371 -526 -371q-262 0 -378 87t-89 247
h299q-10 -63 36 -96t146 -33zM518 180q199 0 199 121q0 87 -203 121q-84 14 -169 39t-144 91t-60 173q0 160 127 262q127 103 373 103q245 0 357 -90t87 -236h-292q10 59 -35 90t-131 31q-180 0 -181 -115q0 -87 150 -109t283 -74q67 -26 109 -87t42 -154q0 -371 -526 -371
q-262 0 -378 87t-89 247h299q-10 -63 36 -96t146 -33z" />
    <glyph glyph-name="onesuperior" unicode="&#xe105;" horiz-adv-x="765" 
d="M309 1378l-67 160l346 182h137l-88 -534h190l-28 -170h-617l29 170h192l43 262z" />
    <glyph glyph-name="twosuperior" unicode="&#xe107;" horiz-adv-x="765" 
d="M647 1522q0 57 -96 57t-111 -102h-219q23 131 119 195t231 65q135 -1 217 -55t82 -146t-60 -146t-189 -108l-29 -12q-138 -60 -146 -70t-8 -14h371l-27 -170h-647q27 156 108 238t210 135l30 14q96 41 130 63t34 56z" />
    <glyph glyph-name="threesuperior" unicode="&#xe108;" horiz-adv-x="765" 
d="M487 1137q49 -1 81 25t32 75q0 74 -96 74h-35l20 129h35q117 0 117 94q0 66 -84 65q-45 1 -70 -25t-28 -65h-205q10 113 97 170t223 57t212 -48q76 -50 76 -128t-45 -122t-108 -60v-8q51 -10 83 -50t31 -95q0 -109 -93 -167q-92 -58 -240 -58t-231 56t-73 173h209
q-6 -92 92 -92z" />
    <glyph glyph-name="cent.denominator" unicode="&#xf629;" horiz-adv-x="765" 
d="M20 303q0 127 80 206t215 95l23 117h166l-25 -119q83 -16 141 -67t60 -138h-229q-4 72 -82 72q-53 0 -87 -42t-34 -114q0 -88 88 -88q36 1 64 21t36 49h223q-18 -76 -86 -136t-182 -75l-18 -100h-166l18 106q-97 20 -151 74t-54 139z" />
    <glyph glyph-name="dollar.denominator" unicode="&#xf62a;" horiz-adv-x="765" 
d="M209 205q1 -84 111 -84t110 76q0 39 -58 57t-128 28t-128 56q-58 47 -58 139t72 159q73 67 200 81l20 110h164l-22 -116q86 -17 137 -69t53 -134h-211q0 33 -28 51t-68 19q-102 0 -103 -70q0 -47 100 -64q199 -28 255 -109q29 -42 28 -102q-1 -113 -75 -174t-209 -71
l-21 -127h-164l23 131q-211 31 -209 213h209z" />
    <glyph glyph-name="hyphen.denominator" unicode="&#xf62b;" horiz-adv-x="600" 
d="M23 270l30 172h463l-31 -172h-462z" />
    <glyph glyph-name="parenleft.denominator" unicode="&#xf62c;" horiz-adv-x="512" 
d="M76 198q0 202 78 376q78 175 176 278h215q-90 -98 -172 -278t-82 -376t82 -345h-209q-88 143 -88 345z" />
    <glyph glyph-name="parenright.denominator" unicode="&#xf62d;" horiz-adv-x="512" 
d="M156 506q0 196 -82 346h209q88 -137 88 -342t-78 -380t-176 -277h-215q90 98 172 277q82 180 82 376z" />
    <glyph glyph-name="cent.numerator" unicode="&#xf62e;" horiz-adv-x="765" 
d="M135 1008q0 128 80 206t215 95l23 116h165l-24 -118q84 -15 141 -67t60 -138h-230q-4 72 -82 72q-53 0 -87 -42t-34 -114q0 -88 89 -88q37 0 65 20t35 49h223q-18 -76 -86 -136t-182 -75l-19 -100h-165l18 107q-96 20 -151 74q-54 55 -54 139z" />
    <glyph glyph-name="dollar.numerator" unicode="&#xf62f;" horiz-adv-x="765" 
d="M324 909q0 -84 110 -84t111 76q-1 39 -59 57t-128 28t-128 56q-58 48 -58 140t73 158t199 81l21 111h164l-23 -117q86 -18 137 -69t54 -134h-211q0 34 -28 52t-69 18q-102 0 -102 -70q0 -49 97 -63t187 -50q43 -17 71 -59t28 -102q0 -113 -75 -174t-210 -72l-20 -127
h-164l23 131q-211 31 -209 213h209z" />
    <glyph glyph-name="hyphen.numerator" unicode="&#xf630;" horiz-adv-x="600" 
d="M137 975l31 172h463l-31 -172h-463z" />
    <glyph glyph-name="parenleft.numerator" unicode="&#xf631;" horiz-adv-x="512" 
d="M279 557q-89 143 -89 345t78 377t176 277h215q-90 -98 -172 -277q-81 -179 -81 -375t81 -347h-208z" />
    <glyph glyph-name="parenright.numerator" unicode="&#xf632;" horiz-adv-x="512" 
d="M270 1210q0 196 -82 346h209q88 -138 88 -342t-78 -380t-176 -277h-215q90 97 172 277t82 376z" />
    <glyph glyph-name="h.superior" unicode="&#xf637;" horiz-adv-x="888" 
d="M733 1737q121 0 187 -77t34 -255l-65 -389h-232l66 389q27 156 -92 156q-61 0 -105 -44t-59 -126l-64 -375h-231l180 1057h232l-41 -232q-39 -201 -41 -213h4q74 109 227 109z" />
    <glyph glyph-name="zero.denominator" unicode="&#xf655;" horiz-adv-x="765" 
d="M313 158q57 0 99 48q65 76 65 220q0 121 -92 121q-55 0 -96 -49q-66 -79 -66 -209q0 -131 90 -131zM302 -16q-152 0 -228 78t-76 208q0 43 10 95q27 160 132 258t258 98t228 -78t74 -209q0 -221 -140 -352q-106 -98 -258 -98z" />
    <glyph glyph-name="one.denominator" unicode="&#xf656;" horiz-adv-x="765" 
d="M137 362l-67 160l346 183h137l-88 -535h190l-28 -170h-617l29 170h192l43 262z" />
    <glyph glyph-name="two.denominator" unicode="&#xf657;" horiz-adv-x="765" 
d="M475 506q0 57 -96 57t-111 -102h-219q23 131 119 195t231 65q135 0 217 -54q82 -55 82 -147t-60 -146t-189 -108l-29 -12q-143 -57 -154 -84h371l-27 -170h-647q27 156 108 239t210 134l30 14q96 41 130 63t34 56z" />
    <glyph glyph-name="three.denominator" unicode="&#xf658;" horiz-adv-x="765" 
d="M315 121q49 -1 81 25t32 75q0 74 -96 74h-35l20 129h35q117 0 117 94q0 66 -84 66q-45 0 -70 -26t-28 -64h-205q10 113 97 170t223 57t212 -49t76 -127t-45 -122t-108 -61v-8q51 -10 83 -50t31 -95q0 -109 -93 -167q-92 -58 -240 -58t-231 56t-73 173h209q-6 -92 92 -92z
" />
    <glyph glyph-name="four.denominator" unicode="&#xf659;" horiz-adv-x="765" 
d="M201 276h145l31 185zM-33 115l21 121l465 475h198l-73 -435h94l-31 -161h-90l-19 -115h-229l19 115h-355z" />
    <glyph glyph-name="five.denominator" unicode="&#xf65a;" horiz-adv-x="765" 
d="M309 115q72 0 99 67q8 23 8 51q0 82 -78 82q-61 0 -94 -59l-201 25l100 424h535l-21 -166h-358l-37 -136h10q46 43 144 43t162 -47t63 -143q0 -131 -93 -202t-241 -70q-76 0 -136 15t-108 63q-47 48 -49 126h217q-2 -33 21 -53t57 -20z" />
    <glyph glyph-name="six.denominator" unicode="&#xf65b;" horiz-adv-x="765" 
d="M352 315q-45 1 -76 -31q-30 -32 -30 -79t22 -69t61 -22q41 0 71 36q30 35 30 83q0 82 -78 82zM20 248q0 61 11 123q33 182 136 266t233 84t206 -48t74 -163h-211q0 68 -68 68q-49 0 -83 -38t-52 -149q52 55 156 55t169 -46t64 -138q0 -137 -99 -208q-100 -70 -240 -70
t-218 66t-78 198z" />
    <glyph glyph-name="seven.denominator" unicode="&#xf65c;" horiz-adv-x="765" 
d="M59 0l385 520h-385l31 185h647l-22 -134l-420 -571h-236z" />
    <glyph glyph-name="eight.denominator" unicode="&#xf65d;" horiz-adv-x="765" 
d="M367 424q49 0 75 26t27 68q0 66 -80 66q-49 0 -76 -27t-26 -70q0 -63 80 -63zM428 221q0 72 -92 74q-47 -1 -80 -27t-33 -67q0 -80 92 -80q47 1 80 27t33 73zM-6 158q0 82 48 132t122 64v8q-43 10 -70 46t-26 86q0 106 95 166t237 60t216 -48q74 -49 74 -127t-45 -122
t-108 -61v-8q51 -10 83 -50t31 -95q0 -113 -94 -169q-93 -56 -249 -56t-235 46t-79 128z" />
    <glyph glyph-name="nine.denominator" unicode="&#xf65e;" horiz-adv-x="765" 
d="M449 499q-1 91 -85 91q-40 0 -71 -35t-31 -84q0 -82 84 -82q41 0 72 32t31 78zM14 195h209q0 -68 68 -68q49 0 83 38t52 148q-50 -55 -154 -55t-169 46t-64 138q0 137 98 208q97 71 239 71t220 -66t78 -198q0 -61 -10 -123q-34 -182 -138 -266t-252 -84q-102 0 -159 31
q-101 56 -101 180z" />
    <glyph glyph-name="comma.denominator" unicode="&#xf65f;" horiz-adv-x="434" 
d="M18 0l37 223h215l-37 -215l-114 -260h-107l97 252h-91z" />
    <glyph glyph-name="period.denominator" unicode="&#xf660;" horiz-adv-x="434" 
d="M18 0l37 223h215l-39 -223h-213z" />
    <glyph glyph-name="zero.numerator" unicode="&#xf661;" horiz-adv-x="765" 
d="M428 862q57 0 98 48q66 77 66 209t-92 132q-54 0 -96 -49q-66 -77 -66 -209q0 -131 90 -131zM418 688q-152 0 -230 78q-76 78 -75 209q0 43 10 94q27 160 132 258t257 98q152 1 228 -77q75 -78 75 -209q0 -222 -140 -353q-105 -98 -257 -98z" />
    <glyph glyph-name="one.numerator" unicode="&#xf662;" horiz-adv-x="765" 
d="M252 1067l-68 160l346 182h138l-88 -535h190l-29 -169h-616l29 169h192l43 263z" />
    <glyph glyph-name="two.numerator" unicode="&#xf663;" horiz-adv-x="765" 
d="M590 1210q0 58 -96 58t-111 -103h-219q23 131 119 196t231 65t217 -55q82 -54 82 -146q0 -93 -60 -147t-190 -107l-28 -13q-137 -59 -145 -69t-9 -15h371l-27 -169h-647q28 157 108 239t209 133l31 15q96 40 130 62t34 56z" />
    <glyph glyph-name="three.numerator" unicode="&#xf664;" horiz-adv-x="765" 
d="M543 926q0 74 -97 73h-34l20 129h35q117 0 117 95q0 66 -84 65q-45 0 -70 -26t-29 -64h-204q10 113 97 170t223 57t212 -49t76 -127t-45 -122t-109 -60v-8q51 -10 83 -50t32 -96q0 -109 -93 -167t-241 -58t-230 56q-83 56 -73 174h209q-6 -92 92 -93q49 0 81 26t32 75z
" />
    <glyph glyph-name="four.numerator" unicode="&#xf665;" horiz-adv-x="765" 
d="M315 981h146l31 184zM82 819l20 121l465 475h199l-74 -434h94l-30 -162h-90l-19 -114h-229l18 114h-354z" />
    <glyph glyph-name="five.numerator" unicode="&#xf666;" horiz-adv-x="765" 
d="M530 938q0 82 -77 82q-61 0 -95 -59l-200 24l100 424h535l-21 -166h-358l-37 -135h10q47 43 145 43t160 -47q63 -47 64 -143q0 -131 -93 -202t-241 -71q-76 0 -136 15t-108 63t-49 127h217q-2 -33 21 -53t57 -21q72 0 98 68q8 23 8 51z" />
    <glyph glyph-name="six.numerator" unicode="&#xf667;" horiz-adv-x="765" 
d="M360 909q0 -90 84 -90q40 0 70 35q31 35 31 84q0 82 -78 82q-45 0 -76 -32t-31 -79zM135 952q0 61 10 123q33 182 137 266t232 84q129 0 206 -48t75 -163h-211q0 68 -68 68q-49 0 -83 -38t-52 -148q51 55 155 55t170 -46q65 -46 64 -138q0 -137 -99 -208t-239 -71
t-219 66q-78 66 -78 198z" />
    <glyph glyph-name="seven.numerator" unicode="&#xf668;" horiz-adv-x="765" 
d="M174 705l385 520h-385l31 184h647l-23 -133l-419 -571h-236z" />
    <glyph glyph-name="eight.numerator" unicode="&#xf669;" horiz-adv-x="765" 
d="M481 1128q49 0 76 26t27 69q0 66 -80 65q-49 0 -76 -26t-27 -70q0 -64 80 -64zM338 899q0 -72 92 -74q47 0 80 27t33 68q0 79 -92 79q-47 -1 -80 -27t-33 -73zM109 862q0 82 48 132t122 65v8q-43 10 -70 45t-27 86q0 106 96 166t236 61q141 0 216 -49t75 -127t-45 -122
t-109 -60v-8q51 -10 83 -50t32 -96q0 -113 -94 -169t-250 -56t-235 46q-78 46 -78 128z" />
    <glyph glyph-name="nine.numerator" unicode="&#xf66a;" horiz-adv-x="765" 
d="M563 1203q0 93 -84 91q-41 0 -71 -34t-31 -84q0 -82 84 -82q41 0 71 32t31 77zM129 899h209q0 -68 68 -68q48 0 82 38t53 149q-51 -55 -155 -55t-168 46q-65 46 -64 138q0 137 98 208t240 71t219 -66q78 -66 77 -199q0 -61 -10 -123q-33 -182 -137 -266t-252 -84
q-260 0 -260 211z" />
    <glyph glyph-name="comma.numerator" unicode="&#xf66b;" horiz-adv-x="434" 
d="M133 705l37 223h215l-37 -215l-115 -260h-106l96 252h-90z" />
    <glyph glyph-name="period.numerator" unicode="&#xf66c;" horiz-adv-x="434" 
d="M133 705l37 223h215l-39 -223h-213z" />
    <glyph glyph-name="abreve.sc" unicode="&#xf66d;" horiz-adv-x="1214" 
d="M721 1237q-137 0 -217 76t-64 243h160q-2 -74 37 -114t108 -39q141 0 191 153h160q-76 -319 -375 -319zM641 795l-195 -379h271l-68 379h-8zM-80 0l584 1065h373l237 -1065h-323l-33 186h-428l-94 -186h-316z" />
    <glyph glyph-name="amacron.sc" unicode="&#xf66e;" horiz-adv-x="1214" 
d="M403 1298l35 197h633l-35 -197h-633zM641 795l-195 -379h271l-68 379h-8zM-80 0l584 1065h373l237 -1065h-323l-33 186h-428l-94 -186h-316z" />
    <glyph glyph-name="aogonek.sc" unicode="&#xf66f;" horiz-adv-x="1214" 
d="M641 795l-195 -379h271l-68 379h-8zM750 -293q0 81 54 145t165 148h-178l-33 186h-428l-94 -186h-316l584 1065h373l237 -1065h-2q-164 -145 -164 -225q0 -63 88 -64h62l-29 -162h-82q-125 0 -181 38t-56 120z" />
    <glyph glyph-name="aeacute.sc" unicode="&#xf670;" horiz-adv-x="1890" 
d="M1053 1229l258 336h309l-363 -336h-204zM918 795l-310 -361h260l60 361h-10zM-102 0l942 1065h1020l-35 -223h-584l-33 -199h469l-35 -211h-471l-34 -209h602l-37 -223h-907l36 225h-403l-192 -225h-338z" />
    <glyph glyph-name="cacute.sc" unicode="&#xf671;" horiz-adv-x="1253" 
d="M664 1229l258 336h309l-363 -336h-204zM70 446q0 276 184 460t475 184q209 0 345 -113t138 -285h-294q-14 66 -66 110t-139 44q-139 0 -231 -109t-93 -274q-1 -109 61 -177t164 -67q172 0 248 154h299q-53 -176 -205 -287t-378 -111t-367 131t-141 340z" />
    <glyph glyph-name="ccaron.sc" unicode="&#xf672;" horiz-adv-x="1253" 
d="M653 1229l-207 336h240l98 -187l166 187h242l-320 -336h-219zM70 446q0 276 184 460t475 184q209 0 345 -113t138 -285h-294q-14 66 -66 110t-139 44q-139 0 -231 -109t-93 -274q-1 -109 61 -177t164 -67q172 0 248 154h299q-53 -176 -205 -287t-378 -111t-367 131
t-141 340z" />
    <glyph glyph-name="ccircumflex.sc" unicode="&#xf673;" horiz-adv-x="1253" 
d="M389 1229l320 336h221l205 -336h-240l-98 186l-166 -186h-242zM70 446q0 276 184 460t475 184q209 0 345 -113t138 -285h-294q-14 66 -66 110t-139 44q-139 0 -231 -109t-93 -274q-1 -109 61 -177t164 -67q172 0 248 154h299q-53 -176 -205 -287t-378 -111t-367 131
t-141 340z" />
    <glyph glyph-name="cdotaccent.sc" unicode="&#xf674;" horiz-adv-x="1253" 
d="M637 1280l47 262h270l-47 -262h-270zM70 446q0 276 184 460t475 184q209 0 345 -113t138 -285h-294q-14 66 -66 110t-139 44q-139 0 -231 -109t-93 -274q-1 -109 61 -177t164 -67q172 0 248 154h299q-53 -176 -205 -287t-378 -111t-367 131t-141 340z" />
    <glyph glyph-name="dcaron.sc" unicode="&#xf675;" horiz-adv-x="1308" 
d="M621 1229l-207 336h239l99 -187l166 187h241l-319 -336h-219zM666 829h-154l-100 -593h157q176 0 269 106q92 106 92 260q0 104 -66 166t-198 61zM739 1065q240 0 372 -123t132 -321q0 -273 -184 -447t-492 -174h-499l180 1065h491z" />
    <glyph glyph-name="dcroat.sc" unicode="&#xf676;" horiz-adv-x="1308" 
d="M666 829h-154l-37 -219h205l-25 -155h-206l-37 -219h157q176 0 269 106q92 106 92 260q0 104 -66 166t-198 61zM739 1065q240 0 372 -123t132 -321q0 -273 -184 -447t-492 -174h-499l75 455h-149l24 155h152l78 455h491z" />
    <glyph glyph-name="ebreve.sc" unicode="&#xf677;" 
d="M717 1237q-137 0 -217 76t-64 243h160q-2 -74 37 -114t108 -39q141 0 191 153h160q-76 -319 -375 -319zM68 0l180 1065h885l-35 -223h-584l-33 -199h469l-37 -211h-469l-34 -209h602l-37 -223h-907z" />
    <glyph glyph-name="ecaron.sc" unicode="&#xf678;" 
d="M600 1229l-207 336h240l98 -187l166 187h242l-320 -336h-219zM68 0l180 1065h885l-35 -223h-584l-33 -199h469l-37 -211h-469l-34 -209h602l-37 -223h-907z" />
    <glyph glyph-name="edotaccent.sc" unicode="&#xf679;" 
d="M584 1280l47 262h270l-47 -262h-270zM68 0l180 1065h885l-35 -223h-584l-33 -199h469l-37 -211h-469l-34 -209h602l-37 -223h-907z" />
    <glyph glyph-name="emacron.sc" unicode="&#xf67a;" 
d="M399 1298l35 197h633l-35 -197h-633zM68 0l180 1065h885l-35 -223h-584l-33 -199h469l-37 -211h-469l-34 -209h602l-37 -223h-907z" />
    <glyph glyph-name="eng.sc" unicode="&#xf67b;" horiz-adv-x="1359" 
d="M623 -219q79 0 123 42t63 142l16 88l-350 537h-10l-88 -590h-309l178 1065h254l385 -590h6l96 590h305l-184 -1096q-39 -227 -150 -323t-337 -97h-115l37 232h80z" />
    <glyph glyph-name="eogonek.sc" unicode="&#xf67c;" 
d="M811 -225q0 -63 88 -64h62l-29 -162h-82q-125 0 -181 38q-57 38 -57 120q0 81 54 145t165 148h-763l180 1065h885l-35 -223h-584l-33 -199h469l-37 -211h-469l-34 -209h602l-37 -223q-164 -145 -164 -225z" />
    <glyph glyph-name="gbreve.sc" unicode="&#xf67d;" horiz-adv-x="1349" 
d="M799 1235q-137 0 -217 76t-64 243h160q-2 -74 37 -114t108 -39q141 0 191 153h160q-76 -319 -375 -319zM922 0v94h-9q-133 -119 -350 -119q-217 1 -353 133t-136 341q0 279 187 459t484 182q223 0 357 -104t137 -263h-297q-44 127 -202 127t-254 -111t-95 -282
q0 -106 68 -176t178 -70t186 50t97 134h-246l28 199h521l-97 -594h-204z" />
    <glyph glyph-name="gcircumflex.sc" unicode="&#xf67e;" horiz-adv-x="1349" 
d="M418 1227l319 336h221l205 -336h-239l-99 186l-166 -186h-241zM922 0v94h-9q-133 -119 -350 -119q-217 1 -353 133t-136 341q0 279 187 459t484 182q223 0 357 -104t137 -263h-297q-44 127 -202 127t-254 -111t-95 -282q0 -106 68 -176t178 -70t186 50t97 134h-246
l28 199h521l-97 -594h-204z" />
    <glyph glyph-name="gcommaaccent.sc" unicode="&#xf67f;" horiz-adv-x="1349" 
d="M428 -117h270l-32 -190l-152 -230h-123l117 201h-119zM922 0v94h-9q-133 -119 -350 -119q-217 1 -353 133t-136 341q0 279 187 459t484 182q223 0 357 -104t137 -263h-297q-44 127 -202 127t-254 -111t-95 -282q0 -106 68 -176t178 -70t186 50t97 134h-246l28 199h521
l-97 -594h-204z" />
    <glyph glyph-name="gdotaccent.sc" unicode="&#xf680;" horiz-adv-x="1349" 
d="M666 1278l47 262h270l-47 -262h-270zM922 0v94h-9q-133 -119 -350 -119q-217 1 -353 133t-136 341q0 279 187 459t484 182q223 0 357 -104t137 -263h-297q-44 127 -202 127t-254 -111t-95 -282q0 -106 68 -176t178 -70t186 50t97 134h-246l28 199h521l-97 -594h-204z" />
    <glyph glyph-name="hbar.sc" unicode="&#xf681;" horiz-adv-x="1359" 
d="M506 791l-23 -132h435l22 132h-434zM59 791l31 153h137l21 121h305l-21 -121h435l20 121h305l-20 -121h139l-29 -153h-137l-133 -791h-305l70 414h-435l-69 -414h-305l133 791h-142z" />
    <glyph glyph-name="hcircumflex.sc" unicode="&#xf682;" horiz-adv-x="1359" 
d="M420 1229l319 336h222l204 -336h-239l-99 186l-165 -186h-242zM68 0l180 1065h305l-70 -406h435l69 406h305l-180 -1065h-305l70 414h-435l-69 -414h-305z" />
    <glyph glyph-name="ibreve.sc" unicode="&#xf683;" horiz-adv-x="620" 
d="M432 1237q-137 0 -217 76t-63 243h159q-2 -74 37 -114t109 -39q141 0 190 153h160q-76 -319 -375 -319zM68 0l180 1065h305l-180 -1065h-305z" />
    <glyph glyph-name="ij.sc" unicode="&#xf684;" horiz-adv-x="1660" 
d="M68 0l180 1065h305l-180 -1065h-305zM1051 207q113 0 133 127l127 731h305l-125 -731q-66 -358 -467 -359q-193 1 -289 95t-65 278l8 41h291l-11 -57q-10 -57 15 -91t78 -34z" />
    <glyph glyph-name="imacron.sc" unicode="&#xf685;" horiz-adv-x="620" 
d="M115 1298l35 197h632l-34 -197h-633zM68 0l180 1065h305l-180 -1065h-305z" />
    <glyph glyph-name="iogonek.sc" unicode="&#xf686;" horiz-adv-x="620" 
d="M211 -225q0 -63 88 -64h61l-28 -162h-82q-125 0 -181 38q-57 38 -57 120q0 81 54 145t165 148h-163l180 1065h305l-180 -1065h2q-164 -145 -164 -225z" />
    <glyph glyph-name="itilde.sc" unicode="&#xf687;" horiz-adv-x="620" 
d="M604 1444q80 0 101 98h141q-51 -272 -264 -272q-68 0 -154 43t-123 43q-76 0 -100 -99h-139q47 272 260 273q68 0 156 -43t122 -43zM68 0l180 1065h305l-180 -1065h-305z" />
    <glyph glyph-name="jcircumflex.sc" unicode="&#xf688;" horiz-adv-x="1038" 
d="M487 1229l320 336h221l205 -336h-240l-98 186l-166 -186h-242zM428 207q113 0 133 127l127 731h305l-125 -731q-66 -358 -462 -359q-194 1 -292 95t-67 278l8 41h291l-10 -57q-10 -57 14 -91t78 -34z" />
    <glyph glyph-name="kcommaaccent.sc" unicode="&#xf689;" horiz-adv-x="1271" 
d="M449 -117h270l-33 -190l-151 -230h-123l116 201h-118zM68 0l180 1065h305l-76 -438l481 438h349l-514 -463l368 -602h-338l-243 410l-164 -148l-43 -262h-305z" />
    <glyph glyph-name="lacute.sc" unicode="&#xf68a;" horiz-adv-x="1042" 
d="M326 1229l258 336h309l-363 -336h-204zM68 0l180 1065h305l-139 -819h520l-41 -246h-825z" />
    <glyph glyph-name="lcaron.sc" unicode="&#xf68b;" horiz-adv-x="1042" 
d="M705 645l108 201h-113l39 219h271l-31 -193l-154 -227h-120zM68 0l180 1065h305l-139 -819h520l-41 -246h-825z" />
    <glyph glyph-name="lcommaaccent.sc" unicode="&#xf68c;" horiz-adv-x="1042" 
d="M334 -117h270l-33 -190l-151 -230h-123l117 201h-119zM68 0l180 1065h305l-139 -819h520l-41 -246h-825z" />
    <glyph glyph-name="ldot.sc" unicode="&#xf68d;" horiz-adv-x="1042" 
d="M594 467l45 262h270l-43 -262h-272zM68 0l180 1065h305l-139 -819h520l-41 -246h-825z" />
    <glyph glyph-name="nacute.sc" unicode="&#xf68e;" horiz-adv-x="1359" 
d="M694 1229l258 336h310l-363 -336h-205zM68 0l180 1065h254l381 -592h8l96 592h305l-180 -1065h-254l-381 592h-12l-88 -592h-309z" />
    <glyph glyph-name="ncaron.sc" unicode="&#xf68f;" horiz-adv-x="1359" 
d="M684 1229l-207 336h240l98 -187l166 187h242l-320 -336h-219zM68 0l180 1065h254l381 -592h8l96 592h305l-180 -1065h-254l-381 592h-12l-88 -592h-309z" />
    <glyph glyph-name="ncommaaccent.sc" unicode="&#xf690;" horiz-adv-x="1359" 
d="M446 -117h271l-33 -190l-152 -230h-122l116 201h-118zM68 0l180 1065h254l381 -592h8l96 592h305l-180 -1065h-254l-381 592h-12l-88 -592h-309z" />
    <glyph glyph-name="obreve.sc" unicode="&#xf691;" horiz-adv-x="1351" 
d="M791 1237q-137 0 -218 76q-80 76 -63 243h160q-2 -74 37 -114t108 -39q141 0 191 153h159q-75 -319 -374 -319zM389 471q-1 -113 63 -183t178 -69q114 0 203 74t117 196q12 66 13 105q0 112 -65 182q-66 70 -178 70t-201 -74q-130 -108 -130 -301zM70 446q0 279 189 461
t486 183q243 0 389 -132t146 -340q0 -278 -189 -460t-487 -183q-244 0 -389 131t-145 340z" />
    <glyph glyph-name="ohungarumlaut.sc" unicode="&#xf692;" horiz-adv-x="1351" 
d="M465 1229l260 336h309l-364 -336h-205zM891 1229l260 336h307l-362 -336h-205zM389 471q-1 -113 63 -183t178 -69q114 0 203 74t117 196q12 66 13 105q0 112 -65 182q-66 70 -178 70t-201 -74q-130 -108 -130 -301zM70 446q0 279 189 461t486 183q243 0 389 -132
t146 -340q0 -278 -189 -460t-487 -183q-244 0 -389 131t-145 340z" />
    <glyph glyph-name="omacron.sc" unicode="&#xf693;" horiz-adv-x="1351" 
d="M473 1298l35 197h633l-35 -197h-633zM389 471q-1 -113 63 -183t178 -69q114 0 203 74t117 196q12 66 13 105q0 112 -65 182q-66 70 -178 70t-201 -74q-130 -108 -130 -301zM70 446q0 279 189 461t486 183q243 0 389 -132t146 -340q0 -278 -189 -460t-487 -183
q-244 0 -389 131t-145 340z" />
    <glyph glyph-name="oslashacute.sc" unicode="&#xf694;" horiz-adv-x="1351" 
d="M664 1229l258 336h309l-363 -336h-204zM389 469q0 -57 19 -107l454 445q-59 39 -137 39q-117 0 -206 -74q-130 -108 -130 -303zM644 219q100 0 189 74t117 196q12 66 12 114t-20 104l-459 -447q61 -41 161 -41zM70 446q0 279 189 461t486 183q184 0 322 -82l84 82h180
l-166 -164q115 -125 115 -308q0 -278 -189 -460t-487 -183q-190 0 -325 84l-84 -84h-183l168 164q-110 123 -110 307z" />
    <glyph glyph-name="racute.sc" unicode="&#xf695;" horiz-adv-x="1265" 
d="M623 1229l258 336h309l-363 -336h-204zM741 842h-227l-47 -273h227q80 0 128 42q48 43 48 107q0 124 -129 124zM821 1065q177 0 273 -82t96 -218q0 -135 -77 -235t-210 -147l209 -383h-321l-179 350h-182l-59 -350h-305l182 1065h573z" />
    <glyph glyph-name="rcaron.sc" unicode="&#xf696;" horiz-adv-x="1265" 
d="M612 1229l-206 336h239l98 -187l166 187h242l-320 -336h-219zM741 842h-227l-47 -273h227q80 0 128 42q48 43 48 107q0 124 -129 124zM821 1065q177 0 273 -82t96 -218q0 -135 -77 -235t-210 -147l209 -383h-321l-179 350h-182l-59 -350h-305l182 1065h573z" />
    <glyph glyph-name="rcommaaccent.sc" unicode="&#xf697;" horiz-adv-x="1265" 
d="M422 -117h270l-33 -190l-151 -230h-123l117 201h-119zM741 842h-227l-47 -273h227q80 0 128 42q48 43 48 107q0 124 -129 124zM821 1065q177 0 273 -82t96 -218q0 -135 -77 -235t-210 -147l209 -383h-321l-179 350h-182l-59 -350h-305l182 1065h573z" />
    <glyph glyph-name="sacute.sc" unicode="&#xf698;" horiz-adv-x="1155" 
d="M567 1229l258 336h310l-363 -336h-205zM518 180q199 0 199 121q0 87 -203 121q-84 14 -169 39t-144 91t-60 173q0 160 127 262q127 103 373 103q245 0 357 -90t87 -236h-292q10 59 -35 90t-131 31q-180 0 -181 -115q0 -87 150 -109t283 -74q67 -26 109 -87t42 -154
q0 -371 -526 -371q-262 0 -378 87t-89 247h299q-10 -63 36 -96t146 -33z" />
    <glyph glyph-name="scedilla.sc" unicode="&#xf699;" horiz-adv-x="1155" 
d="M518 180q199 0 199 121q0 87 -203 121q-84 14 -169 39t-144 91t-60 173q0 160 127 262q127 103 373 103q245 0 357 -90t87 -236h-292q10 59 -35 90t-131 31q-180 0 -181 -115q0 -87 150 -109t283 -74q67 -26 109 -87t42 -154q0 -354 -481 -369l-10 -57q79 -2 121 -43
t42 -104q0 -98 -72 -161q-73 -62 -206 -63h-154l25 132h115q106 0 106 81q0 53 -82 54h-74l89 161q-233 9 -335 95t-77 237h299q-10 -63 36 -96t146 -33z" />
    <glyph glyph-name="scircumflex.sc" unicode="&#xf69a;" horiz-adv-x="1155" 
d="M293 1229l319 336h222l204 -336h-239l-99 186l-165 -186h-242zM518 180q199 0 199 121q0 87 -203 121q-84 14 -169 39t-144 91t-60 173q0 160 127 262q127 103 373 103q245 0 357 -90t87 -236h-292q10 59 -35 90t-131 31q-180 0 -181 -115q0 -87 150 -109t283 -74
q67 -26 109 -87t42 -154q0 -371 -526 -371q-262 0 -378 87t-89 247h299q-10 -63 36 -96t146 -33z" />
    <glyph glyph-name="scommaaccent.sc" unicode="&#xf69b;" horiz-adv-x="1155" 
d="M352 -117h271l-33 -190l-152 -230h-123l117 201h-119zM518 180q199 0 199 121q0 87 -203 121q-84 14 -169 39t-144 91t-60 173q0 160 127 262q127 103 373 103q245 0 357 -90t87 -236h-292q10 59 -35 90t-131 31q-180 0 -181 -115q0 -87 150 -109t283 -74q67 -26 109 -87
t42 -154q0 -371 -526 -371q-262 0 -378 87t-89 247h299q-10 -63 36 -96t146 -33z" />
    <glyph glyph-name="tbar.sc" unicode="&#xf69c;" horiz-adv-x="1128" 
d="M100 819l43 246h1022l-41 -246h-360l-51 -305h270l-25 -154h-270l-61 -360h-305l61 360h-268l24 154h269l51 305h-359z" />
    <glyph glyph-name="tcaron.sc" unicode="&#xf69d;" horiz-adv-x="1128" 
d="M575 1229l-206 336h239l99 -187l165 187h242l-319 -336h-220zM100 819l43 246h1022l-41 -246h-360l-137 -819h-305l137 819h-359z" />
    <glyph glyph-name="tcommaaccent.sc" unicode="&#xf69e;" horiz-adv-x="1128" 
d="M674 -227q0 -99 -73 -161t-206 -63h-153l24 132h115q106 0 106 81q0 53 -81 54h-74l100 184h-110l137 819h-359l43 246h1022l-41 -246h-360l-137 -819h-101l-16 -80q78 -2 121 -43t43 -104z" />
    <glyph glyph-name="ubreve.sc" unicode="&#xf69f;" horiz-adv-x="1292" 
d="M766 1237q-137 0 -217 76t-64 243h160q-2 -74 37 -114t109 -39q141 0 190 153h160q-76 -319 -375 -319zM106 438l107 627h305l-100 -616q-37 -219 186 -220q209 0 248 220l100 616h305l-100 -627q-41 -252 -187 -357t-391 -105t-379 112q-134 114 -94 350z" />
    <glyph glyph-name="uhungarumlaut.sc" unicode="&#xf6a0;" horiz-adv-x="1292" 
d="M440 1229l260 336h310l-365 -336h-205zM866 1229l260 336h308l-363 -336h-205zM106 438l107 627h305l-100 -616q-37 -219 186 -220q209 0 248 220l100 616h305l-100 -627q-41 -252 -187 -357t-391 -105t-379 112q-134 114 -94 350z" />
    <glyph glyph-name="umacron.sc" unicode="&#xf6a1;" horiz-adv-x="1292" 
d="M449 1298l34 197h633l-35 -197h-632zM106 438l107 627h305l-100 -616q-37 -219 186 -220q209 0 248 220l100 616h305l-100 -627q-41 -252 -187 -357t-391 -105t-379 112q-134 114 -94 350z" />
    <glyph glyph-name="uogonek.sc" unicode="&#xf6a2;" horiz-adv-x="1296" 
d="M666 -289h63l-27 -162h-81q-242 0 -242 170q0 156 201 256h-21q-244 1 -370 113t-87 350l107 627h305l-100 -616q-37 -219 186 -220q211 0 248 220l102 616h303l-100 -627q-47 -301 -293 -411q-279 -129 -278 -244q0 -72 84 -72z" />
    <glyph glyph-name="uring.sc" unicode="&#xf6a3;" horiz-adv-x="1292" 
d="M688 1396q0 -90 89 -91q42 1 75 33t33 78t-24 69q-23 23 -65 23t-75 -34q-33 -32 -33 -78zM767 1192q-97 0 -155 51q-57 51 -57 145t76 164q76 68 173 68t155 -52t59 -130q0 -110 -77 -178t-174 -68zM106 438l107 627h305l-100 -616q-37 -219 186 -220q209 0 248 220
l100 616h305l-100 -627q-41 -252 -187 -357t-391 -105t-379 112q-134 114 -94 350z" />
    <glyph glyph-name="utilde.sc" unicode="&#xf6a4;" horiz-adv-x="1292" 
d="M938 1444q80 0 100 98h142q-51 -272 -265 -272q-67 0 -153 43t-123 43q-76 0 -100 -99h-140q47 272 260 273q68 0 156 -43t123 -43zM106 438l107 627h305l-100 -616q-37 -219 186 -220q209 0 248 220l100 616h305l-100 -627q-41 -252 -187 -357t-391 -105t-379 112
q-134 114 -94 350z" />
    <glyph glyph-name="wacute.sc" unicode="&#xf6a5;" horiz-adv-x="1699" 
d="M862 1229l258 336h310l-363 -336h-205zM203 0l-92 1065h321l35 -756h8l336 756h266l86 -756h8l275 756h321l-440 -1065h-381l-67 666h-9l-290 -666h-377z" />
    <glyph glyph-name="wcircumflex.sc" unicode="&#xf6a6;" horiz-adv-x="1699" 
d="M588 1229l319 336h221l205 -336h-239l-99 186l-166 -186h-241zM203 0l-92 1065h321l35 -756h8l336 756h266l86 -756h8l275 756h321l-440 -1065h-381l-67 666h-9l-290 -666h-377z" />
    <glyph glyph-name="wdieresis.sc" unicode="&#xf6a7;" horiz-adv-x="1699" 
d="M602 1280l45 262h271l-46 -262h-270zM1069 1280l43 262h270l-43 -262h-270zM203 0l-92 1065h321l35 -756h8l336 756h266l86 -756h8l275 756h321l-440 -1065h-381l-67 666h-9l-290 -666h-377z" />
    <glyph glyph-name="wgrave.sc" unicode="&#xf6a8;" horiz-adv-x="1699" 
d="M870 1229l-249 336h292l146 -336h-189zM203 0l-92 1065h321l35 -756h8l336 756h266l86 -756h8l275 756h321l-440 -1065h-381l-67 666h-9l-290 -666h-377z" />
    <glyph glyph-name="ycircumflex.sc" unicode="&#xf6a9;" horiz-adv-x="1189" 
d="M340 1229l319 336h222l204 -336h-239l-98 186l-166 -186h-242zM352 0l64 395l-316 670h340l174 -403h9l323 403h326l-551 -674l-64 -391h-305z" />
    <glyph glyph-name="ygrave.sc" unicode="&#xf6aa;" horiz-adv-x="1189" 
d="M623 1229l-250 336h293l145 -336h-188zM352 0l64 395l-316 670h340l174 -403h9l323 403h326l-551 -674l-64 -391h-305z" />
    <glyph glyph-name="zacute.sc" unicode="&#xf6ab;" horiz-adv-x="1101" 
d="M575 1229l259 336h309l-363 -336h-205zM133 825l43 240h944l-28 -172l-643 -653h530l-43 -240h-952l26 164l652 661h-529z" />
    <glyph glyph-name="zdotaccent.sc" unicode="&#xf6ac;" horiz-adv-x="1101" 
d="M549 1280l47 262h270l-47 -262h-270zM133 825l43 240h944l-28 -172l-643 -653h530l-43 -240h-952l26 164l652 661h-529z" />
    <glyph glyph-name="idotaccent.sc" unicode="&#xf6ad;" horiz-adv-x="620" 
d="M299 1280l47 262h270l-47 -262h-270zM68 0l180 1065h305l-180 -1065h-305z" />
    <glyph glyph-name="parenleft.cap" unicode="&#xf6ae;" horiz-adv-x="731" 
d="M434 476q0 -308 156 -607h-277q-163 273 -163 595t132 601t314 475h281q-179 -203 -311 -479q-132 -277 -132 -585z" />
    <glyph glyph-name="parenright.cap" unicode="&#xf6af;" horiz-adv-x="731" 
d="M354 933q0 308 -155 607h276q164 -272 164 -594t-132 -602q-132 -279 -314 -475h-281q180 201 311 479t131 585z" />
    <glyph glyph-name="bracketleft.cap" unicode="&#xf6b0;" horiz-adv-x="731" 
d="M27 -131l286 1671h564l-43 -231h-285l-211 -1209h287l-35 -231h-563z" />
    <glyph glyph-name="bracketright.cap" unicode="&#xf6b1;" horiz-adv-x="731" 
d="M-45 100h285l209 1209h-285l35 231h563l-287 -1671h-563z" />
    <glyph glyph-name="braceleft.cap" unicode="&#xf6b2;" horiz-adv-x="813" 
d="M805 1540h160l-41 -229h-127q-78 0 -116 -36t-54 -130l-25 -141q-23 -132 -74 -192t-170 -91v-8q106 -33 138 -106t4 -216l-25 -127q-15 -98 9 -132t114 -34h115l-35 -229h-156q-208 0 -284 83t-41 267l26 143q23 130 -12 186t-174 56l39 225q137 -1 190 55t82 210
l21 106q35 188 131 264t305 76z" />
    <glyph glyph-name="braceright.cap" unicode="&#xf6b3;" horiz-adv-x="813" 
d="M82 98q78 0 116 36t54 130l24 152q23 131 78 194t174 95v8q-110 33 -142 103t-5 212l22 117q16 98 -8 132q-25 34 -114 34h-115l35 229h155q209 0 285 -83t41 -267l-25 -133q-23 -127 15 -181t178 -55l-39 -225q-137 0 -190 -57t-84 -213l-21 -117q-35 -186 -133 -263
t-307 -77h-162l41 229h127z" />
    <glyph glyph-name="exclamdown.cap" unicode="&#xf6b4;" horiz-adv-x="595" 
d="M43 0l68 381l174 596h178l-27 -596l-65 -381h-328zM244 1114l49 295h305l-51 -295h-303z" />
    <glyph glyph-name="questiondown.cap" unicode="&#xf6b5;" horiz-adv-x="1071" 
d="M14 324q0 104 43 182t108 126t131 88q161 98 181 208l8 45h281l-8 -45q-18 -104 -72 -182t-114 -120q-62 -42 -121 -79q-140 -88 -140 -197q0 -61 47 -100t127 -39q199 0 238 207h291q-25 -195 -163 -319t-400 -124q-197 -1 -317 93t-120 256zM487 1114l50 295h309
l-49 -295h-310z" />
    <glyph glyph-name="guillemotleft.cap" unicode="&#xf6b6;" horiz-adv-x="1202" 
d="M352 295l-229 418l369 417h253l-307 -434l162 -401h-248zM823 295l-229 418l369 417h256l-310 -434l164 -401h-250z" />
    <glyph glyph-name="guillemotright.cap" unicode="&#xf6b7;" horiz-adv-x="1202" 
d="M45 295l309 434l-164 401h250l230 -417l-369 -418h-256zM518 295l309 434l-163 401h249l230 -417l-369 -418h-256z" />
    <glyph glyph-name="guilsinglleft.cap" unicode="&#xf6b8;" horiz-adv-x="735" 
d="M352 295l-229 418l369 417h253l-307 -434l162 -401h-248z" />
    <glyph glyph-name="guilsinglright.cap" unicode="&#xf6b9;" horiz-adv-x="735" 
d="M45 295l309 434l-164 401h250l230 -417l-369 -418h-256z" />
    <glyph glyph-name="hyphen.cap" unicode="&#xf6ba;" horiz-adv-x="811" 
d="M111 586l41 254h606l-41 -254h-606z" />
    <glyph glyph-name="endash.cap" unicode="&#xf6bb;" horiz-adv-x="1138" 
d="M111 586l41 254h933l-41 -254h-933z" />
    <glyph glyph-name="emdash.cap" unicode="&#xf6bc;" horiz-adv-x="1720" 
d="M111 586l41 254h1521l-43 -254h-1519z" />
    <glyph glyph-name="periodcentered.cap" unicode="&#xf6bd;" horiz-adv-x="598" 
d="M135 559l53 307h330l-51 -307h-332z" />
    <glyph glyph-name="dotlessj" unicode="&#xf6be;" horiz-adv-x="581" 
d="M-111 -221q68 -1 100 35t46 118l186 1067h303l-186 -1077q-35 -190 -136 -281t-317 -92h-94l41 230h57z" />
    <glyph glyph-name="space_uni0326" unicode="&#xf6c3;" horiz-adv-x="1249" 
d="M381 -117h270l-33 -190l-151 -230h-123l117 201h-119z" />
    <glyph glyph-name="cent.inferior" unicode="&#xf6df;" horiz-adv-x="765" 
d="M-12 -8q0 127 80 206t215 95l22 117h166l-25 -119q84 -15 142 -67t59 -138h-229q-4 72 -82 72q-53 0 -87 -42t-34 -114q0 -88 88 -88q37 0 65 20t35 50h224q-18 -76 -86 -136t-183 -75l-18 -101h-166l19 107q-97 21 -151 75t-54 138z" />
    <glyph glyph-name="cent.superior" unicode="&#xf6e0;" horiz-adv-x="765" 
d="M193 1319q0 127 79 206q80 79 215 95l23 117h166l-25 -119q83 -16 141 -68t60 -137h-229q-4 72 -82 72q-53 0 -87 -42t-34 -114q0 -88 88 -88q36 1 64 21t36 49h223q-18 -76 -86 -136t-182 -75l-18 -101h-166l18 107q-96 20 -150 74t-54 139z" />
    <glyph glyph-name="comma.inferior" unicode="&#xf6e1;" horiz-adv-x="434" 
d="M-14 -311l37 223h215l-37 -215l-115 -260h-106l96 252h-90z" />
    <glyph glyph-name="comma.superior" unicode="&#xf6e2;" horiz-adv-x="434" 
d="M190 1016l37 223h215l-36 -215l-115 -260h-107l97 252h-91z" />
    <glyph glyph-name="dollar.inferior" unicode="&#xf6e3;" horiz-adv-x="765" 
d="M176 -106q0 -84 110 -84t111 75q0 39 -58 57t-128 28q-70 8 -128 56t-58 140t72 159q73 67 200 81l20 110h164l-22 -117q86 -18 137 -69t53 -133h-211q0 33 -27 51q-28 18 -69 18q-102 0 -102 -69q0 -48 99 -64q199 -28 255 -109q29 -42 29 -102q0 -113 -75 -174
t-210 -72l-21 -127h-163l22 132q-211 31 -209 213h209z" />
    <glyph glyph-name="dollar.superior" unicode="&#xf6e4;" horiz-adv-x="765" 
d="M381 1221q1 -84 111 -84t110 75q0 40 -58 58t-128 27t-128 57t-58 139q0 92 72 159q73 67 200 81l20 110h164l-22 -117q86 -18 137 -69t53 -133h-211q0 33 -28 51t-68 18q-102 0 -103 -69q0 -47 100 -64q199 -28 255 -109q29 -42 28 -102q-1 -113 -75 -174t-209 -71
l-21 -127h-164l23 131q-211 31 -209 213h209z" />
    <glyph glyph-name="hyphen.inferior" unicode="&#xf6e5;" horiz-adv-x="600" 
d="M-10 -41l30 172h463l-30 -172h-463z" />
    <glyph glyph-name="hyphen.superior" unicode="&#xf6e6;" horiz-adv-x="600" 
d="M195 1286l30 172h463l-31 -172h-462z" />
    <glyph glyph-name="period.inferior" unicode="&#xf6e7;" horiz-adv-x="434" 
d="M-14 -311l37 223h215l-39 -223h-213z" />
    <glyph glyph-name="period.superior" unicode="&#xf6e8;" horiz-adv-x="434" 
d="M190 1016l37 223h215l-39 -223h-213z" />
    <glyph glyph-name="a.superior" unicode="&#xf6e9;" horiz-adv-x="915" 
d="M430 1334q0 -166 125 -165q76 0 130 75t54 159q0 164 -125 164q-76 0 -130 -75q-54 -76 -54 -158zM692 1114v2q-82 -117 -237 -117q-111 0 -188 78t-77 217q0 207 114 325t257 118q180 0 213 -131h8l21 114h227l-121 -704h-227l16 98h-6z" />
    <glyph glyph-name="b.superior" unicode="&#xf6ea;" horiz-adv-x="917" 
d="M455 1334q0 -166 125 -165q76 0 130 75q54 76 54 158q0 166 -125 165q-76 0 -130 -75q-54 -76 -54 -158zM502 1622v-2q80 117 237 117q111 0 188 -78t77 -217q0 -213 -113 -328t-258 -115q-180 0 -213 131h-8l-21 -114h-219l180 1057h232l-37 -207q-25 -139 -51 -244h6z
" />
    <glyph glyph-name="d.superior" unicode="&#xf6eb;" horiz-adv-x="915" 
d="M430 1334q0 -166 125 -165q76 0 130 75t54 159q0 164 -125 164q-76 0 -130 -75q-54 -76 -54 -158zM190 1294q0 207 114 325t257 118q180 0 213 -131h8q14 123 39 260l35 207h234l-181 -1057h-227l16 98h-6v2q-82 -117 -237 -117q-111 0 -188 78t-77 217z" />
    <glyph glyph-name="e.superior" unicode="&#xf6ec;" horiz-adv-x="874" 
d="M607 1571q-116 0 -161 -121h285q-8 121 -124 121zM190 1307q0 41 11 92q29 154 144 246q116 92 284 92q168 1 260 -105t61 -274l-8 -43h-516v-8q0 -147 133 -148q94 0 137 70h224q-80 -229 -377 -230q-165 1 -259 83t-94 225z" />
    <glyph glyph-name="i.superior" unicode="&#xf6ed;" horiz-adv-x="405" 
d="M172 1016l119 704h233l-121 -704h-231zM307 1858l37 215h246l-37 -215h-246z" />
    <glyph glyph-name="l.superior" unicode="&#xf6ee;" horiz-adv-x="411" 
d="M172 1016l180 1057h232l-181 -1057h-231z" />
    <glyph glyph-name="m.superior" unicode="&#xf6ef;" horiz-adv-x="1341" 
d="M732 1737q154 0 200 -131q98 131 262 131q117 0 180 -77t33 -255l-66 -389h-231l66 389q27 156 -91 156q-55 0 -95 -44t-54 -126l-64 -375h-231l66 389q27 156 -89 156q-123 0 -153 -181l-62 -364h-231l123 704h221l-16 -92h4q74 109 228 109z" />
    <glyph glyph-name="o.superior" unicode="&#xf6f0;" horiz-adv-x="897" 
d="M430 1335q0 -161 129 -159q80 0 135 70t56 175q0 139 -127 140q-81 0 -137 -70t-56 -156zM190 1300q0 197 129 317t307 120t272 -81q93 -81 93 -220q0 -197 -129 -317t-307 -120q-177 0 -271 81t-94 220z" />
    <glyph glyph-name="r.superior" unicode="&#xf6f1;" horiz-adv-x="620" 
d="M649 1520q-78 0 -130 -68t-70 -170l-46 -266h-231l119 704h225l-22 -131h6q82 147 213 148q55 0 90 -25l-70 -217q-41 25 -84 25z" />
    <glyph glyph-name="s.superior" unicode="&#xf6f2;" horiz-adv-x="806" 
d="M381 1223q0 -80 126 -80t126 76q0 31 -23 43t-69 20l-119 21q-190 29 -191 176q1 127 95 193t236 65t237 -53q94 -52 96 -168h-213q-6 78 -117 78t-110 -68q0 -41 90 -56l121 -20q86 -14 142 -60t56 -128q0 -138 -100 -200t-252 -62t-250 52q-96 54 -94 171h213z" />
    <glyph glyph-name="t.superior" unicode="&#xf6f3;" horiz-adv-x="581" 
d="M580 1212h75l-30 -196h-109q-168 0 -221 58t-27 210l41 248h-129l33 188h127l37 213h231l-39 -213h176l-32 -188h-176l-37 -219q-10 -57 6 -79t74 -22z" />
    <glyph glyph-name="lslash.sc" unicode="&#xf6f9;" horiz-adv-x="1042" 
d="M4 244l-65 131l211 110l98 580h305l-68 -401l191 100l57 -131l-278 -150l-41 -237h520l-41 -246h-825l51 305z" />
    <glyph glyph-name="oe.sc" unicode="&#xf6fa;" horiz-adv-x="1851" 
d="M383 463q0 -103 66 -165t200 -62h146l100 593h-152q-174 0 -267 -106t-93 -260zM70 444q0 274 184 448t491 173h1078l-37 -223h-584l-33 -199h469l-34 -211h-471l-35 -209h602l-37 -223h-1090q-239 0 -371 122t-132 322z" />
    <glyph glyph-name="scaron.sc" unicode="&#xf6fd;" horiz-adv-x="1155" 
d="M557 1229l-207 336h240l98 -187l166 187h242l-320 -336h-219zM518 180q199 0 199 121q0 87 -203 121q-84 14 -169 39t-144 91t-60 173q0 160 127 262q127 103 373 103q245 0 357 -90t87 -236h-292q10 59 -35 90t-131 31q-180 0 -181 -115q0 -87 150 -109t283 -74
q67 -26 109 -87t42 -154q0 -371 -526 -371q-262 0 -378 87t-89 247h299q-10 -63 36 -96t146 -33z" />
    <glyph glyph-name="zcaron.sc" unicode="&#xf6ff;" horiz-adv-x="1101" 
d="M565 1229l-207 336h240l98 -187l166 187h242l-320 -336h-219zM133 825l43 240h944l-28 -172l-643 -653h530l-43 -240h-952l26 164l652 661h-529z" />
    <glyph glyph-name="exclam.sc" unicode="&#xf721;" horiz-adv-x="573" 
d="M55 0l39 258h281l-37 -258h-283zM162 346l14 436l49 283h303l-49 -283l-139 -436h-178z" />
    <glyph glyph-name="ampersand.sc" unicode="&#xf726;" horiz-adv-x="1271" 
d="M500 793q0 -53 59 -127q86 34 130 70t44 81q0 97 -108 97q-55 0 -90 -34t-35 -87zM487 166q94 0 181 35l-230 235q-135 -66 -135 -151q0 -119 184 -119zM27 256q-1 118 77 192t211 127q-74 98 -73 191q0 129 104 222t288 93q184 1 267 -65q84 -66 84 -180t-80 -181
q-80 -68 -223 -125l166 -180q49 76 70 182h239q-37 -203 -162 -339l181 -193h-314l-51 53q-156 -78 -344 -78q-440 0 -440 281z" />
    <glyph glyph-name="zero.oldstyle" unicode="&#xf730;" horiz-adv-x="1275" 
d="M356 434q0 -109 62 -169t177 -60q114 0 211 97t97 263q0 109 -62 169t-176 60q-113 0 -211 -96q-98 -98 -98 -264zM53 418q1 256 183 431t471 175q237 0 367 -123t130 -319q0 -256 -181 -431t-470 -176q-238 0 -369 123t-131 320z" />
    <glyph glyph-name="one.oldstyle" unicode="&#xf731;" horiz-adv-x="833" 
d="M147 481l-102 207l520 311h191l-172 -999h-305l108 625z" />
    <glyph glyph-name="two.oldstyle" unicode="&#xf732;" horiz-adv-x="1101" 
d="M748 708q0 50 -41 78t-115 29q-176 0 -209 -168h-293q31 193 176 285q146 92 348 92t320 -79t119 -222q0 -68 -25 -124q-26 -56 -56 -88q-30 -31 -86 -61t-87 -40t-88 -29l-142 -43q-188 -55 -207 -121h594l-36 -217h-951q39 233 148 350t301 172l145 45q98 29 142 60
q43 31 43 81z" />
    <glyph glyph-name="three.oldstyle" unicode="&#xf733;" horiz-adv-x="1175" 
d="M795 634q-1 167 -183 167q-88 0 -150 -51t-79 -148h-285q34 206 182 314t360 108t329 -95t116 -255q-1 -121 -79 -219t-199 -127v-9q100 -31 158 -109q57 -79 57 -190q0 -218 -165 -336t-411 -118t-378 112q-134 112 -101 338h285q-10 -111 43 -169t165 -58
q112 -1 184 63t73 158q0 94 -54 142q-54 47 -151 47h-100l43 233h106q98 0 166 60t68 142z" />
    <glyph glyph-name="four.oldstyle" unicode="&#xf734;" horiz-adv-x="1200" 
d="M244 168h334l75 436zM-92 -74l31 199l827 897h262l-145 -854h211l-43 -242h-209l-58 -336h-305l58 336h-629z" />
    <glyph glyph-name="five.oldstyle" unicode="&#xf735;" horiz-adv-x="1134" 
d="M463 -205q101 0 177 76t75 203q0 84 -51 136t-136 52q-133 0 -219 -117l-260 25l195 829h858l-43 -243h-592l-78 -340h10q84 76 241 76q156 0 272 -100t116 -279q0 -251 -173 -399t-399 -148t-362 100q-135 100 -133 301h299q4 -68 53 -120t150 -52z" />
    <glyph glyph-name="six.oldstyle" unicode="&#xf736;" horiz-adv-x="1224" 
d="M644 672q-98 0 -176 -76t-77 -203q0 -80 54 -134t151 -54q96 0 172 77t76 201q0 84 -51 137q-51 52 -149 52zM78 457q0 150 22 272q62 340 240 522t442 183q193 0 315 -96t120 -294h-295q2 76 -40 118t-122 42q-109 0 -198 -102t-136 -334q96 133 334 133q162 0 276 -99
t115 -280q0 -250 -172 -398q-171 -148 -403 -148t-365 122q-133 123 -133 359z" />
    <glyph glyph-name="seven.oldstyle" unicode="&#xf737;" horiz-adv-x="1038" 
d="M-29 -410l725 1149h-630l40 260h975l-30 -176l-766 -1233h-314z" />
    <glyph glyph-name="eight.oldstyle" unicode="&#xf738;" horiz-adv-x="1187" 
d="M475 1010q0 -84 49 -126t139 -42t156 59t66 143t-49 126t-138 42t-156 -59t-67 -143zM807 423q0 185 -213 185q-104 0 -182 -68t-78 -157q0 -184 214 -184q106 1 182 67t77 157zM31 334q0 140 89 246t234 149v8q-70 27 -116 101t-48 163q0 197 158 315t374 118t335 -96
t119 -261q0 -117 -80 -214t-197 -126v-8q97 -31 155 -111t58 -188q0 -219 -169 -337t-413 -118q-244 -1 -371 93q-128 94 -128 266z" />
    <glyph glyph-name="nine.oldstyle" unicode="&#xf739;" horiz-adv-x="1224" 
d="M568 328q98 0 176 74t77 204q0 80 -54 134q-55 54 -151 54t-172 -76q-76 -77 -75 -202q0 -84 51 -136q50 -52 148 -52zM455 -205q240 0 329 430q-100 -127 -331 -127q-162 0 -277 100t-115 279q0 251 172 399q171 148 403 148t364 -123t133 -358q0 -160 -21 -273
q-62 -340 -238 -522t-442 -182q-192 0 -314 95t-120 294h295q-2 -76 40 -118t122 -42z" />
    <glyph glyph-name="question.sc" unicode="&#xf73f;" horiz-adv-x="987" 
d="M244 0l45 258h278l-45 -258h-278zM538 885q-78 0 -129 -40q-50 -40 -63 -102h-274q27 150 149 248q123 99 329 99t320 -73q113 -73 113 -202q0 -82 -38 -142t-95 -94q-56 -34 -114 -62q-141 -69 -158 -140l-9 -31h-264l6 31q17 84 65 143t100 89t102 54q50 23 84 53
q32 30 32 74t-39 69q-39 26 -117 26z" />
    <glyph glyph-name="a.sc" unicode="&#xf761;" horiz-adv-x="1214" 
d="M641 795l-195 -379h271l-68 379h-8zM-80 0l584 1065h373l237 -1065h-323l-33 186h-428l-94 -186h-316z" />
    <glyph glyph-name="b.sc" unicode="&#xf762;" horiz-adv-x="1277" 
d="M772 858h-254l-37 -211h252q66 0 106 35t40 90q-1 86 -107 86zM735 446h-286l-41 -239h288q68 0 110 40t42 93q0 106 -113 106zM872 1065q156 0 238 -67t82 -169t-53 -172t-164 -92v-8q88 -15 137 -75t49 -140q1 -154 -115 -248t-311 -94h-667l180 1065h624z" />
    <glyph glyph-name="c.sc" unicode="&#xf763;" horiz-adv-x="1253" 
d="M70 446q0 276 184 460t475 184q209 0 345 -113t138 -285h-294q-14 66 -66 110t-139 44q-139 0 -231 -109t-93 -274q-1 -109 61 -177t164 -67q172 0 248 154h299q-53 -176 -205 -287t-378 -111t-367 131t-141 340z" />
    <glyph glyph-name="d.sc" unicode="&#xf764;" horiz-adv-x="1308" 
d="M666 829h-154l-100 -593h157q176 0 269 106q92 106 92 260q0 104 -66 166t-198 61zM739 1065q240 0 372 -123t132 -321q0 -273 -184 -447t-492 -174h-499l180 1065h491z" />
    <glyph glyph-name="e.sc" unicode="&#xf765;" 
d="M68 0l180 1065h885l-35 -223h-584l-33 -199h469l-37 -211h-469l-34 -209h602l-37 -223h-907z" />
    <glyph glyph-name="f.sc" unicode="&#xf766;" horiz-adv-x="1099" 
d="M68 0l180 1065h860l-35 -223h-559l-45 -267h451l-35 -217h-453l-59 -358h-305z" />
    <glyph glyph-name="g.sc" unicode="&#xf767;" horiz-adv-x="1349" 
d="M922 0v94h-9q-133 -119 -350 -119q-217 1 -353 133t-136 341q0 279 187 459t484 182q223 0 357 -104t137 -263h-297q-44 127 -202 127t-254 -111t-95 -282q0 -106 68 -176t178 -70t186 50t97 134h-246l28 199h521l-97 -594h-204z" />
    <glyph glyph-name="h.sc" unicode="&#xf768;" horiz-adv-x="1359" 
d="M68 0l180 1065h305l-70 -406h435l69 406h305l-180 -1065h-305l70 414h-435l-69 -414h-305z" />
    <glyph glyph-name="i.sc" unicode="&#xf769;" horiz-adv-x="620" 
d="M68 0l180 1065h305l-180 -1065h-305z" />
    <glyph glyph-name="j.sc" unicode="&#xf76a;" horiz-adv-x="1038" 
d="M428 207q113 0 133 127l127 731h305l-125 -731q-66 -358 -462 -359q-194 1 -292 95t-67 278l8 41h291l-10 -57q-10 -57 14 -91t78 -34z" />
    <glyph glyph-name="k.sc" unicode="&#xf76b;" horiz-adv-x="1271" 
d="M68 0l180 1065h305l-76 -438l481 438h349l-514 -463l368 -602h-338l-243 410l-164 -148l-43 -262h-305z" />
    <glyph glyph-name="l.sc" unicode="&#xf76c;" horiz-adv-x="1042" 
d="M68 0l180 1065h305l-139 -819h520l-41 -246h-825z" />
    <glyph glyph-name="m.sc" unicode="&#xf76d;" horiz-adv-x="1669" 
d="M68 0l180 1065h409l152 -670h4l387 670h402l-181 -1065h-299l131 688h-10l-397 -688h-209l-168 688h-10l-92 -688h-299z" />
    <glyph glyph-name="n.sc" unicode="&#xf76e;" horiz-adv-x="1359" 
d="M68 0l180 1065h254l381 -592h8l96 592h305l-180 -1065h-254l-381 592h-12l-88 -592h-309z" />
    <glyph glyph-name="o.sc" unicode="&#xf76f;" horiz-adv-x="1351" 
d="M389 471q-1 -113 63 -183t178 -69q114 0 203 74t117 196q12 66 13 105q0 112 -65 182q-66 70 -178 70t-201 -74q-130 -108 -130 -301zM70 446q0 279 189 461t486 183q243 0 389 -132t146 -340q0 -278 -189 -460t-487 -183q-244 0 -389 131t-145 340z" />
    <glyph glyph-name="p.sc" unicode="&#xf770;" horiz-adv-x="1224" 
d="M729 842h-215l-53 -303h217q86 0 138 49q52 50 52 118q0 136 -139 136zM803 1065q176 0 279 -88t104 -232q0 -201 -136 -315t-356 -115h-272l-53 -315h-301l180 1065h555z" />
    <glyph glyph-name="q.sc" unicode="&#xf771;" horiz-adv-x="1355" 
d="M389 471q-1 -113 63 -183t178 -69q114 0 203 74t117 196q12 66 13 105q0 112 -65 182q-66 70 -178 70t-201 -74q-130 -108 -130 -301zM70 446q0 279 189 461t486 183q243 0 389 -132t146 -340q0 -301 -215 -483l162 -203l-223 -159l-181 233q-113 -31 -219 -31
q-244 0 -389 131t-145 340z" />
    <glyph glyph-name="r.sc" unicode="&#xf772;" horiz-adv-x="1265" 
d="M741 842h-227l-47 -273h227q80 0 128 42q48 43 48 107q0 124 -129 124zM821 1065q177 0 273 -82t96 -218q0 -135 -77 -235t-210 -147l209 -383h-321l-179 350h-182l-59 -350h-305l182 1065h573z" />
    <glyph glyph-name="s.sc" unicode="&#xf773;" horiz-adv-x="1155" 
d="M518 180q199 0 199 121q0 87 -203 121q-84 14 -169 39t-144 91t-60 173q0 160 127 262q127 103 373 103q245 0 357 -90t87 -236h-292q10 59 -35 90t-131 31q-180 0 -181 -115q0 -87 150 -109t283 -74q67 -26 109 -87t42 -154q0 -371 -526 -371q-262 0 -378 87t-89 247
h299q-10 -63 36 -96t146 -33z" />
    <glyph glyph-name="t.sc" unicode="&#xf774;" horiz-adv-x="1128" 
d="M100 819l43 246h1022l-41 -246h-360l-137 -819h-305l137 819h-359z" />
    <glyph glyph-name="u.sc" unicode="&#xf775;" horiz-adv-x="1292" 
d="M106 438l107 627h305l-100 -616q-37 -219 186 -220q209 0 248 220l100 616h305l-100 -627q-41 -252 -187 -357t-391 -105t-379 112q-134 114 -94 350z" />
    <glyph glyph-name="v.sc" unicode="&#xf776;" horiz-adv-x="1198" 
d="M330 0l-230 1065h324l133 -795h8l400 795h313l-576 -1065h-372z" />
    <glyph glyph-name="w.sc" unicode="&#xf777;" horiz-adv-x="1699" 
d="M203 0l-92 1065h321l35 -756h8l336 756h266l86 -756h8l275 756h321l-440 -1065h-381l-67 666h-9l-290 -666h-377z" />
    <glyph glyph-name="x.sc" unicode="&#xf778;" horiz-adv-x="1191" 
d="M-74 0l490 541l-299 524h354l168 -311l264 311h340l-465 -522l307 -543h-344l-188 342l-287 -342h-340z" />
    <glyph glyph-name="y.sc" unicode="&#xf779;" horiz-adv-x="1189" 
d="M352 0l64 395l-316 670h340l174 -403h9l323 403h326l-551 -674l-64 -391h-305z" />
    <glyph glyph-name="z.sc" unicode="&#xf77a;" horiz-adv-x="1101" 
d="M133 825l43 240h944l-28 -172l-643 -653h530l-43 -240h-952l26 164l652 661h-529z" />
    <glyph glyph-name="exclamdown.sc" unicode="&#xf7a1;" horiz-adv-x="573" 
d="M45 0l49 283l139 436h179l-15 -436l-49 -283h-303zM199 807l37 258h282l-39 -258h-280z" />
    <glyph glyph-name="questiondown.sc" unicode="&#xf7bf;" horiz-adv-x="987" 
d="M-4 256q0 82 38 142t95 94t115 62q141 67 157 140l7 33h266l-6 -33q-24 -100 -90 -168t-129 -92t-115 -61q-51 -37 -51 -85t40 -75q39 -27 117 -27t129 41t64 103h272q-25 -150 -147 -248t-330 -98q-206 0 -319 72t-113 200zM412 815l45 258h278l-45 -258h-278z" />
    <glyph glyph-name="agrave.sc" unicode="&#xf7e0;" horiz-adv-x="1214" 
d="M623 1229l-250 336h293l145 -336h-188zM641 795l-195 -379h271l-68 379h-8zM-80 0l584 1065h373l237 -1065h-323l-33 186h-428l-94 -186h-316z" />
    <glyph glyph-name="aacute.sc" unicode="&#xf7e1;" horiz-adv-x="1214" 
d="M614 1229l258 336h310l-363 -336h-205zM641 795l-195 -379h271l-68 379h-8zM-80 0l584 1065h373l237 -1065h-323l-33 186h-428l-94 -186h-316z" />
    <glyph glyph-name="acircumflex.sc" unicode="&#xf7e2;" horiz-adv-x="1214" 
d="M340 1229l319 336h222l204 -336h-239l-98 186l-166 -186h-242zM641 795l-195 -379h271l-68 379h-8zM-80 0l584 1065h373l237 -1065h-323l-33 186h-428l-94 -186h-316z" />
    <glyph glyph-name="atilde.sc" unicode="&#xf7e3;" horiz-adv-x="1214" 
d="M893 1444q80 0 100 98h142q-51 -272 -265 -272q-68 0 -154 43t-122 43q-76 0 -100 -99h-140q47 272 260 273q68 0 156 -43t123 -43zM641 795l-195 -379h271l-68 379h-8zM-80 0l584 1065h373l237 -1065h-323l-33 186h-428l-94 -186h-316z" />
    <glyph glyph-name="adieresis.sc" unicode="&#xf7e4;" horiz-adv-x="1214" 
d="M354 1280l45 262h271l-45 -262h-271zM821 1280l43 262h271l-43 -262h-271zM641 795l-195 -379h271l-68 379h-8zM-80 0l584 1065h373l237 -1065h-323l-33 186h-428l-94 -186h-316z" />
    <glyph glyph-name="aring.sc" unicode="&#xf7e5;" horiz-adv-x="1214" 
d="M643 1396q0 -90 89 -91q42 1 75 33t33 78t-24 69t-66 23t-74 -34q-33 -32 -33 -78zM722 1192q-97 0 -155 51q-57 51 -57 145t76 164q76 68 173 68t155 -52t59 -130q0 -110 -77 -178t-174 -68zM641 795l-195 -379h271l-68 379h-8zM-80 0l584 1065h373l237 -1065h-323
l-33 186h-428l-94 -186h-316z" />
    <glyph glyph-name="ae.sc" unicode="&#xf7e6;" horiz-adv-x="1890" 
d="M918 795l-310 -361h260l60 361h-10zM-102 0l942 1065h1020l-35 -223h-584l-33 -199h469l-35 -211h-471l-34 -209h602l-37 -223h-907l36 225h-403l-192 -225h-338z" />
    <glyph glyph-name="ccedilla.sc" unicode="&#xf7e7;" horiz-adv-x="1253" 
d="M70 446q0 276 184 460t475 184q209 0 345 -113t138 -285h-294q-14 66 -66 110t-139 44q-139 0 -231 -109t-93 -274q-1 -109 61 -177t164 -67q172 0 248 154h299q-51 -168 -192 -277t-340 -119l-11 -57q78 -2 121 -43t43 -104q0 -98 -72 -161q-73 -62 -206 -63h-154
l25 132h114q106 0 107 81q0 53 -82 54h-74l88 161q-214 19 -336 147t-122 322z" />
    <glyph glyph-name="egrave.sc" unicode="&#xf7e8;" 
d="M618 1229l-249 336h293l145 -336h-189zM68 0l180 1065h885l-35 -223h-584l-33 -199h469l-37 -211h-469l-34 -209h602l-37 -223h-907z" />
    <glyph glyph-name="eacute.sc" unicode="&#xf7e9;" 
d="M610 1229l258 336h310l-363 -336h-205zM68 0l180 1065h885l-35 -223h-584l-33 -199h469l-37 -211h-469l-34 -209h602l-37 -223h-907z" />
    <glyph glyph-name="ecircumflex.sc" unicode="&#xf7ea;" 
d="M336 1229l319 336h222l204 -336h-239l-99 186l-165 -186h-242zM68 0l180 1065h885l-35 -223h-584l-33 -199h469l-37 -211h-469l-34 -209h602l-37 -223h-907z" />
    <glyph glyph-name="edieresis.sc" unicode="&#xf7eb;" 
d="M350 1280l45 262h271l-45 -262h-271zM817 1280l43 262h270l-43 -262h-270zM68 0l180 1065h885l-35 -223h-584l-33 -199h469l-37 -211h-469l-34 -209h602l-37 -223h-907z" />
    <glyph glyph-name="igrave.sc" unicode="&#xf7ec;" horiz-adv-x="620" 
d="M334 1229l-250 336h293l145 -336h-188zM68 0l180 1065h305l-180 -1065h-305z" />
    <glyph glyph-name="iacute.sc" unicode="&#xf7ed;" horiz-adv-x="620" 
d="M326 1229l258 336h309l-363 -336h-204zM68 0l180 1065h305l-180 -1065h-305z" />
    <glyph glyph-name="icircumflex.sc" unicode="&#xf7ee;" horiz-adv-x="620" 
d="M51 1229l320 336h221l205 -336h-240l-98 186l-166 -186h-242zM68 0l180 1065h305l-180 -1065h-305z" />
    <glyph glyph-name="idieresis.sc" unicode="&#xf7ef;" horiz-adv-x="620" 
d="M66 1280l45 262h270l-45 -262h-270zM532 1280l43 262h271l-43 -262h-271zM68 0l180 1065h305l-180 -1065h-305z" />
    <glyph glyph-name="eth.sc" unicode="&#xf7f0;" horiz-adv-x="1308" 
d="M666 829h-154l-37 -219h205l-25 -155h-206l-37 -219h157q176 0 269 106q92 106 92 260q0 104 -66 166t-198 61zM739 1065q240 0 372 -123t132 -321q0 -273 -184 -447t-492 -174h-499l75 455h-149l24 155h152l78 455h491z" />
    <glyph glyph-name="ntilde.sc" unicode="&#xf7f1;" horiz-adv-x="1359" 
d="M973 1444q80 0 100 98h141q-51 -272 -264 -272q-68 0 -154 43t-122 43q-76 0 -101 -99h-139q47 272 260 273q68 0 156 -43t123 -43zM68 0l180 1065h254l381 -592h8l96 592h305l-180 -1065h-254l-381 592h-12l-88 -592h-309z" />
    <glyph glyph-name="ograve.sc" unicode="&#xf7f2;" horiz-adv-x="1351" 
d="M692 1229l-250 336h293l146 -336h-189zM389 471q-1 -113 63 -183t178 -69q114 0 203 74t117 196q12 66 13 105q0 112 -65 182q-66 70 -178 70t-201 -74q-130 -108 -130 -301zM70 446q0 279 189 461t486 183q243 0 389 -132t146 -340q0 -278 -189 -460t-487 -183
q-244 0 -389 131t-145 340z" />
    <glyph glyph-name="oacute.sc" unicode="&#xf7f3;" horiz-adv-x="1351" 
d="M684 1229l258 336h309l-362 -336h-205zM389 471q-1 -113 63 -183t178 -69q114 0 203 74t117 196q12 66 13 105q0 112 -65 182q-66 70 -178 70t-201 -74q-130 -108 -130 -301zM70 446q0 279 189 461t486 183q243 0 389 -132t146 -340q0 -278 -189 -460t-487 -183
q-244 0 -389 131t-145 340z" />
    <glyph glyph-name="ocircumflex.sc" unicode="&#xf7f4;" horiz-adv-x="1351" 
d="M410 1229l319 336h221l205 -336h-240l-98 186l-166 -186h-241zM389 471q-1 -113 63 -183t178 -69q114 0 203 74t117 196q12 66 13 105q0 112 -65 182q-66 70 -178 70t-201 -74q-130 -108 -130 -301zM70 446q0 279 189 461t486 183q243 0 389 -132t146 -340
q0 -278 -189 -460t-487 -183q-244 0 -389 131t-145 340z" />
    <glyph glyph-name="otilde.sc" unicode="&#xf7f5;" horiz-adv-x="1351" 
d="M963 1444q80 0 100 98h141q-51 -272 -264 -272q-68 0 -154 43t-122 43q-76 0 -101 -99h-139q47 272 260 273q68 0 156 -43t123 -43zM389 471q-1 -113 63 -183t178 -69q114 0 203 74t117 196q12 66 13 105q0 112 -65 182q-66 70 -178 70t-201 -74q-130 -108 -130 -301z
M70 446q0 279 189 461t486 183q243 0 389 -132t146 -340q0 -278 -189 -460t-487 -183q-244 0 -389 131t-145 340z" />
    <glyph glyph-name="odieresis.sc" unicode="&#xf7f6;" horiz-adv-x="1351" 
d="M424 1280l45 262h270l-45 -262h-270zM891 1280l43 262h270l-43 -262h-270zM389 471q-1 -113 63 -183t178 -69q114 0 203 74t117 196q12 66 13 105q0 112 -65 182q-66 70 -178 70t-201 -74q-130 -108 -130 -301zM70 446q0 279 189 461t486 183q243 0 389 -132t146 -340
q0 -278 -189 -460t-487 -183q-244 0 -389 131t-145 340z" />
    <glyph glyph-name="oslash.sc" unicode="&#xf7f8;" horiz-adv-x="1351" 
d="M389 469q0 -57 19 -107l454 445q-59 39 -137 39q-117 0 -206 -74q-130 -108 -130 -303zM644 219q100 0 189 74t117 196q12 66 12 114t-20 104l-459 -447q61 -41 161 -41zM70 446q0 279 189 461t486 183q184 0 322 -82l84 82h180l-166 -164q115 -125 115 -308
q0 -278 -189 -460t-487 -183q-190 0 -325 84l-84 -84h-183l168 164q-110 123 -110 307z" />
    <glyph glyph-name="ugrave.sc" unicode="&#xf7f9;" horiz-adv-x="1292" 
d="M668 1229l-250 336h293l145 -336h-188zM106 438l107 627h305l-100 -616q-37 -219 186 -220q209 0 248 220l100 616h305l-100 -627q-41 -252 -187 -357t-391 -105t-379 112q-134 114 -94 350z" />
    <glyph glyph-name="uacute.sc" unicode="&#xf7fa;" horiz-adv-x="1292" 
d="M659 1229l259 336h309l-363 -336h-205zM106 438l107 627h305l-100 -616q-37 -219 186 -220q209 0 248 220l100 616h305l-100 -627q-41 -252 -187 -357t-391 -105t-379 112q-134 114 -94 350z" />
    <glyph glyph-name="ucircumflex.sc" unicode="&#xf7fb;" horiz-adv-x="1292" 
d="M385 1229l320 336h221l204 -336h-239l-98 186l-166 -186h-242zM106 438l107 627h305l-100 -616q-37 -219 186 -220q209 0 248 220l100 616h305l-100 -627q-41 -252 -187 -357t-391 -105t-379 112q-134 114 -94 350z" />
    <glyph glyph-name="udieresis.sc" unicode="&#xf7fc;" horiz-adv-x="1292" 
d="M399 1280l45 262h271l-45 -262h-271zM866 1280l43 262h271l-43 -262h-271zM106 438l107 627h305l-100 -616q-37 -219 186 -220q209 0 248 220l100 616h305l-100 -627q-41 -252 -187 -357t-391 -105t-379 112q-134 114 -94 350z" />
    <glyph glyph-name="yacute.sc" unicode="&#xf7fd;" horiz-adv-x="1189" 
d="M614 1229l258 336h310l-363 -336h-205zM352 0l64 395l-316 670h340l174 -403h9l323 403h326l-551 -674l-64 -391h-305z" />
    <glyph glyph-name="thorn.sc" unicode="&#xf7fe;" horiz-adv-x="1224" 
d="M705 694h-218l-51 -303h217q86 0 139 49q52 50 52 118q0 136 -139 136zM778 918q176 0 280 -88t103 -232q0 -202 -136 -316t-355 -114h-273l-28 -168h-301l180 1065h305l-27 -147h252z" />
    <glyph glyph-name="ydieresis.sc" unicode="&#xf7ff;" horiz-adv-x="1189" 
d="M354 1280l45 262h271l-45 -262h-271zM821 1280l43 262h271l-43 -262h-271zM352 0l64 395l-316 670h340l174 -403h9l323 403h326l-551 -674l-64 -391h-305z" />
    <glyph glyph-name="at.sc" horiz-adv-x="1697" 
d="M762 156q59 0 110 32t66 105l10 57q-27 -25 -80 -31l-88 -12q-102 -14 -102 -86q0 -65 84 -65zM383 180q0 213 328 248l157 18q59 6 82 18t29 48q6 34 -23 56t-77 22q-109 0 -125 -90h-281q78 274 440 274q302 0 353 -157q20 -65 2 -158l-39 -205q-36 -133 45 -133
q74 1 137 111t64 264q0 212 -152 330t-389 118q-311 0 -507 -194t-196 -496q-1 -207 135 -339t349 -132t329 94h213q-205 -229 -542 -229q-293 0 -471 169t-178 423q0 364 255 604t642 239q295 -1 486 -161t191 -422q0 -200 -100 -349q-51 -77 -139 -123t-203 -46
q-209 0 -258 108q-61 -59 -128 -84q-68 -24 -180 -24t-180 55t-69 143z" />
    <glyph glyph-name="fi.sc" horiz-adv-x="1714" 
d="M1161 0l180 1065h306l-181 -1065h-305zM68 0l180 1065h860l-35 -223h-559l-45 -273h451l-35 -217h-453l-59 -352h-305z" />
    <glyph glyph-name="fl.sc" horiz-adv-x="2136" 
d="M1161 0l180 1065h306l-140 -819h523l-43 -246h-826zM68 0l180 1065h860l-35 -223h-559l-45 -273h451l-35 -217h-453l-59 -352h-305z" />
    <glyph glyph-name="t_t" horiz-adv-x="1413" 
d="M465 0q-215 0 -285 86t-35 283l70 409h-188l41 221h184l53 304h305l-53 -304h344l53 304h306l-54 -304h240l-41 -221h-236l-67 -391q-14 -80 5 -114t97 -33h109l-41 -240h-160q-215 0 -284 86q-68 86 -35 283l69 409h-342l-67 -391q-12 -80 6 -114t96 -33h82l-43 -240
h-129z" />
    <glyph glyph-name="t_f" horiz-adv-x="1378" 
d="M1386 1499h175l-35 -229h-125q-72 0 -111 -36t-53 -124l-20 -111h227l-41 -221h-223l-133 -778h-306l133 778h-354l-67 -391q-12 -80 6 -114t96 -33h76l-41 -240h-125q-215 0 -285 86t-35 283l70 409h-188l41 221h184l53 304h305l-53 -304h354l21 113q35 205 141 296
t313 91z" />
    <glyph glyph-name="caronquoteleft" horiz-adv-x="1249" 
d="M596 1163l31 191l153 229h121l-117 -201h121l-39 -219h-270z" />
    <glyph glyph-name="caronquoteright" horiz-adv-x="1249" 
d="M631 1163l117 201h-119l39 219h270l-33 -190l-151 -230h-123z" />
    <glyph glyph-name="slashedzero" 
d="M526 219q109 0 182 119t115 367q23 133 23 243v13l-434 -687q40 -55 114 -55zM373 459v-15l434 689q-39 57 -115 57q-110 0 -182 -119t-104 -317t-33 -295zM489 -25q-217 -1 -321 133t-105 363q0 117 21 234q55 333 216 531t429 198q219 0 323 -134t105 -381
q0 -248 -104 -517t-314 -371q-113 -56 -250 -56z" />
    <glyph glyph-name="zero.sc" horiz-adv-x="1032" 
d="M461 197q152 0 211 335q16 90 16 168q0 168 -117 168q-78 0 -129 -81q-50 -81 -74 -213t-24 -209q0 -168 117 -168zM426 -25q-197 1 -291 107t-94 291q0 63 14 159q43 252 179 405t372 153q197 0 291 -108t94 -292q0 -61 -14 -158q-43 -252 -179 -404t-372 -153z" />
    <glyph glyph-name="one.sc" horiz-adv-x="1032" 
d="M225 604l-80 199l469 262h183l-142 -838h242l-37 -227h-809l35 227h268l82 488z" />
    <glyph glyph-name="two.sc" horiz-adv-x="1032" 
d="M688 765q0 50 -32 77t-87 26q-137 0 -168 -151h-282q35 193 164 283t307 90t283 -81t105 -209t-70 -214q-71 -86 -226 -158l-154 -72q-92 -44 -126 -68t-42 -61h523l-35 -227h-858q43 221 129 337t243 189l154 70q94 45 133 82t39 87z" />
    <glyph glyph-name="three.sc" horiz-adv-x="1032" 
d="M682 786q0 120 -124 120q-60 0 -102 -37q-42 -36 -50 -97h-259q25 154 142 236t293 82t279 -67t104 -189q1 -92 -53 -167t-148 -110v-8q152 -55 151 -209q0 -180 -135 -272t-345 -92q-209 0 -317 84q-108 86 -83 268h278q-10 -76 26 -119t114 -43t127 45t49 115t-40 103
q-40 32 -104 32h-71l30 184h76q72 0 117 41q45 40 45 100z" />
    <glyph glyph-name="four.sc" horiz-adv-x="1032" 
d="M291 401h235l54 312zM-8 186l26 166v8l660 705h256l-113 -664h133l-36 -215h-134l-30 -186h-295l30 186h-497z" />
    <glyph glyph-name="five.sc" horiz-adv-x="1032" 
d="M336 291q0 -117 126 -117t161 121q10 31 10 85t-34 85t-91 31q-96 0 -146 -90l-266 28l140 631h737l-41 -223h-496l-53 -221h8q70 61 206 61t230 -75t95 -214q0 -47 -11 -98q-33 -156 -159 -238t-303 -82q-176 0 -285 80t-111 236h283z" />
    <glyph glyph-name="six.sc" horiz-adv-x="1032" 
d="M352 312q0 -138 125 -138q57 0 101 34q67 53 67 169q0 57 -34 88q-33 31 -99 31t-113 -54t-47 -130zM53 356q0 78 15 164q92 569 550 570q156 0 258 -73t103 -235h-268q0 109 -113 109q-76 0 -130 -68t-93 -245h2q74 104 239 104q124 0 220 -75t96 -214q0 -221 -164 -332
q-126 -86 -310 -86q-184 -1 -294 95t-111 286z" />
    <glyph glyph-name="seven.sc" horiz-adv-x="1032" 
d="M113 0l565 817h-543l41 248h873l-27 -160l-602 -905h-307z" />
    <glyph glyph-name="eight.sc" horiz-adv-x="1032" 
d="M532 639q117 0 154 102q8 25 8 66t-30 70q-31 29 -85 29t-97 -28q-64 -43 -64 -133q0 -49 30 -77t84 -29zM322 272q0 -46 38 -76t96 -30q124 0 169 102q14 29 14 80t-38 82t-96 31t-105 -28q-78 -47 -78 -161zM23 237q0 121 63 201t174 113v8q-115 51 -115 182
q1 168 133 258q132 91 313 91t283 -67t103 -189q0 -92 -54 -167t-149 -110v-8q154 -57 154 -209q0 -178 -140 -271t-342 -93t-313 69q-110 70 -110 192z" />
    <glyph glyph-name="nine.sc" horiz-adv-x="1032" 
d="M670 752q0 138 -125 139q-57 0 -101 -34q-68 -53 -67 -169q0 -57 34 -88q33 -31 99 -31q66 -1 113 53t47 130zM311 283q0 -109 113 -109q74 0 127 67t92 242q-78 -100 -244 -100q-123 0 -217 75t-94 214q0 41 10 86q29 160 157 246t308 86t292 -96t114 -285
q0 -57 -15 -164q-94 -569 -551 -570q-156 0 -257 73t-103 235h268z" />
    <glyph glyph-name="slashedzero.sc" horiz-adv-x="1032" 
d="M360 532q-16 -84 -16 -159l305 467q-33 29 -78 28q-78 0 -129 -81t-82 -255zM461 197q152 0 211 335q16 88 16 162l-307 -467q29 -30 80 -30zM426 -25q-197 1 -291 107t-94 291q0 63 14 159q43 252 179 405t372 153q197 0 291 -108t94 -292q0 -61 -14 -158
q-43 -252 -179 -404t-372 -153z" />
    <glyph glyph-name="currency.sc" horiz-adv-x="1032" 
d="M492 365q70 0 124 57q56 58 56 132t-35 110t-105 36t-124 -57q-56 -57 -56 -131t35 -111q35 -36 105 -36zM158 475q0 129 82 234l-105 122l152 123l104 -123q84 39 176 39t164 -39l139 119l117 -137l-139 -117q18 -49 18 -106q0 -129 -82 -234l105 -123l-152 -122
l-106 122q-84 -39 -177 -39t-161 37l-139 -116l-117 137l139 117q-18 45 -18 106z" />
    <glyph glyph-name="dollar.sc" horiz-adv-x="1032" 
d="M616 291q0 49 -26 71t-86 37l-127 35q-264 78 -264 285q0 156 99 252t284 114l30 177h209l-33 -185q115 -27 189 -99t74 -196h-273q0 49 -41 78t-101 29t-103 -30q-42 -30 -41 -87q0 -68 108 -98l127 -37q137 -41 210 -106t73 -175q0 -166 -109 -262t-301 -114l-33 -185
h-209l33 191q-135 22 -216 102t-71 227h273q-4 -139 162 -139q71 0 117 33t46 82z" />
    <glyph glyph-name="cent.sc" horiz-adv-x="1032" 
d="M80 467q0 207 143 342q111 104 279 127l26 154h205l-28 -162q117 -25 193 -100t79 -195h-277q-8 39 -41 69t-101 31q-68 0 -115 -50q-72 -75 -72 -208q0 -63 36 -101t101 -38q111 0 160 102h272q-29 -114 -124 -202t-245 -107l-24 -154h-203l27 160q-137 29 -214 116
t-77 216z" />
    <glyph glyph-name="Euro.sc" horiz-adv-x="1032" 
d="M666 1083q176 0 263 -91t87 -242h-266q0 119 -107 118q-119 0 -178 -188h250l-41 -98h-232q-4 -14 -14 -90h219l-41 -99h-190v-43q0 -154 112 -153q100 0 146 122h272q-44 -153 -154 -245t-292 -92t-281 105q-98 105 -98 282v24h-121l41 99h88l14 90h-90l41 98h76
q127 403 496 403z" />
    <glyph glyph-name="yen.sc" horiz-adv-x="1032" 
d="M119 340l16 111h205l-244 614h328l125 -363h8l252 363h307l-452 -614h192l-16 -111h-207l-19 -100h209l-16 -111h-211l-21 -129h-288l20 129h-221l16 111h224l18 100h-225z" />
    <glyph glyph-name="sterling.sc" horiz-adv-x="1032" 
d="M184 104q86 0 121 105q-47 37 -90 37t-68 -22t-25 -54t18 -50q17 -16 44 -16zM709 799q0 100 -91 100q-106 0 -106 -141q0 -51 27 -135h239l-16 -136h-191q4 -33 4 -49q0 -113 -53 -219q78 -53 119 -53q68 0 90 117h209q-28 -152 -96 -229t-193 -77t-225 105
q-109 -104 -248 -105q-96 1 -155 47t-59 137t67 148q68 57 182 58q51 0 111 -25q2 12 2 50t-15 95h-192l16 136h135q-23 63 -22 125q0 160 102 250t270 92q168 0 256 -74t76 -217h-243z" />
    <glyph glyph-name="florin.sc" horiz-adv-x="1032" 
d="M753 1090q161 0 235 -75t54 -216l-8 -60h-239l8 58q10 94 -53 94q-36 0 -56 -29t-32 -100l-46 -252h220l-17 -156h-229l-68 -395q-31 -178 -126 -253t-255 -75q-159 0 -233 75t-53 216l8 62h235l-8 -58q-14 -94 53 -94q37 0 56 29q18 29 30 98l68 395h-186l16 156h197
l45 252q31 178 127 253t257 75z" />
    <glyph glyph-name="zero.TOSF" 
d="M342 416q0 -102 49 -156t133 -55q113 0 197 104t84 275q0 102 -49 156t-133 55q-113 -1 -197 -105t-84 -274zM39 410q0 264 168 439t436 175q223 0 344 -119t121 -315q0 -264 -168 -439t-436 -176q-223 0 -344 119t-121 316z" />
    <glyph glyph-name="one.TOSF" 
d="M242 498l-101 194l521 307h190l-131 -776h309l-35 -223h-942l37 223h328l67 418z" />
    <glyph glyph-name="two.TOSF" 
d="M784 709q0 49 -44 77t-122 29q-184 0 -212 -170h-295q31 193 174 286t347 93t330 -83t125 -228q0 -178 -165 -262q-55 -29 -89 -40t-92 -30l-147 -43q-190 -57 -211 -121h610l-37 -217h-966q39 229 156 350q118 121 298 172l150 45q100 29 145 61t45 81z" />
    <glyph glyph-name="three.TOSF" 
d="M450 -211q100 0 170 60q69 60 68 182q0 80 -49 124t-135 44h-107l45 233h107q89 0 155 62t66 147q0 160 -164 160q-94 0 -154 -53t-71 -146h-279q23 198 167 310t353 112t327 -92t118 -236t-73 -236q-73 -91 -189 -132v-9q90 -37 141 -111t51 -175q-1 -225 -155 -346
t-403 -121t-375 116t-87 334h293q-16 -111 32 -169t148 -58z" />
    <glyph glyph-name="four.TOSF" 
d="M266 168h316l73 426zM-76 -72l31 187l817 907h260l-145 -854h164l-43 -242h-162l-58 -336h-305l58 338h-617z" />
    <glyph glyph-name="five.TOSF" 
d="M-4 -33h299q4 -74 47 -123t124 -49t141 45t85 133q12 61 12 125t-48 114t-119 50q-117 0 -195 -123l-270 37l184 823h840l-41 -243h-576l-76 -334h9q86 70 238 70t259 -98q106 -98 107 -275q0 -303 -207 -448q-149 -105 -353 -105t-332 102t-128 299z" />
    <glyph glyph-name="six.TOSF" 
d="M606 672q-84 0 -154 -74t-69 -215q0 -84 47 -131t119 -47t130 42q103 75 103 247q0 84 -46 131t-130 47zM70 451q0 119 14 231q49 344 214 548t443 204q187 0 305 -92t115 -285h-293q2 147 -147 147q-209 0 -305 -440h2q39 63 119 100t182 37q155 0 263 -97t108 -276
q0 -86 -19 -157q-43 -193 -189 -294t-352 -101t-334 113q-126 114 -126 362z" />
    <glyph glyph-name="seven.TOSF" 
d="M63 -410l721 1149h-667l41 260h1011l-30 -176l-760 -1233h-316z" />
    <glyph glyph-name="eight.TOSF" 
d="M854 1050q0 164 -178 162q-84 0 -146 -60t-61 -146q0 -164 178 -164q84 0 146 61q61 61 61 147zM344 367q0 -78 51 -123t143 -45t163 62t71 179q0 78 -51 123t-143 45t-163 -62t-71 -179zM518 -25q-238 -1 -360 93q-123 94 -123 250t82 260t225 151v8q-74 31 -116 103
t-42 161q0 197 154 315t367 118t329 -92t117 -252q0 -115 -76 -214t-188 -139v-8q197 -76 197 -292t-164 -339t-402 -123z" />
    <glyph glyph-name="nine.TOSF" 
d="M538 326q84 0 154 74t70 216q0 82 -47 129t-119 47t-130 -41t-82 -111t-24 -145t47 -122t131 -47zM424 96q-156 0 -264 98t-107 277q0 86 19 156q43 193 190 294t353 101t332 -114t126 -361q0 -133 -12 -232q-51 -343 -215 -547t-445 -204q-186 0 -304 91
q-117 91 -115 286h294q-6 -147 148 -148q205 0 301 424q-92 -121 -301 -121z" />
    <glyph glyph-name="slashedzero.TOSF" 
d="M805 584q0 41 -8 71l-381 -419q43 -31 108 -31q113 1 197 105t84 274zM342 416q0 -47 8 -74l381 420q-45 33 -108 33q-113 -1 -197 -105t-84 -274zM39 410q0 264 168 439t436 175q223 0 344 -119t121 -315q0 -264 -168 -439t-436 -176q-223 0 -344 119t-121 316z" />
    <glyph glyph-name="zero.PPF" horiz-adv-x="1269" 
d="M575 219q242 0 330 486q20 117 21 217q0 268 -185 268q-242 0 -323 -485q-23 -131 -23 -220q0 -266 180 -266zM86 483q0 104 18 222q56 325 224 527t450 202q233 0 346 -138t113 -372q0 -111 -20 -219q-55 -326 -225 -528t-453 -202q-231 -1 -342 137t-111 371z" />
    <glyph glyph-name="one.PPF" horiz-adv-x="825" 
d="M207 891l-103 207l521 311h190l-240 -1409h-305l174 1034z" />
    <glyph glyph-name="two.PPF" horiz-adv-x="1148" 
d="M850 1034q0 160 -166 160q-188 0 -238 -219h-294q78 459 567 459q201 0 321 -96t121 -269q0 -174 -91 -282t-290 -212l-186 -100q-111 -61 -153 -115t-58 -120h647l-37 -240h-1009q49 260 144 411t292 257l186 102q135 74 190 129q54 55 54 135z" />
    <glyph glyph-name="three.PPF" horiz-adv-x="1185" 
d="M879 1044q0 166 -183 166q-88 0 -150 -51t-79 -147h-285q34 206 182 314t360 108t329 -96t116 -255q-1 -121 -79 -219t-199 -127v-8q99 -31 157 -111t58 -188q0 -219 -165 -337t-411 -118t-378 113q-134 113 -101 338h285q-10 -111 43 -169t165 -58t184 63q72 64 73 158
q-1 94 -55 141t-150 47h-100l43 234h106q98 0 166 59t68 143z" />
    <glyph glyph-name="four.PPF" horiz-adv-x="1210" 
d="M334 524h336l75 455zM-6 285l31 186l837 938h260l-149 -885h205l-41 -239h-205l-47 -285h-303l47 285h-635z" />
    <glyph glyph-name="five.PPF" horiz-adv-x="1169" 
d="M528 205q100 0 177 76q76 76 75 202q0 85 -51 137t-135 52q-133 0 -219 -117l-260 25l194 829h858l-43 -244h-592l-79 -331h8q73 68 237 68t280 -101q116 -100 116 -279q0 -252 -171 -399t-397 -147t-363 100q-138 102 -136 301h299q4 -68 53 -120t149 -52z" />
    <glyph glyph-name="six.PPF" horiz-adv-x="1228" 
d="M848 483q0 85 -51 137t-147 52t-175 -76q-78 -76 -78 -203q-1 -80 53 -134t150 -54t172 77t76 201zM84 457q0 150 22 272q62 340 240 522t442 183q190 0 312 -96t121 -294h-293q2 76 -41 118t-121 42q-109 0 -198 -101t-136 -331q96 129 332 129q164 0 278 -99t113 -280
q0 -250 -172 -398q-171 -148 -403 -148t-364 122q-132 123 -132 359z" />
    <glyph glyph-name="seven.PPF" horiz-adv-x="1032" 
d="M45 0l725 1149h-631l41 260h975l-31 -176l-766 -1233h-313z" />
    <glyph glyph-name="eight.PPF" horiz-adv-x="1187" 
d="M879 1044q1 84 -49 126t-139 42t-155 -59t-65 -143q0 -84 49 -126t138 -42t155 59t66 143zM330 383q0 -184 212 -184q104 1 182 67q77 66 77 157q1 185 -213 185q-104 0 -182 -66q-76 -66 -76 -159zM25 334q0 140 89 246t234 149v8q-70 27 -117 101t-47 163
q0 197 158 315t374 118t335 -96t118 -261q1 -117 -79 -214t-197 -126v-8q97 -31 155 -111t58 -188q0 -219 -169 -337t-413 -118q-244 -1 -371 93q-128 94 -128 266z" />
    <glyph glyph-name="nine.PPF" horiz-adv-x="1228" 
d="M442 926q0 -84 52 -136t148 -53q96 0 174 76t77 203q0 80 -53 134t-150 54q-96 0 -172 -77t-76 -201zM526 205q240 0 332 430q-100 -127 -332 -127q-164 0 -278 99t-113 280q0 250 172 398q171 149 403 149t364 -123t132 -359q0 -147 -22 -272q-62 -342 -236 -523
t-438 -182q-192 -1 -316 95t-122 295h293q-2 -76 41 -118t120 -42z" />
    <glyph glyph-name="slashedzero.PPF" horiz-adv-x="1269" 
d="M575 219q242 0 330 486q28 166 17 290l-463 -733q42 -43 116 -43zM395 512q0 -60 4 -109l465 738q-45 49 -123 49q-242 0 -323 -485q-23 -133 -23 -193zM539 -25q-231 -1 -342 137t-111 371q0 104 18 222q56 325 224 527t450 202q233 0 346 -138t113 -372
q0 -111 -20 -219q-55 -326 -224 -528t-454 -202z" />
    <glyph glyph-name="currency.PPF" horiz-adv-x="1005" 
d="M692 722q0 148 -142 148q-70 0 -123 -57q-54 -57 -54 -133q1 -146 141 -145q70 0 124 56q54 55 54 131zM587 1040q91 0 163 -39l139 119l119 -139l-140 -117q18 -47 19 -104q0 -133 -84 -236l104 -123l-151 -122l-107 122q-84 -39 -174 -39t-162 39l-139 -116l-119 137
l140 115q-18 49 -19 108q0 129 82 234l-102 122l151 123l105 -123q84 39 175 39z" />
    <glyph glyph-name="dollar.PPF" horiz-adv-x="1169" 
d="M526 197q104 0 172 53t68 133t-45 116t-137 64l-150 47q-106 30 -199 106q-92 77 -92 253t128 302t335 154l37 222h225l-37 -224q147 -29 233 -123t81 -256h-299q0 78 -46 120t-131 42t-145 -47t-61 -119q0 -72 37 -105q37 -32 121 -56l149 -48q309 -96 309 -368
q0 -193 -129 -324t-364 -157l-37 -228h-225l38 230q-168 24 -263 130t-83 292h299q-9 -100 49 -154t162 -55z" />
    <glyph glyph-name="cent.PPF" horiz-adv-x="1175" 
d="M98 618q0 242 142 410t381 201l32 205h226l-33 -209q143 -29 231 -122t90 -243h-299q-2 62 -48 108t-130 46q-123 0 -200 -108t-76 -277q0 -101 51 -159t143 -58q156 0 217 153h299q-41 -145 -158 -248q-118 -102 -300 -124l-35 -218h-225l36 226q-164 33 -254 143
t-90 274z" />
    <glyph glyph-name="Euro.PPF" horiz-adv-x="1312" 
d="M891 1196q-211 0 -313 -276h321l-43 -148h-319q-20 -104 -23 -133h309l-45 -147h-270q2 -279 215 -279q176 0 250 164h284q-158 -401 -571 -402q-242 1 -364 141t-125 376h-162l45 147h121q2 20 20 133h-127l45 148h123q82 238 251 376t399 138t346 -113
q114 -113 118 -301h-284q-12 176 -201 176z" />
    <glyph glyph-name="yen.PPF" horiz-adv-x="1165" 
d="M133 463l31 147h268l-301 799h332l178 -504h8l361 504h325l-581 -799h272l-31 -147h-274l-21 -123h283l-31 -147h-276l-31 -193h-305l31 193h-281l31 147h274l21 123h-283z" />
    <glyph glyph-name="sterling.PPF" horiz-adv-x="1218" 
d="M174 117q90 0 139 133q-59 37 -108 37t-78 -28t-29 -66q0 -76 76 -76zM297 983q0 207 126 329t368 122q186 0 289 -92t81 -269h-268q10 66 -21 111t-102 45q-174 0 -174 -238q0 -72 22 -184h336l-22 -164h-291q4 -45 4 -72q0 -135 -67 -280q156 -98 219 -98
q115 0 141 143h223q-66 -360 -373 -361q-141 0 -319 150q-135 -150 -317 -150q-100 1 -165 53t-65 158t82 178q82 73 213 72q55 0 129 -24q6 51 6 100t-8 131h-207l23 164h155q-18 102 -18 176z" />
    <glyph glyph-name="florin.PPF" horiz-adv-x="1110" 
d="M846 1219q-88 0 -117 -172l-55 -312h282l-24 -182h-291l-98 -559q-37 -207 -143 -297t-280 -90q-175 0 -260 93t-57 280l9 55h254l-9 -55q-12 -86 2 -122t62 -36q88 0 117 172l100 559h-244l23 182h254l55 312q37 207 142 297q106 90 280 90t259 -94t58 -279l-8 -55h-254
l8 55q12 84 -3 121t-62 37z" />
    <glyph glyph-name="zero.scppf" horiz-adv-x="1132" 
d="M504 197q178 0 235 335q14 78 15 150q0 186 -131 186q-180 0 -234 -336q-16 -88 -16 -149q0 -186 131 -186zM68 381q0 66 10 151q35 242 179 400t394 158q211 0 311 -111t99 -297q0 -47 -12 -150q-35 -242 -179 -400t-395 -157q-209 0 -308 111t-99 295z" />
    <glyph glyph-name="one.scppf" horiz-adv-x="761" 
d="M145 614l-86 199l455 252h180l-180 -1065h-297l119 715z" />
    <glyph glyph-name="two.scppf" horiz-adv-x="1052" 
d="M715 768q0 51 -36 79t-101 27q-147 0 -185 -157h-282q37 190 172 281q135 92 321 92t292 -82t108 -210q0 -128 -75 -213t-237 -157l-157 -72q-94 -46 -129 -70t-41 -59h544l-39 -227h-890q43 217 136 335t255 191l153 70q102 49 147 85q44 36 44 87z" />
    <glyph glyph-name="three.scppf" horiz-adv-x="1034" 
d="M450 166q84 0 141 45q56 45 56 115t-44 102q-44 33 -116 33h-71l30 178h76q78 0 128 45q50 46 50 104q0 120 -131 117q-71 0 -117 -39t-57 -100h-262q25 154 146 239t303 85t292 -68t109 -195q0 -205 -201 -270v-8q70 -23 111 -78t41 -131q0 -180 -141 -272t-355 -92
t-328 82q-112 84 -85 270h268q-14 -78 30 -120q43 -42 127 -42z" />
    <glyph glyph-name="four.scppf" horiz-adv-x="1050" 
d="M281 401h260l55 322zM-25 186l25 162v12l692 705h256l-112 -664h145l-37 -215h-145l-31 -186h-293l31 186h-531z" />
    <glyph glyph-name="five.scppf" horiz-adv-x="1038" 
d="M474 174q77 0 133 51q57 51 57 126t-42 110t-108 35q-111 0 -172 -90l-260 28l139 631h780l-40 -223h-541l-53 -230h10q94 70 228 70q135 0 237 -74t102 -215q0 -197 -138 -307t-336 -111q-198 0 -314 80q-117 80 -119 236h276q2 -55 43 -86t118 -31z" />
    <glyph glyph-name="six.scppf" horiz-adv-x="1077" 
d="M547 496q-76 0 -131 -50q-56 -50 -56 -126t41 -111t117 -35t131 51t55 127t-40 110q-41 34 -117 34zM764 782q0 109 -135 109q-87 0 -147 -67t-99 -246h2q74 104 262 104q133 0 235 -74t103 -215q0 -197 -141 -307t-345 -111q-205 0 -317 95t-114 290q0 102 8 160
q86 569 573 570q187 0 287 -82t96 -226h-268z" />
    <glyph glyph-name="seven.scppf" horiz-adv-x="921" 
d="M41 0l565 817h-518l43 248h846l-27 -160l-602 -905h-307z" />
    <glyph glyph-name="eight.scppf" horiz-adv-x="1062" 
d="M420 756q0 -118 140 -117q70 0 117 44q48 45 48 105q0 120 -131 117q-78 0 -126 -44q-48 -45 -48 -105zM510 461q-76 0 -136 -46q-60 -45 -59 -115q0 -134 154 -134q86 0 144 45q59 45 59 115t-43 102q-43 33 -119 33zM20 231q0 123 65 205t173 115v8q-115 61 -115 182
q-1 168 135 258q136 91 326 91t296 -67t108 -189q0 -211 -201 -277v-8q152 -57 151 -209q0 -178 -142 -271t-354 -93t-328 66q-114 67 -114 189z" />
    <glyph glyph-name="nine.scppf" horiz-adv-x="1081" 
d="M721 746q0 146 -157 145q-75 0 -130 -51t-55 -127q0 -144 157 -144q76 1 130 51t55 126zM317 283q0 -47 34 -78t113 -31t137 68t95 245q-72 -104 -262 -104q-133 0 -235 74t-103 215q0 198 142 308t344 110q204 0 318 -96t114 -289q0 -102 -8 -160q-86 -569 -570 -570
q-190 0 -291 81q-100 82 -96 227h268z" />
    <glyph glyph-name="slashedzero.scppf" horiz-adv-x="1132" 
d="M504 197q178 0 235 335q23 131 13 183l-326 -494q31 -24 78 -24zM373 400q0 -44 2 -56l327 498q-33 27 -79 26q-180 0 -234 -336q-16 -88 -16 -132zM68 381q0 66 10 151q35 242 179 400t394 158q211 0 311 -111t99 -297q0 -47 -12 -150q-35 -242 -179 -400t-395 -157
q-209 0 -308 111t-99 295z" />
    </font>
</defs>
</svg>
